<svg xmlns="http://www.w3.org/2000/svg" xmlns:xlink="http://www.w3.org/1999/xlink" width="400" height="387.801" viewBox="0 0 400 387.801">
  <defs>
    <clipPath id="clip-path">
      <rect id="Rectángulo_373516" data-name="Rectángulo 373516" width="400" height="377" transform="translate(1020 378)" fill="#fff" stroke="#707070" stroke-width="1"/>
    </clipPath>
    <clipPath id="clip-path-2">
      <rect id="Rectángulo_373515" data-name="Rectángulo 373515" width="277.5" height="533.749" fill="none"/>
    </clipPath>
  </defs>
  <g id="Grupo_1064567" data-name="Grupo 1064567" transform="translate(-1020 -378)">
    <g id="Grupo_1044016" data-name="Grupo 1044016">
      <g id="Grupo_80138" data-name="Grupo 80138" transform="translate(1020 397.382)">
        <path id="Trazado_145968" data-name="Trazado 145968" d="M52.535,0A52.535,52.535,0,1,1,0,52.535,52.535,52.535,0,0,1,52.535,0Z" transform="translate(287 258.788)" fill="#3449bc" style="mix-blend-mode: multiply;isolation: isolate"/>
        <rect id="Rectángulo_34816" data-name="Rectángulo 34816" width="324" height="191" rx="8" transform="translate(33 20.618)" fill="#c1ede9"/>
        <g id="Grupo_145969" data-name="Grupo 145969" transform="translate(14.352 0.325)" style="isolation: isolate">
          <path id="Trazado_145969" data-name="Trazado 145969" d="M35.9,0A35.9,35.9,0,1,1,0,35.9,35.9,35.9,0,0,1,35.9,0Z" transform="translate(0 0)" fill="#3449bc"/>
          <path id="Trazado_145969_-_Contorno" data-name="Trazado 145969 - Contorno" d="M35.9,0A35.9,35.9,0,1,1,0,35.9,35.9,35.9,0,0,1,35.9,0Z" transform="translate(0 0)" fill="#3449bc"/>
        </g>
        <g id="Grupo_80137" data-name="Grupo 80137" transform="translate(32.982 326.754)" style="isolation: isolate">
          <path id="Trazado_145969-2" data-name="Trazado 145969" d="M13.267,0A13.267,13.267,0,1,1,0,13.267,13.267,13.267,0,0,1,13.267,0Z" transform="translate(0 0)" fill="#4dcbbf"/>
          <path id="Trazado_145969_-_Contorno-2" data-name="Trazado 145969 - Contorno" d="M13.267,0A13.267,13.267,0,1,1,0,13.267,13.267,13.267,0,0,1,13.267,0Z" transform="translate(0 0)" fill="#4dcbbf"/>
        </g>
        <rect id="Rectángulo_34812" data-name="Rectángulo 34812" width="400" height="368.419" fill="none"/>
        <g id="Grupo_78276" data-name="Grupo 78276" transform="translate(307 280.788)">
          <g id="Grupo_53306" data-name="Grupo 53306">
            <path id="Trazado_99200" data-name="Trazado 99200" d="M415.641,50.906a.714.714,0,1,1-.714-.682A.7.7,0,0,1,415.641,50.906Z" transform="translate(-414.214 -50.224)" fill="#fff" stroke="#fff" stroke-width="1"/>
            <path id="Trazado_99201" data-name="Trazado 99201" d="M424.087,50.906a.714.714,0,1,1-.713-.682A.7.7,0,0,1,424.087,50.906Z" transform="translate(-416.24 -50.224)" fill="#fff" stroke="#fff" stroke-width="1"/>
            <path id="Trazado_99202" data-name="Trazado 99202" d="M432.533,50.906a.714.714,0,1,1-.713-.682A.7.7,0,0,1,432.533,50.906Z" transform="translate(-418.266 -50.224)" fill="#fff" stroke="#fff" stroke-width="1"/>
            <path id="Trazado_99203" data-name="Trazado 99203" d="M440.98,50.906a.714.714,0,1,1-.714-.682A.7.7,0,0,1,440.98,50.906Z" transform="translate(-420.292 -50.224)" fill="#fff" stroke="#fff" stroke-width="1"/>
            <path id="Trazado_99204" data-name="Trazado 99204" d="M449.426,50.906a.714.714,0,1,1-.713-.682A.7.7,0,0,1,449.426,50.906Z" transform="translate(-422.318 -50.224)" fill="#fff" stroke="#fff" stroke-width="1"/>
            <path id="Trazado_99205" data-name="Trazado 99205" d="M457.872,50.906a.714.714,0,1,1-.713-.682A.7.7,0,0,1,457.872,50.906Z" transform="translate(-424.344 -50.224)" fill="#fff" stroke="#fff" stroke-width="1"/>
            <path id="Trazado_99206" data-name="Trazado 99206" d="M466.319,50.906a.714.714,0,1,1-.714-.682A.7.7,0,0,1,466.319,50.906Z" transform="translate(-426.37 -50.224)" fill="#fff" stroke="#fff" stroke-width="1"/>
            <path id="Trazado_99207" data-name="Trazado 99207" d="M474.765,50.906a.714.714,0,1,1-.713-.682A.7.7,0,0,1,474.765,50.906Z" transform="translate(-428.396 -50.224)" fill="#fff" stroke="#fff" stroke-width="1"/>
            <path id="Trazado_99208" data-name="Trazado 99208" d="M483.211,50.906a.714.714,0,1,1-.713-.682A.7.7,0,0,1,483.211,50.906Z" transform="translate(-430.422 -50.224)" fill="#fff" stroke="#fff" stroke-width="1"/>
            <path id="Trazado_99209" data-name="Trazado 99209" d="M491.658,50.906a.714.714,0,1,1-.714-.682A.7.7,0,0,1,491.658,50.906Z" transform="translate(-432.448 -50.224)" fill="#fff" stroke="#fff" stroke-width="1"/>
            <path id="Trazado_99210" data-name="Trazado 99210" d="M500.1,50.906a.714.714,0,1,1-.714-.682A.7.7,0,0,1,500.1,50.906Z" transform="translate(-434.475 -50.224)" fill="#fff" stroke="#fff" stroke-width="1"/>
          </g>
          <g id="Grupo_53307" data-name="Grupo 53307" transform="translate(0 5.458)">
            <path id="Trazado_99211" data-name="Trazado 99211" d="M415.641,58.414a.714.714,0,1,1-.714-.682A.7.7,0,0,1,415.641,58.414Z" transform="translate(-414.214 -57.732)" fill="#fff" stroke="#fff" stroke-width="1"/>
            <path id="Trazado_99212" data-name="Trazado 99212" d="M424.087,58.414a.714.714,0,1,1-.713-.682A.7.7,0,0,1,424.087,58.414Z" transform="translate(-416.24 -57.732)" fill="#fff" stroke="#fff" stroke-width="1"/>
            <path id="Trazado_99213" data-name="Trazado 99213" d="M432.533,58.414a.714.714,0,1,1-.713-.682A.7.7,0,0,1,432.533,58.414Z" transform="translate(-418.266 -57.732)" fill="#fff" stroke="#fff" stroke-width="1"/>
            <path id="Trazado_99214" data-name="Trazado 99214" d="M440.98,58.414a.714.714,0,1,1-.714-.682A.7.7,0,0,1,440.98,58.414Z" transform="translate(-420.292 -57.732)" fill="#fff" stroke="#fff" stroke-width="1"/>
            <path id="Trazado_99215" data-name="Trazado 99215" d="M449.426,58.414a.714.714,0,1,1-.713-.682A.7.7,0,0,1,449.426,58.414Z" transform="translate(-422.318 -57.732)" fill="#fff" stroke="#fff" stroke-width="1"/>
            <path id="Trazado_99216" data-name="Trazado 99216" d="M457.872,58.414a.714.714,0,1,1-.713-.682A.7.7,0,0,1,457.872,58.414Z" transform="translate(-424.344 -57.732)" fill="#fff" stroke="#fff" stroke-width="1"/>
            <path id="Trazado_99217" data-name="Trazado 99217" d="M466.319,58.414a.714.714,0,1,1-.714-.682A.7.7,0,0,1,466.319,58.414Z" transform="translate(-426.37 -57.732)" fill="#fff" stroke="#fff" stroke-width="1"/>
            <path id="Trazado_99218" data-name="Trazado 99218" d="M474.765,58.414a.714.714,0,1,1-.713-.682A.7.7,0,0,1,474.765,58.414Z" transform="translate(-428.396 -57.732)" fill="#fff" stroke="#fff" stroke-width="1"/>
            <path id="Trazado_99219" data-name="Trazado 99219" d="M483.211,58.414a.714.714,0,1,1-.713-.682A.7.7,0,0,1,483.211,58.414Z" transform="translate(-430.422 -57.732)" fill="#fff" stroke="#fff" stroke-width="1"/>
            <path id="Trazado_99220" data-name="Trazado 99220" d="M491.658,58.414a.714.714,0,1,1-.714-.682A.7.7,0,0,1,491.658,58.414Z" transform="translate(-432.448 -57.732)" fill="#fff" stroke="#fff" stroke-width="1"/>
            <path id="Trazado_99221" data-name="Trazado 99221" d="M500.1,58.414a.714.714,0,1,1-.714-.682A.7.7,0,0,1,500.1,58.414Z" transform="translate(-434.475 -57.732)" fill="#fff" stroke="#fff" stroke-width="1"/>
          </g>
          <g id="Grupo_53308" data-name="Grupo 53308" transform="translate(0 10.915)">
            <ellipse id="Elipse_3955" data-name="Elipse 3955" cx="0.713" cy="0.682" rx="0.713" ry="0.682" fill="#fff" stroke="#fff" stroke-width="1"/>
            <path id="Trazado_99222" data-name="Trazado 99222" d="M424.087,65.922a.714.714,0,1,1-.713-.682A.7.7,0,0,1,424.087,65.922Z" transform="translate(-416.24 -65.24)" fill="#fff" stroke="#fff" stroke-width="1"/>
            <ellipse id="Elipse_3956" data-name="Elipse 3956" cx="0.713" cy="0.682" rx="0.713" ry="0.682" transform="translate(12.84)" fill="#fff" stroke="#fff" stroke-width="1"/>
            <path id="Trazado_99223" data-name="Trazado 99223" d="M440.98,65.922a.714.714,0,1,1-.714-.682A.7.7,0,0,1,440.98,65.922Z" transform="translate(-420.292 -65.24)" fill="#fff" stroke="#fff" stroke-width="1"/>
            <path id="Trazado_99224" data-name="Trazado 99224" d="M449.426,65.922a.714.714,0,1,1-.713-.682A.7.7,0,0,1,449.426,65.922Z" transform="translate(-422.318 -65.24)" fill="#fff" stroke="#fff" stroke-width="1"/>
            <ellipse id="Elipse_3957" data-name="Elipse 3957" cx="0.713" cy="0.682" rx="0.713" ry="0.682" transform="translate(32.101)" fill="#fff" stroke="#fff" stroke-width="1"/>
            <path id="Trazado_99225" data-name="Trazado 99225" d="M466.319,65.922a.714.714,0,1,1-.714-.682A.7.7,0,0,1,466.319,65.922Z" transform="translate(-426.37 -65.24)" fill="#fff" stroke="#fff" stroke-width="1"/>
            <ellipse id="Elipse_3958" data-name="Elipse 3958" cx="0.713" cy="0.682" rx="0.713" ry="0.682" transform="translate(44.942)" fill="#fff" stroke="#fff" stroke-width="1"/>
            <ellipse id="Elipse_3959" data-name="Elipse 3959" cx="0.713" cy="0.682" rx="0.713" ry="0.682" transform="translate(51.362)" fill="#fff" stroke="#fff" stroke-width="1"/>
            <path id="Trazado_99226" data-name="Trazado 99226" d="M491.658,65.922a.714.714,0,1,1-.714-.682A.7.7,0,0,1,491.658,65.922Z" transform="translate(-432.448 -65.24)" fill="#fff" stroke="#fff" stroke-width="1"/>
            <path id="Trazado_99227" data-name="Trazado 99227" d="M500.1,65.922a.714.714,0,1,1-.714-.682A.7.7,0,0,1,500.1,65.922Z" transform="translate(-434.474 -65.24)" fill="#fff" stroke="#fff" stroke-width="1"/>
          </g>
          <g id="Grupo_53309" data-name="Grupo 53309" transform="translate(0 16.373)">
            <ellipse id="Elipse_3960" data-name="Elipse 3960" cx="0.713" cy="0.682" rx="0.713" ry="0.682" transform="translate(0 0)" fill="#fff" stroke="#fff" stroke-width="1"/>
            <path id="Trazado_99228" data-name="Trazado 99228" d="M424.087,73.43a.714.714,0,1,1-.713-.683A.7.7,0,0,1,424.087,73.43Z" transform="translate(-416.24 -72.747)" fill="#fff" stroke="#fff" stroke-width="1"/>
            <ellipse id="Elipse_3961" data-name="Elipse 3961" cx="0.713" cy="0.682" rx="0.713" ry="0.682" transform="translate(12.84 0)" fill="#fff" stroke="#fff" stroke-width="1"/>
            <path id="Trazado_99229" data-name="Trazado 99229" d="M440.98,73.43a.714.714,0,1,1-.714-.683A.7.7,0,0,1,440.98,73.43Z" transform="translate(-420.292 -72.747)" fill="#fff" stroke="#fff" stroke-width="1"/>
            <path id="Trazado_99230" data-name="Trazado 99230" d="M449.426,73.43a.714.714,0,1,1-.713-.683A.7.7,0,0,1,449.426,73.43Z" transform="translate(-422.318 -72.747)" fill="#fff" stroke="#fff" stroke-width="1"/>
            <ellipse id="Elipse_3962" data-name="Elipse 3962" cx="0.713" cy="0.682" rx="0.713" ry="0.682" transform="translate(32.101 0)" fill="#fff" stroke="#fff" stroke-width="1"/>
            <path id="Trazado_99231" data-name="Trazado 99231" d="M466.319,73.43a.714.714,0,1,1-.714-.683A.7.7,0,0,1,466.319,73.43Z" transform="translate(-426.37 -72.747)" fill="#fff" stroke="#fff" stroke-width="1"/>
            <ellipse id="Elipse_3963" data-name="Elipse 3963" cx="0.713" cy="0.682" rx="0.713" ry="0.682" transform="translate(44.942 0)" fill="#fff" stroke="#fff" stroke-width="1"/>
            <ellipse id="Elipse_3964" data-name="Elipse 3964" cx="0.713" cy="0.682" rx="0.713" ry="0.682" transform="translate(51.362 0)" fill="#fff" stroke="#fff" stroke-width="1"/>
            <path id="Trazado_99232" data-name="Trazado 99232" d="M491.658,73.43a.714.714,0,1,1-.714-.683A.7.7,0,0,1,491.658,73.43Z" transform="translate(-432.448 -72.747)" fill="#fff" stroke="#fff" stroke-width="1"/>
            <path id="Trazado_99233" data-name="Trazado 99233" d="M500.1,73.43a.714.714,0,1,1-.714-.683A.7.7,0,0,1,500.1,73.43Z" transform="translate(-434.474 -72.747)" fill="#fff" stroke="#fff" stroke-width="1"/>
          </g>
          <g id="Grupo_53310" data-name="Grupo 53310" transform="translate(0 21.83)">
            <path id="Trazado_99234" data-name="Trazado 99234" d="M415.641,80.938a.714.714,0,1,1-.714-.683A.7.7,0,0,1,415.641,80.938Z" transform="translate(-414.214 -80.255)" fill="#fff" stroke="#fff" stroke-width="1"/>
            <path id="Trazado_99235" data-name="Trazado 99235" d="M424.087,80.938a.714.714,0,1,1-.713-.683A.7.7,0,0,1,424.087,80.938Z" transform="translate(-416.24 -80.255)" fill="#fff" stroke="#fff" stroke-width="1"/>
            <path id="Trazado_99236" data-name="Trazado 99236" d="M432.533,80.938a.714.714,0,1,1-.713-.683A.7.7,0,0,1,432.533,80.938Z" transform="translate(-418.266 -80.255)" fill="#fff" stroke="#fff" stroke-width="1"/>
            <path id="Trazado_99237" data-name="Trazado 99237" d="M440.98,80.938a.714.714,0,1,1-.714-.683A.7.7,0,0,1,440.98,80.938Z" transform="translate(-420.292 -80.255)" fill="#fff" stroke="#fff" stroke-width="1"/>
            <path id="Trazado_99238" data-name="Trazado 99238" d="M449.426,80.938a.714.714,0,1,1-.713-.683A.7.7,0,0,1,449.426,80.938Z" transform="translate(-422.318 -80.255)" fill="#fff" stroke="#fff" stroke-width="1"/>
            <path id="Trazado_99239" data-name="Trazado 99239" d="M457.872,80.938a.714.714,0,1,1-.713-.683A.7.7,0,0,1,457.872,80.938Z" transform="translate(-424.344 -80.255)" fill="#fff" stroke="#fff" stroke-width="1"/>
            <path id="Trazado_99240" data-name="Trazado 99240" d="M466.319,80.938a.714.714,0,1,1-.714-.683A.7.7,0,0,1,466.319,80.938Z" transform="translate(-426.37 -80.255)" fill="#fff" stroke="#fff" stroke-width="1"/>
            <path id="Trazado_99241" data-name="Trazado 99241" d="M474.765,80.938a.714.714,0,1,1-.713-.683A.7.7,0,0,1,474.765,80.938Z" transform="translate(-428.396 -80.255)" fill="#fff" stroke="#fff" stroke-width="1"/>
            <path id="Trazado_99242" data-name="Trazado 99242" d="M483.211,80.938a.714.714,0,1,1-.713-.683A.7.7,0,0,1,483.211,80.938Z" transform="translate(-430.422 -80.255)" fill="#fff" stroke="#fff" stroke-width="1"/>
            <path id="Trazado_99243" data-name="Trazado 99243" d="M491.658,80.938a.714.714,0,1,1-.714-.683A.7.7,0,0,1,491.658,80.938Z" transform="translate(-432.448 -80.255)" fill="#fff" stroke="#fff" stroke-width="1"/>
            <path id="Trazado_99244" data-name="Trazado 99244" d="M500.1,80.938a.714.714,0,1,1-.714-.683A.7.7,0,0,1,500.1,80.938Z" transform="translate(-434.475 -80.255)" fill="#fff" stroke="#fff" stroke-width="1"/>
          </g>
          <g id="Grupo_53311" data-name="Grupo 53311" transform="translate(0 27.288)">
            <ellipse id="Elipse_3965" data-name="Elipse 3965" cx="0.713" cy="0.682" rx="0.713" ry="0.682" transform="translate(0 0)" fill="#fff" stroke="#fff" stroke-width="1"/>
            <path id="Trazado_99245" data-name="Trazado 99245" d="M424.087,88.446a.714.714,0,1,1-.713-.683A.7.7,0,0,1,424.087,88.446Z" transform="translate(-416.24 -87.763)" fill="#fff" stroke="#fff" stroke-width="1"/>
            <ellipse id="Elipse_3966" data-name="Elipse 3966" cx="0.713" cy="0.682" rx="0.713" ry="0.682" transform="translate(12.84 0)" fill="#fff" stroke="#fff" stroke-width="1"/>
            <path id="Trazado_99246" data-name="Trazado 99246" d="M440.98,88.446a.714.714,0,1,1-.714-.683A.7.7,0,0,1,440.98,88.446Z" transform="translate(-420.292 -87.763)" fill="#fff" stroke="#fff" stroke-width="1"/>
            <path id="Trazado_99247" data-name="Trazado 99247" d="M449.426,88.446a.714.714,0,1,1-.713-.683A.7.7,0,0,1,449.426,88.446Z" transform="translate(-422.318 -87.763)" fill="#fff" stroke="#fff" stroke-width="1"/>
            <ellipse id="Elipse_3967" data-name="Elipse 3967" cx="0.713" cy="0.682" rx="0.713" ry="0.682" transform="translate(32.101 0)" fill="#fff" stroke="#fff" stroke-width="1"/>
            <path id="Trazado_99248" data-name="Trazado 99248" d="M466.319,88.446a.714.714,0,1,1-.714-.683A.7.7,0,0,1,466.319,88.446Z" transform="translate(-426.37 -87.763)" fill="#fff" stroke="#fff" stroke-width="1"/>
            <ellipse id="Elipse_3968" data-name="Elipse 3968" cx="0.713" cy="0.682" rx="0.713" ry="0.682" transform="translate(44.942 0)" fill="#fff" stroke="#fff" stroke-width="1"/>
            <ellipse id="Elipse_3969" data-name="Elipse 3969" cx="0.713" cy="0.682" rx="0.713" ry="0.682" transform="translate(51.362 0)" fill="#fff" stroke="#fff" stroke-width="1"/>
            <path id="Trazado_99249" data-name="Trazado 99249" d="M491.658,88.446a.714.714,0,1,1-.714-.683A.7.7,0,0,1,491.658,88.446Z" transform="translate(-432.448 -87.763)" fill="#fff" stroke="#fff" stroke-width="1"/>
            <path id="Trazado_99250" data-name="Trazado 99250" d="M500.1,88.446a.714.714,0,1,1-.714-.683A.7.7,0,0,1,500.1,88.446Z" transform="translate(-434.474 -87.763)" fill="#fff" stroke="#fff" stroke-width="1"/>
          </g>
          <g id="Grupo_53312" data-name="Grupo 53312" transform="translate(0 32.746)">
            <ellipse id="Elipse_3970" data-name="Elipse 3970" cx="0.713" cy="0.682" rx="0.713" ry="0.682" fill="#fff" stroke="#fff" stroke-width="1"/>
            <path id="Trazado_99251" data-name="Trazado 99251" d="M424.087,95.953a.714.714,0,1,1-.713-.682A.7.7,0,0,1,424.087,95.953Z" transform="translate(-416.24 -95.271)" fill="#fff" stroke="#fff" stroke-width="1"/>
            <ellipse id="Elipse_3971" data-name="Elipse 3971" cx="0.713" cy="0.682" rx="0.713" ry="0.682" transform="translate(12.84)" fill="#fff" stroke="#fff" stroke-width="1"/>
            <path id="Trazado_99252" data-name="Trazado 99252" d="M440.98,95.953a.714.714,0,1,1-.714-.682A.7.7,0,0,1,440.98,95.953Z" transform="translate(-420.292 -95.271)" fill="#fff" stroke="#fff" stroke-width="1"/>
            <path id="Trazado_99253" data-name="Trazado 99253" d="M449.426,95.953a.714.714,0,1,1-.713-.682A.7.7,0,0,1,449.426,95.953Z" transform="translate(-422.318 -95.271)" fill="#fff" stroke="#fff" stroke-width="1"/>
            <ellipse id="Elipse_3972" data-name="Elipse 3972" cx="0.713" cy="0.682" rx="0.713" ry="0.682" transform="translate(32.101)" fill="#fff" stroke="#fff" stroke-width="1"/>
            <path id="Trazado_99254" data-name="Trazado 99254" d="M466.319,95.953a.714.714,0,1,1-.714-.682A.7.7,0,0,1,466.319,95.953Z" transform="translate(-426.37 -95.271)" fill="#fff" stroke="#fff" stroke-width="1"/>
            <ellipse id="Elipse_3973" data-name="Elipse 3973" cx="0.713" cy="0.682" rx="0.713" ry="0.682" transform="translate(44.942)" fill="#fff" stroke="#fff" stroke-width="1"/>
            <ellipse id="Elipse_3974" data-name="Elipse 3974" cx="0.713" cy="0.682" rx="0.713" ry="0.682" transform="translate(51.362)" fill="#fff" stroke="#fff" stroke-width="1"/>
            <path id="Trazado_99255" data-name="Trazado 99255" d="M491.658,95.953a.714.714,0,1,1-.714-.682A.7.7,0,0,1,491.658,95.953Z" transform="translate(-432.448 -95.271)" fill="#fff" stroke="#fff" stroke-width="1"/>
            <path id="Trazado_99256" data-name="Trazado 99256" d="M500.1,95.953a.714.714,0,1,1-.714-.682A.7.7,0,0,1,500.1,95.953Z" transform="translate(-434.474 -95.271)" fill="#fff" stroke="#fff" stroke-width="1"/>
          </g>
          <g id="Grupo_53313" data-name="Grupo 53313" transform="translate(0 38.203)">
            <path id="Trazado_99257" data-name="Trazado 99257" d="M415.641,103.461a.714.714,0,1,1-.714-.682A.7.7,0,0,1,415.641,103.461Z" transform="translate(-414.214 -102.779)" fill="#fff" stroke="#fff" stroke-width="1"/>
            <path id="Trazado_99258" data-name="Trazado 99258" d="M424.087,103.461a.714.714,0,1,1-.713-.682A.7.7,0,0,1,424.087,103.461Z" transform="translate(-416.24 -102.779)" fill="#fff" stroke="#fff" stroke-width="1"/>
            <path id="Trazado_99259" data-name="Trazado 99259" d="M432.533,103.461a.714.714,0,1,1-.713-.682A.7.7,0,0,1,432.533,103.461Z" transform="translate(-418.266 -102.779)" fill="#fff" stroke="#fff" stroke-width="1"/>
            <path id="Trazado_99260" data-name="Trazado 99260" d="M440.98,103.461a.714.714,0,1,1-.714-.682A.7.7,0,0,1,440.98,103.461Z" transform="translate(-420.292 -102.779)" fill="#fff" stroke="#fff" stroke-width="1"/>
            <path id="Trazado_99261" data-name="Trazado 99261" d="M449.426,103.461a.714.714,0,1,1-.713-.682A.7.7,0,0,1,449.426,103.461Z" transform="translate(-422.318 -102.779)" fill="#fff" stroke="#fff" stroke-width="1"/>
            <path id="Trazado_99262" data-name="Trazado 99262" d="M457.872,103.461a.714.714,0,1,1-.713-.682A.7.7,0,0,1,457.872,103.461Z" transform="translate(-424.344 -102.779)" fill="#fff" stroke="#fff" stroke-width="1"/>
            <path id="Trazado_99263" data-name="Trazado 99263" d="M466.319,103.461a.714.714,0,1,1-.714-.682A.7.7,0,0,1,466.319,103.461Z" transform="translate(-426.37 -102.779)" fill="#fff" stroke="#fff" stroke-width="1"/>
            <path id="Trazado_99264" data-name="Trazado 99264" d="M474.765,103.461a.714.714,0,1,1-.713-.682A.7.7,0,0,1,474.765,103.461Z" transform="translate(-428.396 -102.779)" fill="#fff" stroke="#fff" stroke-width="1"/>
            <path id="Trazado_99265" data-name="Trazado 99265" d="M483.211,103.461a.714.714,0,1,1-.713-.682A.7.7,0,0,1,483.211,103.461Z" transform="translate(-430.422 -102.779)" fill="#fff" stroke="#fff" stroke-width="1"/>
            <path id="Trazado_99266" data-name="Trazado 99266" d="M491.658,103.461a.714.714,0,1,1-.714-.682A.7.7,0,0,1,491.658,103.461Z" transform="translate(-432.448 -102.779)" fill="#fff" stroke="#fff" stroke-width="1"/>
            <path id="Trazado_99267" data-name="Trazado 99267" d="M500.1,103.461a.714.714,0,1,1-.714-.682A.7.7,0,0,1,500.1,103.461Z" transform="translate(-434.475 -102.779)" fill="#fff" stroke="#fff" stroke-width="1"/>
          </g>
          <g id="Grupo_53314" data-name="Grupo 53314" transform="translate(0 43.661)">
            <ellipse id="Elipse_3975" data-name="Elipse 3975" cx="0.713" cy="0.682" rx="0.713" ry="0.682" fill="#fff" stroke="#fff" stroke-width="1"/>
            <path id="Trazado_99268" data-name="Trazado 99268" d="M424.087,110.969a.714.714,0,1,1-.713-.682A.7.7,0,0,1,424.087,110.969Z" transform="translate(-416.24 -110.287)" fill="#fff" stroke="#fff" stroke-width="1"/>
            <ellipse id="Elipse_3976" data-name="Elipse 3976" cx="0.713" cy="0.682" rx="0.713" ry="0.682" transform="translate(12.84)" fill="#fff" stroke="#fff" stroke-width="1"/>
            <path id="Trazado_99269" data-name="Trazado 99269" d="M440.98,110.969a.714.714,0,1,1-.714-.682A.7.7,0,0,1,440.98,110.969Z" transform="translate(-420.292 -110.287)" fill="#fff" stroke="#fff" stroke-width="1"/>
            <path id="Trazado_99270" data-name="Trazado 99270" d="M449.426,110.969a.714.714,0,1,1-.713-.682A.7.7,0,0,1,449.426,110.969Z" transform="translate(-422.318 -110.287)" fill="#fff" stroke="#fff" stroke-width="1"/>
            <ellipse id="Elipse_3977" data-name="Elipse 3977" cx="0.713" cy="0.682" rx="0.713" ry="0.682" transform="translate(32.101)" fill="#fff" stroke="#fff" stroke-width="1"/>
            <path id="Trazado_99271" data-name="Trazado 99271" d="M466.319,110.969a.714.714,0,1,1-.714-.682A.7.7,0,0,1,466.319,110.969Z" transform="translate(-426.37 -110.287)" fill="#fff" stroke="#fff" stroke-width="1"/>
            <ellipse id="Elipse_3978" data-name="Elipse 3978" cx="0.713" cy="0.682" rx="0.713" ry="0.682" transform="translate(44.942)" fill="#fff" stroke="#fff" stroke-width="1"/>
            <ellipse id="Elipse_3979" data-name="Elipse 3979" cx="0.713" cy="0.682" rx="0.713" ry="0.682" transform="translate(51.362)" fill="#fff" stroke="#fff" stroke-width="1"/>
            <path id="Trazado_99272" data-name="Trazado 99272" d="M491.658,110.969a.714.714,0,1,1-.714-.682A.7.7,0,0,1,491.658,110.969Z" transform="translate(-432.448 -110.287)" fill="#fff" stroke="#fff" stroke-width="1"/>
            <path id="Trazado_99273" data-name="Trazado 99273" d="M500.1,110.969a.714.714,0,1,1-.714-.682A.7.7,0,0,1,500.1,110.969Z" transform="translate(-434.474 -110.287)" fill="#fff" stroke="#fff" stroke-width="1"/>
          </g>
          <g id="Grupo_53315" data-name="Grupo 53315" transform="translate(0 49.118)">
            <path id="Trazado_99274" data-name="Trazado 99274" d="M415.641,118.477a.714.714,0,1,1-.714-.683A.7.7,0,0,1,415.641,118.477Z" transform="translate(-414.214 -117.794)" fill="#fff" stroke="#fff" stroke-width="1"/>
            <path id="Trazado_99275" data-name="Trazado 99275" d="M424.087,118.477a.714.714,0,1,1-.713-.683A.7.7,0,0,1,424.087,118.477Z" transform="translate(-416.24 -117.794)" fill="#fff" stroke="#fff" stroke-width="1"/>
            <path id="Trazado_99276" data-name="Trazado 99276" d="M432.533,118.477a.714.714,0,1,1-.713-.683A.7.7,0,0,1,432.533,118.477Z" transform="translate(-418.266 -117.794)" fill="#fff" stroke="#fff" stroke-width="1"/>
            <path id="Trazado_99277" data-name="Trazado 99277" d="M440.98,118.477a.714.714,0,1,1-.714-.683A.7.7,0,0,1,440.98,118.477Z" transform="translate(-420.292 -117.794)" fill="#fff" stroke="#fff" stroke-width="1"/>
            <path id="Trazado_99278" data-name="Trazado 99278" d="M449.426,118.477a.714.714,0,1,1-.713-.683A.7.7,0,0,1,449.426,118.477Z" transform="translate(-422.318 -117.794)" fill="#fff" stroke="#fff" stroke-width="1"/>
            <path id="Trazado_99279" data-name="Trazado 99279" d="M457.872,118.477a.714.714,0,1,1-.713-.683A.7.7,0,0,1,457.872,118.477Z" transform="translate(-424.344 -117.794)" fill="#fff" stroke="#fff" stroke-width="1"/>
            <path id="Trazado_99280" data-name="Trazado 99280" d="M466.319,118.477a.714.714,0,1,1-.714-.683A.7.7,0,0,1,466.319,118.477Z" transform="translate(-426.37 -117.794)" fill="#fff" stroke="#fff" stroke-width="1"/>
            <path id="Trazado_99281" data-name="Trazado 99281" d="M474.765,118.477a.714.714,0,1,1-.713-.683A.7.7,0,0,1,474.765,118.477Z" transform="translate(-428.396 -117.794)" fill="#fff" stroke="#fff" stroke-width="1"/>
            <path id="Trazado_99282" data-name="Trazado 99282" d="M483.211,118.477a.714.714,0,1,1-.713-.683A.7.7,0,0,1,483.211,118.477Z" transform="translate(-430.422 -117.794)" fill="#fff" stroke="#fff" stroke-width="1"/>
            <path id="Trazado_99283" data-name="Trazado 99283" d="M491.658,118.477a.714.714,0,1,1-.714-.683A.7.7,0,0,1,491.658,118.477Z" transform="translate(-432.448 -117.794)" fill="#fff" stroke="#fff" stroke-width="1"/>
            <path id="Trazado_99284" data-name="Trazado 99284" d="M500.1,118.477a.714.714,0,1,1-.714-.683A.7.7,0,0,1,500.1,118.477Z" transform="translate(-434.475 -117.794)" fill="#fff" stroke="#fff" stroke-width="1"/>
          </g>
          <g id="Grupo_53316" data-name="Grupo 53316" transform="translate(0 54.576)">
            <ellipse id="Elipse_3980" data-name="Elipse 3980" cx="0.713" cy="0.682" rx="0.713" ry="0.682" transform="translate(0 0)" fill="#fff" stroke="#fff" stroke-width="1"/>
            <path id="Trazado_99285" data-name="Trazado 99285" d="M424.087,125.985a.714.714,0,1,1-.713-.683A.7.7,0,0,1,424.087,125.985Z" transform="translate(-416.24 -125.302)" fill="#fff" stroke="#fff" stroke-width="1"/>
            <ellipse id="Elipse_3981" data-name="Elipse 3981" cx="0.713" cy="0.682" rx="0.713" ry="0.682" transform="translate(12.84 0)" fill="#fff" stroke="#fff" stroke-width="1"/>
            <path id="Trazado_99286" data-name="Trazado 99286" d="M440.98,125.985a.714.714,0,1,1-.714-.683A.7.7,0,0,1,440.98,125.985Z" transform="translate(-420.292 -125.302)" fill="#fff" stroke="#fff" stroke-width="1"/>
            <path id="Trazado_99287" data-name="Trazado 99287" d="M449.426,125.985a.714.714,0,1,1-.713-.683A.7.7,0,0,1,449.426,125.985Z" transform="translate(-422.318 -125.302)" fill="#fff" stroke="#fff" stroke-width="1"/>
            <ellipse id="Elipse_3982" data-name="Elipse 3982" cx="0.713" cy="0.682" rx="0.713" ry="0.682" transform="translate(32.101 0)" fill="#fff" stroke="#fff" stroke-width="1"/>
            <path id="Trazado_99288" data-name="Trazado 99288" d="M466.319,125.985a.714.714,0,1,1-.714-.683A.7.7,0,0,1,466.319,125.985Z" transform="translate(-426.37 -125.302)" fill="#fff" stroke="#fff" stroke-width="1"/>
            <ellipse id="Elipse_3983" data-name="Elipse 3983" cx="0.713" cy="0.682" rx="0.713" ry="0.682" transform="translate(44.942 0)" fill="#fff" stroke="#fff" stroke-width="1"/>
            <ellipse id="Elipse_3984" data-name="Elipse 3984" cx="0.713" cy="0.682" rx="0.713" ry="0.682" transform="translate(51.362 0)" fill="#fff" stroke="#fff" stroke-width="1"/>
            <path id="Trazado_99289" data-name="Trazado 99289" d="M491.658,125.985a.714.714,0,1,1-.714-.683A.7.7,0,0,1,491.658,125.985Z" transform="translate(-432.448 -125.302)" fill="#fff" stroke="#fff" stroke-width="1"/>
            <path id="Trazado_99290" data-name="Trazado 99290" d="M500.1,125.985a.714.714,0,1,1-.714-.683A.7.7,0,0,1,500.1,125.985Z" transform="translate(-434.474 -125.302)" fill="#fff" stroke="#fff" stroke-width="1"/>
          </g>
          <g id="Grupo_53317" data-name="Grupo 53317" transform="translate(0 60.034)">
            <ellipse id="Elipse_3985" data-name="Elipse 3985" cx="0.713" cy="0.682" rx="0.713" ry="0.682" transform="translate(0 0)" fill="#fff" stroke="#fff" stroke-width="1"/>
            <path id="Trazado_99291" data-name="Trazado 99291" d="M424.087,133.493a.714.714,0,1,1-.713-.683A.7.7,0,0,1,424.087,133.493Z" transform="translate(-416.24 -132.81)" fill="#fff" stroke="#fff" stroke-width="1"/>
            <ellipse id="Elipse_3986" data-name="Elipse 3986" cx="0.713" cy="0.682" rx="0.713" ry="0.682" transform="translate(12.84 0)" fill="#fff" stroke="#fff" stroke-width="1"/>
            <path id="Trazado_99292" data-name="Trazado 99292" d="M440.98,133.493a.714.714,0,1,1-.714-.683A.7.7,0,0,1,440.98,133.493Z" transform="translate(-420.292 -132.81)" fill="#fff" stroke="#fff" stroke-width="1"/>
            <path id="Trazado_99293" data-name="Trazado 99293" d="M449.426,133.493a.714.714,0,1,1-.713-.683A.7.7,0,0,1,449.426,133.493Z" transform="translate(-422.318 -132.81)" fill="#fff" stroke="#fff" stroke-width="1"/>
            <ellipse id="Elipse_3987" data-name="Elipse 3987" cx="0.713" cy="0.682" rx="0.713" ry="0.682" transform="translate(32.101 0)" fill="#fff" stroke="#fff" stroke-width="1"/>
            <path id="Trazado_99294" data-name="Trazado 99294" d="M466.319,133.493a.714.714,0,1,1-.714-.683A.7.7,0,0,1,466.319,133.493Z" transform="translate(-426.37 -132.81)" fill="#fff" stroke="#fff" stroke-width="1"/>
            <ellipse id="Elipse_3988" data-name="Elipse 3988" cx="0.713" cy="0.682" rx="0.713" ry="0.682" transform="translate(44.942 0)" fill="#fff" stroke="#fff" stroke-width="1"/>
            <ellipse id="Elipse_3989" data-name="Elipse 3989" cx="0.713" cy="0.682" rx="0.713" ry="0.682" transform="translate(51.362 0)" fill="#fff" stroke="#fff" stroke-width="1"/>
            <path id="Trazado_99295" data-name="Trazado 99295" d="M491.658,133.493a.714.714,0,1,1-.714-.683A.7.7,0,0,1,491.658,133.493Z" transform="translate(-432.448 -132.81)" fill="#fff" stroke="#fff" stroke-width="1"/>
            <path id="Trazado_99296" data-name="Trazado 99296" d="M500.1,133.493a.714.714,0,1,1-.714-.683A.7.7,0,0,1,500.1,133.493Z" transform="translate(-434.474 -132.81)" fill="#fff" stroke="#fff" stroke-width="1"/>
          </g>
        </g>
        <line id="Línea_138" data-name="Línea 138" y2="139.568" transform="translate(10.313 130.251)" fill="none" stroke="#3449bc" stroke-linecap="round" stroke-width="2" stroke-dasharray="8"/>
      </g>
    </g>
    <g id="Enmascarar_grupo_1059031" data-name="Enmascarar grupo 1059031" clip-path="url(#clip-path)">
      <g id="Grupo_1064531" data-name="Grupo 1064531" transform="translate(1060 386)">
        <g id="Grupo_1064530" data-name="Grupo 1064530" clip-path="url(#clip-path-2)">
          <path id="Trazado_782298" data-name="Trazado 782298" d="M64.429,4.984C79.971,1.6,98.92.818,111.806,16.2s9.435,32.331,9.12,41.119,9.731,31.7,2.512,40.175c0,0-44.571-7.218-80.981,3.453,0,0-9.574-12.166-4.707-36.723C44.341,30.95,35.238,11.348,64.429,4.984" transform="translate(85.621 2.402)" fill="#3e4e79"/>
          <path id="Trazado_782299" data-name="Trazado 782299" d="M81.269,39.247c-.559,4.029,2.07,7.931,1.187,11.95-.364,1.654-1.909,3.1-3.694,2.539-2.076-.657-1.649-3.43-1.508-5.1A28.341,28.341,0,0,1,78.8,41.455a.909.909,0,0,1,1.777.239q.081,4.906.161,9.813c.02,1.175-1.73,1.151-1.81,0a26.426,26.426,0,0,1,.2-5.428c.132-.954,1.5-.762,1.746,0a12.1,12.1,0,0,1,.565,4.722c-.092,1.153-1.9,1.162-1.81,0a10.7,10.7,0,0,0-.5-4.242h1.746a23.933,23.933,0,0,0-.141,4.948h-1.81q-.081-4.906-.161-9.813c.592.081,1.185.161,1.777.241a26.5,26.5,0,0,0-1.493,6.823c-.043.541-.069,1.082-.08,1.623a3.178,3.178,0,0,0,.085,1.408c.387.7,1.281-.062,1.486-.519a5.72,5.72,0,0,0,.181-2.841,27.766,27.766,0,0,0-.6-3.142,17.979,17.979,0,0,1-.606-6.521.911.911,0,0,1,1.113-.632.928.928,0,0,1,.632,1.113" transform="translate(55.285 30.861)" fill="#c2c8ef"/>
          <path id="Trazado_782300" data-name="Trazado 782300" d="M34.971,23.457c3.2,7.326,6.4,14.661,9.1,22.189,2.608,7.261,5.147,14.965,5.815,22.692a18.978,18.978,0,0,1-2.1,11.344.907.907,0,0,1-1.566-.914c3.621-6.188,1.567-14.055-.114-20.531a168.438,168.438,0,0,0-7.449-21.6c-1.689-4.114-3.468-8.191-5.245-12.267-.463-1.057,1.095-1.98,1.56-.914" transform="translate(167.197 18.613)" fill="#3e4e79"/>
          <path id="Trazado_782301" data-name="Trazado 782301" d="M94.256,26.453C89.875,40.47,83.767,54.463,84.139,69.431a42.591,42.591,0,0,0,2.022,12.137c.362,1.111-1.385,1.587-1.745.481-4.691-14.437-.675-29.623,3.94-43.516,1.39-4.186,2.84-8.352,4.155-12.562.346-1.108,2.094-.635,1.745.481" transform="translate(34.209 20.522)" fill="#3e4e79"/>
          <path id="Trazado_782302" data-name="Trazado 782302" d="M169.74,250.8l-4.6,53.305a23.037,23.037,0,0,1-18.381,9.5c-12.562.306-38.6-7.046-38.6-7.046s29.718-10.417,33.393-19.3,3.676-37.681,3.676-37.681Z" transform="translate(-87.995 202.116)" fill="#f9c49d"/>
          <path id="Trazado_782303" data-name="Trazado 782303" d="M186.32,280.256s-23.589,8.579-48.71-1.225c0,0-33.7,8.884-27.573,25.12l77.508-4.6s3.676-9.8-1.225-19.3" transform="translate(-109.17 225.968)" fill="#ebb2df"/>
          <path id="Trazado_782304" data-name="Trazado 782304" d="M162.123,252.665l-4.6,53.3a23.036,23.036,0,0,1-18.381,9.5c-12.562.306-38.6-7.046-38.6-7.046s29.717-10.417,33.393-19.3,3.676-37.681,3.676-37.681Z" transform="translate(-66.593 203.624)" fill="#f9c49d"/>
          <path id="Trazado_782305" data-name="Trazado 782305" d="M178.644,282.118s-23.589,8.579-48.71-1.225c0,0-33.7,8.884-27.573,25.12h77.8s3.384-14.4-1.517-23.9" transform="translate(-87.709 227.476)" fill="#ebb2df"/>
          <path id="Trazado_782306" data-name="Trazado 782306" d="M166.351,180.56,147.382,163.4s-27.1.9-47.573,12.647S79.937,235.96,85.658,279.016c0,0,6.421,39.869,6.624,40.046,5.752,4.973,13.851.9,13.851.9l12.345-111.4Z" transform="translate(-37.645 132.324)" fill="#7fa3ce"/>
          <path id="Trazado_782307" data-name="Trazado 782307" d="M122.163,62.141c-.574,0-35.567,47.039-35.567,47.039L72.828,63.67,54.663,74.953l-22.1,90.454s-15.974,43.675.027,79.057c8.6,19.018,21.568,22.569,21.568,22.569l103.151-13.465L144.1,72.164Z" transform="translate(74.096 50.324)" fill="#ecd9c5"/>
          <path id="Trazado_782308" data-name="Trazado 782308" d="M172.681,166.558s-70.455.6-117.726,19.572c0,0-36.434,12.043-38.841,31.314s3.312,104.178,3.312,104.178,14.055,16.142,31.614,5.721c1.3-.769,12.345-83.1,12.345-83.1s104.478-6.021,124.35-15.957,12.948-52.391,12.948-52.391Z" transform="translate(47.558 134.884)" fill="#7fa3ce"/>
          <path id="Trazado_782309" data-name="Trazado 782309" d="M106.807,22.495c3.56,7.145,3.931,15.445,3.52,23.417-.411,8-1.564,16.059-4.686,23.43s-8.369,14.05-15.472,17.744c-5.013,2.606-10.711,3.631-16.352,3.954-4.7.27-9.637.02-13.74-2.291-6.923-3.9-9.576-12.374-11.521-20.076-2.834-11.223-5.446-22.826-3.8-34.284,1.707-11.9,9.532-25.725,22.134-28.145,15.21-2.923,32.544,1.45,39.919,16.25" transform="translate(86.966 4.365)" fill="#f9c49d"/>
          <path id="Trazado_782310" data-name="Trazado 782310" d="M77.6,42.693s-4.257,27.669,8.513,34.054,27.669,12.77,27.669,12.77L52.056,132.084,30.772,85.26S47.8,78.875,43.542,57.592Z" transform="translate(108.03 34.574)" fill="#f9c49d"/>
          <path id="Trazado_782311" data-name="Trazado 782311" d="M44.355,16.237C46.908,27.742,55.485,37.072,65.166,43.8,72.78,49.082,81.956,54,84.515,62.909c.353,1.231.773,2.731,2.013,3.051a55.817,55.817,0,0,0,2.955-37.149,31.542,31.542,0,0,0-4.6-10.338C78.4,9.51,66.471,6.753,55.57,4.884a28.332,28.332,0,0,0-8.2-.581C38.9,5.344,43.1,10.581,44.355,16.237" transform="translate(109.747 3.391)" fill="#3e4e79"/>
          <path id="Trazado_782312" data-name="Trazado 782312" d="M89.529,27.072c-3.375,2.914-7.27,5.212-10.466,8.325A28.164,28.164,0,0,0,71.4,49.041c-.34,1.461-.235,3.582-2.067,2.159-2.28-1.772-2.13-8.256-2.007-10.767a44.461,44.461,0,0,1,2.268-11.328C72.4,20.354,78.315,7.777,88.526,5.8,93.3,4.87,96.444,7.136,96.6,12.019c.194,5.893-2.463,11-6.83,14.839-.081.072-.163.143-.244.214" transform="translate(59.149 4.53)" fill="#3e4e79"/>
          <path id="Trazado_782313" data-name="Trazado 782313" d="M37.308,37.281c-2.74,8.372-.434,16.641,5.153,18.469S54.794,52.274,57.536,43.9s.433-16.641-5.153-18.469S40.048,28.909,37.308,37.281" transform="translate(153.378 20.304)" fill="#f9c49d"/>
          <path id="Trazado_782314" data-name="Trazado 782314" d="M12.883,62.141s-9.826,56.264,3.133,113.428l-10.671.255S6.36,206.31,6.36,221.81l13.467,4.065s-3.05,16.006-8.132,24.645,3.3,32.774,2.8,41.157,52.2,13.735,59.2-.253c.762-1.524,2.032-21.85,2.032-21.85s7.368-7.113,4.32-45.731c0,0,.509-12.7,1.015-13.465s5.591-3.3,2.288-43.7S70.131,90.711,55.9,81.057,12.883,62.141,12.883,62.141" transform="translate(183.376 50.324)" fill="#8caba6"/>
          <path id="Trazado_782315" data-name="Trazado 782315" d="M144.245,62.987s-4.19,17.132-11.051,28.82-18.8,31.5-7.368,54.878L118.459,160.4l-8.13-1.524S91.275,179.459,96.1,194.194l6.1,5.589a165.992,165.992,0,0,0,2.794,45.986l-20.833,2.8-1.017-42.176S69.17,193.941,72.728,169.55,92.8,132.2,100.676,105.272s43.57-42.285,43.57-42.285" transform="translate(2.679 51.009)" fill="#8caba6"/>
          <path id="Trazado_782316" data-name="Trazado 782316" d="M139.5,132.231l-20.833-6.606L92.755,129.69l.253,4.32S82.846,122.83,71.922,117.495l-8.13-1.524S42.7,131.722,49.818,152.81l14.989,6.351,16.515,3.558,31.5,2.032,27.947-2.032Z" transform="translate(49.218 93.917)" fill="#f9c49d"/>
          <path id="Trazado_782317" data-name="Trazado 782317" d="M65.426,10.651c1.232,8.009,2.613,16.232,6.943,23.235.614.994-.952,1.9-1.564.914-4.412-7.142-5.867-15.5-7.123-23.667-.176-1.14,1.567-1.631,1.745-.481" transform="translate(89.762 8.095)" fill="#3e4e79"/>
          <path id="Trazado_782318" data-name="Trazado 782318" d="M67.906,12.021c.328,7.685.7,15.443,3.135,22.8.366,1.108-1.381,1.584-1.746.481-2.485-7.505-2.865-15.447-3.2-23.284-.049-1.164,1.761-1.162,1.81,0" transform="translate(86.788 9.029)" fill="#3e4e79"/>
          <path id="Trazado_782319" data-name="Trazado 782319" d="M71.738,14.955A63.2,63.2,0,0,0,70.25,32.339c.06,1.164-1.75,1.16-1.81,0a65.078,65.078,0,0,1,1.553-17.865c.259-1.135,2-.655,1.745.481" transform="translate(82.03 11.197)" fill="#3e4e79"/>
          <path id="Trazado_782320" data-name="Trazado 782320" d="M77.806,13.95A63.814,63.814,0,0,0,69.95,32.423a.906.906,0,0,1-1.746-.481,65.445,65.445,0,0,1,8.041-18.9c.617-.986,2.183-.078,1.562.912" transform="translate(76.169 10.214)" fill="#3e4e79"/>
          <path id="Trazado_782321" data-name="Trazado 782321" d="M49.088,31.578A14.281,14.281,0,0,1,50.36,41.827a.906.906,0,0,1-1.745-.481,12.359,12.359,0,0,0-1.09-8.854c-.554-1.026,1.008-1.94,1.562-.914" transform="translate(140.905 25.209)" fill="#3e4e79"/>
          <path id="Trazado_782322" data-name="Trazado 782322" d="M52.906,30.739a13.959,13.959,0,0,1-3.156,12.1c-.769.876-2.045-.407-1.28-1.28A12.042,12.042,0,0,0,51.161,31.22c-.244-1.137,1.5-1.622,1.745-.481" transform="translate(136.993 24.367)" fill="#3e4e79"/>
          <path id="Trazado_782323" data-name="Trazado 782323" d="M60.84,31.67c0,2.527,1.18,4.573,2.635,4.573s2.632-2.047,2.632-4.573S64.928,27.1,63.475,27.1,60.84,29.144,60.84,31.67" transform="translate(101.283 21.944)" fill="#341f08"/>
          <path id="Trazado_782324" data-name="Trazado 782324" d="M72.327,31.582c0,2.527,1.178,4.573,2.633,4.573s2.631-2.047,2.631-4.573-1.178-4.573-2.631-4.573-2.633,2.047-2.633,4.573" transform="translate(69.008 21.873)" fill="#341f08"/>
          <path id="Trazado_782325" data-name="Trazado 782325" d="M71.209,26.023a7.144,7.144,0,0,1,2.3,4.128c.134,1.774-.947,3.482-1.775,4.97a15.034,15.034,0,0,0-2.179,4.952c-.239,1.75,1.636,2.184,2.977,2.474,1.138.246.657,1.993-.481,1.746-1.412-.306-3.024-.791-3.846-2.085-.957-1.511-.3-3.381.349-4.877.757-1.756,1.839-3.343,2.644-5.077a3.431,3.431,0,0,0,.335-2.747,7.435,7.435,0,0,0-1.6-2.2c-.789-.856.489-2.139,1.28-1.28" transform="translate(81.417 20.844)" fill="#341f08"/>
          <path id="Trazado_782326" data-name="Trazado 782326" d="M82.519,38.055a11.35,11.35,0,0,1-9.377,6.114c-4.36.357-8.58-1.725-11.677-4.666-.845-.805.436-2.083,1.28-1.281a13.887,13.887,0,0,0,10.11,4.157,9.553,9.553,0,0,0,8.1-5.238c.5-1.05,2.061-.132,1.562.914" transform="translate(84.143 29.702)" fill="#341f08"/>
          <path id="Trazado_782327" data-name="Trazado 782327" d="M82.82,52.621a32.986,32.986,0,0,1-23.969,1.205c-1.1-.369-.626-2.119.481-1.745a31.116,31.116,0,0,0,22.574-1.023c1.055-.472,1.976,1.086.914,1.562" transform="translate(88.828 41.278)" fill="#341f08"/>
          <path id="Trazado_782328" data-name="Trazado 782328" d="M49.218,28.946c-1.307-.322-2.463.84-3.245,1.734A21.352,21.352,0,0,0,43.5,34.22a22.85,22.85,0,0,0-2.7,8.037.912.912,0,0,1-1.113.633.928.928,0,0,1-.632-1.113A24.1,24.1,0,0,1,42.41,32.5c1.484-2.4,3.982-6.117,7.29-5.3a.905.905,0,0,1-.481,1.745" transform="translate(156.513 21.936)" fill="#341f08"/>
          <path id="Trazado_782329" data-name="Trazado 782329" d="M42.969,31.795a7.379,7.379,0,0,1,1.817,10.385.933.933,0,0,1-1.24.324.913.913,0,0,1-.324-1.238,5.584,5.584,0,0,0-1.166-7.909.929.929,0,0,1-.324-1.238.91.91,0,0,1,1.236-.324" transform="translate(156.029 25.642)" fill="#341f08"/>
          <path id="Trazado_782330" data-name="Trazado 782330" d="M47.7,40.736c-.559,4.029,2.07,7.931,1.187,11.95-.364,1.654-1.909,3.1-3.694,2.539-2.076-.657-1.649-3.43-1.508-5.1a28.34,28.34,0,0,1,1.547-7.178.909.909,0,0,1,1.777.239q.081,4.908.161,9.813c.02,1.175-1.73,1.151-1.81,0a26.426,26.426,0,0,1,.2-5.428c.132-.954,1.5-.76,1.746,0a12.1,12.1,0,0,1,.565,4.722c-.092,1.153-1.9,1.162-1.81,0a10.7,10.7,0,0,0-.5-4.242h1.746A23.935,23.935,0,0,0,47.169,53H45.36q-.081-4.906-.161-9.813c.592.081,1.185.161,1.777.241a26.5,26.5,0,0,0-1.493,6.823c-.043.541-.069,1.082-.08,1.623a3.178,3.178,0,0,0,.085,1.408c.387.7,1.281-.062,1.486-.519a5.714,5.714,0,0,0,.181-2.84,27.723,27.723,0,0,0-.6-3.144,17.979,17.979,0,0,1-.606-6.521.911.911,0,0,1,1.113-.632.928.928,0,0,1,.632,1.113" transform="translate(149.614 32.067)" fill="#c2c8ef"/>
          <path id="Trazado_782331" data-name="Trazado 782331" d="M92.559,61.578c-4,9.646-9.322,19.092-17.257,26.06a43.638,43.638,0,0,1-6.155,4.541,8.324,8.324,0,0,1-3.29,1.35,5.05,5.05,0,0,1-3.721-1.35,36.73,36.73,0,0,1-9.742-11.728,51.837,51.837,0,0,1-5.426-16.736c-.174-1.14,1.569-1.631,1.745-.481C50.163,72.7,53.9,82.183,61,88.842a23.556,23.556,0,0,0,2.684,2.246c1.495,1.035,2.785.565,4.244-.29a39.415,39.415,0,0,0,5.829-4.208,53.15,53.15,0,0,0,9.351-10.778A85.5,85.5,0,0,0,90.814,61.1c.44-1.061,2.192-.6,1.745.481" transform="translate(99.888 48.993)" fill="#c2c8ef"/>
          <path id="Trazado_782332" data-name="Trazado 782332" d="M60.767,76.421a3.784,3.784,0,0,1,1.374,1.08,1.946,1.946,0,0,1,.281,1.663,1.6,1.6,0,0,1-1.585,1.164,3.151,3.151,0,0,1-1.788-.881A3.363,3.363,0,0,1,57.977,78a2.216,2.216,0,0,1,.141-1.808,1.891,1.891,0,0,1,1.611-.928,2.593,2.593,0,0,1,1.486.478,2.946,2.946,0,0,1,1.028,1.142,2.783,2.783,0,0,1,.257,1.638,1.632,1.632,0,0,1-.981,1.238,1.712,1.712,0,0,1-1.1.078,2.464,2.464,0,0,1-.928-.518,3.547,3.547,0,0,1-.5-.5,2.239,2.239,0,0,1-.539-.923,1.454,1.454,0,0,1,.275-1.238,1.559,1.559,0,0,1,.889-.577,1.884,1.884,0,0,1,1.942.86,1.637,1.637,0,0,1-.067,2.081,1.609,1.609,0,0,1-1.625.351,1.584,1.584,0,0,1-.822-.632,1.522,1.522,0,0,1-.226-.892,1.829,1.829,0,0,1,1.095-1.564,1.929,1.929,0,0,1,1.85.219,2.387,2.387,0,0,1,.69.735.9.9,0,1,1-1.562.914,1.47,1.47,0,0,0-.094-.141l.141.183a1.5,1.5,0,0,0-.237-.243l.183.141a1.548,1.548,0,0,0-.288-.176l.215.092a1.227,1.227,0,0,0-.319-.089l.241.033a1.034,1.034,0,0,0-.248,0l.241-.033a.944.944,0,0,0-.223.062l.215-.092a1.118,1.118,0,0,0-.188.116c.062-.049.121-.1.183-.143a1.163,1.163,0,0,0-.156.157c.047-.06.094-.121.141-.183a1.146,1.146,0,0,0-.132.223l.092-.217a.937.937,0,0,0-.058.208c.009-.08.02-.159.031-.239a.921.921,0,0,0,0,.212c-.009-.08-.02-.161-.031-.241a.815.815,0,0,0,.051.172c-.031-.072-.062-.145-.092-.215a.98.98,0,0,0,.065.11l-.141-.185a.65.65,0,0,0,.107.1l-.183-.141a.707.707,0,0,0,.128.076l-.215-.09a.878.878,0,0,0,.2.056l-.241-.033a1.054,1.054,0,0,0,.214,0l-.241.033a.929.929,0,0,0,.172-.047l-.215.092a.869.869,0,0,0,.127-.071l-.185.141a.6.6,0,0,0,.1-.1l-.141.183a.789.789,0,0,0,.058-.1c-.031.071-.062.143-.09.215a.755.755,0,0,0,.04-.156l-.033.241a1.016,1.016,0,0,0,0-.148c.011.08.02.161.031.241a1.078,1.078,0,0,0-.081-.29c.031.071.062.143.092.215a1.634,1.634,0,0,0-.163-.271c.047.06.094.121.141.183a1.415,1.415,0,0,0-.212-.217l.183.141a1.16,1.16,0,0,0-.217-.132l.215.09a1.045,1.045,0,0,0-.244-.069l.241.033a.8.8,0,0,0-.161,0l.241-.033a.782.782,0,0,0-.194.051l.215-.09a.9.9,0,0,0-.172.1l.183-.141a1.06,1.06,0,0,0-.11.11l.141-.183a.749.749,0,0,0-.081.13c.031-.071.062-.143.09-.215a.69.69,0,0,0-.04.148c.011-.081.022-.161.031-.241a.723.723,0,0,0,0,.125l-.033-.241a.759.759,0,0,0,.049.177c-.031-.072-.062-.145-.092-.215a1.552,1.552,0,0,0,.176.281l-.141-.183a3.768,3.768,0,0,0,.628.643l-.185-.141a1.851,1.851,0,0,0,.351.208l-.217-.092a1.084,1.084,0,0,0,.246.069c-.08-.009-.159-.02-.241-.031a1.016,1.016,0,0,0,.21,0l-.241.033a.942.942,0,0,0,.2-.054c-.072.031-.143.062-.215.09a.753.753,0,0,0,.165-.1c-.062.047-.121.094-.183.143a.944.944,0,0,0,.127-.128c-.047.06-.094.121-.141.183a.894.894,0,0,0,.09-.156l-.09.215a1.159,1.159,0,0,0,.074-.271l-.033.241a1.605,1.605,0,0,0,0-.373l.033.241a2.055,2.055,0,0,0-.143-.518l.092.217a1.994,1.994,0,0,0-.23-.4c.047.062.094.123.143.183a2.336,2.336,0,0,0-.4-.395l.183.141a2.388,2.388,0,0,0-.494-.293l.217.092a1.791,1.791,0,0,0-.452-.127l.241.033a1.339,1.339,0,0,0-.3,0l.241-.033a1.154,1.154,0,0,0-.279.074l.217-.09a1.131,1.131,0,0,0-.192.112l.185-.141a1.07,1.07,0,0,0-.172.167c.047-.06.094-.121.141-.183a1.188,1.188,0,0,0-.141.246c.031-.071.062-.143.092-.215a1.343,1.343,0,0,0-.072.279l.033-.241a1.54,1.54,0,0,0,0,.376l-.033-.241a1.832,1.832,0,0,0,.1.367c-.029-.072-.06-.143-.09-.215a2.066,2.066,0,0,0,.261.443l-.141-.185a4.144,4.144,0,0,0,.735.7c-.062-.049-.121-.1-.183-.143a2.921,2.921,0,0,0,.617.387c-.072-.029-.145-.06-.215-.09a1.237,1.237,0,0,0,.313.087l-.241-.033a.986.986,0,0,0,.179,0l-.241.033a.956.956,0,0,0,.176-.042c-.072.029-.143.06-.215.09a.782.782,0,0,0,.161-.09l-.183.141a.735.735,0,0,0,.118-.119l-.141.183a.78.78,0,0,0,.1-.177c-.029.072-.06.143-.09.215a1.117,1.117,0,0,0,.054-.2l-.033.241a1.177,1.177,0,0,0,0-.288l.033.241a1.178,1.178,0,0,0-.072-.282l.092.217a1.4,1.4,0,0,0-.166-.279l.141.185a1.962,1.962,0,0,0-.324-.313l.183.141a5.026,5.026,0,0,0-.711-.425.912.912,0,0,1-.324-1.238.925.925,0,0,1,1.238-.324" transform="translate(110.24 60.953)" fill="#c2c8ef"/>
          <path id="Trazado_782333" data-name="Trazado 782333" d="M64.122,76.875a3.361,3.361,0,0,1,1.129,3,2.422,2.422,0,0,1-1.9,1.9,2.048,2.048,0,0,1-1.495-.243,2.152,2.152,0,0,1-.923-1.3,4.57,4.57,0,0,1,.413-2.852,1.616,1.616,0,0,1,1.453-.957,1.792,1.792,0,0,1,1.428.923,4.6,4.6,0,0,1,.519,1.366,4.033,4.033,0,0,1,.089,1.88,2.2,2.2,0,0,1-2.621,1.71c-1.155-.353-1.529-1.594-1.632-2.666a5.581,5.581,0,0,1,.167-1.935,1.73,1.73,0,0,1,.492-.907,1.292,1.292,0,0,1,1.29-.253,2.391,2.391,0,0,1,1.334,1.605,4.069,4.069,0,0,1,.2,1.833.989.989,0,0,1-.264.639.924.924,0,0,1-.641.266c-.44-.02-.968-.4-.9-.9a3.633,3.633,0,0,0,.029-.561c0-.083-.013-.163-.016-.246-.009-.132.031.161,0,.033-.013-.058-.022-.116-.033-.174a4.887,4.887,0,0,0-.154-.5c-.042-.123.071.136.009.022-.022-.042-.04-.085-.062-.127l-.049-.092a.773.773,0,0,0-.047-.076c-.038-.056-.022-.036.049.058,0-.02-.2-.2-.09-.1l.043.034c-.069-.038-.067-.04.005-.007.2.022-.147.02.072.018a.564.564,0,0,0,.53-.243c-.083.128.018-.033.014-.058a.741.741,0,0,1-.045.15,1.663,1.663,0,0,0-.119.556c-.02-.15.009-.083,0-.014,0,.049-.009.1-.013.15-.009.114-.013.228-.014.34a2.2,2.2,0,0,0,.031.568c-.051-.174-.011-.063,0-.014l.027.148c.018.09.038.179.062.268.018.065.042.128.062.192.051.157-.011-.054-.025-.056l.049.1a1.062,1.062,0,0,1,.116.192s-.121-.138-.056-.074c.033.031.063.065.094.1.1.114-.036-.049-.058-.042l.094.056c.11.072-.031-.067-.065-.025,0,0,.118.033.11.027s-.19-.005-.1-.016c.047-.005.141-.031.016.009s-.025,0,.013-.007c.172-.045-.018-.014-.033.025a1.344,1.344,0,0,1,.2-.112c-.022,0-.159.143-.049.034l.065-.06c.027-.027.051-.058.08-.085.081-.085-.092.145-.034.042a2.192,2.192,0,0,1,.128-.23c-.02.025-.062.2-.029.052.005-.031.016-.06.024-.09s.042-.186.018-.062,0-.031,0-.063a2.433,2.433,0,0,0,0-.257c0-.051-.007-.1-.011-.148-.018-.233.027.114,0-.018A8.707,8.707,0,0,0,62.8,78.5c-.076-.208.078.154-.022-.047a1.839,1.839,0,0,0-.1-.174l-.062-.094c-.005.018.15.163.042.056-.025-.024-.051-.051-.074-.076-.1-.114.13.094.047.036-.156-.107.159.04.02.007.23.054.174.016.1.02.244-.013.156-.031.09-.007.02-.007.19-.1.072-.025.011-.007.17-.141.062-.042-.02.018-.081.094,0-.011s0,.014-.018.045l-.051.1c.042-.011.067-.183.025-.06-.022.072-.047.143-.071.214-.043.147-.083.293-.119.442q-.027.111-.049.228c-.007.042-.04.257-.02.109s-.007.107-.009.138a2.365,2.365,0,0,0,0,.253c0,.043.022.253,0,.1s.022.078.033.112.024.067.033.1c.018.085-.036-.094-.042-.1a.819.819,0,0,1,.049.09.574.574,0,0,0,.042.065c.038.056.018.031-.062-.08,0,0,.224.17.062.076-.134-.076.042.02.072.04.116.074-.065-.036-.085-.034a.49.49,0,0,1,.089.027.523.523,0,0,1,.092.02c-.051-.024-.23-.013-.076-.018l.1,0c.157,0-.031-.011-.074.013a1.3,1.3,0,0,1,.212-.056c.022-.005.047-.022.069-.025-.186.033-.132.06-.036.007a1.064,1.064,0,0,1,.17-.107c-.127.038-.134.114-.065.047.036-.034.074-.067.109-.1a.5.5,0,0,1,.051-.056c.078-.065-.112.174-.036.043.025-.042.132-.257.074-.11s-.011.029,0-.007.024-.1.038-.145c.047-.145-.027.069,0,.058s.011-.139.011-.154c0-.04,0-.081,0-.123,0-.02,0-.04,0-.06q-.008-.106.016.087c.024-.024-.051-.241-.06-.273s-.018-.06-.029-.089-.02-.06-.031-.089c-.024-.063-.014-.04.031.071a.947.947,0,0,1-.114-.226c-.049-.083-.1-.161-.156-.243-.065-.1.107.123.025.031-.034-.04-.067-.081-.1-.121-.071-.08-.147-.152-.224-.224a.911.911,0,0,1,0-1.28.924.924,0,0,1,1.28,0" transform="translate(102.602 61.887)" fill="#c2c8ef"/>
          <path id="Trazado_782334" data-name="Trazado 782334" d="M65.49,75.3a3.668,3.668,0,0,1,1.672,3.92,2.24,2.24,0,0,1-.581,1.144,1.194,1.194,0,0,1-1.873-.221,3.019,3.019,0,0,1-.324-1.274,3.841,3.841,0,0,1,.109-1.158,3.915,3.915,0,0,1,1.5-2.215.9.9,0,0,1,1.1.141,2.954,2.954,0,0,1-.005,3.783,2.174,2.174,0,0,1-2.107.861A1.771,1.771,0,0,1,64,78a3.89,3.89,0,0,1,1.547-2.21.9.9,0,0,1,.914,0,.919.919,0,0,1,.447.782c.011.281.02.561.029.842a.913.913,0,0,1-.9.9.924.924,0,0,1-.9-.9c-.009-.281-.018-.561-.029-.842l1.363.782c-.136.1.125-.11,0,0-.052.045-.1.089-.152.136s-.081.083-.121.125l-.056.065c-.011.013-.134.161-.04.045s-.027.043-.045.072c-.038.058-.072.116-.107.174s-.054.1-.08.156c-.013.025-.024.052-.038.078-.051.1.06-.167.025-.056s-.081.237-.11.362c-.009.04-.049.277-.024.1s0,.024,0,.067.011.1.007.145c.013-.228-.033-.174-.007-.1a.437.437,0,0,1,.018.065c.007.076-.04-.1-.049-.11.014.013.02.042.033.056.058.076-.092-.112-.078-.1.107.112-.147-.1-.069-.051s-.127-.052-.114-.049-.19-.022-.085-.014-.089,0-.081.009a.839.839,0,0,0,.123-.036c.141-.038-.181.092-.054.024.045-.024.09-.047.134-.072s.081-.062.125-.083c.009-.005-.159.138-.1.074.014-.014.033-.027.049-.042.074-.069.134-.15.206-.221.007-.007-.119.174-.076.1a.472.472,0,0,1,.036-.054c.029-.042.054-.085.08-.13s.04-.076.06-.116c.089-.167-.067.2-.005.014a2.506,2.506,0,0,0,.076-.252c.005-.024.042-.125.031-.15s-.024.226-.018.132c0-.029.005-.06.009-.089.007-.109,0-.217,0-.326,0-.034-.014-.121.005.034s.005.031,0-.009-.022-.1-.034-.147-.038-.109-.054-.163c-.025-.085.056.127.049.118a.619.619,0,0,1-.038-.078c-.027-.051-.06-.1-.089-.148-.016-.027-.071-.094.02.02.1.132.005.011-.013-.011l1.1.143c.013-.009.17-.141.058-.043l-.06.051c-.045.042-.09.083-.134.128s-.085.089-.125.136c-.13.15.094-.139-.022.024a3.126,3.126,0,0,0-.194.315c-.029.054-.056.109-.083.165-.013.025-.051.116,0-.011s0,.007-.013.04a3.065,3.065,0,0,0-.1.355c-.013.052-.022.1-.031.156-.031.148.007-.069.007-.083,0,.034-.007.071-.011.1a2.8,2.8,0,0,0-.009.369c0,.062.009.123.013.185.007.118-.034-.2-.011-.085.005.034.011.071.018.1.013.06.025.119.042.179.013.043.083.226.022.094l-.027-.058c.054.089.025.069-.083-.062-.036-.034-.072-.071-.109-.107l-.519-.069a.524.524,0,0,0-.233.136c.092-.09-.034.04-.034.065,0-.036.069-.121.089-.157.043-.083-.043.107-.043.1A.477.477,0,0,1,65.345,79a3.025,3.025,0,0,0,.09-.357c.042-.192-.011.179,0,.022,0-.056.009-.114.009-.17,0-.121-.025-.25-.016-.369,0-.009.038.214.016.119-.007-.033-.011-.065-.018-.1-.011-.056-.022-.112-.036-.168-.029-.112-.067-.221-.107-.329-.049-.136.027.071.034.08a.673.673,0,0,1-.043-.089c-.033-.067-.067-.132-.1-.2s-.071-.11-.107-.165c-.11-.165.125.139-.009-.011a3.335,3.335,0,0,0-.275-.279c-.143-.13.152.094-.011-.009-.062-.04-.123-.081-.188-.119A.9.9,0,0,1,65.49,75.3" transform="translate(94.043 60.88)" fill="#c2c8ef"/>
          <path id="Trazado_782335" data-name="Trazado 782335" d="M56.189,2.439a15.18,15.18,0,0,0-9.418,14.6c.056,1.164-1.754,1.16-1.81,0A17.013,17.013,0,0,1,55.707.694c1.088-.42,1.558,1.328.481,1.745" transform="translate(139.362 0.51)" fill="#3e4e79"/>
          <path id="Trazado_782336" data-name="Trazado 782336" d="M52.072,1.1a22.77,22.77,0,0,0-.152,14.442c.357,1.111-1.39,1.587-1.746.48a24.439,24.439,0,0,1,.154-15.4C50.7-.474,52.454,0,52.072,1.1" transform="translate(136.684 -0.001)" fill="#3e4e79"/>
          <path id="Trazado_782337" data-name="Trazado 782337" d="M67.46,25.713a7.508,7.508,0,0,0-8.624-.588c-.994.615-1.9-.95-.914-1.562a9.351,9.351,0,0,1,10.817.871.912.912,0,0,1,0,1.28.924.924,0,0,1-1.28,0" transform="translate(104.442 18.007)" fill="#341f08"/>
          <path id="Trazado_782338" data-name="Trazado 782338" d="M80.245,24.4a5.727,5.727,0,0,0-6.78,1.757.931.931,0,0,1-1.238.324.913.913,0,0,1-.326-1.238,7.565,7.565,0,0,1,9.257-2.405.912.912,0,0,1,.324,1.238.926.926,0,0,1-1.238.324" transform="translate(66.004 17.936)" fill="#341f08"/>
          <line id="Línea_237" data-name="Línea 237" x1="148.794" transform="translate(128.706 490.749)" fill="none" stroke="#3e4e79" stroke-miterlimit="10" stroke-width="1"/>
          <path id="Trazado_782339" data-name="Trazado 782339" d="M47.611,62.769a27.539,27.539,0,0,0-.789,3.279,100.086,100.086,0,0,0-1.471,10.707c-.612,6.615-.836,13.262-.867,19.9-.047,10.135.378,20.27,1.073,30.38.974,14.151,2.485,28.262,4.329,42.325q.418,3.179.858,6.354c.157,1.138-1.585,1.631-1.745.48-2.036-14.7-3.745-29.459-4.894-44.259-.825-10.645-1.372-21.32-1.43-32-.04-7.107.128-14.223.7-21.309a119.688,119.688,0,0,1,1.513-12.093,21.662,21.662,0,0,1,.959-4.2.359.359,0,0,0,.016-.047c.364-1.1,2.112-.628,1.745.481" transform="translate(149.519 49.936)" fill="#341f08"/>
          <path id="Trazado_782340" data-name="Trazado 782340" d="M69.232,128.166a380.161,380.161,0,0,0-44.205-1.428.905.905,0,0,1,0-1.81,380.159,380.159,0,0,1,44.205,1.428c1.151.1,1.162,1.915,0,1.81" transform="translate(163.687 101.068)" fill="#341f08"/>
          <path id="Trazado_782341" data-name="Trazado 782341" d="M37.634,125.165a16.425,16.425,0,0,0-11.23,2.175.905.905,0,0,1-.914-1.562,18.355,18.355,0,0,1,12.625-2.358c1.146.2.659,1.94-.481,1.745" transform="translate(193.377 99.732)" fill="#341f08"/>
          <path id="Trazado_782342" data-name="Trazado 782342" d="M34.384,102.984a361.653,361.653,0,0,1,4.005,39.742c.052,1.164-1.757,1.162-1.81,0a357.378,357.378,0,0,0-3.94-39.261c-.179-1.14,1.564-1.631,1.745-.481" transform="translate(180.061 82.869)" fill="#341f08"/>
          <path id="Trazado_782343" data-name="Trazado 782343" d="M36.251,104.191a34.922,34.922,0,0,0,2.856,9.827.931.931,0,0,1-.326,1.238.912.912,0,0,1-1.238-.324,36.513,36.513,0,0,1-3.037-10.26.936.936,0,0,1,.632-1.113.911.911,0,0,1,1.113.632" transform="translate(175.86 83.844)" fill="#341f08"/>
          <path id="Trazado_782344" data-name="Trazado 782344" d="M50.505,65.607c-3.366,9.972-4.725,20.7-6.018,31.1-1.319,10.636-2.329,21.313-3.435,31.973q-.958,9.217-1.913,18.433c-.119,1.146-1.929,1.158-1.81,0l3.4-32.82c1.1-10.635,2.21-21.282,4-31.828a113.292,113.292,0,0,1,4.023-17.344c.369-1.1,2.119-.626,1.745.481" transform="translate(159.392 52.236)" fill="#341f08"/>
          <path id="Trazado_782345" data-name="Trazado 782345" d="M50.008,69.557l.06.016a.888.888,0,0,1,.633.632,1.122,1.122,0,0,1-.268,1.021.913.913,0,0,1-.881.233c-.5-.09-.816-.557-1.162-.89a13.782,13.782,0,0,0-1.126-.981,14.566,14.566,0,0,0-2.5-1.538,14,14,0,0,0-5.582-1.4c-1.162-.045-1.167-1.855,0-1.81A16.227,16.227,0,0,1,45.3,66.307a15.13,15.13,0,0,1,2.633,1.535c.867.63,1.575,1.388,2.38,2.083l-.4-.233c.042.007.081.014.123.024q-.44.114-.88.232l.049-.062q-.117.44-.233.881c0-.027-.009-.054-.014-.08.212.21.422.42.633.632l-.062-.016a.905.905,0,0,1,.481-1.745" transform="translate(157.433 52.511)" fill="#341f08"/>
          <path id="Trazado_782346" data-name="Trazado 782346" d="M50.625,76.644a1.241,1.241,0,0,1,.93.956.94.94,0,0,1-.414,1.023.913.913,0,0,1-1.1-.141c-2.411-2.787-5.451-5.67-9.409-5.468-1.166.06-1.162-1.75,0-1.81,4.44-.226,7.967,2.85,10.689,6l-1.513.88,0,0c.109.109.217.217.326.324l0-.013a.905.905,0,0,1,.481-1.745" transform="translate(153.963 57.653)" fill="#341f08"/>
          <path id="Trazado_782347" data-name="Trazado 782347" d="M49.755,84.753c-2.2-2.284-4.735-4.937-8.115-5.14-1.156-.071-1.166-1.88,0-1.81,3.926.235,6.81,2.992,9.395,5.67.809.838-.469,2.119-1.28,1.28" transform="translate(152.421 63.006)" fill="#341f08"/>
          <path id="Trazado_782348" data-name="Trazado 782348" d="M49.194,92.287A13.88,13.88,0,0,1,47.78,90.1a6.64,6.64,0,0,0-1.343-1.537,6.994,6.994,0,0,0-3.627-1.587.931.931,0,0,1-.9-.9.912.912,0,0,1,.9-.9,8.9,8.9,0,0,1,4.662,1.913,8.546,8.546,0,0,1,1.665,1.8,19.031,19.031,0,0,0,1.336,2.128.9.9,0,1,1-1.28,1.28" transform="translate(150.927 68.969)" fill="#341f08"/>
          <path id="Trazado_782349" data-name="Trazado 782349" d="M47.934,98.466a8.989,8.989,0,0,1-2.284-2.322,5.879,5.879,0,0,0-.554-.57c-.051-.045-.107-.087-.157-.132-.071-.067.089.06-.043-.036-.112-.08-.224-.157-.34-.23s-.237-.141-.358-.2c-.072-.038-.148-.074-.223-.11-.148-.074.047.013-.047-.022a6.307,6.307,0,0,0-.825-.257.911.911,0,0,1-.632-1.113.923.923,0,0,1,1.113-.632,6.292,6.292,0,0,1,3.194,1.853c.355.389.661.822.994,1.229a6.881,6.881,0,0,0,.536.59c.054.051.112.1.167.15s.058.047-.007,0a3.8,3.8,0,0,0,.382.244.913.913,0,0,1,.324,1.238.922.922,0,0,1-1.238.324" transform="translate(151.407 75.162)" fill="#341f08"/>
          <path id="Trazado_782350" data-name="Trazado 782350" d="M97.037,63.613C93.381,74.333,89.7,85.087,84.922,95.368c-2.384,5.125-5.328,9.954-7.757,15.056A34.177,34.177,0,0,0,73.5,127.858c.523,7.084,3.055,13.863,5.518,20.458.407,1.091-1.341,1.564-1.745.48-2.206-5.905-4.4-11.892-5.279-18.169a34.061,34.061,0,0,1,2.054-17.566c2.143-5.4,5.243-10.318,7.82-15.5,2.6-5.22,4.827-10.616,6.9-16.062,2.313-6.072,4.423-12.216,6.521-18.364.373-1.1,2.123-.626,1.745.48" transform="translate(50.759 50.622)" fill="#341f08"/>
          <path id="Trazado_782351" data-name="Trazado 782351" d="M86.68,66.1a281.674,281.674,0,0,0-8.832,35.018c-.212,1.144-1.956.659-1.746-.481a282,282,0,0,1,8.834-35.018c.355-1.1,2.1-.632,1.745.481" transform="translate(53.071 52.632)" fill="#341f08"/>
          <path id="Trazado_782352" data-name="Trazado 782352" d="M80.506,70.08l-6.054-.8a.931.931,0,0,1-.9-.9c.018-.438.4-.972.9-.9l6.054.8a.928.928,0,0,1,.9.9c-.018.436-.4.972-.9.9" transform="translate(62.981 54.632)" fill="#341f08"/>
          <path id="Trazado_782353" data-name="Trazado 782353" d="M80.69,77.455l-3.5-.784a.912.912,0,0,1-.632-1.113.921.921,0,0,1,1.111-.632c1.171.261,2.336.521,3.507.784a.913.913,0,0,1,.632,1.113.927.927,0,0,1-1.115.632" transform="translate(57.174 60.657)" fill="#341f08"/>
          <path id="Trazado_782354" data-name="Trazado 782354" d="M89.142,110.581c-2.356,3.773-4.74,7.619-5.75,12-.261,1.135-2.005.655-1.745-.481,1.042-4.532,3.5-8.535,5.933-12.437.615-.985,2.181-.078,1.562.914" transform="translate(40.494 88.468)" fill="#341f08"/>
          <path id="Trazado_782355" data-name="Trazado 782355" d="M49.962,126.8q.567,21.343.1,42.7a.905.905,0,0,1-1.81,0q.464-21.346-.1-42.7a.905.905,0,0,1,1.81,0" transform="translate(140.08 101.981)" fill="#341f08"/>
          <path id="Trazado_782356" data-name="Trazado 782356" d="M83.644,129.073q-5.12-.244-10.247-.376c-3.328-.085-6.684-.186-9.88.887-1.106.371-1.58-1.377-.481-1.746,3.214-1.079,6.615-1.042,9.967-.961q5.324.13,10.642.387c1.162.056,1.166,1.866,0,1.81" transform="translate(80.028 102.719)" fill="#341f08"/>
          <path id="Trazado_782357" data-name="Trazado 782357" d="M75.773,128.765q-.141,2.859-.049,5.719a.911.911,0,0,1-.9.9.923.923,0,0,1-.9-.9q-.092-2.859.049-5.719a.9.9,0,0,1,1.81,0" transform="translate(68.02 103.545)" fill="#341f08"/>
          <path id="Trazado_782358" data-name="Trazado 782358" d="M82.443,134.291q-4.607-.339-9.216-.677c-2.952-.217-6.1-.753-9.027-.094-1.135.257-1.618-1.488-.481-1.745,3-.675,6.114-.221,9.14,0q4.794.35,9.585.7c1.155.085,1.164,1.895,0,1.81" transform="translate(80.043 106.428)" fill="#341f08"/>
          <path id="Trazado_782359" data-name="Trazado 782359" d="M81.917,138.7q-8.57-.38-17.148.022c-1.164.054-1.16-1.756,0-1.81q8.57-.4,17.148-.022c1.16.051,1.166,1.861,0,1.81" transform="translate(79.068 110.706)" fill="#341f08"/>
          <path id="Trazado_782360" data-name="Trazado 782360" d="M74.4,137.784a14.185,14.185,0,0,0,2.06,8.8c.615.994-.95,1.9-1.562.914a15.82,15.82,0,0,1-2.308-9.71.93.93,0,0,1,.9-.9.912.912,0,0,1,.9.9" transform="translate(69.634 110.849)" fill="#341f08"/>
          <path id="Trazado_782361" data-name="Trazado 782361" d="M75.348,132.672a30.3,30.3,0,0,0,.418,9.366c.233,1.138-1.511,1.623-1.745.481a31.843,31.843,0,0,1-.483-9.847.932.932,0,0,1,.9-.9.911.911,0,0,1,.9.9" transform="translate(68.95 106.709)" fill="#341f08"/>
          <path id="Trazado_782362" data-name="Trazado 782362" d="M75.155,124.866a22.235,22.235,0,0,0,.326,2.612,26.2,26.2,0,0,0,.65,2.689.9.9,0,1,1-1.745.481,26.8,26.8,0,0,1-1.041-5.782.91.91,0,0,1,.9-.9.927.927,0,0,1,.9.9" transform="translate(68.596 100.387)" fill="#341f08"/>
          <path id="Trazado_782363" data-name="Trazado 782363" d="M68.578,129.453a78.663,78.663,0,0,0-15.186-6.443c-1.109-.34-.637-2.087.481-1.746a81.044,81.044,0,0,1,15.619,6.628c1.019.565.107,2.128-.914,1.562" transform="translate(112.076 98.168)" fill="#341f08"/>
          <path id="Trazado_782364" data-name="Trazado 782364" d="M96.483,138.191a69,69,0,0,0-21.439-13.805c-1.066-.431-.6-2.183.481-1.745a71.313,71.313,0,0,1,22.237,14.271c.849.8-.433,2.08-1.28,1.28" transform="translate(44.733 99.262)" fill="#341f08"/>
          <path id="Trazado_782365" data-name="Trazado 782365" d="M98.469,141.542a30.149,30.149,0,0,0-5.536-3.071q-2.927-1.5-5.911-2.888-5.962-2.769-12.128-5.048c-1.082-.4-.614-2.152.481-1.745q6.38,2.367,12.558,5.229,3.081,1.431,6.1,2.986a30.836,30.836,0,0,1,5.714,3.258c.9.746-.391,2.02-1.28,1.28" transform="translate(43.013 104.249)" fill="#341f08"/>
          <path id="Trazado_782366" data-name="Trazado 782366" d="M98,142.069a97.82,97.82,0,0,1-23.9-5.306c-1.088-.391-.619-2.141.481-1.745A95.862,95.862,0,0,0,98,140.259c1.149.109,1.16,1.918,0,1.81" transform="translate(45.656 109.295)" fill="#341f08"/>
          <path id="Trazado_782367" data-name="Trazado 782367" d="M94.724,121.674a18.213,18.213,0,0,0-2.154,7.656.924.924,0,0,1-.9.9.913.913,0,0,1-.9-.9,20.289,20.289,0,0,1,2.4-8.57c.552-1.024,2.116-.112,1.562.914" transform="translate(18.4 97.432)" fill="#341f08"/>
          <path id="Trazado_782368" data-name="Trazado 782368" d="M94.094,132.479c.02.319.043.639.076.957.016.147.033.293.051.44.009.072.016.147.027.219-.033-.232.007.042.014.089.09.621.21,1.238.353,1.85a.906.906,0,0,1-1.746.481,24.3,24.3,0,0,1-.585-4.036.909.909,0,0,1,.9-.9.927.927,0,0,1,.9.9" transform="translate(15.845 106.553)" fill="#341f08"/>
          <path id="Trazado_782369" data-name="Trazado 782369" d="M62.181,135.152a23.018,23.018,0,0,1-2.1,7.752.912.912,0,0,1-1.238.324.924.924,0,0,1-.324-1.238,20.519,20.519,0,0,0,1.853-6.838.928.928,0,0,1,.9-.9.911.911,0,0,1,.9.9" transform="translate(109.609 108.718)" fill="#341f08"/>
          <path id="Trazado_782370" data-name="Trazado 782370" d="M60.206,129.137v1.037a.929.929,0,0,1-.9.9.916.916,0,0,1-.641-.266.943.943,0,0,1-.264-.639v-1.037a.683.683,0,0,1,.078-.349.806.806,0,0,1,.478-.478.683.683,0,0,1,.349-.078.923.923,0,0,1,.641.264.951.951,0,0,1,.264.641" transform="translate(111.607 103.846)" fill="#341f08"/>
          <path id="Trazado_782371" data-name="Trazado 782371" d="M108.786,115.445a51.567,51.567,0,0,0-17.611,34.821,49.133,49.133,0,0,0,.416,11.456c.177,1.14-1.566,1.631-1.745.481a53.371,53.371,0,0,1,9.674-39.4,51.18,51.18,0,0,1,7.987-8.637c.88-.753,2.166.521,1.28,1.28" transform="translate(6.915 92.269)" fill="#341f08"/>
          <path id="Trazado_782372" data-name="Trazado 782372" d="M101.418,138.421a10.428,10.428,0,0,1,.138,4.91,9.921,9.921,0,0,1-.811,2.327,1.777,1.777,0,0,1-1.891,1.2,2.017,2.017,0,0,1-1.336-1.649,8.3,8.3,0,0,1-.279-2.331,8.493,8.493,0,0,1,1.374-4.434.916.916,0,0,1,1.564,0,6.912,6.912,0,0,1-.286,6.8.915.915,0,0,1-1.652-.215,8.154,8.154,0,0,1,1.529-7.42.909.909,0,0,1,1.421.183,5,5,0,0,1-.17,5.008.917.917,0,0,1-1.654-.215,7,7,0,0,1,.4-4.532.914.914,0,0,1,1.023-.416,1.1,1.1,0,0,1-.078,2.1,1.17,1.17,0,0,1-1.26-.559c-.157-.266-.156-.865-.248-.988l.326.324c-.031-.02-.06-.042-.09-.062.152.042.306.083.458.123a1.532,1.532,0,0,1-1.272-2.3q.51.662,1.023,1.328c-.025.009-.051.016-.074.025l.4-.233a.613.613,0,0,0,.1-.615l-.326-.326c-.081-.02-.163-.042-.244-.063l-.456.123a.729.729,0,0,0-.259.565c.078.134.156.268.233.4.022.016.045.031.067.047a.906.906,0,0,1,.914-1.564,1.187,1.187,0,1,1-.831-.1.914.914,0,0,1,1.023,1.328c.161-.257-.1-.286-.2-.4-.166-.043-.116-.04.154.007l.215.092a1.3,1.3,0,0,1,.344.293,1.394,1.394,0,0,1,.293.612,2.364,2.364,0,0,1,.045.358c0,.058.005.118.007.176.018.177-.045.094-.192-.253l-.456-.123.076.007c-.152.042-.3.083-.456.123-.09.163-.179.328-.27.49l.125.456-.034-.047c.179.139.36.277.539.416l-.067-.016,1.023-.416a4.946,4.946,0,0,0-.217,3.136l-1.654-.217a3.156,3.156,0,0,0,.168-3.182l1.423.185a6.274,6.274,0,0,0-1.064,5.659l-1.654-.217a5.06,5.06,0,0,0,.284-4.975h1.564a6.633,6.633,0,0,0-1.095,2.993,6.9,6.9,0,0,0,.025,1.64,6.345,6.345,0,0,0,.157.737c.034.13.1.266.121.4.024.15.165.04-.036.005-.438-.072-.416.1-.2-.317a6.8,6.8,0,0,0,.315-.738,8.78,8.78,0,0,0,.436-1.7,8.476,8.476,0,0,0-.224-3.477.905.905,0,0,1,1.745-.481" transform="translate(-0.266 109.995)" fill="#341f08"/>
          <path id="Trazado_782373" data-name="Trazado 782373" d="M91.814,115.238l.206,1.184a1.108,1.108,0,0,1,0,.481c-.031.072-.062.145-.09.217a.7.7,0,0,1-.233.253.449.449,0,0,1-.2.116.44.44,0,0,1-.228.062.453.453,0,0,1-.241,0,.69.69,0,0,1-.337-.107,3.735,3.735,0,0,1-1-.708,4.256,4.256,0,0,1-.456-.545,2.923,2.923,0,0,1-.268-.438.945.945,0,0,1-.092-.7l.092-.215a.674.674,0,0,1,.233-.255.86.86,0,0,1,.548-.194l.239.033a.9.9,0,0,1,.4.233c.125.107.248.214.371.322a.935.935,0,0,1,.367.746,1.238,1.238,0,0,1-.045.293,1.158,1.158,0,0,1-.51.664.431.431,0,0,1-.062.038,1.592,1.592,0,0,1-.27.11,1.486,1.486,0,0,1-.295.042.88.88,0,0,1-.183-.016.969.969,0,0,1-.181-.033.994.994,0,0,1-.271-.123.929.929,0,0,1-.324-1.238.911.911,0,0,1,.539-.414.889.889,0,0,1,.7.09.2.2,0,0,0,.054.031c-.072-.029-.145-.06-.215-.09a.323.323,0,0,0,.06.016l-.241-.033a.391.391,0,0,0,.08,0l-.241.033a.391.391,0,0,0,.076-.02l-.215.09a.435.435,0,0,0,.083-.049l-.183.141a.32.32,0,0,0,.054-.056c-.047.062-.094.123-.141.183a.387.387,0,0,0,.031-.054l-.092.217a.341.341,0,0,0,.016-.062l-.033.241,0-.016c.089.214.177.427.264.641l-.474-.413,1.421-1.1a3.131,3.131,0,0,0,.3.48c-.047-.06-.094-.121-.141-.183a3.105,3.105,0,0,0,.556.556l-.183-.141a3.085,3.085,0,0,0,.539.328q-.665.513-1.328,1.023l-.206-1.184a.685.685,0,0,1-.016-.362.677.677,0,0,1,.107-.335A.906.906,0,0,1,91.4,114.7a.884.884,0,0,1,.416.541" transform="translate(24.656 92.639)" fill="#341f08"/>
          <path id="Trazado_782374" data-name="Trazado 782374" d="M104.482,120.233a38.545,38.545,0,0,0-14.978-9c-1.1-.355-.632-2.1.481-1.745a40.577,40.577,0,0,1,15.776,9.462c.838.811-.442,2.09-1.28,1.28" transform="translate(10.614 88.631)" fill="#341f08"/>
          <path id="Trazado_782375" data-name="Trazado 782375" d="M101.027,114.661c.228-1.343-1.375-2.527-2.416-3.2a36.47,36.47,0,0,0-5.218-2.776.912.912,0,0,1-.326-1.238.93.93,0,0,1,1.24-.324,31.755,31.755,0,0,1,5.744,3.129c1.62,1.149,3.082,2.764,2.72,4.888a.912.912,0,0,1-1.113.632.926.926,0,0,1-.632-1.113" transform="translate(6.445 86.667)" fill="#341f08"/>
          <path id="Trazado_782376" data-name="Trazado 782376" d="M86.564,103.984q-.092,6.8-.366,13.6c-.045,1.16-1.855,1.166-1.81,0q.274-6.8.366-13.6a.905.905,0,0,1,1.81,0" transform="translate(38.208 83.502)" fill="#341f08"/>
          <path id="Trazado_782377" data-name="Trazado 782377" d="M94.195,111.373a45.3,45.3,0,0,0-8.385,6.32c-.842.805-2.125-.472-1.28-1.28a47.268,47.268,0,0,1,8.751-6.6.905.905,0,0,1,.914,1.562" transform="translate(30.383 88.823)" fill="#341f08"/>
          <path id="Trazado_782378" data-name="Trazado 782378" d="M76.141,152.733a27.911,27.911,0,0,1-10.953,4.836,74.059,74.059,0,0,1-12.531,1.774,77.778,77.778,0,0,1-38.908-7.885c-1.046-.514-.13-2.076.914-1.564a76.158,76.158,0,0,0,47.586,6.45c4.436-.852,8.982-2.079,12.613-4.89.91-.7,2.2.566,1.28,1.28" transform="translate(176.995 121.306)" fill="#341f08"/>
          <path id="Trazado_782379" data-name="Trazado 782379" d="M51.528,154.417q-4.463,14.535-8.924,29.068c-.34,1.109-2.089.637-1.745-.481q4.46-14.532,8.924-29.068c.34-1.109,2.089-.637,1.745.481" transform="translate(152.06 124.15)" fill="#341f08"/>
          <path id="Trazado_782380" data-name="Trazado 782380" d="M69.932,190.455c-4.769,5.437-11.793,7.978-18.8,8.935a74.677,74.677,0,0,1-24.659-1.129,83.289,83.289,0,0,1-14.526-4.345c-1.068-.429-.6-2.179.481-1.746A82.19,82.19,0,0,0,37.16,197.9c7.3.518,14.955.3,21.89-2.277a23.52,23.52,0,0,0,9.6-6.447c.769-.878,2.045.407,1.28,1.28" transform="translate(186.793 152.962)" fill="#341f08"/>
          <path id="Trazado_782381" data-name="Trazado 782381" d="M19.428,178.462a60.622,60.622,0,0,1-2.291,27.475c-.358,1.1-2.107.63-1.746-.481a58.57,58.57,0,0,0,2.293-26.512c-.167-1.14,1.576-1.631,1.745-.481" transform="translate(229.663 143.994)" fill="#341f08"/>
          <path id="Trazado_782382" data-name="Trazado 782382" d="M24.1,179.214a131.1,131.1,0,0,1,.212,15.889q-.187,3.86-.6,7.7c-.181,1.663-.1,4.257-1.946,5.049-1.057.456-1.98-1.1-.912-1.562.856-.369.829-1.594.923-2.389q.209-1.757.364-3.515.315-3.521.438-7.053a131.346,131.346,0,0,0-.284-14.124c-.085-1.162,1.725-1.156,1.81,0" transform="translate(216.172 144.429)" fill="#341f08"/>
          <path id="Trazado_782383" data-name="Trazado 782383" d="M30.642,179.218a143.985,143.985,0,0,1-2.112,27.224c-.2,1.146-1.944.659-1.746-.481a141.448,141.448,0,0,0,2.049-26.742.905.905,0,0,1,1.81,0" transform="translate(198.389 144.429)" fill="#341f08"/>
          <path id="Trazado_782384" data-name="Trazado 782384" d="M37.157,180.284q-.543,6.361-1.088,12.721-.266,3.125-.534,6.249a9.793,9.793,0,0,1-1.29,4.84c-.648.959-2.217.056-1.562-.914,1-1.482.99-3.319,1.138-5.042l.514-6.025q.5-5.915,1.012-11.829c.1-1.151,1.909-1.162,1.81,0" transform="translate(181.473 145.298)" fill="#341f08"/>
          <path id="Trazado_782385" data-name="Trazado 782385" d="M43.24,178.95a87.333,87.333,0,0,1-2.561,24.784.905.905,0,0,1-1.745-.481,85.535,85.535,0,0,0,2.5-24.3c-.045-1.166,1.765-1.162,1.81,0" transform="translate(163.779 144.212)" fill="#341f08"/>
          <path id="Trazado_782386" data-name="Trazado 782386" d="M15.465,140.315A39.108,39.108,0,0,1,6.617,158.86c-.76.885-2.034-.4-1.28-1.28a37.365,37.365,0,0,0,8.383-17.747c.2-1.144,1.949-.659,1.745.481" transform="translate(252.776 112.713)" fill="#341f08"/>
          <path id="Trazado_782387" data-name="Trazado 782387" d="M115.961,145.951a28.219,28.219,0,0,1-17.465-4.93c-.952-.659-.049-2.228.914-1.564a26.585,26.585,0,0,0,16.551,4.684c1.164-.063,1.16,1.748,0,1.81" transform="translate(-16.862 112.807)" fill="#341f08"/>
          <path id="Trazado_782388" data-name="Trazado 782388" d="M127.5,165.1a117.685,117.685,0,0,0-33,8.209c-1.079.44-1.547-1.31-.481-1.747a119.377,119.377,0,0,1,33.486-8.273c1.158-.114,1.151,1.7,0,1.81" transform="translate(-19.933 132.23)" fill="#341f08"/>
          <path id="Trazado_782389" data-name="Trazado 782389" d="M101.937,162.067a34.3,34.3,0,0,1-1.028,5.82.906.906,0,0,1-1.747-.481,31.583,31.583,0,0,0,.965-5.339.924.924,0,0,1,.9-.9.915.915,0,0,1,.9.9" transform="translate(-3.849 130.514)" fill="#341f08"/>
          <path id="Trazado_782390" data-name="Trazado 782390" d="M105.784,162.051a49.748,49.748,0,0,1-1.251,8.736c-.268,1.133-2.013.653-1.747-.481a46.878,46.878,0,0,0,1.187-8.255c.062-1.158,1.873-1.166,1.81,0" transform="translate(-14.262 130.528)" fill="#341f08"/>
          <path id="Trazado_782391" data-name="Trazado 782391" d="M42.469,159.1A21.784,21.784,0,0,1,40.183,170c-.521,1.042-2.081.127-1.564-.914a19.92,19.92,0,0,0,2.04-9.987c-.063-1.164,1.746-1.16,1.81,0" transform="translate(165.293 128.139)" fill="#341f08"/>
          <path id="Trazado_782392" data-name="Trazado 782392" d="M40.475,119.9l2.184,4.611a.906.906,0,0,1-1.564.914Q40,123.114,38.914,120.81a.9.9,0,0,1,1.562-.914" transform="translate(164.501 96.743)" fill="#341f08"/>
          <path id="Trazado_782393" data-name="Trazado 782393" d="M96.631,139.523a161.327,161.327,0,0,0,1.8,41.986c.2,1.14-1.544,1.629-1.747.481a163.2,163.2,0,0,1-1.861-42.468c.1-1.151,1.911-1.162,1.81,0" transform="translate(8.562 112.288)" fill="#341f08"/>
          <path id="Trazado_782394" data-name="Trazado 782394" d="M100.088,150.855a10.809,10.809,0,0,1,2.5,9.891,5.549,5.549,0,0,1-1.057,2.418c-.838.867-1.875.347-2.565-.4a8.649,8.649,0,0,1-2.175-4.5,8.885,8.885,0,0,1,.932-5.7c.561-1.021,2.125-.109,1.564.914a6.875,6.875,0,0,0-.726,4.456,7.313,7.313,0,0,0,.731,2.181,3.978,3.978,0,0,0,1.509,1.81c-.152-.04-.3-.081-.456-.123-.087-.007-.089.152-.063.007a1.383,1.383,0,0,1,.138-.286,6.648,6.648,0,0,0,.239-.632,9.42,9.42,0,0,0,.324-1.281,8.94,8.94,0,0,0-2.179-7.484c-.791-.854.487-2.136,1.28-1.28" transform="translate(-0.38 121.939)" fill="#341f08"/>
          <path id="Trazado_782395" data-name="Trazado 782395" d="M131.312,170.443a225.1,225.1,0,0,0-54.223,12.68q-7.547,2.788-14.875,6.114c-1.052.476-1.973-1.082-.914-1.564a227.058,227.058,0,0,1,54.235-16.824q7.846-1.385,15.776-2.215c1.156-.123,1.147,1.689,0,1.81" transform="translate(35.229 136.56)" fill="#341f08"/>
          <path id="Trazado_782396" data-name="Trazado 782396" d="M92.965,178.236q-3.608-3.551-7.218-7.1c-.831-.818.449-2.1,1.281-1.28q3.608,3.551,7.216,7.1c.831.818-.449,2.1-1.28,1.28" transform="translate(28.285 137.339)" fill="#341f08"/>
          <path id="Trazado_782397" data-name="Trazado 782397" d="M118,215.827q1.585,26.151,2.6,52.333.29,7.449.534,14.9c.038,1.164-1.772,1.164-1.81,0q-.858-26.187-2.282-52.349-.4-7.444-.856-14.882c-.071-1.164,1.739-1.158,1.81,0" transform="translate(-53.916 174.078)" fill="#341f08"/>
          <path id="Trazado_782398" data-name="Trazado 782398" d="M101.406,210.69q-4.088,24.759-6.948,49.7-.812,7.094-1.52,14.2c-.116,1.149-1.927,1.16-1.81,0q2.514-25.1,6.269-50.055,1.08-7.17,2.264-14.327c.188-1.146,1.933-.661,1.745.481" transform="translate(11.164 169.704)" fill="#341f08"/>
          <path id="Trazado_782399" data-name="Trazado 782399" d="M126.344,184.293c-6.159,3.641-10.332,9.844-12.539,16.555-2.637,8.021-2.583,16.609-1.994,24.939.081,1.162-1.728,1.156-1.81,0-.615-8.705-.628-17.744,2.284-26.083,2.409-6.9,6.778-13.21,13.145-16.973a.905.905,0,0,1,.914,1.562" transform="translate(-47.766 147.874)" fill="#341f08"/>
          <path id="Trazado_782400" data-name="Trazado 782400" d="M131.967,188.9c-21.427,8.141-44.446,10.188-66.486,16.061a144.962,144.962,0,0,0-18.1,6.021c-1.075.443-1.544-1.307-.481-1.746,21.2-8.76,44.227-10.955,66.325-16.462a160.51,160.51,0,0,0,18.258-5.618c1.09-.414,1.562,1.334.481,1.745" transform="translate(61.121 151.517)" fill="#341f08"/>
          <path id="Trazado_782401" data-name="Trazado 782401" d="M99.829,201.236c.118-.009-.007.036,0,.022.051-.1-.118.2-.1.17a1.185,1.185,0,0,0-.081.532,11.468,11.468,0,0,1,.139,2.112,3.244,3.244,0,0,1-2.662,2.543,8.591,8.591,0,0,1-2.27.081,3.9,3.9,0,0,0-.507-.036c.09-.036.022.033.025.051.009.069,0,.177,0,.23a9.386,9.386,0,0,1,.221,1.587,1.79,1.79,0,0,1-.957,1.582.934.934,0,0,1-1.238-.324.912.912,0,0,1,.324-1.238c.15-.067.081-.024.033.051.052-.081.029-.083.036-.179a1.932,1.932,0,0,0-.092-.648,2.944,2.944,0,0,1,.063-1.947c.724-1.5,2.6-.71,3.878-.956a1.8,1.8,0,0,0,1.238-.724c.324-.538.045-1.3-.016-1.871a2.369,2.369,0,0,1,1.967-2.847.912.912,0,0,1,.9.9.923.923,0,0,1-.9.9" transform="translate(9.751 161.5)" fill="#341f08"/>
          <path id="Trazado_782402" data-name="Trazado 782402" d="M114.609,205.606q-6.461,35.292-12.92,70.585l-3.656,19.977c-.21,1.144-1.955.659-1.746-.481q6.461-35.292,12.92-70.585,1.83-9.988,3.658-19.977c.208-1.144,1.953-.659,1.745.481" transform="translate(-11.358 165.587)" fill="#341f08"/>
          <path id="Trazado_782403" data-name="Trazado 782403" d="M178.724,293.975q-29.887.589-59.773-.418-8.456-.288-16.906-.7c-1.16-.058-1.166-1.868,0-1.81q29.857,1.463,59.761,1.328,8.459-.038,16.918-.208a.905.905,0,0,1,0,1.81" transform="translate(-85.205 235.696)" fill="#341f08"/>
          <path id="Trazado_782404" data-name="Trazado 782404" d="M158.524,253.773c-.8,11.058-1.424,22.355-3.938,33.187-1.017,4.378-2.84,8.62-6.586,11.326-3.895,2.812-8.91,3.687-13.418,5.049a180.26,180.26,0,0,0-17.917,6.474c-1.073.452-1.54-1.3-.481-1.745q7.387-3.114,15.023-5.574c2.51-.8,5.04-1.531,7.576-2.251a33.814,33.814,0,0,0,6.181-2.23c4.248-2.168,6.454-6,7.623-10.5a110.443,110.443,0,0,0,2.519-15.206c.711-6.163,1.162-12.35,1.609-18.535.085-1.155,1.9-1.164,1.81,0" transform="translate(-90.217 204.81)" fill="#341f08"/>
          <path id="Trazado_782405" data-name="Trazado 782405" d="M149.5,286.1A17.784,17.784,0,0,0,142,302.588c.129,1.156-1.683,1.147-1.81,0a19.571,19.571,0,0,1,8.4-18.053c.966-.657,1.873.91.914,1.562" transform="translate(-125.923 230.298)" fill="#341f08"/>
          <path id="Trazado_782406" data-name="Trazado 782406" d="M130.588,282.348c-1.491,1.533-3.556,2.078-5.576,2.561a54.687,54.687,0,0,1-22,.682c-1.146-.194-.659-1.937.481-1.745a53.446,53.446,0,0,0,13.445.547,51.252,51.252,0,0,0,6.546-.992c2-.434,4.338-.805,5.824-2.333.813-.836,2.092.443,1.28,1.28" transform="translate(-38.597 227.398)" fill="#341f08"/>
          <path id="Trazado_782407" data-name="Trazado 782407" d="M159.7,290.169c-2.132,1.289-4.749,1.522-7.171,1.814a65.2,65.2,0,0,1-8.148.458.905.905,0,0,1,0-1.81,65.423,65.423,0,0,0,7.578-.393c2.266-.252,4.834-.429,6.827-1.631a.905.905,0,0,1,.914,1.562" transform="translate(-142.359 233.613)" fill="#341f08"/>
          <path id="Trazado_782408" data-name="Trazado 782408" d="M165.534,280.8A99.156,99.156,0,0,0,149,288.782,27.849,27.849,0,0,0,142.155,294c-1.994,2.335-2.478,5.355-2.91,8.3-.168,1.147-1.913.659-1.745-.481.442-3,.99-6.014,2.879-8.483,1.839-2.4,4.481-4.094,7.009-5.685a100.422,100.422,0,0,1,17.664-8.591c1.09-.416,1.56,1.332.481,1.745" transform="translate(-137.477 225.94)" fill="#341f08"/>
          <path id="Trazado_782409" data-name="Trazado 782409" d="M74.842,83.811a121.073,121.073,0,0,0-21.577,16.728c-.834.814-2.116-.465-1.28-1.28A123.19,123.19,0,0,1,73.928,82.249a.905.905,0,0,1,.914,1.562" transform="translate(108.636 66.496)" fill="#341f08"/>
          <path id="Trazado_782410" data-name="Trazado 782410" d="M72.768,101.15c.045.221,0,.128-.134-.281l-.32-.737-.483-1.1q-.562-1.29-1.124-2.577l-2.089-4.787q-2.166-4.971-4.336-9.941c-.462-1.059,1.1-1.98,1.562-.914q2.451,5.614,4.9,11.23l2.411,5.524c.4.919.823,1.833,1.2,2.762a1.681,1.681,0,0,1-.027,1.739c-.688.921-2.26.02-1.562-.914" transform="translate(86.725 65.058)" fill="#341f08"/>
          <path id="Trazado_782411" data-name="Trazado 782411" d="M86.247,124.345A62.524,62.524,0,0,0,57.6,108.815c-1.133-.268-.653-2.014.48-1.745a64.347,64.347,0,0,1,29.451,16c.845.805-.436,2.083-1.28,1.28" transform="translate(86.628 86.686)" fill="#341f08"/>
          <path id="Trazado_782412" data-name="Trazado 782412" d="M74.6,113.569q-2.549-.728-5.1-1.457a.9.9,0,1,1,.481-1.745l5.1,1.457a.9.9,0,1,1-.481,1.745" transform="translate(77.171 89.352)" fill="#341f08"/>
        </g>
      </g>
    </g>
  </g>
</svg>
