<svg xmlns="http://www.w3.org/2000/svg" width="114" height="114" viewBox="0 0 114 114">
  <g id="Grupo_1044945" data-name="Grupo 1044945" transform="translate(-1294 -564)">
    <g id="Grupo_1044018" data-name="Grupo 1044018" transform="translate(1294 564)">
      <rect id="Rectángulo_34817" data-name="Rectángulo 34817" width="114" height="114" rx="13" fill="#cb4dae"/>
    </g>
    <g id="feto_1_" data-name="feto (1)" transform="translate(1287.484 572)">
      <g id="Grupo_1044941" data-name="Grupo 1044941" transform="translate(21.959 5.443)">
        <path id="Trazado_777265" data-name="Trazado 777265" d="M39.781,34.194l.657-4.7A25.52,25.52,0,0,1,65.713,7.5H78.39a25.52,25.52,0,0,1,25.452,23.654l2.363,32.239a25.521,25.521,0,0,1-5.961,18.34l-4.086,4.834a25.52,25.52,0,0,1-19.49,9.046H49.536a25.52,25.52,0,0,1-25.52-25.52h0A25.519,25.519,0,0,1,28.326,55.9l7.392-11.048A25.524,25.524,0,0,0,39.781,34.194Z" transform="translate(-24.016 -7.5)" fill="#feaee1"/>
        <path id="Trazado_777266" data-name="Trazado 777266" d="M309.287,63.394l-2.363-32.239A25.52,25.52,0,0,0,281.472,7.5h-8.888a25.52,25.52,0,0,1,25.452,23.654L300.4,63.394a25.52,25.52,0,0,1-5.961,18.34l-4.086,4.834a25.52,25.52,0,0,1-19.49,9.046h8.888a25.521,25.521,0,0,0,19.49-9.046l4.086-4.834A25.521,25.521,0,0,0,309.287,63.394Z" transform="translate(-227.098 -7.5)" fill="#fe93d3"/>
        <path id="Trazado_777267" data-name="Trazado 777267" d="M118.117,100.149l-4.087,4.833a20.872,20.872,0,0,1-15.97,7.413H70.93A20.912,20.912,0,0,1,53.55,79.856l7.393-11.049a30.33,30.33,0,0,0,4.8-12.586l.172-1.234.486-3.47A20.907,20.907,0,0,1,87.107,33.5H99.784a20.912,20.912,0,0,1,20.855,19.381L123,85.122A20.8,20.8,0,0,1,118.117,100.149Z" transform="translate(-45.41 -28.89)" fill="#fe5694"/>
        <path id="Trazado_777268" data-name="Trazado 777268" d="M381.153,91.715l-2.363-32.24a20.931,20.931,0,0,0-13.268-17.961A25.465,25.465,0,0,1,374.5,59.138l2.363,32.239a25.52,25.52,0,0,1-5.961,18.34l-4.086,4.834a25.517,25.517,0,0,1-3.013,3.013,20.886,20.886,0,0,0,8.38-5.989l4.087-4.833A20.8,20.8,0,0,0,381.153,91.715Z" transform="translate(-303.561 -35.484)" fill="#fd3581"/>
        <g id="Grupo_1044938" data-name="Grupo 1044938" transform="translate(22.935 17.187)">
          <g id="Grupo_1044937" data-name="Grupo 1044937">
            <path id="Trazado_777269" data-name="Trazado 777269" d="M165.8,162.652a12.418,12.418,0,0,1,0-24.836,7.649,7.649,0,0,1,8.743-6.166s-9.422-2.162-10.04-8.341,6.487-13.284,6.487-13.284-4.325-1.545-3.089-3.862,12.2-4.17,13.284,7.569c0,0,18.227-2.626,16.991,17.763s-12.934,21.738-20.523,22.454h0c-.362,1.158-2.112,1.143-2.776,2.127C172.641,159.381,170.083,162.652,165.8,162.652Z" transform="translate(-153.378 -104.443)" fill="#ffdfcf"/>
          </g>
        </g>
        <g id="Grupo_1044940" data-name="Grupo 1044940" transform="translate(32.86 17.187)">
          <g id="Grupo_1044939" data-name="Grupo 1044939" transform="translate(0)">
            <path id="Trazado_777270" data-name="Trazado 777270" d="M244.23,131.494c-1.236,20.39-12.935,21.739-20.523,22.454h0A12.437,12.437,0,0,1,209.36,162.4a12.44,12.44,0,0,0,8.839-7.08,2.6,2.6,0,0,1,2.08-1.529c7.534-.821,17.811-3.259,18.965-22.3.97-16-10.045-17.827-14.833-17.872a2.584,2.584,0,0,1-2.49-2.013c-.938-4.114-3.324-6.083-5.8-6.813,3.6-1.083,10.29-.1,11.121,8.935C227.238,113.732,245.465,111.106,244.23,131.494Z" transform="translate(-209.36 -104.442)" fill="#ffcebf"/>
          </g>
        </g>
        <path id="Trazado_777271" data-name="Trazado 777271" d="M86.191,173.177c-8.131-.518-16.261,6.391-16.261,6.391l7.393-11.049a30.33,30.33,0,0,0,4.8-12.586l.172-1.234C81.2,166.407,86.191,173.177,86.191,173.177Z" transform="translate(-61.79 -128.603)" fill="#978ecb"/>
      </g>
      <g id="Grupo_1044944" data-name="Grupo 1044944" transform="translate(21.516 5)">
        <path id="Trazado_777272" data-name="Trazado 777272" d="M74.611,94H47.479a26.153,26.153,0,0,1-5.232-.527,25.824,25.824,0,0,1-9.285-3.907,26.038,26.038,0,0,1-9.406-11.423,25.836,25.836,0,0,1-1.513-4.874A25.989,25.989,0,0,1,25.9,53.6l7.392-11.048a25.078,25.078,0,0,0,3.994-10.476l.657-4.7A25.943,25.943,0,0,1,63.656,5H76.333a26.136,26.136,0,0,1,4.977.478,25.955,25.955,0,0,1,20.077,18.659,26.135,26.135,0,0,1,.84,4.929.443.443,0,1,1-.884.065,25.247,25.247,0,0,0-.812-4.761,24.962,24.962,0,0,0-4.059-8.351A25.138,25.138,0,0,0,85.649,7.676a24.984,24.984,0,0,0-4.508-1.328,25.247,25.247,0,0,0-4.808-.461H63.656a24.994,24.994,0,0,0-12.9,3.57,25.128,25.128,0,0,0-9.085,9.435,24.971,24.971,0,0,0-2.851,8.6l-.657,4.7a25.965,25.965,0,0,1-4.135,10.846L26.637,54.092A25.063,25.063,0,0,0,47.479,93.114H74.611a25.074,25.074,0,0,0,19.152-8.889l4.086-4.834a25.076,25.076,0,0,0,5.858-18.021L101.8,35.378a.443.443,0,1,1,.884-.065L104.59,61.3a25.962,25.962,0,0,1-6.065,18.658L94.44,84.8A25.961,25.961,0,0,1,74.611,94Z" transform="translate(-21.516 -5)"/>
        <path id="Trazado_777273" data-name="Trazado 777273" d="M96,110.781H68.873A21.355,21.355,0,0,1,51.125,77.553L58.518,66.5a29.882,29.882,0,0,0,4.727-12.4l.172-1.234L63.9,49.4A21.351,21.351,0,0,1,85.051,31H97.727a21.355,21.355,0,0,1,21.3,19.792l2.363,32.24A21.242,21.242,0,0,1,116.4,98.378l-4.087,4.833A21.315,21.315,0,0,1,96,110.781ZM85.051,31.886A20.464,20.464,0,0,0,64.78,49.523l-.486,3.47-.172,1.234A30.774,30.774,0,0,1,59.255,67L51.861,78.046a20.469,20.469,0,0,0,17.011,31.848H96a20.43,20.43,0,0,0,15.632-7.255l4.087-4.833A20.36,20.36,0,0,0,120.5,83.1l-2.363-32.24A20.469,20.469,0,0,0,97.727,31.886Z" transform="translate(-42.91 -26.39)"/>
        <g id="Grupo_1044943" data-name="Grupo 1044943" transform="translate(22.935 17.187)">
          <g id="Grupo_1044942" data-name="Grupo 1044942">
            <path id="Trazado_777274" data-name="Trazado 777274" d="M163.738,161.039a12.8,12.8,0,0,1-7.191-2.2,12.9,12.9,0,0,1-4.659-5.658,12.845,12.845,0,0,1,1.186-12.2,12.9,12.9,0,0,1,5.658-4.659,12.763,12.763,0,0,1,4.65-1.006,9.206,9.206,0,0,1,1.537-3.2,7.4,7.4,0,0,1,2.818-2.291,7.9,7.9,0,0,1,2.089-.623,21.046,21.046,0,0,1-2.344-1.075,13.187,13.187,0,0,1-3.54-2.67A7.215,7.215,0,0,1,162,121.3a10.857,10.857,0,0,1,.779-4.883,21.975,21.975,0,0,1,2.3-4.366,32.909,32.909,0,0,1,2.408-3.161c.263-.305.491-.559.672-.756-.241-.111-.534-.256-.839-.433a4.352,4.352,0,0,1-2.008-2.008,2.06,2.06,0,0,1-.14-.864,2.235,2.235,0,0,1,.271-.926,2.668,2.668,0,0,1,1-.969,6.405,6.405,0,0,1,1.606-.666,9.465,9.465,0,0,1,4.3-.136,8.506,8.506,0,0,1,2.436.886,8.084,8.084,0,0,1,2.2,1.784,11.579,11.579,0,0,1,2.526,6.39c.215-.019.5-.039.846-.052a20.539,20.539,0,0,1,3.216.138,17.449,17.449,0,0,1,4.2,1.034,13.389,13.389,0,0,1,4.238,2.606,12.572,12.572,0,0,1,2,2.367,14.35,14.35,0,0,1,1.531,3.152,19.133,19.133,0,0,1,.9,4.029,28.424,28.424,0,0,1,.109,5,42.788,42.788,0,0,1-.936,6.861,26.944,26.944,0,0,1-1.765,5.308,18.906,18.906,0,0,1-2.433,3.959A15.979,15.979,0,0,1,188.5,148.4a18.275,18.275,0,0,1-6.565,2.98,41.472,41.472,0,0,1-6.3.954l-.042,0a.443.443,0,0,1-.035-.885,40.692,40.692,0,0,0,6.162-.931,17.409,17.409,0,0,0,6.254-2.833,15.092,15.092,0,0,0,2.762-2.651,18.019,18.019,0,0,0,2.317-3.774,26.057,26.057,0,0,0,1.706-5.132,41.9,41.9,0,0,0,.915-6.718c.378-6.239-1.053-10.9-4.255-13.845a12.507,12.507,0,0,0-3.96-2.432,16.563,16.563,0,0,0-3.985-.98,18.059,18.059,0,0,0-4.285-.039.443.443,0,0,1-.5-.4,11,11,0,0,0-2.359-6.338,7.2,7.2,0,0,0-1.959-1.59,7.62,7.62,0,0,0-2.183-.793,8.561,8.561,0,0,0-3.887.122,5.515,5.515,0,0,0-1.38.569,1.881,1.881,0,0,0-.683.629,1.207,1.207,0,0,0-.086,1.054,3.592,3.592,0,0,0,1.626,1.56,8.92,8.92,0,0,0,1.307.621.443.443,0,0,1,.164.731,31.249,31.249,0,0,0-3.429,4.271,21.062,21.062,0,0,0-2.207,4.182,9.982,9.982,0,0,0-.724,4.474,5.844,5.844,0,0,0,.566,1.982,7.226,7.226,0,0,0,1.151,1.674,12.311,12.311,0,0,0,3.3,2.485,21.085,21.085,0,0,0,4.677,1.812.443.443,0,0,1-.144.873,8.252,8.252,0,0,0-4.309.59,6.518,6.518,0,0,0-2.482,2,8.229,8.229,0,0,0-1.177,2.177,6.776,6.776,0,0,0-.294,1.029.442.442,0,0,1-.437.369,11.917,11.917,0,0,0-6.695,2.045,12.011,12.011,0,0,0-4.339,5.269,11.959,11.959,0,0,0,1.1,11.356,12.011,12.011,0,0,0,5.269,4.339,11.988,11.988,0,0,0,12.887-2.332.443.443,0,0,1,.609.644,12.871,12.871,0,0,1-4,2.575A12.792,12.792,0,0,1,163.738,161.039Z" transform="translate(-150.877 -101.943)"/>
            <path id="Trazado_777275" data-name="Trazado 777275" d="M151.32,303.488a.443.443,0,0,1-.443-.443,12.8,12.8,0,0,1,2.2-7.191,12.9,12.9,0,0,1,5.658-4.659,12.85,12.85,0,0,1,13.654,2.33,12.937,12.937,0,0,1,2.017,2.329.443.443,0,0,1-.735.5,12.035,12.035,0,0,0-4.222-3.835,11.959,11.959,0,0,0-12.4.6,12.011,12.011,0,0,0-4.339,5.269,11.9,11.9,0,0,0-.941,4.661A.443.443,0,0,1,151.32,303.488Z" transform="translate(-150.877 -256.81)"/>
            <path id="Trazado_777276" data-name="Trazado 777276" d="M186.263,257.865a.443.443,0,0,1-.369-.2c-1.73-2.6-6.309-3.389-6.356-3.4a.412.412,0,0,1-.1-.031,4.226,4.226,0,0,0-.682-.2,9.692,9.692,0,0,0-2.035-.2H176.7a15.719,15.719,0,0,0-3.357.392,24.631,24.631,0,0,0-4.691,1.585,9.841,9.841,0,0,1-4.041.943,6.51,6.51,0,0,1-2.854-.652,5.764,5.764,0,0,1-2.217-1.86l.748-.475h0a3.766,3.766,0,0,0,.469.551,5.312,5.312,0,0,0,1.432,1.01,5.648,5.648,0,0,0,2.46.542h.007a9.008,9.008,0,0,0,3.635-.866,25.448,25.448,0,0,1,4.916-1.653,16.455,16.455,0,0,1,3.582-.4,8.545,8.545,0,0,1,2.942.448,15.8,15.8,0,0,1,2.665.764,11.989,11.989,0,0,1,2.284,1.146,6.767,6.767,0,0,1,1.948,1.86.443.443,0,0,1-.368.689Z" transform="translate(-158.007 -226.183)"/>
            <path id="Trazado_777277" data-name="Trazado 777277" d="M274.587,158.03h0l-.7-.546a7.483,7.483,0,0,1,1.592-1.4,10.153,10.153,0,0,1,1.986-1.046,11.185,11.185,0,0,1,2.809-.7.443.443,0,0,1,.1.881,10.306,10.306,0,0,0-2.561.63,9.281,9.281,0,0,0-1.8.942A6.814,6.814,0,0,0,274.587,158.03Z" transform="translate(-252.081 -145.05)"/>
          </g>
          <path id="Trazado_777278" data-name="Trazado 777278" d="M208,325.84a.443.443,0,0,1-.443-.439,2.343,2.343,0,0,0-.93-1.987,2.549,2.549,0,0,0-.966-.431h0l.137-.876a3.406,3.406,0,0,1,1.313.564,3.2,3.2,0,0,1,1.33,2.721.443.443,0,0,1-.439.447Z" transform="translate(-195.951 -283.075)"/>
        </g>
        <path id="Trazado_777279" data-name="Trazado 777279" d="M67.873,177.955a.443.443,0,0,1-.368-.69L74.9,166.216a29.882,29.882,0,0,0,4.727-12.4l.172-1.234a.443.443,0,0,1,.88.1,33.761,33.761,0,0,0,.143,7.7,29.324,29.324,0,0,0,1.361,5.706,23.828,23.828,0,0,0,1.563,3.55,12.291,12.291,0,0,0,.748,1.222.443.443,0,0,1-.385.7c-.279-.018-.566-.027-.852-.027a17.737,17.737,0,0,0-5.565.98,28.262,28.262,0,0,0-4.844,2.173,32.636,32.636,0,0,0-4.685,3.161A.442.442,0,0,1,67.873,177.955Zm11.816-20.1a30.777,30.777,0,0,1-4.054,8.859l-5.959,8.906c.726-.5,1.662-1.1,2.736-1.7a29.145,29.145,0,0,1,5-2.24,18.617,18.617,0,0,1,5.845-1.026H83.3c-.1-.16-.2-.345-.319-.556a24.639,24.639,0,0,1-1.626-3.675,30.184,30.184,0,0,1-1.412-5.889Q79.764,159.208,79.689,157.851Z" transform="translate(-59.29 -126.103)"/>
        <path id="Línea_185" data-name="Línea 185" transform="translate(57.346 14.673)"/>
      </g>
    </g>
  </g>
</svg>
