<svg xmlns="http://www.w3.org/2000/svg" width="81" height="81" viewBox="0 0 81 81">
  <g id="Grupo_1044293" data-name="Grupo 1044293" transform="translate(-603 -5612)">
    <g id="Grupo_988070" data-name="Grupo 988070" transform="translate(84 3035)">
      <rect id="Rect치ngulo_35796" data-name="Rect치ngulo 35796" width="81" height="81" rx="8" transform="translate(519 2577)" fill="#3449bc"/>
    </g>
    <g id="FILLED_OUTLINE" transform="translate(595 5604)">
      <path id="Trazado_773977" data-name="Trazado 773977" d="M109.236,79.623l23.122-8.043L128.77,55.746a10.7,10.7,0,0,0-7.3-7.9l-6.449-1.984a2.139,2.139,0,0,1-1.51-2.045V42.184a7.206,7.206,0,0,0,3.209-6V31.206A7.206,7.206,0,0,0,109.517,24h-.563a7.206,7.206,0,0,0-7.206,7.206v4.982a7.206,7.206,0,0,0,3.209,6v1.629a2.139,2.139,0,0,1-1.51,2.045l-6.372,1.961a10.7,10.7,0,0,0-7.321,8.02l-3.17,14.92Z" transform="translate(-61.145 -6.93)" fill="#12a08b"/>
      <path id="Trazado_773978" data-name="Trazado 773978" d="M228.085,245.963a10.691,10.691,0,0,0-.837-2.386,47.223,47.223,0,0,1-26.021,23.4l7.324,2.866,23.122-8.043Z" transform="translate(-160.461 -197.148)" fill="#0f8876"/>
      <path id="Trazado_773979" data-name="Trazado 773979" d="M74.886,336.789l-20.9,9.2a4.278,4.278,0,0,1-3.259.077l-12.26-4.715H48.625a2.674,2.674,0,1,0,0-5.348H35.773a6.418,6.418,0,0,0-4.538,1.88l-.519.519a6.418,6.418,0,0,1-4.538,1.88H16v11.766H29.614a2.138,2.138,0,0,1,.573.078l13.059,3.627a15.307,15.307,0,0,0,11.325-1.256L77.521,342.2a3.011,3.011,0,0,0-2.635-5.411Z" transform="translate(0 -277.213)" fill="#f9c38f"/>
      <path id="Trazado_773980" data-name="Trazado 773980" d="M210.729,220.823a3.782,3.782,0,0,0-5.348,0l-1.6,1.6-1.6-1.6a3.782,3.782,0,0,0-5.348,5.348l6.953,6.953,6.953-6.953A3.782,3.782,0,0,0,210.729,220.823Z" transform="translate(-155.686 -176.477)" fill="#a299dd"/>
      <rect id="Rect치ngulo_356136" data-name="Rect치ngulo 356136" width="3.209" height="2.139" rx="1.07" transform="translate(35.254 63.065)" fill="#f4b571"/>
      <path id="Trazado_773981" data-name="Trazado 773981" d="M250.576,232.9a20.082,20.082,0,0,1-9.467,9.655l1.991,1.991,6.953-6.953A3.782,3.782,0,0,0,250.576,232.9Z" transform="translate(-195.009 -187.9)" fill="#8a82bc"/>
      <path id="Trazado_773982" data-name="Trazado 773982" d="M179.63,249.707l-2.906-2.906-1.733,2.6H168v-2.139h5.846l2.545-3.818,3.512,3.512,3.209-2.139,2.446,2.446h5.975V249.4h-6.861l-1.833-1.833Z" transform="translate(-131.676 -197.032)" fill="#775fad"/>
      <path id="Trazado_773983" data-name="Trazado 773983" d="M78.329,58.914a4.067,4.067,0,0,0-3.874-.318l-3.245,1.428L68.668,48.583a11.789,11.789,0,0,0-8.026-8.694l-6.449-1.984a1.064,1.064,0,0,1-.755-1.022V35.8a8.258,8.258,0,0,0,3.209-6.544V24.276A8.285,8.285,0,0,0,48.371,16h-.563a8.285,8.285,0,0,0-8.276,8.276v4.982A8.258,8.258,0,0,0,42.742,35.8v1.081a1.064,1.064,0,0,1-.755,1.022l-6.372,1.961a11.771,11.771,0,0,0-8.054,8.822L24.759,62H16v2.139H26.178a7.439,7.439,0,0,0,5.295-2.193l.519-.519a5.313,5.313,0,0,1,3.782-1.567H48.625a1.6,1.6,0,0,1,0,3.209H35.254V65.2h3.01l12.075,4.644a5.315,5.315,0,0,0,4.074-.1l20.9-9.2a1.942,1.942,0,0,1,1.7,3.489L54.065,76.339a14.176,14.176,0,0,1-10.534,1.168L30.473,73.879a3.211,3.211,0,0,0-.859-.117H16V75.9H29.614a1.071,1.071,0,0,1,.286.039l13.059,3.627a16.311,16.311,0,0,0,12.117-1.343l22.95-12.295a4.081,4.081,0,0,0,.3-7.015ZM45.047,49.769l2.906,2.906,3.209-2.139.763.763L48.09,55.135l-3.972-3.972Zm-2.472-.149-.682-.682A2.712,2.712,0,1,1,45.729,45.1l2.361,2.361L50.451,45.1a2.712,2.712,0,1,1,3.836,3.836l-.848.848-2-2-3.209,2.139-3.512-3.512ZM53.552,67.794a3.188,3.188,0,0,1-2.444.058L44.224,65.2h4.4a3.744,3.744,0,1,0,0-7.488h-.092l5.348-5.348h5.975V50.229h-3.85a4.851,4.851,0,0,0-7.068-6.64l-.848.848-.848-.848a4.851,4.851,0,0,0-7.068,6.64h-3.85v2.139H42.3l5.348,5.348H35.773a7.439,7.439,0,0,0-5.295,2.193l-.519.519a5.308,5.308,0,0,1-3,1.51l2.7-12.811a9.631,9.631,0,0,1,6.589-7.218l6.372-1.961a3.193,3.193,0,0,0,2.265-3.067v-2.2l-.476-.318a6.125,6.125,0,0,1-2.733-5.106V24.276a6.144,6.144,0,0,1,6.137-6.137h.563a6.144,6.144,0,0,1,6.137,6.137v4.982a6.125,6.125,0,0,1-2.733,5.106l-.476.318v2.2a3.193,3.193,0,0,0,2.265,3.067l6.449,1.984a9.645,9.645,0,0,1,6.567,7.113L69.214,60.9Z" transform="translate(0 0)"/>
    </g>
  </g>
</svg>
