<svg xmlns="http://www.w3.org/2000/svg" width="87" height="131" viewBox="0 0 87 131">
  <g id="Grupo_1062947" data-name="Grupo 1062947" transform="translate(-198 -4218)">
    <rect id="Rectángulo_34827" data-name="Rectángulo 34827" width="85" height="131" rx="13" transform="translate(199 4218)" fill="#3449bc"/>
    <g id="bebe_2_" data-name="bebe (2)" transform="translate(197.999 4292.647)">
      <circle id="Elipse_5052" data-name="Elipse 5052" cx="7.8" cy="7.8" r="7.8" transform="translate(32.905 -43.381)" fill="#f5d7b7"/>
      <circle id="Elipse_5053" data-name="Elipse 5053" cx="7.8" cy="7.8" r="7.8" transform="translate(32.905 -43.381)" opacity="0.1"/>
      <circle id="Elipse_5054" data-name="Elipse 5054" cx="7.8" cy="7.8" r="7.8" transform="translate(62.137 -14.149)" fill="#f5d7b7"/>
      <circle id="Elipse_5055" data-name="Elipse 5055" cx="7.8" cy="7.8" r="7.8" transform="translate(62.137 -14.149)" opacity="0.1"/>
      <circle id="Elipse_5056" data-name="Elipse 5056" cx="15.025" cy="15.025" r="15.025" transform="translate(1.164 3.142)" fill="#38648c"/>
      <path id="Trazado_781318" data-name="Trazado 781318" d="M34.274,335.07A15.026,15.026,0,1,0,8.82,322.045a24.417,24.417,0,0,0,5.248,2.609c1.956.757,4.347,1.542,7.052,2.322.779,2.705,1.565,5.1,2.322,7.052a24.4,24.4,0,0,0,2.609,5.248A14.953,14.953,0,0,0,34.274,335.07Z" transform="translate(-7.46 -306.279)" opacity="0.1"/>
      <ellipse id="Elipse_5057" data-name="Elipse 5057" cx="23.029" cy="22.525" rx="23.029" ry="22.525" transform="translate(22.579 -20.08) rotate(-45)" fill="#f5d7b7"/>
      <g id="Grupo_1062945" data-name="Grupo 1062945" transform="translate(39.301 -34.156)">
        <ellipse id="Elipse_5058" data-name="Elipse 5058" cx="3.65" cy="4.583" rx="3.65" ry="4.583" transform="translate(0 5.162) rotate(-45)" fill="#f28b74"/>
        <ellipse id="Elipse_5059" data-name="Elipse 5059" cx="3.65" cy="4.583" rx="3.65" ry="4.583" transform="translate(29.212 24.049) rotate(135)" fill="#f28b74"/>
      </g>
      <path id="Trazado_781319" data-name="Trazado 781319" d="M224.429,14.9a23.326,23.326,0,0,0-9.809,5.876,22.781,22.781,0,0,0-.356,32.211,22.315,22.315,0,0,0,18.819,6.292C218.727,54.51,214.33,30.54,224.429,14.9Z" transform="translate(-175.755 -57.139)" opacity="0.05"/>
      <path id="Trazado_781320" data-name="Trazado 781320" d="M29.581,221.867c9.17.11,29.9,2.293,41.827,8.522a4.149,4.149,0,0,1,1.966,5.14c-1.871,4.986-6.81,12.353-11.33,16.785a11.393,11.393,0,0,1-8.618,3.227c-12.61-.717-40.434-7.122-42.461-11.272-2.059-4.216,4.409-15.065,12.141-20.439A11.1,11.1,0,0,1,29.581,221.867Z" transform="translate(-8.947 -232.216)" fill="#76b7eb"/>
      <path id="Trazado_781321" data-name="Trazado 781321" d="M29.581,221.867c9.17.11,29.9,2.293,41.827,8.522a4.149,4.149,0,0,1,1.966,5.14c-1.871,4.986-6.81,12.353-11.33,16.785a11.393,11.393,0,0,1-8.618,3.227c-12.61-.717-40.434-7.122-42.461-11.272-2.059-4.216,4.409-15.065,12.141-20.439A11.1,11.1,0,0,1,29.581,221.867Z" transform="translate(-8.947 -232.216)" opacity="0.1"/>
      <path id="Trazado_781322" data-name="Trazado 781322" d="M61.284,223.831a32.585,32.585,0,0,0-5.573,5.008,183.572,183.572,0,0,0,3.768,19.216c.112.445.224.883.337,1.316,9.706,2.973,23.631,5.681,31.628,6.161q.514-.661.986-1.337a14.144,14.144,0,0,0,2.52-8.294,143.967,143.967,0,0,0-2.126-21.069,138.758,138.758,0,0,0-25.065-2.964A11.1,11.1,0,0,0,61.284,223.831Z" transform="translate(-47.126 -232.217)" opacity="0.1"/>
      <path id="Trazado_781323" data-name="Trazado 781323" d="M105.156,136.206c-.11-9.17-2.293-29.9-8.522-41.827a4.148,4.148,0,0,0-5.14-1.966c-4.986,1.871-12.353,6.81-16.785,11.33a11.393,11.393,0,0,0-3.227,8.618c.717,12.61,7.122,40.434,11.273,42.461,4.216,2.059,15.065-4.409,20.439-12.141A11.1,11.1,0,0,0,105.156,136.206Z" transform="translate(-60.451 -122.484)" fill="#76b7eb"/>
      <g id="Grupo_1062946" data-name="Grupo 1062946" transform="translate(16.735 -20.069)" opacity="0.1">
        <path id="Trazado_781324" data-name="Trazado 781324" d="M110.28,287.708a1.156,1.156,0,0,1-1.132-.929c-.1-.478-.543-3.4-.543-3.971a1.155,1.155,0,0,1,2.311-.007c.013.373.386,2.963.5,3.524a1.157,1.157,0,0,1-1.134,1.382Zm.637-4.9h0Z" transform="translate(-108.606 -262.722)"/>
        <path id="Trazado_781325" data-name="Trazado 781325" d="M192.353,163.394a1.157,1.157,0,0,1-1.1-1.525c.083-.248.306-.718.808-1.747.138-.283.268-.549.316-.654a1.156,1.156,0,0,1,2.105.954c-.061.135-.186.391-.344.715-.219.448-.627,1.283-.7,1.47A1.151,1.151,0,0,1,192.353,163.394Z" transform="translate(-178.47 -158.79)"/>
        <path id="Trazado_781326" data-name="Trazado 781326" d="M211.544,309.734a1.15,1.15,0,0,1-.579-.156c-.548-.318-2.079-1.194-2.574-1.419a1.156,1.156,0,0,1,.958-2.1c.688.313,2.565,1.4,2.777,1.524a1.156,1.156,0,0,1-.581,2.155Z" transform="translate(-192.443 -283.276)"/>
        <path id="Trazado_781327" data-name="Trazado 781327" d="M174.748,413.064a1.155,1.155,0,0,1-1.155-1.155c0-.617-.161-2.945-.239-4.064-.025-.361-.044-.634-.051-.753a1.156,1.156,0,0,1,2.307-.138c.007.115.025.38.049.731.118,1.707.244,3.581.244,4.224A1.155,1.155,0,0,1,174.748,413.064Z" transform="translate(-163.332 -367.797)"/>
        <path id="Trazado_781328" data-name="Trazado 781328" d="M320.127,302.326a1.156,1.156,0,0,1-.384-2.246,18.49,18.49,0,0,0,2.1-1.153,6.11,6.11,0,0,1,1.631-.841,1.156,1.156,0,0,1,.571,2.236c-.168.08-.655.372-1.014.588a17.608,17.608,0,0,1-2.52,1.35A1.16,1.16,0,0,1,320.127,302.326Zm3.8-1.974h0Z" transform="translate(-286.557 -276.603)"/>
      </g>
      <path id="Trazado_781329" data-name="Trazado 781329" d="M63.61,25.733a3.315,3.315,0,0,0-2.36.978,1.155,1.155,0,1,0,1.634,1.634A1.026,1.026,0,1,1,64.336,29.8,1.155,1.155,0,0,0,65.97,31.43a3.337,3.337,0,0,0-2.36-5.7ZM52.181,12.921a3.342,3.342,0,0,0-4.719,0A1.156,1.156,0,0,0,49.1,14.556a1.026,1.026,0,1,1,1.451,1.451,1.156,1.156,0,0,0,1.634,1.634A3.341,3.341,0,0,0,52.181,12.921Zm24.792,19.73a24.194,24.194,0,0,0,1.751-8.791A23.284,23.284,0,0,0,72.693,7.839,10.22,10.22,0,0,1,76.86,5.449a1.155,1.155,0,0,0-.645-2.219A12.536,12.536,0,0,0,71.059,6.2,23.306,23.306,0,0,0,55.031.167a24.2,24.2,0,0,0-8.79,1.751A8.9,8.9,0,0,0,40.7,0H40.57a8.957,8.957,0,0,0-7.831,13.05,5.28,5.28,0,0,0-2.1.332c-5.171,1.941-12.728,7.037-17.2,11.6a12.563,12.563,0,0,0-3.555,9.493c.059,1.034.157,2.183.29,3.42a37.69,37.69,0,0,0-7.576,9.8c-1.2,2.292-3,6.559-1.613,9.395L1,57.13A16.174,16.174,0,0,0,21.761,77.9l.035.018a5.451,5.451,0,0,0,2.406.494c2.282,0,5.231-1.007,8.477-2.938a38.413,38.413,0,0,0,8.309-6.743c1.242.133,2.392.231,3.425.29q.357.02.712.02a12.56,12.56,0,0,0,8.78-3.575,57.547,57.547,0,0,0,7.864-9.985,1.155,1.155,0,1,0-1.955-1.232,55.161,55.161,0,0,1-7.526,9.566,10.242,10.242,0,0,1-7.743,2.9c-.543-.031-1.121-.073-1.729-.126q.461-.593.876-1.188a12.191,12.191,0,0,0,2.169-7.149,138.254,138.254,0,0,0-1.983-20.059c-.013-.079-.028-.16-.042-.239,7.445,1.492,13.675,3.482,18.091,5.787a3,3,0,0,1,1.419,3.71c-.257.683-.581,1.431-.963,2.223a1.156,1.156,0,1,0,2.081,1.006c.413-.855.765-1.668,1.047-2.417a5.281,5.281,0,0,0,.332-2.1,8.956,8.956,0,0,0,11.132-13.5ZM36.007,4.256a6.608,6.608,0,0,1,7.784-1.188,24.877,24.877,0,0,0-9.169,8.569A6.62,6.62,0,0,1,36.007,4.256ZM6.382,72.509A13.837,13.837,0,0,1,2.837,58.94c1.761,1.133,5.261,2.709,12.414,4.7.85,3.047,1.711,5.722,2.536,7.863a25.124,25.124,0,0,0,2.173,4.548A13.837,13.837,0,0,1,6.382,72.509Zm35.412-8.435a34.671,34.671,0,0,1-10.3,9.408c-3.756,2.234-7.085,3.136-8.687,2.354a.832.832,0,0,1-.114-.069,1.144,1.144,0,0,0-.136-.111c-.948-.868-2.839-4.41-5.243-13.2-.008-.035-.017-.07-.028-.1q-.409-1.5-.838-3.211a1.156,1.156,0,0,0-2.242.561c.114.454.228.9.343,1.342C5.78,58.5,3.676,56.826,3.189,56.268l-.023-.027a.837.837,0,0,1-.11-.16c-1.231-2.52,1.814-9.55,7.463-15.3.552,4.08,1.4,8.822,2.448,13.614a1.156,1.156,0,0,0,2.258-.494,138.252,138.252,0,0,1-3.04-19.549,10.247,10.247,0,0,1,2.9-7.743c4.275-4.361,11.464-9.218,16.366-11.058a3,3,0,0,1,3.71,1.419c1.823,3.493,4.3,10.57,6.09,19.6a1.146,1.146,0,0,0,.06.306,119.927,119.927,0,0,1,2.241,21.4A9.894,9.894,0,0,1,41.794,64.074ZM64.7,43.09A5.282,5.282,0,0,0,63,41.684C58.14,39.149,51.547,37.071,43.389,35.5c-1.184-6.135-3.133-13.767-6.181-19.606A5.286,5.286,0,0,0,35.8,14.2a22.311,22.311,0,0,1,3.88-5.207C48.211.46,61.927.3,70.259,8.633a20.986,20.986,0,0,1,6.155,15.2,21.881,21.881,0,0,1-1.8,8.461,1.14,1.14,0,0,0-.086.2A22.49,22.49,0,0,1,64.7,43.09Zm9.94-.205a6.62,6.62,0,0,1-7.381,1.385A24.879,24.879,0,0,0,75.824,35.1,6.609,6.609,0,0,1,74.635,42.884ZM56.47,24.462a1.911,1.911,0,0,1-2.041-2.041,1.155,1.155,0,1,0-2.306-.158,4.222,4.222,0,0,0,4.214,4.514q.145,0,.291-.01a1.155,1.155,0,1,0-.158-2.305Z" transform="translate(0 -44.535)"/>
    </g>
  </g>
</svg>
