<svg xmlns="http://www.w3.org/2000/svg" width="200.281" height="103" viewBox="0 0 200.281 103">
  <g id="Grupo_1062940" data-name="Grupo 1062940" transform="translate(-647 -3852)">
    <g id="Grupo_1062927" data-name="Grupo 1062927" transform="translate(323)">
      <rect id="Rectángulo_356679" data-name="Rectángulo 356679" width="179" height="103" rx="7" transform="translate(324 3852)" fill="#e0e4f5"/>
      <g id="Grupo_1062925" data-name="Grupo 1062925" transform="translate(-334 -117.715)">
        <g id="Grupo_1062924" data-name="Grupo 1062924" transform="translate(797.968 3979.582)">
          <g id="Grupo_985886" data-name="Grupo 985886" transform="translate(33.306 33.306)">
            <path id="Trazado_113856" data-name="Trazado 113856" d="M2.134-2a1.062,1.062,0,0,1,.8.295,1.023,1.023,0,0,1,.283.739.988.988,0,0,1-.283.723,1.078,1.078,0,0,1-.8.287A1.082,1.082,0,0,1,1.345-.24a.97.97,0,0,1-.291-.727,1.023,1.023,0,0,1,.283-.739A1.052,1.052,0,0,1,2.134-2Zm8.281,0a1.062,1.062,0,0,1,.8.295,1.023,1.023,0,0,1,.283.739.988.988,0,0,1-.283.723,1.078,1.078,0,0,1-.8.287A1.082,1.082,0,0,1,9.626-.24a.97.97,0,0,1-.291-.727,1.023,1.023,0,0,1,.283-.739A1.052,1.052,0,0,1,10.414-2Zm8.281,0a1.062,1.062,0,0,1,.8.295,1.023,1.023,0,0,1,.283.739.987.987,0,0,1-.283.723,1.078,1.078,0,0,1-.8.287,1.082,1.082,0,0,1-.788-.283.97.97,0,0,1-.291-.727,1.023,1.023,0,0,1,.283-.739A1.052,1.052,0,0,1,18.695-2Zm8.281,0a1.062,1.062,0,0,1,.8.295,1.023,1.023,0,0,1,.283.739.987.987,0,0,1-.283.723,1.078,1.078,0,0,1-.8.287,1.082,1.082,0,0,1-.788-.283A.97.97,0,0,1,25.9-.967a1.023,1.023,0,0,1,.283-.739A1.052,1.052,0,0,1,26.975-2Z" transform="translate(-1.055 2)" fill="#452d9e"/>
            <path id="Trazado_113857" data-name="Trazado 113857" d="M2.134-2a1.062,1.062,0,0,1,.8.295,1.023,1.023,0,0,1,.283.739.988.988,0,0,1-.283.723,1.078,1.078,0,0,1-.8.287A1.082,1.082,0,0,1,1.345-.24a.97.97,0,0,1-.291-.727,1.023,1.023,0,0,1,.283-.739A1.052,1.052,0,0,1,2.134-2Zm8.281,0a1.062,1.062,0,0,1,.8.295,1.023,1.023,0,0,1,.283.739.988.988,0,0,1-.283.723,1.078,1.078,0,0,1-.8.287A1.082,1.082,0,0,1,9.626-.24a.97.97,0,0,1-.291-.727,1.023,1.023,0,0,1,.283-.739A1.052,1.052,0,0,1,10.414-2Zm8.281,0a1.062,1.062,0,0,1,.8.295,1.023,1.023,0,0,1,.283.739.987.987,0,0,1-.283.723,1.078,1.078,0,0,1-.8.287,1.082,1.082,0,0,1-.788-.283.97.97,0,0,1-.291-.727,1.023,1.023,0,0,1,.283-.739A1.052,1.052,0,0,1,18.695-2Zm8.281,0a1.062,1.062,0,0,1,.8.295,1.023,1.023,0,0,1,.283.739.987.987,0,0,1-.283.723,1.078,1.078,0,0,1-.8.287,1.082,1.082,0,0,1-.788-.283A.97.97,0,0,1,25.9-.967a1.023,1.023,0,0,1,.283-.739A1.052,1.052,0,0,1,26.975-2Z" transform="translate(-1.055 9.837)" fill="#452d9e"/>
            <path id="Trazado_113858" data-name="Trazado 113858" d="M2.134-2a1.062,1.062,0,0,1,.8.295,1.023,1.023,0,0,1,.283.739.988.988,0,0,1-.283.723,1.078,1.078,0,0,1-.8.287A1.082,1.082,0,0,1,1.345-.24a.97.97,0,0,1-.291-.727,1.023,1.023,0,0,1,.283-.739A1.052,1.052,0,0,1,2.134-2Zm8.281,0a1.062,1.062,0,0,1,.8.295,1.023,1.023,0,0,1,.283.739.988.988,0,0,1-.283.723,1.078,1.078,0,0,1-.8.287A1.082,1.082,0,0,1,9.626-.24a.97.97,0,0,1-.291-.727,1.023,1.023,0,0,1,.283-.739A1.052,1.052,0,0,1,10.414-2Zm8.281,0a1.062,1.062,0,0,1,.8.295,1.023,1.023,0,0,1,.283.739.987.987,0,0,1-.283.723,1.078,1.078,0,0,1-.8.287,1.082,1.082,0,0,1-.788-.283.97.97,0,0,1-.291-.727,1.023,1.023,0,0,1,.283-.739A1.052,1.052,0,0,1,18.695-2Zm8.281,0a1.062,1.062,0,0,1,.8.295,1.023,1.023,0,0,1,.283.739.987.987,0,0,1-.283.723,1.078,1.078,0,0,1-.8.287,1.082,1.082,0,0,1-.788-.283A.97.97,0,0,1,25.9-.967a1.023,1.023,0,0,1,.283-.739A1.052,1.052,0,0,1,26.975-2Z" transform="translate(-1.055 18.653)" fill="#452d9e"/>
            <path id="Trazado_113855" data-name="Trazado 113855" d="M2.134-2a1.062,1.062,0,0,1,.8.295,1.023,1.023,0,0,1,.283.739.988.988,0,0,1-.283.723,1.078,1.078,0,0,1-.8.287A1.082,1.082,0,0,1,1.345-.24a.97.97,0,0,1-.291-.727,1.023,1.023,0,0,1,.283-.739A1.052,1.052,0,0,1,2.134-2Zm8.281,0a1.062,1.062,0,0,1,.8.295,1.023,1.023,0,0,1,.283.739.988.988,0,0,1-.283.723,1.078,1.078,0,0,1-.8.287A1.082,1.082,0,0,1,9.626-.24a.97.97,0,0,1-.291-.727,1.023,1.023,0,0,1,.283-.739A1.052,1.052,0,0,1,10.414-2Zm8.281,0a1.062,1.062,0,0,1,.8.295,1.023,1.023,0,0,1,.283.739.987.987,0,0,1-.283.723,1.078,1.078,0,0,1-.8.287,1.082,1.082,0,0,1-.788-.283.97.97,0,0,1-.291-.727,1.023,1.023,0,0,1,.283-.739A1.052,1.052,0,0,1,18.695-2Zm8.281,0a1.062,1.062,0,0,1,.8.295,1.023,1.023,0,0,1,.283.739.987.987,0,0,1-.283.723,1.078,1.078,0,0,1-.8.287,1.082,1.082,0,0,1-.788-.283A.97.97,0,0,1,25.9-.967a1.023,1.023,0,0,1,.283-.739A1.052,1.052,0,0,1,26.975-2Z" transform="translate(-1.055 26.489)" fill="#452d9e"/>
          </g>
          <g id="Grupo_985887" data-name="Grupo 985887" transform="translate(0 33.306)">
            <path id="Trazado_113856-2" data-name="Trazado 113856" d="M2.134-2a1.062,1.062,0,0,1,.8.295,1.023,1.023,0,0,1,.283.739.988.988,0,0,1-.283.723,1.078,1.078,0,0,1-.8.287A1.082,1.082,0,0,1,1.345-.24a.97.97,0,0,1-.291-.727,1.023,1.023,0,0,1,.283-.739A1.052,1.052,0,0,1,2.134-2Zm8.281,0a1.062,1.062,0,0,1,.8.295,1.023,1.023,0,0,1,.283.739.988.988,0,0,1-.283.723,1.078,1.078,0,0,1-.8.287A1.082,1.082,0,0,1,9.626-.24a.97.97,0,0,1-.291-.727,1.023,1.023,0,0,1,.283-.739A1.052,1.052,0,0,1,10.414-2Zm8.281,0a1.062,1.062,0,0,1,.8.295,1.023,1.023,0,0,1,.283.739.987.987,0,0,1-.283.723,1.078,1.078,0,0,1-.8.287,1.082,1.082,0,0,1-.788-.283.97.97,0,0,1-.291-.727,1.023,1.023,0,0,1,.283-.739A1.052,1.052,0,0,1,18.695-2Zm8.281,0a1.062,1.062,0,0,1,.8.295,1.023,1.023,0,0,1,.283.739.987.987,0,0,1-.283.723,1.078,1.078,0,0,1-.8.287,1.082,1.082,0,0,1-.788-.283A.97.97,0,0,1,25.9-.967a1.023,1.023,0,0,1,.283-.739A1.052,1.052,0,0,1,26.975-2Z" transform="translate(-1.055 2)" fill="#452d9e"/>
            <path id="Trazado_113857-2" data-name="Trazado 113857" d="M2.134-2a1.062,1.062,0,0,1,.8.295,1.023,1.023,0,0,1,.283.739.988.988,0,0,1-.283.723,1.078,1.078,0,0,1-.8.287A1.082,1.082,0,0,1,1.345-.24a.97.97,0,0,1-.291-.727,1.023,1.023,0,0,1,.283-.739A1.052,1.052,0,0,1,2.134-2Zm8.281,0a1.062,1.062,0,0,1,.8.295,1.023,1.023,0,0,1,.283.739.988.988,0,0,1-.283.723,1.078,1.078,0,0,1-.8.287A1.082,1.082,0,0,1,9.626-.24a.97.97,0,0,1-.291-.727,1.023,1.023,0,0,1,.283-.739A1.052,1.052,0,0,1,10.414-2Zm8.281,0a1.062,1.062,0,0,1,.8.295,1.023,1.023,0,0,1,.283.739.987.987,0,0,1-.283.723,1.078,1.078,0,0,1-.8.287,1.082,1.082,0,0,1-.788-.283.97.97,0,0,1-.291-.727,1.023,1.023,0,0,1,.283-.739A1.052,1.052,0,0,1,18.695-2Zm8.281,0a1.062,1.062,0,0,1,.8.295,1.023,1.023,0,0,1,.283.739.987.987,0,0,1-.283.723,1.078,1.078,0,0,1-.8.287,1.082,1.082,0,0,1-.788-.283A.97.97,0,0,1,25.9-.967a1.023,1.023,0,0,1,.283-.739A1.052,1.052,0,0,1,26.975-2Z" transform="translate(-1.055 9.837)" fill="#452d9e"/>
            <path id="Trazado_113858-2" data-name="Trazado 113858" d="M2.134-2a1.062,1.062,0,0,1,.8.295,1.023,1.023,0,0,1,.283.739.988.988,0,0,1-.283.723,1.078,1.078,0,0,1-.8.287A1.082,1.082,0,0,1,1.345-.24a.97.97,0,0,1-.291-.727,1.023,1.023,0,0,1,.283-.739A1.052,1.052,0,0,1,2.134-2Zm8.281,0a1.062,1.062,0,0,1,.8.295,1.023,1.023,0,0,1,.283.739.988.988,0,0,1-.283.723,1.078,1.078,0,0,1-.8.287A1.082,1.082,0,0,1,9.626-.24a.97.97,0,0,1-.291-.727,1.023,1.023,0,0,1,.283-.739A1.052,1.052,0,0,1,10.414-2Zm8.281,0a1.062,1.062,0,0,1,.8.295,1.023,1.023,0,0,1,.283.739.987.987,0,0,1-.283.723,1.078,1.078,0,0,1-.8.287,1.082,1.082,0,0,1-.788-.283.97.97,0,0,1-.291-.727,1.023,1.023,0,0,1,.283-.739A1.052,1.052,0,0,1,18.695-2Zm8.281,0a1.062,1.062,0,0,1,.8.295,1.023,1.023,0,0,1,.283.739.987.987,0,0,1-.283.723,1.078,1.078,0,0,1-.8.287,1.082,1.082,0,0,1-.788-.283A.97.97,0,0,1,25.9-.967a1.023,1.023,0,0,1,.283-.739A1.052,1.052,0,0,1,26.975-2Z" transform="translate(-1.055 18.653)" fill="#452d9e"/>
            <path id="Trazado_113855-2" data-name="Trazado 113855" d="M2.134-2a1.062,1.062,0,0,1,.8.295,1.023,1.023,0,0,1,.283.739.988.988,0,0,1-.283.723,1.078,1.078,0,0,1-.8.287A1.082,1.082,0,0,1,1.345-.24a.97.97,0,0,1-.291-.727,1.023,1.023,0,0,1,.283-.739A1.052,1.052,0,0,1,2.134-2Zm8.281,0a1.062,1.062,0,0,1,.8.295,1.023,1.023,0,0,1,.283.739.988.988,0,0,1-.283.723,1.078,1.078,0,0,1-.8.287A1.082,1.082,0,0,1,9.626-.24a.97.97,0,0,1-.291-.727,1.023,1.023,0,0,1,.283-.739A1.052,1.052,0,0,1,10.414-2Zm8.281,0a1.062,1.062,0,0,1,.8.295,1.023,1.023,0,0,1,.283.739.987.987,0,0,1-.283.723,1.078,1.078,0,0,1-.8.287,1.082,1.082,0,0,1-.788-.283.97.97,0,0,1-.291-.727,1.023,1.023,0,0,1,.283-.739A1.052,1.052,0,0,1,18.695-2Zm8.281,0a1.062,1.062,0,0,1,.8.295,1.023,1.023,0,0,1,.283.739.987.987,0,0,1-.283.723,1.078,1.078,0,0,1-.8.287,1.082,1.082,0,0,1-.788-.283A.97.97,0,0,1,25.9-.967a1.023,1.023,0,0,1,.283-.739A1.052,1.052,0,0,1,26.975-2Z" transform="translate(-1.055 26.489)" fill="#452d9e"/>
          </g>
          <g id="Grupo_985888" data-name="Grupo 985888" transform="translate(0)">
            <path id="Trazado_113856-3" data-name="Trazado 113856" d="M2.134-2a1.062,1.062,0,0,1,.8.295,1.023,1.023,0,0,1,.283.739.988.988,0,0,1-.283.723,1.078,1.078,0,0,1-.8.287A1.082,1.082,0,0,1,1.345-.24a.97.97,0,0,1-.291-.727,1.023,1.023,0,0,1,.283-.739A1.052,1.052,0,0,1,2.134-2Zm8.281,0a1.062,1.062,0,0,1,.8.295,1.023,1.023,0,0,1,.283.739.988.988,0,0,1-.283.723,1.078,1.078,0,0,1-.8.287A1.082,1.082,0,0,1,9.626-.24a.97.97,0,0,1-.291-.727,1.023,1.023,0,0,1,.283-.739A1.052,1.052,0,0,1,10.414-2Zm8.281,0a1.062,1.062,0,0,1,.8.295,1.023,1.023,0,0,1,.283.739.987.987,0,0,1-.283.723,1.078,1.078,0,0,1-.8.287,1.082,1.082,0,0,1-.788-.283.97.97,0,0,1-.291-.727,1.023,1.023,0,0,1,.283-.739A1.052,1.052,0,0,1,18.695-2Zm8.281,0a1.062,1.062,0,0,1,.8.295,1.023,1.023,0,0,1,.283.739.987.987,0,0,1-.283.723,1.078,1.078,0,0,1-.8.287,1.082,1.082,0,0,1-.788-.283A.97.97,0,0,1,25.9-.967a1.023,1.023,0,0,1,.283-.739A1.052,1.052,0,0,1,26.975-2Z" transform="translate(-1.055 2)" fill="#452d9e"/>
            <path id="Trazado_113857-3" data-name="Trazado 113857" d="M2.134-2a1.062,1.062,0,0,1,.8.295,1.023,1.023,0,0,1,.283.739.988.988,0,0,1-.283.723,1.078,1.078,0,0,1-.8.287A1.082,1.082,0,0,1,1.345-.24a.97.97,0,0,1-.291-.727,1.023,1.023,0,0,1,.283-.739A1.052,1.052,0,0,1,2.134-2Zm8.281,0a1.062,1.062,0,0,1,.8.295,1.023,1.023,0,0,1,.283.739.988.988,0,0,1-.283.723,1.078,1.078,0,0,1-.8.287A1.082,1.082,0,0,1,9.626-.24a.97.97,0,0,1-.291-.727,1.023,1.023,0,0,1,.283-.739A1.052,1.052,0,0,1,10.414-2Zm8.281,0a1.062,1.062,0,0,1,.8.295,1.023,1.023,0,0,1,.283.739.987.987,0,0,1-.283.723,1.078,1.078,0,0,1-.8.287,1.082,1.082,0,0,1-.788-.283.97.97,0,0,1-.291-.727,1.023,1.023,0,0,1,.283-.739A1.052,1.052,0,0,1,18.695-2Zm8.281,0a1.062,1.062,0,0,1,.8.295,1.023,1.023,0,0,1,.283.739.987.987,0,0,1-.283.723,1.078,1.078,0,0,1-.8.287,1.082,1.082,0,0,1-.788-.283A.97.97,0,0,1,25.9-.967a1.023,1.023,0,0,1,.283-.739A1.052,1.052,0,0,1,26.975-2Z" transform="translate(-1.055 9.837)" fill="#452d9e"/>
            <path id="Trazado_113858-3" data-name="Trazado 113858" d="M2.134-2a1.062,1.062,0,0,1,.8.295,1.023,1.023,0,0,1,.283.739.988.988,0,0,1-.283.723,1.078,1.078,0,0,1-.8.287A1.082,1.082,0,0,1,1.345-.24a.97.97,0,0,1-.291-.727,1.023,1.023,0,0,1,.283-.739A1.052,1.052,0,0,1,2.134-2Zm8.281,0a1.062,1.062,0,0,1,.8.295,1.023,1.023,0,0,1,.283.739.988.988,0,0,1-.283.723,1.078,1.078,0,0,1-.8.287A1.082,1.082,0,0,1,9.626-.24a.97.97,0,0,1-.291-.727,1.023,1.023,0,0,1,.283-.739A1.052,1.052,0,0,1,10.414-2Zm8.281,0a1.062,1.062,0,0,1,.8.295,1.023,1.023,0,0,1,.283.739.987.987,0,0,1-.283.723,1.078,1.078,0,0,1-.8.287,1.082,1.082,0,0,1-.788-.283.97.97,0,0,1-.291-.727,1.023,1.023,0,0,1,.283-.739A1.052,1.052,0,0,1,18.695-2Zm8.281,0a1.062,1.062,0,0,1,.8.295,1.023,1.023,0,0,1,.283.739.987.987,0,0,1-.283.723,1.078,1.078,0,0,1-.8.287,1.082,1.082,0,0,1-.788-.283A.97.97,0,0,1,25.9-.967a1.023,1.023,0,0,1,.283-.739A1.052,1.052,0,0,1,26.975-2Z" transform="translate(-1.055 18.653)" fill="#452d9e"/>
            <path id="Trazado_113855-3" data-name="Trazado 113855" d="M2.134-2a1.062,1.062,0,0,1,.8.295,1.023,1.023,0,0,1,.283.739.988.988,0,0,1-.283.723,1.078,1.078,0,0,1-.8.287A1.082,1.082,0,0,1,1.345-.24a.97.97,0,0,1-.291-.727,1.023,1.023,0,0,1,.283-.739A1.052,1.052,0,0,1,2.134-2Zm8.281,0a1.062,1.062,0,0,1,.8.295,1.023,1.023,0,0,1,.283.739.988.988,0,0,1-.283.723,1.078,1.078,0,0,1-.8.287A1.082,1.082,0,0,1,9.626-.24a.97.97,0,0,1-.291-.727,1.023,1.023,0,0,1,.283-.739A1.052,1.052,0,0,1,10.414-2Zm8.281,0a1.062,1.062,0,0,1,.8.295,1.023,1.023,0,0,1,.283.739.987.987,0,0,1-.283.723,1.078,1.078,0,0,1-.8.287,1.082,1.082,0,0,1-.788-.283.97.97,0,0,1-.291-.727,1.023,1.023,0,0,1,.283-.739A1.052,1.052,0,0,1,18.695-2Zm8.281,0a1.062,1.062,0,0,1,.8.295,1.023,1.023,0,0,1,.283.739.987.987,0,0,1-.283.723,1.078,1.078,0,0,1-.8.287,1.082,1.082,0,0,1-.788-.283A.97.97,0,0,1,25.9-.967a1.023,1.023,0,0,1,.283-.739A1.052,1.052,0,0,1,26.975-2Z" transform="translate(-1.055 26.489)" fill="#452d9e"/>
          </g>
          <g id="Grupo_985889" data-name="Grupo 985889" transform="translate(33.306)">
            <path id="Trazado_113856-4" data-name="Trazado 113856" d="M2.134-2a1.062,1.062,0,0,1,.8.295,1.023,1.023,0,0,1,.283.739.988.988,0,0,1-.283.723,1.078,1.078,0,0,1-.8.287A1.082,1.082,0,0,1,1.345-.24a.97.97,0,0,1-.291-.727,1.023,1.023,0,0,1,.283-.739A1.052,1.052,0,0,1,2.134-2Zm8.281,0a1.062,1.062,0,0,1,.8.295,1.023,1.023,0,0,1,.283.739.988.988,0,0,1-.283.723,1.078,1.078,0,0,1-.8.287A1.082,1.082,0,0,1,9.626-.24a.97.97,0,0,1-.291-.727,1.023,1.023,0,0,1,.283-.739A1.052,1.052,0,0,1,10.414-2Zm8.281,0a1.062,1.062,0,0,1,.8.295,1.023,1.023,0,0,1,.283.739.987.987,0,0,1-.283.723,1.078,1.078,0,0,1-.8.287,1.082,1.082,0,0,1-.788-.283.97.97,0,0,1-.291-.727,1.023,1.023,0,0,1,.283-.739A1.052,1.052,0,0,1,18.695-2Zm8.281,0a1.062,1.062,0,0,1,.8.295,1.023,1.023,0,0,1,.283.739.987.987,0,0,1-.283.723,1.078,1.078,0,0,1-.8.287,1.082,1.082,0,0,1-.788-.283A.97.97,0,0,1,25.9-.967a1.023,1.023,0,0,1,.283-.739A1.052,1.052,0,0,1,26.975-2Z" transform="translate(-1.055 2)" fill="#452d9e"/>
            <path id="Trazado_113857-4" data-name="Trazado 113857" d="M2.134-2a1.062,1.062,0,0,1,.8.295,1.023,1.023,0,0,1,.283.739.988.988,0,0,1-.283.723,1.078,1.078,0,0,1-.8.287A1.082,1.082,0,0,1,1.345-.24a.97.97,0,0,1-.291-.727,1.023,1.023,0,0,1,.283-.739A1.052,1.052,0,0,1,2.134-2Zm8.281,0a1.062,1.062,0,0,1,.8.295,1.023,1.023,0,0,1,.283.739.988.988,0,0,1-.283.723,1.078,1.078,0,0,1-.8.287A1.082,1.082,0,0,1,9.626-.24a.97.97,0,0,1-.291-.727,1.023,1.023,0,0,1,.283-.739A1.052,1.052,0,0,1,10.414-2Zm8.281,0a1.062,1.062,0,0,1,.8.295,1.023,1.023,0,0,1,.283.739.987.987,0,0,1-.283.723,1.078,1.078,0,0,1-.8.287,1.082,1.082,0,0,1-.788-.283.97.97,0,0,1-.291-.727,1.023,1.023,0,0,1,.283-.739A1.052,1.052,0,0,1,18.695-2Zm8.281,0a1.062,1.062,0,0,1,.8.295,1.023,1.023,0,0,1,.283.739.987.987,0,0,1-.283.723,1.078,1.078,0,0,1-.8.287,1.082,1.082,0,0,1-.788-.283A.97.97,0,0,1,25.9-.967a1.023,1.023,0,0,1,.283-.739A1.052,1.052,0,0,1,26.975-2Z" transform="translate(-1.055 9.837)" fill="#452d9e"/>
            <path id="Trazado_113858-4" data-name="Trazado 113858" d="M2.134-2a1.062,1.062,0,0,1,.8.295,1.023,1.023,0,0,1,.283.739.988.988,0,0,1-.283.723,1.078,1.078,0,0,1-.8.287A1.082,1.082,0,0,1,1.345-.24a.97.97,0,0,1-.291-.727,1.023,1.023,0,0,1,.283-.739A1.052,1.052,0,0,1,2.134-2Zm8.281,0a1.062,1.062,0,0,1,.8.295,1.023,1.023,0,0,1,.283.739.988.988,0,0,1-.283.723,1.078,1.078,0,0,1-.8.287A1.082,1.082,0,0,1,9.626-.24a.97.97,0,0,1-.291-.727,1.023,1.023,0,0,1,.283-.739A1.052,1.052,0,0,1,10.414-2Zm8.281,0a1.062,1.062,0,0,1,.8.295,1.023,1.023,0,0,1,.283.739.987.987,0,0,1-.283.723,1.078,1.078,0,0,1-.8.287,1.082,1.082,0,0,1-.788-.283.97.97,0,0,1-.291-.727,1.023,1.023,0,0,1,.283-.739A1.052,1.052,0,0,1,18.695-2Zm8.281,0a1.062,1.062,0,0,1,.8.295,1.023,1.023,0,0,1,.283.739.987.987,0,0,1-.283.723,1.078,1.078,0,0,1-.8.287,1.082,1.082,0,0,1-.788-.283A.97.97,0,0,1,25.9-.967a1.023,1.023,0,0,1,.283-.739A1.052,1.052,0,0,1,26.975-2Z" transform="translate(-1.055 18.653)" fill="#452d9e"/>
            <path id="Trazado_113855-4" data-name="Trazado 113855" d="M2.134-2a1.062,1.062,0,0,1,.8.295,1.023,1.023,0,0,1,.283.739.988.988,0,0,1-.283.723,1.078,1.078,0,0,1-.8.287A1.082,1.082,0,0,1,1.345-.24a.97.97,0,0,1-.291-.727,1.023,1.023,0,0,1,.283-.739A1.052,1.052,0,0,1,2.134-2Zm8.281,0a1.062,1.062,0,0,1,.8.295,1.023,1.023,0,0,1,.283.739.988.988,0,0,1-.283.723,1.078,1.078,0,0,1-.8.287A1.082,1.082,0,0,1,9.626-.24a.97.97,0,0,1-.291-.727,1.023,1.023,0,0,1,.283-.739A1.052,1.052,0,0,1,10.414-2Zm8.281,0a1.062,1.062,0,0,1,.8.295,1.023,1.023,0,0,1,.283.739.987.987,0,0,1-.283.723,1.078,1.078,0,0,1-.8.287,1.082,1.082,0,0,1-.788-.283.97.97,0,0,1-.291-.727,1.023,1.023,0,0,1,.283-.739A1.052,1.052,0,0,1,18.695-2Zm8.281,0a1.062,1.062,0,0,1,.8.295,1.023,1.023,0,0,1,.283.739.987.987,0,0,1-.283.723,1.078,1.078,0,0,1-.8.287,1.082,1.082,0,0,1-.788-.283A.97.97,0,0,1,25.9-.967a1.023,1.023,0,0,1,.283-.739A1.052,1.052,0,0,1,26.975-2Z" transform="translate(-1.055 26.489)" fill="#452d9e"/>
          </g>
        </g>
      </g>
    </g>
    <g id="bebe_1_" data-name="bebe (1)" transform="translate(623.422 3853.067)">
      <path id="Trazado_781277" data-name="Trazado 781277" d="M147.21,202.764c-1.138.293-1.308.96-1.5.7a1.6,1.6,0,0,0-1.552-.525c-.582.214-.96.59-.665,1.875a.8.8,0,0,1-.382.883,28.51,28.51,0,0,0-5.231.953,2.5,2.5,0,0,1-1.907-.221,38.563,38.563,0,0,0-8.552-3.353,26.056,26.056,0,0,0-3.53-.69,13.848,13.848,0,0,0-8-2.445,12.236,12.236,0,0,0-7.117,1.862,39.031,39.031,0,0,0-5.726-.624c-2.136-.119-4.32-.164-5.8-.147a2.562,2.562,0,0,1-1.489-.448,38.124,38.124,0,0,0-5.94-3.345.813.813,0,0,1-.474-.845c.166-1.306-.246-1.644-.847-1.8a1.608,1.608,0,0,0-1.491.677c-.163.272-.4-.374-1.559-.554-1.947-.3-4.182,3.576-.782,5.169.956,2.154,6.452,7.452,9.276,9.328a28.991,28.991,0,0,0,6.849,3.052c.722.229,1.455.438,2.185.622a53.7,53.7,0,0,0-3.011,11,14.44,14.44,0,0,0,3.613,11.216c4.243,5.849,12.566,5.6,12.566,5.6s8.327.249,12.57-5.6c0,0,1.7-2.412,2.209-3.419s1.175-6.925,1.175-6.925a60.427,60.427,0,0,0-2.98-10.086,12.28,12.28,0,0,0,2.539.6,19.574,19.574,0,0,0,6.291-.008c2.548-.327,6.473-3.483,9.289-6.142,5.144-2.343,1.879-6.86-.03-6.371Z" transform="translate(-4.871 -155.421)" fill="#f88"/>
      <path id="Trazado_781278" data-name="Trazado 781278" d="M203.777,321.622A53.778,53.778,0,0,0,189,319.936a58.294,58.294,0,0,0-15.291,1.687l-.137.028a28.079,28.079,0,0,0-.754,3.918,14.439,14.439,0,0,0,3.613,11.217c4.244,5.849,12.566,5.6,12.566,5.6s8.326.25,12.57-5.6c0,0,1.7-2.411,2.208-3.419s1.176-6.925,1.176-6.925a39.988,39.988,0,0,0-1.176-4.819Z" transform="translate(-77.724 -257.093)" fill="#ffd2d2"/>
      <path id="Trazado_781279" data-name="Trazado 781279" d="M140.855,356.254a20.8,20.8,0,0,0,3.6-.778,2.906,2.906,0,0,0,1.85-2.29c.911-6.057-4.333-13.847-9.85-10.161-4.425,2.955-8.627,6.74-8.193,11.891.494,5.856,7.043,12.628,9.166,14.569a2.138,2.138,0,0,1,.724,1.451c.076,1.531.984,2.146,1.973,1.827a5.358,5.358,0,0,0,3.123-2.228c.517-1.1.361-2.4-.634-3.981-1.469-2.329.177-5.742-2.135-9.44a.565.565,0,0,1,.379-.86Z" transform="translate(-41.626 -275.047)" fill="#f88"/>
      <path id="Trazado_781280" data-name="Trazado 781280" d="M301.738,354.837a2.13,2.13,0,0,0-.712,1.455c-.064,1.533-.968,2.154-1.96,1.843a5.364,5.364,0,0,1-3.139-2.2c-.525-1.1-.38-2.4.6-3.986.731-1.179.822-2.729,1.039-4.488a9.349,9.349,0,0,1-2.16.34,4.475,4.475,0,0,1-2.822-.688c-4.211-3.166-3.271-9.929-.507-12.175,2.13-1.729,8.746-2.74,13.594-1.722a6.178,6.178,0,0,1,5.19,5.456C311.684,343.605,303.843,352.879,301.738,354.837Z" transform="translate(-172.594 -267.531)" fill="#f88"/>
      <path id="Trazado_781281" data-name="Trazado 781281" d="M213.848,226.109a17.8,17.8,0,0,1-11.279,4.141,17.239,17.239,0,0,1-13.1-6.038,39.029,39.029,0,0,1,5.726.624,12.236,12.236,0,0,1,7.117-1.862,13.733,13.733,0,0,1,7.969,2.421A26.773,26.773,0,0,1,213.848,226.109Z" transform="translate(-91.294 -178.451)" fill="#ff576b"/>
      <path id="Trazado_781282" data-name="Trazado 781282" d="M347.61,51.41a2.641,2.641,0,1,1,3.735,3.735c-1.031,1.031-4.062,2.39-5.093,1.358S346.579,52.441,347.61,51.41Z" transform="translate(-218.148 -38.688)" fill="#6ed6ff"/>
      <path id="Trazado_781283" data-name="Trazado 781283" d="M363.645,96.446a1.714,1.714,0,1,1,0,3.428c-.946,0-2.96-.767-2.96-1.714S362.7,96.446,363.645,96.446Z" transform="translate(-230.151 -75.84)" fill="#4ac3ff"/>
      <path id="Trazado_781284" data-name="Trazado 781284" d="M148.271,134.115a5.433,5.433,0,0,0,5.607,4.459v-9.79c-4.258-.874-6.242,2.361-5.607,5.331Z" transform="translate(-57.787 -101.95)" fill="#f88"/>
      <path id="Trazado_781285" data-name="Trazado 781285" d="M339.125,128.785v9.79a5.433,5.433,0,0,0,5.607-4.459C345.367,131.146,343.383,127.912,339.125,128.785Z" transform="translate(-212.666 -101.95)" fill="#f88"/>
      <path id="Trazado_781286" data-name="Trazado 781286" d="M191.564,85.73c4.028,0,10.227-1.707,13.781-6.966,3.211-4.75,1.323-12.594,1.4-15.709.161-6.318-4.4-14.525-15.184-14.525s-15.345,8.206-15.184,14.525c.079,3.115-1.808,10.959,1.4,15.709C181.337,84.023,187.536,85.73,191.564,85.73Z" transform="translate(-80.289 -36.98)" fill="#ff9f9f"/>
      <path id="Trazado_781287" data-name="Trazado 781287" d="M277.721,110.541a1.126,1.126,0,0,1-.568-.153.928.928,0,0,0-.324-.025,1.134,1.134,0,1,1-.332-2.243,2.956,2.956,0,0,1,1.8.31,1.134,1.134,0,0,1-.575,2.112Z" transform="translate(-161.089 -85.283)" fill="#462e4c"/>
      <path id="Trazado_781288" data-name="Trazado 781288" d="M225.546,110.545a1.135,1.135,0,0,1-.571-2.115,2.958,2.958,0,0,1,1.8-.31,1.134,1.134,0,1,1-.332,2.243.863.863,0,0,0-.326.026A1.125,1.125,0,0,1,225.546,110.545Z" transform="translate(-119.632 -85.283)" fill="#462e4c"/>
      <path id="Trazado_781289" data-name="Trazado 781289" d="M240.784,180.462a12.68,12.68,0,0,0-5.174,0c-3.544.7-2.535,5.187.935,4.227a4.459,4.459,0,0,1,3.3,0C243.318,185.649,244.328,181.161,240.784,180.462Z" transform="translate(-126.92 -143.762)" fill="#fff"/>
      <g id="Grupo_1062939" data-name="Grupo 1062939" transform="translate(76.902 2.933)">
        <path id="Trazado_781290" data-name="Trazado 781290" d="M282.652,137.653a1.134,1.134,0,0,1-1-1.662,3.581,3.581,0,0,1,4.491-1.343,1.134,1.134,0,1,1-1.026,2.022,1.44,1.44,0,0,0-1.458.376A1.134,1.134,0,0,1,282.652,137.653Z" transform="translate(-242.849 -109.495)" fill="#3449bc"/>
        <path id="Trazado_781291" data-name="Trazado 781291" d="M212.415,137.656a1.134,1.134,0,0,1-1-.606,1.443,1.443,0,0,0-1.458-.376,1.134,1.134,0,1,1-1.026-2.022,3.581,3.581,0,0,1,4.491,1.343,1.134,1.134,0,0,1-1,1.662Z" transform="translate(-183.472 -109.498)" fill="#3449bc"/>
        <path id="Trazado_781292" data-name="Trazado 781292" d="M250.437,153.518a1.814,1.814,0,0,0-1.945,1.749,2.019,2.019,0,0,0,3.889,0A1.814,1.814,0,0,0,250.437,153.518Z" transform="translate(-216.064 -125.059)" fill="#3449bc"/>
        <path id="Trazado_781293" data-name="Trazado 781293" d="M239.395,15.187a1.134,1.134,0,0,1-.591-2.1c.053-.033,2.969-1.871,3.07-4.824.067-1.968-.976-2.85-1.976-3.02a2.024,2.024,0,0,0-2.329,1.386.72.72,0,0,0,.368.924c.043.022.425.208.609-.039a1.134,1.134,0,0,1,1.814,1.361,2.7,2.7,0,0,1-3.457.7,3,3,0,0,1-1.5-3.618A4.29,4.29,0,0,1,240.278,3c2,.34,3.973,2.122,3.862,5.334-.145,4.207-4,6.586-4.16,6.685a1.128,1.128,0,0,1-.586.164Z" transform="translate(-205.326 -2.933)" fill="#3449bc"/>
        <path id="Trazado_781294" data-name="Trazado 781294" d="M235.908,181.094a4.638,4.638,0,0,1-1.234-.175,3.436,3.436,0,0,0-2.7,0,3.626,3.626,0,0,1-3.692-.821,3.191,3.191,0,0,1-.745-3.175,3.688,3.688,0,0,1,2.98-2.436,13.816,13.816,0,0,1,5.613,0,3.689,3.689,0,0,1,2.98,2.436,3.191,3.191,0,0,1-.745,3.175A3.344,3.344,0,0,1,235.908,181.094Zm-2.583-2.718h.014a7.957,7.957,0,0,1,1.94.358,1.437,1.437,0,0,0,1.457-.212.937.937,0,0,0,.211-.921,1.494,1.494,0,0,0-1.255-.888,11.552,11.552,0,0,0-4.734,0,1.5,1.5,0,0,0-1.255.888.937.937,0,0,0,.211.921,1.437,1.437,0,0,0,1.457.212,7.955,7.955,0,0,1,1.94-.358Z" transform="translate(-198.95 -141.832)" fill="#3449bc"/>
        <path id="Trazado_781295" data-name="Trazado 781295" d="M109.734,201.377l0,.008Z" transform="translate(-103.525 -163.873)" fill="#3449bc"/>
        <path id="Trazado_781296" data-name="Trazado 781296" d="M410.414,245.229l.006.008Z" transform="translate(-347.384 -199.438)" fill="#3449bc"/>
        <path id="Trazado_781297" data-name="Trazado 781297" d="M347.27,45.75a3.78,3.78,0,0,0-5.339,0,8.23,8.23,0,0,0-1.726,2.989c-.692,2.069-.182,3.158.368,3.708a2.566,2.566,0,0,0,1.9.7,5.755,5.755,0,0,0,1.812-.335,8.245,8.245,0,0,0,2.989-1.726A3.775,3.775,0,0,0,347.27,45.75Zm-1.6,3.735c-.864.864-3.1,1.746-3.487,1.356s.491-2.623,1.356-3.487a1.507,1.507,0,0,1,2.131,2.131Z" transform="translate(-290.172 -36.763)" fill="#3449bc"/>
        <path id="Trazado_781298" data-name="Trazado 781298" d="M358.779,96.142c-1.128,0-4.094-.876-4.094-2.848s2.967-2.848,4.094-2.848a2.848,2.848,0,1,1,0,5.7Zm-1.41-3a.177.177,0,0,0,0,.313,3.614,3.614,0,0,0,1.41.423.58.58,0,1,0,0-1.16,3.615,3.615,0,0,0-1.41.424Z" transform="translate(-302.187 -73.907)" fill="#3449bc"/>
        <path id="Trazado_781299" data-name="Trazado 781299" d="M146.022,81.061c-.653-1.85-2.47-3.088-3.965-2.7a3.954,3.954,0,0,0-1.094.458,2.548,2.548,0,0,0-2.062-.246,2.256,2.256,0,0,0-1.46,2.771,28.305,28.305,0,0,0-4.736.913,1.374,1.374,0,0,1-1.048-.12,30.938,30.938,0,0,0-10.287-3.122A15.914,15.914,0,0,0,126,74.531a12.008,12.008,0,0,0,1.783-4.741,6.6,6.6,0,0,0,5.4-5.275,5.837,5.837,0,0,0-1.424-5.3,5.458,5.458,0,0,0-4.16-1.537,15.574,15.574,0,0,0-4.339-10.489,16.251,16.251,0,0,0-11.978-4.659A16.252,16.252,0,0,0,99.3,47.187a15.576,15.576,0,0,0-4.339,10.489,5.456,5.456,0,0,0-4.16,1.537,5.837,5.837,0,0,0-1.423,5.3,6.6,6.6,0,0,0,5.4,5.275,11.99,11.99,0,0,0,1.783,4.741,15.433,15.433,0,0,0,1.933,2.329c-2.16-.2-4.481-.287-6.12-.269a1.422,1.422,0,0,1-.832-.247,39.43,39.43,0,0,0-5.91-3.35c.132-1.533-.444-2.476-1.714-2.8a2.546,2.546,0,0,0-2.027.448,3.947,3.947,0,0,0-1.134-.348,3.593,3.593,0,0,0-3.678,2.741,3.673,3.673,0,0,0,1.878,4.386c1.453,2.609,6.786,7.635,9.493,9.435a31.491,31.491,0,0,0,8.262,3.527c-.548,1.649-2.33,8-2.489,8.754l-.022.014c-3.976,2.656-9.2,6.885-8.693,12.929.586,6.943,8.616,14.474,9.529,15.31a1.017,1.017,0,0,1,.357.67,3.187,3.187,0,0,0,1.233,2.562,2.388,2.388,0,0,0,1.372.426,2.764,2.764,0,0,0,.848-.138,6.4,6.4,0,0,0,3.8-2.826c.705-1.5.469-3.21-.7-5.067a6.343,6.343,0,0,1-.559-3.1,13.856,13.856,0,0,0-.71-4.577,18.893,18.893,0,0,0,10.421,3.2c.082,0,.143,0,.181,0,.638.015,7.734.054,12.332-4.695a5.584,5.584,0,0,1-.636,2.087c-1.156,1.866-1.38,3.572-.661,5.072a6.406,6.406,0,0,0,3.823,2.8,2.775,2.775,0,0,0,.829.131,2.388,2.388,0,0,0,1.388-.437,3.185,3.185,0,0,0,1.213-2.572,1.018,1.018,0,0,1,.352-.673c1.4-1.3,10.454-11.275,9.474-17.183a7.306,7.306,0,0,0-6.075-6.381,23.9,23.9,0,0,0-6.177-.376c-.351-1.162-.727-2.29-1.087-3.309a22.6,22.6,0,0,0,3.808.306,26.625,26.625,0,0,0,3.366-.213c3.068-.394,7.4-4.069,9.79-6.317,3.165-1.52,3.636-3.937,3.009-5.715ZM130.141,60.809a3.553,3.553,0,0,1,.816,3.232,4.417,4.417,0,0,1-2.923,3.364c.048-.939.041-1.873,0-2.772a.778.778,0,0,1,.754-.5,1.134,1.134,0,1,0,.315-2.246,2.837,2.837,0,0,0-1.247.117c-.029-.33-.157-1.719-.187-2.068a3.207,3.207,0,0,1,2.467.87Zm-35.453,1.2a2.836,2.836,0,0,0-1.247-.116,1.134,1.134,0,1,0,.315,2.246.778.778,0,0,1,.753.5c-.037.9-.043,1.837.005,2.778a4.412,4.412,0,0,1-2.923-3.37,3.552,3.552,0,0,1,.816-3.232,3.2,3.2,0,0,1,2.466-.869c-.029.348-.157,1.736-.186,2.065Zm3.744,11.256c-2.21-3.27-1.741-8.315-1.4-12a29.191,29.191,0,0,0,.191-3.1,13.237,13.237,0,0,1,3.7-9.388,15.476,15.476,0,0,1,20.709,0,13.236,13.236,0,0,1,3.7,9.388,29.241,29.241,0,0,0,.191,3.1c.342,3.685.81,8.733-1.4,12-3.227,4.773-8.934,6.467-12.842,6.467S101.659,78.035,98.433,73.261Zm1.27,38.828c-.222.036-.445.073-.667.112a1.7,1.7,0,0,0-1.149,2.579,9.551,9.551,0,0,1,1.228,5.2,8,8,0,0,0,.907,4.24c1.1,1.75.7,2.611.567,2.895a4.425,4.425,0,0,1-2.443,1.63.308.308,0,0,1-.235,0c-.084-.058-.232-.293-.258-.808a3.249,3.249,0,0,0-1.091-2.232c-2.861-2.617-8.383-8.876-8.8-13.828-.316-3.741,2.057-7.087,7.692-10.852a4.081,4.081,0,0,1,2.276-.761,3.864,3.864,0,0,1,2.088.656c2.529,1.606,4.24,5.8,3.735,9.155a1.772,1.772,0,0,1-1.127,1.4,14.961,14.961,0,0,1-2.723.61Zm11.606,4.18h-.068a17.184,17.184,0,0,1-8.741-2.433c.247-.069.489-.146.723-.234a4.041,4.041,0,0,0,2.575-3.182c.646-4.292-1.446-9.3-4.763-11.407a5.945,5.945,0,0,0-4.249-.93c.041-.167.082-.333.125-.5a58.258,58.258,0,0,1,14.365-1.493A57.356,57.356,0,0,1,122.52,97a10.119,10.119,0,0,0-3.749,1.635,9.051,9.051,0,0,0-2.782,7.041,8.607,8.607,0,0,0,3.323,6.919,4.335,4.335,0,0,0,1.491.706c-4.01,3.071-9.43,2.971-9.494,2.969ZM132.848,98.9a5.07,5.07,0,0,1,4.3,4.533c.692,4.17-6.5,13.033-8.78,15.15a3.247,3.247,0,0,0-1.074,2.24c-.021.515-.168.752-.252.81a.308.308,0,0,1-.235,0,4.431,4.431,0,0,1-2.457-1.611c-.135-.282-.546-1.141.544-2.9a9.906,9.906,0,0,0,1.125-4.316,14.976,14.976,0,0,1,2.054-6.329,2.3,2.3,0,0,0,.378-1.991,2.33,2.33,0,0,0-1.349-1.547,1.134,1.134,0,1,0-.884,2.089.071.071,0,0,1,.043.05.04.04,0,0,1-.006.041,12.615,12.615,0,0,0-2.31,5.991,4.68,4.68,0,0,1-3.278-.331,6.493,6.493,0,0,1-2.419-5.148A6.948,6.948,0,0,1,120.2,100.4c1.793-1.452,8.106-2.447,12.65-1.491Zm9.063-14.116a1.191,1.191,0,0,0-.323.215c-3.627,3.427-6.861,5.61-8.652,5.84a20.807,20.807,0,0,1-7.818-.376c-.172-.449-.6-1.543-.643-1.662a2.093,2.093,0,0,1-.137-.843l.074-1.551a1.134,1.134,0,1,0-2.265-.108l-.074,1.551a4.348,4.348,0,0,0,.28,1.752c.047.124,1.289,3.309,2.008,5.464a57.238,57.238,0,0,0-13.083-1.249A62.518,62.518,0,0,0,97.6,95.1c1.178-4.011,2.582-7.79,2.6-7.845a4.344,4.344,0,0,0,.28-1.752l-.074-1.551a1.134,1.134,0,1,0-2.265.108l.074,1.552a15.676,15.676,0,0,1-.775,2.623,29.772,29.772,0,0,1-7.74-3.267c-2.707-1.8-8.029-6.95-8.867-8.847a1.148,1.148,0,0,0-.563-.569c-.924-.435-1.269-1.06-1.027-1.857.226-.742.683-1.136,1.163-1.16a1.075,1.075,0,0,1,.76.311,1.406,1.406,0,0,0,1.139.293c.232-.051.56-.416.763-.634a.216.216,0,0,1,.369.09.845.845,0,0,1,0,.351,1.882,1.882,0,0,0,1.107,2.048,37.057,37.057,0,0,1,5.7,3.217,3.68,3.68,0,0,0,2.149.65,51.821,51.821,0,0,1,9.493.765,4.785,4.785,0,0,1,1.07.386A19.384,19.384,0,0,0,111.276,82a18.852,18.852,0,0,0,5.27-.8,4.492,4.492,0,0,1,1.258-.181,29.591,29.591,0,0,1,12.75,3.1,3.629,3.629,0,0,0,2.766.321,27.254,27.254,0,0,1,5.038-.917,1.121,1.121,0,0,0,.424-.13,1.826,1.826,0,0,0,.918-2.071,3.217,3.217,0,0,1-.078-.5.233.233,0,0,1,.35-.191c.2.085.31.283.567.493a.848.848,0,0,0,.836.148,1.822,1.822,0,0,0,.52-.331,1.023,1.023,0,0,1,.725-.385c.351,0,.97.4,1.272,1.287.386,1.14-.317,2.187-1.981,2.948Z" transform="translate(-76.902 -35.045)" fill="#3449bc"/>
      </g>
    </g>
  </g>
</svg>
