<svg xmlns="http://www.w3.org/2000/svg" width="81" height="81" viewBox="0 0 81 81">
  <g id="Grupo_1044295" data-name="Grupo 1044295" transform="translate(-917 -5612)">
    <g id="Grupo_988084" data-name="Grupo 988084" transform="translate(83 3035)">
      <g id="Grupo_988083" data-name="Grupo 988083">
        <rect id="Rectángulo_35798" data-name="Rectángulo 35798" width="81" height="81" rx="8" transform="translate(834 2577)" fill="#3449bc"/>
      </g>
    </g>
    <g id="FILLED_OUTLINE" transform="translate(910 5605)">
      <path id="Trazado_773984" data-name="Trazado 773984" d="M125.391,34.192,123.5,24H77.693l1.887,10.192a72.175,72.175,0,0,1-2.279,35.3L72.484,84.427h42.145a5.033,5.033,0,0,0,4.79-3.488l3.693-11.447A72.175,72.175,0,0,0,125.391,34.192Z" transform="translate(-49.128 -6.958)" fill="#ededed"/>
      <path id="Trazado_773985" data-name="Trazado 773985" d="M67.652,442.809,66.716,440H24l.936,2.809a5.033,5.033,0,0,0,4.775,3.442H72.427A5.033,5.033,0,0,1,67.652,442.809Z" transform="translate(-6.958 -368.782)" fill="#bebebe"/>
      <path id="Trazado_773986" data-name="Trazado 773986" d="M261.209,64h4.167v5.209h5.209v4.167h-5.209v5.209h-4.167V73.377H256V69.209h5.209Z" transform="translate(-208.745 -41.749)" fill="#ffa488"/>
      <path id="Trazado_773987" data-name="Trazado 773987" d="M248,208h16.67v2.084H248Z" transform="translate(-201.786 -166.996)" fill="#bebebe"/>
      <path id="Trazado_773988" data-name="Trazado 773988" d="M168,248h37.507v2.084H168Z" transform="translate(-132.205 -201.786)" fill="#bebebe"/>
      <path id="Trazado_773989" data-name="Trazado 773989" d="M160,280h26.046v2.084H160Z" transform="translate(-125.247 -229.619)" fill="#bebebe"/>
      <path id="Trazado_773990" data-name="Trazado 773990" d="M152,312h23.963v2.084H152Z" transform="translate(-118.289 -257.452)" fill="#bebebe"/>
      <path id="Trazado_773991" data-name="Trazado 773991" d="M144,360h12.5v2.084H144Z" transform="translate(-111.33 -299.2)" fill="#bebebe"/>
      <path id="Trazado_773992" data-name="Trazado 773992" d="M136,392h6.251v2.084H136Z" transform="translate(-104.372 -327.033)" fill="#bebebe"/>
      <circle id="Elipse_5005" data-name="Elipse 5005" cx="4.167" cy="4.167" r="4.167" transform="translate(68.092 69.134)" fill="#31c292"/>
      <path id="Trazado_773993" data-name="Trazado 773993" d="M347.335,295.485h-2.293A1.042,1.042,0,0,1,344,294.443V292.15a15.526,15.526,0,0,1,4.577-11.05l1.547-1.547a3.129,3.129,0,0,1,4.42,0L356.2,281.2l-1.473,1.474-1.652-1.652a1.043,1.043,0,0,0-1.473,0l-1.547,1.548a13.455,13.455,0,0,0-3.967,9.577V293.4h1.251a13.455,13.455,0,0,0,9.577-3.967l1.547-1.547a1.043,1.043,0,0,0,0-1.473l-1.652-1.652,1.473-1.474,1.652,1.652a3.129,3.129,0,0,1,0,4.42l-1.547,1.548A15.527,15.527,0,0,1,347.335,295.485Z" transform="translate(-285.284 -228.435)" fill="#00b378"/>
      <path id="Trazado_773994" data-name="Trazado 773994" d="M291.988,407.582a3.989,3.989,0,0,1-2.82-6.809l6.43-6.43,1.473,1.473-6.43,6.43a1.9,1.9,0,0,0,2.694,2.694l5.15-5.15a6.221,6.221,0,0,1,8.422-.382l2.6,2.164-1.334,1.6-2.6-2.164a4.147,4.147,0,0,0-5.615.255l-5.15,5.15A3.963,3.963,0,0,1,291.988,407.582Z" transform="translate(-236.576 -329.071)" fill="#00b378"/>
      <g id="Grupo_1044294" data-name="Grupo 1044294" transform="translate(16 16)">
        <path id="Trazado_773995" data-name="Trazado 773995" d="M29.134,62.854a73.45,73.45,0,0,0,2.312-35.81l-1.659-8.96H73.477l1.73,9.34a70.821,70.821,0,0,1-.2,26.92l2.043.409a72.9,72.9,0,0,0,.2-27.709L75.368,16.852A1.042,1.042,0,0,0,74.344,16H28.534a1.042,1.042,0,0,0-1.024,1.232L29.4,27.423a71.358,71.358,0,0,1-2.246,34.791l-2.568,7.962h-7.54a1.042,1.042,0,0,0-.988,1.371l.936,2.809a6.067,6.067,0,0,0,5.763,4.154H50.381V76.427H22.753A3.986,3.986,0,0,1,18.967,73.7l-.479-1.438H50.381V70.176H26.772Z" transform="translate(-16 -16)" fill="#12263f"/>
        <path id="Trazado_773996" data-name="Trazado 773996" d="M258.418,56h-4.167a1.042,1.042,0,0,0-1.042,1.042v4.167h-4.167A1.042,1.042,0,0,0,248,62.251v4.167a1.042,1.042,0,0,0,1.042,1.042h4.167v4.167a1.042,1.042,0,0,0,1.042,1.042h4.167a1.042,1.042,0,0,0,1.042-1.042V67.46h4.167a1.042,1.042,0,0,0,1.042-1.042V62.251a1.042,1.042,0,0,0-1.042-1.042H259.46V57.042A1.042,1.042,0,0,0,258.418,56Zm4.167,7.293v2.084h-4.167a1.042,1.042,0,0,0-1.042,1.042v4.167h-2.084V66.418a1.042,1.042,0,0,0-1.042-1.042h-4.167V63.293h4.167a1.042,1.042,0,0,0,1.042-1.042V58.084h2.084v4.167a1.042,1.042,0,0,0,1.042,1.042Z" transform="translate(-217.786 -50.791)" fill="#12263f"/>
        <path id="Trazado_773997" data-name="Trazado 773997" d="M248,208h16.67v2.084H248Z" transform="translate(-217.786 -182.996)" fill="#12263f"/>
        <path id="Trazado_773998" data-name="Trazado 773998" d="M168,248h37.507v2.084H168Z" transform="translate(-148.205 -217.786)" fill="#12263f"/>
        <path id="Trazado_773999" data-name="Trazado 773999" d="M160,280h26.046v2.084H160Z" transform="translate(-141.247 -245.619)" fill="#12263f"/>
        <path id="Trazado_774000" data-name="Trazado 774000" d="M152,312h23.963v2.084H152Z" transform="translate(-134.289 -273.452)" fill="#12263f"/>
        <path id="Trazado_774001" data-name="Trazado 774001" d="M144,360h12.5v2.084H144Z" transform="translate(-127.33 -315.2)" fill="#12263f"/>
        <path id="Trazado_774002" data-name="Trazado 774002" d="M136,392h6.251v2.084H136Z" transform="translate(-120.372 -343.033)" fill="#12263f"/>
        <path id="Trazado_774003" data-name="Trazado 774003" d="M308.837,296.527a5.187,5.187,0,0,0-3.445,1.307,6.217,6.217,0,0,0-6.907,1.32l-5.15,5.15a1.9,1.9,0,1,1-2.694-2.694l6.125-6.125h1.862a15.527,15.527,0,0,0,11.051-4.577l1.547-1.548a3.129,3.129,0,0,0,0-4.42l-1.652-1.652-1.473,1.474,1.652,1.652a1.043,1.043,0,0,1,0,1.473l-1.547,1.547a13.455,13.455,0,0,1-9.577,3.967h-1.251V292.15a13.455,13.455,0,0,1,3.967-9.577l1.547-1.548a1.043,1.043,0,0,1,1.473,0l1.652,1.652,1.473-1.474-1.652-1.652a3.129,3.129,0,0,0-4.42,0L299.87,281.1a15.526,15.526,0,0,0-4.577,11.05v1.862l-6.125,6.125a3.989,3.989,0,0,0,5.641,5.641l5.15-5.15a4.146,4.146,0,0,1,4.139-1.051,5.208,5.208,0,1,0,4.739-3.05Zm0,8.335a3.125,3.125,0,0,1-2.931-4.212l2.264,1.886,1.334-1.6-2.263-1.886a3.125,3.125,0,1,1,1.6,5.812Z" transform="translate(-252.577 -244.435)" fill="#12263f"/>
      </g>
    </g>
  </g>
</svg>
