<svg xmlns="http://www.w3.org/2000/svg" width="81" height="81" viewBox="0 0 81 81">
  <g id="Grupo_1062958" data-name="Grupo 1062958" transform="translate(-287 -5612)">
    <g id="Grupo_988068" data-name="Grupo 988068" transform="translate(83 3035)">
      <rect id="Rectángulo_35795" data-name="Rectángulo 35795" width="81" height="81" rx="8" transform="translate(204 2577)" fill="#3449bc"/>
    </g>
    <g id="saludable_1_" data-name="saludable (1)" transform="translate(287 5601.359)">
      <g id="Grupo_1044279" data-name="Grupo 1044279" transform="translate(5.354 17.685)">
        <g id="Grupo_1044272" data-name="Grupo 1044272" transform="translate(0 44.135)">
          <g id="Grupo_1044271" data-name="Grupo 1044271" transform="translate(6.75)">
            <g id="Grupo_1044269" data-name="Grupo 1044269" transform="translate(10.336)">
              <path id="Trazado_773966" data-name="Trazado 773966" d="M142.656,344.436H128.112V333.119a1.738,1.738,0,0,1,1.735-1.735,5.7,5.7,0,0,1,5.7,5.7v.241Z" transform="translate(-128.112 -331.384)" fill="#fdb0a0"/>
            </g>
            <g id="Grupo_1044270" data-name="Grupo 1044270">
              <path id="Trazado_773967" data-name="Trazado 773967" d="M69.693,344.436H59.369l-4.22-4.22v-7.1a1.738,1.738,0,0,1,1.735-1.735,5.7,5.7,0,0,1,5.7,5.7v.241Z" transform="translate(-55.149 -331.384)" fill="#ffcec0"/>
            </g>
          </g>
          <path id="Trazado_773968" data-name="Trazado 773968" d="M56.492,344a3.479,3.479,0,0,1-3.072-1.232,7.384,7.384,0,0,0-5.643-2.621h-1.6a8.9,8.9,0,0,1-6.291-2.606l-4.927-4.927a4.2,4.2,0,0,0-5.938,0h0a2.868,2.868,0,0,0,0,4.056l5.7,5.7a5.584,5.584,0,0,1,1.309,2.066H22.045l-7.112-7.112v-.242a5.7,5.7,0,0,0-5.7-5.7A1.735,1.735,0,0,0,7.5,333.124v5.853a3,3,0,0,0,.878,2.119l11.681,11.681a4.738,4.738,0,0,0,3.351,1.388h54.5V341.423Z" transform="translate(-7.5 -331.388)" fill="#ffdfd0"/>
          <path id="Trazado_773969" data-name="Trazado 773969" d="M470.577,402.8v12.163h4.806V402.22Z" transform="translate(-404.977 -392.185)" fill="#ffcec0"/>
        </g>
        <g id="Grupo_1044278" data-name="Grupo 1044278" transform="translate(10.288 0)">
          <g id="Grupo_1044273" data-name="Grupo 1044273">
            <path id="Trazado_773970" data-name="Trazado 773970" d="M125.761,24.024h0a14.315,14.315,0,0,0-20.245,0l-.477.477-.477-.477a14.315,14.315,0,0,0-20.245,0h0a14.315,14.315,0,0,0,0,20.245l19.465,19.465a1.778,1.778,0,0,0,2.514,0l19.465-19.465A14.315,14.315,0,0,0,125.761,24.024Z" transform="translate(-80.124 -19.831)" fill="#fb3a82"/>
            <path id="Trazado_773971" data-name="Trazado 773971" d="M255.255,44.347,235.789,63.812a1.777,1.777,0,0,1-2.513,0l-2.286-2.286,18.594-18.6a14.322,14.322,0,0,0-3.879-23.007,14.314,14.314,0,0,1,9.549,24.425Z" transform="translate(-209.618 -19.909)" fill="#e01058"/>
          </g>
          <g id="Grupo_1044277" data-name="Grupo 1044277" transform="translate(33.164 22.079)">
            <g id="Grupo_1044274" data-name="Grupo 1044274">
              <path id="Trazado_773972" data-name="Trazado 773972" d="M334.815,177.424a.7.7,0,0,0-.5-.624,43.033,43.033,0,0,0-19.443,0,.7.7,0,0,0-.5.624c-.511,7.375-.32,16.894,9.984,20.568a.7.7,0,0,0,.466,0C335.135,194.318,335.326,184.8,334.815,177.424Z" transform="translate(-314.228 -175.687)" fill="#27d1b3"/>
            </g>
            <g id="Grupo_1044275" data-name="Grupo 1044275" transform="translate(8.137 0.308)">
              <path id="Trazado_773973" data-name="Trazado 773973" d="M374.135,199.857a.684.684,0,0,1-.465,0,18.139,18.139,0,0,1-2-.846c8.356-4.247,8.488-13.838,8.012-20.711a.721.721,0,0,0-.195-.439,24.263,24.263,0,0,1,4.137.805.7.7,0,0,1,.495.624C384.631,186.665,384.439,196.184,374.135,199.857Z" transform="translate(-371.67 -177.861)" fill="#20b69f"/>
            </g>
            <path id="Trazado_773974" data-name="Trazado 773974" d="M335.082,182.627h-7.249v-6.851c-.935-.056-1.966-.089-3.1-.089s-2.164.033-3.1.089v6.851h-7.249a23.082,23.082,0,0,0,.979,6.2h6.269v7.855a17.509,17.509,0,0,0,2.866,1.311.7.7,0,0,0,.466,0,17.5,17.5,0,0,0,2.866-1.311v-7.855H334.1A23.075,23.075,0,0,0,335.082,182.627Z" transform="translate(-314.364 -175.687)" fill="#e8edf1"/>
            <g id="Grupo_1044276" data-name="Grupo 1044276" transform="translate(8.137 6.94)">
              <path id="Trazado_773975" data-name="Trazado 773975" d="M374.135,299.084A17.51,17.51,0,0,0,377,297.773v-4.309a13.434,13.434,0,0,1-5.332,4.773,18.082,18.082,0,0,0,2,.846A.683.683,0,0,0,374.135,299.084Z" transform="translate(-371.67 -283.721)" fill="#c5d3dd"/>
              <path id="Trazado_773976" data-name="Trazado 773976" d="M426.681,224.679H422.2a24.228,24.228,0,0,1-1.1,6.2h4.6A23.073,23.073,0,0,0,426.681,224.679Z" transform="translate(-414.1 -224.679)" fill="#c5d3dd"/>
            </g>
          </g>
        </g>
      </g>
      <g id="Grupo_1044291" data-name="Grupo 1044291" transform="translate(5 17.331)">
        <g id="Grupo_1044283" data-name="Grupo 1044283" transform="translate(0 44.135)">
          <g id="Grupo_1044282" data-name="Grupo 1044282" transform="translate(6.75)">
            <g id="Grupo_1044280" data-name="Grupo 1044280" transform="translate(10.336)">
              <path id="Trazado_773977" data-name="Trazado 773977" d="M125.966,338.337a.354.354,0,0,1-.354-.354v-7.009a2.089,2.089,0,0,1,2.089-2.089,6.033,6.033,0,0,1,3.2.915.354.354,0,0,1-.375.6,5.326,5.326,0,0,0-2.824-.807,1.365,1.365,0,0,0-.975.4l0,0a1.364,1.364,0,0,0-.4.975v7.009A.354.354,0,0,1,125.966,338.337Z" transform="translate(-125.612 -328.885)"/>
            </g>
            <g id="Grupo_1044281" data-name="Grupo 1044281" transform="translate(0)">
              <path id="Trazado_773978" data-name="Trazado 773978" d="M67.547,342.645a.353.353,0,0,1-.25-.1l-7.112-7.112a.354.354,0,0,1-.1-.25v-.241a5.339,5.339,0,0,0-5.343-5.345,1.365,1.365,0,0,0-.975.4l0,0a1.364,1.364,0,0,0-.4.975v1.141a.354.354,0,1,1-.708,0v-1.141a2.089,2.089,0,0,1,2.089-2.089,6.048,6.048,0,0,1,6.051,6.053v.094L67.8,342.04a.354.354,0,0,1-.25.6Z" transform="translate(-52.649 -328.885)"/>
            </g>
          </g>
          <path id="Trazado_773979" data-name="Trazado 773979" d="M159.534,344.532a.354.354,0,0,1-.354-.354,5.229,5.229,0,0,0-1.532-3.7l-5.7-5.7a3.22,3.22,0,0,1,0-4.557,4.549,4.549,0,0,1,6.439,0l4.927,4.927a8.543,8.543,0,0,0,6.041,2.5h1.6a7.739,7.739,0,0,1,5.914,2.747,3.122,3.122,0,0,0,2.759,1.109l21.414-2.582a.354.354,0,1,1,.085.7l-21.414,2.582a3.778,3.778,0,0,1-1.865-.25,3.927,3.927,0,0,1-1.52-1.106,7.027,7.027,0,0,0-5.372-2.5h-1.6a9.251,9.251,0,0,1-6.542-2.71l-4.927-4.927a3.841,3.841,0,0,0-5.437,0,2.514,2.514,0,0,0,0,3.555l5.7,5.7a5.938,5.938,0,0,1,1.739,4.2A.354.354,0,0,1,159.534,344.532Z" transform="translate(-130.321 -328.889)"/>
          <path id="Trazado_773980" data-name="Trazado 773980" d="M25.945,352.375H21.263a5.093,5.093,0,0,1-3.6-1.492L5.982,339.2A3.351,3.351,0,0,1,5,336.833v-5.853a2.089,2.089,0,0,1,2.089-2.089,6.047,6.047,0,0,1,6.052,6.052v.1l6.9,6.9H33.886a.354.354,0,1,1,0,.708H19.9a.354.354,0,0,1-.25-.1l-7.112-7.112a.354.354,0,0,1-.1-.25v-.242A5.339,5.339,0,0,0,7.089,329.6a1.382,1.382,0,0,0-1.381,1.381v5.853a2.643,2.643,0,0,0,.774,1.869l11.681,11.681a4.384,4.384,0,0,0,3.1,1.284h4.682a.354.354,0,0,1,0,.708Z" transform="translate(-5 -328.889)"/>
          <path id="Línea_154" data-name="Línea 154" d="M43.019-1.792H-2.146A.354.354,0,0,1-2.5-2.146.354.354,0,0,1-2.146-2.5H43.019a.354.354,0,0,1,.354.354A.354.354,0,0,1,43.019-1.792Z" transform="translate(27.741 25.277)"/>
        </g>
        <g id="Grupo_1044290" data-name="Grupo 1044290" transform="translate(10.288 0)">
          <g id="Grupo_1044287" data-name="Grupo 1044287">
            <path id="Trazado_773981" data-name="Trazado 773981" d="M131.908,114.855a.354.354,0,0,1-.337-.246L126,97.269l-2.061,8.35a.354.354,0,0,1-.344.269h-8.388a.354.354,0,0,1,0-.708h8.111l2.294-9.293a.354.354,0,0,1,.681-.023l5.5,17.123,3.669-22.741a.354.354,0,0,1,.7-.02l3.256,14.657H143.1a.354.354,0,1,1,0,.708h-3.968a.354.354,0,0,1-.346-.277l-2.916-13.13-3.61,22.374a.354.354,0,0,1-.323.3Z" transform="translate(-109.579 -79.661)"/>
            <g id="Grupo_1044286" data-name="Grupo 1044286" transform="translate(34.165 12.379)">
              <g id="Grupo_1044284" data-name="Grupo 1044284" transform="translate(1.956)">
                <path id="Línea_155" data-name="Línea 155" d="M-2.146,2.121A.354.354,0,0,1-2.5,1.767V-2.146A.354.354,0,0,1-2.146-2.5a.354.354,0,0,1,.354.354V1.767A.354.354,0,0,1-2.146,2.121Z" transform="translate(2.5 2.5)"/>
              </g>
              <g id="Grupo_1044285" data-name="Grupo 1044285" transform="translate(0 1.956)">
                <path id="Línea_156" data-name="Línea 156" d="M1.767-1.792H-2.146A.354.354,0,0,1-2.5-2.146.354.354,0,0,1-2.146-2.5H1.767a.354.354,0,0,1,.354.354A.354.354,0,0,1,1.767-1.792Z" transform="translate(2.5 2.5)"/>
              </g>
            </g>
            <path id="Trazado_773982" data-name="Trazado 773982" d="M326.363,39.983a.354.354,0,0,1-.3-.543,13.851,13.851,0,0,0,1.792-4.319,13.966,13.966,0,0,0-15.933-16.887.354.354,0,1,1-.117-.7,14.737,14.737,0,0,1,6.793.454,14.676,14.676,0,0,1,8.064,21.828A.354.354,0,0,1,326.363,39.983Z" transform="translate(-278.377 -17.332)"/>
            <path id="Trazado_773983" data-name="Trazado 773983" d="M197.651,279.888a2.118,2.118,0,0,1-1.507-.624l-8.019-8.019a.354.354,0,0,1,.5-.5l8.019,8.019a1.425,1.425,0,0,0,2.013,0l7.994-7.994a.354.354,0,0,1,.5.5l-7.994,7.994A2.118,2.118,0,0,1,197.651,279.888Z" transform="translate(-172.382 -234.756)"/>
            <path id="Trazado_773984" data-name="Trazado 773984" d="M90.328,50.635a.353.353,0,0,1-.25-.1l-8.157-8.157a14.775,14.775,0,0,1-1.88-2.3A14.591,14.591,0,0,1,77.893,34.8a14.712,14.712,0,0,1,.806-8.322,14.6,14.6,0,0,1,1.343-2.552,14.809,14.809,0,0,1,4.18-4.18A14.591,14.591,0,0,1,89.492,17.6a14.711,14.711,0,0,1,8.322.806,14.6,14.6,0,0,1,2.552,1.343,14.776,14.776,0,0,1,2.3,1.88l.226.226.226-.226a14.678,14.678,0,0,1,3.441-2.559.354.354,0,1,1,.335.624,13.971,13.971,0,0,0-3.275,2.435l-.477.477a.354.354,0,0,1-.5,0l-.477-.477a14.066,14.066,0,0,0-2.19-1.789,13.883,13.883,0,0,0-5.015-2.044,14,14,0,0,0-7.921.767,13.888,13.888,0,0,0-2.428,1.278,14.1,14.1,0,0,0-3.98,3.98,13.883,13.883,0,0,0-2.044,5.015,14,14,0,0,0,.767,7.921,13.889,13.889,0,0,0,1.278,2.428,14.067,14.067,0,0,0,1.789,2.19l8.157,8.157a.354.354,0,0,1-.25.6Z" transform="translate(-77.624 -17.331)"/>
          </g>
          <g id="Grupo_1044289" data-name="Grupo 1044289" transform="translate(33.163 22.079)">
            <path id="Trazado_773985" data-name="Trazado 773985" d="M407.163,274.5a.354.354,0,0,1-.354-.354v-7.855a.354.354,0,0,1,.354-.354h6.269a.354.354,0,1,1,0,.708h-5.915v7.5A.354.354,0,0,1,407.163,274.5Z" transform="translate(-393.34 -252.794)"/>
            <path id="Trazado_773986" data-name="Trazado 773986" d="M325.424,274.5a.354.354,0,0,1-.354-.354v-7.5h-5.915a.354.354,0,1,1,0-.708h6.269a.354.354,0,0,1,.354.354v7.855A.354.354,0,0,1,325.424,274.5Z" transform="translate(-317.798 -252.794)"/>
            <path id="Trazado_773987" data-name="Trazado 773987" d="M319.491,181.375h-7.249a.354.354,0,0,1,0-.708h6.894v-6.5a.354.354,0,1,1,.708,0v6.851A.354.354,0,0,1,319.491,181.375Z" transform="translate(-311.865 -173.726)"/>
            <path id="Trazado_773988" data-name="Trazado 773988" d="M414.412,181.375h-7.249a.354.354,0,0,1-.354-.354v-6.851a.354.354,0,1,1,.708,0v6.5h6.894a.354.354,0,0,1,0,.708Z" transform="translate(-393.34 -173.726)"/>
            <g id="Grupo_1044288" data-name="Grupo 1044288">
              <path id="Trazado_773989" data-name="Trazado 773989" d="M322.452,173.187a45.55,45.55,0,0,1,6.551.433,22.6,22.6,0,0,1,3.274.695,1.057,1.057,0,0,1,.745.938c.256,3.689.342,7.977-.954,11.81a15.207,15.207,0,0,1-1.255,2.783,13.413,13.413,0,0,1-1.893,2.518,14.02,14.02,0,0,1-2.637,2.145,17.526,17.526,0,0,1-3.479,1.67,1.049,1.049,0,0,1-.7,0,17.524,17.524,0,0,1-3.479-1.67,14.018,14.018,0,0,1-2.637-2.145,13.413,13.413,0,0,1-1.893-2.518,15.205,15.205,0,0,1-1.255-2.783c-1.3-3.833-1.21-8.121-.954-11.81a1.057,1.057,0,0,1,.745-.938,22.607,22.607,0,0,1,3.274-.695A45.55,45.55,0,0,1,322.452,173.187Zm0,22.345a.338.338,0,0,0,.114-.02,16.816,16.816,0,0,0,3.338-1.6,13.309,13.309,0,0,0,2.5-2.036,12.705,12.705,0,0,0,1.793-2.385,14.5,14.5,0,0,0,1.2-2.653c1.256-3.715,1.169-7.915.918-11.534a.35.35,0,0,0-.245-.31,42.711,42.711,0,0,0-19.236,0,.351.351,0,0,0-.245.31c-.251,3.619-.338,7.819.918,11.534a14.492,14.492,0,0,0,1.2,2.653,12.7,12.7,0,0,0,1.793,2.385,13.31,13.31,0,0,0,2.5,2.036,16.815,16.815,0,0,0,3.338,1.6A.339.339,0,0,0,322.452,195.532Z" transform="translate(-311.728 -173.187)"/>
            </g>
          </g>
        </g>
      </g>
    </g>
  </g>
</svg>
