<svg xmlns="http://www.w3.org/2000/svg" xmlns:xlink="http://www.w3.org/1999/xlink" width="250.709" height="299.503" viewBox="0 0 250.709 299.503">
  <defs>
    <clipPath id="clip-path">
      <rect id="Rectángulo_34814" data-name="Rectángulo 34814" width="212.055" height="144.235" fill="none"/>
    </clipPath>
    <clipPath id="clip-path-2">
      <rect id="Rectángulo_356599" data-name="Rectángulo 356599" width="204.054" height="269.25" fill="none"/>
    </clipPath>
    <clipPath id="clip-path-4">
      <rect id="Rectángulo_356597" data-name="Rectángulo 356597" width="13.893" height="18.462" fill="none"/>
    </clipPath>
  </defs>
  <g id="Grupo_1044933" data-name="Grupo 1044933" transform="translate(-285 -2178.305)">
    <g id="Grupo_988124" data-name="Grupo 988124" transform="translate(285 2173.647)">
      <rect id="Rectángulo_34828" data-name="Rectángulo 34828" width="81.861" height="22.887" rx="11.443" transform="translate(0 4.658)" fill="#e0e4f5" opacity="0.44"/>
      <g id="Grupo_988123" data-name="Grupo 988123" transform="translate(0 0)">
        <path id="Trazado_145969" data-name="Trazado 145969" d="M35.164,0A35.164,35.164,0,1,0,70.328,35.164,35.164,35.164,0,0,0,35.164,0Z" transform="translate(180.381 9.661)" fill="#64b5f6" opacity="0.444"/>
        <g id="Grupo_80127" data-name="Grupo 80127" transform="translate(0 201.237)">
          <path id="Trazado_145968" data-name="Trazado 145968" d="M51.462,0a51.462,51.462,0,1,0,51.462,51.462A51.462,51.462,0,0,0,51.462,0Z" fill="#0125e6" opacity="0.678"/>
          <g id="Grupo_78276" data-name="Grupo 78276" transform="translate(14.348 36.07)">
            <g id="Grupo_53306" data-name="Grupo 53306" transform="translate(0 0)">
              <path id="Trazado_99200" data-name="Trazado 99200" d="M414.214,50.892a.7.7,0,1,0,.7-.668A.684.684,0,0,0,414.214,50.892Z" transform="translate(-351.323 -50.224)" fill="#fff"/>
              <path id="Trazado_99201" data-name="Trazado 99201" d="M422.66,50.892a.7.7,0,1,0,.7-.668A.684.684,0,0,0,422.66,50.892Z" transform="translate(-366.058 -50.224)" fill="#fff"/>
              <path id="Trazado_99202" data-name="Trazado 99202" d="M431.106,50.892a.7.7,0,1,0,.7-.668A.684.684,0,0,0,431.106,50.892Z" transform="translate(-380.793 -50.224)" fill="#fff"/>
              <path id="Trazado_99203" data-name="Trazado 99203" d="M439.553,50.892a.7.7,0,1,0,.7-.668A.684.684,0,0,0,439.553,50.892Z" transform="translate(-395.529 -50.224)" fill="#fff"/>
              <path id="Trazado_99204" data-name="Trazado 99204" d="M448,50.892a.7.7,0,1,0,.7-.668A.684.684,0,0,0,448,50.892Z" transform="translate(-410.264 -50.224)" fill="#fff"/>
              <path id="Trazado_99205" data-name="Trazado 99205" d="M456.445,50.892a.7.7,0,1,0,.7-.668A.684.684,0,0,0,456.445,50.892Z" transform="translate(-424.999 -50.224)" fill="#fff"/>
              <path id="Trazado_99206" data-name="Trazado 99206" d="M464.892,50.892a.7.7,0,1,0,.7-.668A.684.684,0,0,0,464.892,50.892Z" transform="translate(-439.736 -50.224)" fill="#fff"/>
              <path id="Trazado_99207" data-name="Trazado 99207" d="M473.338,50.892a.7.7,0,1,0,.7-.668A.684.684,0,0,0,473.338,50.892Z" transform="translate(-454.471 -50.224)" fill="#fff"/>
              <path id="Trazado_99208" data-name="Trazado 99208" d="M481.784,50.892a.7.7,0,1,0,.7-.668A.684.684,0,0,0,481.784,50.892Z" transform="translate(-469.205 -50.224)" fill="#fff"/>
              <path id="Trazado_99209" data-name="Trazado 99209" d="M490.231,50.892a.7.7,0,1,0,.7-.668A.685.685,0,0,0,490.231,50.892Z" transform="translate(-483.942 -50.224)" fill="#fff"/>
              <path id="Trazado_99210" data-name="Trazado 99210" d="M498.677,50.892a.7.7,0,1,0,.7-.668A.684.684,0,0,0,498.677,50.892Z" transform="translate(-498.677 -50.224)" fill="#fff"/>
            </g>
            <g id="Grupo_53307" data-name="Grupo 53307" transform="translate(0 5.346)">
              <path id="Trazado_99211" data-name="Trazado 99211" d="M414.214,58.4a.7.7,0,1,0,.7-.668A.684.684,0,0,0,414.214,58.4Z" transform="translate(-351.323 -57.732)" fill="#fff"/>
              <path id="Trazado_99212" data-name="Trazado 99212" d="M422.66,58.4a.7.7,0,1,0,.7-.668A.684.684,0,0,0,422.66,58.4Z" transform="translate(-366.058 -57.732)" fill="#fff"/>
              <path id="Trazado_99213" data-name="Trazado 99213" d="M431.106,58.4a.7.7,0,1,0,.7-.668A.684.684,0,0,0,431.106,58.4Z" transform="translate(-380.793 -57.732)" fill="#fff"/>
              <path id="Trazado_99214" data-name="Trazado 99214" d="M439.553,58.4a.7.7,0,1,0,.7-.668A.684.684,0,0,0,439.553,58.4Z" transform="translate(-395.529 -57.732)" fill="#fff"/>
              <path id="Trazado_99215" data-name="Trazado 99215" d="M448,58.4a.7.7,0,1,0,.7-.668A.684.684,0,0,0,448,58.4Z" transform="translate(-410.264 -57.732)" fill="#fff"/>
              <path id="Trazado_99216" data-name="Trazado 99216" d="M456.445,58.4a.7.7,0,1,0,.7-.668A.684.684,0,0,0,456.445,58.4Z" transform="translate(-424.999 -57.732)" fill="#fff"/>
              <path id="Trazado_99217" data-name="Trazado 99217" d="M464.892,58.4a.7.7,0,1,0,.7-.668A.684.684,0,0,0,464.892,58.4Z" transform="translate(-439.736 -57.732)" fill="#fff"/>
              <path id="Trazado_99218" data-name="Trazado 99218" d="M473.338,58.4a.7.7,0,1,0,.7-.668A.684.684,0,0,0,473.338,58.4Z" transform="translate(-454.471 -57.732)" fill="#fff"/>
              <path id="Trazado_99219" data-name="Trazado 99219" d="M481.784,58.4a.7.7,0,1,0,.7-.668A.684.684,0,0,0,481.784,58.4Z" transform="translate(-469.205 -57.732)" fill="#fff"/>
              <path id="Trazado_99220" data-name="Trazado 99220" d="M490.231,58.4a.7.7,0,1,0,.7-.668A.685.685,0,0,0,490.231,58.4Z" transform="translate(-483.942 -57.732)" fill="#fff"/>
              <path id="Trazado_99221" data-name="Trazado 99221" d="M498.677,58.4a.7.7,0,1,0,.7-.668A.684.684,0,0,0,498.677,58.4Z" transform="translate(-498.677 -57.732)" fill="#fff"/>
            </g>
            <g id="Grupo_53308" data-name="Grupo 53308" transform="translate(0 10.692)">
              <ellipse id="Elipse_3955" data-name="Elipse 3955" cx="0.699" cy="0.668" rx="0.699" ry="0.668" transform="translate(62.891)" fill="#fff"/>
              <path id="Trazado_99222" data-name="Trazado 99222" d="M422.66,65.908a.7.7,0,1,0,.7-.668A.684.684,0,0,0,422.66,65.908Z" transform="translate(-366.058 -65.24)" fill="#fff"/>
              <ellipse id="Elipse_3956" data-name="Elipse 3956" cx="0.699" cy="0.668" rx="0.699" ry="0.668" transform="translate(50.313)" fill="#fff"/>
              <path id="Trazado_99223" data-name="Trazado 99223" d="M439.553,65.908a.7.7,0,1,0,.7-.668A.685.685,0,0,0,439.553,65.908Z" transform="translate(-395.529 -65.24)" fill="#fff"/>
              <path id="Trazado_99224" data-name="Trazado 99224" d="M448,65.908a.7.7,0,1,0,.7-.668A.684.684,0,0,0,448,65.908Z" transform="translate(-410.264 -65.24)" fill="#fff"/>
              <ellipse id="Elipse_3957" data-name="Elipse 3957" cx="0.699" cy="0.668" rx="0.699" ry="0.668" transform="translate(31.445)" fill="#fff"/>
              <path id="Trazado_99225" data-name="Trazado 99225" d="M464.892,65.908a.7.7,0,1,0,.7-.668A.685.685,0,0,0,464.892,65.908Z" transform="translate(-439.736 -65.24)" fill="#fff"/>
              <ellipse id="Elipse_3958" data-name="Elipse 3958" cx="0.699" cy="0.668" rx="0.699" ry="0.668" transform="translate(18.867)" fill="#fff"/>
              <ellipse id="Elipse_3959" data-name="Elipse 3959" cx="0.699" cy="0.668" rx="0.699" ry="0.668" transform="translate(12.578)" fill="#fff"/>
              <path id="Trazado_99226" data-name="Trazado 99226" d="M490.231,65.908a.7.7,0,1,0,.7-.668A.685.685,0,0,0,490.231,65.908Z" transform="translate(-483.942 -65.24)" fill="#fff"/>
              <path id="Trazado_99227" data-name="Trazado 99227" d="M498.677,65.908a.7.7,0,1,0,.7-.668A.685.685,0,0,0,498.677,65.908Z" transform="translate(-498.677 -65.24)" fill="#fff"/>
            </g>
            <g id="Grupo_53309" data-name="Grupo 53309" transform="translate(0 16.038)">
              <ellipse id="Elipse_3960" data-name="Elipse 3960" cx="0.699" cy="0.668" rx="0.699" ry="0.668" transform="translate(62.891 0)" fill="#fff"/>
              <path id="Trazado_99228" data-name="Trazado 99228" d="M422.66,73.416a.7.7,0,1,0,.7-.669A.684.684,0,0,0,422.66,73.416Z" transform="translate(-366.058 -72.747)" fill="#fff"/>
              <ellipse id="Elipse_3961" data-name="Elipse 3961" cx="0.699" cy="0.668" rx="0.699" ry="0.668" transform="translate(50.313 0)" fill="#fff"/>
              <path id="Trazado_99229" data-name="Trazado 99229" d="M439.553,73.416a.7.7,0,1,0,.7-.669A.684.684,0,0,0,439.553,73.416Z" transform="translate(-395.529 -72.747)" fill="#fff"/>
              <path id="Trazado_99230" data-name="Trazado 99230" d="M448,73.416a.7.7,0,1,0,.7-.669A.684.684,0,0,0,448,73.416Z" transform="translate(-410.264 -72.747)" fill="#fff"/>
              <ellipse id="Elipse_3962" data-name="Elipse 3962" cx="0.699" cy="0.668" rx="0.699" ry="0.668" transform="translate(31.445 0)" fill="#fff"/>
              <path id="Trazado_99231" data-name="Trazado 99231" d="M464.892,73.416a.7.7,0,1,0,.7-.669A.684.684,0,0,0,464.892,73.416Z" transform="translate(-439.736 -72.747)" fill="#fff"/>
              <ellipse id="Elipse_3963" data-name="Elipse 3963" cx="0.699" cy="0.668" rx="0.699" ry="0.668" transform="translate(18.867 0)" fill="#fff"/>
              <ellipse id="Elipse_3964" data-name="Elipse 3964" cx="0.699" cy="0.668" rx="0.699" ry="0.668" transform="translate(12.578 0)" fill="#fff"/>
              <path id="Trazado_99232" data-name="Trazado 99232" d="M490.231,73.416a.7.7,0,1,0,.7-.669A.684.684,0,0,0,490.231,73.416Z" transform="translate(-483.942 -72.747)" fill="#fff"/>
              <path id="Trazado_99233" data-name="Trazado 99233" d="M498.677,73.416a.7.7,0,1,0,.7-.669A.684.684,0,0,0,498.677,73.416Z" transform="translate(-498.677 -72.747)" fill="#fff"/>
            </g>
            <g id="Grupo_53310" data-name="Grupo 53310" transform="translate(0 21.384)">
              <path id="Trazado_99234" data-name="Trazado 99234" d="M414.214,80.924a.7.7,0,1,0,.7-.669A.684.684,0,0,0,414.214,80.924Z" transform="translate(-351.323 -80.255)" fill="#fff"/>
              <path id="Trazado_99235" data-name="Trazado 99235" d="M422.66,80.924a.7.7,0,1,0,.7-.669A.684.684,0,0,0,422.66,80.924Z" transform="translate(-366.058 -80.255)" fill="#fff"/>
              <path id="Trazado_99236" data-name="Trazado 99236" d="M431.106,80.924a.7.7,0,1,0,.7-.669A.684.684,0,0,0,431.106,80.924Z" transform="translate(-380.793 -80.255)" fill="#fff"/>
              <path id="Trazado_99237" data-name="Trazado 99237" d="M439.553,80.924a.7.7,0,1,0,.7-.669A.684.684,0,0,0,439.553,80.924Z" transform="translate(-395.529 -80.255)" fill="#fff"/>
              <path id="Trazado_99238" data-name="Trazado 99238" d="M448,80.924a.7.7,0,1,0,.7-.669A.684.684,0,0,0,448,80.924Z" transform="translate(-410.264 -80.255)" fill="#fff"/>
              <path id="Trazado_99239" data-name="Trazado 99239" d="M456.445,80.924a.7.7,0,1,0,.7-.669A.684.684,0,0,0,456.445,80.924Z" transform="translate(-424.999 -80.255)" fill="#fff"/>
              <path id="Trazado_99240" data-name="Trazado 99240" d="M464.892,80.924a.7.7,0,1,0,.7-.669A.684.684,0,0,0,464.892,80.924Z" transform="translate(-439.736 -80.255)" fill="#fff"/>
              <path id="Trazado_99241" data-name="Trazado 99241" d="M473.338,80.924a.7.7,0,1,0,.7-.669A.684.684,0,0,0,473.338,80.924Z" transform="translate(-454.471 -80.255)" fill="#fff"/>
              <path id="Trazado_99242" data-name="Trazado 99242" d="M481.784,80.924a.7.7,0,1,0,.7-.669A.684.684,0,0,0,481.784,80.924Z" transform="translate(-469.205 -80.255)" fill="#fff"/>
              <path id="Trazado_99243" data-name="Trazado 99243" d="M490.231,80.924a.7.7,0,1,0,.7-.669A.684.684,0,0,0,490.231,80.924Z" transform="translate(-483.942 -80.255)" fill="#fff"/>
              <path id="Trazado_99244" data-name="Trazado 99244" d="M498.677,80.924a.7.7,0,1,0,.7-.669A.684.684,0,0,0,498.677,80.924Z" transform="translate(-498.677 -80.255)" fill="#fff"/>
            </g>
            <g id="Grupo_53311" data-name="Grupo 53311" transform="translate(0 26.731)">
              <ellipse id="Elipse_3965" data-name="Elipse 3965" cx="0.699" cy="0.668" rx="0.699" ry="0.668" transform="translate(62.891 0)" fill="#fff"/>
              <path id="Trazado_99245" data-name="Trazado 99245" d="M422.66,88.432a.7.7,0,1,0,.7-.669A.684.684,0,0,0,422.66,88.432Z" transform="translate(-366.058 -87.763)" fill="#fff"/>
              <ellipse id="Elipse_3966" data-name="Elipse 3966" cx="0.699" cy="0.668" rx="0.699" ry="0.668" transform="translate(50.313 0)" fill="#fff"/>
              <path id="Trazado_99246" data-name="Trazado 99246" d="M439.553,88.432a.7.7,0,1,0,.7-.669A.684.684,0,0,0,439.553,88.432Z" transform="translate(-395.529 -87.763)" fill="#fff"/>
              <path id="Trazado_99247" data-name="Trazado 99247" d="M448,88.432a.7.7,0,1,0,.7-.669A.684.684,0,0,0,448,88.432Z" transform="translate(-410.264 -87.763)" fill="#fff"/>
              <ellipse id="Elipse_3967" data-name="Elipse 3967" cx="0.699" cy="0.668" rx="0.699" ry="0.668" transform="translate(31.445 0)" fill="#fff"/>
              <path id="Trazado_99248" data-name="Trazado 99248" d="M464.892,88.432a.7.7,0,1,0,.7-.669A.684.684,0,0,0,464.892,88.432Z" transform="translate(-439.736 -87.763)" fill="#fff"/>
              <ellipse id="Elipse_3968" data-name="Elipse 3968" cx="0.699" cy="0.668" rx="0.699" ry="0.668" transform="translate(18.867 0)" fill="#fff"/>
              <ellipse id="Elipse_3969" data-name="Elipse 3969" cx="0.699" cy="0.668" rx="0.699" ry="0.668" transform="translate(12.578 0)" fill="#fff"/>
              <path id="Trazado_99249" data-name="Trazado 99249" d="M490.231,88.432a.7.7,0,1,0,.7-.669A.684.684,0,0,0,490.231,88.432Z" transform="translate(-483.942 -87.763)" fill="#fff"/>
              <path id="Trazado_99250" data-name="Trazado 99250" d="M498.677,88.432a.7.7,0,1,0,.7-.669A.684.684,0,0,0,498.677,88.432Z" transform="translate(-498.677 -87.763)" fill="#fff"/>
            </g>
            <g id="Grupo_53312" data-name="Grupo 53312" transform="translate(0 32.077)">
              <ellipse id="Elipse_3970" data-name="Elipse 3970" cx="0.699" cy="0.668" rx="0.699" ry="0.668" transform="translate(62.891)" fill="#fff"/>
              <path id="Trazado_99251" data-name="Trazado 99251" d="M422.66,95.939a.7.7,0,1,0,.7-.668A.684.684,0,0,0,422.66,95.939Z" transform="translate(-366.058 -95.271)" fill="#fff"/>
              <ellipse id="Elipse_3971" data-name="Elipse 3971" cx="0.699" cy="0.668" rx="0.699" ry="0.668" transform="translate(50.313)" fill="#fff"/>
              <path id="Trazado_99252" data-name="Trazado 99252" d="M439.553,95.939a.7.7,0,1,0,.7-.668A.684.684,0,0,0,439.553,95.939Z" transform="translate(-395.529 -95.271)" fill="#fff"/>
              <path id="Trazado_99253" data-name="Trazado 99253" d="M448,95.939a.7.7,0,1,0,.7-.668A.684.684,0,0,0,448,95.939Z" transform="translate(-410.264 -95.271)" fill="#fff"/>
              <ellipse id="Elipse_3972" data-name="Elipse 3972" cx="0.699" cy="0.668" rx="0.699" ry="0.668" transform="translate(31.445)" fill="#fff"/>
              <path id="Trazado_99254" data-name="Trazado 99254" d="M464.892,95.939a.7.7,0,1,0,.7-.668A.684.684,0,0,0,464.892,95.939Z" transform="translate(-439.736 -95.271)" fill="#fff"/>
              <ellipse id="Elipse_3973" data-name="Elipse 3973" cx="0.699" cy="0.668" rx="0.699" ry="0.668" transform="translate(18.867)" fill="#fff"/>
              <ellipse id="Elipse_3974" data-name="Elipse 3974" cx="0.699" cy="0.668" rx="0.699" ry="0.668" transform="translate(12.578)" fill="#fff"/>
              <path id="Trazado_99255" data-name="Trazado 99255" d="M490.231,95.939a.7.7,0,1,0,.7-.668A.685.685,0,0,0,490.231,95.939Z" transform="translate(-483.942 -95.271)" fill="#fff"/>
              <path id="Trazado_99256" data-name="Trazado 99256" d="M498.677,95.939a.7.7,0,1,0,.7-.668A.684.684,0,0,0,498.677,95.939Z" transform="translate(-498.677 -95.271)" fill="#fff"/>
            </g>
            <g id="Grupo_53313" data-name="Grupo 53313" transform="translate(0 37.423)">
              <path id="Trazado_99257" data-name="Trazado 99257" d="M414.214,103.447a.7.7,0,1,0,.7-.668A.684.684,0,0,0,414.214,103.447Z" transform="translate(-351.323 -102.779)" fill="#fff"/>
              <path id="Trazado_99258" data-name="Trazado 99258" d="M422.66,103.447a.7.7,0,1,0,.7-.668A.684.684,0,0,0,422.66,103.447Z" transform="translate(-366.058 -102.779)" fill="#fff"/>
              <path id="Trazado_99259" data-name="Trazado 99259" d="M431.106,103.447a.7.7,0,1,0,.7-.668A.684.684,0,0,0,431.106,103.447Z" transform="translate(-380.793 -102.779)" fill="#fff"/>
              <path id="Trazado_99260" data-name="Trazado 99260" d="M439.553,103.447a.7.7,0,1,0,.7-.668A.684.684,0,0,0,439.553,103.447Z" transform="translate(-395.529 -102.779)" fill="#fff"/>
              <path id="Trazado_99261" data-name="Trazado 99261" d="M448,103.447a.7.7,0,1,0,.7-.668A.684.684,0,0,0,448,103.447Z" transform="translate(-410.264 -102.779)" fill="#fff"/>
              <path id="Trazado_99262" data-name="Trazado 99262" d="M456.445,103.447a.7.7,0,1,0,.7-.668A.684.684,0,0,0,456.445,103.447Z" transform="translate(-424.999 -102.779)" fill="#fff"/>
              <path id="Trazado_99263" data-name="Trazado 99263" d="M464.892,103.447a.7.7,0,1,0,.7-.668A.684.684,0,0,0,464.892,103.447Z" transform="translate(-439.736 -102.779)" fill="#fff"/>
              <path id="Trazado_99264" data-name="Trazado 99264" d="M473.338,103.447a.7.7,0,1,0,.7-.668A.684.684,0,0,0,473.338,103.447Z" transform="translate(-454.471 -102.779)" fill="#fff"/>
              <path id="Trazado_99265" data-name="Trazado 99265" d="M481.784,103.447a.7.7,0,1,0,.7-.668A.684.684,0,0,0,481.784,103.447Z" transform="translate(-469.205 -102.779)" fill="#fff"/>
              <path id="Trazado_99266" data-name="Trazado 99266" d="M490.231,103.447a.7.7,0,1,0,.7-.668A.685.685,0,0,0,490.231,103.447Z" transform="translate(-483.942 -102.779)" fill="#fff"/>
              <path id="Trazado_99267" data-name="Trazado 99267" d="M498.677,103.447a.7.7,0,1,0,.7-.668A.684.684,0,0,0,498.677,103.447Z" transform="translate(-498.677 -102.779)" fill="#fff"/>
            </g>
            <g id="Grupo_53314" data-name="Grupo 53314" transform="translate(0 42.769)">
              <ellipse id="Elipse_3975" data-name="Elipse 3975" cx="0.699" cy="0.668" rx="0.699" ry="0.668" transform="translate(62.891)" fill="#fff"/>
              <path id="Trazado_99268" data-name="Trazado 99268" d="M422.66,110.955a.7.7,0,1,0,.7-.668A.684.684,0,0,0,422.66,110.955Z" transform="translate(-366.058 -110.287)" fill="#fff"/>
              <ellipse id="Elipse_3976" data-name="Elipse 3976" cx="0.699" cy="0.668" rx="0.699" ry="0.668" transform="translate(50.313)" fill="#fff"/>
              <path id="Trazado_99269" data-name="Trazado 99269" d="M439.553,110.955a.7.7,0,1,0,.7-.668A.685.685,0,0,0,439.553,110.955Z" transform="translate(-395.529 -110.287)" fill="#fff"/>
              <path id="Trazado_99270" data-name="Trazado 99270" d="M448,110.955a.7.7,0,1,0,.7-.668A.684.684,0,0,0,448,110.955Z" transform="translate(-410.264 -110.287)" fill="#fff"/>
              <ellipse id="Elipse_3977" data-name="Elipse 3977" cx="0.699" cy="0.668" rx="0.699" ry="0.668" transform="translate(31.445)" fill="#fff"/>
              <path id="Trazado_99271" data-name="Trazado 99271" d="M464.892,110.955a.7.7,0,1,0,.7-.668A.685.685,0,0,0,464.892,110.955Z" transform="translate(-439.736 -110.287)" fill="#fff"/>
              <ellipse id="Elipse_3978" data-name="Elipse 3978" cx="0.699" cy="0.668" rx="0.699" ry="0.668" transform="translate(18.867)" fill="#fff"/>
              <ellipse id="Elipse_3979" data-name="Elipse 3979" cx="0.699" cy="0.668" rx="0.699" ry="0.668" transform="translate(12.578)" fill="#fff"/>
              <path id="Trazado_99272" data-name="Trazado 99272" d="M490.231,110.955a.7.7,0,1,0,.7-.668A.685.685,0,0,0,490.231,110.955Z" transform="translate(-483.942 -110.287)" fill="#fff"/>
              <path id="Trazado_99273" data-name="Trazado 99273" d="M498.677,110.955a.7.7,0,1,0,.7-.668A.685.685,0,0,0,498.677,110.955Z" transform="translate(-498.677 -110.287)" fill="#fff"/>
            </g>
            <g id="Grupo_53315" data-name="Grupo 53315" transform="translate(0 48.115)">
              <path id="Trazado_99274" data-name="Trazado 99274" d="M414.214,118.463a.7.7,0,1,0,.7-.669A.685.685,0,0,0,414.214,118.463Z" transform="translate(-351.323 -117.794)" fill="#fff"/>
              <path id="Trazado_99275" data-name="Trazado 99275" d="M422.66,118.463a.7.7,0,1,0,.7-.669A.684.684,0,0,0,422.66,118.463Z" transform="translate(-366.058 -117.794)" fill="#fff"/>
              <path id="Trazado_99276" data-name="Trazado 99276" d="M431.106,118.463a.7.7,0,1,0,.7-.669A.684.684,0,0,0,431.106,118.463Z" transform="translate(-380.793 -117.794)" fill="#fff"/>
              <path id="Trazado_99277" data-name="Trazado 99277" d="M439.553,118.463a.7.7,0,1,0,.7-.669A.685.685,0,0,0,439.553,118.463Z" transform="translate(-395.529 -117.794)" fill="#fff"/>
              <path id="Trazado_99278" data-name="Trazado 99278" d="M448,118.463a.7.7,0,1,0,.7-.669A.684.684,0,0,0,448,118.463Z" transform="translate(-410.264 -117.794)" fill="#fff"/>
              <path id="Trazado_99279" data-name="Trazado 99279" d="M456.445,118.463a.7.7,0,1,0,.7-.669A.684.684,0,0,0,456.445,118.463Z" transform="translate(-424.999 -117.794)" fill="#fff"/>
              <path id="Trazado_99280" data-name="Trazado 99280" d="M464.892,118.463a.7.7,0,1,0,.7-.669A.685.685,0,0,0,464.892,118.463Z" transform="translate(-439.736 -117.794)" fill="#fff"/>
              <path id="Trazado_99281" data-name="Trazado 99281" d="M473.338,118.463a.7.7,0,1,0,.7-.669A.684.684,0,0,0,473.338,118.463Z" transform="translate(-454.471 -117.794)" fill="#fff"/>
              <path id="Trazado_99282" data-name="Trazado 99282" d="M481.784,118.463a.7.7,0,1,0,.7-.669A.684.684,0,0,0,481.784,118.463Z" transform="translate(-469.205 -117.794)" fill="#fff"/>
              <path id="Trazado_99283" data-name="Trazado 99283" d="M490.231,118.463a.7.7,0,1,0,.7-.669A.685.685,0,0,0,490.231,118.463Z" transform="translate(-483.942 -117.794)" fill="#fff"/>
              <path id="Trazado_99284" data-name="Trazado 99284" d="M498.677,118.463a.7.7,0,1,0,.7-.669A.685.685,0,0,0,498.677,118.463Z" transform="translate(-498.677 -117.794)" fill="#fff"/>
            </g>
            <g id="Grupo_53316" data-name="Grupo 53316" transform="translate(0 53.461)">
              <ellipse id="Elipse_3980" data-name="Elipse 3980" cx="0.699" cy="0.668" rx="0.699" ry="0.668" transform="translate(62.891 0)" fill="#fff"/>
              <path id="Trazado_99285" data-name="Trazado 99285" d="M422.66,125.971a.7.7,0,1,0,.7-.669A.684.684,0,0,0,422.66,125.971Z" transform="translate(-366.058 -125.302)" fill="#fff"/>
              <ellipse id="Elipse_3981" data-name="Elipse 3981" cx="0.699" cy="0.668" rx="0.699" ry="0.668" transform="translate(50.313 0)" fill="#fff"/>
              <path id="Trazado_99286" data-name="Trazado 99286" d="M439.553,125.971a.7.7,0,1,0,.7-.669A.684.684,0,0,0,439.553,125.971Z" transform="translate(-395.529 -125.302)" fill="#fff"/>
              <path id="Trazado_99287" data-name="Trazado 99287" d="M448,125.971a.7.7,0,1,0,.7-.669A.684.684,0,0,0,448,125.971Z" transform="translate(-410.264 -125.302)" fill="#fff"/>
              <ellipse id="Elipse_3982" data-name="Elipse 3982" cx="0.699" cy="0.668" rx="0.699" ry="0.668" transform="translate(31.445 0)" fill="#fff"/>
              <path id="Trazado_99288" data-name="Trazado 99288" d="M464.892,125.971a.7.7,0,1,0,.7-.669A.684.684,0,0,0,464.892,125.971Z" transform="translate(-439.736 -125.302)" fill="#fff"/>
              <ellipse id="Elipse_3983" data-name="Elipse 3983" cx="0.699" cy="0.668" rx="0.699" ry="0.668" transform="translate(18.867 0)" fill="#fff"/>
              <ellipse id="Elipse_3984" data-name="Elipse 3984" cx="0.699" cy="0.668" rx="0.699" ry="0.668" transform="translate(12.578 0)" fill="#fff"/>
              <path id="Trazado_99289" data-name="Trazado 99289" d="M490.231,125.971a.7.7,0,1,0,.7-.669A.684.684,0,0,0,490.231,125.971Z" transform="translate(-483.942 -125.302)" fill="#fff"/>
              <path id="Trazado_99290" data-name="Trazado 99290" d="M498.677,125.971a.7.7,0,1,0,.7-.669A.684.684,0,0,0,498.677,125.971Z" transform="translate(-498.677 -125.302)" fill="#fff"/>
            </g>
            <g id="Grupo_53317" data-name="Grupo 53317" transform="translate(0 58.808)">
              <ellipse id="Elipse_3985" data-name="Elipse 3985" cx="0.699" cy="0.668" rx="0.699" ry="0.668" transform="translate(62.891 0)" fill="#fff"/>
              <path id="Trazado_99291" data-name="Trazado 99291" d="M422.66,133.479a.7.7,0,1,0,.7-.669A.684.684,0,0,0,422.66,133.479Z" transform="translate(-366.058 -132.81)" fill="#fff"/>
              <ellipse id="Elipse_3986" data-name="Elipse 3986" cx="0.699" cy="0.668" rx="0.699" ry="0.668" transform="translate(50.313 0)" fill="#fff"/>
              <path id="Trazado_99292" data-name="Trazado 99292" d="M439.553,133.479a.7.7,0,1,0,.7-.669A.684.684,0,0,0,439.553,133.479Z" transform="translate(-395.529 -132.81)" fill="#fff"/>
              <path id="Trazado_99293" data-name="Trazado 99293" d="M448,133.479a.7.7,0,1,0,.7-.669A.684.684,0,0,0,448,133.479Z" transform="translate(-410.264 -132.81)" fill="#fff"/>
              <ellipse id="Elipse_3987" data-name="Elipse 3987" cx="0.699" cy="0.668" rx="0.699" ry="0.668" transform="translate(31.445 0)" fill="#fff"/>
              <path id="Trazado_99294" data-name="Trazado 99294" d="M464.892,133.479a.7.7,0,1,0,.7-.669A.684.684,0,0,0,464.892,133.479Z" transform="translate(-439.736 -132.81)" fill="#fff"/>
              <ellipse id="Elipse_3988" data-name="Elipse 3988" cx="0.699" cy="0.668" rx="0.699" ry="0.668" transform="translate(18.867 0)" fill="#fff"/>
              <ellipse id="Elipse_3989" data-name="Elipse 3989" cx="0.699" cy="0.668" rx="0.699" ry="0.668" transform="translate(12.578 0)" fill="#fff"/>
              <path id="Trazado_99295" data-name="Trazado 99295" d="M490.231,133.479a.7.7,0,1,0,.7-.669A.684.684,0,0,0,490.231,133.479Z" transform="translate(-483.942 -132.81)" fill="#fff"/>
              <path id="Trazado_99296" data-name="Trazado 99296" d="M498.677,133.479a.7.7,0,1,0,.7-.669A.684.684,0,0,0,498.677,133.479Z" transform="translate(-498.677 -132.81)" fill="#fff"/>
            </g>
          </g>
        </g>
        <g id="Grupo_80128" data-name="Grupo 80128" transform="translate(13.305)">
          <path id="Trazado_145967" data-name="Trazado 145967" d="M118.7,0A118.7,118.7,0,1,0,237.4,118.7,118.7,118.7,0,0,0,118.7,0Z" transform="translate(0 41.748)" fill="#4dcbbf"/>
          <g id="Trazado_145976" data-name="Trazado 145976" transform="translate(13.163 52.566)" fill="none">
            <path d="M106.027,0A106.027,106.027,0,1,0,212.055,106.027,106.027,106.027,0,0,0,106.027,0Z" stroke="none"/>
            <path d="M 106.0273361206055 3.999984741210938 C 99.10231018066406 3.999984741210938 92.18280792236328 4.6973876953125 85.46104431152344 6.072860717773438 C 78.91215515136719 7.412979125976562 72.470458984375 9.412567138671875 66.31492614746094 12.01615905761719 C 60.27024841308594 14.57283020019531 54.43983459472656 17.73751831054688 48.98565673828125 21.42227172851562 C 43.582275390625 25.07275390625 38.50103759765625 29.26516723632812 33.88310241699219 33.88310241699219 C 29.26516723632812 38.50103759765625 25.07275390625 43.582275390625 21.42227172851562 48.98565673828125 C 17.73751831054688 54.43983459472656 14.57283020019531 60.27021789550781 12.01615905761719 66.31492614746094 C 9.412567138671875 72.470458984375 7.412979125976562 78.91212463378906 6.072860717773438 85.46101379394531 C 4.6973876953125 92.18277740478516 3.999984741210938 99.10231018066406 3.999984741210938 106.0273361206055 C 3.999984741210938 112.9523620605469 4.6973876953125 119.8718643188477 6.072860717773438 126.5936279296875 C 7.412979125976562 133.1425170898438 9.412567138671875 139.584228515625 12.01615905761719 145.73974609375 C 14.57283020019531 151.784423828125 17.73751831054688 157.6148071289062 21.42227172851562 163.0689849853516 C 25.07275390625 168.4723663330078 29.26516723632812 173.5536041259766 33.88310241699219 178.1715393066406 C 38.50103759765625 182.7894897460938 43.582275390625 186.9819030761719 48.98565673828125 190.6323699951172 C 54.43983459472656 194.317138671875 60.27024841308594 197.4818115234375 66.31492614746094 200.0384826660156 C 72.470458984375 202.6420745849609 78.91215515136719 204.6416625976562 85.46104431152344 205.9817810058594 C 92.18280792236328 207.3572540283203 99.10231018066406 208.0546569824219 106.0273361206055 208.0546569824219 C 112.9523620605469 208.0546569824219 119.8718948364258 207.3572540283203 126.5936279296875 205.9817810058594 C 133.1425476074219 204.6416625976562 139.584228515625 202.6420745849609 145.73974609375 200.0384826660156 C 151.784423828125 197.4818115234375 157.6148376464844 194.317138671875 163.0690155029297 190.6323699951172 C 168.4723968505859 186.9819183349609 173.5536346435547 182.7894897460938 178.1715393066406 178.1715393066406 C 182.7894897460938 173.5536041259766 186.9819183349609 168.4723663330078 190.6323699951172 163.0689849853516 C 194.317138671875 157.6148376464844 197.4818115234375 151.784423828125 200.0384826660156 145.73974609375 C 202.6420745849609 139.584228515625 204.6416625976562 133.1425170898438 205.9817810058594 126.5936279296875 C 207.3572540283203 119.8718643188477 208.0546569824219 112.9523620605469 208.0546569824219 106.0273361206055 C 208.0546569824219 99.10231018066406 207.3572540283203 92.18277740478516 205.9817810058594 85.46101379394531 C 204.6416625976562 78.91212463378906 202.6420745849609 72.470458984375 200.0384826660156 66.31492614746094 C 197.4818115234375 60.27021789550781 194.317138671875 54.43983459472656 190.6323699951172 48.98565673828125 C 186.9819183349609 43.582275390625 182.7894897460938 38.50103759765625 178.1715393066406 33.88310241699219 C 173.5536346435547 29.26516723632812 168.4723968505859 25.07275390625 163.0690155029297 21.42227172851562 C 157.6148376464844 17.73751831054688 151.784423828125 14.57283020019531 145.73974609375 12.01615905761719 C 139.584228515625 9.412567138671875 133.1425476074219 7.412979125976562 126.5936279296875 6.072860717773438 C 119.8718948364258 4.6973876953125 112.9523620605469 3.999984741210938 106.0273361206055 3.999984741210938 M 106.0273361206055 -1.52587890625e-05 C 164.5846252441406 -1.52587890625e-05 212.0546569824219 47.47004699707031 212.0546569824219 106.0273361206055 C 212.0546569824219 164.5845947265625 164.5846252441406 212.0546569824219 106.0273361206055 212.0546569824219 C 47.47007751464844 212.0546569824219 -1.52587890625e-05 164.5845947265625 -1.52587890625e-05 106.0273361206055 C -1.52587890625e-05 47.47004699707031 47.47007751464844 -1.52587890625e-05 106.0273361206055 -1.52587890625e-05 Z" stroke="none" fill="#fff"/>
          </g>
          <g id="Grupo_80126" data-name="Grupo 80126" transform="translate(13.168 119.178)">
            <g id="Grupo_80125" data-name="Grupo 80125" clip-path="url(#clip-path)">
              <path id="Trazado_145977" data-name="Trazado 145977" d="M10.007,0a102.82,102.82,0,0,0-5.2,17.383,104.34,104.34,0,0,0,0,41.65,102.746,102.746,0,0,0,15.545,36.94,103.883,103.883,0,0,0,27.91,27.91,103.282,103.282,0,0,0,17.549,9.526,102.773,102.773,0,0,0,19.39,6.019,104.371,104.371,0,0,0,41.65,0,102.773,102.773,0,0,0,19.39-6.019,103.307,103.307,0,0,0,17.549-9.526,103.885,103.885,0,0,0,27.91-27.91A103.346,103.346,0,0,0,202.049,0h2.906A106.028,106.028,0,1,1,7.1,0Z" fill="#fff"/>
            </g>
          </g>
          <g id="Grupo_1062942" data-name="Grupo 1062942" transform="translate(21.165 15.331)">
            <g id="Grupo_1046548" data-name="Grupo 1046548" clip-path="url(#clip-path-2)">
              <g id="Grupo_1046547" data-name="Grupo 1046547" transform="translate(0 0.001)">
                <g id="Grupo_1046546" data-name="Grupo 1046546" clip-path="url(#clip-path-2)">
                  <path id="Trazado_779055" data-name="Trazado 779055" d="M.26,304.917c.32-4.368.565-8.743,1.088-13.093.438-3.636,2.334-6.853,3.811-10.138A20.558,20.558,0,0,0,6.838,270.01c-.628-4.122-2.372-8-2.952-12.116A18.218,18.218,0,0,1,5.9,246.578,32.165,32.165,0,0,1,12.751,238c2.808-2.505,6.142-4.163,9.294-6.18a50.431,50.431,0,0,0,9.223-7.393c.514-.533,1.008-1.086,1.491-1.65.158-.449.308-.9.453-1.357a31.914,31.914,0,0,0,1.361-7.618c.346-5.151.216-10.333.511-15.49.278-4.868,1.1-9.763,3.543-14.045a21.383,21.383,0,0,1,9.832-8.965c1.919-.846,3.948-1.414,5.932-2.087a26.582,26.582,0,0,0,5.767-2.959,44.52,44.52,0,0,0,5.247-3.909c1.7-1.477,3.278-3.093,5-4.533,1.42-1.185,2.919-2.268,4.228-3.58a35.929,35.929,0,0,0,3.74-5.264,37.6,37.6,0,0,1,3.742-4.64c1.306-1.366,2.813-2.536,3.7-4.239.485-.932,1.9-.1,1.421.826-1.032,1.98-2.825,3.337-4.317,4.95a44.483,44.483,0,0,0-4.7,6.3,21.351,21.351,0,0,1-4.722,5.252c-1.982,1.6-3.822,3.314-5.719,5.011-3.9,3.484-8.243,6.753-13.264,8.456a40.821,40.821,0,0,0-7.258,2.833,19.544,19.544,0,0,0-5.149,4.4c-3.2,3.767-4.627,8.543-5.159,13.376-.564,5.128-.48,10.339-.615,15.492a45.116,45.116,0,0,1-.968,8.548c.425-.541.848-1.081,1.277-1.613a50.065,50.065,0,0,0,4.724-6.763c2.9-5.155,3.751-10.934,4.942-16.637.216-1.03,1.8-.6,1.59.424a94.857,94.857,0,0,1-2.724,11.671,36.855,36.855,0,0,1-5.548,10.132c-1.154,1.534-2.377,3.016-3.585,4.507-.6.744-1.193,1.494-1.8,2.232q-.39,1.1-.87,2.2a17.5,17.5,0,0,1-4.185,5.732c-1.755,1.628-3.683,3.087-5.314,4.84-.789.848-1.517,1.751-2.278,2.624-.854.98-1.806,1.864-2.693,2.813a25.892,25.892,0,0,0-4.454,6.139c-1.937,3.982-1.93,8.947-1.181,13.231.424,2.428,1.48,4.7,1.819,7.149a20.037,20.037,0,0,1-.284,7.108,37.614,37.614,0,0,1-2.86,6.975,52.039,52.039,0,0,0-2.861,7.372,25.014,25.014,0,0,0-.237,11.577,90.634,90.634,0,0,0,3.226,10.835,32.01,32.01,0,0,0,2.332,5.279,16.169,16.169,0,0,0,1.816,2.777c.345.409,1.05,1.257,1.67,1.15,1.036-.177,1.467,1.4.422,1.576-2.74.469-4.6-3.3-5.616-5.234a60.894,60.894,0,0,1-3.643-9.3c-1.667-5.079-2.92-10.456-2.225-15.805.666-5.131,3.164-9.777,5.239-14.444a16.954,16.954,0,0,0,1.543-7.207,26.09,26.09,0,0,0-1.445-7.466,25.773,25.773,0,0,1-.263-13.246c1.186-4.812,4.686-8.286,7.966-11.8a46.909,46.909,0,0,1,4.982-5.255c.89-.7,1.707-1.541,2.559-2.289a19.057,19.057,0,0,0,2.613-2.675c.172-.224.334-.453.49-.684a56.7,56.7,0,0,1-7.461,5.653c-3.153,2.046-6.5,3.686-9.315,6.2A29.6,29.6,0,0,0,7,248.019a17.066,17.066,0,0,0-1.145,11.538c.464,2.051,1.172,4.053,1.711,6.088a34.824,34.824,0,0,1,1.119,6.146,22.679,22.679,0,0,1-2.377,11.321c-.762,1.659-1.607,3.281-2.276,4.981A21,21,0,0,0,2.78,293.7c-.458,4.329-.669,8.68-1.013,13.018a31.106,31.106,0,0,0,.93,10.46,24.126,24.126,0,0,0,2.5,6.132,24.139,24.139,0,0,0,4.089,4.965,13.325,13.325,0,0,0,5.829,3.279,22.33,22.33,0,0,0,8.236.191c1.052-.121,1.043,1.51.005,1.629-4.054.465-8.093.44-11.808-1.472A21.2,21.2,0,0,1,4.5,325.239,24.945,24.945,0,0,1,.666,315.7a33.3,33.3,0,0,1-.646-5.246,46.985,46.985,0,0,1,.24-5.538" transform="translate(0 -120.922)" fill="#fa8397"/>
                  <path id="Trazado_779056" data-name="Trazado 779056" d="M1049.928,375.306c.007-1.063,1.649-.975,1.642.08-.015,2.194-.505,4.343-.533,6.529-.029,2.242.423,4.462.565,6.7.29,4.558,1.9,8.942,3.16,13.293,1.11,3.833,3.393,6.962,5.87,10.028,1.24,1.535,2.495,3.058,3.647,4.661a30.954,30.954,0,0,1,3.019,5.485,28.119,28.119,0,0,1,2.33,12.285,61.1,61.1,0,0,1-1.992,13.88,51.085,51.085,0,0,0-1.974,13.186,38.245,38.245,0,0,0,2.114,12.876c1.536,4.2,3.513,8.218,5.059,12.412a25.123,25.123,0,0,1,1.594,6.362,25.731,25.731,0,0,1-.239,6.406c-1.174,7.526-4.859,14.926-11.092,19.491a13.843,13.843,0,0,1-8.4,2.988.822.822,0,0,1,.08-1.642c3.553.088,6.744-1.945,9.273-4.262a25.323,25.323,0,0,0,6.137-8.753,31.019,31.019,0,0,0,2.7-12.549c-.065-4.525-2-8.712-3.743-12.8-1.716-4.021-3.531-8.031-4.378-12.345a42.233,42.233,0,0,1-.5-12.96c.539-4.517,1.962-8.828,2.805-13.282a55.486,55.486,0,0,0,.831-7.115,34.494,34.494,0,0,0-.121-6.728,29.681,29.681,0,0,0-4.584-11.594,50.59,50.59,0,0,0-3.655-4.73c-1.215-1.5-2.4-3.017-3.47-4.626-2.349-3.535-3.342-7.622-4.5-11.656a65.343,65.343,0,0,1-2.108-13.222c-.212-2.831.438-5.569.457-8.393" transform="translate(-883.148 -315.204)" fill="#fa8397"/>
                  <path id="Trazado_779057" data-name="Trazado 779057" d="M120.94,40.409s-9.351,4.7-17.8,16.9c-9.23,13.332-2.113,26.06-12.208,39.443-7.116,9.433-24.417,23.243-23.008,43.9s-6.809,35.921-3.052,50.007,12.279,36.56,26.6,37.969,120.605-9.091,120.605-9.091,26.53-10.565,28.878-33.338-12.913-26.53-7.278-51.886S214.891,94.877,221.23,76.564s13.383-38.269.47-56.346a31.5,31.5,0,0,0-11.035-6.574c-6.808-2.348-9.156-8.687-18.078-11.5s-28.516-4.908-44.138,7.747C129.9,24.913,135.066,30.079,120.94,40.409" transform="translate(-53.755 -0.005)" fill="#fa8397"/>
                  <path id="Trazado_779058" data-name="Trazado 779058" d="M875.86,518.137l.657-.353c-8.717-16.228-6.121-27.077-4.035-35.794a55.32,55.32,0,0,1,8.125-17.465l-.6-.443a56.132,56.132,0,0,0-8.25,17.735c-1.2,5.033-2.266,10.03-2.025,15.81.277,6.641,2.281,13.35,6.127,20.51" transform="translate(-731.897 -390.55)" fill="#fff"/>
                  <path id="Trazado_779059" data-name="Trazado 779059" d="M388.121,185.686s12.83,8.275,31.052-3.136c16.469-10.313,44.781-34.194,41.494-53.211s-18.782-26.06-28.408-25.591-33.338,6.1-43.2,20.66c0,0-6.339-6.339-11.5-.235s-2.583,10.33,0,13.148a306.844,306.844,0,0,0-25.814,65.731s3.579,21.172,28.632,35.223c29.288,16.427,27.879,2.722,12.853-3.851l-6.984-37.7a31.24,31.24,0,0,1,1.878-11.035" transform="translate(-296.009 -87.292)" fill="#ffcaac"/>
                  <path id="Trazado_779060" data-name="Trazado 779060" d="M627.37,97.02a11.994,11.994,0,0,0-7.278-6.809c-11.5-3.756-13.852,7.513-24.887,10.1s-20.987-.7-24.651-3.052-4.7-11.034,0-15.73,48.834-16.948,61.512-4.952,19.487,26.317,12.912,44.16-14,9.889-14,9.889,9.038-14.437,6.016-24.445c-2.452-8.122-5.5-8.537-9.626-9.156" transform="translate(-477.502 -60.138)" fill="#fa8397"/>
                  <path id="Trazado_779061" data-name="Trazado 779061" d="M959.463,98.563a17.98,17.98,0,0,0,3.023-5.373,18.48,18.48,0,0,0,1.142-5.975,18.843,18.843,0,0,0-1.429-7.521l-.692.28a18,18,0,0,1-2.6,18.093Z" transform="translate(-806.969 -67.067)" fill="#fff"/>
                  <path id="Trazado_779072" data-name="Trazado 779072" d="M329.687,393.238s-7.854,10.078-5.159,17.427,19.353.735,22.293,0a10.914,10.914,0,0,1,4.165-.49s34.786,31.112,35.277,53.65-16.414,26.457-25.233,29.4-41.4.245-48.261-3.675-36.257-66.879-36.257-66.879,8.5-6.073,10.044-11.514c2.282-8.049,14.735-41.949,25.269-57.138,0,0,20.625,3.454,17.862,39.22" transform="translate(-232.699 -297.925)" fill="#ffcaac"/>
                  <path id="Trazado_779073" data-name="Trazado 779073" d="M537.033,493.491l.415-.62c-5.855-3.926-8.371-10.626-9.451-15.555a41.553,41.553,0,0,1-.95-9.916l-.745-.04a42.334,42.334,0,0,0,.962,10.1,31.983,31.983,0,0,0,3.128,8.606,20.932,20.932,0,0,0,6.64,7.427" transform="translate(-442.895 -393.309)" fill="#ad595f"/>
                  <path id="Trazado_779074" data-name="Trazado 779074" d="M989.879,270.272a23.3,23.3,0,0,1,.6-6.476,29.6,29.6,0,0,1,2.394-6.739c5.8-11.195,4.395-17.628,2.071-28.287-.38-1.742-.773-3.544-1.166-5.511a29,29,0,0,1-.164-11.938,48.164,48.164,0,0,1,3.431-9.558,79.611,79.611,0,0,0,4.018-10.609,16.97,16.97,0,0,0-2.631-15.04,22.54,22.54,0,0,0-5.43-5.44l.405-.627a22.838,22.838,0,0,1,5.62,5.616,19.064,19.064,0,0,1,3.059,6.7,17.83,17.83,0,0,1-.305,9,80.125,80.125,0,0,1-4.053,10.7c-2.853,6.486-5.106,11.609-3.218,21.049.392,1.961.784,3.759,1.163,5.5,1.176,5.391,2.1,9.65,2.021,14.089-.09,4.787-1.372,9.321-4.16,14.7a29.408,29.408,0,0,0-2.331,6.575c-.78,3.45-1.193,8.466,1.269,12.765l-.648.37a15.428,15.428,0,0,1-1.946-6.843m3.124-99.6.2-.313Z" transform="translate(-833.008 -143.105)" fill="#fff"/>
                  <path id="Trazado_779075" data-name="Trazado 779075" d="M273.55,191.093l.732-.149a51.531,51.531,0,0,1-.776-8.9,48.1,48.1,0,0,1,3.413-18.735c2.237-5.266,5.6-8.718,9.161-12.372,5.313-5.451,10.806-11.089,12.932-23.279,1.759-10.086,4.425-15.664,8.914-18.653,4.64-3.089,11.493-3.569,21.047-3.342,5.888.14,10.681-.831,14.65-2.968a32.968,32.968,0,0,0,8.242-6.815c2.374-2.469,4.616-4.8,7.79-6.214,4.76-2.119,9.791-.213,13.173,1.759a31.9,31.9,0,0,1,6.309,4.882l.541-.514a32.072,32.072,0,0,0-6.474-5.012,20.6,20.6,0,0,0-6.516-2.554,12.2,12.2,0,0,0-7.336.758c-3.308,1.472-5.6,3.855-8.025,6.379-4.66,4.847-9.479,9.86-22.336,9.554a78.984,78.984,0,0,0-12.647.451,20.656,20.656,0,0,0-8.831,3.016,16.643,16.643,0,0,0-5.759,6.981,47.806,47.806,0,0,0-3.476,12.165c-2.086,11.963-7.5,17.517-12.731,22.887-3.611,3.706-7.022,7.206-9.313,12.6a48.858,48.858,0,0,0-3.473,19.05,52.321,52.321,0,0,0,.791,9.025" transform="translate(-229.54 -74.045)" fill="#fff"/>
                  <path id="Trazado_779076" data-name="Trazado 779076" d="M698.12,1014.21a30.512,30.512,0,0,1,.334-7.292c.99-.5,4.725-4.47,5.42-4.827a3.333,3.333,0,0,0,1.017-.756c.174-1.426-2.467-.639-3.237-.061s-1.136.21-1.136.21c.254-2.912,3.4-7.523,2.721-8.644s-2.475,2.184-3.3,3.894-1.21,1.268-1.31,1,2.809-6.5,1.79-6.678-2.664,4.382-2.916,5.091-.412,1.274-.688.764,1.063-6.273,1.117-6.573-.177-1.182-1.017-.315-1.661,4.621-1.9,5.939-.606.95-.606.95c-.663-1.894.9-5.707.674-6.187s-.784-.85-1.713.964c-.637,1.245-2.957,9.357-3.288,19.971,2.638.974,5.318,1.834,8.037,2.546" transform="translate(-580.741 -832.848)" fill="#ffb38e"/>
                  <path id="Trazado_779077" data-name="Trazado 779077" d="M1069.945,1150.628s13.229,24.252,11.759,40.176c0,0-5.88,9.554-21.068,8.33l-5.9-29.168-.167-7.408Z" transform="translate(-887.475 -968.314)" fill="#66466a"/>
                  <path id="Trazado_779078" data-name="Trazado 779078" d="M1087.8,478.895a1.972,1.972,0,0,0,.746-.089c.617-.282,1.093.66.472.944a3,3,0,0,1-1.269.2.528.528,0,1,1,.052-1.055" transform="translate(-914.978 -402.897)" fill="#66466a"/>
                  <path id="Trazado_779079" data-name="Trazado 779079" d="M304.51,835.182s-24.987-1.47-39.2-22.293a189.188,189.188,0,0,1-21.393-43.213l-10.7,6.711,38.462,83.292,35.767-3.185Z" transform="translate(-196.268 -647.723)" fill="#ffe8dd"/>
                  <path id="Trazado_779080" data-name="Trazado 779080" d="M720.245,706.326s23.763,19.6,31.6,43.606l14.7-11.514s-18.373-24.253-23.15-27.927a27.385,27.385,0,0,0-23.151-4.165" transform="translate(-606.124 -593.586)" fill="#66466a"/>
                  <path id="Trazado_779081" data-name="Trazado 779081" d="M167.453,801.58s-13.664,7.291-15.379,8.271,12.739,53.16,12.739,53.16l10.779,42.626s36.256,21.313,39.2,1.47-9.064-26.7-9.064-26.7-23.137-38.589-38.271-78.824" transform="translate(-127.859 -674.572)" fill="#66466a"/>
                  <path id="Trazado_779082" data-name="Trazado 779082" d="M846.008,924.431s-3.543-19.321,8.574-24.987c0,0,7.125-9.735,10.544-12s19.588-5.634,28.407,4.655,11.514,29.4-3.185,40.421-21.558,6.859-21.558,6.859Z" transform="translate(-711.554 -744.812)" fill="#ffb38e"/>
                  <path id="Trazado_779083" data-name="Trazado 779083" d="M965.03,1041.141c-2.894,0-5.443-2.951-5.555-3.083l.622-.529c.025.029,2.419,2.8,4.935,2.8a3.333,3.333,0,0,0,.341-.018c1.284-.133,2.4-1.045,3.307-2.71.991-1.812,1.2-3.391.613-4.692-1.03-2.291-4.176-3.036-4.208-3.043l.182-.8c.146.033,3.576.847,4.771,3.5.7,1.547.479,3.37-.641,5.418-1.048,1.916-2.374,2.969-3.942,3.131a4.172,4.172,0,0,1-.424.021" transform="translate(-807.448 -866.014)" fill="#ad595f"/>
                  <path id="Trazado_779084" data-name="Trazado 779084" d="M705.352,1129.936s2.565-7.253,1.038-12.323a49.019,49.019,0,0,1-8.142,0c-2.844-.421-10.044-15.114-16.658-17.319s-15.679,1.47-22.538,12.739c0,0,2.7-11.018,0-13.348a10.917,10.917,0,0,0-11.269-1.6c-4.41,1.715-8.819,23.762-6.125,26.948s5.634,4.655,24.5,4.9,39.2,0,39.2,0" transform="translate(-539.295 -923.37)" fill="#b688b9"/>
                  <path id="Trazado_779085" data-name="Trazado 779085" d="M622.763,1001.238a16.943,16.943,0,0,0-2.224-4.029,12.922,12.922,0,0,0-7.521-5.136l.173-.8a13.6,13.6,0,0,1,8.02,5.47,18.682,18.682,0,0,1,1.194,1.839,24.845,24.845,0,0,1,1.934-10.821A27.828,27.828,0,0,1,627.477,982l.651.492a27.61,27.61,0,0,0-3.042,5.6,22.841,22.841,0,0,0-1.538,12.932Z" transform="translate(-515.887 -826.402)" fill="#ad595f"/>
                  <path id="Trazado_779086" data-name="Trazado 779086" d="M400.547,1292.494s-25.233-5.035-35.032,0-13.4,28.553-13.8,30.268,20.917,27.927,42.96,23.518c0,0,12.733,11.514,27.187,7.839s26.589-19.353,35.71-43.606Z" transform="translate(-295.98 -1085.819)" fill="#b688b9"/>
                  <path id="Trazado_779087" data-name="Trazado 779087" d="M57.724,957.757c.164-.653,0-1.307.164-1.959,0,0,.327.081.327,0,.163-.327,0-.653.163-.98,0-.082.327.082.408,0s-.082-.408,0-.49c.408-.408.653-.653.49-.98.326,0,.816.082.9-.082.245-.49,0-1.225.163-1.878,0,0,.327.081.408,0s-.082-.327,0-.49.408-.327.49-.49-.082-.408,0-.49c.408-.408.653-.653.49-.98.163,0,.408.082.408,0,.163-.327,0-.653.163-.98,0-.082.326.081.408,0s-.082-.409,0-.49.408.081.408,0c.163-.326,0-.653.163-.98,0-.082.327.082.327,0,.163-.327,0-.653.163-.98,0-.082.327.082.408,0s-.082-.409,0-.49.408.082.408,0c.163-.326,0-.735.163-.979.49-.654,1.143-1.062.9-1.96h.49c-.082-.572.326-.735.408-.98a2.734,2.734,0,0,1,.9-1.633c.49-.49.082-1.8.245-2.776,0,0,.326.082.326,0,.164-.327,0-.735.164-.98.327-.408.571-.653.408-.98.163,0,.408.082.408,0a.664.664,0,0,0,.033-.079q-1.631-1.4-3.238-2.866s16.233-85.008-8.3-85.742a22.825,22.825,0,0,0-12.771,10.289c-4.788,8.365-11.514,76.678-5.389,87.7,1.813,3.264,8.595,8.439,18.059,13.9,0-.06.006-.121.009-.181Z" transform="translate(-31.038 -711.99)" fill="#66466a"/>
                  <path id="Trazado_779088" data-name="Trazado 779088" d="M284.666,1414.971c-1.96-2.2-8.284,9.973-10.742,10.708s12-14.7,9.057-16.169-10.044,11.763-15.433,14.088c0,0,10.394-12.607,8.574-14.823-1.61-1.96-7.594,8.574-22.048,16.9,0,0-3.184.494-1.715-2.08s8.329-9.189,5.389-12.128a47.948,47.948,0,0,0-10.289,9.064c-4.41,5.39-5.389,14.209-7.349,15.923-1.886,1.65-34.4-7.363-62.171-31.185a.7.7,0,0,1-.033.08c0,.082-.245,0-.408,0,.163.327-.081.572-.408.98-.164.245,0,.653-.164.98,0,.081-.326,0-.326,0-.164.979.245,2.286-.245,2.776a2.733,2.733,0,0,0-.9,1.633c-.082.245-.49.408-.408.98h-.49c.245.9-.408,1.306-.9,1.96-.163.245,0,.653-.163.98,0,.082-.327-.082-.408,0s.082.408,0,.49-.408-.082-.408,0c-.163.326,0,.653-.163.98,0,.082-.327-.082-.327,0-.163.327,0,.653-.163.98,0,.081-.326-.082-.408,0s.082.408,0,.49-.408-.082-.408,0c-.163.327,0,.653-.163.98,0,.082-.245,0-.408,0,.163.327-.082.571-.49.98-.082.082.082.327,0,.49s-.409.327-.49.49.081.408,0,.49-.408,0-.408,0c-.163.653.082,1.388-.163,1.878-.082.163-.572.082-.9.082.164.327-.082.572-.49.98-.082.082.081.408,0,.49s-.409-.082-.409,0c-.163.327,0,.653-.163.98,0,.082-.327,0-.327,0-.164.653,0,1.307-.164,1.959h-.326c0,.061-.006.121-.009.181,22.5,12.991,60.162,27.618,82.308,22.108,0,0,16.662-11.514,19.741-12.739s9.48-9.092,10.705-11.787,6.337-10.351,5.609-11.17" transform="translate(-139.953 -1182.61)" fill="#ffcaac"/>
                  <path id="Trazado_779089" data-name="Trazado 779089" d="M449.353,1270.349c1.07-1.427,14.69,1.077,19.594,1.281s8.333.531,12.5,0,44.546.663,51.18-1.281,25.253,2.955,26.967,20.839c0,0-2.45,20.333-72.513-1.225,0,0-2.94,0-9.309,3.429s-25.014,20.333-27.192,17.884c-2.759-3.1,12-11.65,10.272-12.116,0,0-19.319,11.386-21.418,8.932-2.989-3.494,19.971-13.235,18.756-15.509-.653-1.223-21.573,13.3-23.778,8.895s21.808-13.1,20.823-14.208c-1.8-2.035-18.894,8.819-20.961,5.389s24.01-13.462,24.459-16.169-11.582-3.2-9.378-6.14" transform="translate(-365.364 -1068.698)" fill="#ffcaac"/>
                  <path id="Trazado_779090" data-name="Trazado 779090" d="M1259.718,1049.566a1.563,1.563,0,0,1,2-1.244,3.111,3.111,0,0,1,1.972,1.543c.852,1.461.564,3.631-1.119,4.331-.683.285-1.207-.746-.517-1.033a1.771,1.771,0,0,0,.789-2.386,2.256,2.256,0,0,0-.933-1.164,1.366,1.366,0,0,0-.745-.2c-.262.022-.3.3-.35.509-.167.728-1.266.369-1.1-.351" transform="translate(-1060.104 -882.169)" fill="#66466a"/>
                  <path id="Trazado_779091" data-name="Trazado 779091" d="M375.237,118.661c-.18-2.929-.716-9.641-4.157-10.7-1.469,1.33-1,3.331-.662,5.059-.145-1.062-2.432-2.769-3.545-1.787-1.3,1.145,1.305,2.609,2,3.194,1.177,1,2.212,1.785,3.453,2.676.664.477,2.827,1.679,2.759,2.18Z" transform="translate(-308.442 -90.855)" fill="#fcc4d4"/>
                  <path id="Trazado_779092" data-name="Trazado 779092" d="M1005.9,1538.017c-1.1-.523-2.376-.471-3.47-.992a.461.461,0,0,0-.658.429c-.015.376-.315.589-.551.843a1.582,1.582,0,0,0-.37.664h-.631c-.588,0-.539.908.044.908h.992a.461.461,0,0,0,.432-.476c.014-.376.315-.588.551-.843a1.576,1.576,0,0,0,.315-.5,23.155,23.155,0,0,1,2.938.784.455.455,0,0,0,.407-.813" transform="translate(-841.39 -1293.448)" fill="#66466a"/>
                  <path id="Trazado_779093" data-name="Trazado 779093" d="M108.069,1387.183a7.575,7.575,0,0,0,3.238,2.866c3.774,1.423.088,2.529-3.238,11.347s-6.285,14.86-8.4,13.554a109.932,109.932,0,0,1-11.945-9.428c-4.76-4.258,20.344-18.34,20.344-18.34" transform="translate(-73.32 -1167.388)" fill="#66466a"/>
                  <path id="Trazado_779094" data-name="Trazado 779094" d="M245.033,1084.934a17.854,17.854,0,0,0-1.647,4.578c-.2,1.79-.545,3.568-.842,5.345s-.414,3.567-.631,5.348c-.208,1.7-.465,3.4-.834,5.076a.409.409,0,0,0,.8.168c.358-1.625.607-3.271.815-4.922.216-1.724.312-3.472.6-5.185q.437-2.622.874-5.243c.062-.372.055-.746.138-1.12a8.406,8.406,0,0,1,.428-1.3c.321-.8.708-1.578,1.033-2.38.2-.484-.532-.855-.73-.365" transform="translate(-202.871 -912.835)" fill="#fff"/>
                  <path id="Trazado_779095" data-name="Trazado 779095" d="M241.369,1056.525a22.515,22.515,0,0,0-.478-3c-.219-1.06-.469-2.113-.7-3.172a11.418,11.418,0,0,1-.355-2.27c0-.528-.82-.485-.816.04a11.2,11.2,0,0,0,.321,2.14c.209,1.013.449,2.02.667,3.031a28.6,28.6,0,0,1,.506,2.879,7.748,7.748,0,0,1,.051,1.143,2.384,2.384,0,0,1-.052.394c0,.022-.043.153-.032.124-.011.028-.095.179-.054.122-.3.424.307.971.612.541a3.032,3.032,0,0,0,.325-1.977" transform="translate(-201.151 -881.704)" fill="#fff"/>
                  <path id="Trazado_779096" data-name="Trazado 779096" d="M170.789,1391.8a12.808,12.808,0,0,0-5.734,4.364c-.29.429.317.977.612.541a12.011,12.011,0,0,1,5.37-4.127c.48-.207.234-.987-.248-.778" transform="translate(-138.838 -1171.241)" fill="#fff"/>
                  <path id="Trazado_779097" data-name="Trazado 779097" d="M181.029,1371.312a8.15,8.15,0,0,1-2.132.7,2.247,2.247,0,0,0-1.6,1.091c-.187.487.541.858.73.365.2-.528,1.026-.657,1.5-.785a6.868,6.868,0,0,0,1.947-.689.408.408,0,0,0-.446-.684" transform="translate(-149.177 -1153.975)" fill="#fff"/>
                  <path id="Trazado_779098" data-name="Trazado 779098" d="M1082.235,1233.9c-1.295-1.46-3.4-1.3-5.094-.752a11.332,11.332,0,0,0-2.447,1.144c-.273.167-.785.415-.933.712a2.144,2.144,0,0,0-.043.855c0,.528.816.484.816-.04v-.433a9.985,9.985,0,0,1,3.36-1.609,3.632,3.632,0,0,1,3.8.735c.348.393.886-.222.541-.612" transform="translate(-903.571 -1037.427)" fill="#fff"/>
                  <g id="Grupo_1046545" data-name="Grupo 1046545" transform="translate(170.482 145.736)" opacity="0.5">
                    <g id="Grupo_1046544" data-name="Grupo 1046544">
                      <g id="Grupo_1046543" data-name="Grupo 1046543" clip-path="url(#clip-path-4)">
                        <path id="Trazado_779099" data-name="Trazado 779099" d="M1077.924,1001.255c-.4-.378-.911-.6-1.306-.98s-.921.248-.541.612c.4.378.911.6,1.307.98.38.364.921-.248.541-.612" transform="translate(-1075.948 -987.426)" fill="#fff"/>
                        <path id="Trazado_779100" data-name="Trazado 779100" d="M1081.687,966.262l-.98-.98a.41.41,0,0,0-.576.035.415.415,0,0,0,.036.576l.98.98a.41.41,0,0,0,.576-.036.415.415,0,0,0-.036-.576" transform="translate(-1079.384 -957.986)" fill="#fff"/>
                        <path id="Trazado_779101" data-name="Trazado 779101" d="M1116.391,993.454a1.814,1.814,0,0,1-.516-1.02.409.409,0,0,0-.816.04,2.673,2.673,0,0,0,.791,1.592c.364.38.9-.233.541-.612" transform="translate(-1108.862 -980.605)" fill="#fff"/>
                        <path id="Trazado_779102" data-name="Trazado 779102" d="M1121.633,954.873a.415.415,0,0,0-.388.428v.326a.409.409,0,0,0,.816-.04v-.327a.411.411,0,0,0-.428-.388" transform="translate(-1114.068 -949.312)" fill="#fff"/>
                        <path id="Trazado_779103" data-name="Trazado 779103" d="M1098.448,920.48a4.564,4.564,0,0,1-1.219-.594c-.381-.363-.922.249-.541.612a5.087,5.087,0,0,0,1.394.712.409.409,0,0,0,.365-.73" transform="translate(-1093.293 -919.776)" fill="#fff"/>
                        <path id="Trazado_779104" data-name="Trazado 779104" d="M1155.567,998.5c-.293-.63-.359-1.33-.653-1.96-.22-.471-1-.227-.778.248.293.629.36,1.33.653,1.96.22.471,1,.227.778-.248" transform="translate(-1141.715 -984.166)" fill="#fff"/>
                        <path id="Trazado_779105" data-name="Trazado 779105" d="M1150.167,956.964a4.212,4.212,0,0,0-1.465-2.1c-.461-.255-.826.475-.366.73.616.341.855,1.223,1.147,1.818.231.472.912.02.684-.446" transform="translate(-1136.688 -949.258)" fill="#fff"/>
                        <path id="Trazado_779106" data-name="Trazado 779106" d="M1125.823,926.018c-.528,0-.484.816.04.816s.484-.816-.04-.816" transform="translate(-1117.605 -925.029)" fill="#fff"/>
                        <path id="Trazado_779107" data-name="Trazado 779107" d="M1142.863,1026.107a.912.912,0,0,1-.189-.694c0-.529-.817-.484-.816.04a1.711,1.711,0,0,0,.464,1.266.41.41,0,0,0,.576-.036.416.416,0,0,0-.035-.576" transform="translate(-1131.415 -1008.36)" fill="#fff"/>
                      </g>
                    </g>
                  </g>
                  <path id="Trazado_779108" data-name="Trazado 779108" d="M848.721,1249.046c-.027,1.574-1.318,2.515-2.51,3.313a.409.409,0,0,0,.446.684c1.466-.981,2.847-2.135,2.879-4.036.009-.528-.807-.483-.815.04" transform="translate(-711.98 -1050.789)" fill="#fff"/>
                  <path id="Trazado_779109" data-name="Trazado 779109" d="M867.188,1247.392a4.976,4.976,0,0,1-2.519,2.927c-.467.243-.017.924.446.684a5.73,5.73,0,0,0,2.871-3.443.408.408,0,0,0-.8-.168" transform="translate(-727.499 -1049.484)" fill="#fff"/>
                  <path id="Trazado_779110" data-name="Trazado 779110" d="M743.868,1200.608c-.536.054-.83.63-1.044,1.058a5.411,5.411,0,0,0-.554,1.629,7.181,7.181,0,0,0,.14,2.289,4.723,4.723,0,0,1,.134,2.354c-.179.488.549.86.73.366.511-1.4-.211-2.881-.242-4.3a3.726,3.726,0,0,1,.3-1.463,6.214,6.214,0,0,1,.344-.743,2.015,2.015,0,0,1,.194-.293c.041-.051.134-.09.038-.081.523-.052.484-.868-.04-.816" transform="translate(-624.622 -1010.373)" fill="#fff"/>
                  <path id="Trazado_779111" data-name="Trazado 779111" d="M766.417,1406.705c-.007-.528-.823-.485-.816.04.029,2.127,1.416,4.318.533,6.411-.2.482.525.852.73.366.979-2.318-.416-4.484-.447-6.817" transform="translate(-644.293 -1183.501)" fill="#fff"/>
                  <path id="Trazado_779112" data-name="Trazado 779112" d="M595.857,1475.966a9.255,9.255,0,0,0-2.71,2.921c-.877,1.184-1.557,2.506-2.474,3.658-1.85,2.327-4.936,2.644-7.31,4.2a.408.408,0,0,0,.446.684,22.983,22.983,0,0,1,3.768-1.751,9.421,9.421,0,0,0,3.536-2.387c.954-1.09,1.57-2.423,2.428-3.581.781-1.054,1.569-2.429,2.761-3.06.465-.247.015-.928-.446-.684" transform="translate(-490.778 -1242.06)" fill="#fff"/>
                  <path id="Trazado_779113" data-name="Trazado 779113" d="M133.058,514.6s-4.272,1.132-4.215-1.429,3.74-6.387,5.472-3.1l.865,1.619s1.938-3.491,3.286-1.786,1.9,3.634.826,4.62a2.278,2.278,0,0,1-2.554.1s2.669,2.755.026,4.62-5.472-1.074-3.7-4.648" transform="translate(-108.428 -428.184)" fill="#fcc4d4"/>
                  <path id="Trazado_779114" data-name="Trazado 779114" d="M117.932,650.367s-3.876,3.034-4.515-.937,1.574-4.381,3.2-3.807.111-5.281,3.336-4.612,3.426,5.647.922,7.013c0,0,3.572,1.761,1.509,3.923s-4.184,1.128-4.452-1.58" transform="translate(-95.351 -539.4)" fill="#fcc4d4"/>
                  <path id="Trazado_779115" data-name="Trazado 779115" d="M62.552,550.7s.068-6.785,3.3-5.7,1.815,5.493,1.815,5.493,3.889-2.552,4.088,2.379-4.442,2.869-4.442,2.869,1.892,4.085-.068,4.575-5.572.3-4.437-3.264c0,0-2.229,3.607-3.775,1.271s2.593-3.462,2.593-3.462-5.3.12-3.864-3.969,4.79-.193,4.79-.193" transform="translate(-48.402 -458.545)" fill="#fcc4d4"/>
                  <path id="Trazado_779116" data-name="Trazado 779116" d="M94.089,589.285c.6-2.21-2.21-2.781-3.275-1.137-1.505,2.324,2.6,3.647,3.275,1.137" transform="translate(-76.147 -494.161)" fill="#9f547d"/>
                  <path id="Trazado_779117" data-name="Trazado 779117" d="M159.214,535.468c-.053-1.242-2.17-1.621-2.6-.5-.726,1.883,2.686,2.5,2.6.5" transform="translate(-131.712 -449.643)" fill="#9f547d"/>
                  <path id="Trazado_779118" data-name="Trazado 779118" d="M145.957,676.332c0-.014,0-.028,0-.042-.015-1.877-1.968-1.322-2.062.212-.126,2.044,1.988,1.532,2.062-.171" transform="translate(-121.091 -568.134)" fill="#9f547d"/>
                  <g id="Grupo_1046601" data-name="Grupo 1046601" transform="translate(92.531 44.457)">
                    <path id="Trazado_779158" data-name="Trazado 779158" d="M174.357,70.189a43.149,43.149,0,0,0-5.738,4.489,11.1,11.1,0,0,0-3.2,4.327,5,5,0,0,0,.466,4.418,3.5,3.5,0,0,0,4.05,1.329,12.7,12.7,0,0,1-8.457,4.476" transform="translate(-130.661 -57.812)" fill="none" stroke="#583741" stroke-linecap="round" stroke-linejoin="round" stroke-width="1"/>
                    <path id="Trazado_779159" data-name="Trazado 779159" d="M151.246,70.787a7.626,7.626,0,1,1-7.626-7.626,7.625,7.625,0,0,1,7.626,7.626" transform="translate(-135.994 -59.283)" fill="#fca398"/>
                    <path id="Trazado_779160" data-name="Trazado 779160" d="M148.356,59.954a12.66,12.66,0,0,0,2.192,2.745,8.948,8.948,0,0,0,5.575,2.478,12.853,12.853,0,0,0,3.508-.206,5.419,5.419,0,0,1-3.356,2.1,6.736,6.736,0,0,1-7.232-3.222,5.44,5.44,0,0,1-.688-3.9" transform="translate(-133.432 -59.954)" fill="#664650"/>
                    <path id="Trazado_779161" data-name="Trazado 779161" d="M174.143,73.469a11.894,11.894,0,0,0,1.783,1.97,8.386,8.386,0,0,0,1.828,1.233,8.539,8.539,0,0,0,2.095.692,12.144,12.144,0,0,0,2.648.212,3.9,3.9,0,0,1-2.583,1.689,5.065,5.065,0,0,1-5.529-2.721,3.916,3.916,0,0,1-.242-3.075" transform="translate(-128.054 -57.125)" fill="#664650"/>
                    <path id="Trazado_779162" data-name="Trazado 779162" d="M157.992,64.163a1.79,1.79,0,0,0,.336,1.68,2.894,2.894,0,0,0,2.026,1.178,3.8,3.8,0,0,1-2.914.4,4.6,4.6,0,0,1-2.9-2.137Z" transform="translate(-132.112 -59.073)" fill="#664650"/>
                    <path id="Trazado_779163" data-name="Trazado 779163" d="M181.613,76.716a1.461,1.461,0,0,0,.091,1.464,2.533,2.533,0,0,0,1.649,1.226,3.435,3.435,0,0,1-2.61.312,4.222,4.222,0,0,1-2.6-1.957Z" transform="translate(-127.173 -56.445)" fill="#664650"/>
                    <path id="Trazado_779168" data-name="Trazado 779168" d="M148.3,82.811a5.562,5.562,0,0,0-.335,3.818,6.189,6.189,0,0,0,.97,2.623,4.064,4.064,0,0,0,4.663,1.213,4.987,4.987,0,0,0,2.941-3.974c.625-4.867-5.3-8.666-8.239-3.68" transform="translate(-133.525 -55.661)" fill="#fca398"/>
                    <path id="Trazado_779169" data-name="Trazado 779169" d="M150.46,77.683A15,15,0,0,0,155.032,92.4" transform="translate(-133.058 -56.243)" fill="none" stroke="#583741" stroke-linecap="round" stroke-linejoin="round" stroke-width="1"/>
                  </g>
                  <path id="Trazado_779336" data-name="Trazado 779336" d="M6.692,0A6.69,6.69,0,0,0,4.577,13.038,26.988,26.988,0,0,0,11.925,2.53,6.677,6.677,0,0,0,6.692,0" transform="translate(130.989 75.382) rotate(17)" fill="#fca398"/>
                </g>
              </g>
            </g>
          </g>
        </g>
        <path id="Trazado_113525" data-name="Trazado 113525" d="M11.341,0A11.341,11.341,0,1,0,22.681,11.341,11.341,11.341,0,0,0,11.341,0Z" transform="translate(19.509 33.485)" fill="#64b5f6" opacity="0.444" style="mix-blend-mode: multiply;isolation: isolate"/>
      </g>
    </g>
    <g id="Grupo_988125" data-name="Grupo 988125" transform="translate(287.642 2240.023)">
      <line id="Línea_141" data-name="Línea 141" y2="83.216" transform="translate(0)" fill="none" stroke="#fff" stroke-width="2" stroke-dasharray="8"/>
      <path id="Trazado_212914" data-name="Trazado 212914" d="M19.525,0A19.525,19.525,0,1,1,0,19.525c0-.005,0-.01,0-.015s0,0,0-.005v-.968h0v-.11l0-.03v-.11h0v-.124h0v-.247h0v-.106h0v-.123h0v-.109l0-.029v-.093l0-.03v-.093l0-.03v-.078l0-.013h0l0-.03V17.1l0-.014h0l0-.03v-.078l.006-.044v0l0-.012v-.033l0-.012v0l0-.012v0l.006-.044v0l0-.012v-.019l0-.011v0l0-.011v0l0-.012v0L.2,16.689v0l0-.012v0l0-.011v0l0-.011v0l0-.011v0l0-.012v0l0-.03h0l0-.014v0l0-.012v0l0-.01v0l0-.011v0l0-.011v0l0-.013v0l0-.03h0l0-.014v0l0-.012v0l0-.011v0l0-.011v0l0-.012v0l0-.014h0l.007-.044v0l0-.012v0l0-.011v0l0-.011v0l0-.012v0l.008-.045h0l0-.014v0l0-.012v0l0-.011v0l0-.011v0l0-.012v0L.3,16.1h0l0-.014v0l0-.012v0l0-.011v0l0-.012v0l0-.013h0l.008-.045h0l0-.013v0l0-.012v0l0-.012v0l0-.012v0l0-.013h0l.008-.045h0l0-.013v0l0-.011v0l0-.011v0l0-.012v0l0-.014h0l.009-.044v0l0-.013v0l0-.011v0l0-.011v0l0-.012v0l0-.013h0l.009-.044v0l0-.012v0l0-.011v0l0-.011v0l0-.012v0L.415,15.5v0l0-.013v0l0-.011v0l0-.011v0l0-.012v0l.013-.058v0l0-.013v0l0-.011v0l0-.011v0l0-.012v0l.013-.058v0l0-.012v0l0-.012v0l0-.012v0l0-.013h0l.013-.058v0l0-.013v0l0-.012v0l0-.012v0l0-.013h0l.014-.058v0l0-.012v0l0-.012v0l0-.012v0l0-.014h0l.011-.044h0l0-.014v0l0-.012v0l0-.012v0l0-.012v0l0-.013h0l.014-.058v0l0-.013v0l0-.012v0l0-.013h0L.6,14.69h0l0-.013v0l0-.012v0l0-.012v0l0-.012v0l0-.014h0l.011-.044h0l0-.014v0l0-.013v0l0-.012v0l0-.013h0l.015-.058h0l0-.014h0l0-.013v0l0-.013v0L.7,14.326h0l0-.013v0l0-.012v0l0-.013h0l.016-.057h0l0-.013v0l0-.012v0l0-.012v0l0-.013h0l.016-.057h0l0-.013v0l0-.012v0l0-.012v0l.021-.071h0l0-.013v0l0-.012v0l0-.012v0l.021-.071h0l0-.013v0l0-.012v0l0-.012v0l.022-.071v0l0-.012v0l0-.012v0l0-.012v0L.9,13.662h0l0-.013h0l0-.012v0l0-.012v0l0-.013h0l.023-.071h0l0-.014h0l0-.013h0l0-.013h0l.019-.057h0l0-.014h0l0-.013v0l0-.013h0l0-.013h0l.019-.057h0l0-.014h0l0-.013v0l0-.013h0l0-.013h0l.019-.056h0l0-.013h0l0-.013h0l0-.013h0l0-.014h0l.02-.056h0l0-.013h0l0-.013h0l0-.013h0l0-.013h0l.02-.056h0l0-.013h0l0-.012v0l0-.012h0l.025-.07h0l0-.013v0l0-.012h0l0-.013h0l.005-.014h0l.02-.056h0l0-.013h0l0-.013h0l.005-.014h0l.026-.069h0l0-.012h0l0-.012h0l0-.013h0l.026-.069h0l0-.013h0l0-.013h0l.005-.013h0l.021-.055h0l.005-.013v0l0-.012v0l0-.012v0l.005-.013h0l.027-.069h0l.005-.013h0l.005-.013h0l.028-.069h0L1.42,12.2h0l0-.012v0l0-.012h0L1.46,12.1h0l.005-.013v0l0-.012v0l0-.012v0l.028-.068h0l.005-.012v0l0-.012v0l.005-.012h0l.023-.054h0l.006-.013h0l.005-.012v0l0-.011v0l.005-.012h0l.023-.054h0l.006-.013h0l.005-.012v0l0-.011v0l.005-.012h0l.024-.054h0l.006-.013v0l.005-.011v0l.005-.012v0l.006-.012h0l.024-.054h0l.006-.013h0l.005-.012v0l.005-.012h0l.006-.013h0l.024-.054h0l.006-.013h0l.005-.012v0l.005-.012h0l.006-.013h0l.025-.054h0l.006-.013h0l.005-.012v0l.005-.012h0l.006-.012h0l.025-.053h0l.006-.012v0l.005-.012v0l.006-.012h0l.031-.066h0l.006-.012v0l.005-.011v0l.006-.012h0l.006-.013h0l.025-.053v0l.006-.011v0l.005-.011v0l.006-.012h0l.032-.066h0L2,10.915v0L2,10.9v0l.006-.012h0l.033-.066h0l.006-.012h0l.006-.012h0l.006-.013h0l.027-.053h0l.006-.013h0L2.1,10.7h0l.006-.011v0l.006-.012h0l.027-.052h0l.006-.012v0l.006-.011v0l.006-.011v0l.006-.012h0l.027-.052h0l.007-.013h0l.006-.012h0l.006-.012h0l.034-.065h0l.007-.012h0l.006-.012h0l.006-.012h0l.007-.013h0l.028-.052h0l.006-.012v0l.006-.011v0l.006-.011v0l.028-.051h0l.007-.012h0l.006-.011v0l.006-.011v0l.006-.011h0L2.42,10.1h0l.006-.012h0l.006-.012h0l.007-.012h0L2.478,10h0l.007-.012v0l.006-.011h0L2.5,9.961h0l.029-.051h0L2.536,9.9h0l.007-.012h0l.007-.012h0l.007-.012h0l.029-.051h0l.007-.012h0L2.6,9.782h0l.007-.012h0l.007-.012h0l.037-.063h0l.007-.012h0l.007-.012h0l.007-.012h0l.03-.05h0l.007-.012h0l.007-.011h0l.007-.011h0l.007-.012h0l.03-.05h0l.007-.012h0l.007-.011h0l.007-.011h0L2.8,9.451h0l.03-.05h0l.007-.011h0l.007-.011h0l.007-.011h0L2.888,9.3h0L2.9,9.288h0L2.9,9.276h0l.007-.012h0L2.95,9.2h0l.007-.011h0l.007-.011h0l.007-.012h0L3.013,9.1h0l.007-.011h0l.007-.011h0L3.076,9h0l.007-.012h0l.008-.012h0L3.14,8.9h0l.007-.011h0l.007-.011h0L3.2,8.8h0l.007-.011h0L3.22,8.78h0l.048-.073h0l.007-.011h0l.008-.011h0l.049-.072v0l.007-.01h0l.007-.011h0l.041-.06h0L3.4,8.512h0L3.409,8.5h0l.008-.012h0l.05-.072h0L3.476,8.4h0l.059-.084h0l.067-.1h0l.008-.012h0l.06-.083h0l.069-.095h0l.139-.188h0q.337-.451.7-.881l6.57,5.528a10.8,10.8,0,0,0-2.562,7.036,10.94,10.94,0,1,0,10.94-10.94V0Z" transform="translate(45.159 33.623) rotate(90)" fill="#fff"/>
      <path id="Trazado_212915" data-name="Trazado 212915" d="M20.5,41A20.5,20.5,0,1,1,41,20.5s0,.011,0,.016,0,0,0,0,0,.01,0,.015v0s0,.01,0,.014,0,0,0,0,0,.01,0,.014v0s0,.01,0,.015h0v.082h0v.082h0v.082h0v.016h0v.066h0v.015h0v.082h0v.066h0v.114h0v.065h0v.081h0v.163h0v.015h0V21.6h0v.065h0l0,.032h0v.048h0l0,.031v.05h0l0,.031h0v.048h0l0,.031h0v.015h0V22h0v.016h0l0,.032v.035l0,.031h0v.015h0v.032h0l0,.047h0v.015h0v.015h0l0,.048h0v.032h0v.015h0l0,.031h0v.015h0v.032h0l0,.031h0v.031h0V22.5h0l0,.032h0l0,.015h0v.015h0v.015h0l0,.031h0l0,.015v0l0,.015h0l0,.015h0l-.005.048h0l0,.015h0l0,.015h0l-.005.048h0l0,.016h0l-.007.064h0l0,.016h0l0,.016h0l-.008.064h0l0,.016h0l-.008.063h0l-.01.08h0l0,.016h0l-.008.064h0l0,.016h0q-.01.072-.02.144h0q-.013.1-.028.191h0l-.01.063h0l0,.015h0l-.012.079h0q-.013.079-.026.159h0a20.357,20.357,0,0,1-1.687,5.39L31.277,25.59a11.8,11.8,0,0,0,1.137-5.09A11.914,11.914,0,1,0,20.5,32.414V41Z" transform="translate(237.485 174.447) rotate(90)" fill="#fff"/>
    </g>
  </g>
</svg>
