<svg id="Grupo_1063998" data-name="Grupo 1063998" xmlns="http://www.w3.org/2000/svg" width="83.475" height="90.104" viewBox="0 0 83.475 90.104">
  <g id="Grupo_89382" data-name="Grupo 89382" transform="translate(0.002 0)">
    <path id="Uni贸n_21" data-name="Uni贸n 21" d="M77.186,2.051a2.146,2.146,0,0,1,4.287,0,2.146,2.146,0,0,1-4.287,0Zm-19.3,0a2.146,2.146,0,0,1,4.287,0,2.146,2.146,0,0,1-4.287,0Zm-19.3,0a2.146,2.146,0,0,1,4.287,0,2.146,2.146,0,0,1-4.287,0Zm-19.3,0a2.148,2.148,0,0,1,4.291,0,2.148,2.148,0,0,1-4.291,0ZM0,2.051A2.1,2.1,0,0,1,2.145,0,2.1,2.1,0,0,1,4.29,2.051,2.1,2.1,0,0,1,2.145,4.1,2.1,2.1,0,0,1,0,2.051Z" transform="translate(1 1)" fill="#4dcbbf"/>
    <path id="Uni贸n_21_-_Contorno" data-name="Uni贸n 21 - Contorno" d="M2.146-1A3.1,3.1,0,0,1,5.291,2.052,3.1,3.1,0,0,1,2.146,5.1,3.1,3.1,0,0,1-1,2.052,3.1,3.1,0,0,1,2.146-1Zm0,4.1A1.1,1.1,0,0,0,3.291,2.052,1.1,1.1,0,0,0,2.146,1,1.1,1.1,0,0,0,1,2.052,1.1,1.1,0,0,0,2.146,3.1ZM21.441-1a3.1,3.1,0,0,1,3.146,3.051,3.147,3.147,0,0,1-6.291,0A3.1,3.1,0,0,1,21.441-1Zm0,4.1a1.1,1.1,0,0,0,1.146-1.052,1.15,1.15,0,0,0-2.291,0A1.1,1.1,0,0,0,21.441,3.1ZM40.737-1a3.1,3.1,0,0,1,3.142,3.051,3.145,3.145,0,0,1-6.287,0A3.1,3.1,0,0,1,40.737-1Zm0,4.1a1.1,1.1,0,0,0,1.142-1.052,1.148,1.148,0,0,0-2.287,0A1.1,1.1,0,0,0,40.737,3.1ZM60.032-1a3.1,3.1,0,0,1,3.146,3.051,3.145,3.145,0,0,1-6.287,0A3.1,3.1,0,0,1,60.032-1Zm0,4.1a1.1,1.1,0,0,0,1.146-1.052,1.148,1.148,0,0,0-2.287,0A1.1,1.1,0,0,0,60.032,3.1ZM79.332-1a3.1,3.1,0,0,1,3.142,3.051,3.145,3.145,0,0,1-6.287,0A3.1,3.1,0,0,1,79.332-1Zm0,4.1a1.1,1.1,0,0,0,1.142-1.052,1.148,1.148,0,0,0-2.287,0A1.1,1.1,0,0,0,79.332,3.1Z" transform="translate(0.999 0.999)" fill="#4dcbbf"/>
  </g>
  <g id="Grupo_89383" data-name="Grupo 89383" transform="translate(0 17)">
    <ellipse id="Elipse_4804" data-name="Elipse 4804" cx="2.144" cy="2.05" rx="2.144" ry="2.05" transform="translate(1 1)" fill="#4dcbbf"/>
    <path id="Elipse_4804_-_Contorno" data-name="Elipse 4804 - Contorno" d="M2.144-1A3.1,3.1,0,0,1,5.288,2.05,3.1,3.1,0,0,1,2.144,5.1,3.1,3.1,0,0,1-1,2.05,3.1,3.1,0,0,1,2.144-1Zm0,4.1A1.1,1.1,0,0,0,3.288,2.05,1.1,1.1,0,0,0,2.144,1,1.1,1.1,0,0,0,1,2.05,1.1,1.1,0,0,0,2.144,3.1Z" transform="translate(1 1)" fill="#4dcbbf"/>
    <path id="Trazado_122445" data-name="Trazado 122445" d="M426.948,112.336a2.146,2.146,0,1,1-2.143-2.049A2.1,2.1,0,0,1,426.948,112.336Z" transform="translate(-402.364 -109.286)" fill="#4dcbbf"/>
    <path id="Trazado_122445_-_Contorno" data-name="Trazado 122445 - Contorno" d="M424.805,109.287a3.052,3.052,0,1,1-3.145,3.049A3.1,3.1,0,0,1,424.805,109.287Zm0,4.1a1.054,1.054,0,1,0-1.145-1.052A1.1,1.1,0,0,0,424.805,113.388Z" transform="translate(-402.364 -109.286)" fill="#4dcbbf"/>
    <ellipse id="Elipse_4805" data-name="Elipse 4805" cx="2.144" cy="2.05" rx="2.144" ry="2.05" transform="translate(39.592 1)" fill="#4dcbbf"/>
    <path id="Elipse_4805_-_Contorno" data-name="Elipse 4805 - Contorno" d="M2.144-1A3.1,3.1,0,0,1,5.288,2.05,3.1,3.1,0,0,1,2.144,5.1,3.1,3.1,0,0,1-1,2.05,3.1,3.1,0,0,1,2.144-1Zm0,4.1A1.1,1.1,0,0,0,3.288,2.05,1.1,1.1,0,0,0,2.144,1,1.1,1.1,0,0,0,1,2.05,1.1,1.1,0,0,0,2.144,3.1Z" transform="translate(39.592 1)" fill="#4dcbbf"/>
    <path id="Trazado_122446" data-name="Trazado 122446" d="M443.841,112.336a2.146,2.146,0,1,1-2.145-2.049A2.1,2.1,0,0,1,443.841,112.336Z" transform="translate(-380.663 -109.286)" fill="#4dcbbf"/>
    <path id="Trazado_122446_-_Contorno" data-name="Trazado 122446 - Contorno" d="M441.7,109.287a3.052,3.052,0,1,1-3.143,3.049A3.1,3.1,0,0,1,441.7,109.287Zm0,4.1a1.054,1.054,0,1,0-1.143-1.052A1.1,1.1,0,0,0,441.7,113.388Z" transform="translate(-380.663 -109.286)" fill="#4dcbbf"/>
    <path id="Trazado_122447" data-name="Trazado 122447" d="M452.287,112.336a2.146,2.146,0,1,1-2.143-2.049A2.1,2.1,0,0,1,452.287,112.336Z" transform="translate(-369.814 -109.286)" fill="#4dcbbf"/>
    <path id="Trazado_122447_-_Contorno" data-name="Trazado 122447 - Contorno" d="M450.144,109.287A3.052,3.052,0,1,1,447,112.336,3.1,3.1,0,0,1,450.144,109.287Zm0,4.1A1.054,1.054,0,1,0,449,112.336,1.1,1.1,0,0,0,450.144,113.388Z" transform="translate(-369.814 -109.286)" fill="#4dcbbf"/>
  </g>
  <g id="Grupo_89384" data-name="Grupo 89384" transform="translate(0 34)">
    <path id="Trazado_122448" data-name="Trazado 122448" d="M418.5,119.846a2.146,2.146,0,1,1-2.145-2.052A2.1,2.1,0,0,1,418.5,119.846Z" transform="translate(-413.214 -116.794)" fill="#4dcbbf"/>
    <path id="Trazado_122448_-_Contorno" data-name="Trazado 122448 - Contorno" d="M416.357,122.9a3.053,3.053,0,1,1,3.145-3.052A3.1,3.1,0,0,1,416.357,122.9Zm0-4.1a1.055,1.055,0,1,0,1.145,1.052A1.1,1.1,0,0,0,416.357,118.794Z" transform="translate(-413.214 -116.794)" fill="#4dcbbf"/>
    <path id="Trazado_122449" data-name="Trazado 122449" d="M426.948,119.846a2.146,2.146,0,1,1-2.143-2.052A2.1,2.1,0,0,1,426.948,119.846Z" transform="translate(-402.364 -116.794)" fill="#4dcbbf"/>
    <path id="Trazado_122449_-_Contorno" data-name="Trazado 122449 - Contorno" d="M424.805,122.9a3.053,3.053,0,1,1,3.143-3.052A3.1,3.1,0,0,1,424.805,122.9Zm0-4.1a1.055,1.055,0,1,0,1.143,1.052A1.1,1.1,0,0,0,424.805,118.794Z" transform="translate(-402.364 -116.794)" fill="#4dcbbf"/>
    <path id="Trazado_122450" data-name="Trazado 122450" d="M435.394,119.846a2.146,2.146,0,1,1-2.143-2.052A2.1,2.1,0,0,1,435.394,119.846Z" transform="translate(-391.515 -116.794)" fill="#4dcbbf"/>
    <path id="Trazado_122450_-_Contorno" data-name="Trazado 122450 - Contorno" d="M433.251,122.9a3.053,3.053,0,1,1,3.143-3.052A3.1,3.1,0,0,1,433.251,122.9Zm0-4.1a1.055,1.055,0,1,0,1.143,1.052A1.1,1.1,0,0,0,433.251,118.794Z" transform="translate(-391.515 -116.794)" fill="#4dcbbf"/>
    <path id="Trazado_122451" data-name="Trazado 122451" d="M443.841,119.846a2.146,2.146,0,1,1-2.145-2.052A2.1,2.1,0,0,1,443.841,119.846Z" transform="translate(-380.663 -116.794)" fill="#4dcbbf"/>
    <path id="Trazado_122451_-_Contorno" data-name="Trazado 122451 - Contorno" d="M441.7,122.9a3.053,3.053,0,1,1,3.145-3.052A3.1,3.1,0,0,1,441.7,122.9Zm0-4.1a1.055,1.055,0,1,0,1.145,1.052A1.1,1.1,0,0,0,441.7,118.794Z" transform="translate(-380.663 -116.794)" fill="#4dcbbf"/>
    <path id="Trazado_122452" data-name="Trazado 122452" d="M452.287,119.846a2.146,2.146,0,1,1-2.143-2.052A2.1,2.1,0,0,1,452.287,119.846Z" transform="translate(-369.814 -116.794)" fill="#4dcbbf"/>
    <path id="Trazado_122452_-_Contorno" data-name="Trazado 122452 - Contorno" d="M450.144,122.9a3.053,3.053,0,1,1,3.143-3.052A3.1,3.1,0,0,1,450.144,122.9Zm0-4.1a1.055,1.055,0,1,0,1.143,1.052A1.1,1.1,0,0,0,450.144,118.794Z" transform="translate(-369.814 -116.794)" fill="#4dcbbf"/>
  </g>
  <g id="Grupo_1046477" data-name="Grupo 1046477" transform="translate(0 50)">
    <path id="Trazado_122448-2" data-name="Trazado 122448" d="M418.5,119.846a2.146,2.146,0,1,1-2.145-2.052A2.1,2.1,0,0,1,418.5,119.846Z" transform="translate(-413.214 -116.794)" fill="#4dcbbf"/>
    <path id="Trazado_122448_-_Contorno-2" data-name="Trazado 122448 - Contorno" d="M416.357,122.9a3.053,3.053,0,1,1,3.145-3.052A3.1,3.1,0,0,1,416.357,122.9Zm0-4.1a1.055,1.055,0,1,0,1.145,1.052A1.1,1.1,0,0,0,416.357,118.794Z" transform="translate(-413.214 -116.794)" fill="#4dcbbf"/>
    <path id="Trazado_122449-2" data-name="Trazado 122449" d="M426.948,119.846a2.146,2.146,0,1,1-2.143-2.052A2.1,2.1,0,0,1,426.948,119.846Z" transform="translate(-402.364 -116.794)" fill="#4dcbbf"/>
    <path id="Trazado_122449_-_Contorno-2" data-name="Trazado 122449 - Contorno" d="M424.805,122.9a3.053,3.053,0,1,1,3.143-3.052A3.1,3.1,0,0,1,424.805,122.9Zm0-4.1a1.055,1.055,0,1,0,1.143,1.052A1.1,1.1,0,0,0,424.805,118.794Z" transform="translate(-402.364 -116.794)" fill="#4dcbbf"/>
    <path id="Trazado_122450-2" data-name="Trazado 122450" d="M435.394,119.846a2.146,2.146,0,1,1-2.143-2.052A2.1,2.1,0,0,1,435.394,119.846Z" transform="translate(-391.515 -116.794)" fill="#4dcbbf"/>
    <path id="Trazado_122450_-_Contorno-2" data-name="Trazado 122450 - Contorno" d="M433.251,122.9a3.053,3.053,0,1,1,3.143-3.052A3.1,3.1,0,0,1,433.251,122.9Zm0-4.1a1.055,1.055,0,1,0,1.143,1.052A1.1,1.1,0,0,0,433.251,118.794Z" transform="translate(-391.515 -116.794)" fill="#4dcbbf"/>
    <path id="Trazado_122451-2" data-name="Trazado 122451" d="M443.841,119.846a2.146,2.146,0,1,1-2.145-2.052A2.1,2.1,0,0,1,443.841,119.846Z" transform="translate(-380.663 -116.794)" fill="#4dcbbf"/>
    <path id="Trazado_122451_-_Contorno-2" data-name="Trazado 122451 - Contorno" d="M441.7,122.9a3.053,3.053,0,1,1,3.145-3.052A3.1,3.1,0,0,1,441.7,122.9Zm0-4.1a1.055,1.055,0,1,0,1.145,1.052A1.1,1.1,0,0,0,441.7,118.794Z" transform="translate(-380.663 -116.794)" fill="#4dcbbf"/>
    <path id="Trazado_122452-2" data-name="Trazado 122452" d="M452.287,119.846a2.146,2.146,0,1,1-2.143-2.052A2.1,2.1,0,0,1,452.287,119.846Z" transform="translate(-369.814 -116.794)" fill="#4dcbbf"/>
    <path id="Trazado_122452_-_Contorno-2" data-name="Trazado 122452 - Contorno" d="M450.144,122.9a3.053,3.053,0,1,1,3.143-3.052A3.1,3.1,0,0,1,450.144,122.9Zm0-4.1a1.055,1.055,0,1,0,1.143,1.052A1.1,1.1,0,0,0,450.144,118.794Z" transform="translate(-369.814 -116.794)" fill="#4dcbbf"/>
  </g>
  <g id="Grupo_1063999" data-name="Grupo 1063999" transform="translate(0 67)">
    <path id="Trazado_122448-3" data-name="Trazado 122448" d="M418.5,119.846a2.146,2.146,0,1,1-2.145-2.052A2.1,2.1,0,0,1,418.5,119.846Z" transform="translate(-413.214 -116.794)" fill="#4dcbbf"/>
    <path id="Trazado_122448_-_Contorno-3" data-name="Trazado 122448 - Contorno" d="M416.357,122.9a3.053,3.053,0,1,1,3.145-3.052A3.1,3.1,0,0,1,416.357,122.9Zm0-4.1a1.055,1.055,0,1,0,1.145,1.052A1.1,1.1,0,0,0,416.357,118.794Z" transform="translate(-413.214 -116.794)" fill="#4dcbbf"/>
    <path id="Trazado_122449-3" data-name="Trazado 122449" d="M426.948,119.846a2.146,2.146,0,1,1-2.143-2.052A2.1,2.1,0,0,1,426.948,119.846Z" transform="translate(-402.364 -116.794)" fill="#4dcbbf"/>
    <path id="Trazado_122449_-_Contorno-3" data-name="Trazado 122449 - Contorno" d="M424.805,122.9a3.053,3.053,0,1,1,3.143-3.052A3.1,3.1,0,0,1,424.805,122.9Zm0-4.1a1.055,1.055,0,1,0,1.143,1.052A1.1,1.1,0,0,0,424.805,118.794Z" transform="translate(-402.364 -116.794)" fill="#4dcbbf"/>
    <path id="Trazado_122450-3" data-name="Trazado 122450" d="M435.394,119.846a2.146,2.146,0,1,1-2.143-2.052A2.1,2.1,0,0,1,435.394,119.846Z" transform="translate(-391.515 -116.794)" fill="#4dcbbf"/>
    <path id="Trazado_122450_-_Contorno-3" data-name="Trazado 122450 - Contorno" d="M433.251,122.9a3.053,3.053,0,1,1,3.143-3.052A3.1,3.1,0,0,1,433.251,122.9Zm0-4.1a1.055,1.055,0,1,0,1.143,1.052A1.1,1.1,0,0,0,433.251,118.794Z" transform="translate(-391.515 -116.794)" fill="#4dcbbf"/>
    <path id="Trazado_122451-3" data-name="Trazado 122451" d="M443.841,119.846a2.146,2.146,0,1,1-2.145-2.052A2.1,2.1,0,0,1,443.841,119.846Z" transform="translate(-380.663 -116.794)" fill="#4dcbbf"/>
    <path id="Trazado_122451_-_Contorno-3" data-name="Trazado 122451 - Contorno" d="M441.7,122.9a3.053,3.053,0,1,1,3.145-3.052A3.1,3.1,0,0,1,441.7,122.9Zm0-4.1a1.055,1.055,0,1,0,1.145,1.052A1.1,1.1,0,0,0,441.7,118.794Z" transform="translate(-380.663 -116.794)" fill="#4dcbbf"/>
    <path id="Trazado_122452-3" data-name="Trazado 122452" d="M452.287,119.846a2.146,2.146,0,1,1-2.143-2.052A2.1,2.1,0,0,1,452.287,119.846Z" transform="translate(-369.814 -116.794)" fill="#4dcbbf"/>
    <path id="Trazado_122452_-_Contorno-3" data-name="Trazado 122452 - Contorno" d="M450.144,122.9a3.053,3.053,0,1,1,3.143-3.052A3.1,3.1,0,0,1,450.144,122.9Zm0-4.1a1.055,1.055,0,1,0,1.143,1.052A1.1,1.1,0,0,0,450.144,118.794Z" transform="translate(-369.814 -116.794)" fill="#4dcbbf"/>
  </g>
  <g id="Grupo_1064000" data-name="Grupo 1064000" transform="translate(0 84)">
    <path id="Trazado_122448-4" data-name="Trazado 122448" d="M418.5,119.846a2.146,2.146,0,1,1-2.145-2.052A2.1,2.1,0,0,1,418.5,119.846Z" transform="translate(-413.214 -116.794)" fill="#4dcbbf"/>
    <path id="Trazado_122448_-_Contorno-4" data-name="Trazado 122448 - Contorno" d="M416.357,122.9a3.053,3.053,0,1,1,3.145-3.052A3.1,3.1,0,0,1,416.357,122.9Zm0-4.1a1.055,1.055,0,1,0,1.145,1.052A1.1,1.1,0,0,0,416.357,118.794Z" transform="translate(-413.214 -116.794)" fill="#4dcbbf"/>
    <path id="Trazado_122449-4" data-name="Trazado 122449" d="M426.948,119.846a2.146,2.146,0,1,1-2.143-2.052A2.1,2.1,0,0,1,426.948,119.846Z" transform="translate(-402.364 -116.794)" fill="#4dcbbf"/>
    <path id="Trazado_122449_-_Contorno-4" data-name="Trazado 122449 - Contorno" d="M424.805,122.9a3.053,3.053,0,1,1,3.143-3.052A3.1,3.1,0,0,1,424.805,122.9Zm0-4.1a1.055,1.055,0,1,0,1.143,1.052A1.1,1.1,0,0,0,424.805,118.794Z" transform="translate(-402.364 -116.794)" fill="#4dcbbf"/>
    <path id="Trazado_122450-4" data-name="Trazado 122450" d="M435.394,119.846a2.146,2.146,0,1,1-2.143-2.052A2.1,2.1,0,0,1,435.394,119.846Z" transform="translate(-391.515 -116.794)" fill="#4dcbbf"/>
    <path id="Trazado_122450_-_Contorno-4" data-name="Trazado 122450 - Contorno" d="M433.251,122.9a3.053,3.053,0,1,1,3.143-3.052A3.1,3.1,0,0,1,433.251,122.9Zm0-4.1a1.055,1.055,0,1,0,1.143,1.052A1.1,1.1,0,0,0,433.251,118.794Z" transform="translate(-391.515 -116.794)" fill="#4dcbbf"/>
    <path id="Trazado_122451-4" data-name="Trazado 122451" d="M443.841,119.846a2.146,2.146,0,1,1-2.145-2.052A2.1,2.1,0,0,1,443.841,119.846Z" transform="translate(-380.663 -116.794)" fill="#4dcbbf"/>
    <path id="Trazado_122451_-_Contorno-4" data-name="Trazado 122451 - Contorno" d="M441.7,122.9a3.053,3.053,0,1,1,3.145-3.052A3.1,3.1,0,0,1,441.7,122.9Zm0-4.1a1.055,1.055,0,1,0,1.145,1.052A1.1,1.1,0,0,0,441.7,118.794Z" transform="translate(-380.663 -116.794)" fill="#4dcbbf"/>
    <path id="Trazado_122452-4" data-name="Trazado 122452" d="M452.287,119.846a2.146,2.146,0,1,1-2.143-2.052A2.1,2.1,0,0,1,452.287,119.846Z" transform="translate(-369.814 -116.794)" fill="#4dcbbf"/>
    <path id="Trazado_122452_-_Contorno-4" data-name="Trazado 122452 - Contorno" d="M450.144,122.9a3.053,3.053,0,1,1,3.143-3.052A3.1,3.1,0,0,1,450.144,122.9Zm0-4.1a1.055,1.055,0,1,0,1.143,1.052A1.1,1.1,0,0,0,450.144,118.794Z" transform="translate(-369.814 -116.794)" fill="#4dcbbf"/>
  </g>
</svg>
