<svg xmlns="http://www.w3.org/2000/svg" width="114" height="114" viewBox="0 0 114 114">
  <g id="Grupo_1064375" data-name="Grupo 1064375" transform="translate(-1288 -10436)">
    <g id="Grupo_1063997" data-name="Grupo 1063997" transform="translate(-6 9872)">
      <g id="Grupo_1044018" data-name="Grupo 1044018" transform="translate(1294 564)">
        <rect id="Rect치ngulo_34817" data-name="Rect치ngulo 34817" width="114" height="114" rx="13" fill="#cb4dae"/>
      </g>
    </g>
    <g id="amamantamiento-" transform="translate(1307 10452.045)">
      <g id="Grupo_1064373" data-name="Grupo 1064373" transform="translate(1.106 5.061)">
        <path id="Trazado_782166" data-name="Trazado 782166" d="M73.7,34.32,65.844,22.685a44.149,44.149,0,0,0-7.083-8.136,12.1,12.1,0,0,0-8.086-3.094H9.441A1.941,1.941,0,0,0,7.5,13.4V80.113A3.489,3.489,0,0,0,10.989,83.6h56.69A13.134,13.134,0,0,0,80.813,70.468v-12.9A41.553,41.553,0,0,0,73.7,34.32Z" transform="translate(-7.5 -11.456)" fill="#ffbd86"/>
        <path id="Trazado_782167" data-name="Trazado 782167" d="M73.7,150.919l-1.815-2.689h0c2.852,4.713,3.938,9.933,4.318,15.354a28.971,28.971,0,0,1-1.339,10.9h0a31.173,31.173,0,0,1-19.77,20.1,21.059,21.059,0,0,1-6.462,1.191H7.5v.937a3.489,3.489,0,0,0,3.489,3.489h56.69a13.134,13.134,0,0,0,13.134-13.134v-12.9A41.554,41.554,0,0,0,73.7,150.919Z" transform="translate(-7.5 -128.054)" fill="#f6a96c"/>
        <path id="Trazado_782168" data-name="Trazado 782168" d="M229.339,191.325c-2.974-.157-11.011.133-14.683,5.915a1.733,1.733,0,0,1-1.183.783l-2.149.351a1.719,1.719,0,0,0-1.441,1.755l.178,5.186a1.734,1.734,0,0,1-.132.726c-.248.6-.755,1.929-1.334,3.473a9.74,9.74,0,0,0,4.207,11.829l.415.242s8.573,6.226,14.187,6.521a18.416,18.416,0,1,0,1.935-36.781Z" transform="translate(-178.401 -164.768)" fill="#ffe5c2"/>
        <path id="Trazado_782169" data-name="Trazado 782169" d="M237.8,208.859a18.429,18.429,0,0,1-19.009,22.106c-3.339-.176-7.724-2.449-10.73-4.263a9.74,9.74,0,0,0,4.751,9.612l.415.242s8.573,6.226,14.187,6.521A18.417,18.417,0,0,0,237.8,208.859Z" transform="translate(-178.41 -179.74)" fill="#fed2a4"/>
        <path id="Trazado_782170" data-name="Trazado 782170" d="M44.252,64.046l-6.274-4.86a61.887,61.887,0,0,1-23.585-41.9L13.973,13.6H9.441A1.941,1.941,0,0,0,7.5,15.541V72.166H44.252Z" transform="translate(-7.5 -13.284)" fill="#fda302"/>
        <rect id="Rect치ngulo_373512" data-name="Rect치ngulo 373512" width="37.202" height="7.617" transform="translate(0 51.266)" fill="#fd9002"/>
        <path id="Trazado_782171" data-name="Trazado 782171" d="M76.491,312.588h0a2.579,2.579,0,0,0-3.607.546L71.291,315.3c-1.82,2.47-8.235,9.315-8.235,9.315a9.723,9.723,0,0,1-9.8,2.076c-3.522-1.053-4.315-5.066-3.33-7.845a11.639,11.639,0,0,0,.5-2.015l.3-1.825a4.632,4.632,0,0,0-1.918-4.544l-.516-.36a1.06,1.06,0,0,0-1.629.59l-2.5,6.231a5.662,5.662,0,0,1-2.265,3.183,7.96,7.96,0,0,0-2.591,3.746,1.3,1.3,0,0,1-1.221.837L7.5,324.611v9.394a3.882,3.882,0,0,0,3.869,3.882l41.662.139a5.353,5.353,0,0,0,1.878-.333l10.855-4.021a5.355,5.355,0,0,0,2.81-2.4L77.037,316.2A2.579,2.579,0,0,0,76.491,312.588Z" transform="translate(-7.5 -265.881)" fill="#ffbd86"/>
        <g id="Grupo_1064372" data-name="Grupo 1064372" transform="translate(0 46.205)">
          <path id="Trazado_782172" data-name="Trazado 782172" d="M76.491,325.186h0a2.579,2.579,0,0,0-3.607.546l-1.593,2.161c-.2.273-.459.6-.758.965l-5.941,10.586a5.355,5.355,0,0,1-2.81,2.4l-10.855,4.021a5.355,5.355,0,0,1-1.878.333L7.5,346.06v.543a3.882,3.882,0,0,0,3.869,3.882l41.662.139a5.352,5.352,0,0,0,1.878-.333l10.855-4.021a5.355,5.355,0,0,0,2.81-2.4l8.463-15.077A2.579,2.579,0,0,0,76.491,325.186Z" transform="translate(-7.5 -324.683)" fill="#f6a96c"/>
        </g>
      </g>
      <g id="Grupo_1064374" data-name="Grupo 1064374" transform="translate(0 3.955)">
        <path id="Trazado_782173" data-name="Trazado 782173" d="M61.285,78.314H37.155a1.106,1.106,0,0,1,0-2.213h24.13A12.042,12.042,0,0,0,73.313,64.073v-12.9a40.3,40.3,0,0,0-6.925-22.632L58.534,16.91a43.085,43.085,0,0,0-6.906-7.932,10.972,10.972,0,0,0-7.346-2.81H3.047A.835.835,0,0,0,2.213,7V73.719A2.385,2.385,0,0,0,4.6,76.1h27.4a1.106,1.106,0,0,1,0,2.213H4.6a4.6,4.6,0,0,1-4.6-4.6V7A3.05,3.05,0,0,1,3.047,3.955H44.282a13.182,13.182,0,0,1,8.825,3.377,45.3,45.3,0,0,1,7.261,8.339l7.855,11.635a42.508,42.508,0,0,1,7.3,23.87v12.9A14.257,14.257,0,0,1,61.285,78.314Z" transform="translate(0 -3.955)"/>
        <path id="Trazado_782174" data-name="Trazado 782174" d="M275.086,102.72a1.107,1.107,0,0,1-1.054-.77,19.942,19.942,0,0,0-5-7.892,6.357,6.357,0,0,1-1.9-4.544V87.2a1.106,1.106,0,0,1,2.213,0v2.312a4.16,4.16,0,0,0,1.243,2.973,22.158,22.158,0,0,1,5.546,8.79,1.107,1.107,0,0,1-1.054,1.443Z" transform="translate(-227.733 -73.978)"/>
        <path id="Trazado_782175" data-name="Trazado 782175" d="M94.852,309.4a1.1,1.1,0,0,1-.609-.183,17.567,17.567,0,0,1-6.454-8.147,1.106,1.106,0,1,1,2.042-.851,15.4,15.4,0,0,0,5.631,7.152,1.106,1.106,0,0,1-.611,2.03Z" transform="translate(-74.767 -255.934)"/>
        <path id="Trazado_782176" data-name="Trazado 782176" d="M243.98,205.739l-.059,0a1.106,1.106,0,0,1-1.047-1.163c.5-9.556-7.008-18.047-16.4-18.541-1.658-.087-10.109-.237-13.691,5.4a2.842,2.842,0,0,1-1.939,1.282l-2.149.351a.614.614,0,0,0-.513.625l.178,5.186a2.824,2.824,0,0,1-.216,1.188c-.246.591-.747,1.909-1.32,3.437a1.106,1.106,0,0,1-2.072-.777c.585-1.56,1.1-2.905,1.348-3.509a.626.626,0,0,0,.048-.264l-.178-5.186a2.831,2.831,0,0,1,2.368-2.885l2.149-.351a.627.627,0,0,0,.427-.284c4.134-6.512,13.043-6.566,15.675-6.427a19.74,19.74,0,0,1,18.5,20.867A1.106,1.106,0,0,1,243.98,205.739Z" transform="translate(-174.487 -157.265)"/>
        <path id="Trazado_782177" data-name="Trazado 782177" d="M1.106,64.264A1.106,1.106,0,0,1,0,63.158V9.147A3.05,3.05,0,0,1,3.047,6.1H7.58a1.106,1.106,0,0,1,1.1.981L9.1,10.764a60.724,60.724,0,0,0,4.568,17.155,1.106,1.106,0,1,1-2.032.876A62.935,62.935,0,0,1,6.9,11.015l-.309-2.7H3.047a.835.835,0,0,0-.834.834V63.158A1.106,1.106,0,0,1,1.106,64.264Z" transform="translate(0 -5.784)"/>
        <path id="Trazado_782178" data-name="Trazado 782178" d="M118.271,209.843a1.1,1.1,0,0,1-.677-.232l-5.756-4.459a62.616,62.616,0,0,1-16.769-19.72,1.106,1.106,0,1,1,1.944-1.056,60.416,60.416,0,0,0,16.18,19.027l5.756,4.459a1.106,1.106,0,0,1-.678,1.981Z" transform="translate(-80.931 -157.269)"/>
        <path id="Trazado_782179" data-name="Trazado 782179" d="M46.656,332.745h-.021a1.106,1.106,0,1,1,.007-2.213,4.234,4.234,0,0,0,1.49-.264l10.855-4.021a4.253,4.253,0,0,0,2.229-1.9l8.463-15.077a1.6,1.6,0,0,0,.345-1.209,1.473,1.473,0,0,0-2.642-.653l-1.593,2.161c-1.838,2.494-8.055,9.134-8.318,9.415a1.107,1.107,0,0,1-.115.106,10.965,10.965,0,0,1-7.175,2.838,12.659,12.659,0,0,1-3.638-.565,6.009,6.009,0,0,1-3.716-3.107,8.092,8.092,0,0,1-.339-6.168,10.522,10.522,0,0,0,.448-1.824l.3-1.825a3.544,3.544,0,0,0-1.46-3.459l-.516-.36-2.467,6.326a6.649,6.649,0,0,1-2.666,3.685,6.814,6.814,0,0,0-2.183,3.229,2.423,2.423,0,0,1-2.257,1.548L1.1,319.329a1.106,1.106,0,0,1,.005-2.213l30.58.074a.2.2,0,0,0,.185-.126,8.808,8.808,0,0,1,3-4.264A4.561,4.561,0,0,0,36.7,310.24l2.539-6.352a2.093,2.093,0,0,1,1.312-1.346,2.169,2.169,0,0,1,1.978.261l.516.36a5.768,5.768,0,0,1,2.376,5.629l-.3,1.825a12.689,12.689,0,0,1-.546,2.207,5.891,5.891,0,0,0,.227,4.427,3.8,3.8,0,0,0,2.377,1.989,8.576,8.576,0,0,0,8.733-1.83c.62-.663,6.424-6.886,8.1-9.158L65.6,306.09a3.686,3.686,0,0,1,5.934,4.373l-8.388,14.962a6.468,6.468,0,0,1-3.39,2.9L48.9,332.342A6.439,6.439,0,0,1,46.656,332.745Z" transform="translate(0 -258.386)"/>
      </g>
    </g>
  </g>
</svg>
