<svg xmlns="http://www.w3.org/2000/svg" width="85" height="131" viewBox="0 0 85 131">
  <g id="Grupo_1063973" data-name="Grupo 1063973" transform="translate(-180 -1612)">
    <g id="Grupo_1044929" data-name="Grupo 1044929" transform="translate(0 -527)">
      <rect id="Rectángulo_34827" data-name="Rectángulo 34827" width="85" height="131" rx="13" transform="translate(180 2139)" fill="#ffd947"/>
    </g>
    <g id="familia_1_" data-name="familia (1)" transform="translate(188 1642.997)">
      <path id="Trazado_777272" data-name="Trazado 777272" d="M164.158,15.234a8.387,8.387,0,0,0-14.419-5.149.644.644,0,0,1-.935,0A8.388,8.388,0,1,0,137.25,22.224h0l11.188,9.717a1.271,1.271,0,0,0,1.666,0l11.188-9.717h0A8.374,8.374,0,0,0,164.158,15.234Z" transform="translate(-114.379 -3.069)" fill="#fe646f"/>
      <path id="Trazado_777273" data-name="Trazado 777273" d="M250.962,22.187a8.415,8.415,0,0,0-4.454-6.763,8.369,8.369,0,0,1-.863,11.79h0l-11.188,9.717a1.271,1.271,0,0,1-1.165.267l1.951,1.694a1.271,1.271,0,0,0,1.666,0L248.1,29.176h0A8.373,8.373,0,0,0,250.962,22.187Z" transform="translate(-201.183 -10.021)" fill="#fd4755"/>
      <circle id="Elipse_5031" data-name="Elipse 5031" cx="2.856" cy="2.856" r="2.856" transform="translate(32.036 34.894)" fill="#bd80e1"/>
      <circle id="Elipse_5032" data-name="Elipse 5032" cx="3.808" cy="3.808" r="3.808" transform="translate(12.045 23.471)" fill="#bd80e1"/>
      <circle id="Elipse_5033" data-name="Elipse 5033" cx="3.808" cy="3.808" r="3.808" transform="translate(50.123 23.471)" fill="#bd80e1"/>
      <path id="Trazado_777274" data-name="Trazado 777274" d="M238.777,258.266a2.857,2.857,0,0,1-3.808,3.808,2.856,2.856,0,1,0,3.808-3.808Z" transform="translate(-202.655 -223.094)" fill="#af66da"/>
      <path id="Trazado_777275" data-name="Trazado 777275" d="M77.6,165.726a3.809,3.809,0,0,1-5.063,5.063,3.808,3.808,0,1,0,5.063-5.063Z" transform="translate(-60.137 -141.898)" fill="#af66da"/>
      <path id="Trazado_777276" data-name="Trazado 777276" d="M388.227,165.726a3.81,3.81,0,0,1-5.063,5.063,3.808,3.808,0,1,0,5.063-5.063Z" transform="translate(-332.683 -141.898)" fill="#af66da"/>
      <path id="Trazado_777277" data-name="Trazado 777277" d="M61.9,275.172h1.953a.306.306,0,0,0,.29-.407l-2.38-6.852a3.065,3.065,0,0,1-.17-1.005v-6.639l6.306,6.306a.306.306,0,0,0,.523-.217v-4.391a.613.613,0,0,0-.179-.433l-4.276-4.276A4.29,4.29,0,0,0,60.937,256H53.068a4.291,4.291,0,0,0-3.034,1.257l-7.724,7.724a1.839,1.839,0,0,1-1.3.539H34.917a1.839,1.839,0,0,1-1.3-.539l-7.724-7.724A4.29,4.29,0,0,0,22.858,256H14.989a4.291,4.291,0,0,0-3.034,1.257l-4.276,4.276a.613.613,0,0,0-.179.433v4.391a.306.306,0,0,0,.523.217l6.141-6.141v25.417a.613.613,0,0,0,.613.613h8.294a.613.613,0,0,0,.613-.613V260.434L33.8,270.547a1.226,1.226,0,0,1,.359.867v14.437a.613.613,0,0,0,.613.613h6.39a.613.613,0,0,0,.613-.613V271.413a1.226,1.226,0,0,1,.359-.867l9.947-9.947v6.308a3.065,3.065,0,0,1-.17,1.005l-2.38,6.851a.306.306,0,0,0,.29.407h1.953a.306.306,0,0,1,.306.306v10.373a.613.613,0,0,0,.613.613h8.294a.613.613,0,0,0,.613-.613V275.478A.306.306,0,0,1,61.9,275.172Z" transform="translate(-3.071 -221.107)" fill="#bd80e1"/>
      <path id="Trazado_777278" data-name="Trazado 777278" d="M61.86,484.5v1.839a.613.613,0,0,0,.613.613h8.294a.613.613,0,0,0,.613-.613V484.5Z" transform="translate(-50.767 -421.595)" fill="#af66da"/>
      <path id="Trazado_777279" data-name="Trazado 777279" d="M224.938,484.5v1.839a.613.613,0,0,0,.613.613h6.39a.613.613,0,0,0,.613-.613V484.5Z" transform="translate(-193.854 -421.595)" fill="#af66da"/>
      <path id="Trazado_777280" data-name="Trazado 777280" d="M382.5,392.384H379a.306.306,0,0,0-.306.306v10.373a.613.613,0,0,1-.613.613h-6.945v1.839a.613.613,0,0,0,.613.613h8.294a.613.613,0,0,0,.613-.613V395.142a.306.306,0,0,1,.307-.306h1.953a.306.306,0,0,0,.29-.407Z" transform="translate(-322.131 -340.771)" fill="#af66da"/>
      <path id="Trazado_777281" data-name="Trazado 777281" d="M146.2,29.609a1.7,1.7,0,0,1-1.115-.414l-6.329-5.5a.429.429,0,0,1,.563-.648l6.329,5.5a.846.846,0,0,0,1.1,0l11.188-9.717A7.959,7.959,0,1,0,146.976,7.314a1.073,1.073,0,0,1-1.555,0,7.959,7.959,0,1,0-10.962,11.517l1.59,1.381a.429.429,0,1,1-.563.648l-1.59-1.381A8.817,8.817,0,1,1,146.041,6.72a.22.22,0,0,0,.316,0A8.817,8.817,0,1,1,158.5,19.479L147.313,29.2A1.7,1.7,0,0,1,146.2,29.609Z" transform="translate(-111.307 0)"/>
      <path id="Elipse_5034" data-name="Elipse 5034" d="M-.215-3.5A3.289,3.289,0,0,1,3.07-.215,3.289,3.289,0,0,1-.215,3.07,3.289,3.289,0,0,1-3.5-.215,3.289,3.289,0,0,1-.215-3.5Zm0,5.712A2.43,2.43,0,0,0,2.212-.215,2.43,2.43,0,0,0-.215-2.642,2.43,2.43,0,0,0-2.642-.215,2.43,2.43,0,0,0-.215,2.212Z" transform="translate(35.107 37.965)"/>
      <path id="Elipse_5035" data-name="Elipse 5035" d="M.737-3.5A4.242,4.242,0,0,1,4.974.737,4.242,4.242,0,0,1,.737,4.974,4.242,4.242,0,0,1-3.5.737,4.242,4.242,0,0,1,.737-3.5Zm0,7.616A3.383,3.383,0,0,0,4.116.737,3.383,3.383,0,0,0,.737-2.642,3.383,3.383,0,0,0-2.642.737,3.383,3.383,0,0,0,.737,4.116Z" transform="translate(15.116 26.542)"/>
      <path id="Elipse_5036" data-name="Elipse 5036" d="M.737-3.5A4.242,4.242,0,0,1,4.974.737,4.242,4.242,0,0,1,.737,4.974,4.242,4.242,0,0,1-3.5.737,4.242,4.242,0,0,1,.737-3.5Zm0,7.616A3.383,3.383,0,0,0,4.116.737,3.383,3.383,0,0,0,.737-2.642,3.383,3.383,0,0,0-2.642.737,3.383,3.383,0,0,0,.737,4.116Z" transform="translate(53.194 26.542)"/>
      <path id="Línea_185" data-name="Línea 185" d="M-3.071,8.782A.429.429,0,0,1-3.5,8.353V-3.071A.429.429,0,0,1-3.071-3.5a.429.429,0,0,1,.429.429V8.353A.429.429,0,0,1-3.071,8.782Z" transform="translate(37.88 57.005)"/>
      <path id="Trazado_777282" data-name="Trazado 777282" d="M153.92,283.821h-6.39a1.043,1.043,0,0,1-1.042-1.042V268.342a.8.8,0,0,0-.233-.563l-9.38-9.38V269.9a.429.429,0,1,1-.858,0V257.362a.429.429,0,0,1,.732-.3l10.113,10.113a1.644,1.644,0,0,1,.485,1.17v14.437a.184.184,0,0,0,.184.184h6.39a.184.184,0,0,0,.184-.184V268.342a1.644,1.644,0,0,1,.485-1.17l9.947-9.947a.429.429,0,0,1,.732.3v6.308a3.485,3.485,0,0,1-.193,1.146l-2.323,6.689h1.781a.736.736,0,0,1,.736.736v10.373a.184.184,0,0,0,.184.184h8.294a.184.184,0,0,0,.184-.184V272.406a.736.736,0,0,1,.736-.736h1.781l-2.323-6.689a3.487,3.487,0,0,1-.193-1.146V257.2a.429.429,0,0,1,.732-.3l6.1,6.1v-4.1a.186.186,0,0,0-.054-.13l-4.276-4.276a3.836,3.836,0,0,0-2.73-1.131H165.83a3.837,3.837,0,0,0-2.731,1.131l-1.181,1.181a.429.429,0,0,1-.607-.607l1.181-1.182a4.689,4.689,0,0,1,3.337-1.382H173.7a4.689,4.689,0,0,1,3.337,1.382l4.276,4.276a1.036,1.036,0,0,1,.305.737v4.391a.736.736,0,0,1-1.256.52l-5.573-5.573v5.6a2.63,2.63,0,0,0,.146.865l2.38,6.851a.736.736,0,0,1-.695.977h-1.831v10.25a1.043,1.043,0,0,1-1.042,1.042h-8.294a1.043,1.043,0,0,1-1.042-1.042v-10.25H162.58a.736.736,0,0,1-.695-.977l2.38-6.852a2.629,2.629,0,0,0,.146-.865v-5.272l-9.215,9.215a.8.8,0,0,0-.233.563v14.437A1.043,1.043,0,0,1,153.92,283.821Z" transform="translate(-115.833 -218.035)"/>
      <path id="Trazado_777283" data-name="Trazado 777283" d="M20,283.821H11.706a1.043,1.043,0,0,1-1.042-1.042V258.4l-5.408,5.408A.736.736,0,0,1,4,263.286v-4.391a1.035,1.035,0,0,1,.305-.737l4.276-4.276a4.689,4.689,0,0,1,3.337-1.382h7.869a4.689,4.689,0,0,1,3.337,1.382l7.724,7.724a1.4,1.4,0,0,0,1,.413h6.092a1.4,1.4,0,0,0,1-.413l3.363-3.363a.429.429,0,1,1,.607.607l-3.363,3.363a2.253,2.253,0,0,1-1.6.664H31.846a2.253,2.253,0,0,1-1.6-.664l-7.724-7.724a3.836,3.836,0,0,0-2.731-1.131H11.918a3.837,3.837,0,0,0-2.731,1.131l-4.276,4.276a.183.183,0,0,0-.054.13v4.1l5.932-5.932a.429.429,0,0,1,.732.3v25.417a.184.184,0,0,0,.184.184H20a.184.184,0,0,0,.184-.184v-8.584a.429.429,0,0,1,.858,0v8.584A1.043,1.043,0,0,1,20,283.821Z" transform="translate(0 -218.035)"/>
      <path id="Línea_186" data-name="Línea 186" d="M-3.071,12.59A.429.429,0,0,1-3.5,12.16V-3.071A.429.429,0,0,1-3.071-3.5a.429.429,0,0,1,.429.429V12.16A.429.429,0,0,1-3.071,12.59Z" transform="translate(18.924 53.197)"/>
      <path id="Línea_187" data-name="Línea 187" d="M-3.071,8.782A.429.429,0,0,1-3.5,8.353V-3.071A.429.429,0,0,1-3.071-3.5a.429.429,0,0,1,.429.429V8.353A.429.429,0,0,1-3.071,8.782Z" transform="translate(56.837 57.005)"/>
    </g>
  </g>
</svg>
