<svg xmlns="http://www.w3.org/2000/svg" width="315" height="238" viewBox="0 0 315 238">
  <g id="Grupo_1064349" data-name="Grupo 1064349" transform="translate(-1000 -6418)">
    <g id="Grupo_1063967" data-name="Grupo 1063967" transform="translate(1014 6410)">
      <g id="Grupo_1062922" data-name="Grupo 1062922" transform="translate(-14 8)">
        <path id="Trazado_781522" data-name="Trazado 781522" d="M0,0H315V238H0Z" fill="#edc1e3"/>
      </g>
      <circle id="Elipse_5050" data-name="Elipse 5050" cx="62.5" cy="62.5" r="62.5" transform="translate(146 70)" fill="#e4f7f6"/>
      <ellipse id="Elipse_5051" data-name="Elipse 5051" cx="41" cy="41.5" rx="41" ry="41.5" transform="translate(36 70)" fill="#e4f7f6"/>
    </g>
    <g id="peso" transform="translate(1018.177 6437.08)">
      <path id="Trazado_782127" data-name="Trazado 782127" d="M230.148,462.688v14.1H86.29V462.65H230.148Z" transform="translate(-19.281 -260.824)" fill="#4e6cca"/>
      <path id="Trazado_782128" data-name="Trazado 782128" d="M247.566,273.289v.093H200.71V253.9h46.856Z" transform="translate(-85.2 -140.56)" fill="#bac9db"/>
      <path id="Trazado_782129" data-name="Trazado 782129" d="M86,463H98.717v13.988H86Z" transform="translate(-19.114 -261.026)" fill="#3d5899"/>
      <path id="Trazado_782130" data-name="Trazado 782130" d="M213.717,273.346V254H201v19.5h12.717Z" transform="translate(-85.367 -140.618)" fill="#95a2af"/>
      <path id="Trazado_782131" data-name="Trazado 782131" d="M67.45,209.047a18.689,18.689,0,0,0,18.689,18.689H208.6a18.689,18.689,0,0,0,18.689-18.689v-1.3Z" transform="translate(-8.427 -113.972)" fill="#d4e1f4"/>
      <path id="Trazado_782132" data-name="Trazado 782132" d="M318.422,56.072c2.412,2.073,10.741,10.72,13.323,16.748,1.3,3.022,6.422,14.972-.144,24.835-4.65,6.986-12.462,9.1-14.934,9.588v.008l-14.734.123c8.63-34.661-16.413-47.458-16.413-47.458a14.83,14.83,0,0,0,.428-2.225,19.378,19.378,0,0,1,9.55-12.238l21.453-11.441a10.281,10.281,0,0,1,11.182,17.163Z" transform="translate(-134.06 -13.182)" fill="#cae6ee"/>
      <path id="Trazado_782133" data-name="Trazado 782133" d="M214.1,50.2a14.83,14.83,0,0,0,.428-2.225,15.064,15.064,0,0,0-1.2-7.833L204.888,21.1a8.616,8.616,0,1,0-15.777,6.931l5.557,12.767a7.428,7.428,0,0,1-.8,7.321L182.4,63.892,161.55,98.222l68.962-.56C239.142,63,214.1,50.2,214.1,50.2Z" transform="translate(-62.639 -3.47)" fill="#ffc9c0"/>
      <path id="Trazado_782134" data-name="Trazado 782134" d="M138.9,102.949a27.036,27.036,0,0,1-20.851,34.331l-9.554.076A27,27,0,1,1,138.9,102.949Z" transform="translate(-19.142 -42.527)" fill="#fcbab1"/>
      <path id="Trazado_782135" data-name="Trazado 782135" d="M214.06,318.227a23.685,23.685,0,0,0-23.288-19.367H91.879a23.685,23.685,0,0,0-23.288,19.367L58.82,368.712H225.984Z" transform="translate(-3.455 -166.462)" fill="#49bdff"/>
      <path id="Trazado_782136" data-name="Trazado 782136" d="M217.35,313.94a28.542,28.542,0,1,1-28.54,28.541,28.543,28.543,0,0,1,28.54-28.541Z" transform="translate(-78.344 -175.15)" fill="#d4e1f4"/>
      <path id="Trazado_782137" data-name="Trazado 782137" d="M243.2,356.219l-.068.013L240,356.21a10.732,10.732,0,1,0,3.192.008Z" transform="translate(-102.559 -199.502)" fill="#edb740"/>
      <path id="Trazado_782138" data-name="Trazado 782138" d="M254.882,354.185l-3.311-17.9-3.306,17.9a3.315,3.315,0,0,0-.055.615,3.358,3.358,0,0,0,3.361,3.361,3.321,3.321,0,0,0,.615-.055A3.365,3.365,0,0,0,254.882,354.185Z" transform="translate(-112.565 -188.02)" fill="#ff5a81"/>
      <path id="Trazado_782139" data-name="Trazado 782139" d="M80.407,211H67.69a18.665,18.665,0,0,0,18.587,18.651H98.994A18.665,18.665,0,0,1,80.407,211Z" transform="translate(-8.565 -115.845)" fill="#acbacc"/>
      <path id="Trazado_782140" data-name="Trazado 782140" d="M104.6,299H91.879a23.725,23.725,0,0,0-23.288,19.414L58.82,368.941H71.537l9.771-50.527A23.725,23.725,0,0,1,104.6,299Z" transform="translate(-3.455 -166.543)" fill="#38a2c6"/>
      <path id="Trazado_782141" data-name="Trazado 782141" d="M201.5,342.48a28.543,28.543,0,0,1,22.177-27.819,28.542,28.542,0,1,0,.006,55.644A28.55,28.55,0,0,1,201.5,342.48Z" transform="translate(-78.319 -175.15)" fill="#afbdce"/>
      <g id="Grupo_1064348" data-name="Grupo 1064348" transform="translate(52.823 9.921)">
        <path id="Trazado_782142" data-name="Trazado 782142" d="M213.094,151.237a26.235,26.235,0,0,0-25.777-21.384H164.911V116.307h35.256A21.258,21.258,0,0,0,221.4,95.073v-1.3a2.543,2.543,0,0,0-2.543-2.543h-.021l-24.4.2a23.138,23.138,0,0,0,5.222-5.548c6.056-9.1,3.542-19.84.367-27.247-1.528-3.563-4.72-7.679-7.128-10.5-1.428-1.675-2.9-3.274-4.185-4.586l6.934-3.55A12.826,12.826,0,0,0,181.7,18.588L160.243,30.027a20.906,20.906,0,0,0-7.048,6.051c-.059-.144-.114-.289-.178-.432l-8.444-19.052a11.159,11.159,0,1,0-20.434,8.977L129.7,38.339a4.9,4.9,0,0,1-.526,4.812l-8.752,12.043A29.52,29.52,0,1,0,76.984,92.385L59,92.531a2.543,2.543,0,0,0-2.523,2.543,21.258,21.258,0,0,0,21.237,21.234h35.256v13.545H88.423a26.229,26.229,0,0,0-25.784,21.426l-9.769,50.49a2.543,2.543,0,0,0,2.5,3.026h9.1v11.168a2.543,2.543,0,0,0,2.543,2.543H210.869a2.543,2.543,0,0,0,2.543-2.543V204.8h9.114A2.543,2.543,0,0,0,225,201.667ZM154.38,45.063a16.891,16.891,0,0,1,8.257-10.548l21.449-11.44a7.739,7.739,0,0,1,8.6,12.77l-15.858,7.991a2.543,2.543,0,1,0,2.289,4.542l4.808-2.423C187.046,49,193.316,55.9,195.347,60.64c2.681,6.252,4.87,15.217.073,22.424-4.069,6.112-10.875,7.994-13.134,8.465l-11.237.091c3.4-17.074-1.318-28.714-6.053-35.6a39.31,39.31,0,0,0-10.682-10.541c.024-.139.046-.279.064-.419ZM122.537,60.929l10.747-14.789a10,10,0,0,0,1.076-9.832L128.8,23.541a6.072,6.072,0,1,1,11.119-4.887l8.443,19.053a12.535,12.535,0,0,1-.124,10.436l-8.955,18.974a2.543,2.543,0,1,0,4.6,2.172l7.061-14.96,3.23,11.52a2.543,2.543,0,1,0,4.9-1.373l-3.158-11.265a35.254,35.254,0,0,1,4.89,5.7c6.142,8.927,7.832,19.94,5.04,32.756l-54.538.443a29.6,29.6,0,0,0,11.23-31.176ZM69.478,68.2A24.44,24.44,0,1,1,98.623,92.209l-9.029.073A24.633,24.633,0,0,1,69.478,68.2Zm8.235,43.018A16.174,16.174,0,0,1,61.761,97.6l154.5-1.253a16.169,16.169,0,0,1-16.1,14.878Zm82.112,5.087v13.545H118.056V116.307Zm48.5,97.112H69.554V204.8H208.326ZM58.451,199.708l9.185-47.48A21.147,21.147,0,0,1,88.423,134.94h98.895A21.146,21.146,0,0,1,208.1,152.223c.009.045.017.085.026.125l11.186,47.36Z" transform="translate(-52.823 -9.921)" fill="#3449bc"/>
        <path id="Trazado_782143" data-name="Trazado 782143" d="M213.9,307.939a31.085,31.085,0,1,0,31.085,31.085A31.085,31.085,0,0,0,213.9,307.939Zm25.462,34.329h.327a25.89,25.89,0,0,1-5.867,13.437l-.242-.242a2.543,2.543,0,1,0-3.6,3.6l.206.206a25.867,25.867,0,0,1-14.119,5.66v-.239a2.543,2.543,0,0,0-5.087,0v.17a25.882,25.882,0,0,1-13.514-5.7l.1-.1a2.543,2.543,0,1,0-3.6-3.6l-.108.108a25.889,25.889,0,0,1-5.753-13.3h.106a2.543,2.543,0,1,0,0-5.087h-.243a25.864,25.864,0,0,1,5.685-14.448l.173.173a2.543,2.543,0,1,0,3.6-3.6l-.209-.209a25.884,25.884,0,0,1,13.765-5.909v.522a2.543,2.543,0,0,0,5.087,0v-.593a25.881,25.881,0,0,1,14.378,5.864l-.325.325a2.543,2.543,0,1,0,3.6,3.6l.313-.313a25.877,25.877,0,0,1,5.794,14.587h-.466a2.543,2.543,0,0,0,0,5.087Z" transform="translate(-127.711 -181.613)" fill="#3449bc"/>
        <path id="Trazado_782144" data-name="Trazado 782144" d="M241.852,339.157l-1.256-6.8a2.543,2.543,0,0,0-5,0l-1.257,6.8a13.277,13.277,0,0,0,1.746,25.86,13.466,13.466,0,0,0,2.042.156,13.281,13.281,0,0,0,3.728-26.019Zm-4.565,12.032.808-4.369.805,4.37a.822.822,0,0,1-.659.957.786.786,0,0,1-.148.014.821.821,0,0,1-.821-.82.858.858,0,0,1,.015-.151Zm8.908,1.947a8.195,8.195,0,1,1-12.994-7.821l-.915,4.952a5.908,5.908,0,1,0,11.619,0l-.913-4.939a8.2,8.2,0,0,1,3.2,7.807Z" transform="translate(-151.91 -194.482)" fill="#3449bc"/>
        <path id="Trazado_782145" data-name="Trazado 782145" d="M111.055,324.649a2.543,2.543,0,0,0-2.543,2.543v1a2.543,2.543,0,0,0,5.087,0v-1A2.543,2.543,0,0,0,111.055,324.649Z" transform="translate(-84.906 -191.24)" fill="#3449bc"/>
        <path id="Trazado_782146" data-name="Trazado 782146" d="M111.055,344.211a2.543,2.543,0,0,0-2.543,2.543v25.73a2.543,2.543,0,0,0,5.087,0v-25.73A2.543,2.543,0,0,0,111.055,344.211Z" transform="translate(-84.906 -202.51)" fill="#3449bc"/>
      </g>
    </g>
  </g>
</svg>
