<svg xmlns="http://www.w3.org/2000/svg" xmlns:xlink="http://www.w3.org/1999/xlink" width="400" height="519.468" viewBox="0 0 400 519.468">
  <defs>
    <clipPath id="clip-path">
      <path id="Rect치ngulo_356771" data-name="Rect치ngulo 356771" d="M8,0H392a8,8,0,0,1,8,8V519.468a0,0,0,0,1,0,0H0a0,0,0,0,1,0,0V8A8,8,0,0,1,8,0Z" transform="translate(180 865.28)" fill="#1f746c" stroke="#707070" stroke-width="1" opacity="0.62"/>
    </clipPath>
  </defs>
  <g id="Enmascarar_grupo_101" data-name="Enmascarar grupo 101" transform="translate(-180 -865.28)" clip-path="url(#clip-path)">
    <g id="Grupo_140013" data-name="Grupo 140013" transform="translate(180 864.863)">
      <rect id="Rect치ngulo_35791" data-name="Rect치ngulo 35791" width="400" height="519.885" rx="13" transform="translate(0 0)" fill="#fffae3"/>
    </g>
    <g id="Grupo_1046971" data-name="Grupo 1046971" transform="translate(152.975 759.626)">
      <g id="Grupo_1046924" data-name="Grupo 1046924" transform="translate(12.481 2.511)">
        <g id="Grupo_1046921" data-name="Grupo 1046921" transform="translate(303.172 257.181)">
          <path id="Trazado_780677" data-name="Trazado 780677" d="M367.988,315.608s22.128-32.266,7.232-34.2S354.07,311.818,367.988,315.608Z" transform="translate(-342.22 -258.619)" fill="#f2aaaa"/>
          <path id="Trazado_780678" data-name="Trazado 780678" d="M399.508,291.468s22.128-32.266,7.232-34.2S385.59,287.678,399.508,291.468Z" transform="translate(-344.098 -257.181)" fill="#32cfc0"/>
          <path id="Trazado_780679" data-name="Trazado 780679" d="M365.38,317.444s27.46,27.865,32.2,13.617S371.747,304.5,365.38,317.444Z" transform="translate(-342.528 -260.446)" fill="#f2aaaa"/>
          <path id="Trazado_780680" data-name="Trazado 780680" d="M399.45,293.839S424.381,324,430.343,310.212,406.926,281.5,399.45,293.839Z" transform="translate(-344.557 -259.091)" fill="#32cfc0"/>
          <path id="Trazado_780681" data-name="Trazado 780681" d="M418.01,283.11s34.391,9.8,38.623-4.222C460.978,264.508,428.825,269.8,418.01,283.11Z" transform="translate(-345.663 -257.964)" fill="#32cfc0"/>
          <g id="Grupo_1046920" data-name="Grupo 1046920" transform="translate(0 9.563)">
            <path id="Trazado_780682" data-name="Trazado 780682" d="M341.08,337.823s42.093-52.692,92.425-57.573" transform="translate(-341.08 -268.118)" fill="none" stroke="#2e5373" stroke-linecap="round" stroke-linejoin="round" stroke-width="1"/>
            <path id="Trazado_780683" data-name="Trazado 780683" d="M404.6,267.35,397.96,291.9s13.429-3.16,25.561,9.479" transform="translate(-344.469 -267.35)" fill="none" stroke="#2e5373" stroke-linecap="round" stroke-linejoin="round" stroke-width="1"/>
            <path id="Trazado_780684" data-name="Trazado 780684" d="M373.5,290.73l-7.354,24.122s14.746-3.31,26.52,10.345" transform="translate(-342.574 -268.743)" fill="none" stroke="#2e5373" stroke-linecap="round" stroke-linejoin="round" stroke-width="1"/>
          </g>
        </g>
        <g id="Grupo_1046923" data-name="Grupo 1046923" transform="translate(40.494 257.181)">
          <path id="Trazado_780685" data-name="Trazado 780685" d="M130.735,315.608s-22.128-32.266-7.232-34.2S144.654,311.818,130.735,315.608Z" transform="translate(-45.132 -258.619)" fill="#f2aaaa"/>
          <path id="Trazado_780686" data-name="Trazado 780686" d="M99.215,291.468s-22.128-32.266-7.232-34.2S113.134,287.678,99.215,291.468Z" transform="translate(-43.254 -257.181)" fill="#f2aaaa"/>
          <path id="Trazado_780687" data-name="Trazado 780687" d="M132.549,317.444s-27.46,27.865-32.2,13.617S126.182,304.5,132.549,317.444Z" transform="translate(-44.03 -260.446)" fill="#f2aaaa"/>
          <path id="Trazado_780688" data-name="Trazado 780688" d="M98.543,293.839S73.612,324,67.65,310.212,91.066,281.5,98.543,293.839Z" transform="translate(-42.064 -259.091)" fill="#f2aaaa"/>
          <path id="Trazado_780689" data-name="Trazado 780689" d="M79.518,283.11s-34.391,9.8-38.623-4.222C36.55,264.508,68.7,269.8,79.518,283.11Z" transform="translate(-40.494 -257.964)" fill="#32cfc0"/>
          <g id="Grupo_1046922" data-name="Grupo 1046922" transform="translate(18.946 9.563)">
            <path id="Trazado_780690" data-name="Trazado 780690" d="M153.065,337.823S110.972,285.131,60.64,280.25" transform="translate(-60.64 -268.118)" fill="none" stroke="#2e5373" stroke-linecap="round" stroke-linejoin="round" stroke-width="1"/>
            <path id="Trazado_780691" data-name="Trazado 780691" d="M93.781,267.35l6.639,24.555s-13.429-3.16-25.561,9.479" transform="translate(-61.487 -267.35)" fill="none" stroke="#2e5373" stroke-linecap="round" stroke-linejoin="round" stroke-width="1"/>
            <path id="Trazado_780692" data-name="Trazado 780692" d="M124.816,290.73l7.354,24.122s-14.746-3.31-26.52,10.345" transform="translate(-63.321 -268.743)" fill="none" stroke="#2e5373" stroke-linecap="round" stroke-linejoin="round" stroke-width="1"/>
          </g>
        </g>
      </g>
      <g id="Grupo_1046927" data-name="Grupo 1046927">
        <g id="Grupo_1046925" data-name="Grupo 1046925">
          <path id="Trazado_780693" data-name="Trazado 780693" d="M216.81,352.58a15.684,15.684,0,0,1-2.58,6.01c-2.04,2.56-5.35,3.73-8.55,4.37-11.94,2.37-24.59-1.17-34.55-8.21-.34-.23-.67-.47-1-.72-10.09-7.5-17.36-18.35-22.12-30-2.09-5.1-3.75-10.43-6.64-15.13-5.2-8.43-14.24-14.67-16.85-24.23-1.85-6.77-.11-14.22-2.48-20.82-3.01-8.41-11.93-13.47-15.5-21.66-2.88-6.58-2.01-14.58-5.95-20.6-1.47-2.24-3.55-4.1-4.63-6.56s-1.03-5.24-.93-7.93c.52-13.8,1.58-28.73-6.02-40.27-1.56-2.37-3.56-5.04-2.73-7.76A4.689,4.689,0,0,1,89.75,156a9.651,9.651,0,0,1,5.77.3c11.14,4.13,14.12,18.1,20.77,27.95,8.12,12.04,22.72,18.58,30.64,30.76,3.94,6.04,5.99,13.14,9.8,19.27,7.28,11.7,20.03,18.58,31.3,26.52,27.36,19.29,36.91,60.3,28.78,91.78Z" fill="#3a6991"/>
          <path id="Trazado_780694" data-name="Trazado 780694" d="M186.76,347.31c-3.92,4.19-9.73,5.92-15.28,7.35l-.35.09c-.34-.23-.67-.47-1-.72-10.09-7.5-17.36-18.35-22.12-30-2.09-5.1-3.75-10.43-6.64-15.13-5.2-8.43-14.24-14.67-16.85-24.23-1.85-6.77-.11-14.22-2.48-20.82-3.01-8.41-11.93-13.47-15.5-21.66-2.88-6.58-2.01-14.58-5.95-20.6-1.47-2.24-3.55-4.1-4.63-6.56s-1.03-5.24-.93-7.93c.52-13.8,1.58-28.73-6.02-40.27-1.56-2.37-3.56-5.04-2.73-7.76A4.689,4.689,0,0,1,89.75,156c.18.06.35.12.53.19,12.66,4.9,17.06,26.89,19.64,38.23,1.15,5.08,2.43,10.44,6.06,14.18,2.96,3.04,7.11,4.61,10.44,7.25,14.87,11.85,7.2,38.42,20.67,51.85,4.63,4.61,11.13,6.9,16.01,11.24,8.83,7.85,11.17,21.2,20.11,28.92,2.37,2.05,5.2,3.7,6.84,6.37s1.85,5.98,2,9.12c.4,8.41.45,17.81-5.29,23.96Z" fill="#355f85"/>
        </g>
        <g id="Grupo_1046926" data-name="Grupo 1046926">
          <path id="Trazado_780695" data-name="Trazado 780695" d="M283.19,352.58a15.684,15.684,0,0,0,2.58,6.01c2.04,2.56,5.35,3.73,8.55,4.37,11.94,2.37,24.59-1.17,34.55-8.21.34-.23.67-.47,1-.72,10.09-7.5,17.36-18.35,22.12-30,2.09-5.1,3.75-10.43,6.64-15.13,5.2-8.43,14.24-14.67,16.85-24.23,1.85-6.77.11-14.22,2.48-20.82,3.01-8.41,11.93-13.47,15.5-21.66,2.88-6.58,2.01-14.58,5.95-20.6,1.47-2.24,3.55-4.1,4.63-6.56s1.03-5.24.93-7.93c-.52-13.8-1.58-28.73,6.02-40.27,1.56-2.37,3.56-5.04,2.73-7.76a4.689,4.689,0,0,0-3.47-3.07,9.651,9.651,0,0,0-5.77.3c-11.14,4.13-14.12,18.1-20.77,27.95-8.12,12.04-22.72,18.58-30.64,30.76-3.94,6.04-5.99,13.14-9.8,19.27-7.28,11.7-20.03,18.58-31.3,26.52-27.36,19.29-36.91,60.3-28.78,91.78Z" fill="#3a6991"/>
          <path id="Trazado_780696" data-name="Trazado 780696" d="M313.24,347.31c3.92,4.19,9.73,5.92,15.28,7.35l.35.09c.34-.23.67-.47,1-.72,10.09-7.5,17.36-18.35,22.12-30,2.09-5.1,3.75-10.43,6.64-15.13,5.2-8.43,14.24-14.67,16.85-24.23,1.85-6.77.11-14.22,2.48-20.82,3.01-8.41,11.93-13.47,15.5-21.66,2.88-6.58,2.01-14.58,5.95-20.6,1.47-2.24,3.55-4.1,4.63-6.56s1.03-5.24.93-7.93c-.52-13.8-1.58-28.73,6.02-40.27,1.56-2.37,3.56-5.04,2.73-7.76a4.689,4.689,0,0,0-3.47-3.07c-.18.06-.35.12-.53.19-12.66,4.9-17.06,26.89-19.64,38.23-1.15,5.08-2.43,10.44-6.06,14.18-2.96,3.04-7.11,4.61-10.44,7.25-14.87,11.85-7.2,38.42-20.67,51.85-4.63,4.61-11.13,6.9-16.01,11.24-8.83,7.85-11.17,21.2-20.11,28.92-2.37,2.05-5.2,3.7-6.84,6.37s-1.85,5.98-2,9.12c-.4,8.41-.45,17.81,5.29,23.96Z" fill="#355f85"/>
        </g>
      </g>
      <g id="Grupo_1046928" data-name="Grupo 1046928">
        <path id="Trazado_780697" data-name="Trazado 780697" d="M378.28,314.45l-2.54-1.49,2.04,2.82a69.479,69.479,0,0,1-12.36,20.3l-4.49-2.63,2.94,4.37a83.173,83.173,0,0,1-16.14,13.36l-3.58-4.47,1.35,5.87a117.016,117.016,0,0,1-20.33,9.62l-2.27-2.88.87,3.39a163.573,163.573,0,0,1-16.75,4.91s-12.39-5.89-10.19-20.21a28.919,28.919,0,0,1,1.77-6.3,44.921,44.921,0,0,1,3.63-11.6l3.59,2.29-2.74-4.1a60.425,60.425,0,0,1,12.99-17.45l6.8,4.09-4.19-6.4A72.009,72.009,0,0,1,337.2,296.8c2.44-1.02,4.74-2.02,6.93-2.99l4.39,5.61-1.51-6.91c5.27-2.39,9.78-4.61,13.63-6.63l3.09,4.25-1.15-5.28c14.21-7.65,18.51-12.19,18.51-12.19a75.294,75.294,0,0,1-2.81,41.79Z" fill="#82b072"/>
        <path id="Trazado_780698" data-name="Trazado 780698" d="M378.28,314.45l-2.54-1.49,2.04,2.82a69.479,69.479,0,0,1-12.36,20.3l-4.49-2.63,2.94,4.37a83.173,83.173,0,0,1-16.14,13.36l-3.58-4.47,1.35,5.87a117.016,117.016,0,0,1-20.33,9.62l-2.27-2.88.87,3.39a163.573,163.573,0,0,1-16.75,4.91s-12.39-5.89-10.19-20.21c83.14-39.96,84.26-74.75,84.26-74.75a75.294,75.294,0,0,1-2.81,41.79Z" fill="#729963"/>
      </g>
      <g id="Grupo_1046929" data-name="Grupo 1046929">
        <path id="Trazado_780699" data-name="Trazado 780699" d="M208.54,345.24a25.549,25.549,0,0,1-3.07,13.32,18.063,18.063,0,0,1-24.13,6.92q-5.43-2.835-10.3-5.79l1.95-4-3.56,3.01a149.835,149.835,0,0,1-22.88-17.17l3.19-6.97-5.61,4.65a105.873,105.873,0,0,1-16.7-20.75l4.78-4.7-6.27,2.13a88.322,88.322,0,0,1-10.22-28.45l3.26-2.99-3.55,1.21c-4.52-29.56,7.16-52.79,7.16-52.79s4.2,6.75,19.95,19.91l-2.78,6.28,4.94-4.5c4.28,3.5,9.34,7.42,15.29,11.74l-3.65,8.22,6.91-5.87c2.49,1.77,5.1,3.6,7.87,5.5a91.3,91.3,0,0,1,20.24,18.6l-6.86,6.9,9.52-3.35a76.695,76.695,0,0,1,11.73,25.04l-4.46,4.42,5.06-1.94a57.122,57.122,0,0,1,1.56,15.37,38.53,38.53,0,0,1,.63,6.05Z" fill="#82b072"/>
        <path id="Trazado_780700" data-name="Trazado 780700" d="M208.54,345.24a25.549,25.549,0,0,1-3.07,13.32,18.063,18.063,0,0,1-24.13,6.92q-5.43-2.835-10.3-5.79l1.95-4-3.56,3.01a149.835,149.835,0,0,1-22.88-17.17l3.19-6.97-5.61,4.65a105.873,105.873,0,0,1-16.7-20.75l4.78-4.7-6.27,2.13a88.322,88.322,0,0,1-10.22-28.45l3.26-2.99-3.55,1.21c-4.52-29.56,7.16-52.79,7.16-52.79s9.57,68.66,85.95,112.37Z" fill="#729963"/>
      </g>
      <g id="Grupo_1046932" data-name="Grupo 1046932">
        <g id="Grupo_1046930" data-name="Grupo 1046930">
          <path id="Trazado_780701" data-name="Trazado 780701" d="M229.52,297.98a9.836,9.836,0,0,1-1.59,3.71,8.763,8.763,0,0,1-5.27,2.7c-7.37,1.46-15.17-.72-21.31-5.06-.21-.14-.41-.29-.62-.44-6.22-4.63-10.71-11.32-13.64-18.51-1.29-3.15-2.31-6.43-4.1-9.33-3.21-5.2-8.78-9.05-10.39-14.95-1.14-4.18-.07-8.77-1.53-12.84-1.86-5.19-7.36-8.31-9.56-13.36-1.78-4.06-1.24-8.99-3.67-12.71-.91-1.38-2.19-2.53-2.86-4.05a10.9,10.9,0,0,1-.57-4.89c.32-8.51.97-17.72-3.71-24.84-.96-1.46-2.2-3.11-1.68-4.79a2.876,2.876,0,0,1,2.14-1.89,5.94,5.94,0,0,1,3.56.19c6.87,2.55,8.71,11.17,12.81,17.24,5.01,7.43,14.02,11.46,18.9,18.97,2.43,3.73,3.7,8.11,6.05,11.89,4.49,7.22,12.36,11.46,19.31,16.36,16.88,11.9,22.77,37.2,17.75,56.62Z" fill="#82b072"/>
          <path id="Trazado_780702" data-name="Trazado 780702" d="M210.99,294.73c-2.42,2.58-6,3.65-9.43,4.53-.07.02-.14.04-.22.06-.21-.14-.41-.29-.62-.44-6.22-4.63-10.71-11.32-13.64-18.51-1.29-3.15-2.31-6.43-4.1-9.33-3.21-5.2-8.78-9.05-10.39-14.95-1.14-4.18-.07-8.77-1.53-12.84-1.86-5.19-7.36-8.31-9.56-13.36-1.78-4.06-1.24-8.99-3.67-12.71-.91-1.38-2.19-2.53-2.86-4.05a10.9,10.9,0,0,1-.57-4.89c.32-8.51.97-17.72-3.71-24.84-.96-1.46-2.2-3.11-1.68-4.79a2.876,2.876,0,0,1,2.14-1.89c.11.04.22.07.33.12,7.81,3.02,10.52,16.59,12.12,23.58.71,3.13,1.5,6.44,3.74,8.75,1.83,1.88,4.39,2.84,6.44,4.47,9.17,7.31,4.44,23.7,12.75,31.98,2.86,2.84,6.87,4.26,9.88,6.93,5.45,4.84,6.89,13.08,12.41,17.84,1.46,1.26,3.21,2.28,4.22,3.93a11.587,11.587,0,0,1,1.23,5.63c.25,5.19.28,10.99-3.26,14.78Z" fill="#729963"/>
        </g>
        <g id="Grupo_1046931" data-name="Grupo 1046931">
          <path id="Trazado_780703" data-name="Trazado 780703" d="M270.48,297.98a9.836,9.836,0,0,0,1.59,3.71,8.763,8.763,0,0,0,5.27,2.7c7.37,1.46,15.17-.72,21.31-5.06.21-.14.41-.29.62-.44,6.22-4.63,10.71-11.32,13.64-18.51,1.29-3.15,2.31-6.43,4.1-9.33,3.21-5.2,8.78-9.05,10.39-14.95,1.14-4.18.07-8.77,1.53-12.84,1.86-5.19,7.36-8.31,9.56-13.36,1.78-4.06,1.24-8.99,3.67-12.71.91-1.38,2.19-2.53,2.86-4.05a10.894,10.894,0,0,0,.57-4.89c-.32-8.51-.97-17.72,3.71-24.84.96-1.46,2.2-3.11,1.68-4.79a2.876,2.876,0,0,0-2.14-1.89,5.94,5.94,0,0,0-3.56.19c-6.87,2.55-8.71,11.17-12.81,17.24-5.01,7.43-14.02,11.46-18.9,18.97-2.43,3.73-3.7,8.11-6.05,11.89-4.49,7.22-12.36,11.46-19.31,16.36-16.88,11.9-22.77,37.2-17.75,56.62Z" fill="#82b072"/>
          <path id="Trazado_780704" data-name="Trazado 780704" d="M289.01,294.73c2.42,2.58,6,3.65,9.43,4.53.07.02.14.04.22.06.21-.14.41-.29.62-.44,6.22-4.63,10.71-11.32,13.64-18.51,1.29-3.15,2.31-6.43,4.1-9.33,3.21-5.2,8.78-9.05,10.39-14.95,1.14-4.18.07-8.77,1.53-12.84,1.86-5.19,7.36-8.31,9.56-13.36,1.78-4.06,1.24-8.99,3.67-12.71.91-1.38,2.19-2.53,2.86-4.05a10.894,10.894,0,0,0,.57-4.89c-.32-8.51-.97-17.72,3.71-24.84.96-1.46,2.2-3.11,1.68-4.79a2.876,2.876,0,0,0-2.14-1.89c-.11.04-.22.07-.33.12-7.81,3.02-10.52,16.59-12.12,23.58-.71,3.13-1.5,6.44-3.74,8.75-1.83,1.88-4.39,2.84-6.44,4.47-9.17,7.31-4.44,23.7-12.75,31.98-2.86,2.84-6.87,4.26-9.88,6.93-5.45,4.84-6.89,13.08-12.41,17.84-1.46,1.26-3.21,2.28-4.22,3.93a11.588,11.588,0,0,0-1.23,5.63c-.25,5.19-.28,10.99,3.26,14.78Z" fill="#729963"/>
        </g>
      </g>
      <g id="Grupo_1046937" data-name="Grupo 1046937">
        <g id="Grupo_1046934" data-name="Grupo 1046934">
          <path id="Trazado_780705" data-name="Trazado 780705" d="M299.03,185.5s8.29-20.05-.01-19.38S291.05,185.05,299.03,185.5Z" fill="#f2aaaa"/>
          <path id="Trazado_780706" data-name="Trazado 780706" d="M312.49,169.77s8.29-20.05-.01-19.38S304.51,169.32,312.49,169.77Z" fill="#f2aaaa"/>
          <path id="Trazado_780707" data-name="Trazado 780707" d="M297.45,185.84s18.1,11.96,19.03,3.68S299.42,178.09,297.45,185.84Z" fill="#f2aaaa"/>
          <path id="Trazado_780708" data-name="Trazado 780708" d="M312.26,170.08s16.99,13.49,18.64,5.32S314.9,162.52,312.26,170.08Z" fill="#f2aaaa"/>
          <path id="Trazado_780709" data-name="Trazado 780709" d="M320.63,162.87s19.78,1.36,20.46-6.73C341.79,147.84,324.97,154.41,320.63,162.87Z" fill="#32cfc0"/>
          <g id="Grupo_1046933" data-name="Grupo 1046933">
            <path id="Trazado_780710" data-name="Trazado 780710" d="M287.61,200.55s16.77-33.42,43.51-41.86" fill="none" stroke="#2e5373" stroke-linecap="round" stroke-linejoin="round" stroke-width="1"/>
            <path id="Trazado_780711" data-name="Trazado 780711" d="M312.21,155.82l-.78,14.08s6.92-3.26,14.95,2.2" fill="none" stroke="#2e5373" stroke-linecap="round" stroke-linejoin="round" stroke-width="1"/>
            <path id="Trazado_780712" data-name="Trazado 780712" d="M298.9,171.11l-1.21,13.93s7.62-3.49,15.57,2.56" fill="none" stroke="#2e5373" stroke-linecap="round" stroke-linejoin="round" stroke-width="1"/>
          </g>
        </g>
        <g id="Grupo_1046936" data-name="Grupo 1046936">
          <path id="Trazado_780713" data-name="Trazado 780713" d="M200.97,185.5s-8.29-20.05.01-19.38S208.95,185.05,200.97,185.5Z" fill="#32cfc0"/>
          <path id="Trazado_780714" data-name="Trazado 780714" d="M187.51,169.77s-8.29-20.05.01-19.38S195.49,169.32,187.51,169.77Z" fill="#32cfc0"/>
          <path id="Trazado_780715" data-name="Trazado 780715" d="M202.55,185.84s-18.1,11.96-19.03,3.68S200.58,178.09,202.55,185.84Z" fill="#32cfc0"/>
          <path id="Trazado_780716" data-name="Trazado 780716" d="M187.74,170.08s-16.99,13.49-18.64,5.32S185.1,162.52,187.74,170.08Z" fill="#f2aaaa"/>
          <path id="Trazado_780717" data-name="Trazado 780717" d="M179.37,162.87s-19.78,1.36-20.46-6.73C158.21,147.84,175.03,154.41,179.37,162.87Z" fill="#f2aaaa"/>
          <g id="Grupo_1046935" data-name="Grupo 1046935">
            <path id="Trazado_780718" data-name="Trazado 780718" d="M212.39,200.55s-16.77-33.42-43.51-41.86" fill="none" stroke="#2e5373" stroke-linecap="round" stroke-linejoin="round" stroke-width="1"/>
            <path id="Trazado_780719" data-name="Trazado 780719" d="M187.79,155.82l.78,14.08s-6.92-3.26-14.95,2.2" fill="none" stroke="#2e5373" stroke-linecap="round" stroke-linejoin="round" stroke-width="1"/>
            <path id="Trazado_780720" data-name="Trazado 780720" d="M201.1,171.11l1.21,13.93s-7.62-3.49-15.57,2.56" fill="none" stroke="#2e5373" stroke-linecap="round" stroke-linejoin="round" stroke-width="1"/>
          </g>
        </g>
      </g>
    </g>
    <g id="Grupo_1046972" data-name="Grupo 1046972" transform="translate(127.025 897.212)">
      <g id="Grupo_1046924-2" data-name="Grupo 1046924" transform="translate(12.481 2.511)">
        <g id="Grupo_1046921-2" data-name="Grupo 1046921" transform="translate(323.173 257.181)">
          <path id="Trazado_780677-2" data-name="Trazado 780677" d="M367.988,315.608s22.128-32.266,7.232-34.2S354.07,311.818,367.988,315.608Z" transform="translate(-342.22 -258.619)" fill="#f2aaaa"/>
          <path id="Trazado_780678-2" data-name="Trazado 780678" d="M399.508,291.468s22.128-32.266,7.232-34.2S385.59,287.678,399.508,291.468Z" transform="translate(-344.098 -257.181)" fill="#32cfc0"/>
          <path id="Trazado_780679-2" data-name="Trazado 780679" d="M365.38,317.444s27.46,27.865,32.2,13.617S371.747,304.5,365.38,317.444Z" transform="translate(-342.528 -260.446)" fill="#32cfc0"/>
          <path id="Trazado_780680-2" data-name="Trazado 780680" d="M399.45,293.839S424.381,324,430.343,310.212,406.926,281.5,399.45,293.839Z" transform="translate(-344.557 -259.091)" fill="#32cfc0"/>
          <path id="Trazado_780681-2" data-name="Trazado 780681" d="M418.01,283.11s34.391,9.8,38.623-4.222C460.978,264.508,428.825,269.8,418.01,283.11Z" transform="translate(-345.663 -257.964)" fill="#32cfc0"/>
          <g id="Grupo_1046920-2" data-name="Grupo 1046920" transform="translate(0 9.563)">
            <path id="Trazado_780682-2" data-name="Trazado 780682" d="M341.08,337.823s42.093-52.692,92.425-57.573" transform="translate(-341.08 -268.118)" fill="none" stroke="#2e5373" stroke-linecap="round" stroke-linejoin="round" stroke-width="1"/>
            <path id="Trazado_780683-2" data-name="Trazado 780683" d="M404.6,267.35,397.96,291.9s13.429-3.16,25.561,9.479" transform="translate(-344.469 -267.35)" fill="none" stroke="#2e5373" stroke-linecap="round" stroke-linejoin="round" stroke-width="1"/>
            <path id="Trazado_780684-2" data-name="Trazado 780684" d="M373.5,290.73l-7.354,24.122s14.746-3.31,26.52,10.345" transform="translate(-342.574 -268.743)" fill="none" stroke="#2e5373" stroke-linecap="round" stroke-linejoin="round" stroke-width="1"/>
          </g>
        </g>
        <g id="Grupo_1046923-2" data-name="Grupo 1046923" transform="translate(40.494 257.181)">
          <path id="Trazado_780685-2" data-name="Trazado 780685" d="M130.735,315.608s-22.128-32.266-7.232-34.2S144.654,311.818,130.735,315.608Z" transform="translate(-45.132 -258.619)" fill="#f2aaaa"/>
          <path id="Trazado_780686-2" data-name="Trazado 780686" d="M99.215,291.468s-22.128-32.266-7.232-34.2S113.134,287.678,99.215,291.468Z" transform="translate(-43.254 -257.181)" fill="#32cfc0"/>
          <path id="Trazado_780687-2" data-name="Trazado 780687" d="M132.549,317.444s-27.46,27.865-32.2,13.617S126.182,304.5,132.549,317.444Z" transform="translate(-44.03 -260.446)" fill="#32cfc0"/>
          <path id="Trazado_780688-2" data-name="Trazado 780688" d="M98.543,293.839S73.612,324,67.65,310.212,91.066,281.5,98.543,293.839Z" transform="translate(-42.064 -259.091)" fill="#32cfc0"/>
          <path id="Trazado_780689-2" data-name="Trazado 780689" d="M79.518,283.11s-34.391,9.8-38.623-4.222C36.55,264.508,68.7,269.8,79.518,283.11Z" transform="translate(-40.494 -257.964)" fill="#32cfc0"/>
          <g id="Grupo_1046922-2" data-name="Grupo 1046922" transform="translate(18.946 9.563)">
            <path id="Trazado_780690-2" data-name="Trazado 780690" d="M153.065,337.823S110.972,285.131,60.64,280.25" transform="translate(-60.64 -268.118)" fill="none" stroke="#2e5373" stroke-linecap="round" stroke-linejoin="round" stroke-width="1"/>
            <path id="Trazado_780691-2" data-name="Trazado 780691" d="M93.781,267.35l6.639,24.555s-13.429-3.16-25.561,9.479" transform="translate(-61.487 -267.35)" fill="none" stroke="#2e5373" stroke-linecap="round" stroke-linejoin="round" stroke-width="1"/>
            <path id="Trazado_780692-2" data-name="Trazado 780692" d="M124.816,290.73l7.354,24.122s-14.746-3.31-26.52,10.345" transform="translate(-63.321 -268.743)" fill="none" stroke="#2e5373" stroke-linecap="round" stroke-linejoin="round" stroke-width="1"/>
          </g>
        </g>
      </g>
      <g id="Grupo_1046927-2" data-name="Grupo 1046927">
        <g id="Grupo_1046925-2" data-name="Grupo 1046925">
          <path id="Trazado_780693-2" data-name="Trazado 780693" d="M216.81,352.58a15.684,15.684,0,0,1-2.58,6.01c-2.04,2.56-5.35,3.73-8.55,4.37-11.94,2.37-24.59-1.17-34.55-8.21-.34-.23-.67-.47-1-.72-10.09-7.5-17.36-18.35-22.12-30-2.09-5.1-3.75-10.43-6.64-15.13-5.2-8.43-14.24-14.67-16.85-24.23-1.85-6.77-.11-14.22-2.48-20.82-3.01-8.41-11.93-13.47-15.5-21.66-2.88-6.58-2.01-14.58-5.95-20.6-1.47-2.24-3.55-4.1-4.63-6.56s-1.03-5.24-.93-7.93c.52-13.8,1.58-28.73-6.02-40.27-1.56-2.37-3.56-5.04-2.73-7.76A4.689,4.689,0,0,1,89.75,156a9.651,9.651,0,0,1,5.77.3c11.14,4.13,14.12,18.1,20.77,27.95,8.12,12.04,22.72,18.58,30.64,30.76,3.94,6.04,5.99,13.14,9.8,19.27,7.28,11.7,20.03,18.58,31.3,26.52,27.36,19.29,36.91,60.3,28.78,91.78Z" fill="#3a6991"/>
          <path id="Trazado_780694-2" data-name="Trazado 780694" d="M186.76,347.31c-3.92,4.19-9.73,5.92-15.28,7.35l-.35.09c-.34-.23-.67-.47-1-.72-10.09-7.5-17.36-18.35-22.12-30-2.09-5.1-3.75-10.43-6.64-15.13-5.2-8.43-14.24-14.67-16.85-24.23-1.85-6.77-.11-14.22-2.48-20.82-3.01-8.41-11.93-13.47-15.5-21.66-2.88-6.58-2.01-14.58-5.95-20.6-1.47-2.24-3.55-4.1-4.63-6.56s-1.03-5.24-.93-7.93c.52-13.8,1.58-28.73-6.02-40.27-1.56-2.37-3.56-5.04-2.73-7.76A4.689,4.689,0,0,1,89.75,156c.18.06.35.12.53.19,12.66,4.9,17.06,26.89,19.64,38.23,1.15,5.08,2.43,10.44,6.06,14.18,2.96,3.04,7.11,4.61,10.44,7.25,14.87,11.85,7.2,38.42,20.67,51.85,4.63,4.61,11.13,6.9,16.01,11.24,8.83,7.85,11.17,21.2,20.11,28.92,2.37,2.05,5.2,3.7,6.84,6.37s1.85,5.98,2,9.12c.4,8.41.45,17.81-5.29,23.96Z" fill="#355f85"/>
        </g>
        <g id="Grupo_1046926-2" data-name="Grupo 1046926">
          <path id="Trazado_780695-2" data-name="Trazado 780695" d="M283.19,352.58a15.684,15.684,0,0,0,2.58,6.01c2.04,2.56,5.35,3.73,8.55,4.37,11.94,2.37,24.59-1.17,34.55-8.21.34-.23.67-.47,1-.72,10.09-7.5,17.36-18.35,22.12-30,2.09-5.1,3.75-10.43,6.64-15.13,5.2-8.43,14.24-14.67,16.85-24.23,1.85-6.77.11-14.22,2.48-20.82,3.01-8.41,11.93-13.47,15.5-21.66,2.88-6.58,2.01-14.58,5.95-20.6,1.47-2.24,3.55-4.1,4.63-6.56s1.03-5.24.93-7.93c-.52-13.8-1.58-28.73,6.02-40.27,1.56-2.37,3.56-5.04,2.73-7.76a4.689,4.689,0,0,0-3.47-3.07,9.651,9.651,0,0,0-5.77.3c-11.14,4.13-14.12,18.1-20.77,27.95-8.12,12.04-22.72,18.58-30.64,30.76-3.94,6.04-5.99,13.14-9.8,19.27-7.28,11.7-20.03,18.58-31.3,26.52-27.36,19.29-36.91,60.3-28.78,91.78Z" fill="#3a6991"/>
          <path id="Trazado_780696-2" data-name="Trazado 780696" d="M313.24,347.31c3.92,4.19,9.73,5.92,15.28,7.35l.35.09c.34-.23.67-.47,1-.72,10.09-7.5,17.36-18.35,22.12-30,2.09-5.1,3.75-10.43,6.64-15.13,5.2-8.43,14.24-14.67,16.85-24.23,1.85-6.77.11-14.22,2.48-20.82,3.01-8.41,11.93-13.47,15.5-21.66,2.88-6.58,2.01-14.58,5.95-20.6,1.47-2.24,3.55-4.1,4.63-6.56s1.03-5.24.93-7.93c-.52-13.8-1.58-28.73,6.02-40.27,1.56-2.37,3.56-5.04,2.73-7.76a4.689,4.689,0,0,0-3.47-3.07c-.18.06-.35.12-.53.19-12.66,4.9-17.06,26.89-19.64,38.23-1.15,5.08-2.43,10.44-6.06,14.18-2.96,3.04-7.11,4.61-10.44,7.25-14.87,11.85-7.2,38.42-20.67,51.85-4.63,4.61-11.13,6.9-16.01,11.24-8.83,7.85-11.17,21.2-20.11,28.92-2.37,2.05-5.2,3.7-6.84,6.37s-1.85,5.98-2,9.12c-.4,8.41-.45,17.81,5.29,23.96Z" fill="#355f85"/>
        </g>
      </g>
      <g id="Grupo_1046928-2" data-name="Grupo 1046928">
        <path id="Trazado_780697-2" data-name="Trazado 780697" d="M378.28,314.45l-2.54-1.49,2.04,2.82a69.479,69.479,0,0,1-12.36,20.3l-4.49-2.63,2.94,4.37a83.173,83.173,0,0,1-16.14,13.36l-3.58-4.47,1.35,5.87a117.016,117.016,0,0,1-20.33,9.62l-2.27-2.88.87,3.39a163.573,163.573,0,0,1-16.75,4.91s-12.39-5.89-10.19-20.21a28.919,28.919,0,0,1,1.77-6.3,44.921,44.921,0,0,1,3.63-11.6l3.59,2.29-2.74-4.1a60.425,60.425,0,0,1,12.99-17.45l6.8,4.09-4.19-6.4A72.009,72.009,0,0,1,337.2,296.8c2.44-1.02,4.74-2.02,6.93-2.99l4.39,5.61-1.51-6.91c5.27-2.39,9.78-4.61,13.63-6.63l3.09,4.25-1.15-5.28c14.21-7.65,18.51-12.19,18.51-12.19a75.294,75.294,0,0,1-2.81,41.79Z" fill="#82b072"/>
        <path id="Trazado_780698-2" data-name="Trazado 780698" d="M378.28,314.45l-2.54-1.49,2.04,2.82a69.479,69.479,0,0,1-12.36,20.3l-4.49-2.63,2.94,4.37a83.173,83.173,0,0,1-16.14,13.36l-3.58-4.47,1.35,5.87a117.016,117.016,0,0,1-20.33,9.62l-2.27-2.88.87,3.39a163.573,163.573,0,0,1-16.75,4.91s-12.39-5.89-10.19-20.21c83.14-39.96,84.26-74.75,84.26-74.75a75.294,75.294,0,0,1-2.81,41.79Z" fill="#729963"/>
      </g>
      <g id="Grupo_1046929-2" data-name="Grupo 1046929">
        <path id="Trazado_780699-2" data-name="Trazado 780699" d="M208.54,345.24a25.549,25.549,0,0,1-3.07,13.32,18.063,18.063,0,0,1-24.13,6.92q-5.43-2.835-10.3-5.79l1.95-4-3.56,3.01a149.835,149.835,0,0,1-22.88-17.17l3.19-6.97-5.61,4.65a105.873,105.873,0,0,1-16.7-20.75l4.78-4.7-6.27,2.13a88.322,88.322,0,0,1-10.22-28.45l3.26-2.99-3.55,1.21c-4.52-29.56,7.16-52.79,7.16-52.79s4.2,6.75,19.95,19.91l-2.78,6.28,4.94-4.5c4.28,3.5,9.34,7.42,15.29,11.74l-3.65,8.22,6.91-5.87c2.49,1.77,5.1,3.6,7.87,5.5a91.3,91.3,0,0,1,20.24,18.6l-6.86,6.9,9.52-3.35a76.695,76.695,0,0,1,11.73,25.04l-4.46,4.42,5.06-1.94a57.122,57.122,0,0,1,1.56,15.37,38.53,38.53,0,0,1,.63,6.05Z" fill="#82b072"/>
        <path id="Trazado_780700-2" data-name="Trazado 780700" d="M208.54,345.24a25.549,25.549,0,0,1-3.07,13.32,18.063,18.063,0,0,1-24.13,6.92q-5.43-2.835-10.3-5.79l1.95-4-3.56,3.01a149.835,149.835,0,0,1-22.88-17.17l3.19-6.97-5.61,4.65a105.873,105.873,0,0,1-16.7-20.75l4.78-4.7-6.27,2.13a88.322,88.322,0,0,1-10.22-28.45l3.26-2.99-3.55,1.21c-4.52-29.56,7.16-52.79,7.16-52.79s9.57,68.66,85.95,112.37Z" fill="#729963"/>
      </g>
      <g id="Grupo_1046932-2" data-name="Grupo 1046932">
        <g id="Grupo_1046930-2" data-name="Grupo 1046930">
          <path id="Trazado_780701-2" data-name="Trazado 780701" d="M229.52,297.98a9.836,9.836,0,0,1-1.59,3.71,8.763,8.763,0,0,1-5.27,2.7c-7.37,1.46-15.17-.72-21.31-5.06-.21-.14-.41-.29-.62-.44-6.22-4.63-10.71-11.32-13.64-18.51-1.29-3.15-2.31-6.43-4.1-9.33-3.21-5.2-8.78-9.05-10.39-14.95-1.14-4.18-.07-8.77-1.53-12.84-1.86-5.19-7.36-8.31-9.56-13.36-1.78-4.06-1.24-8.99-3.67-12.71-.91-1.38-2.19-2.53-2.86-4.05a10.9,10.9,0,0,1-.57-4.89c.32-8.51.97-17.72-3.71-24.84-.96-1.46-2.2-3.11-1.68-4.79a2.876,2.876,0,0,1,2.14-1.89,5.94,5.94,0,0,1,3.56.19c6.87,2.55,8.71,11.17,12.81,17.24,5.01,7.43,14.02,11.46,18.9,18.97,2.43,3.73,3.7,8.11,6.05,11.89,4.49,7.22,12.36,11.46,19.31,16.36,16.88,11.9,22.77,37.2,17.75,56.62Z" fill="#82b072"/>
          <path id="Trazado_780702-2" data-name="Trazado 780702" d="M210.99,294.73c-2.42,2.58-6,3.65-9.43,4.53-.07.02-.14.04-.22.06-.21-.14-.41-.29-.62-.44-6.22-4.63-10.71-11.32-13.64-18.51-1.29-3.15-2.31-6.43-4.1-9.33-3.21-5.2-8.78-9.05-10.39-14.95-1.14-4.18-.07-8.77-1.53-12.84-1.86-5.19-7.36-8.31-9.56-13.36-1.78-4.06-1.24-8.99-3.67-12.71-.91-1.38-2.19-2.53-2.86-4.05a10.9,10.9,0,0,1-.57-4.89c.32-8.51.97-17.72-3.71-24.84-.96-1.46-2.2-3.11-1.68-4.79a2.876,2.876,0,0,1,2.14-1.89c.11.04.22.07.33.12,7.81,3.02,10.52,16.59,12.12,23.58.71,3.13,1.5,6.44,3.74,8.75,1.83,1.88,4.39,2.84,6.44,4.47,9.17,7.31,4.44,23.7,12.75,31.98,2.86,2.84,6.87,4.26,9.88,6.93,5.45,4.84,6.89,13.08,12.41,17.84,1.46,1.26,3.21,2.28,4.22,3.93a11.587,11.587,0,0,1,1.23,5.63c.25,5.19.28,10.99-3.26,14.78Z" fill="#729963"/>
        </g>
        <g id="Grupo_1046931-2" data-name="Grupo 1046931">
          <path id="Trazado_780703-2" data-name="Trazado 780703" d="M270.48,297.98a9.836,9.836,0,0,0,1.59,3.71,8.763,8.763,0,0,0,5.27,2.7c7.37,1.46,15.17-.72,21.31-5.06.21-.14.41-.29.62-.44,6.22-4.63,10.71-11.32,13.64-18.51,1.29-3.15,2.31-6.43,4.1-9.33,3.21-5.2,8.78-9.05,10.39-14.95,1.14-4.18.07-8.77,1.53-12.84,1.86-5.19,7.36-8.31,9.56-13.36,1.78-4.06,1.24-8.99,3.67-12.71.91-1.38,2.19-2.53,2.86-4.05a10.894,10.894,0,0,0,.57-4.89c-.32-8.51-.97-17.72,3.71-24.84.96-1.46,2.2-3.11,1.68-4.79a2.876,2.876,0,0,0-2.14-1.89,5.94,5.94,0,0,0-3.56.19c-6.87,2.55-8.71,11.17-12.81,17.24-5.01,7.43-14.02,11.46-18.9,18.97-2.43,3.73-3.7,8.11-6.05,11.89-4.49,7.22-12.36,11.46-19.31,16.36-16.88,11.9-22.77,37.2-17.75,56.62Z" fill="#82b072"/>
          <path id="Trazado_780704-2" data-name="Trazado 780704" d="M289.01,294.73c2.42,2.58,6,3.65,9.43,4.53.07.02.14.04.22.06.21-.14.41-.29.62-.44,6.22-4.63,10.71-11.32,13.64-18.51,1.29-3.15,2.31-6.43,4.1-9.33,3.21-5.2,8.78-9.05,10.39-14.95,1.14-4.18.07-8.77,1.53-12.84,1.86-5.19,7.36-8.31,9.56-13.36,1.78-4.06,1.24-8.99,3.67-12.71.91-1.38,2.19-2.53,2.86-4.05a10.894,10.894,0,0,0,.57-4.89c-.32-8.51-.97-17.72,3.71-24.84.96-1.46,2.2-3.11,1.68-4.79a2.876,2.876,0,0,0-2.14-1.89c-.11.04-.22.07-.33.12-7.81,3.02-10.52,16.59-12.12,23.58-.71,3.13-1.5,6.44-3.74,8.75-1.83,1.88-4.39,2.84-6.44,4.47-9.17,7.31-4.44,23.7-12.75,31.98-2.86,2.84-6.87,4.26-9.88,6.93-5.45,4.84-6.89,13.08-12.41,17.84-1.46,1.26-3.21,2.28-4.22,3.93a11.588,11.588,0,0,0-1.23,5.63c-.25,5.19-.28,10.99,3.26,14.78Z" fill="#729963"/>
        </g>
      </g>
      <g id="Grupo_1046937-2" data-name="Grupo 1046937">
        <g id="Grupo_1046934-2" data-name="Grupo 1046934">
          <path id="Trazado_780705-2" data-name="Trazado 780705" d="M299.03,185.5s8.29-20.05-.01-19.38S291.05,185.05,299.03,185.5Z" fill="#f2aaaa"/>
          <path id="Trazado_780706-2" data-name="Trazado 780706" d="M312.49,169.77s8.29-20.05-.01-19.38S304.51,169.32,312.49,169.77Z" fill="#f2aaaa"/>
          <path id="Trazado_780707-2" data-name="Trazado 780707" d="M297.45,185.84s18.1,11.96,19.03,3.68S299.42,178.09,297.45,185.84Z" fill="#f2aaaa"/>
          <path id="Trazado_780708-2" data-name="Trazado 780708" d="M312.26,170.08s16.99,13.49,18.64,5.32S314.9,162.52,312.26,170.08Z" fill="#f2aaaa"/>
          <path id="Trazado_780709-2" data-name="Trazado 780709" d="M320.63,162.87s19.78,1.36,20.46-6.73C341.79,147.84,324.97,154.41,320.63,162.87Z" fill="#f2aaaa"/>
          <g id="Grupo_1046933-2" data-name="Grupo 1046933">
            <path id="Trazado_780710-2" data-name="Trazado 780710" d="M287.61,200.55s16.77-33.42,43.51-41.86" fill="none" stroke="#2e5373" stroke-linecap="round" stroke-linejoin="round" stroke-width="1"/>
            <path id="Trazado_780711-2" data-name="Trazado 780711" d="M312.21,155.82l-.78,14.08s6.92-3.26,14.95,2.2" fill="none" stroke="#2e5373" stroke-linecap="round" stroke-linejoin="round" stroke-width="1"/>
            <path id="Trazado_780712-2" data-name="Trazado 780712" d="M298.9,171.11l-1.21,13.93s7.62-3.49,15.57,2.56" fill="none" stroke="#2e5373" stroke-linecap="round" stroke-linejoin="round" stroke-width="1"/>
          </g>
        </g>
        <g id="Grupo_1046936-2" data-name="Grupo 1046936">
          <path id="Trazado_780713-2" data-name="Trazado 780713" d="M200.97,185.5s-8.29-20.05.01-19.38S208.95,185.05,200.97,185.5Z" fill="#f2aaaa"/>
          <path id="Trazado_780714-2" data-name="Trazado 780714" d="M187.51,169.77s-8.29-20.05.01-19.38S195.49,169.32,187.51,169.77Z" fill="#f2aaaa"/>
          <path id="Trazado_780715-2" data-name="Trazado 780715" d="M202.55,185.84s-18.1,11.96-19.03,3.68S200.58,178.09,202.55,185.84Z" fill="#f2aaaa"/>
          <path id="Trazado_780716-2" data-name="Trazado 780716" d="M187.74,170.08s-16.99,13.49-18.64,5.32S185.1,162.52,187.74,170.08Z" fill="#f2aaaa"/>
          <path id="Trazado_780717-2" data-name="Trazado 780717" d="M179.37,162.87s-19.78,1.36-20.46-6.73C158.21,147.84,175.03,154.41,179.37,162.87Z" fill="#f2aaaa"/>
          <g id="Grupo_1046935-2" data-name="Grupo 1046935">
            <path id="Trazado_780718-2" data-name="Trazado 780718" d="M212.39,200.55s-16.77-33.42-43.51-41.86" fill="none" stroke="#2e5373" stroke-linecap="round" stroke-linejoin="round" stroke-width="1"/>
            <path id="Trazado_780719-2" data-name="Trazado 780719" d="M187.79,155.82l.78,14.08s-6.92-3.26-14.95,2.2" fill="none" stroke="#2e5373" stroke-linecap="round" stroke-linejoin="round" stroke-width="1"/>
            <path id="Trazado_780720-2" data-name="Trazado 780720" d="M201.1,171.11l1.21,13.93s-7.62-3.49-15.57,2.56" fill="none" stroke="#2e5373" stroke-linecap="round" stroke-linejoin="round" stroke-width="1"/>
          </g>
        </g>
      </g>
    </g>
    <g id="_6449478" data-name="6449478" transform="translate(75.568 818.782)">
      <g id="OBJECTS" transform="translate(114.034 57.65)">
        <g id="Grupo_1046970" data-name="Grupo 1046970">
          <path id="Trazado_780792" data-name="Trazado 780792" d="M423.863,472.33c-52.216,10.235-109.262,14.956-161.313,3.941-5.172-51.408-15.914-127.578-26.56-178.138,22.372-10.783,45.894-14.162,70.675-12.739a462.551,462.551,0,0,1,75.409,10.824q5.172,12.253,9.8,24.739,9.4,25.287,16.475,51.34c6.814,24.972,12,74.377,15.517,100.034Z" transform="translate(-65.103 26.122)" fill="#6cbbd9"/>
          <path id="Trazado_780793" data-name="Trazado 780793" d="M401.5,371.569c-27-10.687-64.982-29.3-85.028-55.418,0,0-2.928,14.176-55.445,15.243L254.58,291.22l55.1-4.16s10.919,16.516,40.845,26.313c10.933,3.585,23.248,5.665,34.5,6.855Q394.424,345.515,401.5,371.569Z" transform="translate(-58.256 26.85)" fill="#1d1d1b" opacity="0.3"/>
          <path id="Trazado_780794" data-name="Trazado 780794" d="M326.936,477.529q-14.491,3.736-29.364,6.048c-.465.082-.931.15-1.4.219-54.1,8.224-110.986,2.614-162.846-14.162.356-5.8.944-30.55,1.984-36.05a2.056,2.056,0,0,1,.068-.383c.055-.315.123-.643.178-.958q3.715-20.156,8.634-40.079c.109-.438.219-.889.342-1.341q3.346-13.423,7.238-26.71c.246-.835.506-1.669.766-2.5.493-1.546,1-3.092,1.56-4.625.151-.438.3-.876.479-1.314,4.625-12.643,11.1-24.726,18.089-36.384,1.108-1.861,2.244-3.708,3.38-5.542,1.3-2.107,2.614-4.215,3.927-6.294,39.613,4.994,82.565-1.642,119.264-17.351q1.149,3.2,2.258,6.431c.246.725.493,1.437.725,2.162.123.315.219.643.328.958h0A471.433,471.433,0,0,1,316.29,349.6c.15.7.3,1.4.438,2.08q3.777,17.754,6.158,35.755c.068.52.137,1.026.205,1.546q2.381,18.39,3.284,36.931c.369,7.444.123,44.178.561,51.622Z" transform="translate(-102.917 27.969)" fill="#b3e3df"/>
          <path id="Trazado_780795" data-name="Trazado 780795" d="M262.4,324.25c-17.118,1.081-34.345-1.341-51.422.192,3.079-.274,9.25-6.445,12.151-8.128a115.963,115.963,0,0,1,13.848-6.814,119.915,119.915,0,0,1,29.775-7.977,116.645,116.645,0,0,1,30.8-.055c4.228.561,11.371.164,8.347,5.583-2.039,3.654-7.868,6.787-11.412,8.757-9.743,5.4-21.018,7.772-32.06,8.47Z" transform="translate(-74.315 31.79)" fill="#ffa58d"/>
          <path id="Trazado_780796" data-name="Trazado 780796" d="M262.4,324.25c-17.118,1.081-34.345-1.341-51.422.192,3.079-.274,9.25-6.445,12.151-8.128a115.963,115.963,0,0,1,13.848-6.814,119.915,119.915,0,0,1,29.775-7.977,116.645,116.645,0,0,1,30.8-.055c4.228.561,11.371.164,8.347,5.583-2.039,3.654-7.868,6.787-11.412,8.757-9.743,5.4-21.018,7.772-32.06,8.47Z" transform="translate(-74.315 31.79)" fill="#ffa58d"/>
          <path id="Trazado_780797" data-name="Trazado 780797" d="M297.239,371.415a91.456,91.456,0,0,1-13.163-6.664c-2.613-1.587-5.213-3.284-7.772-5.008a125.356,125.356,0,0,0,7.2-10.618c2.682-4.392,5.172-8.963,7.581-13.464-.137-.684-.287-1.382-.438-2.08-2.655,4.94-5.378,10-8.32,14.833a121.631,121.631,0,0,1-7.143,10.55c-2.189-1.491-4.338-3.01-6.459-4.5-9.825-6.9-19.991-14.025-31.444-18.24-7.02-2.572-12.89-3.243-17.939-2.025-11.015,2.655-18.555,15.8-15.818,27.586,2.5,10.837,12.7,19.813,24.767,21.866a35.653,35.653,0,0,0,5.952.479c8.963,0,18.445-3.2,26.778-9.168a70.873,70.873,0,0,0,14.45-14.135c2.6,1.765,5.227,3.489,7.9,5.1a92.138,92.138,0,0,0,14.08,7.033c-.069-.52-.137-1.026-.205-1.546Zm-37.027,2.436c-9.893,7.1-21.455,10.18-31.691,8.443-11.549-1.957-21.278-10.509-23.672-20.812-2.572-11.1,4.488-23.467,14.805-25.944a20.609,20.609,0,0,1,4.844-.561,35.936,35.936,0,0,1,12.315,2.531c11.275,4.146,21.36,11.234,31.116,18.076,2.107,1.478,4.242,2.983,6.4,4.461a69.028,69.028,0,0,1-14.121,13.807Z" transform="translate(-77.27 43.985)" fill="#d3f2ee"/>
          <path id="Trazado_780798" data-name="Trazado 780798" d="M291.98,441.959c-.465.082-.931.151-1.4.219-5.063-11.48-15.147-20.84-27.257-24.343-6.937-2.011-14.573-2.3-21.948-2.6-11.549-.452-23.508-.917-32.676-8.087-7.663-5.993-11.385-15.216-15-24.137-2.7-6.678-5.473-13.574-9.893-19.129-5.884-7.4-14.532-12.288-22.906-17.022-4.2-2.367-8.47-4.775-12.4-7.526.15-.438.3-.876.479-1.314,3.886,2.737,8.183,5.159,12.589,7.649,8.484,4.789,17.255,9.756,23.317,17.364,4.529,5.72,7.362,12.7,10.085,19.458,3.694,9.168,7.2,17.816,14.573,23.59,8.826,6.883,20.019,7.334,31.882,7.786,7.457.3,15.175.6,22.277,2.655C276.313,420.161,286.78,429.972,291.98,441.959Z" transform="translate(-97.325 45.62)" fill="#d3f2ee"/>
          <path id="Trazado_780799" data-name="Trazado 780799" d="M178.047,396.824c-.889,7.211-8.922,11.22-16.488,11.987a51.967,51.967,0,0,1-5.254.26c-7.02,0-14.08-1.259-20.949-2.49-.192-.027-.383-.068-.575-.109a2.062,2.062,0,0,1,.068-.383c.055-.315.123-.643.178-.958.192.041.369.082.561.109,8.511,1.519,17.3,3.079,25.834,2.217,7.02-.725,14.477-4.338,15.271-10.81.575-4.652-2.627-9-5.09-11.877a70.28,70.28,0,0,0-27.941-19.718c.109-.438.219-.889.342-1.341a71.754,71.754,0,0,1,28.639,20.169C175.269,386.944,178.69,391.624,178.047,396.824Z" transform="translate(-102.382 55.083)" fill="#d3f2ee"/>
          <path id="Trazado_780800" data-name="Trazado 780800" d="M300.514,293.76c-.766.26-1.9,2.121-3.133,4.543h0c-2.354,4.652-5.035,11.385-6.144,13.109a119.571,119.571,0,0,1-12.726,16.557,123.944,123.944,0,0,1-32.881,25.588c-27.394,14.669-56.786,23.056-87.327,12.137a47.4,47.4,0,0,1-10.933-5.432c4.666-14.805,12.055-28.845,20.128-42.323,4.023-.657,8.128-1.026,12.164-1.382,9.92-.862,20.306-2.764,30.24-1.56a58.254,58.254,0,0,0,23.125-1.341q32.019-7.861,63.3-18.473C297.723,294.718,299.118,294.239,300.514,293.76Z" transform="translate(-97.745 29.317)" fill="#1d1d1b" opacity="0.3"/>
          <path id="Trazado_780801" data-name="Trazado 780801" d="M293.635,214.011c-1.533,2.983-5.159,4.3-8.511,4.474a46.187,46.187,0,0,1-5.323-.15,31.986,31.986,0,0,0-4.721-.055c-8.908.739-16.092,7.9-24.876,9.524-4.652.848-9.428.1-14.149-.068a82.586,82.586,0,0,0-14.149,1.122c-5.446.766-10.892,1.546-16.488,1.136-1.081-.068-2.162-.192-3.257-.369-3.352-.547-6.828-2.285-10.167-2.477-2.6-.151-5.829.7-8.4,1.136-7.143,1.218-14.094,3.407-21.237,4.68a83.773,83.773,0,0,1-44.2-4.2c-2.244-.862-4.57-1.9-5.911-3.886-2.545-3.763-.438-8.922,2.34-12.507s6.376-6.992,6.965-11.508c.889-6.883-5.61-12.767-5.939-19.7-.274-5.665,3.6-10.618,7.526-14.71s8.319-8.265,9.565-13.793c1.149-5.118-.629-10.372-1.355-15.558a39.768,39.768,0,0,1,9.373-31.4,36.742,36.742,0,0,1,15.216-9.852,47.82,47.82,0,0,1,16.516-2.819c14.559-8.4,32.224-12.028,48.576-8.06s30.924,16.105,36.056,32.115c2.668,8.306,2.887,17.515,7.334,25.013,4.926,8.347,14.6,13.724,17.46,22.974,1.7,5.5.657,11.426,1.04,17.173A34.423,34.423,0,0,0,288.64,199c1.546,2.313,3.38,4.447,4.584,6.965s1.669,5.569.41,8.046Z" transform="translate(-111.103 -48.183)" fill="#193f63"/>
          <path id="Trazado_780802" data-name="Trazado 780802" d="M252.111,196.129a7.276,7.276,0,0,1-.068,1.218,31.993,31.993,0,0,0-4.721-.055c-8.908.739-16.092,7.9-24.876,9.524-4.652.848-9.428.1-14.149-.068a82.589,82.589,0,0,0-14.149,1.122,32.685,32.685,0,0,1-7.635-18.91c-.78-14.463,8.2-28.53,20.894-35.481,3.38-1.847,6.623-3.366,8.785-6.677,1.916-2.915,2.723-6.281,6.869-6.459,7.581-.342,12.89,10.96,13.738,17.091.643,4.762-.15,9.743,1.3,14.34,2.887,9.072,13.984,14.819,14.012,24.356Z" transform="translate(-83.345 -27.195)" fill="#1d1d1b" opacity="0.3"/>
          <path id="Trazado_780803" data-name="Trazado 780803" d="M205.418,226.632c-1.081-.068-2.162-.192-3.257-.369-3.352-.547-6.828-2.285-10.167-2.477-2.6-.151-5.829.7-8.4,1.136-7.143,1.218-14.094,3.407-21.237,4.68a83.773,83.773,0,0,1-44.2-4.2c-2.244-.862-4.57-1.9-5.911-3.886-2.545-3.763-.438-8.922,2.34-12.507s6.376-6.992,6.965-11.508c.889-6.883-5.61-12.767-5.939-19.7-.274-5.665,3.6-10.618,7.526-14.71s8.319-8.265,9.565-13.793c1.149-5.118-.629-10.372-1.355-15.558a39.768,39.768,0,0,1,9.373-31.4,36.742,36.742,0,0,1,15.216-9.852c-5.2,4.775-9.25,10.974-10.03,18.1-.766,7.061,1.765,14,3.749,20.812.465,1.6.9,3.257,1.259,4.912.944,4.433,1.327,8.976.233,13.2a16.545,16.545,0,0,1-.93,2.737c-2.244,5.145-6.8,8.839-10.44,13.122s-6.486,10.153-4.433,15.38c2.025,5.145,7.868,7.485,11.686,11.48,4.119,4.324,5.829,10.6,10.235,14.641,4.324,3.982,10.536,5.145,16.406,5.323s11.822-.438,17.583.7,11.562,4.529,13.492,10.071a12.127,12.127,0,0,1,.67,3.667Z" transform="translate(-111.103 -44.821)" fill="#1d1d1b" opacity="0.3"/>
          <path id="Trazado_780804" data-name="Trazado 780804" d="M273.38,86.391c13.656-12.356,34.578-15.654,51.709-8.881s29.967,22.974,33.483,41.05-2.025,37.52-13.889,51.614c-7.854,9.332-18.76,16.571-30.883,18.007-17.214-10.29-33.894-25.068-42.569-43.157s-12.726-45.182,2.148-58.647Z" transform="translate(-54.985 -51.608)" fill="#193f63"/>
          <path id="Trazado_780805" data-name="Trazado 780805" d="M335.2,254.649c10.906,2.436,22.5,2.531,33.087-1.013s20.087-10.947,25.027-20.963,4.844-22.66-1.259-32.005c-3.626-5.542-9.223-10.016-10.947-16.406-2.025-7.5,1.9-15.189,5.884-21.852s8.333-13.957,7.2-21.633c-2.258-15.394-24.37-21.674-26.559-37.068-.78-5.555,1.327-11.1,1.587-16.694.506-10.919-6.568-21.5-16.406-26.231s-21.893-3.9-31.595,1.136-17.091,13.93-21.428,23.96c-8.8,20.347-22.085,38.149-21.934,60.33s6.623,43.937,16.01,64.024c8.251,17.652,22.318,40.2,41.324,44.457Z" transform="translate(-49.685 -57.65)" fill="#193f63"/>
          <path id="Trazado_780806" data-name="Trazado 780806" d="M381.1,181.592a19.125,19.125,0,0,1,.534-10.728,49.361,49.361,0,0,1-2.86-4.734c-2.737-6.842,4.105-15.052,2.737-21.893-4.105-12.315-20.525-16.42-24.63-27.367-6.842-13.683-4.105-30.1-12.315-42.418-8.648-9.729-22.4-11.74-33.866-7.457a52.2,52.2,0,0,0-10.919,16.2c-8.8,20.347-22.085,38.149-21.934,60.33s6.623,43.937,16.01,64.024c8.251,17.652,22.318,40.2,41.324,44.457,10.906,2.436,22.5,2.531,33.086-1.013s20.087-10.947,25.027-20.963,4.844-22.66-1.259-32.019c-3.626-5.542-9.223-10.016-10.947-16.406Z" transform="translate(-49.685 -54.994)" fill="#1d1d1b" opacity="0.3"/>
          <path id="Trazado_780807" data-name="Trazado 780807" d="M309.027,225.112a34.693,34.693,0,0,1-35.727-11.9,61.267,61.267,0,0,0,3.407-11.111,66.614,66.614,0,0,0,1.232-18.979,262.218,262.218,0,0,0,24.48-17.433c11.042-8.894,21.209-18.924,29.173-30.185a130.494,130.494,0,0,0,2.135,61.219c3.585,12.821-11.864,24.863-24.7,28.393Z" transform="translate(-51.36 -28.976)" fill="#ffa58d"/>
          <path id="Trazado_780808" data-name="Trazado 780808" d="M325.009,147.82c-2.723,12.849-8.278,25.342-17.405,34.783-8.347,8.634-19.882,14.491-31.814,14.956a66.612,66.612,0,0,0,1.232-18.979,262.235,262.235,0,0,0,24.48-17.433A242.921,242.921,0,0,0,325.009,147.82Z" transform="translate(-50.443 -24.438)" fill="#1d1d1b" opacity="0.3"/>
          <path id="Trazado_780809" data-name="Trazado 780809" d="M457.241,322c-.041,9.455-1.409,19.28-7.047,27.134-9.838,13.738-30.842,12.6-45.607,11.453-18.144-1.423-35.809-7.307-52.613-14.285-7.471-3.106-14.751-11.508-22.714-12.63-8.88-1.245-17.309.452-25.027-3.941a130.79,130.79,0,0,1-11.48-7.362c-14.942-10.673-27.709-24.083-39.709-38-12.151-14.108-23.59-28.817-34.728-43.746-8.292-11.125-16.748-23.33-17.036-37.191a262.981,262.981,0,0,1,24.247-10.221c2.395-.862,4.817-1.683,7.238-2.449a162.825,162.825,0,0,1,36.411-7.5,77.613,77.613,0,0,1,33.374,4.584c3.2,7.553,10.673,12.931,18.774,14.272a30.618,30.618,0,0,0,23.111-6.171,39.955,39.955,0,0,0,13.519-20.1c11.4,3.106,23.8,1.656,35.481,3.407s23.727,5.46,31.855,14.039c9.017,9.5,11.686,23.166,14.573,35.946C446.828,260,457.35,290.462,457.241,322Z" transform="translate(-77.888 -14.113)" fill="#6cbbd9"/>
          <g id="Grupo_1046967" data-name="Grupo 1046967" transform="translate(147.639 172.966)">
            <path id="Trazado_780810" data-name="Trazado 780810" d="M338.824,332.18c.917-.917,2.162-1.834,3.394-1.423,1.533.52,1.711,2.6,1.464,4.187a25.473,25.473,0,0,1-5.9,12.657c-1.259,1.45-3.243,2.846-4.94,1.97-5.583-2.887,3.681-15.093,5.98-17.392Z" transform="translate(-177.716 -130.058)" fill="#1d1d1b" opacity="0.3"/>
            <path id="Trazado_780811" data-name="Trazado 780811" d="M330.564,285.96c.917-.917,2.162-1.834,3.394-1.423,1.533.52,1.71,2.6,1.464,4.187a25.472,25.472,0,0,1-5.9,12.657c-1.259,1.45-3.243,2.846-4.94,1.97-5.583-2.887,3.681-15.093,5.98-17.392Z" transform="translate(-180.758 -147.083)" fill="#1d1d1b" opacity="0.3"/>
            <path id="Trazado_780812" data-name="Trazado 780812" d="M331.384,248.99c.917-.917,2.162-1.833,3.393-1.423,1.533.52,1.71,2.6,1.464,4.187a25.472,25.472,0,0,1-5.9,12.657c-1.259,1.45-3.243,2.846-4.94,1.97C319.822,263.495,329.085,251.289,331.384,248.99Z" transform="translate(-180.456 -160.7)" fill="#1d1d1b" opacity="0.3"/>
            <path id="Trazado_780813" data-name="Trazado 780813" d="M335.5,187.36c.917-.917,2.162-1.834,3.394-1.423,1.533.52,1.71,2.6,1.464,4.187a25.472,25.472,0,0,1-5.9,12.657c-1.259,1.45-3.243,2.846-4.94,1.97-5.583-2.887,3.681-15.093,5.98-17.392Z" transform="translate(-178.939 -183.401)" fill="#1d1d1b" opacity="0.3"/>
            <path id="Trazado_780814" data-name="Trazado 780814" d="M311.724,312.45c.917-.917,2.162-1.834,3.393-1.423,1.533.52,1.71,2.6,1.464,4.187a25.472,25.472,0,0,1-5.9,12.657c-1.259,1.45-3.243,2.846-4.94,1.97C300.162,326.955,309.425,314.749,311.724,312.45Z" transform="translate(-187.698 -137.325)" fill="#1d1d1b" opacity="0.3"/>
            <path id="Trazado_780815" data-name="Trazado 780815" d="M376.4,290.65c.917-.917,2.162-1.834,3.394-1.423,1.533.52,1.71,2.6,1.464,4.187a25.472,25.472,0,0,1-5.9,12.657c-1.259,1.45-3.243,2.846-4.94,1.97-5.583-2.887,3.681-15.093,5.98-17.392Z" transform="translate(-163.874 -145.355)" fill="#1d1d1b" opacity="0.3"/>
            <path id="Trazado_780816" data-name="Trazado 780816" d="M354.174,228.59c.917-.917,2.162-1.834,3.394-1.423,1.533.52,1.71,2.6,1.464,4.187a25.471,25.471,0,0,1-5.9,12.657c-1.259,1.45-3.243,2.846-4.94,1.97-5.583-2.887,3.681-15.093,5.98-17.392Z" transform="translate(-172.062 -168.214)" fill="#1d1d1b" opacity="0.3"/>
            <path id="Trazado_780817" data-name="Trazado 780817" d="M259.544,185.58c.917-.917,2.162-1.834,3.393-1.423,1.533.52,1.71,2.6,1.464,4.187A25.471,25.471,0,0,1,258.5,201c-1.259,1.45-3.243,2.846-4.94,1.97-5.583-2.887,3.681-15.093,5.98-17.392Z" transform="translate(-206.918 -184.056)" fill="#1d1d1b" opacity="0.3"/>
            <path id="Trazado_780818" data-name="Trazado 780818" d="M297.954,216.77c.917-.917,2.162-1.834,3.393-1.423,1.533.52,1.71,2.6,1.464,4.187a25.472,25.472,0,0,1-5.9,12.657c-1.259,1.45-3.243,2.846-4.94,1.97C286.392,231.275,295.655,219.069,297.954,216.77Z" transform="translate(-192.77 -172.568)" fill="#1d1d1b" opacity="0.3"/>
            <path id="Trazado_780819" data-name="Trazado 780819" d="M266.944,219.04c.917-.917,2.162-1.834,3.394-1.423,1.533.52,1.71,2.6,1.464,4.187a25.472,25.472,0,0,1-5.9,12.657c-1.259,1.45-3.243,2.846-4.94,1.97-5.583-2.887,3.681-15.093,5.98-17.392Z" transform="translate(-204.192 -171.732)" fill="#1d1d1b" opacity="0.3"/>
            <path id="Trazado_780820" data-name="Trazado 780820" d="M317.054,370.59c.917-.917,2.162-1.834,3.394-1.423,1.532.52,1.71,2.6,1.464,4.187a25.472,25.472,0,0,1-5.9,12.657c-1.259,1.45-3.243,2.846-4.94,1.97C305.491,385.095,314.755,372.889,317.054,370.59Z" transform="translate(-185.735 -115.91)" fill="#1d1d1b" opacity="0.3"/>
            <path id="Trazado_780821" data-name="Trazado 780821" d="M342.134,391.37c.917-.917,2.162-1.833,3.394-1.423,1.533.52,1.71,2.6,1.464,4.187a25.473,25.473,0,0,1-5.9,12.657c-1.259,1.451-3.243,2.846-4.94,1.97C330.572,405.875,339.835,393.669,342.134,391.37Z" transform="translate(-176.497 -108.256)" fill="#1d1d1b" opacity="0.3"/>
            <path id="Trazado_780822" data-name="Trazado 780822" d="M284.754,374.91c.917-.917,2.162-1.834,3.393-1.423,1.533.52,1.71,2.6,1.464,4.187a25.471,25.471,0,0,1-5.9,12.657c-1.259,1.45-3.243,2.846-4.94,1.97-5.583-2.887,3.681-15.093,5.98-17.392Z" transform="translate(-197.632 -114.319)" fill="#1d1d1b" opacity="0.3"/>
            <path id="Trazado_780823" data-name="Trazado 780823" d="M296.045,349.13c-.93-.889-1.875-2.121-1.491-3.352.479-1.546,2.559-1.765,4.16-1.56a25.474,25.474,0,0,1,12.794,5.61c1.478,1.232,2.915,3.175,2.08,4.9-2.764,5.638-15.175-3.339-17.528-5.6Z" transform="translate(-191.203 -125.087)" fill="#1d1d1b" opacity="0.3"/>
            <path id="Trazado_780824" data-name="Trazado 780824" d="M345.565,281.03c-.93-.889-1.875-2.121-1.492-3.352.479-1.546,2.559-1.765,4.16-1.56a25.526,25.526,0,0,1,12.794,5.61c1.478,1.232,2.915,3.175,2.08,4.9-2.764,5.637-15.175-3.339-17.528-5.6Z" transform="translate(-172.963 -150.171)" fill="#1d1d1b" opacity="0.3"/>
            <path id="Trazado_780825" data-name="Trazado 780825" d="M314.585,224.97c-.93-.889-1.875-2.121-1.491-3.352.479-1.546,2.559-1.765,4.16-1.56a25.526,25.526,0,0,1,12.794,5.61c1.478,1.231,2.915,3.175,2.08,4.9-2.764,5.637-15.175-3.339-17.528-5.6Z" transform="translate(-184.374 -170.82)" fill="#1d1d1b" opacity="0.3"/>
            <path id="Trazado_780826" data-name="Trazado 780826" d="M299.145,253.31c-.93-.889-1.875-2.121-1.491-3.352.479-1.546,2.559-1.765,4.16-1.56a25.524,25.524,0,0,1,12.794,5.61c1.478,1.231,2.915,3.175,2.08,4.9-2.764,5.638-15.175-3.339-17.528-5.6Z" transform="translate(-190.061 -160.381)" fill="#1d1d1b" opacity="0.3"/>
            <path id="Trazado_780827" data-name="Trazado 780827" d="M352.645,208.31c-.931-.889-1.875-2.121-1.492-3.352.479-1.546,2.559-1.765,4.16-1.56a25.474,25.474,0,0,1,12.794,5.61c1.478,1.231,2.914,3.174,2.08,4.9-2.764,5.638-15.175-3.339-17.528-5.6Z" transform="translate(-170.355 -176.956)" fill="#1d1d1b" opacity="0.3"/>
            <path id="Trazado_780828" data-name="Trazado 780828" d="M291.385,403.2c-.93-.889-1.875-2.121-1.491-3.352.479-1.546,2.559-1.765,4.16-1.56a25.474,25.474,0,0,1,12.794,5.61c1.478,1.231,2.915,3.175,2.08,4.9-2.764,5.638-15.175-3.339-17.528-5.6Z" transform="translate(-192.919 -105.171)" fill="#1d1d1b" opacity="0.3"/>
            <path id="Trazado_780921" data-name="Trazado 780921" d="M291.385,403.2c-.93-.889-1.875-2.121-1.491-3.352.479-1.546,2.559-1.765,4.16-1.56a25.474,25.474,0,0,1,12.794,5.61c1.478,1.231,2.915,3.175,2.08,4.9-2.764,5.638-15.175-3.339-17.528-5.6Z" transform="translate(-103.04 -95.584)" fill="#1d1d1b" opacity="0.3"/>
            <path id="Trazado_780829" data-name="Trazado 780829" d="M268.215,319.92c-.93-.889-1.875-2.121-1.492-3.352.479-1.546,2.559-1.765,4.16-1.56a25.474,25.474,0,0,1,12.794,5.61c1.478,1.232,2.914,3.175,2.08,4.9-2.764,5.637-15.175-3.339-17.528-5.6Z" transform="translate(-201.454 -135.846)" fill="#1d1d1b" opacity="0.3"/>
            <path id="Trazado_780830" data-name="Trazado 780830" d="M367.795,253.31c-.93-.889-1.875-2.121-1.491-3.352.479-1.546,2.559-1.765,4.16-1.56a25.525,25.525,0,0,1,12.794,5.61c1.478,1.231,2.915,3.175,2.08,4.9-2.764,5.638-15.175-3.339-17.529-5.6Z" transform="translate(-164.775 -160.381)" fill="#1d1d1b" opacity="0.3"/>
            <path id="Trazado_780831" data-name="Trazado 780831" d="M237.869,196.6c-2.764,5.638-15.175-3.339-17.528-5.6A5.707,5.707,0,0,1,219,189.2c2.395-.862,4.817-1.683,7.238-2.449a25.5,25.5,0,0,1,9.551,4.953C237.267,192.935,238.7,194.878,237.869,196.6Z" transform="translate(-219 -183.064)" fill="#1d1d1b" opacity="0.3"/>
            <path id="Trazado_780832" data-name="Trazado 780832" d="M338.5,365.5c-.931-.889-1.875-2.121-1.491-3.352.479-1.546,2.559-1.765,4.16-1.56a25.473,25.473,0,0,1,12.794,5.61c1.478,1.231,2.915,3.175,2.08,4.9-2.764,5.638-15.175-3.339-17.528-5.6Z" transform="translate(-175.567 -119.057)" fill="#1d1d1b" opacity="0.3"/>
          </g>
          <path id="Trazado_780833" data-name="Trazado 780833" d="M244.795,217.774c-8.374,15.312-26.04,27.517-43.458,26.573A47.61,47.61,0,0,1,160.82,215.68c5.939-18.39,6.445-40.3,0-58.51,15.421,14.422,37.917,22.194,58.8,19.075a28.857,28.857,0,0,0-1.683,6.062h-.014a30.935,30.935,0,0,0,3.9,20.99,28.4,28.4,0,0,0,2.025,2.915,30.91,30.91,0,0,0,20.936,11.562Z" transform="translate(-92.791 -20.994)" fill="#ffa58d"/>
          <path id="Trazado_780834" data-name="Trazado 780834" d="M221.966,202.482a78.422,78.422,0,0,1-19.211-4.365,81.559,81.559,0,0,1-20.58-11.043,79.814,79.814,0,0,1-8.894-7.608c-2.011-2.011-6.7-5.774-7.225-8.662-.848-4.6,4.064-3.722,6.527-2.668a137.533,137.533,0,0,0,13.259,4.926,130.626,130.626,0,0,0,26.819,5.337c1.108.1,2.244.178,3.38.178a30.936,30.936,0,0,0,3.9,20.99,28.4,28.4,0,0,0,2.025,2.915Z" transform="translate(-90.898 -17.264)" fill="#1d1d1b" opacity="0.3"/>
          <path id="Trazado_780835" data-name="Trazado 780835" d="M333.414,312.8c-4.529,11.248-15.531,17.925-27.093,22.468-2.5.985-5.049,1.875-7.553,2.682-38.806,12.534-78.543,15.8-118.621,12.37-4.762-.4-9.524-.9-14.3-1.491q-8.066-.985-16.01-2.641c-2.244-6.9-4.488-13.848-6.677-20.84-.137-.452-.274-.9-.411-1.341-3.106-9.934-6.089-19.964-8.771-30.062-.151-.493-.287-1-.4-1.491-5.364-20.292-9.524-40.859-11.056-61.466-.753-10.139-.616-21.168,5.487-29.3,4.105-5.46,10.427-8.771,17.186-10.153.7-.137,1.423-.26,2.135-.369a35.954,35.954,0,0,1,5.131-.37c8.648-.041,17.159,1.929,25.82,1.273,3.339,9.756,10.44,16.872,19.772,21.264,8.388,3.941,17.939,6.335,26.943,4.16s18.541-9.852,18.924-19.116c5.829,3.489,12.452,4.734,19.294,5.323l1.683.123c7.389.506,15,.411,22.126,1.628.493.082.985.164,1.478.274a35.6,35.6,0,0,1,11.631,4.283,27.848,27.848,0,0,1,3.462,2.463h0c.465.356.93.753,1.382,1.163A44.64,44.64,0,0,1,313.19,224c.274.465.534.93.807,1.4a95.623,95.623,0,0,1,4.3,8.839c6.459,14.956,10.81,30.747,14.518,46.619,2.477,10.536,4.625,21.907.588,31.951Z" transform="translate(-107.013 -8.607)" fill="#b3e3df"/>
          <g id="Grupo_1046968" data-name="Grupo 1046968" transform="translate(26.568 182.563)">
            <path id="Trazado_780836" data-name="Trazado 780836" d="M181.121,222.336c-2.326-5.61-6.951-9.948-11.59-13.807a173.689,173.689,0,0,0-25.259-17.46c-.712.109-1.437.233-2.135.369a173.161,173.161,0,0,1,26.518,18.144c4.515,3.749,8.99,7.95,11.207,13.273,1.984,4.775,2.039,11.727-2.518,15.75-3.393,2.983-8.1,3.27-12.753,2.039,1.71-5.514,3.3-12.6.52-18.609a12.514,12.514,0,0,0-8.8-6.732,8.277,8.277,0,0,0-7.512,1.943c-2.832,2.682-3.558,7.457-1.738,11.617,1.779,4.119,5.446,6.979,8.032,8.785a30.979,30.979,0,0,0,7.786,3.9,120.4,120.4,0,0,1-32.361,50.806c.109.492.246,1,.4,1.491a121.914,121.914,0,0,0,33.278-51.915c5.077,1.368,10.276,1.026,14.053-2.3,5.063-4.461,5.049-12.1,2.874-17.3Zm-17.829,17.912a29.45,29.45,0,0,1-7.416-3.722c-3.9-2.709-6.308-5.323-7.567-8.21-1.574-3.64-1-7.786,1.423-10.071a6.631,6.631,0,0,1,4.652-1.765,8.844,8.844,0,0,1,1.669.164,11.278,11.278,0,0,1,7.813,5.966C166.453,228.193,164.92,234.966,163.292,240.248Z" transform="translate(-130.52 -191.07)" fill="#d3f2ee"/>
            <path id="Trazado_780837" data-name="Trazado 780837" d="M281.53,221.918a39.608,39.608,0,0,0-4.215.082c-9.264.643-18.8,3.941-29.173,10.044-1,.6-2.011,1.218-3.01,1.82-5.542,3.38-11.261,6.869-17.788,7.553a17.583,17.583,0,0,1-13.163-4.283,10.832,10.832,0,0,1-3.79-8.265c.082-4.57,3-8.347,6.226-12.123l14.121-16.516,1.683.123-14.764,17.282c-3.065,3.585-5.815,7.143-5.9,11.248a9.581,9.581,0,0,0,3.339,7.238,16.146,16.146,0,0,0,12.11,3.927c6.212-.643,11.809-4.05,17.214-7.348,1.013-.616,2.011-1.232,3.024-1.834,10.564-6.212,20.306-9.565,29.775-10.235,1.177-.082,2.34-.123,3.5-.11C281,220.988,281.257,221.453,281.53,221.918Z" transform="translate(-101.101 -187.696)" fill="#d3f2ee"/>
            <path id="Trazado_780838" data-name="Trazado 780838" d="M260.712,257.971l-.561,1.245-52.873-23.7c-4.83-2.176-9.537-4.023-14.039-2.956-8.511,2.039-11.166,12.356-13.505,21.456l-.26.971c-5.939,23.015-21.538,43.281-41.844,55.6-.137-.452-.274-.9-.411-1.341,19.868-12.164,35.112-32.046,40.941-54.6l.246-.971c2.313-9,5.2-20.224,14.518-22.441,5.323-1.273,10.865,1.218,14.915,3.024l52.872,23.713Z" transform="translate(-128.052 -176.405)" fill="#d3f2ee"/>
            <path id="Trazado_780839" data-name="Trazado 780839" d="M260.626,209.693a31.764,31.764,0,0,1-4.091.479q-.8.041-1.56.041c-3.681,0-6.513-.807-8.607-2.477a10.768,10.768,0,0,1-3.708-6.226c.493.082.985.164,1.478.274a9.084,9.084,0,0,0,3.079,4.885c2.107,1.669,5.131,2.367,9.236,2.135.931-.055,1.847-.151,2.778-.274h0c.465.356.93.753,1.382,1.163Z" transform="translate(-89.215 -187.225)" fill="#d3f2ee"/>
          </g>
          <path id="Trazado_780840" data-name="Trazado 780840" d="M337.229,323.041c-9.154,12.069-18.171,8.306-33.223,9.975s-30.254-1.409-44.745-5.829-28.543-10.194-43.185-14.107c-5.118-1.368-10.345-2.531-15.2-4.6-.862-.356-1.7-.753-2.518-1.177-5.542-2.846-10.5-7.526-12-13.56-1.71-6.814,1.19-13.888,4.488-20.087,5.268-9.948,7.813-23.139,17.255-29.255,12.452-8.059,27.435-11.645,42.254-11.918a123.566,123.566,0,0,1,24.165,2.08c2.969.52,5.939,1.136,8.881,1.82,3.612.835,7.2,1.779,10.755,2.805,10.358,2.969,20.648,6.623,29.748,12.383a62.812,62.812,0,0,1,5.473,3.872,50.636,50.636,0,0,1,15.763,19.882C350.242,287.478,345.193,312.546,337.229,323.041Z" transform="translate(-83.572 6.741)" fill="#ffe9e3"/>
          <path id="Trazado_780841" data-name="Trazado 780841" d="M333.185,316.873c-9.154,12.069-18.171,8.306-33.223,9.975s-30.254-1.409-44.745-5.829-28.543-10.194-43.185-14.107c-5.118-1.368-10.345-2.532-15.2-4.6L198.2,299.6c19.266,3.8,38.9,7.622,58.428,5.473s39.285-11.261,49.493-28.037c4.8-7.868,7.32-17.077,12.972-24.356,1.149-1.491,2.545-2.956,4.379-3.352a5.021,5.021,0,0,1,1.861-.055,50.637,50.637,0,0,1,15.763,19.882c5.1,12.151.055,37.219-7.909,47.714Z" transform="translate(-79.527 12.91)" fill="#1d1d1b" opacity="0.9"/>
          <path id="Trazado_780842" data-name="Trazado 780842" d="M212.789,289.088c5.159-3.476,9.784-8,12.438-13.642s3.147-12.466.41-18.062-9.017-9.524-15.189-8.661a1.894,1.894,0,0,0-1.177.479c-.629.712-.027,1.793.52,2.573,3.2,4.666,3.517,10.851,2.053,16.324s-4.5,10.358-7.622,15.093c-2.408,3.654-7.594,9.414-7.813,13.834,2.176.479,5.952-2.162,7.95-3.134A72.349,72.349,0,0,0,212.8,289.1Z" transform="translate(-79.682 12.685)" fill="#1d1d1b" opacity="0.7"/>
          <path id="Trazado_780843" data-name="Trazado 780843" d="M254.083,94.749c-11.234,14.5-11.959,34.564-6.212,51.764a25.673,25.673,0,0,0,4.324,8.511,11.381,11.381,0,0,0,8.237,4.338c4.42.068,8.155-3.147,11.125-6.418,10.44-11.562,16.858-26.217,21.36-41.118,1.806-5.966,3.325-12.3,1.929-18.363-3.913-17.008-26.19-13.013-35.974-3.927a43.965,43.965,0,0,0-4.789,5.227Z" transform="translate(-62.028 -48.787)" fill="#193f63"/>
          <path id="Trazado_780844" data-name="Trazado 780844" d="M254.083,94.749c-11.234,14.5-11.959,34.564-6.212,51.764a25.673,25.673,0,0,0,4.324,8.511,11.381,11.381,0,0,0,8.237,4.338c4.42.068,8.155-3.147,11.125-6.418,10.44-11.562,16.858-26.217,21.36-41.118,1.806-5.966,3.325-12.3,1.929-18.363-3.913-17.008-26.19-13.013-35.974-3.927a43.965,43.965,0,0,0-4.789,5.227Z" transform="translate(-62.028 -48.787)" fill="#1d1d1b" opacity="0.3"/>
          <path id="Trazado_780845" data-name="Trazado 780845" d="M270.092,93.107s-20.4,7.512-20.4,61.452,36.795,57.361,39.518,57.361,38.916-4.091,50.875-54.282-25.944-84.331-69.991-64.531Z" transform="translate(-60.057 -46.694)" fill="#ffa58d"/>
          <path id="Trazado_780846" data-name="Trazado 780846" d="M288.561,125.741a54.618,54.618,0,0,0,43.089,5.241q-15.394-10.9-30.788-21.784c-5.008-3.544-10.016-7.088-15.175-10.4-3.749-2.408-10.112-7.977-14.846-7.156-11.987,2.094,1.136,19.1,4.707,23.207A53.739,53.739,0,0,0,288.561,125.741Z" transform="translate(-54.087 -45.16)" fill="#1d1d1b" opacity="0.3"/>
          <path id="Trazado_780847" data-name="Trazado 780847" d="M264.6,98.007s18.678,39.435,65.954,40.735c7.02.192,17.474-.452,19.978-8.538,2.23-7.211,1.779-19.772-5.337-30.733-9.332-14.354-16.844-19.636-34.072-24.288C294.635,70.722,270.867,80.3,264.6,98.007" transform="translate(-54.565 -51.593)" fill="#193f63"/>
          <path id="Trazado_780848" data-name="Trazado 780848" d="M244.727,174.826c.233,24.74-8.06,37.205-23.754,40.393-18.254,3.708-43.9-9.825-56.458-27.982C148.943,164.714,129.622,97.994,200.2,91.33c0,0,33.716,11.371,41.556,55.281q1.211,6.794,1.929,12.821A139.941,139.941,0,0,1,244.727,174.826Z" transform="translate(-96.869 -45.245)" fill="#ffa58d"/>
          <path id="Trazado_780849" data-name="Trazado 780849" d="M311.736,144.467A27.4,27.4,0,0,0,329.47,135.6a16.833,16.833,0,0,0,4.324-8.114,9.633,9.633,0,0,0-2.463-8.593c-2.915-2.805-7.731-2.887-11.3-.972s-6.007,5.432-7.622,9.141c-2.2,5.063-.1,11.9-.657,17.405Z" transform="translate(-37.335 -35.932)" fill="#ffa58d"/>
          <path id="Trazado_780850" data-name="Trazado 780850" d="M321.091,119.589a4.2,4.2,0,0,1,3.147,2.545,7.428,7.428,0,0,1,.383,4.16,10.218,10.218,0,0,1-1.833,4.611c-.643.876-1.71,1.669-2.737,1.327a2.766,2.766,0,0,1-1.437-1.574c-1.231-2.614-2.873-11.74,2.463-11.07Z" transform="translate(-35.127 -34.849)" fill="#1d1d1b" opacity="0.3"/>
          <path id="Trazado_780851" data-name="Trazado 780851" d="M191.332,120.491c-3.708,2.477-8.2,3.777-11.48,6.787-4.529,4.173-5.815,10.687-8.347,16.3A37.379,37.379,0,0,1,152.8,162.239c3.736-12.274.876-26.559,7.813-37.356,4.433-6.9,12.041-10.947,19.28-14.792a83.792,83.792,0,0,0,10.646-6.4,35.748,35.748,0,0,0,4.611-4.009c1.19-1.245,2.449-3.872,4.037-4.228,4.42,8.2-.684,20.238-7.868,25.027Z" transform="translate(-95.745 -43.727)" fill="#1d1d1b" opacity="0.3"/>
          <path id="Trazado_780852" data-name="Trazado 780852" d="M192.239,120.766c-5.856,3.53-13.464,5.035-17.091,10.824-2.572,4.105-2.395,9.277-3.243,14.053A32.3,32.3,0,0,1,160.863,164.7c-2.408,2-5.391,3.708-8.5,3.3-3.243-.424-5.733-3.065-7.485-5.815-4.379-6.883-5.761-15.449-4.652-23.522a51.9,51.9,0,0,1,9.318-22.4,68.953,68.953,0,0,1,31.964-24.548c4.817-1.82,13.574-5.514,18.691-3.325,5.2,2.23,4.817,9.866,4,14.45a26.433,26.433,0,0,1-11.946,17.912Z" transform="translate(-100.51 -46.575)" fill="#193f63"/>
          <path id="Trazado_780853" data-name="Trazado 780853" d="M227.763,133.5a54.01,54.01,0,0,0-45.88-45.155c-.766-.109-.109,6.719.616,7.581,1.245,1.478,4.529,1.943,6.253,2.668a80.222,80.222,0,0,1,15.449,8.7A81.415,81.415,0,0,1,227.763,133.5Z" transform="translate(-85.159 -46.347)" fill="#193f63"/>
          <path id="Trazado_780854" data-name="Trazado 780854" d="M329.13,279.463a197.65,197.65,0,0,1-14.6-27.271c-1.751-4-3.435-8.142-6.486-11.248-5.364-5.446-13.629-6.5-21.237-7.239-3.736-.369-7.69-.6-11.261.821a26.409,26.409,0,0,0-8.99,6.294,16.734,16.734,0,0,0-3.968,6.158,1.377,1.377,0,0,0,0,1.2c.342.452,1.04.328,1.574.137a28.309,28.309,0,0,0,5.514-2.627,52.077,52.077,0,0,0-2.709,7.54,1.906,1.906,0,0,0,.109,1.9c.575.575,1.546.205,2.244-.219a35.676,35.676,0,0,0,5.6-4.215c-.835,1.71-2.326,4.16-2.805,6.007a2.094,2.094,0,0,0,.041,1.628c.479.78,1.628.657,2.477.342,2.915-1.122,5.118-3.517,7.594-5.4a25.233,25.233,0,0,1,13.068-5.035,32.049,32.049,0,0,0-11.6,12.684,6.577,6.577,0,0,0-.7,2.354,2.519,2.519,0,0,0,.944,2.162,2.692,2.692,0,0,0,3.092-.383,11.019,11.019,0,0,0,2.025-2.641c2.2-3.325,5.665-6.349,9.784-6.746,3.927-.383,7.471,3.749,9.633,6.65,6.308,8.415,10.317,18.787,9.934,29.3-.274,7.4-2.668,14.532-5.035,21.551.876.41,1.56,1.136,2.436,1.532,2.3-11.672,8.224-23.152,14.819-33.059a21.865,21.865,0,0,1-1.519-2.162Z" transform="translate(-55.358 7.094)" fill="#ffa58d"/>
          <path id="Trazado_780855" data-name="Trazado 780855" d="M141.7,320.526c1.834,6.636,3.681,13.314,6.7,19.485s7.321,11.9,13.15,15.572,9.811,5.856,16.242,3.407c54.679.26,107.278-17.556,144.606-57.5a54.007,54.007,0,0,0,9.784-13.724,32.613,32.613,0,0,0,2.162-6.062c.383-1.574,1.245-4.214.7-5.8-.725-2.053-2.08-.93-2.805.315-.971,1.669-2.025,3.284-3.161,4.858-2.011,2.764-4.488,5.145-6.527,7.868a94.861,94.861,0,0,0,8.867-13.218,31.435,31.435,0,0,0,3.913-15.271c-.027-.835-.342-1.929-1.19-1.929-.684,0-1.095.766-1.341,1.409a77.146,77.146,0,0,1-13.382,22.03,80.4,80.4,0,0,0,6.773-12.89,27.131,27.131,0,0,0,1.765-14.3c-.137-.78-.479-1.71-1.259-1.847-.889-.15-1.519.807-1.9,1.628-3.229,6.965-6.582,12.315-10.386,18.979a46.143,46.143,0,0,0,3.653-16.8c.041-1.368-.151-3.01-1.382-3.626a2.6,2.6,0,0,0-3,.9,8.493,8.493,0,0,0-1.327,3.079,39.319,39.319,0,0,1-6.335,13.4,21.89,21.89,0,0,1-12.1,8.2c-1.4.315-2.107.342-3.024-.807a6.726,6.726,0,0,1-1.177-2.559c-.41-1.628-.835-3.257-1.245-4.871q-1.273-4.967-2.531-9.934c-.766-2.983-1.642-6.158-4-8.128a2.524,2.524,0,0,0-2.627-.657c-.848.438-1.054,1.533-1.149,2.477a162.354,162.354,0,0,0-.739,24.739c.164,3.476.424,7.061-.794,10.317-2.121,5.651-8.333,6.445-13.6,6.992-23.193,2.422-47.509-1.45-69.813,6.924a9.892,9.892,0,0,0-3.12-6.65c-14.751,9.743-31.5,18.951-48.439,24.014Z" transform="translate(-99.845 13.772)" fill="#ffa58d"/>
          <path id="Trazado_780856" data-name="Trazado 780856" d="M123.59,224.546a4.858,4.858,0,0,1,3.284,1.3c6.007,4.433,12.657,7.909,18.664,12.342.671.493,1.409,1.108,1.437,1.943.041,1.177-1.368,1.875-2.531,1.833s-2.326-.52-3.489-.383c2.408,1.149,3.544,2.969,5.569,4.721a6.974,6.974,0,0,1,1.82,2.135,2.841,2.841,0,0,1,0,2.709c-.835,1.355-2.764,1.368-4.351,1.232-1.875-.164-3.749-.342-5.624-.506a11.08,11.08,0,0,1,4.269,4.105,2.5,2.5,0,0,1,.383,2.49c-.493.835-1.656.9-2.627.835a27.08,27.08,0,0,1-6.253-1.232,8.652,8.652,0,0,1,2.354,3.134,2.726,2.726,0,0,1-.547,3.462,3.792,3.792,0,0,1-2.805.287c-3.968-.657-10.659-3.913-7.348-9.154a11.319,11.319,0,0,1-1.779-10.591,17.478,17.478,0,0,1-2.395-5.651,4.971,4.971,0,0,1,1.7-5.035c-1.259-1.738-1.587-4.68-1.478-6.732.1-2.08.739-3.065,1.751-3.229Z" transform="translate(-107.27 3.815)" fill="#ffa58d"/>
          <path id="Trazado_780857" data-name="Trazado 780857" d="M206.9,135.569a3.75,3.75,0,0,1,.643-2.422,2.246,2.246,0,0,1,2.244-.9,3.008,3.008,0,0,1,1.683,1.4,7.2,7.2,0,0,1,.876,5.788,2.589,2.589,0,0,1-1.2,1.751,2.162,2.162,0,0,1-2.408-.657,8.889,8.889,0,0,1-1.834-4.94Z" transform="translate(-75.82 -30.194)" fill="#193f63"/>
          <path id="Trazado_780858" data-name="Trazado 780858" d="M185.611,139.709a3.75,3.75,0,0,1,.643-2.422,2.261,2.261,0,0,1,2.244-.9,3.007,3.007,0,0,1,1.683,1.4,7.2,7.2,0,0,1,.876,5.788,2.589,2.589,0,0,1-1.2,1.751,2.162,2.162,0,0,1-2.408-.657,8.889,8.889,0,0,1-1.834-4.94Z" transform="translate(-83.661 -28.669)" fill="#193f63"/>
          <path id="Trazado_780859" data-name="Trazado 780859" d="M212.422,125.99c1.382.26,3.01.67,4.064-.246a8.187,8.187,0,0,0-8.306-3.5,7.966,7.966,0,0,0-3.886,2.066c-.479.465-2.764,3.106-2.025,3.722.383.315,3.913-1.642,4.584-1.82a13.189,13.189,0,0,1,5.569-.219Z" transform="translate(-77.577 -33.915)" fill="#193f63"/>
          <path id="Trazado_780860" data-name="Trazado 780860" d="M290.785,128.65c1.327.465,2.86,1.136,4.05.4a8.19,8.19,0,0,0-7.649-4.775,8.053,8.053,0,0,0-4.173,1.437c-.547.383-3.229,2.641-2.586,3.352.328.369,4.119-1,4.817-1.067a12.954,12.954,0,0,1,5.542.67Z" transform="translate(-48.772 -33.114)" fill="#193f63"/>
          <path id="Trazado_780861" data-name="Trazado 780861" d="M182.7,131.624c-1.19.753-2.545,1.738-3.872,1.259a8.188,8.188,0,0,1,6.431-6.322,8,8,0,0,1,4.379.493c.616.246,3.722,1.875,3.257,2.709-.246.438-4.242-.082-4.94,0a13.063,13.063,0,0,0-5.254,1.847Z" transform="translate(-86.157 -32.31)" fill="#193f63"/>
          <path id="Trazado_780862" data-name="Trazado 780862" d="M257.232,129.574c-1.19.753-2.545,1.738-3.872,1.259a8.188,8.188,0,0,1,6.431-6.322,8,8,0,0,1,4.379.493c.616.246,3.722,1.875,3.257,2.709-.246.438-4.242-.082-4.94,0a13.063,13.063,0,0,0-5.254,1.847Z" transform="translate(-58.705 -33.065)" fill="#193f63"/>
          <path id="Trazado_780863" data-name="Trazado 780863" d="M196.99,129.47q5.6,13.978,11.193,27.941c.6,1.519,1.218,3.147.835,4.734a5.339,5.339,0,0,1-2.873,3.311,15.742,15.742,0,0,1-4.324,1.273" transform="translate(-79.468 -31.197)" fill="none" stroke="#cb7c5e" stroke-miterlimit="10" stroke-width="0.69"/>
          <path id="Trazado_780864" data-name="Trazado 780864" d="M190.12,165.13a19.474,19.474,0,0,0,19.253,6.267" transform="translate(-81.999 -18.062)" fill="none" stroke="#cb7c5e" stroke-miterlimit="10" stroke-width="0.69"/>
          <path id="Trazado_780865" data-name="Trazado 780865" d="M172.874,170.083a20.814,20.814,0,0,1-26.327-16.27c-.7-3.9-.014-8.443,3.147-10.824a8.593,8.593,0,0,1,7.7-1.067,12.68,12.68,0,0,1,6.253,4.9c4.529,6.486,6.185,15.941,9.209,23.248Z" transform="translate(-98.14 -26.778)" fill="#ffa58d"/>
          <path id="Trazado_780866" data-name="Trazado 780866" d="M151.748,144.867a2.693,2.693,0,0,0-1.2,1.929,6.78,6.78,0,0,0,.151,2.34c.657,3.5,1.9,7.088,4.57,9.455a1.507,1.507,0,0,0,1.327.506c.629-.192.739-1.04.712-1.71a43.4,43.4,0,0,0-.944-7.5c-.3-1.4-.233-3.38-1.355-4.392a2.841,2.841,0,0,0-3.243-.629Z" transform="translate(-96.595 -25.631)" fill="#1d1d1b" opacity="0.3"/>
          <path id="Trazado_780867" data-name="Trazado 780867" d="M215.186,187.511A67.061,67.061,0,0,1,164.53,167.26" transform="translate(-91.424 -17.277)" fill="none" stroke="#cb7c5e" stroke-miterlimit="10" stroke-width="0.69"/>
          <path id="Trazado_780868" data-name="Trazado 780868" d="M278.05,188.938a53.707,53.707,0,0,0,45.976-38.888" transform="translate(-49.611 -23.616)" fill="none" stroke="#cb7c5e" stroke-miterlimit="10" stroke-width="0.69"/>
          <path id="Trazado_780869" data-name="Trazado 780869" d="M317.12,120.959a6.731,6.731,0,0,1,10.906,5.87" transform="translate(-35.22 -34.864)" fill="none" stroke="#cb7c5e" stroke-miterlimit="10" stroke-width="0.69"/>
          <path id="Trazado_780870" data-name="Trazado 780870" d="M320.97,119.49a8.367,8.367,0,0,1,1.108,9.811" transform="translate(-33.802 -34.873)" fill="none" stroke="#cb7c5e" stroke-miterlimit="10" stroke-width="0.69"/>
          <path id="Trazado_780871" data-name="Trazado 780871" d="M273.3,128.11q-1.745,17.036-2.9,34.14c-.1,1.355-.027,3.01,1.163,3.64a3.632,3.632,0,0,0,2.887-.205c1.683-.616,3.38-1.231,5.063-1.847" transform="translate(-52.44 -31.698)" fill="none" stroke="#cb7c5e" stroke-miterlimit="10" stroke-width="0.69"/>
          <path id="Trazado_780872" data-name="Trazado 780872" d="M277.2,169.4a21.552,21.552,0,0,0,16.338-16.475" transform="translate(-49.924 -22.555)" fill="none" stroke="#cb7c5e" stroke-miterlimit="10" stroke-width="0.69"/>
          <path id="Trazado_780873" data-name="Trazado 780873" d="M261.115,136.076a1.431,1.431,0,0,1,1.382-.712,1.892,1.892,0,0,1,1.177,1.026,7.552,7.552,0,0,1,.766,5.679c-.219.821-.753,1.724-1.6,1.751-.766.027-1.355-.684-1.683-1.382-.917-1.861-1.2-4.529-.027-6.363Z" transform="translate(-56.129 -29.031)" fill="#193f63"/>
          <path id="Trazado_780874" data-name="Trazado 780874" d="M284.305,134.606a1.431,1.431,0,0,1,1.382-.712,1.892,1.892,0,0,1,1.177,1.026,7.552,7.552,0,0,1,.766,5.679c-.219.821-.753,1.724-1.6,1.751-.766.027-1.355-.684-1.683-1.382-.917-1.861-1.2-4.529-.027-6.363Z" transform="translate(-47.588 -29.573)" fill="#193f63"/>
          <path id="Trazado_780875" data-name="Trazado 780875" d="M272.02,247.694a13,13,0,0,1,7.156-5.856,39.2,39.2,0,0,1,9.25-1.847" transform="translate(-51.832 9.512)" fill="none" stroke="#cb7c5e" stroke-miterlimit="10" stroke-width="0.69"/>
          <path id="Trazado_780876" data-name="Trazado 780876" d="M267.98,243.829c1.573-3.27,4.885-5.446,8.36-6.5a39.7,39.7,0,0,1,10.81-1.149" transform="translate(-53.32 8.109)" fill="none" stroke="#cb7c5e" stroke-miterlimit="10" stroke-width="0.69"/>
          <path id="Trazado_780877" data-name="Trazado 780877" d="M138.986,238.54a84.733,84.733,0,0,1-14.436-7.02" transform="translate(-106.151 6.392)" fill="none" stroke="#cb7c5e" stroke-miterlimit="10" stroke-width="0.69"/>
          <path id="Trazado_780878" data-name="Trazado 780878" d="M136.224,246.024a64.608,64.608,0,0,1-11.754-6.554" transform="translate(-106.18 9.32)" fill="none" stroke="#cb7c5e" stroke-miterlimit="10" stroke-width="0.69"/>
          <path id="Trazado_780879" data-name="Trazado 780879" d="M130.958,249.285c-1.875-.766-3.749-1.519-5.638-2.285" transform="translate(-105.867 12.094)" fill="none" stroke="#cb7c5e" stroke-miterlimit="10" stroke-width="0.69"/>
          <g id="Grupo_1046969" data-name="Grupo 1046969" transform="translate(62.095 245.747)">
            <path id="Trazado_780880" data-name="Trazado 780880" d="M196.72,302.242A47.248,47.248,0,0,0,230.5,285.548c3.079-3.695,5.624-7.977,6.472-12.712a20.184,20.184,0,0,0-4.173-16.092,20.4,20.4,0,0,0-14.942-7.485,7.4,7.4,0,0,0-1.806-2.778,3.328,3.328,0,0,0-3.092-.78c-1.013.328-1.7,1.231-2.586,1.806-1.464.971-3.243,1.9-4.515.7a26.449,26.449,0,0,0-33.948-1.875c-4.817,3.612-5.145,3.421-7.909,8.785a33.952,33.952,0,0,0-3.352,17.542c.547,8.785,4.078,17.556,10.6,23.453s16.666,6.486,25.465,6.1Z" transform="translate(-154.976 -235.844)" fill="#ffa58d"/>
            <path id="Trazado_780881" data-name="Trazado 780881" d="M184.776,277.043a21.051,21.051,0,0,1,9.551,13.423,13.456,13.456,0,0,0,1.327,4.475c1.97,3.133,6.527,3.174,9.565,5.282,1.19.835,2.2,2.326,1.628,3.667A3.913,3.913,0,0,1,204.3,305.7a36.43,36.43,0,0,1-47.413-40.174,29.8,29.8,0,0,1,1.888-6.855,19.077,19.077,0,0,1,2.08-4.119c.452-.6,1.122-2.545,2.094-1.875.93.657.274,3.708.219,4.639.205-4.009,3.421-7.184,6.623-9.606s6.787-4.762,8.415-8.443a3.665,3.665,0,0,1,1.327-1.943c1.683-.876,4.844,6.24,5.432,7.54a38.415,38.415,0,0,1,3.051,10.482,37.688,37.688,0,0,1-3.229,21.688Z" transform="translate(-156.483 -237.246)" fill="#ffe1c7"/>
            <path id="Trazado_780882" data-name="Trazado 780882" d="M207.237,250.01a24.318,24.318,0,0,1-1.177,6.021" transform="translate(-138.222 -232.544)" fill="none" stroke="#cb7c5e" stroke-miterlimit="10" stroke-width="0.69"/>
            <path id="Trazado_780883" data-name="Trazado 780883" d="M191.75,248.33a9.109,9.109,0,0,1,.712,7.608" transform="translate(-143.493 -233.163)" fill="none" stroke="#cb7c5e" stroke-miterlimit="10" stroke-width="0.69"/>
            <path id="Trazado_780884" data-name="Trazado 780884" d="M185.09,251.26a8.875,8.875,0,0,0,1.409,4.406" transform="translate(-145.946 -232.084)" fill="none" stroke="#cb7c5e" stroke-miterlimit="10" stroke-width="0.69"/>
            <path id="Trazado_780885" data-name="Trazado 780885" d="M181.388,280.812a5.1,5.1,0,0,0,3.147,3.777,8.984,8.984,0,0,0,5.063.369,14.915,14.915,0,0,0,9.318-5.8,3.687,3.687,0,0,0,.93-2.655c-.205-1.259-1.464-2.052-2.668-2.5-2.915-1.136-7.143-1.779-10.167-.561-2.723,1.095-6.1,4.2-5.651,7.375Z" transform="translate(-147.335 -224.157)" fill="#ffa58d"/>
            <path id="Trazado_780886" data-name="Trazado 780886" d="M185.834,275.3a3.248,3.248,0,0,0,1.327,5.487,3.341,3.341,0,0,0,3.175-.794" transform="translate(-146.048 -223.229)" fill="none" stroke="#cb7c5e" stroke-miterlimit="10" stroke-width="0.69"/>
            <path id="Trazado_780887" data-name="Trazado 780887" d="M185.2,278.462a1.525,1.525,0,0,0,1.437.383,7.427,7.427,0,0,0,4.379-2.135" transform="translate(-145.906 -222.709)" fill="none" stroke="#cb7c5e" stroke-miterlimit="10" stroke-width="0.69"/>
          </g>
          <path id="Trazado_780888" data-name="Trazado 780888" d="M336.04,289.77c2.928-.643,5.939-.78,8.88-1.355,2.258-.438,4.516-.821,6.773-1.163-.78-4.5-1.574-9-2.354-13.492-.985-5.638-2.627-11.535-3.01-17.227-.356-5.213-1.108-10.454-1.683-15.695-.315-2.873-.616-5.747-.944-8.621-.164-1.437-.342-2.86-.534-4.3-.123-.889-.766-2.737-.52-3.571-1.478,4.885-6.6,53.009-6.6,65.42Z" transform="translate(-28.251 3.751)" fill="#1d1d1b" opacity="0.3"/>
          <path id="Trazado_780889" data-name="Trazado 780889" d="M349.561,287.128a506.971,506.971,0,0,1-8.771-64.038" transform="translate(-26.501 3.287)" fill="none" stroke="#193f63" stroke-miterlimit="10" stroke-width="0.69"/>
          <path id="Trazado_780890" data-name="Trazado 780890" d="M311.89,267.81c10.577,6.855,24.151,6.691,36.671,5.172s25.273-4.187,37.588-1.492" transform="translate(-37.146 19.759)" fill="none" stroke="#193f63" stroke-miterlimit="10" stroke-width="0.69"/>
          <path id="Trazado_780891" data-name="Trazado 780891" d="M301.88,294.32a107.613,107.613,0,0,0,63.641,21.346" transform="translate(-40.833 29.524)" fill="none" stroke="#193f63" stroke-miterlimit="10" stroke-width="0.69"/>
          <path id="Trazado_780892" data-name="Trazado 780892" d="M274.84,189.917c6.445,10.536,20.47,15.284,32.4,12.069s21.332-13.492,24.822-25.355" transform="translate(-50.793 -13.826)" fill="none" stroke="#193f63" stroke-miterlimit="10" stroke-width="0.69"/>
          <path id="Trazado_780893" data-name="Trazado 780893" d="M162.35,192.85a39.8,39.8,0,0,0,47.427,23.809,115.784,115.784,0,0,1,4.146,23.768" transform="translate(-92.227 -7.851)" fill="none" stroke="#fff" stroke-miterlimit="10" stroke-width="0.69"/>
          <path id="Trazado_780894" data-name="Trazado 780894" d="M198.37,215.927a27.864,27.864,0,0,0,18.678-19.307" transform="translate(-78.96 -6.463)" fill="none" stroke="#fff" stroke-miterlimit="10" stroke-width="0.69"/>
          <path id="Trazado_780895" data-name="Trazado 780895" d="M214.83,291.829a112.13,112.13,0,0,1,51.08-52.859" transform="translate(-72.897 9.136)" fill="none" stroke="#fff" stroke-miterlimit="10" stroke-width="0.69"/>
          <path id="Trazado_780896" data-name="Trazado 780896" d="M225.46,289.6a81.015,81.015,0,0,1,16.078-33.483" transform="translate(-68.982 15.453)" fill="none" stroke="#fff" stroke-miterlimit="10" stroke-width="0.69"/>
          <path id="Trazado_780897" data-name="Trazado 780897" d="M214.15,238.95a39.551,39.551,0,0,1,18.144,12.206" transform="translate(-73.148 9.129)" fill="none" stroke="#fff" stroke-miterlimit="10" stroke-width="0.69"/>
          <path id="Trazado_780898" data-name="Trazado 780898" d="M219.9,235.6a41.039,41.039,0,0,1,23.617,8.21" transform="translate(-71.03 7.895)" fill="none" stroke="#fff" stroke-miterlimit="10" stroke-width="0.69"/>
          <path id="Trazado_780899" data-name="Trazado 780899" d="M273.18,313.666a77.1,77.1,0,0,0,24.945-55.486" transform="translate(-51.405 16.212)" fill="none" stroke="#fff" stroke-miterlimit="10" stroke-width="0.69"/>
          <path id="Trazado_780900" data-name="Trazado 780900" d="M150.909,155.707a13.661,13.661,0,0,1-1.546-4.734,6.8,6.8,0,0,1,1.149-4.762,4.51,4.51,0,0,1,4.379-1.82" transform="translate(-97.028 -25.729)" fill="none" stroke="#cb7c5e" stroke-miterlimit="10" stroke-width="0.69"/>
          <path id="Trazado_780901" data-name="Trazado 780901" d="M150.553,145.12a18.169,18.169,0,0,0,5.378,14.2" transform="translate(-96.591 -25.432)" fill="none" stroke="#cb7c5e" stroke-miterlimit="10" stroke-width="0.69"/>
          <path id="Trazado_780902" data-name="Trazado 780902" d="M294.057,152.406a6.776,6.776,0,0,0,4.994,1.273,10.258,10.258,0,0,0,8.634-7.389,8.094,8.094,0,0,0-.7-6.13c-1.929-3.229-6.636-4.173-9.92-2.34a9.333,9.333,0,0,0-4.461,7.006c-.3,2.395-.588,5.884,1.45,7.567Z" transform="translate(-44.327 -28.462)" fill="#1d1d1b" opacity="0.3"/>
          <path id="Trazado_780903" data-name="Trazado 780903" d="M186.769,160.986a6.776,6.776,0,0,1-4.994,1.273,10.258,10.258,0,0,1-8.634-7.389,8.094,8.094,0,0,1,.7-6.13c1.929-3.229,6.636-4.173,9.92-2.34a9.333,9.333,0,0,1,4.461,7.006c.3,2.395.588,5.884-1.45,7.567Z" transform="translate(-88.363 -25.302)" fill="#1d1d1b" opacity="0.3"/>
          <path id="Trazado_780904" data-name="Trazado 780904" d="M222,156.515a9.552,9.552,0,0,1-3.886,1.3,6.657,6.657,0,0,1-4.994-1.273c-2.039-1.683-1.751-5.172-1.45-7.567a9.332,9.332,0,0,1,4.461-7.006,7.78,7.78,0,0,1,4.83-.848A139.936,139.936,0,0,1,222,156.515Z" transform="translate(-74.14 -26.934)" fill="#1d1d1b" opacity="0.3"/>
          <path id="Trazado_780905" data-name="Trazado 780905" d="M266.369,160.406a6.776,6.776,0,0,1-4.994,1.273,10.258,10.258,0,0,1-8.634-7.389,8.094,8.094,0,0,1,.7-6.13c1.929-3.229,6.636-4.173,9.92-2.34a9.333,9.333,0,0,1,4.461,7.006c.3,2.395.588,5.884-1.451,7.567Z" transform="translate(-59.043 -25.516)" fill="#1d1d1b" opacity="0.3"/>
          <path id="Trazado_780906" data-name="Trazado 780906" d="M180.244,289.56l-9.154,5.172" transform="translate(-89.008 27.77)" fill="none" stroke="#cb7c5e" stroke-miterlimit="10" stroke-width="0.69"/>
          <path id="Trazado_780907" data-name="Trazado 780907" d="M202.424,256.646a5.042,5.042,0,0,1,2.928,2.066,5.33,5.33,0,0,1,.438,4.05,7.629,7.629,0,0,1-3.927,5.035,6.232,6.232,0,0,1-6.267-.465c-6.267-4.584.835-12.411,6.828-10.687Z" transform="translate(-80.88 15.557)" fill="#1d1d1b" opacity="0.3"/>
          <path id="Trazado_780908" data-name="Trazado 780908" d="M271.53,276.03a6.189,6.189,0,0,1,.93,2.08" transform="translate(-52.012 22.787)" fill="none" stroke="#cb7c5e" stroke-miterlimit="10" stroke-width="0.69"/>
          <path id="Trazado_780909" data-name="Trazado 780909" d="M263.65,266.6a6.9,6.9,0,0,1,2.244,1.71" transform="translate(-54.915 19.313)" fill="none" stroke="#cb7c5e" stroke-miterlimit="10" stroke-width="0.69"/>
          <path id="Trazado_780910" data-name="Trazado 780910" d="M268.89,269.66a13.256,13.256,0,0,1,1.6,2.094" transform="translate(-52.985 20.441)" fill="none" stroke="#cb7c5e" stroke-miterlimit="10" stroke-width="0.69"/>
          <path id="Trazado_780911" data-name="Trazado 780911" d="M272.15,283.59A5.492,5.492,0,0,1,273.272,286" transform="translate(-51.784 25.571)" fill="none" stroke="#cb7c5e" stroke-miterlimit="10" stroke-width="0.69"/>
          <path id="Trazado_780912" data-name="Trazado 780912" d="M340.923,221.514a103.635,103.635,0,0,1,2.422-25.574" transform="translate(-26.47 -6.713)" fill="none" stroke="#193f63" stroke-miterlimit="10" stroke-width="0.69"/>
          <path id="Trazado_780913" data-name="Trazado 780913" d="M345.26,190.954q2.36-4.454,4.707-8.894" transform="translate(-24.855 -11.826)" fill="none" stroke="#193f63" stroke-miterlimit="10" stroke-width="0.69"/>
          <path id="Trazado_780914" data-name="Trazado 780914" d="M260.632,182.99a59.353,59.353,0,0,0-15.722,21.237" transform="translate(-61.818 -11.483)" fill="none" stroke="#193f63" stroke-miterlimit="10" stroke-width="0.69"/>
          <path id="Trazado_780915" data-name="Trazado 780915" d="M296.87,205.867l9.811,14.86a4.228,4.228,0,0,0,2.135,1.984c1.45.41,2.8-.78,3.818-1.888a88.734,88.734,0,0,0,21.223-41.433" transform="translate(-42.679 -12.809)" fill="none" stroke="#193f63" stroke-miterlimit="10" stroke-width="0.69"/>
          <path id="Trazado_780916" data-name="Trazado 780916" d="M295.36,203.818q-3.859,7-7.731,14a5.587,5.587,0,0,1-2.23,2.586c-1.464.7-3.188,0-4.611-.78-12.835-6.965-13.081-21.332-12.931-35.933" transform="translate(-53.374 -11.225)" fill="none" stroke="#193f63" stroke-miterlimit="10" stroke-width="0.69"/>
        </g>
      </g>
    </g>
    <path id="Trazado_780920" data-name="Trazado 780920" d="M453.008,370.31H140.04c-2.085,0-3.79-1.2-3.79-2.69h0c0-1.48,1.691-2.69,3.79-2.69H453.008c2.085,0,3.79,1.2,3.79,2.69h0C456.8,369.1,455.107,370.31,453.008,370.31Z" transform="translate(83.476 1014.438)" fill="#355f85"/>
    <path id="Trazado_781017" data-name="Trazado 781017" d="M592.19,326.44c8.4,11.69,4.56,39.1,4.56,39.1-16.6-7.96-34.26-21.5-29.78-27.52s17.64,2.57,17.64,2.57c-.77-3.02-.81-25.84,7.58-14.15Z" transform="translate(-379.541 572.569)" fill="#31c79a"/>
    <path id="Trazado_781018" data-name="Trazado 781018" d="M608.9,317.89a21.478,21.478,0,0,1,3.45-6.07,12.153,12.153,0,0,1,3.19-2.88,3.98,3.98,0,0,1,1.69-.59,2.021,2.021,0,0,1,1.64.6,2.771,2.771,0,0,1,.51,1.87,14.954,14.954,0,0,1-1.77,6.26,68.78,68.78,0,0,1-3.87,6.64q-3.675,5.82-7.37,11.64c-3.95-5.95-7.77-12.11-9.35-19.06a14.012,14.012,0,0,1-.39-5.03,2.68,2.68,0,0,1,.54-1.45,2.078,2.078,0,0,1,1.8-.58,5.142,5.142,0,0,1,1.83.68,20.352,20.352,0,0,1,8.07,7.97Z" transform="translate(-58.541 820.3)" fill="#ff896c"/>
  </g>
</svg>
