<svg xmlns="http://www.w3.org/2000/svg" width="68.375" height="68.375" viewBox="0 0 68.375 68.375">
  <g id="Grupo_1064417" data-name="Grupo 1064417" transform="translate(-600 -13601.327)">
    <g id="Grupo_1063932" data-name="Grupo 1063932" transform="translate(1.589 12722)">
      <circle id="Elipse_4807" data-name="Elipse 4807" cx="34.188" cy="34.188" r="34.188" transform="translate(598.411 879.327)" fill="#32cfc0"/>
    </g>
    <g id="cuna-de-bebe" transform="translate(609.359 13607.659)">
      <g id="Grupo_1064416" data-name="Grupo 1064416" transform="translate(0 0)">
        <path id="XMLID_790_" d="M243.861,11.882H240.94V8.958A1.458,1.458,0,0,1,242.4,7.5h.006a1.458,1.458,0,0,1,1.458,1.458Z" transform="translate(-217.573 -6.773)" fill="#f78a53"/>
        <path id="XMLID_789_" d="M237.088,5.837a.727.727,0,0,1-.727-.727V2.188a.733.733,0,0,0-1.467,0V5.109a.727.727,0,0,1-1.455,0V2.188a2.188,2.188,0,1,1,4.376,0V5.109A.727.727,0,0,1,237.088,5.837Z" transform="translate(-210.799 0)"/>
        <path id="XMLID_784_" d="M80.1,316.242H73.585a5.842,5.842,0,0,0-5.843,5.843v2.58H80.731A32.293,32.293,0,0,1,80.1,316.242Z" transform="translate(-61.172 -285.571)" fill="#958cdc"/>
        <path id="XMLID_782_" d="M218.846,322.035a5.828,5.828,0,0,0-1.711-4.132,6.461,6.461,0,0,0-5.273-1.7v-.013H194.685a32.289,32.289,0,0,0,.633,8.423h23.528v-2.58Z" transform="translate(-175.76 -285.522)" fill="#b4afe6"/>
        <path id="XMLID_778_" d="M341.754,248.747h-2.921V233.41h2.921Z" transform="translate(-305.971 -210.773)" fill="#d7e2ff"/>
        <path id="XMLID_775_" d="M243.861,248.747H240.94V233.41h2.921Z" transform="translate(-217.573 -210.773)" fill="#d7e2ff"/>
        <path id="XMLID_773_" d="M145.967,248.747h-2.921V233.41h2.921Z" transform="translate(-129.173 -210.773)" fill="#bac8f8"/>
        <path id="XMLID_771_" d="M204.949,383.853v-6.167l-2.045-1.2h-5.7a27.985,27.985,0,0,0,2.527,8.764H202.9Z" transform="translate(-178.076 -339.972)" fill="#f78a53"/>
        <path id="XMLID_769_" d="M276.676,376.485v8.764H256v-8.764Z" transform="translate(-231.172 -339.972)" fill="#fdab81"/>
        <path id="XMLID_767_" d="M42.809,376.485v8.764h17.5a27.979,27.979,0,0,1-2.527-8.764Z" transform="translate(-38.657 -339.972)" fill="#ec7743"/>
        <path id="XMLID_762_" d="M46.825,218.348v2.921h15.4a29.476,29.476,0,0,1,.935-2.921Z" transform="translate(-42.284 -197.172)" fill="#d7e2ff"/>
        <path id="XMLID_760_" d="M230.83,221.27v-2.921H206.6a29.487,29.487,0,0,0-.935,2.921Z" transform="translate(-185.715 -197.173)" fill="#e6eeff"/>
        <path id="XMLID_758_" d="M450.1,130.905v31.842a1.753,1.753,0,0,1-1.753,1.753H446.01a1.753,1.753,0,0,1-1.753-1.753V130.905a2.921,2.921,0,0,1,5.843,0Z" transform="translate(-401.171 -115.571)" fill="#d7e2ff"/>
        <path id="XMLID_756_" d="M13.343,162.748A1.753,1.753,0,0,1,11.59,164.5H9.253A1.753,1.753,0,0,1,7.5,162.748V130.906a2.921,2.921,0,1,1,5.843,0C13.343,132.5,13.343,160.914,13.343,162.748Z" transform="translate(-6.773 -115.572)" fill="#bac8f8"/>
        <path id="XMLID_753_" d="M158.885,54.026a1.461,1.461,0,0,1-1.461,1.461H137.705c-.463-.051-1.158.178-1.762-.428a1.462,1.462,0,0,1,1.032-2.493h20.449A1.462,1.462,0,0,1,158.885,54.026Z" transform="translate(-122.372 -47.467)" fill="#fdab81"/>
        <path id="XMLID_751_" d="M335.684,129.5v1.12a1.631,1.631,0,0,1-1.631,1.631h-1.12a1.631,1.631,0,0,1-1.631-1.631V129.5a1.631,1.631,0,0,1,1.631-1.631h1.12A1.631,1.631,0,0,1,335.684,129.5Z" transform="translate(-299.171 -115.466)" fill="#a0ecc0"/>
        <path id="XMLID_750_" d="M139.9,129.5v1.12a1.631,1.631,0,0,1-1.631,1.631h-1.12a1.631,1.631,0,0,1-1.631-1.631V129.5a1.631,1.631,0,0,1,1.631-1.631h1.12A1.631,1.631,0,0,1,139.9,129.5Z" transform="translate(-122.371 -115.466)" fill="#ffd984"/>
        <path id="XMLID_741_" d="M219.586,113.854a4.382,4.382,0,1,1-8.763-.071,2.475,2.475,0,0,1,4.227-1.688l.154.154.154-.153A2.475,2.475,0,0,1,219.586,113.854Z" transform="translate(-190.376 -100.565)" fill="#ff8a99"/>
        <path id="XMLID_739_" d="M11.486-6.045H-6.773A.727.727,0,0,1-7.5-6.773.727.727,0,0,1-6.773-7.5H11.486a.727.727,0,0,1,.727.727A.727.727,0,0,1,11.486-6.045Z" transform="translate(13.343 52.05)"/>
        <path id="XMLID_737_" d="M259.208,379.2h-9.981a.727.727,0,0,1-.727-.727v-8.764a.727.727,0,1,1,1.455,0v8.037h9.254a.727.727,0,0,1,0,1.455Z" transform="translate(-224.399 -333.199)"/>
        <path id="XMLID_736_" d="M-1.9-6.045H-6.773A.727.727,0,0,1-7.5-6.773.727.727,0,0,1-6.773-7.5H-1.9a.727.727,0,0,1,.727.727A.727.727,0,0,1-1.9-6.045Z" transform="translate(44.99 52.05)"/>
        <path id="XMLID_735_" d="M-4.673-6.045h-2.1A.727.727,0,0,1-7.5-6.773.727.727,0,0,1-6.773-7.5h2.1a.727.727,0,0,1,.727.727A.727.727,0,0,1-4.673-6.045Z" transform="translate(39.68 47.668)"/>
        <path id="XMLID_733_" d="M-4.673-6.045h-2.1A.727.727,0,0,1-7.5-6.773.727.727,0,0,1-6.773-7.5h2.1a.727.727,0,0,1,.727.727A.727.727,0,0,1-4.673-6.045Z" transform="translate(21.376 47.668)"/>
        <path id="XMLID_732_" d="M-.2-6.045H-6.773A.727.727,0,0,1-7.5-6.773.727.727,0,0,1-6.773-7.5H-.2a.727.727,0,0,1,.727.727A.727.727,0,0,1-.2-6.045Z" transform="translate(33.061 37.443)"/>
        <path id="XMLID_731_" d="M68.273,316.04h-7.3a.727.727,0,0,1-.727-.727,6.577,6.577,0,0,1,6.57-6.57h1.461a.727.727,0,1,1,0,1.455H66.812a5.123,5.123,0,0,0-5.064,4.388h6.524a.727.727,0,1,1,0,1.455Z" transform="translate(-54.399 -278.8)"/>
        <path id="XMLID_730_" d="M-.2-6.045H-6.773A.727.727,0,0,1-7.5-6.773.727.727,0,0,1-6.773-7.5H-.2a.727.727,0,0,1,.727.727A.727.727,0,0,1-.2-6.045Z" transform="translate(23.567 43.286)"/>
        <path id="XMLID_729_" d="M-.2-6.045H-6.773A.727.727,0,0,1-7.5-6.773.727.727,0,0,1-6.773-7.5H-.2a.727.727,0,0,1,.727.727A.727.727,0,0,1-.2-6.045Z" transform="translate(33.061 43.286)"/>
        <path id="XMLID_728_" d="M369.484,315.994h-7.3a.727.727,0,0,1,0-1.455h6.525a5.081,5.081,0,0,0-1.447-2.89,5.489,5.489,0,0,0-4.442-1.492,4.851,4.851,0,0,1-.74-.013.727.727,0,0,1,.208-1.44,3.485,3.485,0,0,0,.488,0,6.951,6.951,0,0,1,5.515,1.918,6.531,6.531,0,0,1,1.924,4.646A.727.727,0,0,1,369.484,315.994Z" transform="translate(-326.398 -278.753)"/>
        <path id="XMLID_726_" d="M-.2-6.045H-6.773A.727.727,0,0,1-7.5-6.773.727.727,0,0,1-6.773-7.5H-.2a.727.727,0,0,1,.727.727A.727.727,0,0,1-.2-6.045Z" transform="translate(23.567 37.443)"/>
        <path id="XMLID_725_" d="M237.089,254.84h-2.921a.727.727,0,0,1-.727-.727V241.7a.727.727,0,1,1,1.455,0v11.688h1.467V241.7a.727.727,0,1,1,1.455,0v12.416A.727.727,0,0,1,237.089,254.84Z" transform="translate(-210.8 -217.6)"/>
        <path id="XMLID_723_" d="M334.982,254.84H332.06a.727.727,0,0,1-.727-.727V241.7a.727.727,0,0,1,1.455,0v11.688h1.466V241.7a.727.727,0,1,1,1.455,0v12.416A.727.727,0,0,1,334.982,254.84Z" transform="translate(-299.199 -217.6)"/>
        <path id="XMLID_722_" d="M139.195,254.84h-2.921a.727.727,0,0,1-.727-.727V241.7a.727.727,0,0,1,1.455,0v11.688h1.466V241.7a.727.727,0,0,1,1.455,0v12.416A.727.727,0,0,1,139.195,254.84Z" transform="translate(-122.4 -217.6)"/>
        <path id="XMLID_721_" d="M29.744-6.045H-6.773A.727.727,0,0,1-7.5-6.773.727.727,0,0,1-6.773-7.5H29.744a.727.727,0,0,1,.727.727A.727.727,0,0,1,29.744-6.045Z" transform="translate(13.343 27.949)"/>
        <path id="XMLID_720_" d="M97.487,242.425H60.97a.727.727,0,0,1,0-1.455H97.487a.727.727,0,0,1,0,1.455Z" transform="translate(-54.4 -217.6)"/>
        <path id="XMLID_719_" d="M4.817,158.455H2.48A2.483,2.483,0,0,1,0,155.975V136.256a.727.727,0,1,1,1.455,0v19.719A1.027,1.027,0,0,0,2.48,157H4.817a1.027,1.027,0,0,0,1.025-1.025V124.133a2.194,2.194,0,0,0-4.388,0v8.715a.727.727,0,0,1-1.455,0v-8.715a3.649,3.649,0,0,1,7.3,0v31.842A2.483,2.483,0,0,1,4.817,158.455Z" transform="translate(0 -108.799)"/>
        <path id="XMLID_718_" d="M440.406,120.485a3.653,3.653,0,0,1,3.649,3.649v31.842a2.483,2.483,0,0,1-2.48,2.48h-2.337a2.483,2.483,0,0,1-2.48-2.48V124.134A3.653,3.653,0,0,1,440.406,120.485ZM441.574,157a1.027,1.027,0,0,0,1.025-1.025V124.134a2.194,2.194,0,1,0-4.388,0v31.842A1.027,1.027,0,0,0,439.237,157Z" transform="translate(-394.398 -108.8)"/>
        <path id="XMLID_717_" d="M210.324,103.871h0a3.184,3.184,0,0,1,3.219,3.159,5.082,5.082,0,0,1-5.11,5.167,5.168,5.168,0,0,1-5.107-5,3.19,3.19,0,0,1,3.207-3.328,3.167,3.167,0,0,1,1.9.63A3.146,3.146,0,0,1,210.324,103.871Zm-1.943,6.87a3.652,3.652,0,0,0,3.707-3.7,1.738,1.738,0,0,0-1.764-1.712h0a1.7,1.7,0,0,0-1.222.517l-.156.155a.727.727,0,0,1-1.027,0l-.154-.154a1.734,1.734,0,0,0-1.232-.516,1.775,1.775,0,0,0-1.26.521,1.794,1.794,0,0,0-.492,1.324,3.684,3.684,0,0,0,3.6,3.57Z" transform="translate(-183.606 -93.797)"/>
        <path id="XMLID_716_" d="M131.492,126.2h-1.12a2.361,2.361,0,0,1-2.358-2.358v-1.12a2.361,2.361,0,0,1,2.358-2.358h1.12a2.361,2.361,0,0,1,2.358,2.358v1.12A2.361,2.361,0,0,1,131.492,126.2Zm-1.12-4.382a.9.9,0,0,0-.9.9v1.12a.9.9,0,0,0,.9.9h1.12a.9.9,0,0,0,.9-.9v-1.12a.9.9,0,0,0-.9-.9Z" transform="translate(-115.599 -108.692)"/>
        <path id="XMLID_715_" d="M327.28,126.2h-1.12a2.361,2.361,0,0,1-2.358-2.358v-1.12a2.361,2.361,0,0,1,2.358-2.358h1.12a2.361,2.361,0,0,1,2.358,2.358v1.12A2.361,2.361,0,0,1,327.28,126.2Zm-1.12-4.382a.9.9,0,0,0-.9.9v1.12a.9.9,0,0,0,.9.9h1.12a.9.9,0,0,0,.9-.9v-1.12a.9.9,0,0,0-.9-.9Z" transform="translate(-292.398 -108.692)"/>
        <path id="XMLID_714_" d="M150.652,49.44H130.2a2.188,2.188,0,0,1,0-4.376h20.449a2.188,2.188,0,1,1,0,4.376ZM130.2,46.519a.733.733,0,0,0,0,1.467h20.449a.733.733,0,1,0,0-1.467Z" transform="translate(-115.6 -40.693)"/>
        <path id="XMLID_713_" d="M-6.773-1.663A.727.727,0,0,1-7.5-2.391V-6.773A.727.727,0,0,1-6.773-7.5a.727.727,0,0,1,.727.727v4.382A.727.727,0,0,1-6.773-1.663Z" transform="translate(22.106 14.792)"/>
        <path id="XMLID_712_" d="M-6.773-1.663A.727.727,0,0,1-7.5-2.391V-6.773A.727.727,0,0,1-6.773-7.5a.727.727,0,0,1,.727.727v4.382A.727.727,0,0,1-6.773-1.663Z" transform="translate(41.095 14.792)"/>
        <path id="XMLID_710_" d="M-6.773-2.38A.727.727,0,0,1-7.5-3.107V-6.773A.727.727,0,0,1-6.773-7.5a.727.727,0,0,1,.727.727v3.665A.727.727,0,0,1-6.773-2.38Z" transform="translate(31.601 14.792)"/>
      </g>
    </g>
  </g>
</svg>
