<svg xmlns="http://www.w3.org/2000/svg" width="68.375" height="68.375" viewBox="0 0 68.375 68.375">
  <g id="Grupo_1064415" data-name="Grupo 1064415" transform="translate(-600 -13706.949)">
    <g id="Grupo_1063933" data-name="Grupo 1063933" transform="translate(1.589 12827.622)">
      <circle id="Elipse_4807" data-name="Elipse 4807" cx="34.188" cy="34.188" r="34.188" transform="translate(598.411 879.327)" fill="#32cfc0"/>
    </g>
    <g id="bebe_3_" data-name="bebe (3)" transform="translate(568.903 13714.773)">
      <path id="Trazado_782206" data-name="Trazado 782206" d="M153.212,353.5a18.278,18.278,0,0,1-.8-6.349,12.115,12.115,0,0,1,4.084-8.29,3.587,3.587,0,0,1,4.783,5.347c-1.847,1.652-2.185,3.771-1.169,7.312a3.587,3.587,0,1,1-6.9,1.98Z" transform="translate(-98.379 -301.117)" fill="#ffd3bc"/>
      <path id="Trazado_782207" data-name="Trazado 782207" d="M271.771,355.952a3.587,3.587,0,0,1-2.458-4.438c1.017-3.541.678-5.66-1.169-7.312a3.587,3.587,0,1,1,4.783-5.347,12.114,12.114,0,0,1,4.084,8.29,18.275,18.275,0,0,1-.8,6.349A3.587,3.587,0,0,1,271.771,355.952Z" transform="translate(-200.47 -301.115)" fill="#ffd3bc"/>
      <path id="Trazado_782208" data-name="Trazado 782208" d="M49.687,233.229a3.587,3.587,0,0,1,2.16-4.59,49.969,49.969,0,0,1,14.822-2.862,3.587,3.587,0,0,1-.066,7.173h-.069a42.924,42.924,0,0,0-12.257,2.439A3.587,3.587,0,0,1,49.687,233.229Z" transform="translate(-6.694 -201.171)" fill="#ffd3bc"/>
      <path id="Trazado_782209" data-name="Trazado 782209" d="M288.347,235.388a42.885,42.885,0,0,0-12.257-2.439h-.069a3.587,3.587,0,0,1-.066-7.173,49.913,49.913,0,0,1,14.822,2.862,3.587,3.587,0,1,1-2.43,6.75Z" transform="translate(-205.358 -201.17)" fill="#ffd3bc"/>
      <path id="Trazado_782210" data-name="Trazado 782210" d="M282.658,226.49a35.638,35.638,0,0,0-6.7-.713,3.587,3.587,0,0,0,.066,7.173h.069a38.443,38.443,0,0,1,8.781,1.375A15.626,15.626,0,0,0,282.658,226.49Z" transform="translate(-205.359 -201.17)" fill="#ffbe9c"/>
      <path id="Trazado_782211" data-name="Trazado 782211" d="M134.365,225.777a35.729,35.729,0,0,0-6.7.714,15.622,15.622,0,0,0-2.212,7.834,38.488,38.488,0,0,1,8.781-1.376h.069a3.587,3.587,0,0,0,.066-7.173Z" transform="translate(-74.39 -201.171)" fill="#ffbe9c"/>
      <path id="Trazado_782212" data-name="Trazado 782212" d="M178.906,211.664c0-6.4-4.809-11.585-10.742-11.585s-10.742,5.187-10.742,11.585a10.743,10.743,0,0,0,21.484,0Z" transform="translate(-102.878 -178.277)" fill="#72d98b"/>
      <g id="Grupo_1064410" data-name="Grupo 1064410" transform="translate(46.049 0.817)">
        <ellipse id="Elipse_5115" data-name="Elipse 5115" cx="5.495" cy="5.094" rx="5.495" ry="5.094" transform="translate(0 8.655)" fill="#ffbe9c"/>
        <ellipse id="Elipse_5116" data-name="Elipse 5116" cx="5.495" cy="5.094" rx="5.495" ry="5.094" transform="translate(27.485 8.655)" fill="#ffbe9c"/>
        <path id="Trazado_782213" data-name="Trazado 782213" d="M181.011,207.525a21.9,21.9,0,0,0,9.171-1.9,10.352,10.352,0,0,0-18.342,0A21.9,21.9,0,0,0,181.011,207.525Z" transform="translate(-161.774 -179.093)" fill="#00c67f"/>
        <path id="Trazado_782214" data-name="Trazado 782214" d="M150.64,20.633c0,7.253-6.573,11.811-14.681,11.811s-14.681-4.558-14.681-11.811S127.851,7.5,135.959,7.5,150.64,13.38,150.64,20.633Z" transform="translate(-116.722 -7.5)" fill="#ffd3bc"/>
      </g>
      <path id="Trazado_782215" data-name="Trazado 782215" d="M272.928,338.855a3.587,3.587,0,0,0-4.783,5.347c1.482,1.326,1.992,2.953,1.61,5.373a15.318,15.318,0,0,0,7.069-3.869A12.089,12.089,0,0,0,272.928,338.855Z" transform="translate(-200.47 -301.115)" fill="#ffbe9c"/>
      <path id="Trazado_782216" data-name="Trazado 782216" d="M158.325,338.856a12.089,12.089,0,0,0-3.9,6.852,15.318,15.318,0,0,0,7.069,3.868c-.382-2.421.128-4.048,1.61-5.373a3.587,3.587,0,0,0-4.783-5.347Z" transform="translate(-100.211 -301.116)" fill="#ffbe9c"/>
      <path id="Trazado_782217" data-name="Trazado 782217" d="M160.977,325.614a56.529,56.529,0,0,1-9.752-.949,1.574,1.574,0,0,0-1.789,2.029,12.315,12.315,0,0,0,23.082,0,1.574,1.574,0,0,0-1.79-2.029A56.515,56.515,0,0,1,160.977,325.614Z" transform="translate(-95.691 -289.26)" fill="#eeecff"/>
      <path id="Trazado_782218" data-name="Trazado 782218" d="M158.657,325.549a59.365,59.365,0,0,1-7.433-.885,1.574,1.574,0,0,0-1.789,2.029,11.8,11.8,0,0,0,11.541,8.018,13.573,13.573,0,0,0,2.293-.194C158.49,333.385,157.66,327.634,158.657,325.549Z" transform="translate(-95.69 -289.26)" fill="#d3d3ff"/>
      <g id="Grupo_1064412" data-name="Grupo 1064412" transform="translate(52.894 13.257)">
        <g id="Grupo_1064411" data-name="Grupo 1064411">
          <ellipse id="Elipse_5117" data-name="Elipse 5117" cx="3.34" cy="2.66" rx="3.34" ry="2.66" transform="translate(0 0.298)" fill="#ffa1ac"/>
          <ellipse id="Elipse_5118" data-name="Elipse 5118" cx="3.34" cy="2.66" rx="3.34" ry="2.66" transform="translate(18.104 0.281)" fill="#ffa1ac"/>
          <ellipse id="Elipse_5119" data-name="Elipse 5119" cx="1.494" cy="1.714" rx="1.494" ry="1.714" transform="translate(10.897)" fill="#425460"/>
        </g>
      </g>
      <g id="Grupo_1064414" data-name="Grupo 1064414" transform="translate(41.961 0)">
        <path id="Trazado_782219" data-name="Trazado 782219" d="M129.276,26.579c-8.98,0-15.5-5.311-15.5-12.629,0-7.692,6.953-13.95,15.5-13.95a16.808,16.808,0,0,1,7.93,1.961.817.817,0,0,1-.773,1.44,15.168,15.168,0,0,0-7.157-1.767c-7.645,0-13.864,5.525-13.864,12.316,0,6.473,5.7,10.994,13.864,10.994S143.14,20.423,143.14,13.95A11.567,11.567,0,0,0,139.363,5.5a.817.817,0,0,1,1.121-1.19,13.185,13.185,0,0,1,4.291,9.637C144.775,21.268,138.257,26.579,129.276,26.579Z" transform="translate(-105.952 0)"/>
        <path id="Trazado_782220" data-name="Trazado 782220" d="M144.244,317.137a2.433,2.433,0,0,1,.442.041,49.741,49.741,0,0,0,19.206,0,2.683,2.683,0,0,1,.442-.041,2.406,2.406,0,0,1,1.943,1,2.343,2.343,0,0,1,.329,2.13,13.132,13.132,0,0,1-24.634,0,2.344,2.344,0,0,1,.329-2.131A2.406,2.406,0,0,1,144.244,317.137Zm10.045,2.611a57.31,57.31,0,0,1-9.9-.963.762.762,0,0,0-.763.308.719.719,0,0,0-.1.66,11.5,11.5,0,0,0,21.53,0,.719.719,0,0,0-.1-.66.757.757,0,0,0-.618-.322.8.8,0,0,0-.145.014A57.3,57.3,0,0,1,154.289,319.748Z" transform="translate(-130.965 -282.578)"/>
        <path id="Trazado_782221" data-name="Trazado 782221" d="M316.372,230.072a.818.818,0,0,1-.806-.959,11.36,11.36,0,0,0-3.4-10.2.817.817,0,1,1,1.1-1.211,12.995,12.995,0,0,1,3.911,11.7A.818.818,0,0,1,316.372,230.072Z" transform="translate(-282.483 -193.788)"/>
        <path id="Trazado_782222" data-name="Trazado 782222" d="M150.918,230.071a.818.818,0,0,1-.8-.676,13,13,0,0,1,3.911-11.7.817.817,0,1,1,1.1,1.211,11.362,11.362,0,0,0-3.4,10.2.818.818,0,0,1-.806.959Z" transform="translate(-138.158 -193.788)"/>
        <path id="Trazado_782223" data-name="Trazado 782223" d="M46.372,230.177a4.4,4.4,0,0,1-1.5-8.549,55.238,55.238,0,0,1,13.294-2.857.817.817,0,0,1,.11,1.631,53.4,53.4,0,0,0-12.85,2.764,2.77,2.77,0,1,0,1.876,5.212,47.569,47.569,0,0,1,7.129-1.885.817.817,0,0,1,.3,1.607,45.889,45.889,0,0,0-6.876,1.816A4.386,4.386,0,0,1,46.372,230.177Z" transform="translate(-41.961 -194.93)"/>
        <path id="Trazado_782224" data-name="Trazado 782224" d="M78.281,91.256a5.921,5.921,0,1,1-.072-11.821.817.817,0,0,1,.017,1.635,4.291,4.291,0,1,0,.055,8.552,5.138,5.138,0,0,0,.562-.032.817.817,0,0,1,.179,1.625A6.771,6.771,0,0,1,78.281,91.256Z" transform="translate(-68.699 -70.779)"/>
        <path id="Trazado_782225" data-name="Trazado 782225" d="M173.369,416.424a4.408,4.408,0,0,1-1.753-.363.817.817,0,0,1,.65-1.5,2.77,2.77,0,0,0,3.764-3.306c-.749-2.607-.794-4.463-.146-6.016a.817.817,0,1,1,1.509.629c-.488,1.171-.422,2.74.208,4.936a4.4,4.4,0,0,1-4.232,5.619Z" transform="translate(-157.049 -360.632)"/>
        <path id="Trazado_782226" data-name="Trazado 782226" d="M146.342,380.08a.818.818,0,0,1-.79-.61,18.054,18.054,0,0,1-.642-5.942,12.978,12.978,0,0,1,1.644-5.5.817.817,0,0,1,1.422.806,11.357,11.357,0,0,0-1.436,4.809,16.458,16.458,0,0,0,.593,5.408.818.818,0,0,1-.791,1.025Z" transform="translate(-133.656 -327.557)"/>
        <path id="Trazado_782227" data-name="Trazado 782227" d="M325.96,230.177a4.383,4.383,0,0,1-1.487-.261A45.891,45.891,0,0,0,317.6,228.1a.817.817,0,1,1,.3-1.607,47.567,47.567,0,0,1,7.129,1.885,2.77,2.77,0,1,0,1.876-5.212,53.4,53.4,0,0,0-12.85-2.764.817.817,0,1,1,.11-1.631,55.238,55.238,0,0,1,13.294,2.857,4.4,4.4,0,0,1-1.5,8.549Z" transform="translate(-283.722 -194.93)"/>
        <path id="Trazado_782228" data-name="Trazado 782228" d="M370.095,91.256a6.771,6.771,0,0,1-.741-.042.817.817,0,1,1,.179-1.625,5.138,5.138,0,0,0,.563.032,4.291,4.291,0,1,0,.055-8.552.817.817,0,1,1,.017-1.635,5.921,5.921,0,1,1-.072,11.821Z" transform="translate(-333.028 -70.779)"/>
        <path id="Trazado_782229" data-name="Trazado 782229" d="M284.271,383.352a4.41,4.41,0,0,1-4.239-5.622c.63-2.2.7-3.764.208-4.936a.817.817,0,0,1,1.509-.629c.648,1.554.6,3.409-.146,6.016a2.77,2.77,0,1,0,5.324,1.529,17.494,17.494,0,0,0,.773-6.063,11.356,11.356,0,0,0-1.436-4.809.817.817,0,0,1,1.422-.806,12.979,12.979,0,0,1,1.644,5.5,19.055,19.055,0,0,1-.832,6.634,4.41,4.41,0,0,1-4.227,3.191Z" transform="translate(-253.936 -327.557)"/>
        <path id="Elipse_5120" data-name="Elipse 5120" d="M-5.188-7.5A2.431,2.431,0,0,1-2.877-4.969,2.431,2.431,0,0,1-5.188-2.438,2.431,2.431,0,0,1-7.5-4.969,2.431,2.431,0,0,1-5.188-7.5Zm0,3.427c.367,0,.677-.41.677-.9s-.31-.9-.677-.9-.677.41-.677.9S-5.555-4.073-5.188-4.073Z" transform="translate(28.512 19.94)"/>
        <path id="Trazado_782230" data-name="Trazado 782230" d="M174.575,112.74a2.36,2.36,0,0,1-1.778-.809.817.817,0,0,1,1.231-1.075.724.724,0,0,0,1.093,0,.817.817,0,1,1,1.233,1.073,2.36,2.36,0,0,1-1.778.812Z" transform="translate(-158.359 -98.525)"/>
        <path id="Trazado_782231" data-name="Trazado 782231" d="M304.983,112.617a2.36,2.36,0,0,1-1.778-.808.817.817,0,0,1,1.231-1.075.724.724,0,0,0,1.094,0,.817.817,0,1,1,1.233,1.073,2.36,2.36,0,0,1-1.778.812Z" transform="translate(-274.557 -98.416)"/>
        <g id="Grupo_1064413" data-name="Grupo 1064413" transform="translate(19.094 3.74)">
          <path id="Trazado_782232" data-name="Trazado 782232" d="M220.129,42.389a.813.813,0,0,1-.412-.112,6.165,6.165,0,0,1-2.472-2.868.817.817,0,0,1,1.5-.653,4.586,4.586,0,0,0,1.8,2.111.817.817,0,0,1-.414,1.523Z" transform="translate(-217.176 -37.835)"/>
          <path id="Trazado_782233" data-name="Trazado 782233" d="M266.69,37.849a.814.814,0,0,1-.485-.16,4.945,4.945,0,0,1-1.746-2.249.817.817,0,0,1,1.521-.6,3.291,3.291,0,0,0,1.2,1.533.817.817,0,0,1-.486,1.475Z" transform="translate(-259.256 -34.324)"/>
        </g>
      </g>
    </g>
  </g>
</svg>
