<svg xmlns="http://www.w3.org/2000/svg" xmlns:xlink="http://www.w3.org/1999/xlink" width="68.375" height="68.375" viewBox="0 0 68.375 68.375">
  <defs>
    <clipPath id="clip-path">
      <path id="path438" d="M0-682.665H48.665V-634H0Z" transform="translate(0 682.665)"/>
    </clipPath>
  </defs>
  <g id="Grupo_1064419" data-name="Grupo 1064419" transform="translate(-600 -13922.3)">
    <g id="Grupo_1063935" data-name="Grupo 1063935" transform="translate(1.589 13042.973)">
      <circle id="Elipse_4807" data-name="Elipse 4807" cx="34.188" cy="34.188" r="34.188" transform="translate(598.411 879.327)" fill="#32cfc0"/>
    </g>
    <g id="g432" transform="translate(609.855 14614.82)">
      <g id="g434" transform="translate(0 -682.665)">
        <g id="g436" clip-path="url(#clip-path)">
          <g id="g442" transform="translate(36.922 22.759)">
            <path id="path444" d="M0-61.5H1.878a.952.952,0,0,0,.952-.952v-2.816a.952.952,0,0,0-.952-.952H0Z" transform="translate(0 66.225)" fill="#fd6930"/>
          </g>
          <g id="g446" transform="translate(36.922 24.954)">
            <path id="path448" d="M-36.876,0V1.574a.952.952,0,0,1-.952.952h-1.878V.952h1.878A.952.952,0,0,0-36.876,0" transform="translate(39.707)" fill="#fd5426"/>
          </g>
          <g id="g450" transform="translate(0.733 0.733)">
            <path id="path452" d="M-492.96-469.779l0,0a.478.478,0,0,1-.731-.018L-516.458-498.1a.479.479,0,0,1,.141-.72,18.821,18.821,0,0,1,9.1-2.338,18.952,18.952,0,0,1,18.942,18.92,18.854,18.854,0,0,1-1.789,8.038,18.849,18.849,0,0,1-2.893,4.422m-5.121,4.122a18.821,18.821,0,0,1-9.1,2.338,18.952,18.952,0,0,1-18.942-18.92,18.855,18.855,0,0,1,1.789-8.038,18.856,18.856,0,0,1,2.893-4.422l0,0a.478.478,0,0,1,.731.018l22.763,28.309a.479.479,0,0,1-.141.72m-9.118-40.182a23.6,23.6,0,0,0-23.6,23.6,23.6,23.6,0,0,0,23.6,23.6,23.6,23.6,0,0,0,23.6-23.6,23.6,23.6,0,0,0-23.6-23.6" transform="translate(530.799 505.839)" fill="#fb2b3a"/>
          </g>
          <g id="g454" transform="translate(8.996 4.863)">
            <path id="path456" d="M-373.589,0a23.546,23.546,0,0,1,8.264,17.938,23.6,23.6,0,0,1-23.6,23.6,23.489,23.489,0,0,1-13.34-4.13,23.508,23.508,0,0,0,15.336,5.662,23.6,23.6,0,0,0,23.6-23.6A23.572,23.572,0,0,0-373.589,0" transform="translate(402.266)" fill="#e41f2d"/>
          </g>
          <g id="g458" transform="translate(0.019 0.02)">
            <path id="path460" d="M-452.735-594.361a24.341,24.341,0,0,1-24.313-24.313,24.341,24.341,0,0,1,24.313-24.313,24.34,24.34,0,0,1,24.313,24.313,24.213,24.213,0,0,1-11.333,20.562.713.713,0,0,1-.984-.221.713.713,0,0,1,.221-.984,22.794,22.794,0,0,0,10.669-19.357,22.913,22.913,0,0,0-22.887-22.887,22.913,22.913,0,0,0-22.887,22.887,22.913,22.913,0,0,0,22.887,22.887,22.709,22.709,0,0,0,9.4-2.014.713.713,0,0,1,.943.357.713.713,0,0,1-.357.943A24.126,24.126,0,0,1-452.735-594.361Z" transform="translate(477.048 642.986)"/>
          </g>
          <g id="g462" transform="translate(4.699 10.994)">
            <path id="path464" d="M-80.226-12.519a1.188,1.188,0,0,1,.931.446l22.763,28.309a1.19,1.19,0,0,1,.241.979,1.187,1.187,0,0,1-.593.812,19.649,19.649,0,0,1-9.44,2.427,19.512,19.512,0,0,1-13.9-5.759A19.5,19.5,0,0,1-85.98.82a19.456,19.456,0,0,1,1.856-8.342,19.591,19.591,0,0,1,3-4.588A1.187,1.187,0,0,1-80.226-12.519Zm22.407,29.43L-80.23-10.961a18.165,18.165,0,0,0-2.6,4.045A18.041,18.041,0,0,0-84.554.82a18.082,18.082,0,0,0,5.342,12.867,18.083,18.083,0,0,0,12.866,5.341A18.251,18.251,0,0,0-57.818,16.911Z" transform="translate(85.98 12.519)"/>
          </g>
          <g id="g466" transform="translate(14.255 4.699)">
            <path id="path468" d="M-382.833-242.448a1.188,1.188,0,0,1-.931-.446L-406.527-271.2a1.19,1.19,0,0,1-.241-.979,1.187,1.187,0,0,1,.593-.812,19.651,19.651,0,0,1,9.441-2.427,19.661,19.661,0,0,1,19.656,19.634,19.459,19.459,0,0,1-1.856,8.342,19.6,19.6,0,0,1-3,4.588A1.187,1.187,0,0,1-382.833-242.448Zm-22.407-29.43,22.412,27.872a18.173,18.173,0,0,0,2.6-4.045,18.044,18.044,0,0,0,1.721-7.736,18.229,18.229,0,0,0-18.208-18.208A18.252,18.252,0,0,0-405.24-271.878Z" transform="translate(406.79 275.421)"/>
          </g>
          <g id="g470" transform="translate(8.913 22.759)">
            <path id="path472" d="M-95.745-61.5h-6.4a.952.952,0,0,1-.952-.952v-2.816a.952.952,0,0,1,.952-.952h6.4Z" transform="translate(103.094 66.225)" fill="#e9b765"/>
          </g>
          <g id="g474" transform="translate(8.913 24.954)">
            <path id="path476" d="M-95.744-12.408v1.574h-6.4a.952.952,0,0,1-.952-.952V-13.36a.952.952,0,0,0,.952.952Z" transform="translate(103.093 13.36)" fill="#d8aa5e"/>
          </g>
          <g id="g478" transform="translate(8.2 22.046)">
            <path id="path480" d="M-105.032-70.078h-6.4a1.667,1.667,0,0,1-1.665-1.665V-74.56a1.667,1.667,0,0,1,1.665-1.665h6.4a.713.713,0,0,1,.713.713v4.721A.713.713,0,0,1-105.032-70.078Zm-6.4-4.721a.24.24,0,0,0-.239.239v2.816a.24.24,0,0,0,.239.239h5.684v-3.3Z" transform="translate(113.094 76.225)"/>
          </g>
          <path id="path482" d="M248.778-358.683h-20.66V-363.4h20.66Z" transform="translate(-211.856 386.163)" fill="#ececec"/>
          <path id="path484" d="M248.778-317.679h-20.66v-1.574h20.66Z" transform="translate(-211.856 345.159)" fill="#d3d1d1"/>
          <g id="g486" transform="translate(15.549 22.046)">
            <path id="path488" d="M-15.619-70.078H-31.06a.713.713,0,0,1-.713-.713.713.713,0,0,1,.713-.713h14.728v-3.3H-35.566v3.3h1.211a.713.713,0,0,1,.713.713.713.713,0,0,1-.713.713h-1.924a.713.713,0,0,1-.713-.713v-4.721a.713.713,0,0,1,.713-.713h20.66a.713.713,0,0,1,.713.713v4.721A.713.713,0,0,1-15.619-70.078Z" transform="translate(36.992 76.225)"/>
          </g>
          <g id="g490" transform="translate(36.209 22.046)">
            <path id="path492" d="M-7.409-70.078H-9.287A.713.713,0,0,1-10-70.791v-4.721a.713.713,0,0,1,.713-.713h1.878A1.667,1.667,0,0,1-5.744-74.56v2.816A1.667,1.667,0,0,1-7.409-70.078ZM-8.574-71.5h1.165a.24.24,0,0,0,.239-.239V-74.56a.24.24,0,0,0-.239-.239H-8.574Z" transform="translate(10 76.225)"/>
          </g>
          <g id="g494" transform="translate(27.707 12.953)">
            <path id="path496" d="M-137.449-98.969a.713.713,0,0,1-.713-.713v-.59a1.169,1.169,0,0,0-1.168-1.168h-5.723A2.95,2.95,0,0,1-148-104.387a2.95,2.95,0,0,1,2.947-2.947h4.9a.713.713,0,0,1,.713.713.713.713,0,0,1-.713.713h-4.9a1.523,1.523,0,0,0-1.521,1.521,1.523,1.523,0,0,0,1.521,1.521h5.723a2.6,2.6,0,0,1,2.594,2.594v.59A.713.713,0,0,1-137.449-98.969Z" transform="translate(148 107.333)"/>
          </g>
        </g>
      </g>
    </g>
  </g>
</svg>
