<svg xmlns="http://www.w3.org/2000/svg" xmlns:xlink="http://www.w3.org/1999/xlink" width="145" height="145" viewBox="0 0 145 145">
  <defs>
    <clipPath id="clip-path">
      <path id="path6054" d="M0-682.665H109.335V-573.33H0Z" transform="translate(0 682.665)"/>
    </clipPath>
  </defs>
  <g id="Grupo_1064524" data-name="Grupo 1064524" transform="translate(-626 -1185)">
    <rect id="Rectángulo_373461" data-name="Rectángulo 373461" width="145" height="145" rx="22" transform="translate(626 1185)" fill="#3449bc"/>
    <g id="g6048" transform="translate(644 1885.665)">
      <g id="g6050" transform="translate(0 -682.665)">
        <g id="g6052" clip-path="url(#clip-path)">
          <g id="g6058" transform="translate(17.297 1.602)">
            <path id="path6060" d="M-195.962-556.533h0a37.37,37.37,0,0,1-37.37-37.37v-31.391a37.37,37.37,0,0,1,37.37-37.37h0a37.37,37.37,0,0,1,37.37,37.37V-593.9a37.37,37.37,0,0,1-37.37,37.37" transform="translate(233.333 662.665)" fill="#b0d8fd"/>
          </g>
          <g id="g6062" transform="translate(17.297 34.257)">
            <path id="path6064" d="M-1.548,0a37.75,37.75,0,0,0-.3,4.715V36.106a37.37,37.37,0,0,0,37.37,37.37h0A37.323,37.323,0,0,0,65.967,57.79Z" transform="translate(1.843)" fill="#72bafd"/>
          </g>
          <g id="g6066" transform="translate(17.297 1.602)">
            <path id="path6068" d="M-195.962-41.992a4,4,0,0,1-4-4,4,4,0,0,1,4-4h0a37.37,37.37,0,0,0-37.37,37.37V18.762a37.37,37.37,0,0,0,37.37,37.37h0a37.225,37.225,0,0,0,24.689-9.319l0-.02-45.465-38.65Z" transform="translate(233.333 50)" fill="#9ccefd"/>
          </g>
          <g id="g6070" transform="translate(25.291 9.596)">
            <path id="path6072" d="M0-154.042a29.409,29.409,0,0,1,29.376-29.376,29.409,29.409,0,0,1,29.376,29.376,29.409,29.409,0,0,1-29.376,29.376A29.409,29.409,0,0,1,0-154.042" transform="translate(0 183.418)" fill="#ffdfcf"/>
          </g>
          <g id="g6074" transform="translate(25.305 9.61)">
            <path id="path6076" d="M-89.837-262.892a29.409,29.409,0,0,1,0-41.544,29.221,29.221,0,0,1,16.5-8.28,29.351,29.351,0,0,0-25.043,8.28,29.409,29.409,0,0,0,0,41.544,29.352,29.352,0,0,0,25.043,8.28,29.223,29.223,0,0,1-16.5-8.28" transform="translate(106.969 313.026)" fill="#ffcebf"/>
          </g>
          <g id="g6078" transform="translate(31.41 42.119)">
            <path id="path6080" d="M-65.743-26.177c0,2.757-2.807,4.992-6.269,4.992s-6.269-2.235-6.269-4.992,2.807-4.992,6.269-4.992,6.269,2.235,6.269,4.992" transform="translate(78.28 31.169)" fill="#fda0c1"/>
          </g>
          <g id="g6082" transform="translate(65.388 42.119)">
            <path id="path6084" d="M0-26.177c0,2.757,2.807,4.992,6.269,4.992s6.269-2.235,6.269-4.992-2.807-4.992-6.269-4.992S0-28.934,0-26.177" transform="translate(0 31.169)" fill="#fda0c1"/>
          </g>
          <g id="g6086" transform="translate(39.73 38.141)">
            <path id="path6088" d="M-8.4-4.234a1.6,1.6,0,0,1-1.6-1.6V-8.4A1.6,1.6,0,0,1-8.4-10,1.6,1.6,0,0,1-6.8-8.4v2.563A1.6,1.6,0,0,1-8.4-4.234Z" transform="translate(10 10)"/>
          </g>
          <g id="g6090" transform="translate(66.402 38.141)">
            <path id="path6092" d="M-8.4-4.234a1.6,1.6,0,0,1-1.6-1.6V-8.4A1.6,1.6,0,0,1-8.4-10,1.6,1.6,0,0,1-6.8-8.4v2.563A1.6,1.6,0,0,1-8.4-4.234Z" transform="translate(10 10)"/>
          </g>
          <g id="g6094" transform="translate(49.55 40.627)">
            <path id="path6096" d="M-4.883-5.2A6.264,6.264,0,0,1-9.606-7.346a1.6,1.6,0,0,1,.155-2.26,1.6,1.6,0,0,1,2.26.155A3.062,3.062,0,0,0-4.883-8.4,3.063,3.063,0,0,0-2.574-9.451a1.6,1.6,0,0,1,2.26-.155,1.6,1.6,0,0,1,.155,2.26A6.265,6.265,0,0,1-4.883-5.2Z" transform="translate(10 10)"/>
          </g>
          <g id="g6098" transform="translate(15.696 0)">
            <path id="path6100" d="M-204.361-563.33A39.016,39.016,0,0,1-243.333-602.3v-31.391a39.016,39.016,0,0,1,38.972-38.972,39.016,39.016,0,0,1,38.972,38.972V-602.3A39.016,39.016,0,0,1-204.361-563.33Zm0-106.132a35.809,35.809,0,0,0-35.769,35.769V-602.3a35.809,35.809,0,0,0,35.769,35.769A35.809,35.809,0,0,0-168.592-602.3v-31.391A35.809,35.809,0,0,0-204.361-669.462Z" transform="translate(243.333 672.665)"/>
          </g>
          <g id="g6102" transform="translate(32.294 58.143)">
            <path id="path6104" d="M-162.693-137.964a1.6,1.6,0,0,1-1.037-.381l-29.424-25.014a1.6,1.6,0,0,1-.183-2.258,1.6,1.6,0,0,1,2.258-.183l29.424,25.014a1.6,1.6,0,0,1,.183,2.258A1.6,1.6,0,0,1-162.693-137.964Z" transform="translate(193.718 166.181)"/>
          </g>
          <g id="g6106" transform="translate(66.615 87.319)">
            <path id="path6108" d="M-66.814-56.588a1.589,1.589,0,0,1-.3-.029,1.6,1.6,0,0,1-.875-.485l-11-9.351a1.6,1.6,0,0,1-.183-2.258,1.6,1.6,0,0,1,2.258-.183l11.144,9.473a1.6,1.6,0,0,1,.535,1.525A1.614,1.614,0,0,1-66.814-56.588Z" transform="translate(79.556 69.275)"/>
          </g>
          <g id="g6110" transform="translate(23.863 7.994)">
            <path id="path6112" d="M20.8-111.464a30.948,30.948,0,0,1-30.78-27.463A1.6,1.6,0,0,1-8.565-140.7a1.6,1.6,0,0,1,1.772,1.411,27.747,27.747,0,0,0,27.6,24.621,27.806,27.806,0,0,0,27.775-27.775A27.806,27.806,0,0,0,20.8-170.216,27.723,27.723,0,0,0-6.807-145.471a1.6,1.6,0,0,1-1.766,1.419,1.6,1.6,0,0,1-1.419-1.766A30.922,30.922,0,0,1,20.8-173.42a31.013,31.013,0,0,1,30.978,30.978A31.013,31.013,0,0,1,20.8-111.464Z" transform="translate(10.001 173.42)"/>
          </g>
          <g id="g6114" transform="translate(47.436 10.075)">
            <path id="path6116" d="M-100.2,12.731a11.76,11.76,0,0,1-4.456-.881,9.678,9.678,0,0,1-5.3-5.247,9.678,9.678,0,0,1-.036-7.456,8.061,8.061,0,0,1,4.37-4.412,8.061,8.061,0,0,1,6.21-.03,6.82,6.82,0,0,1,3.729,8.882,5.733,5.733,0,0,1-3.107,3.138,1.6,1.6,0,0,1-2.1-.856,1.6,1.6,0,0,1,.856-2.1,2.551,2.551,0,0,0,1.382-1.4,3.613,3.613,0,0,0-1.976-4.705,4.878,4.878,0,0,0-3.759.018A4.879,4.879,0,0,0-107.02.358a6.5,6.5,0,0,0,.024,5,6.5,6.5,0,0,0,3.556,3.522,8.518,8.518,0,0,0,6.563-.031A8.518,8.518,0,0,0-92.26,4.191,11.068,11.068,0,0,0-94.188-7.344a1.6,1.6,0,0,1,.151-2.26,1.6,1.6,0,0,1,2.26.151A14.254,14.254,0,0,1-89.295,5.4a11.7,11.7,0,0,1-6.343,6.4A11.759,11.759,0,0,1-100.2,12.731Z" transform="translate(110.715 10)"/>
          </g>
        </g>
      </g>
    </g>
  </g>
</svg>
