<svg xmlns="http://www.w3.org/2000/svg" width="85" height="91.745" viewBox="0 0 85 91.745">
  <g id="Grupo_1064206" data-name="Grupo 1064206" transform="translate(-204 -2893)">
    <rect id="Rectángulo_34830" data-name="Rectángulo 34830" width="85" height="76" rx="13" transform="translate(204 2893)" fill="#fff"/>
    <g id="enlace" transform="translate(215 2899)">
      <g id="Grupo_1044149" data-name="Grupo 1044149">
        <g id="Grupo_1044143" data-name="Grupo 1044143">
          <path id="Trazado_773773" data-name="Trazado 773773" d="M4,10H32.14a16,16,0,0,0-1.63,12H2V12A2.006,2.006,0,0,1,4,10Z" fill="#b4dd7f"/>
        </g>
        <g id="Grupo_1044144" data-name="Grupo 1044144">
          <path id="Trazado_773774" data-name="Trazado 773774" d="M18,16a2,2,0,0,1-2,2H8a2,2,0,0,1,0-4h8A2,2,0,0,1,18,16Z" fill="#e6e9ed"/>
        </g>
        <g id="Grupo_1044145" data-name="Grupo 1044145">
          <path id="Trazado_773775" data-name="Trazado 773775" d="M54,54H4a2,2,0,0,1-2-2V22H54Z" fill="#e6e9ed"/>
        </g>
        <g id="Grupo_1044146" data-name="Grupo 1044146">
          <circle id="Elipse_4987" data-name="Elipse 4987" cx="16" cy="16" r="16" transform="translate(30 2)" fill="#fcd770"/>
        </g>
        <g id="Grupo_1044147" data-name="Grupo 1044147">
          <circle id="Elipse_4988" data-name="Elipse 4988" cx="12" cy="12" r="12" transform="translate(6 26)" fill="#69d6f4"/>
        </g>
        <g id="Grupo_1044148" data-name="Grupo 1044148">
          <path id="Trazado_773776" data-name="Trazado 773776" d="M56,42a2.015,2.015,0,0,1,2-2,2.006,2.006,0,0,1,2,2V52a10,10,0,1,1-20,0V50.42a6.141,6.141,0,0,0-.63-2.69l-1.2-2.39A1.618,1.618,0,0,1,39.62,43,4.379,4.379,0,0,1,44,47.38V30a1.665,1.665,0,0,1,.04-.39V29.6A2.014,2.014,0,0,1,46,28a1.955,1.955,0,0,1,1.41.59,1.935,1.935,0,0,1,.55,1.01A1.752,1.752,0,0,1,48,30V40a2.006,2.006,0,0,1,2-2,2.015,2.015,0,0,1,2,2v1a2.006,2.006,0,0,1,2-2,2.015,2.015,0,0,1,2,2Z" fill="#f0d0b4"/>
        </g>
      </g>
      <g id="Grupo_1044150" data-name="Grupo 1044150">
        <path id="Trazado_773777" data-name="Trazado 773777" d="M8,19h8a3,3,0,0,0,0-6H8a3,3,0,0,0,0,6Zm3-2V15h2v2Zm6-1a1,1,0,0,1-1,1H15V15h1A1,1,0,0,1,17,16ZM8,15H9v2H8a1,1,0,0,1,0-2Z"/>
        <path id="Trazado_773778" data-name="Trazado 773778" d="M58,39a2.967,2.967,0,0,0-1.471.4A3,3,0,0,0,55,38.184V32.409A16.988,16.988,0,1,0,31.6,9H4a3,3,0,0,0-3,3V52a3,3,0,0,0,3,3H39.42A11,11,0,0,0,61,52V42a3,3,0,0,0-3-3Zm-5-.816a3,3,0,0,0-.471.217A2.94,2.94,0,0,0,49,37.184V34.717a16.828,16.828,0,0,0,4-1.235ZM43.615,28.2A3.986,3.986,0,0,1,42,25V21a4,4,0,0,1,5.557-3.686l.779-1.843a6,6,0,0,0-6.1.865A4,4,0,0,1,42,15V11a4,4,0,0,1,8,0v4a4,4,0,0,1-4,4,3.958,3.958,0,0,1-1.6-.333L43.6,20.5a5.994,5.994,0,0,0,6.169-.836A3.973,3.973,0,0,1,50,21v4a3.99,3.99,0,0,1-1.615,3.2,2.969,2.969,0,0,0-4.77,0ZM46,3a15,15,0,0,1,3,29.69v-2.5A5.985,5.985,0,0,0,52,25V21a5.939,5.939,0,0,0-.815-2.995A5.953,5.953,0,0,0,52,15V11a6,6,0,1,0-12,0v4a5.93,5.93,0,0,0,.816,2.993A5.954,5.954,0,0,0,40,21v4a5.982,5.982,0,0,0,3,5.187v2.5A15,15,0,0,1,46,3ZM4,11H30.526a16.778,16.778,0,0,0-1.254,10H3V12A1,1,0,0,1,4,11ZM4,53a1,1,0,0,1-1-1V23H29.765A17,17,0,0,0,43,34.717V43.23A5.332,5.332,0,0,0,39.618,42,2.622,2.622,0,0,0,37,44.619a2.651,2.651,0,0,0,.276,1.171l1.195,2.391A5.019,5.019,0,0,1,39,50.417V52c0,.337.019.67.049,1Zm55-1a9,9,0,1,1-18,0V50.416a7.041,7.041,0,0,0-.739-3.131L39.066,44.9A.6.6,0,0,1,39,44.619.619.619,0,0,1,39.618,44,3.387,3.387,0,0,1,43,47.382V50h2V30a1,1,0,0,1,2,0V50h2V40a1,1,0,0,1,2,0V50h2V41a1,1,0,0,1,2,0v9h2V42a1,1,0,0,1,2,0Z"/>
        <path id="Trazado_773779" data-name="Trazado 773779" d="M18,25A13,13,0,1,0,31,38,13.015,13.015,0,0,0,18,25Zm0,24c-1.075,0-2.22-1.527-3.009-4H21.01C20.22,47.473,19.075,49,18,49Zm-3.519-6a24.8,24.8,0,0,1-.46-4h7.958a24.91,24.91,0,0,1-.46,4Zm-7.43-4h4.971a27.425,27.425,0,0,0,.409,4H8.214a10.9,10.9,0,0,1-1.163-4ZM18,27c1.075,0,2.22,1.527,3.009,4H14.99C15.78,28.527,16.925,27,18,27Zm3.519,6a24.8,24.8,0,0,1,.46,4H14.021a24.91,24.91,0,0,1,.46-4Zm-9.5,4H7.051a10.9,10.9,0,0,1,1.164-4h4.216A27.288,27.288,0,0,0,12.022,37Zm11.956,2h4.971a10.9,10.9,0,0,1-1.164,4H23.569a27.288,27.288,0,0,0,.409-4Zm0-2a27.425,27.425,0,0,0-.409-4h4.216a10.919,10.919,0,0,1,1.164,4Zm2.5-6H23.106a13.82,13.82,0,0,0-1.391-3.341A11.049,11.049,0,0,1,26.479,31ZM14.286,27.659A13.86,13.86,0,0,0,12.9,31H9.521a11.046,11.046,0,0,1,4.765-3.341ZM9.521,45h3.373a13.82,13.82,0,0,0,1.391,3.341A11.049,11.049,0,0,1,9.521,45Zm12.193,3.341A13.86,13.86,0,0,0,23.105,45h3.373A11.037,11.037,0,0,1,21.714,48.341Z"/>
      </g>
    </g>
    <g id="Grupo_146005" data-name="Grupo 146005" transform="translate(104.501 2882.2)">
      <path id="Trazado_113510" data-name="Trazado 113510" d="M170.02,80.962c-2.987,0-4.462-2.384-5.646-4.3-1.2-1.939-2.013-3.128-3.542-3.128s-2.341,1.189-3.538,3.128c-1.184,1.917-2.659,4.3-5.645,4.3s-4.462-2.384-5.646-4.3c-1.2-1.939-2.011-3.128-3.539-3.128s-2.339,1.189-3.538,3.128c-1.184,1.917-2.659,4.3-5.645,4.3s-4.461-2.386-5.644-4.3c-1.2-1.938-2.01-3.127-3.537-3.127s-2.338,1.189-3.537,3.127c-1.185,1.918-2.658,4.3-5.644,4.3s-4.459-2.384-5.644-4.3c-1.2-1.938-2.01-3.127-3.537-3.127a1.238,1.238,0,1,1,0-2.476c2.985,0,4.459,2.384,5.644,4.3,1.2,1.939,2.01,3.128,3.537,3.128s2.338-1.189,3.537-3.128c1.185-1.917,2.659-4.3,5.644-4.3s4.459,2.384,5.642,4.3c1.2,1.939,2.01,3.128,3.538,3.128s2.339-1.189,3.538-3.128c1.185-1.917,2.659-4.3,5.645-4.3s4.461,2.384,5.646,4.3c1.2,1.939,2.01,3.128,3.539,3.128s2.339-1.189,3.538-3.128c1.183-1.917,2.659-4.3,5.645-4.3s4.463,2.384,5.648,4.3c1.2,1.939,2.013,3.128,3.541,3.128s2.342-1.189,3.542-3.128c1.185-1.917,2.661-4.3,5.648-4.3a1.238,1.238,0,0,1,0,2.476c-1.53,0-2.342,1.189-3.542,3.128C174.483,78.577,173.009,80.962,170.02,80.962Z" transform="translate(0 0)" fill="#cb4dae"/>
      <path id="Trazado_113511" data-name="Trazado 113511" d="M170.02,88.625c-2.987,0-4.462-2.386-5.646-4.3-1.2-1.941-2.013-3.13-3.542-3.13s-2.341,1.189-3.538,3.128c-1.184,1.917-2.659,4.3-5.645,4.3s-4.462-2.386-5.646-4.3c-1.2-1.939-2.011-3.128-3.539-3.128s-2.339,1.189-3.538,3.128c-1.184,1.917-2.659,4.3-5.645,4.3s-4.461-2.387-5.644-4.3c-1.2-1.939-2.01-3.128-3.537-3.128s-2.338,1.189-3.537,3.128c-1.185,1.917-2.658,4.3-5.644,4.3s-4.459-2.386-5.644-4.3c-1.2-1.939-2.01-3.128-3.537-3.128a1.238,1.238,0,1,1,0-2.476c2.985,0,4.459,2.386,5.644,4.3,1.2,1.938,2.01,3.127,3.537,3.127s2.338-1.189,3.537-3.127c1.185-1.917,2.659-4.3,5.644-4.3s4.459,2.386,5.642,4.3c1.2,1.938,2.01,3.127,3.538,3.127s2.339-1.189,3.538-3.127c1.185-1.917,2.659-4.3,5.645-4.3s4.461,2.386,5.646,4.3c1.2,1.938,2.01,3.127,3.539,3.127s2.339-1.189,3.538-3.127c1.183-1.917,2.659-4.3,5.645-4.3s4.463,2.386,5.648,4.3c1.2,1.938,2.013,3.127,3.541,3.127s2.342-1.189,3.542-3.127c1.185-1.917,2.661-4.3,5.648-4.3a1.238,1.238,0,1,1,0,2.476c-1.53,0-2.342,1.189-3.542,3.128C174.483,86.239,173.009,88.625,170.02,88.625Z" transform="translate(0 3.13)" fill="#cb4dae"/>
      <path id="Trazado_113512" data-name="Trazado 113512" d="M170.02,96.286c-2.987,0-4.462-2.385-5.646-4.3-1.2-1.939-2.013-3.128-3.542-3.128s-2.341,1.189-3.538,3.128c-1.184,1.917-2.659,4.3-5.645,4.3s-4.462-2.385-5.646-4.3c-1.2-1.939-2.011-3.128-3.539-3.128s-2.339,1.189-3.538,3.128c-1.184,1.917-2.659,4.3-5.645,4.3s-4.461-2.385-5.644-4.3c-1.2-1.939-2.01-3.128-3.537-3.128s-2.338,1.189-3.537,3.128c-1.185,1.917-2.658,4.3-5.644,4.3s-4.459-2.385-5.644-4.3c-1.2-1.939-2.01-3.128-3.537-3.128a1.238,1.238,0,1,1,0-2.476c2.985,0,4.459,2.386,5.644,4.3,1.2,1.938,2.01,3.127,3.537,3.127s2.338-1.189,3.537-3.127c1.185-1.917,2.659-4.3,5.644-4.3s4.459,2.386,5.642,4.3c1.2,1.939,2.01,3.128,3.538,3.128s2.339-1.189,3.538-3.128c1.185-1.915,2.659-4.3,5.645-4.3s4.461,2.386,5.646,4.3c1.2,1.939,2.01,3.128,3.539,3.128s2.339-1.189,3.538-3.128c1.183-1.915,2.659-4.3,5.645-4.3s4.463,2.386,5.648,4.3c1.2,1.939,2.013,3.128,3.541,3.128s2.342-1.189,3.542-3.128c1.185-1.915,2.661-4.3,5.648-4.3a1.238,1.238,0,0,1,0,2.476c-1.53,0-2.342,1.189-3.542,3.128C174.483,93.9,173.009,96.286,170.02,96.286Z" transform="translate(0 6.259)" fill="#cb4dae"/>
    </g>
  </g>
</svg>
