<svg xmlns="http://www.w3.org/2000/svg" width="81" height="81" viewBox="0 0 81 81">
  <g id="Grupo_1064210" data-name="Grupo 1064210" transform="translate(-340 -4049)">
    <g id="Grupo_1062964" data-name="Grupo 1062964" transform="translate(0 -2315)">
      <g id="Grupo_988068" data-name="Grupo 988068" transform="translate(136 3787)">
        <rect id="Rect치ngulo_35795" data-name="Rect치ngulo 35795" width="81" height="81" rx="8" transform="translate(204 2577)" fill="#3449bc"/>
      </g>
    </g>
    <g id="doctor" transform="translate(298.887 4056)">
      <path id="Trazado_781839" data-name="Trazado 781839" d="M109.1,342.46l-10.973-3.227H79.072L68.1,342.46a6.247,6.247,0,0,0-4.484,5.993V360.7h49.975V348.454A6.247,6.247,0,0,0,109.1,342.46Z" transform="translate(-6.527 -295.173)" fill="#edebed"/>
      <path id="Trazado_781840" data-name="Trazado 781840" d="M212.382,365H201.97l-2.082-20.823h14.576Z" transform="translate(-125.101 -299.475)" fill="#a5cdff"/>
      <path id="Trazado_781841" data-name="Trazado 781841" d="M200.362,348.913a10.375,10.375,0,0,0,13.629,0l.474-4.736H199.888Z" transform="translate(-125.101 -299.475)" fill="#8cb4eb"/>
      <path id="Trazado_781842" data-name="Trazado 781842" d="M207.176,278.592h0a7.288,7.288,0,0,1-7.288-7.288v-7.288h14.576V271.3A7.288,7.288,0,0,1,207.176,278.592Z" transform="translate(-125.101 -229.725)" fill="#f7d291"/>
      <path id="Trazado_781843" data-name="Trazado 781843" d="M199.888,269.462a15.34,15.34,0,0,0,14.576,0v-5.446H199.888Z" transform="translate(-125.101 -229.725)" fill="#f0c382"/>
      <path id="Trazado_781844" data-name="Trazado 781844" d="M152.524,90.056h-1.562V79.645h-27.07V90.056h-1.562a2.6,2.6,0,0,0,0,5.206h1.614a13.522,13.522,0,0,0,26.965,0h1.614a2.6,2.6,0,1,0,0-5.206Z" transform="translate(-55.353 -69.301)" fill="#ffe1a0"/>
      <path id="Trazado_781845" data-name="Trazado 781845" d="M123.984,79.645V90.056h-1.457a2.663,2.663,0,0,0-2.6,1.9,2.611,2.611,0,0,0,2.508,3.31h1.6a13.439,13.439,0,0,0,15.571,12.319,13.526,13.526,0,0,1-11.459-13.36V87.678a3.117,3.117,0,0,1,3.528-3.069,26.373,26.373,0,0,0,3.123.179,41.048,41.048,0,0,0,10.283-1.466,8.033,8.033,0,0,0,4.843-3.677Z" transform="translate(-55.444 -69.301)" fill="#f7d291"/>
      <path id="Trazado_781846" data-name="Trazado 781846" d="M142.917,47.532l.13,4.165a11.5,11.5,0,0,0-3.123,7.288V60.27a2.082,2.082,0,0,1-1.824,2.066l-2.341.293v-8.85C135.759,50.329,139.013,47.359,142.917,47.532Z" transform="translate(-69.301 -41.353)" fill="#a06e50"/>
      <path id="Trazado_781847" data-name="Trazado 781847" d="M268.475,321.462l-2.062-2.062,2.207-2.943a1.275,1.275,0,0,0-.45-1.905l-4.881-2.44L256,337.1h6.247l6.617-13.234A2.082,2.082,0,0,0,268.475,321.462Z" transform="translate(-173.926 -271.574)" fill="#dbd9dc"/>
      <path id="Trazado_781848" data-name="Trazado 781848" d="M320.26,23.483l-.13,7.288a11.5,11.5,0,0,1,3.123,7.288v1.285a2.082,2.082,0,0,0,1.824,2.066l2.341.293V29.73C327.418,26.28,324.165,23.31,320.26,23.483Z" transform="translate(-229.726 -20.427)" fill="#cd916e"/>
      <path id="Trazado_781849" data-name="Trazado 781849" d="M155.876,321.462l2.062-2.062-2.207-2.943a1.275,1.275,0,0,1,.45-1.905l4.881-2.44L168.35,337.1H162.1l-6.617-13.234A2.082,2.082,0,0,1,155.876,321.462Z" transform="translate(-86.275 -271.574)" fill="#dbd9dc"/>
      <path id="Trazado_781850" data-name="Trazado 781850" d="M153.891,7.5c-8.686,0-10.351,2.641-17.04,4.771a.729.729,0,0,0-.407,1.085c1.451,2.27,6.854,8.188,22.2,4.17a4.864,4.864,0,0,0,3.544-3.741h0A4.868,4.868,0,0,0,159.4,8.628,12.821,12.821,0,0,0,153.891,7.5Z" transform="translate(-69.799 -6.526)" fill="#b67f5f"/>
      <rect id="Rect치ngulo_373504" data-name="Rect치ngulo 373504" width="10.411" height="6.247" transform="translate(62.292 59.278)" fill="#a5cdff"/>
      <path id="Trazado_781851" data-name="Trazado 781851" d="M201.379,160.322a.974.974,0,0,0-.974.974v1.041a.974.974,0,0,0,1.948,0V161.3A.974.974,0,0,0,201.379,160.322Z" transform="translate(-125.551 -139.499)"/>
      <path id="Trazado_781852" data-name="Trazado 781852" d="M297.572,160.322a.974.974,0,0,0-.974.974v1.041a.974.974,0,1,0,1.948,0V161.3A.974.974,0,0,0,297.572,160.322Z" transform="translate(-209.25 -139.499)"/>
      <path id="Trazado_781853" data-name="Trazado 781853" d="M232.359,218.1a.974.974,0,1,0-1.368-1.387,4.293,4.293,0,0,1-4.879,0,.974.974,0,0,0-1.368,1.387,6.145,6.145,0,0,0,7.615,0Z" transform="translate(-146.476 -188.324)"/>
      <path id="Trazado_781854" data-name="Trazado 781854" d="M195.445,136.274h-2.082a.974.974,0,1,0,0,1.948h2.082a.974.974,0,1,0,0-1.948Z" transform="translate(-118.576 -118.574)"/>
      <path id="Trazado_781855" data-name="Trazado 781855" d="M289.556,138.222h2.082a.974.974,0,1,0,0-1.948h-2.082a.974.974,0,1,0,0,1.948Z" transform="translate(-202.275 -118.574)"/>
      <path id="Trazado_781856" data-name="Trazado 781856" d="M102.938,46.4,95.916,44.24a2.234,2.234,0,0,0-1.237-2.133l-4.342-2.171v-3.1a14.531,14.531,0,0,0,6.107-9.9h.579a3.691,3.691,0,0,0,3.707-3.212,3.571,3.571,0,0,0-2.064-3.613V9.3a7.229,7.229,0,0,0-7.221-7.221h-.165A12.281,12.281,0,0,0,84.092,0,24.835,24.835,0,0,0,71.975,2.735a42.246,42.246,0,0,1-6.051,2.336A.974.974,0,0,0,65.3,6.382a8.838,8.838,0,0,0,1.588,2.309c-.485.6-1.4,2.123-1.4,5.124v6.339a3.553,3.553,0,0,0,1.495,6.781h.727a14.526,14.526,0,0,0,6.107,9.905v3.095L69.47,42.107a2.234,2.234,0,0,0-1.237,2.133L61.212,46.4a7.185,7.185,0,0,0-5.1,6.9V65.525a.974.974,0,0,0,1.948,0V53.3a5.246,5.246,0,0,1,3.723-5.04l7.3-2.245,1.289,1.719L68.913,49.2a3.052,3.052,0,0,0-.573,3.528L71.128,58.3H68.473V57.2a.974.974,0,1,0-1.948,0V58.3H62.293a.974.974,0,0,0-.974.974v6.247a.974.974,0,0,0,.974.974H72.7a.974.974,0,0,0,.974-.974v-2.12l1.278,2.556A.974.974,0,0,0,76.7,65.09L70.082,51.856a1.107,1.107,0,0,1,.208-1.279l2.062-2.062a.974.974,0,0,0,.091-1.273L70.236,44.3a.3.3,0,0,1,.106-.45l3.837-1.918,2.709,9.286a.974.974,0,1,0,1.87-.545l-.427-1.464a11.4,11.4,0,0,0,7.489,0L82.075,62.046l-2.1-7.208a.974.974,0,1,0-1.87.545L81.14,65.8a.974.974,0,0,0,1.87,0l6.961-23.867,3.837,1.918a.3.3,0,0,1,.106.45l-2.207,2.942a.974.974,0,0,0,.09,1.273l2.062,2.062a1.107,1.107,0,0,1,.208,1.279L87.451,65.09a.974.974,0,1,0,1.743.872L95.81,52.728a3.053,3.053,0,0,0-.572-3.528l-1.465-1.465,1.289-1.719,7.3,2.246a5.246,5.246,0,0,1,3.723,5.04V65.525a.974.974,0,0,0,1.948,0V53.3A7.185,7.185,0,0,0,102.938,46.4ZM71.73,64.551H63.267v-4.3h3.258v.067a.974.974,0,1,0,1.948,0v-.067H71.73v4.3ZM72.78,4.51A22.944,22.944,0,0,1,84.092,1.948c3.594,0,6.805,1.5,7.47,3.5a.974.974,0,0,0,1.848-.616,4.6,4.6,0,0,0-.2-.495A5.281,5.281,0,0,1,96.718,9.3V19.782H95.61A1.109,1.109,0,0,1,94.5,18.674V17.633a12.41,12.41,0,0,0-3.409-7.977.975.975,0,0,0-.982-.24c-5.408,1.708-13.032,3.147-18.645.307a10.479,10.479,0,0,1-3.8-3.153A47.913,47.913,0,0,0,72.78,4.51ZM88.389,40.4l-1.86,6.379a9.451,9.451,0,0,1-8.907,0L75.761,40.4V37.982a14.488,14.488,0,0,0,12.628,0Zm-6.314-2.917A12.575,12.575,0,0,1,69.514,24.921a.974.974,0,1,0-1.948,0v.067h-.588a1.629,1.629,0,0,1-1.62-1.8,1.728,1.728,0,0,1,1.769-1.457H68.54A3.06,3.06,0,0,0,71.6,18.674V15a.974.974,0,1,0-1.948,0v3.677a1.109,1.109,0,0,1-1.108,1.108H67.432V13.815a6.566,6.566,0,0,1,.89-3.793,13.39,13.39,0,0,0,2.11,1.36,18.185,18.185,0,0,0,7.809,1.894,36.867,36.867,0,0,0,11.85-1.815,10.266,10.266,0,0,1,2.461,6.172v1.041A3.06,3.06,0,0,0,95.61,21.73h1.562a1.629,1.629,0,0,1,1.62,1.8,1.728,1.728,0,0,1-1.769,1.458h-.44v-.057a.974.974,0,0,0-.974-.974h0a.974.974,0,0,0-.974.973A12.577,12.577,0,0,1,82.075,37.481Z" transform="translate(0)"/>
      <path id="Trazado_781857" data-name="Trazado 781857" d="M366.907,435.474h-1.629v-1.629a.974.974,0,0,0-1.948,0v1.629H361.7a.974.974,0,1,0,0,1.948h1.629v1.629a.974.974,0,0,0,1.948,0v-1.629h1.629a.974.974,0,1,0,0-1.948Z" transform="translate(-265.05 -376.649)"/>
    </g>
  </g>
</svg>
