<svg xmlns="http://www.w3.org/2000/svg" width="81" height="81" viewBox="0 0 81 81">
  <g id="Grupo_1064229" data-name="Grupo 1064229" transform="translate(-760 -4049)">
    <g id="Grupo_1063926" data-name="Grupo 1063926" transform="translate(420 -2315)">
      <g id="Grupo_988068" data-name="Grupo 988068" transform="translate(136 3787)">
        <rect id="Rectángulo_35795" data-name="Rectángulo 35795" width="81" height="81" rx="8" transform="translate(204 2577)" fill="#3449bc"/>
      </g>
    </g>
    <g id="formulario-de-consentimiento-del-donante" transform="translate(769 4058)">
      <g id="Grupo_1064227" data-name="Grupo 1064227">
        <g id="Grupo_1064211" data-name="Grupo 1064211">
          <path id="Trazado_781858" data-name="Trazado 781858" d="M44,8V18l-1,1-3,3V8H32V4h8A4,4,0,0,1,44,8Z" fill="#ccd1d9"/>
        </g>
        <g id="Grupo_1064212" data-name="Grupo 1064212">
          <path id="Trazado_781859" data-name="Trazado 781859" d="M43.78,39.65l.22.06V58a4,4,0,0,1-4,4H6a4,4,0,0,1-4-4V8A4,4,0,0,1,6,4h8V8H6V58H40V38.58h.02Z" fill="#ccd1d9"/>
        </g>
        <g id="Grupo_1064213" data-name="Grupo 1064213">
          <path id="Trazado_781860" data-name="Trazado 781860" d="M32,4V8H14V3a1,1,0,0,1,1-1H31a1,1,0,0,1,1,1Z" fill="#5cd6b3"/>
        </g>
        <g id="Grupo_1064214" data-name="Grupo 1064214">
          <path id="Trazado_781861" data-name="Trazado 781861" d="M32,8H6V58H40V8Z" fill="#ffeaa7"/>
        </g>
        <g id="Grupo_1064215" data-name="Grupo 1064215">
          <path id="Trazado_781862" data-name="Trazado 781862" d="M28,12V26.71a6.061,6.061,0,0,0-2.08,2.01l-.19.31A8.964,8.964,0,0,0,19,26a5,5,0,1,0-5-5,5,5,0,0,0,5,5,9.014,9.014,0,0,0-9,9V12Z" fill="#e6e9ed"/>
        </g>
        <g id="Grupo_1064216" data-name="Grupo 1064216">
          <path id="Trazado_781863" data-name="Trazado 781863" d="M46,16l6,6-3,3-3-3-3-3,1-1Z" fill="#ffeaa7"/>
        </g>
        <g id="Grupo_1064217" data-name="Grupo 1064217">
          <path id="Trazado_781864" data-name="Trazado 781864" d="M54,18.24a4.246,4.246,0,0,1-1.24,3L52,22l-6-6,.76-.76a4.24,4.24,0,0,1,7.24,3Z" fill="#aab2bd"/>
        </g>
        <g id="Grupo_1064218" data-name="Grupo 1064218">
          <path id="Trazado_781865" data-name="Trazado 781865" d="M21,41l-3,9,9-3Z" fill="#aab2bd"/>
        </g>
        <g id="Grupo_1064219" data-name="Grupo 1064219">
          <path id="Trazado_781866" data-name="Trazado 781866" d="M33.99,38H36l-9,9-3-3,7.17-7.17A3.984,3.984,0,0,0,33.99,38Z" fill="#5cd6b3"/>
        </g>
        <g id="Grupo_1064220" data-name="Grupo 1064220">
          <path id="Trazado_781867" data-name="Trazado 781867" d="M49,25l-1.67,1.67-2.69,2.69A9.007,9.007,0,0,1,38.27,32H36L46,22Z" fill="#5cd6b3"/>
        </g>
        <g id="Grupo_1064221" data-name="Grupo 1064221">
          <path id="Trazado_781868" data-name="Trazado 781868" d="M17.944,29.379H49.057v4.243H17.944Z" transform="translate(-12.462 32.914) rotate(-45)" fill="#fcd770"/>
        </g>
        <g id="Grupo_1064222" data-name="Grupo 1064222">
          <path id="Trazado_781869" data-name="Trazado 781869" d="M22.02,36H10V35a9,9,0,0,1,15.73-5.97l-3.38,5.4A2.347,2.347,0,0,0,22,35.67c0,.11.01.22.02.33Z" fill="#ef7385"/>
        </g>
        <g id="Grupo_1064223" data-name="Grupo 1064223">
          <path id="Trazado_781870" data-name="Trazado 781870" d="M62,24V39L52,38V28Z" fill="#5cd6b3"/>
        </g>
        <g id="Grupo_1064224" data-name="Grupo 1064224">
          <path id="Trazado_781871" data-name="Trazado 781871" d="M52,28V38l-.72.48A9.051,9.051,0,0,1,46.27,40,9.175,9.175,0,0,1,44,39.71l-.22-.06-3.76-1.07H40A14.656,14.656,0,0,0,36,38H33.99A3.995,3.995,0,0,1,30,34.01,2.014,2.014,0,0,1,32.01,32h6.26a9.007,9.007,0,0,0,6.37-2.64l2.69-2.69Z" fill="#f0d0b4"/>
        </g>
        <g id="Grupo_1064225" data-name="Grupo 1064225">
          <path id="Trazado_781872" data-name="Trazado 781872" d="M33.42,24.59A9.321,9.321,0,0,1,36.69,24a10.16,10.16,0,0,1,1.23.08L30,32l-5.98,5.98a2.344,2.344,0,0,1-2-1.98c-.01-.11-.02-.22-.02-.33a2.347,2.347,0,0,1,.35-1.24l3.38-5.4.19-.31A6.061,6.061,0,0,1,28,26.71a7.363,7.363,0,0,1,.9-.42Z" fill="#f0d0b4"/>
        </g>
        <g id="Grupo_1064226" data-name="Grupo 1064226">
          <circle id="Elipse_5076" data-name="Elipse 5076" cx="5" cy="5" r="5" transform="translate(14 16)" fill="#f0d0b4"/>
        </g>
      </g>
      <g id="Grupo_1064228" data-name="Grupo 1064228">
        <path id="Trazado_781873" data-name="Trazado 781873" d="M51.946,26.944l-2.7-.773,4.224-4.223a5.242,5.242,0,0,0-7.415-7.412L45,15.586V8a5.006,5.006,0,0,0-5-5H33a2,2,0,0,0-2-2H15a2,2,0,0,0-2,2H6A5.006,5.006,0,0,0,1,8V58a5.006,5.006,0,0,0,5,5H40a5.006,5.006,0,0,0,5-5V40.9a10.1,10.1,0,0,0,6.83-1.588l.427-.285L63,40.1V22.523Zm-4.48-10.995a3.243,3.243,0,0,1,4.585,4.587l-.051.05L47.415,16ZM46,17.414,50.586,22,49,23.586,44.414,19ZM47.586,25l-3.655,3.655a8.065,8.065,0,0,1-5.507,2.336L46,23.414Zm-3-3-9,9L32.41,31,43,20.414ZM24,42.586,22.414,41l6.6-6.6a4.951,4.951,0,0,0,.819,2.352Zm7.248-4.42a4.942,4.942,0,0,0,2.353.82l-6.6,6.6L25.414,44ZM20.894,44.48l.543-1.629,3.712,3.712-1.629.543Zm.5,3.333-1.818.606.606-1.818ZM25,21a6,6,0,1,0-9.7,4.717A10.038,10.038,0,0,0,11,29.026V13H27V26.2a7.027,7.027,0,0,0-1.4,1.3,10,10,0,0,0-2.907-1.774A5.987,5.987,0,0,0,25,21Zm-6,4a4,4,0,1,1,4-4A4,4,0,0,1,19,25Zm0,2a8.007,8.007,0,0,1,5.467,2.167L21.506,33.9a3.322,3.322,0,0,0-.43,1.1H11a8.009,8.009,0,0,1,8-8Zm4.734,9.852a1.326,1.326,0,0,1-.532-1.89l3.569-5.709a5.017,5.017,0,0,1,2.483-2.031l4.512-1.692a8.244,8.244,0,0,1,1.719-.43ZM33,5h7a3,3,0,0,1,3,3v9.586l-2,2V7H33ZM15,3H31V7H15ZM39,9V21.586l-1.467,1.467a10.361,10.361,0,0,0-4.47.6L29,25.182V11H9V37H21.291a3.359,3.359,0,0,0,1,1.295L20.126,40.46,16.845,50.3a2.382,2.382,0,0,0-1.11,1.33l-.319.962a.618.618,0,0,1-1.056.142l-1.141-1.71A2.3,2.3,0,0,0,9,52.3V55h2V52.3a.314.314,0,0,1,.555-.168l1.141,1.71a2.592,2.592,0,0,0,4.617-.618l.319-.961a.4.4,0,0,1,.736,0l.455,1.367A2,2,0,0,0,20.721,55H26V53H20.721l-.456-1.369a2.379,2.379,0,0,0-.751-1.082l8.026-2.675L36.4,39.009a13.947,13.947,0,0,1,2.6.364V57H7V9Zm4,49a3,3,0,0,1-3,3H6a3,3,0,0,1-3-3V8A3,3,0,0,1,6,5h7V7H5V59H41V39.9l2,.571Zm8-20.535-.279.187a8.1,8.1,0,0,1-6.662,1.04l-3.766-1.076A15.961,15.961,0,0,0,35.9,37H33.988A2.992,2.992,0,0,1,31,34.011,1.011,1.011,0,0,1,32.011,33L38.27,33a10.073,10.073,0,0,0,7.075-2.929l2.28-2.279L51,28.754Zm10,.43-8-.8V28.677l8-3.2Z"/>
        <path id="Trazado_781874" data-name="Trazado 781874" d="M31,11h6v2H31Z"/>
        <path id="Trazado_781875" data-name="Trazado 781875" d="M31,15h6v2H31Z"/>
        <path id="Trazado_781876" data-name="Trazado 781876" d="M31,19h6v2H31Z"/>
        <path id="Trazado_781877" data-name="Trazado 781877" d="M9,39h4v2H9Z"/>
        <path id="Trazado_781878" data-name="Trazado 781878" d="M9,43h6v2H9Z"/>
      </g>
    </g>
  </g>
</svg>
