<svg xmlns="http://www.w3.org/2000/svg" width="81" height="81" viewBox="0 0 81 81">
  <g id="Grupo_1064231" data-name="Grupo 1064231" transform="translate(-1180 -4050)">
    <g id="Grupo_1063927" data-name="Grupo 1063927" transform="translate(840 -2314)">
      <g id="Grupo_988068" data-name="Grupo 988068" transform="translate(136 3787)">
        <rect id="Rectángulo_35795" data-name="Rectángulo 35795" width="81" height="81" rx="8" transform="translate(204 2577)" fill="#3449bc"/>
      </g>
    </g>
    <g id="mama" transform="translate(1090.919 4046.81)">
      <path id="Trazado_781879" data-name="Trazado 781879" d="M147.913,246.168c-.221-1.691-.539-4.217-.886-7.016l-24.115-30.546c-7.722,11.735-8.928,31.778-9.118,37.723a1.659,1.659,0,0,0,1.658,1.71h30.817a1.659,1.659,0,0,0,1.645-1.872Z" transform="translate(-5.174 -171.747)" fill="#24a7bc"/>
      <path id="Trazado_781880" data-name="Trazado 781880" d="M240.824,28.419a1.7,1.7,0,0,1,0-.714c1.8-8.428-10.418-15.267-17.5-10.932-4.917,3.009-9.235,10.363-11.9,12.324L234.38,62.542c8.5-7.5,3.388-16.877,3.248-20.006s1.7-4.786,3.041-8.816a10.673,10.673,0,0,0,.155-5.3Z" transform="translate(-89.313 -5.271)" fill="#8e3a5b"/>
      <path id="Trazado_781881" data-name="Trazado 781881" d="M273.445,115.066a.179.179,0,0,0-.255-.125c-5.034,2.451-9.752-2.386-13.868,2.572l-6.587,8.339,8.711,2.2c3.635,3.1,5.424-.891,6.179-1.792.469-.559,2.21-1.157,2.884-1.532a1.2,1.2,0,0,0,.434-1.543,3.378,3.378,0,0,1,.434-3.258c1.127-1.489,2.553-2.416,2.067-4.859Z" transform="translate(-124.913 -91.011)" fill="#f88"/>
      <path id="Trazado_781882" data-name="Trazado 781882" d="M247.377,216.147c-.227-6.235-3.255-14.73-12.03-16.587l-8.743,5.672a77.957,77.957,0,0,0-.269,12.563,22.791,22.791,0,0,0,1.976,6.29,7.652,7.652,0,0,0,3.03,3.3l2.5,1.466c3.9,1,10.91,1.055,12.9-5.627a28.5,28.5,0,0,0,.638-7.073Z" transform="translate(-102.018 -163.951)" fill="#ffd2d2"/>
      <path id="Trazado_781883" data-name="Trazado 781883" d="M174.039,356.871a7.51,7.51,0,0,1-.213.918s-.8-.158-1.52-.34a2.307,2.307,0,0,0-1.993.41c-3.327,2.629-7.27,2.817-9.592,3.874-1.359.76-4.918-.553-4.054-3.15.438-1.317,2.641-1.142,2.833-1.342.933-.976,2.547-4.1,4.39-6.267a5.1,5.1,0,0,1,5.693-1.461c3.527,1.353,4.437,3.761,4.551,5.635A7.593,7.593,0,0,1,174.039,356.871Z" transform="translate(-42.007 -292.893)" fill="#f88"/>
      <path id="Trazado_781884" data-name="Trazado 781884" d="M212.3,233.243a2.046,2.046,0,0,0-.561.981c-.944,3.828-2.887,4.637-4.593,3.75a6.985,6.985,0,0,1-2.437-2.358,1.959,1.959,0,0,0-1.208-.994c-6.544-.965-11.466-3.672-14.735-7.465a22.713,22.713,0,0,1-3.957-6.608c-.007-.019-.015-.039-.024-.059-.227-.589-.422-1.173-.59-1.754q-.12-.419-.223-.831a18.436,18.436,0,0,1-.513-3.356,8.8,8.8,0,0,1,1.339-5.844,3.331,3.331,0,0,1,1.676-1.173c3.071-.912,5,.514,6.286,2.854a19.125,19.125,0,0,1,1.657,4.634c.347,1.436.6,2.9.831,4.211.1.557.187,1.086.276,1.578a9.679,9.679,0,0,0,.8,2.9c2.934,4.551,8.818,4.953,10.058,5.53a2.648,2.648,0,0,0,1.245.24c1.377-.072,4.772.03,5.074,2.727a1.227,1.227,0,0,1-.408,1.035Z" transform="translate(-65.195 -170.582)" fill="#f88"/>
      <path id="Trazado_781885" data-name="Trazado 781885" d="M172.477,114.105a2.154,2.154,0,0,1-.941-.213,2.221,2.221,0,0,1-1.22-2.2,3.431,3.431,0,0,1,.253-.9,3.027,3.027,0,0,0,.135-.4,1.053,1.053,0,0,0-.507-1.106.829.829,0,1,1,.774-1.467,2.694,2.694,0,0,1,1.35,2.942,4.419,4.419,0,0,1-.206.627,2.142,2.142,0,0,0-.149.477.527.527,0,0,0,.892.433.829.829,0,1,1,1.157,1.189A2.211,2.211,0,0,1,172.477,114.105Z" transform="translate(-53.401 -84.812)" fill="#462e4c"/>
      <path id="Trazado_781886" data-name="Trazado 781886" d="M175.3,91.232a2.9,2.9,0,0,0-3.333-1.708c-2.091-6.94-11.59-9.4-17.2-1.176-3.457,5.066-1.2,9.729,1.908,12.237,2.991,2.417,2.809,5.7,10.048,3.755a9.288,9.288,0,0,0,6.327-9.412C175.04,94.863,175.911,93.007,175.3,91.232Z" transform="translate(-38.982 -63.647)" fill="#ff9f9f"/>
      <path id="Trazado_781887" data-name="Trazado 781887" d="M183.272,239.726c-3.6,2.315-8.923,2.281-10.654,2.152a.736.736,0,0,1-.7-.545c-.239-1.4-1.13-1.826-1.785-1.229a.569.569,0,0,1-.424.14c-.454-.031-1.378.2-1.5,2.541-.112,2.211,1.36,3.137,2.906,3.7a17.364,17.364,0,0,0,14.3-.606c.672-.334,3.38-1.93,2.046-4.93a2.884,2.884,0,0,0-4.19-1.222Z" transform="translate(-52.067 -198.167)" fill="#f88"/>
      <g id="Grupo_1064230" data-name="Grupo 1064230" transform="translate(107.79 9.315)">
        <path id="Trazado_781888" data-name="Trazado 781888" d="M330.987,178.4a3.481,3.481,0,0,1-1.184-1.324.855.855,0,0,1,.273-1.125.829.829,0,0,1,1.177.321,1.9,1.9,0,0,0,.622.733.828.828,0,0,1-.889,1.4Z" transform="translate(-299.026 -152.807)" fill="#462e4c"/>
        <path id="Trazado_781889" data-name="Trazado 781889" d="M234.921,161.374a.829.829,0,0,1-.2-1.634.428.428,0,0,0,.295-.336.829.829,0,0,1,1.647.191,2.089,2.089,0,0,1-1.54,1.754A.833.833,0,0,1,234.921,161.374Z" transform="translate(-216.636 -138.028)" fill="#462e4c"/>
        <path id="Trazado_781890" data-name="Trazado 781890" d="M192.445,191.165a1.618,1.618,0,0,1-.59-.11.829.829,0,1,1,.594-1.548.112.112,0,0,0,.054-.023.829.829,0,0,1,1.542.611,1.694,1.694,0,0,1-.9.923A1.742,1.742,0,0,1,192.445,191.165Z" transform="translate(-179.777 -164.131)" fill="#462e4c"/>
        <path id="Trazado_781891" data-name="Trazado 781891" d="M229.062,199.695a1.692,1.692,0,0,1-.352-.037.829.829,0,1,1,.344-1.622.185.185,0,0,0,.121-.04.19.19,0,0,0,.081-.1.829.829,0,1,1,1.638.257,1.826,1.826,0,0,1-.778,1.207,1.866,1.866,0,0,1-1.053.333Z" transform="translate(-211.43 -171.229)" fill="#462e4c"/>
        <path id="Trazado_781892" data-name="Trazado 781892" d="M219.217,145.258a.829.829,0,0,1-.2-1.634l.56-.14a.829.829,0,0,1,.4,1.609l-.56.14a.825.825,0,0,1-.2.025Z" transform="translate(-203.102 -124.918)" fill="#462e4c"/>
        <path id="Trazado_781893" data-name="Trazado 781893" d="M180.4,172.229a.829.829,0,0,1-.77-1.137l.14-.35a.829.829,0,1,1,1.54.616l-.14.35A.829.829,0,0,1,180.4,172.229Z" transform="translate(-169.648 -147.981)" fill="#462e4c"/>
        <path id="Trazado_781894" data-name="Trazado 781894" d="M152.143,28.71a11.659,11.659,0,0,0,.145-5.886.194.194,0,0,1,0-.084c.89-3.878-.887-7.844-4.754-10.61a15.262,15.262,0,0,0-6.894-2.716,10.784,10.784,0,0,0-7.072,1.384,25,25,0,0,0-6.654,6.361c-.484.615-.914,1.159-1.332,1.627-3.981-.451-7.915,1.582-10.588,5.5-3.518,5.155-1.443,9.986,1.607,12.807-7.447,11.986-8.629,31.644-8.813,37.463a2.487,2.487,0,0,0,2.487,2.566h30.817a2.487,2.487,0,0,0,2.467-2.808c-.171-1.312-.418-3.257-.734-5.79a3.2,3.2,0,0,0,.377.023,3.056,3.056,0,0,0,1.266-.273c1.336-.6,2.305-2.1,2.882-4.434a1.209,1.209,0,0,1,.332-.583,2.049,2.049,0,0,0,.655-1.723,3.612,3.612,0,0,0-2.592-3.058c.043-.251.084-.525.122-.815a14.555,14.555,0,0,0,4.913-9.76,24.264,24.264,0,0,0-1.115-8.274,14.067,14.067,0,0,1-.525-2.4,8.963,8.963,0,0,1,1.343-4.622,29.49,29.49,0,0,0,1.657-3.9Zm-35.776-3.489c2.427-3.557,5.838-5.286,9.357-4.743a7.96,7.96,0,0,1,6.231,4.978,3.6,3.6,0,0,0-1.35,1.975.858.858,0,0,0,.478,1.058.83.83,0,0,0,1.1-.539c.257-.875.735-1.327,1.42-1.343a2.062,2.062,0,0,1,1.748,3.208,1.629,1.629,0,0,1-1.392.636h-.045a.829.829,0,0,0-.829.818,8.934,8.934,0,0,1-.117,2.8,8.639,8.639,0,0,1-5.555,5.88c-4.866,1.308-5.8.159-7.214-1.58a12.974,12.974,0,0,0-1.94-2.038C115.305,33.945,113.259,29.775,116.368,25.221ZM137.1,27.314a3.307,3.307,0,0,0-.933-1.359c1.724-1.28,3.583-1.022,5.7-.726a12.121,12.121,0,0,0,5.936-.2,3.807,3.807,0,0,1-1.284,2.522c-.234.272-.475.553-.711.864a4.145,4.145,0,0,0-.484,4.186.274.274,0,0,1,.04.2.307.307,0,0,1-.167.189c-.182.1-.5.24-.831.387a6.55,6.55,0,0,0-2.285,1.338,6.626,6.626,0,0,0-.443.633c-.469.723-1.112,1.714-2.063,1.889a2.071,2.071,0,0,1-1.371-.222,31.059,31.059,0,0,0-3.812-1.907A10.682,10.682,0,0,0,134.9,32a3.125,3.125,0,0,0,1.8-1.208,3.807,3.807,0,0,0,.4-3.475ZM120.49,44.539c.7.052,6.949.431,11.165-2.281a2.076,2.076,0,0,1,1.72-.242,2.005,2.005,0,0,1,1.264,1.1c.994,2.235-.828,3.437-1.657,3.85a16.529,16.529,0,0,1-13.646.569c-1.748-.635-2.433-1.468-2.361-2.877.063-1.253.368-1.617.46-1.7a.188.188,0,0,1,.151-.057c.387.016.585-.256.8-.382a.47.47,0,0,1,.294-.014c.072.032.26.251.353.8a1.549,1.549,0,0,0,1.456,1.233Zm-1.21-3.577a7.588,7.588,0,0,1,.221-.84,5.3,5.3,0,0,0,4.453,2.035,14.654,14.654,0,0,0,3.551-.522c.072.18.141.365.21.56a22.316,22.316,0,0,1-7.072.692A2.468,2.468,0,0,0,119.279,40.962Zm14.441,7.493c1.929-.96,3.723-3.11,2.434-6.009a3.663,3.663,0,0,0-2.3-2.018,3.732,3.732,0,0,0-3.092.436,10.1,10.1,0,0,1-1.479.779c-.072-.2-.144-.4-.219-.587a11.281,11.281,0,0,0,2.451-1.623,9.853,9.853,0,0,0,2.228-2.8c9,3.372,10.631,11.171,10.792,15.59a36.565,36.565,0,0,1-.4,5.888,10.651,10.651,0,0,0-1.73-.044c-.292.016-1.671-.438-2.34-.6-2.128-.517-6.088-1.478-8.224-4.791a12.488,12.488,0,0,1-.78-3.133,19.475,19.475,0,0,0,2.663-1.092Zm8,26.728a.819.819,0,0,1-.624.282H110.278a.828.828,0,0,1-.829-.855c.18-5.674,1.32-24.743,8.415-36.395q.226.229.431.464a8.705,8.705,0,0,0-.749,2.571,1.851,1.851,0,0,0-1.214.474,3.939,3.939,0,0,0-1.015,2.855,4.324,4.324,0,0,0,3.063,4.373,23.537,23.537,0,0,0,4.046,7.539,5.909,5.909,0,0,0-1.175,1.056,37.182,37.182,0,0,0-2.823,4.015,24.669,24.669,0,0,1-1.4,2.06l-.173.024c-.812.108-2.5.333-2.985,1.785a3.028,3.028,0,0,0,1.009,3.427,4.648,4.648,0,0,0,2.858,1.027,2.864,2.864,0,0,0,1.343-.3,18.345,18.345,0,0,1,2.625-.832,18.631,18.631,0,0,0,7.111-3.134,1.483,1.483,0,0,1,1.277-.258,30.654,30.654,0,0,0,5.766.855,14.832,14.832,0,0,0,3.227-.341,7.859,7.859,0,0,0,1.981,1.956c.371,2.977.656,5.231.847,6.7a.817.817,0,0,1-.2.653Zm-19.2-16.562a4.248,4.248,0,0,1,1.009-.865,22.111,22.111,0,0,0,7.781,5.253,7.017,7.017,0,0,1-.1.909c-.221-.049-.464-.106-.7-.165a3.151,3.151,0,0,0-2.711.565,17.034,17.034,0,0,1-6.512,2.833,19.353,19.353,0,0,0-2.908.936c-.021.009-.041.02-.062.031a2.627,2.627,0,0,1-2.369-.539,1.375,1.375,0,0,1-.493-1.625c.156-.468,1.115-.6,1.631-.664a1.548,1.548,0,0,0,1.015-.366,18.322,18.322,0,0,0,1.734-2.47A35.13,35.13,0,0,1,122.514,58.62Zm10.307,5.648q.062-.327.1-.657a29.311,29.311,0,0,0,3.458.931,16.315,16.315,0,0,1-3.556-.274ZM146.5,61.619c.109.865-.628,1.3-.758,1.824-.436,1.767-1.13,2.946-1.955,3.319a1.6,1.6,0,0,1-1.45-.106,6.237,6.237,0,0,1-2.125-2.076,2.724,2.724,0,0,0-1.782-1.36c-6.02-.888-10.94-3.372-14.227-7.186a21.881,21.881,0,0,1-3.833-6.419,19.369,19.369,0,0,0,5.345.785,17.038,17.038,0,0,0,3.732-.414,11.149,11.149,0,0,0,.995,3.591c2.494,3.87,6.874,4.933,9.226,5.5a17.373,17.373,0,0,0,2.817.645c2.582-.215,3.878.793,4.016,1.893Zm.986-24.317a14.371,14.371,0,0,0,.58,2.756c.986,3.666,2.571,9.57-1.946,14.944.067-1.07.094-2.1.067-2.836-.131-3.6-1.161-9.265-5.769-13.448a6.343,6.343,0,0,0,2.607-2.467,7.915,7.915,0,0,1,2-1.355c.387-.17.72-.316.97-.456a1.982,1.982,0,0,0,.92-1.231,1.877,1.877,0,0,0-.178-1.464,2.65,2.65,0,0,1,.384-2.331c.2-.27.429-.532.646-.784a5.078,5.078,0,0,0,1.632-4.38c.149-.093.3-.191.449-.3a.829.829,0,0,0-.958-1.354c-2.284,1.617-4.479,1.31-6.8.985-2.495-.349-5.072-.709-7.488,1.507a3.516,3.516,0,0,0-1.042-.142h-.022a9.6,9.6,0,0,0-6.111-5.775c.259-.318.522-.65.791-.992a23.6,23.6,0,0,1,6.225-5.978c3.265-2.023,8.251-1.5,12.126,1.272,3.3,2.363,4.837,5.686,4.1,8.889a1.832,1.832,0,0,0,0,.831,9.933,9.933,0,0,1-.1,4.989A28.1,28.1,0,0,1,149,31.876a10.5,10.5,0,0,0-1.51,5.426Z" transform="translate(-107.79 -9.315)" fill="#462e4c"/>
        <path id="Trazado_781895" data-name="Trazado 781895" d="M352.953,137.1a.837.837,0,0,1-.1-.006,2.33,2.33,0,0,1-2.038-2.188.829.829,0,1,1,1.654-.12.663.663,0,0,0,.574.661.829.829,0,0,1-.094,1.653Z" transform="translate(-317.227 -116.785)" fill="#462e4c"/>
        <path id="Trazado_781896" data-name="Trazado 781896" d="M371.607,118.9a.825.825,0,0,1-.525-.188,2.012,2.012,0,0,0-1.15-.434.829.829,0,0,1-.129-1.654,3.614,3.614,0,0,1,2.331.8.829.829,0,0,1-.526,1.471Z" transform="translate(-332.93 -101.788)" fill="#462e4c"/>
        <path id="Trazado_781897" data-name="Trazado 781897" d="M142.787,81.824a.829.829,0,0,0-1.173-.015.527.527,0,0,1-.892-.433c.014-.129.3-.871.355-1.1a2.7,2.7,0,0,0-.642-2.39c.036-.058.779-1.7.807-1.766a4.4,4.4,0,0,0,.411-1.8,2.254,2.254,0,0,0-1.158-1.977,2.187,2.187,0,0,0-2.73.819,2.911,2.911,0,0,0-.356,2.18.138.138,0,0,1-.183.158,2.846,2.846,0,0,0-2.21.006,2.315,2.315,0,0,0-1.293,2.016,2.373,2.373,0,0,0,1.168,2.058,2.642,2.642,0,0,0,1.338.344,3.391,3.391,0,0,0,.857-.114,6.937,6.937,0,0,0,1.664-.752c.083-.047.2-.1.332-.168a1.063,1.063,0,0,1,.378,1.021,3.05,3.05,0,0,1-.135.4,3.425,3.425,0,0,0-.253.9,2.221,2.221,0,0,0,1.22,2.2,2.154,2.154,0,0,0,.941.213A2.211,2.211,0,0,0,142.771,83,.829.829,0,0,0,142.787,81.824Zm-5.093-4.084a4.527,4.527,0,0,1-1.028.456,1.277,1.277,0,0,1-.941-.059.638.638,0,0,1-.344-.6c.157-.852,1.258-.506,1.445-.427.2.086.782.389.864.431a.111.111,0,0,1,0,.2Zm1.426-3.692c.432-.44.827-.052.875.311a2.61,2.61,0,0,1-.4,1.486.13.13,0,0,1-.228,0,3.441,3.441,0,0,1-.285-.645c-.136-.441-.194-.92.036-1.154Z" transform="translate(-130.139 -63.451)" fill="#462e4c"/>
      </g>
    </g>
  </g>
</svg>
