<svg xmlns="http://www.w3.org/2000/svg" xmlns:xlink="http://www.w3.org/1999/xlink" width="14.934" height="14.934" viewBox="0 0 14.934 14.934">
  <defs>
    <clipPath id="clip-path">
      <rect id="Rectángulo_34813" data-name="Rectángulo 34813" width="14.934" height="14.934" transform="translate(0 0)" fill="none"/>
    </clipPath>
  </defs>
  <g id="Grupo_80124" data-name="Grupo 80124" transform="translate(0 0)">
    <g id="Grupo_80120" data-name="Grupo 80120" clip-path="url(#clip-path)">
      <path id="Trazado_145973" data-name="Trazado 145973" d="M10.667,4.512,14.4,6.443a.981.981,0,0,1,.04,1.721l-3.642,2.1a.98.98,0,0,0-.38.4L8.49,14.4a.982.982,0,0,1-1.721.04L4.665,10.8a.98.98,0,0,0-.4-.38L.53,8.489A.981.981,0,0,1,.49,6.768l3.641-2.1a.982.982,0,0,0,.381-.4L6.443.53A.981.981,0,0,1,8.164.49l2.1,3.641a.976.976,0,0,0,.4.381" fill="#fff"/>
    </g>
  </g>
</svg>
