<svg xmlns="http://www.w3.org/2000/svg" width="44.16" height="44.16" viewBox="0 0 44.16 44.16">
  <g id="Trazado_145975" data-name="Trazado 145975" fill="none">
    <path d="M22.08,0A22.08,22.08,0,1,1,0,22.08,22.08,22.08,0,0,1,22.08,0Z" stroke="none"/>
    <path d="M 22.080078125 3 C 16.98360824584961 3 12.19217872619629 4.984668731689453 8.588428497314453 8.588428497314453 C 4.984668731689453 12.19217872619629 3 16.98360824584961 3 22.080078125 C 3 27.17654800415039 4.984668731689453 31.96797943115234 8.588428497314453 35.57172775268555 C 12.19217872619629 39.17548751831055 16.98360824584961 41.16015625 22.080078125 41.16015625 C 27.17654800415039 41.16015625 31.96797943115234 39.17548751831055 35.57172775268555 35.57172775268555 C 39.17548751831055 31.96797943115234 41.16015625 27.17654800415039 41.16015625 22.080078125 C 41.16015625 16.98360824584961 39.17548751831055 12.19217872619629 35.57172775268555 8.588428497314453 C 31.96797943115234 4.984668731689453 27.17654800415039 3 22.080078125 3 M 22.080078125 0 C 34.27456665039062 0 44.16015625 9.885589599609375 44.16015625 22.080078125 C 44.16015625 34.27456665039062 34.27456665039062 44.16015625 22.080078125 44.16015625 C 9.885589599609375 44.16015625 0 34.27456665039062 0 22.080078125 C 0 9.885589599609375 9.885589599609375 0 22.080078125 0 Z" stroke="none" fill="#fff"/>
  </g>
</svg>
