<svg xmlns="http://www.w3.org/2000/svg" width="18.183" height="18.183" viewBox="0 0 18.183 18.183">
  <g id="Trazado_145974" data-name="Trazado 145974" fill="none">
    <path d="M9.091,0A9.091,9.091,0,1,1,0,9.091,9.091,9.091,0,0,1,9.091,0Z" stroke="none"/>
    <path d="M 9.091307640075684 2.999998092651367 C 5.732547760009766 2.999998092651367 2.999998092651367 5.732547760009766 2.999998092651367 9.091307640075684 C 2.999998092651367 12.4500675201416 5.732547760009766 15.1826171875 9.091307640075684 15.1826171875 C 12.4500675201416 15.1826171875 15.1826171875 12.4500675201416 15.1826171875 9.091307640075684 C 15.1826171875 5.732547760009766 12.4500675201416 2.999998092651367 9.091307640075684 2.999998092651367 M 9.091307640075684 -1.9073486328125e-06 C 14.11229705810547 -1.9073486328125e-06 18.1826171875 4.070317268371582 18.1826171875 9.091307640075684 C 18.1826171875 14.11229705810547 14.11229705810547 18.1826171875 9.091307640075684 18.1826171875 C 4.070317268371582 18.1826171875 -1.9073486328125e-06 14.11229705810547 -1.9073486328125e-06 9.091307640075684 C -1.9073486328125e-06 4.070317268371582 4.070317268371582 -1.9073486328125e-06 9.091307640075684 -1.9073486328125e-06 Z" stroke="none" fill="#fff"/>
  </g>
</svg>
