<svg xmlns="http://www.w3.org/2000/svg" width="81" height="81" viewBox="0 0 81 81">
  <g id="Grupo_1062964" data-name="Grupo 1062964" transform="translate(-340 -6364)">
    <g id="Grupo_988068" data-name="Grupo 988068" transform="translate(136 3787)">
      <rect id="Rectángulo_35795" data-name="Rectángulo 35795" width="81" height="81" rx="8" transform="translate(204 2577)" fill="#3449bc"/>
    </g>
    <g id="idioma" transform="translate(348 6373)">
      <g id="Grupo_1062960" data-name="Grupo 1062960">
        <path id="Trazado_781342" data-name="Trazado 781342" d="M53.83,34.33,56,43l-6.24-3.36-2.82-1.52A10.367,10.367,0,0,0,47,37c0-8.84-9.4-16-21-16a26.392,26.392,0,0,0-7.97,1.2,12.253,12.253,0,0,1,.67-3.3C21.07,12.05,29.26,7,39,7c11.6,0,21,7.16,21,16C60,27.42,57.64,31.43,53.83,34.33Z" fill="#c9a4ff"/>
        <path id="Trazado_781343" data-name="Trazado 781343" d="M50,37a13.744,13.744,0,0,1-.08,1.44c-.04.4-.09.81-.16,1.2l-2.82-1.52A10.367,10.367,0,0,0,47,37c0-8.84-9.4-16-21-16a26.392,26.392,0,0,0-7.97,1.2,12.253,12.253,0,0,1,.67-3.3A29.257,29.257,0,0,1,26,18C39.23,18,50,26.52,50,37Z" opacity="0.1"/>
        <g id="Grupo_1062959" data-name="Grupo 1062959" opacity="0.2">
          <path id="Trazado_781344" data-name="Trazado 781344" d="M24.36,18a.994.994,0,0,1-.76-1.64C26.89,12.44,32.79,10,39,10a1,1,0,0,1,0,2c-5.63,0-10.95,2.16-13.88,5.64a.97.97,0,0,1-.76.36Z" fill="#fff"/>
        </g>
      </g>
      <g id="Grupo_1062963" data-name="Grupo 1062963">
        <path id="Trazado_781345" data-name="Trazado 781345" d="M47,37a10.367,10.367,0,0,1-.06,1.12C46.19,46.44,37.1,53,26,53a26.46,26.46,0,0,1-7.56-1.09L9,57l2.17-8.67C7.36,45.43,5,41.42,5,37c0-6.69,5.38-12.42,13.03-14.8A26.392,26.392,0,0,1,26,21C37.6,21,47,28.16,47,37Z" fill="#99e2ff"/>
        <g id="Grupo_1062961" data-name="Grupo 1062961" opacity="0.2">
          <path id="Trazado_781346" data-name="Trazado 781346" d="M11.36,32a.994.994,0,0,1-.76-1.64C13.89,26.44,19.79,24,26,24a1,1,0,0,1,0,2c-5.63,0-10.95,2.16-13.88,5.64A.97.97,0,0,1,11.36,32Z" fill="#fff"/>
        </g>
        <g id="Grupo_1062962" data-name="Grupo 1062962" opacity="0.2">
          <path id="Trazado_781347" data-name="Trazado 781347" d="M13.59,46.14a1.029,1.029,0,0,1-.6-.2C9.77,43.49,8,40.32,8,37a1,1,0,0,1,2,0c0,2.68,1.49,5.29,4.19,7.35a.992.992,0,0,1,.19,1.4A.971.971,0,0,1,13.59,46.14Z" fill="#fff"/>
        </g>
      </g>
      <path id="Trazado_781348" data-name="Trazado 781348" d="M10.72,31.76a1,1,0,0,1-.12-1.41C13.89,26.44,19.79,24,26,24a1,1,0,0,1,0,2c-5.63,0-10.95,2.16-13.88,5.64a.99.99,0,0,1-.77.36A.955.955,0,0,1,10.72,31.76ZM39,10c-6.21,0-12.11,2.44-15.41,6.35A1.006,1.006,0,0,0,24.36,18a.99.99,0,0,0,.77-.36C28.05,14.16,33.37,12,39,12a1,1,0,0,0,0-2ZM10,37a1,1,0,0,0-2,0c0,3.32,1.77,6.49,4.98,8.94a.963.963,0,0,0,.6.2,1.033,1.033,0,0,0,.8-.39,1,1,0,0,0-.19-1.4C11.49,42.29,10,39.68,10,37Zm46.97,5.76A1,1,0,0,1,56,44a.967.967,0,0,1-.47-.12l-7.8-4.2C46.06,47.78,36.95,54,26,54a27.869,27.869,0,0,1-7.44-1.01L9.47,57.88A.967.967,0,0,1,9,58a.981.981,0,0,1-.61-.21,1.016,1.016,0,0,1-.36-1.03l2.01-8.05C6.14,45.54,4,41.41,4,37c0-6.93,5.4-12.91,13.12-15.55C18.14,12.74,27.57,6,39,6c12.13,0,22,7.63,22,17,0,4.4-2.14,8.54-6.04,11.72ZM46,37c0-8.27-8.97-15-20-15a25.773,25.773,0,0,0-7.63,1.14c-.01,0-.03.01-.04.01C11.1,25.41,6,30.77,6,37c0,3.96,2.05,7.7,5.77,10.53a1.012,1.012,0,0,1,.37,1.04l-1.62,6.48,7.45-4.01a1,1,0,0,1,.76-.08A25.813,25.813,0,0,0,26,52C37.03,52,46,45.27,46,37Zm7.22-3.47C56.95,30.7,59,26.96,59,23c0-8.27-8.97-15-20-15C28.97,8,20.62,13.53,19.21,20.83A27.756,27.756,0,0,1,26,20c12.13,0,22,7.63,22,17,0,.18-.01.36-.02.54l6.5,3.5-1.62-6.47A1.013,1.013,0,0,1,53.22,33.53ZM34,30H18a1,1,0,0,0,0,2H34a1,1,0,0,0,0-2Zm0,4H18a1,1,0,0,0,0,2H34a1,1,0,0,0,0-2Zm0,4H18a1,1,0,0,0,0,2H34a1,1,0,0,0,0-2Zm0,4H18a1,1,0,0,0,0,2H34a1,1,0,0,0,0-2Z"/>
    </g>
  </g>
</svg>
