<svg xmlns="http://www.w3.org/2000/svg" xmlns:xlink="http://www.w3.org/1999/xlink" width="1600" height="220" viewBox="0 0 1600 220">
  <defs>
    <linearGradient id="linear-gradient" x1="0.5" x2="0.5" y2="1" gradientUnits="objectBoundingBox">
      <stop offset="0" stop-color="#0f2771"/>
      <stop offset="1" stop-color="#2c6ae7"/>
    </linearGradient>
    <linearGradient id="linear-gradient-2" x1="1.043" y1="-0.125" x2="0.336" y2="1.321" gradientUnits="objectBoundingBox">
      <stop offset="0" stop-color="#64f6f0"/>
      <stop offset="0.645" stop-color="#4b31a8"/>
      <stop offset="1" stop-color="#461698"/>
    </linearGradient>
    <clipPath id="clip-path">
      <path id="Recurso_1" data-name="Recurso 1" d="M0,0H1600V220H0Z" transform="translate(0 69)" fill="url(#linear-gradient)"/>
    </clipPath>
    <linearGradient id="linear-gradient-3" x1="1.242" y1="-0.447" x2="0.028" y2="0.718" gradientUnits="objectBoundingBox">
      <stop offset="0" stop-color="#cb4dae"/>
      <stop offset="1" stop-color="#3449bc"/>
    </linearGradient>
    <clipPath id="clip-path-2">
      <path id="Rectangle_652" data-name="Rectangle 652" d="M1573.49,0H25.176C11.272,0,0,10.853,0,24.241V630.259C0,643.647,11.272,654.5,25.176,654.5H1573.49c13.9,0,25.176-10.853,25.176-24.241V24.241C1598.666,10.853,1587.394,0,1573.49,0Z" fill="url(#linear-gradient-2)"/>
    </clipPath>
    <linearGradient id="linear-gradient-4" x1="0.5" y1="0" x2="0.5" y2="1" xlink:href="#linear-gradient-2"/>
    <linearGradient id="linear-gradient-5" x1="0.106" y1="0.024" x2="0.5" y2="1" gradientUnits="objectBoundingBox">
      <stop offset="0" stop-color="#4dcbbf"/>
      <stop offset="1" stop-color="#3449bc"/>
    </linearGradient>
    <linearGradient id="linear-gradient-6" x1="0.12" y1="0.062" xlink:href="#linear-gradient-5"/>
    <clipPath id="clip-path-3">
      <rect id="Rectángulo_34813" data-name="Rectángulo 34813" width="14.934" height="14.934" transform="translate(0 0)" fill="none"/>
    </clipPath>
  </defs>
  <g id="Grupo_80134" data-name="Grupo 80134" transform="translate(0 -69)">
    <g id="Enmascarar_grupo_52" data-name="Enmascarar grupo 52" clip-path="url(#clip-path)">
      <g id="Grupo_80117" data-name="Grupo 80117" transform="translate(-138.666 -383.043)">
        <path id="Rectangle_652-2" data-name="Rectangle 652" d="M1573.49,0H25.176C11.272,0,0,10.853,0,24.241V630.259C0,643.647,11.272,654.5,25.176,654.5H1573.49c13.9,0,25.176-10.853,25.176-24.241V24.241C1598.666,10.853,1587.394,0,1573.49,0Z" transform="translate(140 70)" fill="url(#linear-gradient-3)"/>
        <g id="Enmascarar_grupo_45" data-name="Enmascarar grupo 45" transform="translate(140 70)" clip-path="url(#clip-path-2)">
          <path id="Trazado_99333" data-name="Trazado 99333" d="M830.553,225.147c-341.536,0-619.4,296.268-619.4,660.431s277.86,660.431,619.4,660.431,619.4-296.268,619.4-660.431-277.86-660.431-619.4-660.431M830.553,0c458.7,0,830.553,396.487,830.553,885.577s-371.851,885.577-830.553,885.577S0,1374.668,0,885.577,371.851,0,830.553,0Z" transform="translate(916.958 -1024.465)" fill="#3449bc"/>
          <path id="Trazado_113153" data-name="Trazado 113153" d="M486.866,0C755.755,0,973.733,232.419,973.733,519.122s-217.978,519.122-486.866,519.122S0,805.825,0,519.122,217.978,0,486.866,0Z" transform="translate(799.333 219.529)" opacity="0.444" fill="url(#linear-gradient-4)" style="mix-blend-mode: multiply;isolation: isolate"/>
          <path id="Elipse_4044" data-name="Elipse 4044" d="M257.948,66.2c-103.792,0-188.232,80.186-188.232,178.748S154.156,423.7,257.948,423.7,446.18,343.513,446.18,244.951,361.739,66.2,257.948,66.2m0-66.2C400.408,0,515.9,109.668,515.9,244.951S400.408,489.9,257.948,489.9,0,380.233,0,244.951,115.487,0,257.948,0Z" transform="translate(-302.759 519.682)" fill="url(#linear-gradient-5)"/>
          <path id="Elipse_4044-2" data-name="Elipse 4044" d="M116.2,29.894c46.756,0,84.794,36.208,84.794,80.715s-38.039,80.715-84.794,80.715-84.794-36.208-84.794-80.715S69.444,29.894,116.2,29.894M116.2,0C52.024,0,0,49.521,0,110.609S52.024,221.218,116.2,221.218,232.4,171.7,232.4,110.609,180.375,0,116.2,0Z" transform="translate(-153.744 471.434)" fill="url(#linear-gradient-6)"/>
          <g id="Elipse_4691" data-name="Elipse 4691" transform="translate(1149.222 -800.534)" fill="none" stroke="#fff" stroke-width="2">
            <ellipse cx="607.372" cy="647.611" rx="607.372" ry="647.611" stroke="none"/>
            <ellipse cx="607.372" cy="647.611" rx="606.372" ry="646.611" fill="none"/>
          </g>
        </g>
      </g>
    </g>
    <g id="Grupo_80129" data-name="Grupo 80129" transform="translate(131.477 -269.985)">
      <path id="Trazado_145968" data-name="Trazado 145968" d="M87.7,0A87.7,87.7,0,1,1,0,87.7,87.7,87.7,0,0,1,87.7,0Z" transform="translate(1244.819 361.281)" fill="#64b5f6" opacity="0.444" style="mix-blend-mode: multiply;isolation: isolate"/>
      <g id="Grupo_78276" data-name="Grupo 78276" transform="translate(12406.937 11663.52)">
        <g id="Grupo_53306" data-name="Grupo 53306" transform="translate(-11120.726 -11240.766)">
          <path id="Trazado_99200" data-name="Trazado 99200" d="M416.6,51.362a1.192,1.192,0,1,1-1.192-1.138A1.166,1.166,0,0,1,416.6,51.362Z" transform="translate(-414.214 -50.224)" fill="#fff"/>
          <path id="Trazado_99201" data-name="Trazado 99201" d="M425.042,51.362a1.192,1.192,0,1,1-1.19-1.138A1.165,1.165,0,0,1,425.042,51.362Z" transform="translate(-411.942 -50.224)" fill="#fff"/>
          <path id="Trazado_99202" data-name="Trazado 99202" d="M433.488,51.362a1.192,1.192,0,1,1-1.19-1.138A1.165,1.165,0,0,1,433.488,51.362Z" transform="translate(-409.67 -50.224)" fill="#fff"/>
          <path id="Trazado_99203" data-name="Trazado 99203" d="M441.935,51.362a1.192,1.192,0,1,1-1.192-1.138A1.166,1.166,0,0,1,441.935,51.362Z" transform="translate(-407.398 -50.224)" fill="#fff"/>
          <path id="Trazado_99204" data-name="Trazado 99204" d="M450.381,51.362a1.192,1.192,0,1,1-1.19-1.138A1.166,1.166,0,0,1,450.381,51.362Z" transform="translate(-405.126 -50.224)" fill="#fff"/>
          <path id="Trazado_99205" data-name="Trazado 99205" d="M458.827,51.362a1.192,1.192,0,1,1-1.19-1.138A1.165,1.165,0,0,1,458.827,51.362Z" transform="translate(-402.854 -50.224)" fill="#fff"/>
          <path id="Trazado_99206" data-name="Trazado 99206" d="M467.274,51.362a1.192,1.192,0,1,1-1.192-1.138A1.167,1.167,0,0,1,467.274,51.362Z" transform="translate(-400.582 -50.224)" fill="#fff"/>
          <path id="Trazado_99207" data-name="Trazado 99207" d="M475.72,51.362a1.192,1.192,0,1,1-1.19-1.138A1.165,1.165,0,0,1,475.72,51.362Z" transform="translate(-398.311 -50.224)" fill="#fff"/>
          <path id="Trazado_99208" data-name="Trazado 99208" d="M484.166,51.362a1.192,1.192,0,1,1-1.19-1.138A1.166,1.166,0,0,1,484.166,51.362Z" transform="translate(-396.039 -50.224)" fill="#fff"/>
          <path id="Trazado_99209" data-name="Trazado 99209" d="M492.613,51.362a1.192,1.192,0,1,1-1.192-1.138A1.167,1.167,0,0,1,492.613,51.362Z" transform="translate(-393.767 -50.224)" fill="#fff"/>
          <path id="Trazado_99210" data-name="Trazado 99210" d="M501.059,51.362a1.192,1.192,0,1,1-1.192-1.138A1.166,1.166,0,0,1,501.059,51.362Z" transform="translate(-391.495 -50.224)" fill="#fff"/>
        </g>
        <g id="Grupo_53307" data-name="Grupo 53307" transform="translate(-11120.726 -11231.654)">
          <path id="Trazado_99211" data-name="Trazado 99211" d="M416.6,58.87a1.192,1.192,0,1,1-1.192-1.138A1.166,1.166,0,0,1,416.6,58.87Z" transform="translate(-414.214 -57.732)" fill="#fff"/>
          <path id="Trazado_99212" data-name="Trazado 99212" d="M425.042,58.87a1.192,1.192,0,1,1-1.19-1.138A1.165,1.165,0,0,1,425.042,58.87Z" transform="translate(-411.942 -57.732)" fill="#fff"/>
          <path id="Trazado_99213" data-name="Trazado 99213" d="M433.488,58.87a1.192,1.192,0,1,1-1.19-1.138A1.165,1.165,0,0,1,433.488,58.87Z" transform="translate(-409.67 -57.732)" fill="#fff"/>
          <path id="Trazado_99214" data-name="Trazado 99214" d="M441.935,58.87a1.192,1.192,0,1,1-1.192-1.138A1.166,1.166,0,0,1,441.935,58.87Z" transform="translate(-407.398 -57.732)" fill="#fff"/>
          <path id="Trazado_99215" data-name="Trazado 99215" d="M450.381,58.87a1.192,1.192,0,1,1-1.19-1.138A1.166,1.166,0,0,1,450.381,58.87Z" transform="translate(-405.126 -57.732)" fill="#fff"/>
          <path id="Trazado_99216" data-name="Trazado 99216" d="M458.827,58.87a1.192,1.192,0,1,1-1.19-1.138A1.165,1.165,0,0,1,458.827,58.87Z" transform="translate(-402.854 -57.732)" fill="#fff"/>
          <path id="Trazado_99217" data-name="Trazado 99217" d="M467.274,58.87a1.192,1.192,0,1,1-1.192-1.138A1.167,1.167,0,0,1,467.274,58.87Z" transform="translate(-400.582 -57.732)" fill="#fff"/>
          <path id="Trazado_99218" data-name="Trazado 99218" d="M475.72,58.87a1.192,1.192,0,1,1-1.19-1.138A1.165,1.165,0,0,1,475.72,58.87Z" transform="translate(-398.311 -57.732)" fill="#fff"/>
          <path id="Trazado_99219" data-name="Trazado 99219" d="M484.166,58.87a1.192,1.192,0,1,1-1.19-1.138A1.166,1.166,0,0,1,484.166,58.87Z" transform="translate(-396.039 -57.732)" fill="#fff"/>
          <path id="Trazado_99220" data-name="Trazado 99220" d="M492.613,58.87a1.192,1.192,0,1,1-1.192-1.138A1.167,1.167,0,0,1,492.613,58.87Z" transform="translate(-393.767 -57.732)" fill="#fff"/>
          <path id="Trazado_99221" data-name="Trazado 99221" d="M501.059,58.87a1.192,1.192,0,1,1-1.192-1.138A1.166,1.166,0,0,1,501.059,58.87Z" transform="translate(-391.495 -57.732)" fill="#fff"/>
        </g>
        <g id="Grupo_53308" data-name="Grupo 53308" transform="translate(-11120.726 -11222.543)">
          <ellipse id="Elipse_3955" data-name="Elipse 3955" cx="1.191" cy="1.139" rx="1.191" ry="1.139" fill="#fff"/>
          <path id="Trazado_99222" data-name="Trazado 99222" d="M425.042,66.378a1.192,1.192,0,1,1-1.19-1.138A1.166,1.166,0,0,1,425.042,66.378Z" transform="translate(-411.942 -65.24)" fill="#fff"/>
          <ellipse id="Elipse_3956" data-name="Elipse 3956" cx="1.191" cy="1.139" rx="1.191" ry="1.139" transform="translate(21.436)" fill="#fff"/>
          <path id="Trazado_99223" data-name="Trazado 99223" d="M441.935,66.378a1.192,1.192,0,1,1-1.192-1.138A1.167,1.167,0,0,1,441.935,66.378Z" transform="translate(-407.398 -65.24)" fill="#fff"/>
          <path id="Trazado_99224" data-name="Trazado 99224" d="M450.381,66.378a1.192,1.192,0,1,1-1.19-1.138A1.166,1.166,0,0,1,450.381,66.378Z" transform="translate(-405.126 -65.24)" fill="#fff"/>
          <ellipse id="Elipse_3957" data-name="Elipse 3957" cx="1.191" cy="1.139" rx="1.191" ry="1.139" transform="translate(53.591)" fill="#fff"/>
          <path id="Trazado_99225" data-name="Trazado 99225" d="M467.274,66.378a1.192,1.192,0,1,1-1.192-1.138A1.167,1.167,0,0,1,467.274,66.378Z" transform="translate(-400.582 -65.24)" fill="#fff"/>
          <ellipse id="Elipse_3958" data-name="Elipse 3958" cx="1.191" cy="1.139" rx="1.191" ry="1.139" transform="translate(75.028)" fill="#fff"/>
          <ellipse id="Elipse_3959" data-name="Elipse 3959" cx="1.191" cy="1.139" rx="1.191" ry="1.139" transform="translate(85.746)" fill="#fff"/>
          <path id="Trazado_99226" data-name="Trazado 99226" d="M492.613,66.378a1.192,1.192,0,1,1-1.192-1.138A1.167,1.167,0,0,1,492.613,66.378Z" transform="translate(-393.766 -65.24)" fill="#fff"/>
          <path id="Trazado_99227" data-name="Trazado 99227" d="M501.059,66.378a1.192,1.192,0,1,1-1.192-1.138A1.167,1.167,0,0,1,501.059,66.378Z" transform="translate(-391.495 -65.24)" fill="#fff"/>
        </g>
        <g id="Grupo_53309" data-name="Grupo 53309" transform="translate(-11120.726 -11213.433)">
          <ellipse id="Elipse_3960" data-name="Elipse 3960" cx="1.191" cy="1.139" rx="1.191" ry="1.139" transform="translate(0 0)" fill="#fff"/>
          <path id="Trazado_99228" data-name="Trazado 99228" d="M425.042,73.887a1.192,1.192,0,1,1-1.19-1.14A1.165,1.165,0,0,1,425.042,73.887Z" transform="translate(-411.942 -72.747)" fill="#fff"/>
          <ellipse id="Elipse_3961" data-name="Elipse 3961" cx="1.191" cy="1.139" rx="1.191" ry="1.139" transform="translate(21.436 0)" fill="#fff"/>
          <path id="Trazado_99229" data-name="Trazado 99229" d="M441.935,73.887a1.192,1.192,0,1,1-1.192-1.14A1.166,1.166,0,0,1,441.935,73.887Z" transform="translate(-407.398 -72.747)" fill="#fff"/>
          <path id="Trazado_99230" data-name="Trazado 99230" d="M450.381,73.887a1.192,1.192,0,1,1-1.19-1.14A1.165,1.165,0,0,1,450.381,73.887Z" transform="translate(-405.126 -72.747)" fill="#fff"/>
          <ellipse id="Elipse_3962" data-name="Elipse 3962" cx="1.191" cy="1.139" rx="1.191" ry="1.139" transform="translate(53.591 0)" fill="#fff"/>
          <path id="Trazado_99231" data-name="Trazado 99231" d="M467.274,73.887a1.192,1.192,0,1,1-1.192-1.14A1.166,1.166,0,0,1,467.274,73.887Z" transform="translate(-400.582 -72.747)" fill="#fff"/>
          <ellipse id="Elipse_3963" data-name="Elipse 3963" cx="1.191" cy="1.139" rx="1.191" ry="1.139" transform="translate(75.028 0)" fill="#fff"/>
          <ellipse id="Elipse_3964" data-name="Elipse 3964" cx="1.191" cy="1.139" rx="1.191" ry="1.139" transform="translate(85.746 0)" fill="#fff"/>
          <path id="Trazado_99232" data-name="Trazado 99232" d="M492.613,73.887a1.192,1.192,0,1,1-1.192-1.14A1.166,1.166,0,0,1,492.613,73.887Z" transform="translate(-393.766 -72.747)" fill="#fff"/>
          <path id="Trazado_99233" data-name="Trazado 99233" d="M501.059,73.887a1.192,1.192,0,1,1-1.192-1.14A1.166,1.166,0,0,1,501.059,73.887Z" transform="translate(-391.495 -72.747)" fill="#fff"/>
        </g>
        <g id="Grupo_53310" data-name="Grupo 53310" transform="translate(-11120.726 -11204.321)">
          <path id="Trazado_99234" data-name="Trazado 99234" d="M416.6,81.395a1.192,1.192,0,1,1-1.192-1.14A1.166,1.166,0,0,1,416.6,81.395Z" transform="translate(-414.214 -80.255)" fill="#fff"/>
          <path id="Trazado_99235" data-name="Trazado 99235" d="M425.042,81.395a1.192,1.192,0,1,1-1.19-1.14A1.165,1.165,0,0,1,425.042,81.395Z" transform="translate(-411.942 -80.255)" fill="#fff"/>
          <path id="Trazado_99236" data-name="Trazado 99236" d="M433.488,81.395a1.192,1.192,0,1,1-1.19-1.14A1.165,1.165,0,0,1,433.488,81.395Z" transform="translate(-409.67 -80.255)" fill="#fff"/>
          <path id="Trazado_99237" data-name="Trazado 99237" d="M441.935,81.395a1.192,1.192,0,1,1-1.192-1.14A1.166,1.166,0,0,1,441.935,81.395Z" transform="translate(-407.398 -80.255)" fill="#fff"/>
          <path id="Trazado_99238" data-name="Trazado 99238" d="M450.381,81.395a1.192,1.192,0,1,1-1.19-1.14A1.165,1.165,0,0,1,450.381,81.395Z" transform="translate(-405.126 -80.255)" fill="#fff"/>
          <path id="Trazado_99239" data-name="Trazado 99239" d="M458.827,81.395a1.192,1.192,0,1,1-1.19-1.14A1.165,1.165,0,0,1,458.827,81.395Z" transform="translate(-402.854 -80.255)" fill="#fff"/>
          <path id="Trazado_99240" data-name="Trazado 99240" d="M467.274,81.395a1.192,1.192,0,1,1-1.192-1.14A1.166,1.166,0,0,1,467.274,81.395Z" transform="translate(-400.582 -80.255)" fill="#fff"/>
          <path id="Trazado_99241" data-name="Trazado 99241" d="M475.72,81.395a1.192,1.192,0,1,1-1.19-1.14A1.165,1.165,0,0,1,475.72,81.395Z" transform="translate(-398.311 -80.255)" fill="#fff"/>
          <path id="Trazado_99242" data-name="Trazado 99242" d="M484.166,81.395a1.192,1.192,0,1,1-1.19-1.14A1.165,1.165,0,0,1,484.166,81.395Z" transform="translate(-396.039 -80.255)" fill="#fff"/>
          <path id="Trazado_99243" data-name="Trazado 99243" d="M492.613,81.395a1.192,1.192,0,1,1-1.192-1.14A1.166,1.166,0,0,1,492.613,81.395Z" transform="translate(-393.767 -80.255)" fill="#fff"/>
          <path id="Trazado_99244" data-name="Trazado 99244" d="M501.059,81.395a1.192,1.192,0,1,1-1.192-1.14A1.166,1.166,0,0,1,501.059,81.395Z" transform="translate(-391.495 -80.255)" fill="#fff"/>
        </g>
        <g id="Grupo_53311" data-name="Grupo 53311" transform="translate(-11120.726 -11195.21)">
          <ellipse id="Elipse_3965" data-name="Elipse 3965" cx="1.191" cy="1.139" rx="1.191" ry="1.139" transform="translate(0 0)" fill="#fff"/>
          <path id="Trazado_99245" data-name="Trazado 99245" d="M425.042,88.9a1.192,1.192,0,1,1-1.19-1.14A1.165,1.165,0,0,1,425.042,88.9Z" transform="translate(-411.942 -87.763)" fill="#fff"/>
          <ellipse id="Elipse_3966" data-name="Elipse 3966" cx="1.191" cy="1.139" rx="1.191" ry="1.139" transform="translate(21.436 0)" fill="#fff"/>
          <path id="Trazado_99246" data-name="Trazado 99246" d="M441.935,88.9a1.192,1.192,0,1,1-1.192-1.14A1.166,1.166,0,0,1,441.935,88.9Z" transform="translate(-407.398 -87.763)" fill="#fff"/>
          <path id="Trazado_99247" data-name="Trazado 99247" d="M450.381,88.9a1.192,1.192,0,1,1-1.19-1.14A1.165,1.165,0,0,1,450.381,88.9Z" transform="translate(-405.126 -87.763)" fill="#fff"/>
          <ellipse id="Elipse_3967" data-name="Elipse 3967" cx="1.191" cy="1.139" rx="1.191" ry="1.139" transform="translate(53.591 0)" fill="#fff"/>
          <path id="Trazado_99248" data-name="Trazado 99248" d="M467.274,88.9a1.192,1.192,0,1,1-1.192-1.14A1.166,1.166,0,0,1,467.274,88.9Z" transform="translate(-400.582 -87.763)" fill="#fff"/>
          <ellipse id="Elipse_3968" data-name="Elipse 3968" cx="1.191" cy="1.139" rx="1.191" ry="1.139" transform="translate(75.028 0)" fill="#fff"/>
          <ellipse id="Elipse_3969" data-name="Elipse 3969" cx="1.191" cy="1.139" rx="1.191" ry="1.139" transform="translate(85.746 0)" fill="#fff"/>
          <path id="Trazado_99249" data-name="Trazado 99249" d="M492.613,88.9a1.192,1.192,0,1,1-1.192-1.14A1.166,1.166,0,0,1,492.613,88.9Z" transform="translate(-393.766 -87.763)" fill="#fff"/>
          <path id="Trazado_99250" data-name="Trazado 99250" d="M501.059,88.9a1.192,1.192,0,1,1-1.192-1.14A1.166,1.166,0,0,1,501.059,88.9Z" transform="translate(-391.495 -87.763)" fill="#fff"/>
        </g>
        <g id="Grupo_53312" data-name="Grupo 53312" transform="translate(-11120.726 -11186.099)">
          <ellipse id="Elipse_3970" data-name="Elipse 3970" cx="1.191" cy="1.139" rx="1.191" ry="1.139" fill="#fff"/>
          <path id="Trazado_99251" data-name="Trazado 99251" d="M425.042,96.409a1.192,1.192,0,1,1-1.19-1.138A1.165,1.165,0,0,1,425.042,96.409Z" transform="translate(-411.942 -95.271)" fill="#fff"/>
          <ellipse id="Elipse_3971" data-name="Elipse 3971" cx="1.191" cy="1.139" rx="1.191" ry="1.139" transform="translate(21.436)" fill="#fff"/>
          <path id="Trazado_99252" data-name="Trazado 99252" d="M441.935,96.409a1.192,1.192,0,1,1-1.192-1.138A1.166,1.166,0,0,1,441.935,96.409Z" transform="translate(-407.398 -95.271)" fill="#fff"/>
          <path id="Trazado_99253" data-name="Trazado 99253" d="M450.381,96.409a1.192,1.192,0,1,1-1.19-1.138A1.166,1.166,0,0,1,450.381,96.409Z" transform="translate(-405.126 -95.271)" fill="#fff"/>
          <ellipse id="Elipse_3972" data-name="Elipse 3972" cx="1.191" cy="1.139" rx="1.191" ry="1.139" transform="translate(53.591)" fill="#fff"/>
          <path id="Trazado_99254" data-name="Trazado 99254" d="M467.274,96.409a1.192,1.192,0,1,1-1.192-1.138A1.167,1.167,0,0,1,467.274,96.409Z" transform="translate(-400.582 -95.271)" fill="#fff"/>
          <ellipse id="Elipse_3973" data-name="Elipse 3973" cx="1.191" cy="1.139" rx="1.191" ry="1.139" transform="translate(75.028)" fill="#fff"/>
          <ellipse id="Elipse_3974" data-name="Elipse 3974" cx="1.191" cy="1.139" rx="1.191" ry="1.139" transform="translate(85.746)" fill="#fff"/>
          <path id="Trazado_99255" data-name="Trazado 99255" d="M492.613,96.409a1.192,1.192,0,1,1-1.192-1.138A1.167,1.167,0,0,1,492.613,96.409Z" transform="translate(-393.766 -95.271)" fill="#fff"/>
          <path id="Trazado_99256" data-name="Trazado 99256" d="M501.059,96.409a1.192,1.192,0,1,1-1.192-1.138A1.166,1.166,0,0,1,501.059,96.409Z" transform="translate(-391.495 -95.271)" fill="#fff"/>
        </g>
        <g id="Grupo_53313" data-name="Grupo 53313" transform="translate(-11120.726 -11176.987)">
          <path id="Trazado_99257" data-name="Trazado 99257" d="M416.6,103.917a1.192,1.192,0,1,1-1.192-1.138A1.166,1.166,0,0,1,416.6,103.917Z" transform="translate(-414.214 -102.779)" fill="#fff"/>
          <path id="Trazado_99258" data-name="Trazado 99258" d="M425.042,103.917a1.192,1.192,0,1,1-1.19-1.138A1.165,1.165,0,0,1,425.042,103.917Z" transform="translate(-411.942 -102.779)" fill="#fff"/>
          <path id="Trazado_99259" data-name="Trazado 99259" d="M433.488,103.917a1.192,1.192,0,1,1-1.19-1.138A1.165,1.165,0,0,1,433.488,103.917Z" transform="translate(-409.67 -102.779)" fill="#fff"/>
          <path id="Trazado_99260" data-name="Trazado 99260" d="M441.935,103.917a1.192,1.192,0,1,1-1.192-1.138A1.166,1.166,0,0,1,441.935,103.917Z" transform="translate(-407.398 -102.779)" fill="#fff"/>
          <path id="Trazado_99261" data-name="Trazado 99261" d="M450.381,103.917a1.192,1.192,0,1,1-1.19-1.138A1.166,1.166,0,0,1,450.381,103.917Z" transform="translate(-405.126 -102.779)" fill="#fff"/>
          <path id="Trazado_99262" data-name="Trazado 99262" d="M458.827,103.917a1.192,1.192,0,1,1-1.19-1.138A1.165,1.165,0,0,1,458.827,103.917Z" transform="translate(-402.854 -102.779)" fill="#fff"/>
          <path id="Trazado_99263" data-name="Trazado 99263" d="M467.274,103.917a1.192,1.192,0,1,1-1.192-1.138A1.167,1.167,0,0,1,467.274,103.917Z" transform="translate(-400.582 -102.779)" fill="#fff"/>
          <path id="Trazado_99264" data-name="Trazado 99264" d="M475.72,103.917a1.192,1.192,0,1,1-1.19-1.138A1.165,1.165,0,0,1,475.72,103.917Z" transform="translate(-398.311 -102.779)" fill="#fff"/>
          <path id="Trazado_99265" data-name="Trazado 99265" d="M484.166,103.917a1.192,1.192,0,1,1-1.19-1.138A1.166,1.166,0,0,1,484.166,103.917Z" transform="translate(-396.039 -102.779)" fill="#fff"/>
          <path id="Trazado_99266" data-name="Trazado 99266" d="M492.613,103.917a1.192,1.192,0,1,1-1.192-1.138A1.167,1.167,0,0,1,492.613,103.917Z" transform="translate(-393.767 -102.779)" fill="#fff"/>
          <path id="Trazado_99267" data-name="Trazado 99267" d="M501.059,103.917a1.192,1.192,0,1,1-1.192-1.138A1.166,1.166,0,0,1,501.059,103.917Z" transform="translate(-391.495 -102.779)" fill="#fff"/>
        </g>
        <g id="Grupo_53314" data-name="Grupo 53314" transform="translate(-11120.726 -11167.876)">
          <ellipse id="Elipse_3975" data-name="Elipse 3975" cx="1.191" cy="1.139" rx="1.191" ry="1.139" fill="#fff"/>
          <path id="Trazado_99268" data-name="Trazado 99268" d="M425.042,111.425a1.192,1.192,0,1,1-1.19-1.138A1.166,1.166,0,0,1,425.042,111.425Z" transform="translate(-411.942 -110.287)" fill="#fff"/>
          <ellipse id="Elipse_3976" data-name="Elipse 3976" cx="1.191" cy="1.139" rx="1.191" ry="1.139" transform="translate(21.436)" fill="#fff"/>
          <path id="Trazado_99269" data-name="Trazado 99269" d="M441.935,111.425a1.192,1.192,0,1,1-1.192-1.138A1.167,1.167,0,0,1,441.935,111.425Z" transform="translate(-407.398 -110.287)" fill="#fff"/>
          <path id="Trazado_99270" data-name="Trazado 99270" d="M450.381,111.425a1.192,1.192,0,1,1-1.19-1.138A1.166,1.166,0,0,1,450.381,111.425Z" transform="translate(-405.126 -110.287)" fill="#fff"/>
          <ellipse id="Elipse_3977" data-name="Elipse 3977" cx="1.191" cy="1.139" rx="1.191" ry="1.139" transform="translate(53.591)" fill="#fff"/>
          <path id="Trazado_99271" data-name="Trazado 99271" d="M467.274,111.425a1.192,1.192,0,1,1-1.192-1.138A1.167,1.167,0,0,1,467.274,111.425Z" transform="translate(-400.582 -110.287)" fill="#fff"/>
          <ellipse id="Elipse_3978" data-name="Elipse 3978" cx="1.191" cy="1.139" rx="1.191" ry="1.139" transform="translate(75.028)" fill="#fff"/>
          <ellipse id="Elipse_3979" data-name="Elipse 3979" cx="1.191" cy="1.139" rx="1.191" ry="1.139" transform="translate(85.746)" fill="#fff"/>
          <path id="Trazado_99272" data-name="Trazado 99272" d="M492.613,111.425a1.192,1.192,0,1,1-1.192-1.138A1.167,1.167,0,0,1,492.613,111.425Z" transform="translate(-393.766 -110.287)" fill="#fff"/>
          <path id="Trazado_99273" data-name="Trazado 99273" d="M501.059,111.425a1.192,1.192,0,1,1-1.192-1.138A1.167,1.167,0,0,1,501.059,111.425Z" transform="translate(-391.495 -110.287)" fill="#fff"/>
        </g>
        <g id="Grupo_53315" data-name="Grupo 53315" transform="translate(-11120.726 -11158.766)">
          <path id="Trazado_99274" data-name="Trazado 99274" d="M416.6,118.934a1.192,1.192,0,1,1-1.192-1.14A1.167,1.167,0,0,1,416.6,118.934Z" transform="translate(-414.214 -117.794)" fill="#fff"/>
          <path id="Trazado_99275" data-name="Trazado 99275" d="M425.042,118.934a1.192,1.192,0,1,1-1.19-1.14A1.166,1.166,0,0,1,425.042,118.934Z" transform="translate(-411.942 -117.794)" fill="#fff"/>
          <path id="Trazado_99276" data-name="Trazado 99276" d="M433.488,118.934a1.192,1.192,0,1,1-1.19-1.14A1.166,1.166,0,0,1,433.488,118.934Z" transform="translate(-409.67 -117.794)" fill="#fff"/>
          <path id="Trazado_99277" data-name="Trazado 99277" d="M441.935,118.934a1.192,1.192,0,1,1-1.192-1.14A1.167,1.167,0,0,1,441.935,118.934Z" transform="translate(-407.398 -117.794)" fill="#fff"/>
          <path id="Trazado_99278" data-name="Trazado 99278" d="M450.381,118.934a1.192,1.192,0,1,1-1.19-1.14A1.166,1.166,0,0,1,450.381,118.934Z" transform="translate(-405.126 -117.794)" fill="#fff"/>
          <path id="Trazado_99279" data-name="Trazado 99279" d="M458.827,118.934a1.192,1.192,0,1,1-1.19-1.14A1.166,1.166,0,0,1,458.827,118.934Z" transform="translate(-402.854 -117.794)" fill="#fff"/>
          <path id="Trazado_99280" data-name="Trazado 99280" d="M467.274,118.934a1.192,1.192,0,1,1-1.192-1.14A1.167,1.167,0,0,1,467.274,118.934Z" transform="translate(-400.582 -117.794)" fill="#fff"/>
          <path id="Trazado_99281" data-name="Trazado 99281" d="M475.72,118.934a1.192,1.192,0,1,1-1.19-1.14A1.166,1.166,0,0,1,475.72,118.934Z" transform="translate(-398.311 -117.794)" fill="#fff"/>
          <path id="Trazado_99282" data-name="Trazado 99282" d="M484.166,118.934a1.192,1.192,0,1,1-1.19-1.14A1.166,1.166,0,0,1,484.166,118.934Z" transform="translate(-396.039 -117.794)" fill="#fff"/>
          <path id="Trazado_99283" data-name="Trazado 99283" d="M492.613,118.934a1.192,1.192,0,1,1-1.192-1.14A1.167,1.167,0,0,1,492.613,118.934Z" transform="translate(-393.767 -117.794)" fill="#fff"/>
          <path id="Trazado_99284" data-name="Trazado 99284" d="M501.059,118.934a1.192,1.192,0,1,1-1.192-1.14A1.167,1.167,0,0,1,501.059,118.934Z" transform="translate(-391.495 -117.794)" fill="#fff"/>
        </g>
        <g id="Grupo_53316" data-name="Grupo 53316" transform="translate(-11120.726 -11149.654)">
          <ellipse id="Elipse_3980" data-name="Elipse 3980" cx="1.191" cy="1.139" rx="1.191" ry="1.139" transform="translate(0 0)" fill="#fff"/>
          <path id="Trazado_99285" data-name="Trazado 99285" d="M425.042,126.442a1.192,1.192,0,1,1-1.19-1.14A1.165,1.165,0,0,1,425.042,126.442Z" transform="translate(-411.942 -125.302)" fill="#fff"/>
          <ellipse id="Elipse_3981" data-name="Elipse 3981" cx="1.191" cy="1.139" rx="1.191" ry="1.139" transform="translate(21.436 0)" fill="#fff"/>
          <path id="Trazado_99286" data-name="Trazado 99286" d="M441.935,126.442a1.192,1.192,0,1,1-1.192-1.14A1.166,1.166,0,0,1,441.935,126.442Z" transform="translate(-407.398 -125.302)" fill="#fff"/>
          <path id="Trazado_99287" data-name="Trazado 99287" d="M450.381,126.442a1.192,1.192,0,1,1-1.19-1.14A1.165,1.165,0,0,1,450.381,126.442Z" transform="translate(-405.126 -125.302)" fill="#fff"/>
          <ellipse id="Elipse_3982" data-name="Elipse 3982" cx="1.191" cy="1.139" rx="1.191" ry="1.139" transform="translate(53.591 0)" fill="#fff"/>
          <path id="Trazado_99288" data-name="Trazado 99288" d="M467.274,126.442a1.192,1.192,0,1,1-1.192-1.14A1.166,1.166,0,0,1,467.274,126.442Z" transform="translate(-400.582 -125.302)" fill="#fff"/>
          <ellipse id="Elipse_3983" data-name="Elipse 3983" cx="1.191" cy="1.139" rx="1.191" ry="1.139" transform="translate(75.028 0)" fill="#fff"/>
          <ellipse id="Elipse_3984" data-name="Elipse 3984" cx="1.191" cy="1.139" rx="1.191" ry="1.139" transform="translate(85.746 0)" fill="#fff"/>
          <path id="Trazado_99289" data-name="Trazado 99289" d="M492.613,126.442a1.192,1.192,0,1,1-1.192-1.14A1.166,1.166,0,0,1,492.613,126.442Z" transform="translate(-393.766 -125.302)" fill="#fff"/>
          <path id="Trazado_99290" data-name="Trazado 99290" d="M501.059,126.442a1.192,1.192,0,1,1-1.192-1.14A1.166,1.166,0,0,1,501.059,126.442Z" transform="translate(-391.495 -125.302)" fill="#fff"/>
        </g>
        <g id="Grupo_53317" data-name="Grupo 53317" transform="translate(-11120.726 -11140.542)">
          <ellipse id="Elipse_3985" data-name="Elipse 3985" cx="1.191" cy="1.139" rx="1.191" ry="1.139" transform="translate(0 0)" fill="#fff"/>
          <path id="Trazado_99291" data-name="Trazado 99291" d="M425.042,133.95a1.192,1.192,0,1,1-1.19-1.14A1.165,1.165,0,0,1,425.042,133.95Z" transform="translate(-411.942 -132.81)" fill="#fff"/>
          <ellipse id="Elipse_3986" data-name="Elipse 3986" cx="1.191" cy="1.139" rx="1.191" ry="1.139" transform="translate(21.436 0)" fill="#fff"/>
          <path id="Trazado_99292" data-name="Trazado 99292" d="M441.935,133.95a1.192,1.192,0,1,1-1.192-1.14A1.166,1.166,0,0,1,441.935,133.95Z" transform="translate(-407.398 -132.81)" fill="#fff"/>
          <path id="Trazado_99293" data-name="Trazado 99293" d="M450.381,133.95a1.192,1.192,0,1,1-1.19-1.14A1.165,1.165,0,0,1,450.381,133.95Z" transform="translate(-405.126 -132.81)" fill="#fff"/>
          <ellipse id="Elipse_3987" data-name="Elipse 3987" cx="1.191" cy="1.139" rx="1.191" ry="1.139" transform="translate(53.591 0)" fill="#fff"/>
          <path id="Trazado_99294" data-name="Trazado 99294" d="M467.274,133.95a1.192,1.192,0,1,1-1.192-1.14A1.166,1.166,0,0,1,467.274,133.95Z" transform="translate(-400.582 -132.81)" fill="#fff"/>
          <ellipse id="Elipse_3988" data-name="Elipse 3988" cx="1.191" cy="1.139" rx="1.191" ry="1.139" transform="translate(75.028 0)" fill="#fff"/>
          <ellipse id="Elipse_3989" data-name="Elipse 3989" cx="1.191" cy="1.139" rx="1.191" ry="1.139" transform="translate(85.746 0)" fill="#fff"/>
          <path id="Trazado_99295" data-name="Trazado 99295" d="M492.613,133.95a1.192,1.192,0,1,1-1.192-1.14A1.166,1.166,0,0,1,492.613,133.95Z" transform="translate(-393.766 -132.81)" fill="#fff"/>
          <path id="Trazado_99296" data-name="Trazado 99296" d="M501.059,133.95a1.192,1.192,0,1,1-1.192-1.14A1.166,1.166,0,0,1,501.059,133.95Z" transform="translate(-391.495 -132.81)" fill="#fff"/>
        </g>
      </g>
    </g>
    <g id="Grupo_80130" data-name="Grupo 80130" transform="translate(1393.066 164.066)">
      <g id="Grupo_80120" data-name="Grupo 80120" clip-path="url(#clip-path-3)">
        <path id="Trazado_145973" data-name="Trazado 145973" d="M10.667,4.512,14.4,6.443a.981.981,0,0,1,.04,1.721l-3.642,2.1a.98.98,0,0,0-.38.4L8.49,14.4a.982.982,0,0,1-1.721.04L4.665,10.8a.98.98,0,0,0-.4-.38L.53,8.489A.981.981,0,0,1,.49,6.768l3.641-2.1a.982.982,0,0,0,.381-.4L6.443.53A.981.981,0,0,1,8.164.49l2.1,3.641a.976.976,0,0,0,.4.381" fill="#fff"/>
      </g>
    </g>
    <g id="Grupo_80131" data-name="Grupo 80131" transform="translate(1520.066 101.066)">
      <g id="Grupo_80120-2" data-name="Grupo 80120" clip-path="url(#clip-path-3)">
        <path id="Trazado_145973-2" data-name="Trazado 145973" d="M10.667,4.512,14.4,6.443a.981.981,0,0,1,.04,1.721l-3.642,2.1a.98.98,0,0,0-.38.4L8.49,14.4a.982.982,0,0,1-1.721.04L4.665,10.8a.98.98,0,0,0-.4-.38L.53,8.489A.981.981,0,0,1,.49,6.768l3.641-2.1a.982.982,0,0,0,.381-.4L6.443.53A.981.981,0,0,1,8.164.49l2.1,3.641a.976.976,0,0,0,.4.381" fill="#fff"/>
      </g>
    </g>
    <g id="Grupo_80132" data-name="Grupo 80132" transform="translate(1073.066 196.066)">
      <g id="Grupo_80120-3" data-name="Grupo 80120" clip-path="url(#clip-path-3)">
        <path id="Trazado_145973-3" data-name="Trazado 145973" d="M10.667,4.512,14.4,6.443a.981.981,0,0,1,.04,1.721l-3.642,2.1a.98.98,0,0,0-.38.4L8.49,14.4a.982.982,0,0,1-1.721.04L4.665,10.8a.98.98,0,0,0-.4-.38L.53,8.489A.981.981,0,0,1,.49,6.768l3.641-2.1a.982.982,0,0,0,.381-.4L6.443.53A.981.981,0,0,1,8.164.49l2.1,3.641a.976.976,0,0,0,.4.381" fill="#fff"/>
      </g>
    </g>
    <g id="Trazado_145978" data-name="Trazado 145978" transform="translate(1333.938 120.266)" fill="none">
      <path d="M16.477,0A16.477,16.477,0,1,1,0,16.477,16.477,16.477,0,0,1,16.477,0Z" stroke="none"/>
      <path d="M 16.47705078125 3 C 12.87720108032227 3 9.492820739746094 4.401861190795898 6.94734001159668 6.94734001159668 C 4.401861190795898 9.492820739746094 3 12.87720108032227 3 16.47705078125 C 3 20.07690048217773 4.401861190795898 23.46128082275391 6.94734001159668 26.00675964355469 C 9.492820739746094 28.5522403717041 12.87720108032227 29.9541015625 16.47705078125 29.9541015625 C 20.07690048217773 29.9541015625 23.46128082275391 28.5522403717041 26.00675964355469 26.00675964355469 C 28.5522403717041 23.46128082275391 29.9541015625 20.07690048217773 29.9541015625 16.47705078125 C 29.9541015625 12.87720108032227 28.5522403717041 9.492820739746094 26.00675964355469 6.94734001159668 C 23.46128082275391 4.401861190795898 20.07690048217773 3 16.47705078125 3 M 16.47705078125 0 C 25.57707023620605 0 32.9541015625 7.377031326293945 32.9541015625 16.47705078125 C 32.9541015625 25.57707023620605 25.57707023620605 32.9541015625 16.47705078125 32.9541015625 C 7.377031326293945 32.9541015625 0 25.57707023620605 0 16.47705078125 C 0 7.377031326293945 7.377031326293945 0 16.47705078125 0 Z" stroke="none" fill="#fff"/>
    </g>
    <line id="Línea_138" data-name="Línea 138" x1="216" transform="translate(1080.533 136.742)" fill="none" stroke="#fff" stroke-width="1" stroke-dasharray="8"/>
  </g>
</svg>
