<svg xmlns="http://www.w3.org/2000/svg" xmlns:xlink="http://www.w3.org/1999/xlink" width="200.281" height="103" viewBox="0 0 200.281 103">
  <defs>
    <clipPath id="clip-path">
      <path id="path8916" d="M0-682.665H83.335v83.335H0Z" transform="translate(0 682.665)"/>
    </clipPath>
  </defs>
  <g id="Grupo_1062941" data-name="Grupo 1062941" transform="translate(-962 -3852)">
    <g id="Grupo_1062928" data-name="Grupo 1062928" transform="translate(638)">
      <rect id="Rectángulo_356679" data-name="Rectángulo 356679" width="179" height="103" rx="7" transform="translate(324 3852)" fill="#e0e4f5"/>
      <g id="Grupo_1062925" data-name="Grupo 1062925" transform="translate(-334 -117.715)">
        <g id="Grupo_1062924" data-name="Grupo 1062924" transform="translate(797.968 3979.582)">
          <g id="Grupo_985886" data-name="Grupo 985886" transform="translate(33.306 33.306)">
            <path id="Trazado_113856" data-name="Trazado 113856" d="M2.134-2a1.062,1.062,0,0,1,.8.295,1.023,1.023,0,0,1,.283.739.988.988,0,0,1-.283.723,1.078,1.078,0,0,1-.8.287A1.082,1.082,0,0,1,1.345-.24a.97.97,0,0,1-.291-.727,1.023,1.023,0,0,1,.283-.739A1.052,1.052,0,0,1,2.134-2Zm8.281,0a1.062,1.062,0,0,1,.8.295,1.023,1.023,0,0,1,.283.739.988.988,0,0,1-.283.723,1.078,1.078,0,0,1-.8.287A1.082,1.082,0,0,1,9.626-.24a.97.97,0,0,1-.291-.727,1.023,1.023,0,0,1,.283-.739A1.052,1.052,0,0,1,10.414-2Zm8.281,0a1.062,1.062,0,0,1,.8.295,1.023,1.023,0,0,1,.283.739.987.987,0,0,1-.283.723,1.078,1.078,0,0,1-.8.287,1.082,1.082,0,0,1-.788-.283.97.97,0,0,1-.291-.727,1.023,1.023,0,0,1,.283-.739A1.052,1.052,0,0,1,18.695-2Zm8.281,0a1.062,1.062,0,0,1,.8.295,1.023,1.023,0,0,1,.283.739.987.987,0,0,1-.283.723,1.078,1.078,0,0,1-.8.287,1.082,1.082,0,0,1-.788-.283A.97.97,0,0,1,25.9-.967a1.023,1.023,0,0,1,.283-.739A1.052,1.052,0,0,1,26.975-2Z" transform="translate(-1.055 2)" fill="#452d9e"/>
            <path id="Trazado_113857" data-name="Trazado 113857" d="M2.134-2a1.062,1.062,0,0,1,.8.295,1.023,1.023,0,0,1,.283.739.988.988,0,0,1-.283.723,1.078,1.078,0,0,1-.8.287A1.082,1.082,0,0,1,1.345-.24a.97.97,0,0,1-.291-.727,1.023,1.023,0,0,1,.283-.739A1.052,1.052,0,0,1,2.134-2Zm8.281,0a1.062,1.062,0,0,1,.8.295,1.023,1.023,0,0,1,.283.739.988.988,0,0,1-.283.723,1.078,1.078,0,0,1-.8.287A1.082,1.082,0,0,1,9.626-.24a.97.97,0,0,1-.291-.727,1.023,1.023,0,0,1,.283-.739A1.052,1.052,0,0,1,10.414-2Zm8.281,0a1.062,1.062,0,0,1,.8.295,1.023,1.023,0,0,1,.283.739.987.987,0,0,1-.283.723,1.078,1.078,0,0,1-.8.287,1.082,1.082,0,0,1-.788-.283.97.97,0,0,1-.291-.727,1.023,1.023,0,0,1,.283-.739A1.052,1.052,0,0,1,18.695-2Zm8.281,0a1.062,1.062,0,0,1,.8.295,1.023,1.023,0,0,1,.283.739.987.987,0,0,1-.283.723,1.078,1.078,0,0,1-.8.287,1.082,1.082,0,0,1-.788-.283A.97.97,0,0,1,25.9-.967a1.023,1.023,0,0,1,.283-.739A1.052,1.052,0,0,1,26.975-2Z" transform="translate(-1.055 9.837)" fill="#452d9e"/>
            <path id="Trazado_113858" data-name="Trazado 113858" d="M2.134-2a1.062,1.062,0,0,1,.8.295,1.023,1.023,0,0,1,.283.739.988.988,0,0,1-.283.723,1.078,1.078,0,0,1-.8.287A1.082,1.082,0,0,1,1.345-.24a.97.97,0,0,1-.291-.727,1.023,1.023,0,0,1,.283-.739A1.052,1.052,0,0,1,2.134-2Zm8.281,0a1.062,1.062,0,0,1,.8.295,1.023,1.023,0,0,1,.283.739.988.988,0,0,1-.283.723,1.078,1.078,0,0,1-.8.287A1.082,1.082,0,0,1,9.626-.24a.97.97,0,0,1-.291-.727,1.023,1.023,0,0,1,.283-.739A1.052,1.052,0,0,1,10.414-2Zm8.281,0a1.062,1.062,0,0,1,.8.295,1.023,1.023,0,0,1,.283.739.987.987,0,0,1-.283.723,1.078,1.078,0,0,1-.8.287,1.082,1.082,0,0,1-.788-.283.97.97,0,0,1-.291-.727,1.023,1.023,0,0,1,.283-.739A1.052,1.052,0,0,1,18.695-2Zm8.281,0a1.062,1.062,0,0,1,.8.295,1.023,1.023,0,0,1,.283.739.987.987,0,0,1-.283.723,1.078,1.078,0,0,1-.8.287,1.082,1.082,0,0,1-.788-.283A.97.97,0,0,1,25.9-.967a1.023,1.023,0,0,1,.283-.739A1.052,1.052,0,0,1,26.975-2Z" transform="translate(-1.055 18.653)" fill="#452d9e"/>
            <path id="Trazado_113855" data-name="Trazado 113855" d="M2.134-2a1.062,1.062,0,0,1,.8.295,1.023,1.023,0,0,1,.283.739.988.988,0,0,1-.283.723,1.078,1.078,0,0,1-.8.287A1.082,1.082,0,0,1,1.345-.24a.97.97,0,0,1-.291-.727,1.023,1.023,0,0,1,.283-.739A1.052,1.052,0,0,1,2.134-2Zm8.281,0a1.062,1.062,0,0,1,.8.295,1.023,1.023,0,0,1,.283.739.988.988,0,0,1-.283.723,1.078,1.078,0,0,1-.8.287A1.082,1.082,0,0,1,9.626-.24a.97.97,0,0,1-.291-.727,1.023,1.023,0,0,1,.283-.739A1.052,1.052,0,0,1,10.414-2Zm8.281,0a1.062,1.062,0,0,1,.8.295,1.023,1.023,0,0,1,.283.739.987.987,0,0,1-.283.723,1.078,1.078,0,0,1-.8.287,1.082,1.082,0,0,1-.788-.283.97.97,0,0,1-.291-.727,1.023,1.023,0,0,1,.283-.739A1.052,1.052,0,0,1,18.695-2Zm8.281,0a1.062,1.062,0,0,1,.8.295,1.023,1.023,0,0,1,.283.739.987.987,0,0,1-.283.723,1.078,1.078,0,0,1-.8.287,1.082,1.082,0,0,1-.788-.283A.97.97,0,0,1,25.9-.967a1.023,1.023,0,0,1,.283-.739A1.052,1.052,0,0,1,26.975-2Z" transform="translate(-1.055 26.489)" fill="#452d9e"/>
          </g>
          <g id="Grupo_985887" data-name="Grupo 985887" transform="translate(0 33.306)">
            <path id="Trazado_113856-2" data-name="Trazado 113856" d="M2.134-2a1.062,1.062,0,0,1,.8.295,1.023,1.023,0,0,1,.283.739.988.988,0,0,1-.283.723,1.078,1.078,0,0,1-.8.287A1.082,1.082,0,0,1,1.345-.24a.97.97,0,0,1-.291-.727,1.023,1.023,0,0,1,.283-.739A1.052,1.052,0,0,1,2.134-2Zm8.281,0a1.062,1.062,0,0,1,.8.295,1.023,1.023,0,0,1,.283.739.988.988,0,0,1-.283.723,1.078,1.078,0,0,1-.8.287A1.082,1.082,0,0,1,9.626-.24a.97.97,0,0,1-.291-.727,1.023,1.023,0,0,1,.283-.739A1.052,1.052,0,0,1,10.414-2Zm8.281,0a1.062,1.062,0,0,1,.8.295,1.023,1.023,0,0,1,.283.739.987.987,0,0,1-.283.723,1.078,1.078,0,0,1-.8.287,1.082,1.082,0,0,1-.788-.283.97.97,0,0,1-.291-.727,1.023,1.023,0,0,1,.283-.739A1.052,1.052,0,0,1,18.695-2Zm8.281,0a1.062,1.062,0,0,1,.8.295,1.023,1.023,0,0,1,.283.739.987.987,0,0,1-.283.723,1.078,1.078,0,0,1-.8.287,1.082,1.082,0,0,1-.788-.283A.97.97,0,0,1,25.9-.967a1.023,1.023,0,0,1,.283-.739A1.052,1.052,0,0,1,26.975-2Z" transform="translate(-1.055 2)" fill="#452d9e"/>
            <path id="Trazado_113857-2" data-name="Trazado 113857" d="M2.134-2a1.062,1.062,0,0,1,.8.295,1.023,1.023,0,0,1,.283.739.988.988,0,0,1-.283.723,1.078,1.078,0,0,1-.8.287A1.082,1.082,0,0,1,1.345-.24a.97.97,0,0,1-.291-.727,1.023,1.023,0,0,1,.283-.739A1.052,1.052,0,0,1,2.134-2Zm8.281,0a1.062,1.062,0,0,1,.8.295,1.023,1.023,0,0,1,.283.739.988.988,0,0,1-.283.723,1.078,1.078,0,0,1-.8.287A1.082,1.082,0,0,1,9.626-.24a.97.97,0,0,1-.291-.727,1.023,1.023,0,0,1,.283-.739A1.052,1.052,0,0,1,10.414-2Zm8.281,0a1.062,1.062,0,0,1,.8.295,1.023,1.023,0,0,1,.283.739.987.987,0,0,1-.283.723,1.078,1.078,0,0,1-.8.287,1.082,1.082,0,0,1-.788-.283.97.97,0,0,1-.291-.727,1.023,1.023,0,0,1,.283-.739A1.052,1.052,0,0,1,18.695-2Zm8.281,0a1.062,1.062,0,0,1,.8.295,1.023,1.023,0,0,1,.283.739.987.987,0,0,1-.283.723,1.078,1.078,0,0,1-.8.287,1.082,1.082,0,0,1-.788-.283A.97.97,0,0,1,25.9-.967a1.023,1.023,0,0,1,.283-.739A1.052,1.052,0,0,1,26.975-2Z" transform="translate(-1.055 9.837)" fill="#452d9e"/>
            <path id="Trazado_113858-2" data-name="Trazado 113858" d="M2.134-2a1.062,1.062,0,0,1,.8.295,1.023,1.023,0,0,1,.283.739.988.988,0,0,1-.283.723,1.078,1.078,0,0,1-.8.287A1.082,1.082,0,0,1,1.345-.24a.97.97,0,0,1-.291-.727,1.023,1.023,0,0,1,.283-.739A1.052,1.052,0,0,1,2.134-2Zm8.281,0a1.062,1.062,0,0,1,.8.295,1.023,1.023,0,0,1,.283.739.988.988,0,0,1-.283.723,1.078,1.078,0,0,1-.8.287A1.082,1.082,0,0,1,9.626-.24a.97.97,0,0,1-.291-.727,1.023,1.023,0,0,1,.283-.739A1.052,1.052,0,0,1,10.414-2Zm8.281,0a1.062,1.062,0,0,1,.8.295,1.023,1.023,0,0,1,.283.739.987.987,0,0,1-.283.723,1.078,1.078,0,0,1-.8.287,1.082,1.082,0,0,1-.788-.283.97.97,0,0,1-.291-.727,1.023,1.023,0,0,1,.283-.739A1.052,1.052,0,0,1,18.695-2Zm8.281,0a1.062,1.062,0,0,1,.8.295,1.023,1.023,0,0,1,.283.739.987.987,0,0,1-.283.723,1.078,1.078,0,0,1-.8.287,1.082,1.082,0,0,1-.788-.283A.97.97,0,0,1,25.9-.967a1.023,1.023,0,0,1,.283-.739A1.052,1.052,0,0,1,26.975-2Z" transform="translate(-1.055 18.653)" fill="#452d9e"/>
            <path id="Trazado_113855-2" data-name="Trazado 113855" d="M2.134-2a1.062,1.062,0,0,1,.8.295,1.023,1.023,0,0,1,.283.739.988.988,0,0,1-.283.723,1.078,1.078,0,0,1-.8.287A1.082,1.082,0,0,1,1.345-.24a.97.97,0,0,1-.291-.727,1.023,1.023,0,0,1,.283-.739A1.052,1.052,0,0,1,2.134-2Zm8.281,0a1.062,1.062,0,0,1,.8.295,1.023,1.023,0,0,1,.283.739.988.988,0,0,1-.283.723,1.078,1.078,0,0,1-.8.287A1.082,1.082,0,0,1,9.626-.24a.97.97,0,0,1-.291-.727,1.023,1.023,0,0,1,.283-.739A1.052,1.052,0,0,1,10.414-2Zm8.281,0a1.062,1.062,0,0,1,.8.295,1.023,1.023,0,0,1,.283.739.987.987,0,0,1-.283.723,1.078,1.078,0,0,1-.8.287,1.082,1.082,0,0,1-.788-.283.97.97,0,0,1-.291-.727,1.023,1.023,0,0,1,.283-.739A1.052,1.052,0,0,1,18.695-2Zm8.281,0a1.062,1.062,0,0,1,.8.295,1.023,1.023,0,0,1,.283.739.987.987,0,0,1-.283.723,1.078,1.078,0,0,1-.8.287,1.082,1.082,0,0,1-.788-.283A.97.97,0,0,1,25.9-.967a1.023,1.023,0,0,1,.283-.739A1.052,1.052,0,0,1,26.975-2Z" transform="translate(-1.055 26.489)" fill="#452d9e"/>
          </g>
          <g id="Grupo_985888" data-name="Grupo 985888" transform="translate(0)">
            <path id="Trazado_113856-3" data-name="Trazado 113856" d="M2.134-2a1.062,1.062,0,0,1,.8.295,1.023,1.023,0,0,1,.283.739.988.988,0,0,1-.283.723,1.078,1.078,0,0,1-.8.287A1.082,1.082,0,0,1,1.345-.24a.97.97,0,0,1-.291-.727,1.023,1.023,0,0,1,.283-.739A1.052,1.052,0,0,1,2.134-2Zm8.281,0a1.062,1.062,0,0,1,.8.295,1.023,1.023,0,0,1,.283.739.988.988,0,0,1-.283.723,1.078,1.078,0,0,1-.8.287A1.082,1.082,0,0,1,9.626-.24a.97.97,0,0,1-.291-.727,1.023,1.023,0,0,1,.283-.739A1.052,1.052,0,0,1,10.414-2Zm8.281,0a1.062,1.062,0,0,1,.8.295,1.023,1.023,0,0,1,.283.739.987.987,0,0,1-.283.723,1.078,1.078,0,0,1-.8.287,1.082,1.082,0,0,1-.788-.283.97.97,0,0,1-.291-.727,1.023,1.023,0,0,1,.283-.739A1.052,1.052,0,0,1,18.695-2Zm8.281,0a1.062,1.062,0,0,1,.8.295,1.023,1.023,0,0,1,.283.739.987.987,0,0,1-.283.723,1.078,1.078,0,0,1-.8.287,1.082,1.082,0,0,1-.788-.283A.97.97,0,0,1,25.9-.967a1.023,1.023,0,0,1,.283-.739A1.052,1.052,0,0,1,26.975-2Z" transform="translate(-1.055 2)" fill="#452d9e"/>
            <path id="Trazado_113857-3" data-name="Trazado 113857" d="M2.134-2a1.062,1.062,0,0,1,.8.295,1.023,1.023,0,0,1,.283.739.988.988,0,0,1-.283.723,1.078,1.078,0,0,1-.8.287A1.082,1.082,0,0,1,1.345-.24a.97.97,0,0,1-.291-.727,1.023,1.023,0,0,1,.283-.739A1.052,1.052,0,0,1,2.134-2Zm8.281,0a1.062,1.062,0,0,1,.8.295,1.023,1.023,0,0,1,.283.739.988.988,0,0,1-.283.723,1.078,1.078,0,0,1-.8.287A1.082,1.082,0,0,1,9.626-.24a.97.97,0,0,1-.291-.727,1.023,1.023,0,0,1,.283-.739A1.052,1.052,0,0,1,10.414-2Zm8.281,0a1.062,1.062,0,0,1,.8.295,1.023,1.023,0,0,1,.283.739.987.987,0,0,1-.283.723,1.078,1.078,0,0,1-.8.287,1.082,1.082,0,0,1-.788-.283.97.97,0,0,1-.291-.727,1.023,1.023,0,0,1,.283-.739A1.052,1.052,0,0,1,18.695-2Zm8.281,0a1.062,1.062,0,0,1,.8.295,1.023,1.023,0,0,1,.283.739.987.987,0,0,1-.283.723,1.078,1.078,0,0,1-.8.287,1.082,1.082,0,0,1-.788-.283A.97.97,0,0,1,25.9-.967a1.023,1.023,0,0,1,.283-.739A1.052,1.052,0,0,1,26.975-2Z" transform="translate(-1.055 9.837)" fill="#452d9e"/>
            <path id="Trazado_113858-3" data-name="Trazado 113858" d="M2.134-2a1.062,1.062,0,0,1,.8.295,1.023,1.023,0,0,1,.283.739.988.988,0,0,1-.283.723,1.078,1.078,0,0,1-.8.287A1.082,1.082,0,0,1,1.345-.24a.97.97,0,0,1-.291-.727,1.023,1.023,0,0,1,.283-.739A1.052,1.052,0,0,1,2.134-2Zm8.281,0a1.062,1.062,0,0,1,.8.295,1.023,1.023,0,0,1,.283.739.988.988,0,0,1-.283.723,1.078,1.078,0,0,1-.8.287A1.082,1.082,0,0,1,9.626-.24a.97.97,0,0,1-.291-.727,1.023,1.023,0,0,1,.283-.739A1.052,1.052,0,0,1,10.414-2Zm8.281,0a1.062,1.062,0,0,1,.8.295,1.023,1.023,0,0,1,.283.739.987.987,0,0,1-.283.723,1.078,1.078,0,0,1-.8.287,1.082,1.082,0,0,1-.788-.283.97.97,0,0,1-.291-.727,1.023,1.023,0,0,1,.283-.739A1.052,1.052,0,0,1,18.695-2Zm8.281,0a1.062,1.062,0,0,1,.8.295,1.023,1.023,0,0,1,.283.739.987.987,0,0,1-.283.723,1.078,1.078,0,0,1-.8.287,1.082,1.082,0,0,1-.788-.283A.97.97,0,0,1,25.9-.967a1.023,1.023,0,0,1,.283-.739A1.052,1.052,0,0,1,26.975-2Z" transform="translate(-1.055 18.653)" fill="#452d9e"/>
            <path id="Trazado_113855-3" data-name="Trazado 113855" d="M2.134-2a1.062,1.062,0,0,1,.8.295,1.023,1.023,0,0,1,.283.739.988.988,0,0,1-.283.723,1.078,1.078,0,0,1-.8.287A1.082,1.082,0,0,1,1.345-.24a.97.97,0,0,1-.291-.727,1.023,1.023,0,0,1,.283-.739A1.052,1.052,0,0,1,2.134-2Zm8.281,0a1.062,1.062,0,0,1,.8.295,1.023,1.023,0,0,1,.283.739.988.988,0,0,1-.283.723,1.078,1.078,0,0,1-.8.287A1.082,1.082,0,0,1,9.626-.24a.97.97,0,0,1-.291-.727,1.023,1.023,0,0,1,.283-.739A1.052,1.052,0,0,1,10.414-2Zm8.281,0a1.062,1.062,0,0,1,.8.295,1.023,1.023,0,0,1,.283.739.987.987,0,0,1-.283.723,1.078,1.078,0,0,1-.8.287,1.082,1.082,0,0,1-.788-.283.97.97,0,0,1-.291-.727,1.023,1.023,0,0,1,.283-.739A1.052,1.052,0,0,1,18.695-2Zm8.281,0a1.062,1.062,0,0,1,.8.295,1.023,1.023,0,0,1,.283.739.987.987,0,0,1-.283.723,1.078,1.078,0,0,1-.8.287,1.082,1.082,0,0,1-.788-.283A.97.97,0,0,1,25.9-.967a1.023,1.023,0,0,1,.283-.739A1.052,1.052,0,0,1,26.975-2Z" transform="translate(-1.055 26.489)" fill="#452d9e"/>
          </g>
          <g id="Grupo_985889" data-name="Grupo 985889" transform="translate(33.306)">
            <path id="Trazado_113856-4" data-name="Trazado 113856" d="M2.134-2a1.062,1.062,0,0,1,.8.295,1.023,1.023,0,0,1,.283.739.988.988,0,0,1-.283.723,1.078,1.078,0,0,1-.8.287A1.082,1.082,0,0,1,1.345-.24a.97.97,0,0,1-.291-.727,1.023,1.023,0,0,1,.283-.739A1.052,1.052,0,0,1,2.134-2Zm8.281,0a1.062,1.062,0,0,1,.8.295,1.023,1.023,0,0,1,.283.739.988.988,0,0,1-.283.723,1.078,1.078,0,0,1-.8.287A1.082,1.082,0,0,1,9.626-.24a.97.97,0,0,1-.291-.727,1.023,1.023,0,0,1,.283-.739A1.052,1.052,0,0,1,10.414-2Zm8.281,0a1.062,1.062,0,0,1,.8.295,1.023,1.023,0,0,1,.283.739.987.987,0,0,1-.283.723,1.078,1.078,0,0,1-.8.287,1.082,1.082,0,0,1-.788-.283.97.97,0,0,1-.291-.727,1.023,1.023,0,0,1,.283-.739A1.052,1.052,0,0,1,18.695-2Zm8.281,0a1.062,1.062,0,0,1,.8.295,1.023,1.023,0,0,1,.283.739.987.987,0,0,1-.283.723,1.078,1.078,0,0,1-.8.287,1.082,1.082,0,0,1-.788-.283A.97.97,0,0,1,25.9-.967a1.023,1.023,0,0,1,.283-.739A1.052,1.052,0,0,1,26.975-2Z" transform="translate(-1.055 2)" fill="#452d9e"/>
            <path id="Trazado_113857-4" data-name="Trazado 113857" d="M2.134-2a1.062,1.062,0,0,1,.8.295,1.023,1.023,0,0,1,.283.739.988.988,0,0,1-.283.723,1.078,1.078,0,0,1-.8.287A1.082,1.082,0,0,1,1.345-.24a.97.97,0,0,1-.291-.727,1.023,1.023,0,0,1,.283-.739A1.052,1.052,0,0,1,2.134-2Zm8.281,0a1.062,1.062,0,0,1,.8.295,1.023,1.023,0,0,1,.283.739.988.988,0,0,1-.283.723,1.078,1.078,0,0,1-.8.287A1.082,1.082,0,0,1,9.626-.24a.97.97,0,0,1-.291-.727,1.023,1.023,0,0,1,.283-.739A1.052,1.052,0,0,1,10.414-2Zm8.281,0a1.062,1.062,0,0,1,.8.295,1.023,1.023,0,0,1,.283.739.987.987,0,0,1-.283.723,1.078,1.078,0,0,1-.8.287,1.082,1.082,0,0,1-.788-.283.97.97,0,0,1-.291-.727,1.023,1.023,0,0,1,.283-.739A1.052,1.052,0,0,1,18.695-2Zm8.281,0a1.062,1.062,0,0,1,.8.295,1.023,1.023,0,0,1,.283.739.987.987,0,0,1-.283.723,1.078,1.078,0,0,1-.8.287,1.082,1.082,0,0,1-.788-.283A.97.97,0,0,1,25.9-.967a1.023,1.023,0,0,1,.283-.739A1.052,1.052,0,0,1,26.975-2Z" transform="translate(-1.055 9.837)" fill="#452d9e"/>
            <path id="Trazado_113858-4" data-name="Trazado 113858" d="M2.134-2a1.062,1.062,0,0,1,.8.295,1.023,1.023,0,0,1,.283.739.988.988,0,0,1-.283.723,1.078,1.078,0,0,1-.8.287A1.082,1.082,0,0,1,1.345-.24a.97.97,0,0,1-.291-.727,1.023,1.023,0,0,1,.283-.739A1.052,1.052,0,0,1,2.134-2Zm8.281,0a1.062,1.062,0,0,1,.8.295,1.023,1.023,0,0,1,.283.739.988.988,0,0,1-.283.723,1.078,1.078,0,0,1-.8.287A1.082,1.082,0,0,1,9.626-.24a.97.97,0,0,1-.291-.727,1.023,1.023,0,0,1,.283-.739A1.052,1.052,0,0,1,10.414-2Zm8.281,0a1.062,1.062,0,0,1,.8.295,1.023,1.023,0,0,1,.283.739.987.987,0,0,1-.283.723,1.078,1.078,0,0,1-.8.287,1.082,1.082,0,0,1-.788-.283.97.97,0,0,1-.291-.727,1.023,1.023,0,0,1,.283-.739A1.052,1.052,0,0,1,18.695-2Zm8.281,0a1.062,1.062,0,0,1,.8.295,1.023,1.023,0,0,1,.283.739.987.987,0,0,1-.283.723,1.078,1.078,0,0,1-.8.287,1.082,1.082,0,0,1-.788-.283A.97.97,0,0,1,25.9-.967a1.023,1.023,0,0,1,.283-.739A1.052,1.052,0,0,1,26.975-2Z" transform="translate(-1.055 18.653)" fill="#452d9e"/>
            <path id="Trazado_113855-4" data-name="Trazado 113855" d="M2.134-2a1.062,1.062,0,0,1,.8.295,1.023,1.023,0,0,1,.283.739.988.988,0,0,1-.283.723,1.078,1.078,0,0,1-.8.287A1.082,1.082,0,0,1,1.345-.24a.97.97,0,0,1-.291-.727,1.023,1.023,0,0,1,.283-.739A1.052,1.052,0,0,1,2.134-2Zm8.281,0a1.062,1.062,0,0,1,.8.295,1.023,1.023,0,0,1,.283.739.988.988,0,0,1-.283.723,1.078,1.078,0,0,1-.8.287A1.082,1.082,0,0,1,9.626-.24a.97.97,0,0,1-.291-.727,1.023,1.023,0,0,1,.283-.739A1.052,1.052,0,0,1,10.414-2Zm8.281,0a1.062,1.062,0,0,1,.8.295,1.023,1.023,0,0,1,.283.739.987.987,0,0,1-.283.723,1.078,1.078,0,0,1-.8.287,1.082,1.082,0,0,1-.788-.283.97.97,0,0,1-.291-.727,1.023,1.023,0,0,1,.283-.739A1.052,1.052,0,0,1,18.695-2Zm8.281,0a1.062,1.062,0,0,1,.8.295,1.023,1.023,0,0,1,.283.739.987.987,0,0,1-.283.723,1.078,1.078,0,0,1-.8.287,1.082,1.082,0,0,1-.788-.283A.97.97,0,0,1,25.9-.967a1.023,1.023,0,0,1,.283-.739A1.052,1.052,0,0,1,26.975-2Z" transform="translate(-1.055 26.489)" fill="#452d9e"/>
          </g>
        </g>
      </g>
    </g>
    <g id="g8910" transform="translate(1010 4544.665)">
      <g id="g8912" transform="translate(0 -682.665)">
        <g id="g8914" clip-path="url(#clip-path)">
          <g id="g8920" transform="translate(31.206 4.623)">
            <path id="path8922" d="M-51.115-51.115a24.265,24.265,0,0,1,34.317,0,24.266,24.266,0,0,1,0,34.317,24.266,24.266,0,0,1-34.317,0,24.266,24.266,0,0,1,0-34.317" transform="translate(58.222 58.223)" fill="#ffe177"/>
          </g>
          <g id="g8924" transform="translate(31.206 4.623)">
            <path id="path8926" d="M-297.916-297.923a24.266,24.266,0,0,1-34.317,0,24.266,24.266,0,0,1,0-34.317,24.264,24.264,0,0,1,34.317,0,24.266,24.266,0,0,1,0,34.317" transform="translate(339.341 339.348)" fill="#ffe177"/>
          </g>
          <g id="g8928" transform="translate(53.631 4.624)">
            <path id="path8930" d="M-136.636-51.114a24.208,24.208,0,0,0-19-7.038,24.168,24.168,0,0,1,15.319,7.038,24.267,24.267,0,0,1,0,34.317A24.17,24.17,0,0,1-155.634-9.76a24.211,24.211,0,0,0,19-7.037,24.266,24.266,0,0,0,0-34.317" transform="translate(155.634 58.221)" fill="#f7c952"/>
          </g>
          <g id="g8932" transform="translate(38.313 11.731)">
            <path id="path8934" d="M-246.8-246.8a24.266,24.266,0,0,1-34.317,0l20.248-21.547,14.069-12.77a24.266,24.266,0,0,1,0,34.317" transform="translate(281.121 281.119)" fill="#e4f6f9"/>
          </g>
          <g id="g8936" transform="translate(53.631 11.731)">
            <path id="path8938" d="M-136.636,0l-2.021,1.835a24.27,24.27,0,0,1-1.659,32.482,24.17,24.17,0,0,1-15.319,7.037,24.211,24.211,0,0,0,19-7.037,24.266,24.266,0,0,0,0-34.317" transform="translate(155.634)" fill="#d4f3f6"/>
          </g>
          <g id="g8940" transform="translate(38.313 11.731)">
            <path id="path8942" d="M-246.8,0l-5.15,14.611a23.833,23.833,0,0,1-14.556,14.556l-14.612,5.15,5.441-14.917A23.392,23.392,0,0,1-261.719,5.441Z" transform="translate(281.119)" fill="#a2ade6"/>
          </g>
          <g id="g8944" transform="translate(69.892 11.731)">
            <path id="path8946" d="M-11.915-22.068l1.081-3.068-2.738,1a24.361,24.361,0,0,1,1.657,2.07" transform="translate(13.572 25.136)" fill="#8795de"/>
          </g>
          <g id="g8948" transform="translate(6.852 6.323)">
            <path id="path8950" d="M-109.374-54.688a7.6,7.6,0,0,1-7.6,7.6,7.6,7.6,0,0,1-7.6-7.6,7.6,7.6,0,0,1,7.6-7.6,7.6,7.6,0,0,1,7.6,7.6" transform="translate(124.582 62.292)" fill="#d88a55"/>
          </g>
          <g id="g8952" transform="translate(12.616 6.323)">
            <path id="path8954" d="M-13.233,0a7.619,7.619,0,0,0-1.84.225A7.606,7.606,0,0,1-9.309,7.6a7.606,7.606,0,0,1-5.764,7.379,7.627,7.627,0,0,0,1.84.225,7.6,7.6,0,0,0,7.6-7.6,7.6,7.6,0,0,0-7.6-7.6" transform="translate(15.073)" fill="#c57a44"/>
          </g>
          <g id="g8956" transform="translate(33.046 6.323)">
            <path id="path8958" d="M-109.375-54.688a7.6,7.6,0,0,1-7.6,7.6,7.6,7.6,0,0,1-7.6-7.6,7.6,7.6,0,0,1,7.6-7.6,7.6,7.6,0,0,1,7.6,7.6" transform="translate(124.584 62.292)" fill="#d88a55"/>
          </g>
          <g id="g8960" transform="translate(38.81 6.323)">
            <path id="path8962" d="M-13.233,0a7.618,7.618,0,0,0-1.84.225A7.606,7.606,0,0,1-9.309,7.6a7.606,7.606,0,0,1-5.764,7.379,7.626,7.626,0,0,0,1.84.225,7.6,7.6,0,0,0,7.6-7.6,7.6,7.6,0,0,0-7.6-7.6" transform="translate(15.073)" fill="#c57a44"/>
          </g>
          <g id="g8964" transform="translate(12.073 29.666)">
            <path id="path8966" d="M-87.5,0h6.626A10.129,10.129,0,0,1-71.06,7.622l2.352,9.209H-99.666l2.352-9.209A10.129,10.129,0,0,1-87.5,0" transform="translate(99.666)" fill="#d88a55"/>
          </g>
          <g id="g8968" transform="translate(27.186 29.666)">
            <path id="path8970" d="M-97.048-54.819a10.129,10.129,0,0,0-9.814-7.622h-3.68a10.129,10.129,0,0,1,9.814,7.622l2.352,9.209h3.68Z" transform="translate(110.542 62.441)" fill="#c57a44"/>
          </g>
          <g id="g8972" transform="translate(1.221 37.976)">
            <path id="path8974" d="M-560.9-292.964h-75.088a2.9,2.9,0,0,1-2.9-2.9V-333.7h80.893v37.833a2.9,2.9,0,0,1-2.9,2.9" transform="translate(638.886 333.699)" fill="#ffe5c2"/>
          </g>
          <g id="g8976" transform="translate(75.531 37.976)">
            <path id="path8978" d="M-20.875,0V37.833a2.9,2.9,0,0,1-2.9,2.9h3.68a2.9,2.9,0,0,0,2.9-2.9V0Z" transform="translate(23.777)" fill="#fed2a4"/>
          </g>
          <g id="g8980" transform="translate(1.221 25.973)">
            <path id="path8982" d="M-25.608,0h0a3.561,3.561,0,0,0-3.561,3.561V12h7.122V3.561A3.561,3.561,0,0,0-25.608,0" transform="translate(29.169)" fill="#ffe5c2"/>
          </g>
          <g id="g8984" transform="translate(2.941 25.973)">
            <path id="path8986" d="M-13.233,0h0a3.542,3.542,0,0,0-1.84.512,3.559,3.559,0,0,1,1.721,3.049V12h3.68V3.561A3.561,3.561,0,0,0-13.233,0" transform="translate(15.073)" fill="#fed2a4"/>
          </g>
          <g id="g8988" transform="translate(74.993 25.973)">
            <path id="path8990" d="M-25.608,0h0a3.561,3.561,0,0,0-3.561,3.561V12h7.122V3.561A3.561,3.561,0,0,0-25.608,0" transform="translate(29.169)" fill="#ffe5c2"/>
          </g>
          <g id="g8992" transform="translate(76.713 25.973)">
            <path id="path8994" d="M-13.233,0h0a3.541,3.541,0,0,0-1.84.512,3.559,3.559,0,0,1,1.721,3.049V12h3.68V3.561A3.561,3.561,0,0,0-13.233,0" transform="translate(15.073)" fill="#fed2a4"/>
          </g>
          <g id="g8996" transform="translate(7.88 52.896)">
            <path id="path8998" d="M-111.594-122.373h-14.14a1.377,1.377,0,0,1-1.377-1.377v-14.261a1.377,1.377,0,0,1,1.377-1.377h15.517v15.638a1.377,1.377,0,0,1-1.377,1.377" transform="translate(127.11 139.389)" fill="#fe72c5"/>
          </g>
          <g id="g9000" transform="translate(19.716 52.896)">
            <path id="path9002" d="M-9.9,0V15.638a1.377,1.377,0,0,1-1.377,1.377H-7.6a1.377,1.377,0,0,0,1.377-1.377V0Z" transform="translate(11.281)" fill="#fe4fb7"/>
          </g>
          <g id="g9004" transform="translate(24.774 46.49)">
            <path id="path9006" d="M-121.5-122.373h-16.894v-15.638a1.377,1.377,0,0,1,1.377-1.377h14.14a1.377,1.377,0,0,1,1.377,1.377Z" transform="translate(138.392 139.389)" fill="#97da7b"/>
          </g>
          <g id="g9008" transform="translate(36.61 46.49)">
            <path id="path9010" d="M-26.465,0h-3.68a1.377,1.377,0,0,1,1.377,1.377V17.016h3.68V1.377A1.377,1.377,0,0,0-26.465,0" transform="translate(30.145)" fill="#79cf59"/>
          </g>
          <g id="g9012" transform="translate(41.667 52.896)">
            <path id="path9014" d="M-111.594-122.373h-14.14a1.377,1.377,0,0,1-1.377-1.377v-15.638h16.894v15.638a1.377,1.377,0,0,1-1.377,1.377" transform="translate(127.11 139.389)" fill="#a6e7f0"/>
          </g>
          <g id="g9016" transform="translate(53.504 52.896)">
            <path id="path9018" d="M-9.9,0V15.638a1.377,1.377,0,0,1-1.377,1.377H-7.6a1.377,1.377,0,0,0,1.377-1.377V0Z" transform="translate(11.281)" fill="#6bd9e7"/>
          </g>
          <g id="g9020" transform="translate(58.561 46.49)">
            <path id="path9022" d="M-111.594-122.373H-127.11v-15.638a1.377,1.377,0,0,1,1.377-1.377h14.14a1.377,1.377,0,0,1,1.377,1.377v14.261a1.377,1.377,0,0,1-1.377,1.377" transform="translate(127.11 139.389)" fill="#a2ade6"/>
          </g>
          <g id="g9024" transform="translate(70.398 46.49)">
            <path id="path9026" d="M-26.467,0h-3.68a1.377,1.377,0,0,1,1.377,1.377V15.638a1.377,1.377,0,0,1-1.377,1.377h3.68a1.377,1.377,0,0,0,1.377-1.377V1.377A1.377,1.377,0,0,0-26.467,0" transform="translate(30.147)" fill="#8795de"/>
          </g>
          <g id="g9028" transform="translate(13.991 11.039)">
            <path id="path9030" d="M-137.834-133.96h-11.207A7.959,7.959,0,0,1-157-141.918v-2.709a7.959,7.959,0,0,1,7.959-7.959h11.207a7.959,7.959,0,0,1,7.959,7.959v2.709a7.959,7.959,0,0,1-7.959,7.959" transform="translate(157 152.586)" fill="#d88a55"/>
          </g>
          <g id="g9032" transform="translate(29.476 11.039)">
            <path id="path9034" d="M-26.467,0h-3.68a7.959,7.959,0,0,1,7.959,7.959v2.709a7.959,7.959,0,0,1-7.959,7.959h3.68a7.959,7.959,0,0,0,7.959-7.959V7.959A7.959,7.959,0,0,0-26.467,0" transform="translate(30.147)" fill="#c57a44"/>
          </g>
          <g id="g9036" transform="translate(13.197 10.246)">
            <path id="path9038" d="M-143.541-138.873h-11.207a8.762,8.762,0,0,1-8.752-8.752v-2.709a8.762,8.762,0,0,1,8.752-8.752h11.207a8.762,8.762,0,0,1,8.752,8.752v2.709A8.762,8.762,0,0,1-143.541-138.873ZM-154.748-157.5a7.173,7.173,0,0,0-7.165,7.165v2.709a7.173,7.173,0,0,0,7.165,7.165h11.207a7.173,7.173,0,0,0,7.165-7.165v-2.709a7.173,7.173,0,0,0-7.165-7.165Z" transform="translate(163.5 159.086)" fill="#3449bc"/>
          </g>
          <g id="g9040" transform="translate(6.059 5.529)">
            <path id="path9042" d="M-57.047-114.185H-57.1a8.4,8.4,0,0,1-7.885-8.382,8.406,8.406,0,0,1,8.4-8.4,8.367,8.367,0,0,1,7.776,5.223.793.793,0,0,1-.435,1.035.793.793,0,0,1-1.035-.435,6.786,6.786,0,0,0-6.307-4.236,6.818,6.818,0,0,0-6.809,6.811,6.814,6.814,0,0,0,6.393,6.8.793.793,0,0,1,.744.84A.794.794,0,0,1-57.047-114.185Z" transform="translate(64.98 130.966)" fill="#3449bc"/>
          </g>
          <g id="g9044" transform="translate(32.815 5.529)">
            <path id="path9046" d="M-59.7-114.185a.793.793,0,0,1-.791-.746.793.793,0,0,1,.744-.84,6.814,6.814,0,0,0,6.393-6.8,6.818,6.818,0,0,0-6.811-6.811,6.786,6.786,0,0,0-6.307,4.236.793.793,0,0,1-1.035.435.793.793,0,0,1-.435-1.035,8.367,8.367,0,0,1,7.776-5.223,8.407,8.407,0,0,1,8.4,8.4,8.4,8.4,0,0,1-7.885,8.382Z" transform="translate(67.995 130.966)" fill="#3449bc"/>
          </g>
          <g id="g9048" transform="translate(13.456 28.873)">
            <path id="path9050" d="M-197.049-64.682a.794.794,0,0,1-.768-.6l-.176-.688a9.331,9.331,0,0,0-9.046-7.025h-6.624a9.331,9.331,0,0,0-9.046,7.025l-.176.688a.793.793,0,0,1-.965.572.793.793,0,0,1-.572-.965l.176-.688a10.917,10.917,0,0,1,10.583-8.22h6.624a10.917,10.917,0,0,1,10.583,8.219l.176.688a.793.793,0,0,1-.572.965A.8.8,0,0,1-197.049-64.682Z" transform="translate(224.448 74.58)" fill="#3449bc"/>
          </g>
          <g id="g9052" transform="translate(26.759 23.708)">
            <path id="path9054" d="M-5.707.251A.793.793,0,0,1-6.5-.543V-5.707A.793.793,0,0,1-5.707-6.5a.793.793,0,0,1,.793.793V-.543A.793.793,0,0,1-5.707.251Z" transform="translate(6.5 6.5)" fill="#3449bc"/>
          </g>
          <g id="g9056" transform="translate(49.229 3.82)">
            <path id="path9058" d="M23.847,11.468a.794.794,0,0,1-.787-.7,23.215,23.215,0,0,0-6.721-13.92A23.361,23.361,0,0,0-5.53-9.436a.793.793,0,0,1-.951-.6.793.793,0,0,1,.6-.951,24.939,24.939,0,0,1,23.346,6.7,24.787,24.787,0,0,1,7.175,14.863.793.793,0,0,1-.7.878A.8.8,0,0,1,23.847,11.468Z" transform="translate(6.501 11.629)" fill="#3449bc"/>
          </g>
          <g id="g9060" transform="translate(40.464 10.938)">
            <path id="path9062" d="M-147.973-193.667a.792.792,0,0,1-.272-.048.793.793,0,0,1-.474-1.017l2.5-6.846a24.136,24.136,0,0,1,14.434-14.432l14.916-5.441a.793.793,0,0,1,.83.181.793.793,0,0,1,.19.828L-121-205.831a24.471,24.471,0,0,1-9.151,12.022.793.793,0,0,1-1.1-.2.793.793,0,0,1,.2-1.1,22.894,22.894,0,0,0,8.561-11.247l4.591-13.026-13.337,4.865a22.552,22.552,0,0,0-13.487,13.485l-2.5,6.846A.794.794,0,0,1-147.973-193.667Z" transform="translate(148.767 221.5)" fill="#3449bc"/>
          </g>
          <g id="g9064" transform="translate(0.427 37.183)">
            <path id="path9066" d="M-491.1-297.877h-3.5a.793.793,0,0,1-.793-.793.793.793,0,0,1,.793-.793h3.5a2.112,2.112,0,0,0,2.109-2.109v-37.039H-568.3v37.039a2.112,2.112,0,0,0,2.109,2.109h65.872a.793.793,0,0,1,.793.793.793.793,0,0,1-.793.793H-566.19a3.7,3.7,0,0,1-3.7-3.7v-37.833a.793.793,0,0,1,.793-.793H-488.2a.793.793,0,0,1,.793.793v37.833A3.7,3.7,0,0,1-491.1-297.877Z" transform="translate(569.887 340.199)" fill="#3449bc"/>
          </g>
          <g id="g9068" transform="translate(0.427 25.18)">
            <path id="path9070" d="M-31.315-6.5a4.359,4.359,0,0,1,4.354,4.354V6.3a.793.793,0,0,1-.793.793h-7.122a.793.793,0,0,1-.793-.793V-2.146A4.359,4.359,0,0,1-31.315-6.5Zm2.767,12V-2.146a2.77,2.77,0,0,0-2.767-2.767,2.77,2.77,0,0,0-2.767,2.767V5.5Z" transform="translate(35.669 6.5)" fill="#3449bc"/>
          </g>
          <g id="g9072" transform="translate(74.199 25.18)">
            <path id="path9074" d="M-31.315-6.5a4.359,4.359,0,0,1,4.354,4.354V6.3a.793.793,0,0,1-.793.793h-7.122a.793.793,0,0,1-.793-.793V-2.146A4.359,4.359,0,0,1-31.315-6.5Zm2.767,12V-2.146a2.77,2.77,0,0,0-2.767-2.767,2.77,2.77,0,0,0-2.767,2.767V5.5Z" transform="translate(35.669 6.5)" fill="#3449bc"/>
          </g>
          <g id="g9076" transform="translate(63.521 50.056)">
            <path id="path9078" d="M-44.7-3.606A4.745,4.745,0,0,1-48.174-5.1a.793.793,0,0,1,.055-1.121A.793.793,0,0,1-47-6.162a3.136,3.136,0,0,0,2.3.969,1.643,1.643,0,0,0,1.688-1.144c.1-.562-.353-1.072-1.243-1.4-1.279-.472-2.414-.977-2.462-1a.793.793,0,0,1-.11-.06,2.4,2.4,0,0,1-1.068-2.371,2.677,2.677,0,0,1,1.943-2.157,4.577,4.577,0,0,1,3.983.875.793.793,0,0,1,.1,1.118.793.793,0,0,1-1.115.1,3.009,3.009,0,0,0-2.507-.573,1.1,1.1,0,0,0-.83.863.813.813,0,0,0,.319.786c.258.113,1.241.539,2.3.93,1.952.72,2.445,2.109,2.256,3.168A3.219,3.219,0,0,1-44.7-3.606Z" transform="translate(48.38 13.488)" fill="#3449bc"/>
          </g>
          <g id="g9080" transform="translate(46.559 56.636)">
            <path id="path9082" d="M-3.058-.856a.793.793,0,0,1-.664-.36L-6.372-5.273a.793.793,0,0,1,.231-1.1.793.793,0,0,1,1.1.231L-3.059-3.1l1.964-3.017A.793.793,0,0,1,0-6.351a.793.793,0,0,1,.232,1.1L-2.393-1.216a.793.793,0,0,1-.664.361Z" transform="translate(6.501 6.501)" fill="#3449bc"/>
          </g>
          <g id="g9084" transform="translate(49.198 60.694)">
            <path id="path9086" d="M-5.706-35.385h0a.793.793,0,0,1-.792-.8l.01-4.237a.794.794,0,0,1,.8-.792.793.793,0,0,1,.792.8l-.01,4.237A.793.793,0,0,1-5.706-35.385Z" transform="translate(6.5 41.209)" fill="#3449bc"/>
          </g>
          <g id="g9088" transform="translate(13.243 56.636)">
            <path id="path9090" d="M-1.126-4.913H-5.707A.793.793,0,0,1-6.5-5.707.793.793,0,0,1-5.707-6.5h4.581a.793.793,0,0,1,.793.793A.793.793,0,0,1-1.126-4.913Z" transform="translate(6.5 6.5)" fill="#3449bc"/>
          </g>
          <g id="g9092" transform="translate(15.524 56.901)">
            <path id="path9094" d="M-5.707,3.117A.793.793,0,0,1-6.5,2.323v-8.03A.793.793,0,0,1-5.707-6.5a.793.793,0,0,1,.793.793v8.03A.793.793,0,0,1-5.707,3.117Z" transform="translate(6.5 6.5)" fill="#3449bc"/>
          </g>
          <g id="g9096" transform="translate(28.28 50.057)">
            <path id="path9098" d="M-69.508-40.473a4.946,4.946,0,0,1,4.941,4.941,4.946,4.946,0,0,1-4.941,4.941,4.947,4.947,0,0,1-4.941-4.941A4.946,4.946,0,0,1-69.508-40.473Zm0,8.295a3.358,3.358,0,0,0,3.354-3.354,3.358,3.358,0,0,0-3.354-3.354,3.358,3.358,0,0,0-3.354,3.354A3.358,3.358,0,0,0-69.508-32.179Z" transform="translate(74.449 40.473)" fill="#3449bc"/>
          </g>
          <g id="g9100" transform="translate(7.086 52.103)">
            <path id="path9102" d="M-117.3-127.286h-14.14a2.173,2.173,0,0,1-2.171-2.171v-14.261a2.173,2.173,0,0,1,2.171-2.171h15.517a.793.793,0,0,1,.793.793v15.638A2.173,2.173,0,0,1-117.3-127.286ZM-131.44-144.3a.584.584,0,0,0-.584.584v14.261a.584.584,0,0,0,.584.584h14.14a.584.584,0,0,0,.584-.584V-144.3Z" transform="translate(133.61 145.889)" fill="#3449bc"/>
          </g>
          <g id="g9104" transform="translate(23.98 45.696)">
            <path id="path9106" d="M-127.2-127.286H-144.1a.793.793,0,0,1-.793-.793v-15.638a2.173,2.173,0,0,1,2.171-2.171h14.14a2.173,2.173,0,0,1,2.171,2.171v15.638A.793.793,0,0,1-127.2-127.286Zm-16.1-1.587H-128v-14.845a.584.584,0,0,0-.584-.584h-14.14a.584.584,0,0,0-.584.584Z" transform="translate(144.892 145.889)" fill="#3449bc"/>
          </g>
          <g id="g9108" transform="translate(40.874 52.103)">
            <path id="path9110" d="M-36.954,12.1h-14.14a2.173,2.173,0,0,1-2.171-2.171V-5.707A.793.793,0,0,1-52.47-6.5a.793.793,0,0,1,.793.793V9.932a.584.584,0,0,0,.584.584h14.14a.584.584,0,0,0,.584-.584V-4.913H-46.762a.793.793,0,0,1-.793-.793.793.793,0,0,1,.793-.793h11.185a.793.793,0,0,1,.793.793V9.932A2.173,2.173,0,0,1-36.954,12.1Z" transform="translate(53.264 6.5)" fill="#3449bc"/>
          </g>
          <g id="g9112" transform="translate(57.768 45.696)">
            <path id="path9114" d="M-117.3-127.286h-15.517a.793.793,0,0,1-.793-.793v-15.638a2.173,2.173,0,0,1,2.171-2.171h14.14a2.173,2.173,0,0,1,2.171,2.171v14.261A2.173,2.173,0,0,1-117.3-127.286Zm-14.723-1.587H-117.3a.584.584,0,0,0,.584-.584v-14.261a.584.584,0,0,0-.584-.584h-14.14a.584.584,0,0,0-.584.584Z" transform="translate(133.61 145.889)" fill="#3449bc"/>
          </g>
          <g id="g9116" transform="translate(19.01 20.282)">
            <path id="path9118" d="M-17.966-8.983a1.249,1.249,0,0,1-1.249,1.249,1.249,1.249,0,0,1-1.249-1.249,1.249,1.249,0,0,1,1.249-1.249,1.249,1.249,0,0,1,1.249,1.249" transform="translate(20.464 10.232)"/>
          </g>
          <g id="g9120" transform="translate(33.743 20.282)">
            <path id="path9122" d="M-17.965-8.983a1.249,1.249,0,0,1-1.249,1.249,1.249,1.249,0,0,1-1.249-1.249,1.249,1.249,0,0,1,1.249-1.249,1.249,1.249,0,0,1,1.249,1.249" transform="translate(20.463 10.232)"/>
          </g>
          <g id="g9124" transform="translate(24.794 23.708)">
            <path id="path9126" d="M-1.76-4.913H-5.707A.793.793,0,0,1-6.5-5.707.793.793,0,0,1-5.707-6.5H-1.76a.793.793,0,0,1,.793.793A.793.793,0,0,1-1.76-4.913Z" transform="translate(6.5 6.5)" fill="#3449bc"/>
          </g>
        </g>
      </g>
    </g>
  </g>
</svg>
