<svg xmlns="http://www.w3.org/2000/svg" width="114" height="114" viewBox="0 0 114 114">
  <g id="Grupo_1064529" data-name="Grupo 1064529" transform="translate(-193 -419)">
    <g id="Grupo_1044012" data-name="Grupo 1044012">
      <rect id="Rect치ngulo_34817" data-name="Rect치ngulo 34817" width="114" height="114" rx="13" transform="translate(193 419)" fill="#3449bc"/>
    </g>
    <g id="amamantamiento-" transform="translate(211 434.045)">
      <g id="Grupo_1064527" data-name="Grupo 1064527" transform="translate(1.137 5.092)">
        <path id="Trazado_782291" data-name="Trazado 782291" d="M75.522,34.95,67.451,22.995a45.364,45.364,0,0,0-7.278-8.36,12.43,12.43,0,0,0-8.308-3.179H9.494A1.994,1.994,0,0,0,7.5,13.45V82a3.585,3.585,0,0,0,3.585,3.585H69.336a13.5,13.5,0,0,0,13.5-13.5V58.841A42.7,42.7,0,0,0,75.522,34.95Z" transform="translate(-7.5 -11.456)" fill="#ffbd86"/>
        <path id="Trazado_782292" data-name="Trazado 782292" d="M75.522,150.993l-1.865-2.763h0c2.931,4.842,4.046,10.207,4.437,15.777a29.768,29.768,0,0,1-1.376,11.2h0A32.031,32.031,0,0,1,56.4,195.86a21.638,21.638,0,0,1-6.64,1.224H7.5v.962a3.585,3.585,0,0,0,3.585,3.585H69.336a13.5,13.5,0,0,0,13.5-13.5V174.884A42.7,42.7,0,0,0,75.522,150.993Z" transform="translate(-7.5 -127.499)" fill="#f6a96c"/>
        <path id="Trazado_782293" data-name="Trazado 782293" d="M229.927,191.326c-3.056-.161-11.314.136-15.087,6.078a1.78,1.78,0,0,1-1.216.8l-2.209.36a1.766,1.766,0,0,0-1.481,1.8l.182,5.329a1.782,1.782,0,0,1-.136.746c-.255.614-.776,1.982-1.371,3.568a10.008,10.008,0,0,0,4.323,12.154l.426.249s8.809,6.4,14.578,6.7a18.923,18.923,0,1,0,1.988-37.793Z" transform="translate(-177.587 -164.037)" fill="#ffe5c2"/>
        <path id="Trazado_782294" data-name="Trazado 782294" d="M238.618,208.859a18.937,18.937,0,0,1-19.532,22.714c-3.431-.181-7.937-2.516-11.026-4.38a10.008,10.008,0,0,0,4.882,9.876l.426.249s8.809,6.4,14.578,6.7a18.924,18.924,0,0,0,10.671-35.161Z" transform="translate(-177.596 -178.938)" fill="#fed2a4"/>
        <path id="Trazado_782295" data-name="Trazado 782295" d="M45.264,65.435l-6.446-4.994A63.591,63.591,0,0,1,14.584,17.385L14.152,13.6H9.494A1.994,1.994,0,0,0,7.5,15.594V73.779H45.264Z" transform="translate(-7.5 -13.275)" fill="#fda302"/>
        <rect id="Rect치ngulo_373514" data-name="Rect치ngulo 373514" width="38.226" height="7.826" transform="translate(0 52.677)" fill="#fd9002"/>
        <path id="Trazado_782296" data-name="Trazado 782296" d="M78.39,312.662h0a2.65,2.65,0,0,0-3.706.561l-1.637,2.221c-1.871,2.538-8.462,9.572-8.462,9.572a9.991,9.991,0,0,1-10.074,2.133c-3.619-1.082-4.434-5.206-3.421-8.061a11.958,11.958,0,0,0,.511-2.071l.307-1.875a4.759,4.759,0,0,0-1.971-4.669l-.53-.37a1.089,1.089,0,0,0-1.674.606l-2.567,6.4a5.818,5.818,0,0,1-2.327,3.271,8.18,8.18,0,0,0-2.662,3.849,1.339,1.339,0,0,1-1.255.86L7.5,325.016v9.653a3.989,3.989,0,0,0,3.976,3.989l42.809.143a5.5,5.5,0,0,0,1.929-.343l11.154-4.131a5.5,5.5,0,0,0,2.887-2.466l8.7-15.492A2.65,2.65,0,0,0,78.39,312.662Z" transform="translate(-7.5 -264.669)" fill="#ffbd86"/>
        <g id="Grupo_1064526" data-name="Grupo 1064526" transform="translate(0 47.477)">
          <path id="Trazado_782297" data-name="Trazado 782297" d="M78.39,325.2h0a2.65,2.65,0,0,0-3.706.561l-1.637,2.221c-.207.281-.472.617-.779.992l-6.105,10.877a5.5,5.5,0,0,1-2.887,2.466l-11.154,4.131a5.5,5.5,0,0,1-1.929.343L7.5,346.649v.558a3.989,3.989,0,0,0,3.976,3.989l42.809.143A5.5,5.5,0,0,0,56.215,351l11.154-4.131a5.5,5.5,0,0,0,2.887-2.466l8.7-15.492A2.65,2.65,0,0,0,78.39,325.2Z" transform="translate(-7.5 -324.683)" fill="#f6a96c"/>
        </g>
      </g>
      <g id="Grupo_1064528" data-name="Grupo 1064528" transform="translate(0 3.955)">
        <path id="Trazado_782298" data-name="Trazado 782298" d="M62.973,80.361H38.178a1.137,1.137,0,0,1,0-2.274H62.973A12.373,12.373,0,0,0,75.332,65.728V52.477a41.412,41.412,0,0,0-7.115-23.255L60.145,17.267a44.272,44.272,0,0,0-7.1-8.15A11.275,11.275,0,0,0,45.5,6.229H3.131a.858.858,0,0,0-.857.857V75.639a2.451,2.451,0,0,0,2.448,2.448H32.873a1.137,1.137,0,0,1,0,2.274H4.722A4.727,4.727,0,0,1,0,75.639V7.086A3.134,3.134,0,0,1,3.131,3.955H45.5a13.545,13.545,0,0,1,9.068,3.47,46.548,46.548,0,0,1,7.46,8.569L70.1,27.95a43.678,43.678,0,0,1,7.5,24.527V65.728A14.649,14.649,0,0,1,62.973,80.361Z" transform="translate(0 -3.955)"/>
        <path id="Trazado_782299" data-name="Trazado 782299" d="M275.3,103.178a1.137,1.137,0,0,1-1.083-.791,20.49,20.49,0,0,0-5.133-8.109,6.532,6.532,0,0,1-1.95-4.669V87.232a1.137,1.137,0,0,1,2.274,0v2.376a4.274,4.274,0,0,0,1.277,3.055,22.768,22.768,0,0,1,5.7,9.032,1.138,1.138,0,0,1-1.083,1.483Z" transform="translate(-226.648 -73.645)"/>
        <path id="Trazado_782300" data-name="Trazado 782300" d="M95.049,309.67a1.131,1.131,0,0,1-.625-.188,18.051,18.051,0,0,1-6.632-8.371,1.137,1.137,0,0,1,2.1-.874,15.826,15.826,0,0,0,5.786,7.348,1.137,1.137,0,0,1-.627,2.086Z" transform="translate(-74.41 -254.734)"/>
        <path id="Trazado_782301" data-name="Trazado 782301" d="M245.063,206.344l-.061,0a1.137,1.137,0,0,1-1.076-1.195c.517-9.819-7.2-18.544-16.853-19.052-1.7-.09-10.388-.243-14.068,5.552a2.92,2.92,0,0,1-1.992,1.317l-2.209.36a.63.63,0,0,0-.528.642l.182,5.329a2.9,2.9,0,0,1-.222,1.221c-.252.607-.768,1.962-1.356,3.531a1.137,1.137,0,0,1-2.129-.8c.6-1.6,1.128-2.985,1.385-3.605a.644.644,0,0,0,.05-.271L206,194.045a2.909,2.909,0,0,1,2.434-2.964l2.209-.36a.644.644,0,0,0,.439-.292c4.248-6.691,13.4-6.746,16.106-6.6a20.284,20.284,0,0,1,19,21.442A1.137,1.137,0,0,1,245.063,206.344Z" transform="translate(-173.656 -156.535)"/>
        <path id="Trazado_782302" data-name="Trazado 782302" d="M1.137,65.865A1.137,1.137,0,0,1,0,64.728V9.231A3.134,3.134,0,0,1,3.131,6.1H7.788A1.137,1.137,0,0,1,8.918,7.108l.432,3.785A62.4,62.4,0,0,0,14.043,28.52a1.137,1.137,0,1,1-2.088.9A64.668,64.668,0,0,1,7.091,11.15L6.774,8.374H3.131a.858.858,0,0,0-.857.857v55.5A1.137,1.137,0,0,1,1.137,65.865Z" transform="translate(0 -5.775)"/>
        <path id="Trazado_782303" data-name="Trazado 782303" d="M118.914,210.56a1.132,1.132,0,0,1-.7-.238L112.3,205.74a64.339,64.339,0,0,1-17.23-20.263,1.137,1.137,0,0,1,2-1.086A62.08,62.08,0,0,0,113.7,203.943l5.914,4.582a1.137,1.137,0,0,1-.7,2.035Z" transform="translate(-80.546 -156.538)"/>
        <path id="Trazado_782304" data-name="Trazado 782304" d="M47.94,333.58h-.022a1.137,1.137,0,1,1,.007-2.274,4.351,4.351,0,0,0,1.531-.272L60.611,326.9a4.37,4.37,0,0,0,2.29-1.957l8.7-15.492a1.645,1.645,0,0,0,.354-1.243,1.514,1.514,0,0,0-2.715-.671L67.6,309.761c-1.889,2.563-8.276,9.386-8.547,9.675a1.142,1.142,0,0,1-.118.109,11.267,11.267,0,0,1-7.372,2.917,13.007,13.007,0,0,1-3.739-.581A6.174,6.174,0,0,1,44,318.688a8.315,8.315,0,0,1-.349-6.338,10.812,10.812,0,0,0,.46-1.874l.307-1.875a3.641,3.641,0,0,0-1.5-3.554l-.53-.37-2.535,6.5a6.832,6.832,0,0,1-2.74,3.786,7,7,0,0,0-2.243,3.318,2.49,2.49,0,0,1-2.319,1.59L1.134,319.8a1.137,1.137,0,0,1,.005-2.274l31.422.076a.2.2,0,0,0,.19-.129,9.051,9.051,0,0,1,3.081-4.381,4.686,4.686,0,0,0,1.873-2.632l2.609-6.527a2.15,2.15,0,0,1,1.348-1.383,2.228,2.228,0,0,1,2.033.268l.53.37a5.927,5.927,0,0,1,2.442,5.784l-.307,1.875a13.038,13.038,0,0,1-.561,2.267,6.054,6.054,0,0,0,.233,4.549,3.9,3.9,0,0,0,2.443,2.044,8.812,8.812,0,0,0,8.973-1.88c.637-.681,6.6-7.075,8.321-9.41l1.637-2.221a3.787,3.787,0,0,1,6.1,4.493l-8.619,15.374a6.646,6.646,0,0,1-3.483,2.976l-11.154,4.131A6.617,6.617,0,0,1,47.94,333.58Z" transform="translate(0 -257.174)"/>
      </g>
    </g>
  </g>
</svg>
