<svg xmlns="http://www.w3.org/2000/svg" width="315" height="139" viewBox="0 0 315 139">
  <g id="Grupo_1064376" data-name="Grupo 1064376" transform="translate(-180 -10423)">
    <rect id="Rectángulo_373373" data-name="Rectángulo 373373" width="315" height="139" transform="translate(180 10423)" fill="#edc1e3"/>
    <circle id="Elipse_5113" data-name="Elipse 5113" cx="35.5" cy="35.5" r="35.5" transform="translate(223 10440)" fill="#f7e4f3"/>
    <circle id="Elipse_5114" data-name="Elipse 5114" cx="56.5" cy="56.5" r="56.5" transform="translate(354 10430)" fill="#f7e4f3"/>
    <g id="amamantamiento_1_" data-name="amamantamiento (1)" transform="translate(275 10429.995)">
      <circle id="Elipse_5112" data-name="Elipse 5112" cx="62.324" cy="62.324" r="62.324" transform="translate(0.351 0.353)" fill="#f77fa4"/>
      <path id="Trazado_782173" data-name="Trazado 782173" d="M280.2,18.265A62.2,62.2,0,0,0,229.73.341a62.322,62.322,0,0,1,0,123.986A62.322,62.322,0,0,0,280.2,18.265Z" transform="translate(-173.802 -0.009)" fill="#dd6fa1"/>
      <path id="Trazado_782174" data-name="Trazado 782174" d="M40.548,16.079a62.341,62.341,0,0,0,3.346,117.954c-2.29-11.644-2.229-26.806-1.009-32.4.189,0,.379.006.57.006,30.113,0,36.135-30.916,36.135-30.916L62.276,50.649A128.7,128.7,0,0,1,40.548,16.079Z" transform="translate(0 -12.163)" fill="#ffdbbd"/>
      <path id="Trazado_782175" data-name="Trazado 782175" d="M162.326,61.716l-.485-.563L159.7,58.667l-.589-.682L156.532,55l-3.749-4.347a128.7,128.7,0,0,1-21.728-34.57c-.388.144-.773.3-1.159.449-.237.094-.474.189-.711.286h0c5.568,20.479,28.34,47.465,28.34,47.465s-6.018,32.072-36.11,30.947c-.192-.007-.381-.017-.57-.028-1.383,5.368-1.787,21.082-.128,32.714a61.953,61.953,0,0,0,13.686,6.12c-2.29-11.644-2.229-26.806-1.009-32.4.189,0,.379.006.57.006a37.438,37.438,0,0,0,11.325-1.662q1.111-.35,2.159-.764.524-.206,1.033-.427,1.018-.441,1.976-.938.479-.248.943-.508,1.393-.78,2.657-1.662a34.916,34.916,0,0,0,6.513-5.9,46.036,46.036,0,0,0,9.53-19.051Z" transform="translate(-90.506 -12.164)" fill="#f4caae"/>
      <path id="Trazado_782176" data-name="Trazado 782176" d="M274.487,195.383c-3.148,4.737-8.475,15.63,1.11,24.956a14.642,14.642,0,0,0,1.66,1.4,46.351,46.351,0,0,0,6.712-15.363Z" transform="translate(-204.378 -147.815)" fill="#e5b595"/>
      <path id="Trazado_782177" data-name="Trazado 782177" d="M320.218,232.875c0,2.268-1.3,4.367-4.009,4.367-1.54,0-1.6-8.2-.794-8.2C318.122,229.039,320.218,230.607,320.218,232.875Z" transform="translate(-238.239 -173.278)" fill="#bc8e82"/>
      <path id="Trazado_782178" data-name="Trazado 782178" d="M317.97,327.082s-6.838,6.594-6.344,14.352,12.193,7.758,12.687,0S317.97,327.082,317.97,327.082Z" transform="translate(-235.741 -247.452)" fill="#e1effb"/>
      <path id="Trazado_782179" data-name="Trazado 782179" d="M344.109,341.435c.494-7.758-6.344-14.352-6.344-14.352v20.17A6.08,6.08,0,0,0,344.109,341.435Z" transform="translate(-255.536 -247.453)" fill="#ccdfed"/>
    </g>
  </g>
</svg>
