<svg xmlns="http://www.w3.org/2000/svg" width="295" height="180" viewBox="0 0 295 180">
  <g id="Grupo_1064371" data-name="Grupo 1064371" transform="translate(-285 -10060)">
    <rect id="Rectángulo_373369" data-name="Rectángulo 373369" width="295" height="180" transform="translate(285 10060)" fill="#fffae3"/>
    <circle id="Elipse_5110" data-name="Elipse 5110" cx="78" cy="78" r="78" transform="translate(297 10084)" fill="#fff2be"/>
    <circle id="Elipse_5111" data-name="Elipse 5111" cx="51" cy="51" r="51" transform="translate(462 10076)" fill="#fff2be"/>
    <g id="bebe_2_" data-name="bebe (2)" transform="translate(364.936 10082.32)">
      <circle id="Elipse_5102" data-name="Elipse 5102" cx="12.083" cy="12.083" r="12.083" transform="translate(50.973 14.355)" fill="#f5d7b7"/>
      <circle id="Elipse_5103" data-name="Elipse 5103" cx="12.083" cy="12.083" r="12.083" transform="translate(50.973 14.355)" opacity="0.1"/>
      <circle id="Elipse_5104" data-name="Elipse 5104" cx="12.083" cy="12.083" r="12.083" transform="translate(96.256 59.639)" fill="#f5d7b7"/>
      <circle id="Elipse_5105" data-name="Elipse 5105" cx="12.083" cy="12.083" r="12.083" transform="translate(96.256 59.639)" opacity="0.1"/>
      <circle id="Elipse_5106" data-name="Elipse 5106" cx="23.275" cy="23.275" r="23.275" transform="translate(1.802 86.424)" fill="#38648c"/>
      <path id="Trazado_782154" data-name="Trazado 782154" d="M48.252,349.155A23.277,23.277,0,1,0,8.82,328.978a37.825,37.825,0,0,0,8.13,4.041c3.03,1.172,6.734,2.389,10.924,3.6,1.207,4.191,2.424,7.893,3.6,10.924a37.8,37.8,0,0,0,4.041,8.13A23.164,23.164,0,0,0,48.252,349.155Z" transform="translate(-6.715 -222.997)" opacity="0.1"/>
      <ellipse id="Elipse_5107" data-name="Elipse 5107" cx="35.674" cy="34.894" rx="35.674" ry="34.894" transform="translate(34.977 50.451) rotate(-45)" fill="#f5d7b7"/>
      <g id="Grupo_1064369" data-name="Grupo 1064369" transform="translate(60.881 28.645)">
        <ellipse id="Elipse_5108" data-name="Elipse 5108" cx="5.654" cy="7.1" rx="5.654" ry="7.1" transform="translate(0 7.996) rotate(-45)" fill="#f28b74"/>
        <ellipse id="Elipse_5109" data-name="Elipse 5109" cx="5.654" cy="7.1" rx="5.654" ry="7.1" transform="translate(45.254 37.255) rotate(135)" fill="#f28b74"/>
      </g>
      <path id="Trazado_782155" data-name="Trazado 782155" d="M233.577,14.9a36.135,36.135,0,0,0-15.2,9.1C204.45,37.933,204.2,60.274,217.83,73.9a34.568,34.568,0,0,0,29.152,9.747C224.744,76.262,217.933,39.129,233.577,14.9Z" transform="translate(-158.176 1.224)" opacity="0.05"/>
      <path id="Trazado_782156" data-name="Trazado 782156" d="M40.016,221.868c14.206.17,46.312,3.552,64.8,13.2a6.427,6.427,0,0,1,3.045,7.963c-2.9,7.724-10.55,19.137-17.552,26a17.649,17.649,0,0,1-13.35,5C57.42,272.923,14.317,263,11.177,256.571c-3.19-6.531,6.83-23.337,18.808-31.663A17.2,17.2,0,0,1,40.016,221.868Z" transform="translate(-8.053 -156.342)" fill="#76b7eb"/>
      <path id="Trazado_782157" data-name="Trazado 782157" d="M40.016,221.868c14.206.17,46.312,3.552,64.8,13.2a6.427,6.427,0,0,1,3.045,7.963c-2.9,7.724-10.55,19.137-17.552,26a17.649,17.649,0,0,1-13.35,5C57.42,272.923,14.317,263,11.177,256.571c-3.19-6.531,6.83-23.337,18.808-31.663A17.2,17.2,0,0,1,40.016,221.868Z" transform="translate(-8.053 -156.342)" opacity="0.1"/>
      <path id="Trazado_782158" data-name="Trazado 782158" d="M64.344,224.909a50.48,50.48,0,0,0-8.633,7.758,284.378,284.378,0,0,0,5.838,29.768c.173.689.348,1.367.523,2.039,15.036,4.605,36.607,8.8,49,9.545q.8-1.024,1.527-2.07a21.911,21.911,0,0,0,3.9-12.849A223.022,223.022,0,0,0,113.2,226.46a214.957,214.957,0,0,0-38.829-4.592A17.2,17.2,0,0,0,64.344,224.909Z" transform="translate(-42.413 -156.343)" opacity="0.1"/>
      <path id="Trazado_782159" data-name="Trazado 782159" d="M123.658,160.4c-.17-14.206-3.552-46.312-13.2-64.8a6.427,6.427,0,0,0-7.963-3.045c-7.724,2.9-19.137,10.55-26,17.552a17.649,17.649,0,0,0-5,13.35C72.6,143,82.524,186.1,88.955,189.24c6.531,3.19,23.337-6.83,31.663-18.808A17.2,17.2,0,0,0,123.658,160.4Z" transform="translate(-54.406 -57.585)" fill="#76b7eb"/>
      <g id="Grupo_1064370" data-name="Grupo 1064370" transform="translate(25.923 50.469)" opacity="0.1">
        <path id="Trazado_782160" data-name="Trazado 782160" d="M111.2,291.033a1.79,1.79,0,0,1-1.753-1.439c-.148-.741-.84-5.274-.84-6.151a1.79,1.79,0,0,1,3.58-.01c.02.577.6,4.591.771,5.46a1.792,1.792,0,0,1-1.757,2.141Zm.986-7.59h0Z" transform="translate(-108.606 -252.326)"/>
        <path id="Trazado_782161" data-name="Trazado 782161" d="M192.989,165.923a1.793,1.793,0,0,1-1.7-2.363c.128-.385.474-1.113,1.252-2.706.214-.438.416-.851.489-1.013a1.79,1.79,0,0,1,3.261,1.477c-.095.209-.288.606-.534,1.107-.339.695-.971,1.988-1.077,2.277A1.782,1.782,0,0,1,192.989,165.923Z" transform="translate(-171.482 -158.79)"/>
        <path id="Trazado_782162" data-name="Trazado 782162" d="M213.647,311.811a1.782,1.782,0,0,1-.9-.242c-.849-.493-3.22-1.849-3.988-2.2a1.79,1.79,0,0,1,1.484-3.258c1.066.486,3.973,2.17,4.3,2.36a1.79,1.79,0,0,1-.9,3.339Z" transform="translate(-184.057 -270.825)"/>
        <path id="Trazado_782163" data-name="Trazado 782163" d="M175.542,417.016a1.79,1.79,0,0,1-1.79-1.79c0-.955-.25-4.562-.37-6.3-.039-.559-.068-.981-.079-1.166a1.79,1.79,0,0,1,3.574-.214c.011.179.039.589.077,1.132.183,2.644.378,5.548.378,6.543A1.79,1.79,0,0,1,175.542,417.016Z" transform="translate(-157.858 -346.891)"/>
        <path id="Trazado_782164" data-name="Trazado 782164" d="M320.761,304.667a1.79,1.79,0,0,1-.595-3.479,28.644,28.644,0,0,0,3.253-1.786,9.466,9.466,0,0,1,2.527-1.3,1.79,1.79,0,0,1,.885,3.464c-.261.125-1.014.576-1.571.91a27.279,27.279,0,0,1-3.9,2.092A1.8,1.8,0,0,1,320.761,304.667Zm5.891-3.058h0Z" transform="translate(-268.758 -264.819)"/>
      </g>
      <path id="Trazado_782165" data-name="Trazado 782165" d="M98.54,39.864a5.136,5.136,0,0,0-3.656,1.514,1.79,1.79,0,1,0,2.532,2.531,1.59,1.59,0,1,1,2.248,2.248,1.79,1.79,0,0,0,2.532,2.531,5.17,5.17,0,0,0-3.656-8.825ZM80.834,20.017a5.177,5.177,0,0,0-7.311,0,1.79,1.79,0,0,0,2.531,2.532A1.589,1.589,0,1,1,78.3,24.8a1.79,1.79,0,0,0,2.532,2.532A5.175,5.175,0,0,0,80.834,20.017Zm38.406,30.564a37.48,37.48,0,0,0,2.713-13.618,36.07,36.07,0,0,0-9.344-24.819,15.833,15.833,0,0,1,6.455-3.7,1.79,1.79,0,1,0-1-3.438,19.42,19.42,0,0,0-7.988,4.609A36.1,36.1,0,0,0,85.25.259,37.481,37.481,0,0,0,71.632,2.971,13.789,13.789,0,0,0,63.057,0h-.21A13.876,13.876,0,0,0,50.715,20.217a8.179,8.179,0,0,0-3.256.515c-8.01,3.007-19.717,10.9-26.652,17.975A19.462,19.462,0,0,0,15.3,53.412c.091,1.6.243,3.381.45,5.3A58.387,58.387,0,0,0,4.014,73.895c-1.854,3.55-4.643,10.161-2.5,14.553l.026.053A25.056,25.056,0,0,0,33.71,120.67l.054.027a8.444,8.444,0,0,0,3.726.765c3.535,0,8.1-1.56,13.133-4.551a59.507,59.507,0,0,0,12.872-10.446c1.924.207,3.706.358,5.306.449q.553.031,1.1.031a19.458,19.458,0,0,0,13.6-5.539A89.148,89.148,0,0,0,95.687,85.939a1.79,1.79,0,1,0-3.029-1.908A85.451,85.451,0,0,1,81,98.85a15.867,15.867,0,0,1-12,4.49c-.841-.048-1.736-.113-2.679-.2q.714-.918,1.357-1.84a18.885,18.885,0,0,0,3.361-11.075,214.171,214.171,0,0,0-3.072-31.074c-.021-.122-.043-.248-.064-.371,11.533,2.311,21.184,5.395,28.025,8.966a4.648,4.648,0,0,1,2.2,5.747c-.4,1.059-.9,2.217-1.493,3.443A1.79,1.79,0,1,0,99.86,78.5c.64-1.324,1.186-2.584,1.621-3.744A8.182,8.182,0,0,0,102,71.5a13.873,13.873,0,0,0,17.245-20.919ZM55.779,6.593A10.236,10.236,0,0,1,67.837,4.753a38.537,38.537,0,0,0-14.2,13.275A10.255,10.255,0,0,1,55.779,6.593ZM9.886,112.326A21.435,21.435,0,0,1,4.394,91.306c2.727,1.755,8.151,4.2,19.231,7.283,1.317,4.721,2.651,8.864,3.928,12.181a38.921,38.921,0,0,0,3.366,7.046A21.436,21.436,0,0,1,9.886,112.326ZM64.743,99.259a53.71,53.71,0,0,1-15.949,14.575c-5.819,3.461-10.976,4.858-13.458,3.646a1.289,1.289,0,0,1-.177-.108,1.77,1.77,0,0,0-.211-.172c-1.468-1.345-4.4-6.831-8.122-20.455-.012-.054-.027-.108-.044-.161q-.634-2.327-1.3-4.974a1.79,1.79,0,0,0-3.473.869c.176.7.353,1.395.531,2.079C8.954,90.619,5.694,88.03,4.94,87.166L4.9,87.124a1.3,1.3,0,0,1-.171-.248c-1.907-3.9,2.81-14.794,11.561-23.708.855,6.321,2.167,13.667,3.792,21.09a1.79,1.79,0,0,0,3.5-.765C21.057,71.949,19.3,60.628,18.875,53.208a15.874,15.874,0,0,1,4.49-12c6.623-6.756,17.76-14.28,25.353-17.13a4.647,4.647,0,0,1,5.747,2.2c2.824,5.411,6.66,16.374,9.434,30.357a1.776,1.776,0,0,0,.094.473,185.782,185.782,0,0,1,3.471,33.158A15.327,15.327,0,0,1,64.743,99.259Zm35.478-32.507a8.183,8.183,0,0,0-2.633-2.177C90.066,60.647,79.852,57.427,67.215,55c-1.834-9.5-4.854-21.327-9.576-30.372a8.189,8.189,0,0,0-2.177-2.633,34.563,34.563,0,0,1,6.01-8.067C74.684.713,95.932.466,108.839,13.373a32.509,32.509,0,0,1,9.534,23.549,33.9,33.9,0,0,1-2.785,13.108,1.767,1.767,0,0,0-.134.306,34.841,34.841,0,0,1-15.235,16.415Zm15.4-.318a10.255,10.255,0,0,1-11.434,2.145,38.54,38.54,0,0,0,13.275-14.2A10.237,10.237,0,0,1,115.619,66.433ZM87.479,37.895a2.961,2.961,0,0,1-3.161-3.161,1.79,1.79,0,1,0-3.572-.245,6.54,6.54,0,0,0,6.528,6.993q.224,0,.45-.015a1.79,1.79,0,1,0-.245-3.571Z" transform="translate(-0.001 12.567)"/>
    </g>
  </g>
</svg>
