<svg xmlns="http://www.w3.org/2000/svg" width="295" height="141.475" viewBox="0 0 295 141.475">
  <g id="Grupo_1062970" data-name="Grupo 1062970" transform="translate(-1020 -390)">
    <g id="Grupo_1043377" data-name="Grupo 1043377" transform="translate(1020 418)">
      <rect id="Rectángulo_355768" data-name="Rectángulo 355768" width="295" height="85" rx="12" fill="#e4f7f6"/>
    </g>
    <g id="dia-de-la-madre_" data-name="dia-de-la-madre´" transform="translate(1083 390)">
      <g id="Grupo_1044388" data-name="Grupo 1044388" transform="translate(0.714 41.182)">
        <g id="Grupo_1044387" data-name="Grupo 1044387">
          <g id="Grupo_1044321" data-name="Grupo 1044321" transform="translate(0 23.215)">
            <path id="Trazado_774058" data-name="Trazado 774058" d="M141.4,294.617H9.085A7.058,7.058,0,0,1,2,287.458v-69.2H148.548v69.2a7.153,7.153,0,0,1-7.148,7.16Z" transform="translate(-2 -218.256)" fill="#fff"/>
          </g>
          <g id="Grupo_1044326" data-name="Grupo 1044326" transform="translate(0.001 23.215)">
            <g id="Grupo_1044323" data-name="Grupo 1044323">
              <g id="Grupo_1044322" data-name="Grupo 1044322">
                <path id="Trazado_774059" data-name="Trazado 774059" d="M2,218.256H31.325v19.09H2Z" transform="translate(-2.003 -218.256)" fill="#f5f5f5"/>
              </g>
            </g>
            <g id="Grupo_1044325" data-name="Grupo 1044325" transform="translate(0)">
              <g id="Grupo_1044324" data-name="Grupo 1044324">
                <path id="Trazado_774060" data-name="Trazado 774060" d="M2,218.256H6.292v19.09H2Z" transform="translate(-2.003 -218.256)" fill="#e1e1e1"/>
              </g>
            </g>
          </g>
          <g id="Grupo_1044328" data-name="Grupo 1044328" transform="translate(29.323 23.215)">
            <g id="Grupo_1044327" data-name="Grupo 1044327">
              <path id="Trazado_774061" data-name="Trazado 774061" d="M84.078,218.256H113.4v19.09H84.078Z" transform="translate(-84.078 -218.256)" fill="#f5f5f5"/>
            </g>
          </g>
          <g id="Grupo_1044329" data-name="Grupo 1044329" transform="translate(58.646 23.215)">
            <path id="Trazado_774062" data-name="Trazado 774062" d="M166.154,218.256h29.322v19.09H166.154Z" transform="translate(-166.154 -218.256)" fill="#f5f5f5"/>
          </g>
          <g id="Grupo_1044331" data-name="Grupo 1044331" transform="translate(87.968 23.215)">
            <g id="Grupo_1044330" data-name="Grupo 1044330">
              <path id="Trazado_774063" data-name="Trazado 774063" d="M248.229,218.256h29.322v19.09H248.229Z" transform="translate(-248.229 -218.256)" fill="#f5f5f5"/>
            </g>
          </g>
          <g id="Grupo_1044333" data-name="Grupo 1044333" transform="translate(0.001 42.305)">
            <g id="Grupo_1044332" data-name="Grupo 1044332">
              <path id="Trazado_774064" data-name="Trazado 774064" d="M2,271.691H31.325v19.09H2Z" transform="translate(-2.003 -271.691)" fill="#f5f5f5"/>
            </g>
          </g>
          <g id="Grupo_1044336" data-name="Grupo 1044336" transform="translate(0.001 42.305)">
            <g id="Grupo_1044335" data-name="Grupo 1044335">
              <g id="Grupo_1044334" data-name="Grupo 1044334">
                <path id="Trazado_774065" data-name="Trazado 774065" d="M2,271.691H6.292v19.09H2Z" transform="translate(-2.003 -271.691)" fill="#e1e1e1"/>
              </g>
            </g>
          </g>
          <g id="Grupo_1044337" data-name="Grupo 1044337" transform="translate(29.323 42.305)">
            <path id="Trazado_774066" data-name="Trazado 774066" d="M84.078,271.691H113.4v19.09H84.078Z" transform="translate(-84.078 -271.691)" fill="#f5f5f5"/>
          </g>
          <g id="Grupo_1044339" data-name="Grupo 1044339" transform="translate(58.646 42.305)">
            <g id="Grupo_1044338" data-name="Grupo 1044338">
              <path id="Trazado_774067" data-name="Trazado 774067" d="M166.154,271.691h29.322v19.09H166.154Z" transform="translate(-166.154 -271.691)" fill="#ff85ab"/>
            </g>
          </g>
          <g id="Grupo_1044342" data-name="Grupo 1044342" transform="translate(58.645 42.305)">
            <g id="Grupo_1044341" data-name="Grupo 1044341">
              <g id="Grupo_1044340" data-name="Grupo 1044340">
                <path id="Trazado_774068" data-name="Trazado 774068" d="M170.442,271.691h-4.289v19.09h29.322v-4.3H181.164a10.73,10.73,0,0,1-10.722-10.739v-4.055Z" transform="translate(-166.153 -271.691)" fill="#f75aa1"/>
              </g>
            </g>
          </g>
          <path id="Trazado_774069" data-name="Trazado 774069" d="M202.471,287a3.407,3.407,0,1,0-4.259,0,3.706,3.706,0,1,0,4.259,0Zm-4.107-2.66a1.978,1.978,0,1,1,1.978,1.981A1.981,1.981,0,0,1,198.364,284.337Zm1.978,7.974a2.281,2.281,0,1,1,2.277-2.281A2.282,2.282,0,0,1,200.342,292.31Z" transform="translate(-127.1 -235.32)" fill="#371731"/>
          <g id="Grupo_1044343" data-name="Grupo 1044343" transform="translate(87.968 42.305)">
            <path id="Trazado_774070" data-name="Trazado 774070" d="M248.229,271.691h29.322v19.09H248.229Z" transform="translate(-248.229 -271.691)" fill="#f5f5f5"/>
          </g>
          <g id="Grupo_1044348" data-name="Grupo 1044348" transform="translate(0.001 61.396)">
            <g id="Grupo_1044345" data-name="Grupo 1044345">
              <g id="Grupo_1044344" data-name="Grupo 1044344">
                <path id="Trazado_774071" data-name="Trazado 774071" d="M2,325.127H31.325v19.09H2Z" transform="translate(-2.003 -325.127)" fill="#f5f5f5"/>
              </g>
            </g>
            <g id="Grupo_1044347" data-name="Grupo 1044347" transform="translate(0)">
              <g id="Grupo_1044346" data-name="Grupo 1044346">
                <path id="Trazado_774072" data-name="Trazado 774072" d="M2,325.127H6.292v19.09H2Z" transform="translate(-2.003 -325.127)" fill="#e1e1e1"/>
              </g>
            </g>
          </g>
          <g id="Grupo_1044355" data-name="Grupo 1044355" transform="translate(0 80.486)">
            <g id="Grupo_1044350" data-name="Grupo 1044350" transform="translate(0.001)">
              <g id="Grupo_1044349" data-name="Grupo 1044349">
                <path id="Trazado_774073" data-name="Trazado 774073" d="M2,378.562H31.325v19.09H2Z" transform="translate(-2.003 -378.562)" fill="#f5f5f5"/>
              </g>
            </g>
            <g id="Grupo_1044352" data-name="Grupo 1044352" transform="translate(0 14.794)">
              <g id="Grupo_1044351" data-name="Grupo 1044351">
                <path id="Trazado_774074" data-name="Trazado 774074" d="M2,419.973H31.323v4.3H2Z" transform="translate(-2 -419.973)" fill="#e1e1e1"/>
              </g>
            </g>
            <g id="Grupo_1044354" data-name="Grupo 1044354" transform="translate(0.001)">
              <g id="Grupo_1044353" data-name="Grupo 1044353">
                <path id="Trazado_774075" data-name="Trazado 774075" d="M2,378.562H6.292v19.09H2Z" transform="translate(-2.003 -378.562)" fill="#e1e1e1"/>
              </g>
            </g>
          </g>
          <g id="Grupo_1044356" data-name="Grupo 1044356" transform="translate(29.323 61.396)">
            <path id="Trazado_774076" data-name="Trazado 774076" d="M84.078,325.127H113.4v19.09H84.078Z" transform="translate(-84.078 -325.127)" fill="#f5f5f5"/>
          </g>
          <g id="Grupo_1044357" data-name="Grupo 1044357" transform="translate(58.646 61.396)">
            <path id="Trazado_774077" data-name="Trazado 774077" d="M166.154,325.127h29.322v19.09H166.154Z" transform="translate(-166.154 -325.127)" fill="#f5f5f5"/>
          </g>
          <g id="Grupo_1044359" data-name="Grupo 1044359" transform="translate(87.968 61.396)">
            <g id="Grupo_1044358" data-name="Grupo 1044358">
              <path id="Trazado_774078" data-name="Trazado 774078" d="M248.229,325.127h29.322v19.09H248.229Z" transform="translate(-248.229 -325.127)" fill="#f5f5f5"/>
            </g>
          </g>
          <g id="Grupo_1044361" data-name="Grupo 1044361" transform="translate(29.323 80.486)">
            <g id="Grupo_1044360" data-name="Grupo 1044360">
              <path id="Trazado_774079" data-name="Trazado 774079" d="M84.078,378.562H113.4v19.09H84.078Z" transform="translate(-84.078 -378.562)" fill="#f5f5f5"/>
            </g>
          </g>
          <g id="Grupo_1044363" data-name="Grupo 1044363" transform="translate(29.323 95.281)">
            <g id="Grupo_1044362" data-name="Grupo 1044362">
              <path id="Trazado_774080" data-name="Trazado 774080" d="M84.077,419.973H113.4v4.3H84.077Z" transform="translate(-84.077 -419.973)" fill="#e1e1e1"/>
            </g>
          </g>
          <g id="Grupo_1044365" data-name="Grupo 1044365" transform="translate(58.646 80.486)">
            <g id="Grupo_1044364" data-name="Grupo 1044364">
              <path id="Trazado_774081" data-name="Trazado 774081" d="M166.154,378.562h29.322v19.09H166.154Z" transform="translate(-166.154 -378.562)" fill="#f5f5f5"/>
            </g>
          </g>
          <g id="Grupo_1044367" data-name="Grupo 1044367" transform="translate(58.629 95.281)">
            <g id="Grupo_1044366" data-name="Grupo 1044366">
              <path id="Trazado_774082" data-name="Trazado 774082" d="M166.108,419.973h29.323v4.3H166.108Z" transform="translate(-166.108 -419.973)" fill="#e1e1e1"/>
            </g>
          </g>
          <g id="Grupo_1044369" data-name="Grupo 1044369" transform="translate(87.968 80.486)">
            <g id="Grupo_1044368" data-name="Grupo 1044368">
              <path id="Trazado_774083" data-name="Trazado 774083" d="M248.229,378.562h29.322v19.09H248.229Z" transform="translate(-248.229 -378.562)" fill="#f5f5f5"/>
            </g>
          </g>
          <g id="Grupo_1044371" data-name="Grupo 1044371" transform="translate(87.936 95.281)">
            <g id="Grupo_1044370" data-name="Grupo 1044370">
              <path id="Trazado_774084" data-name="Trazado 774084" d="M248.139,419.973h29.323v4.3H248.139Z" transform="translate(-248.139 -419.973)" fill="#e1e1e1"/>
            </g>
          </g>
          <g id="Grupo_1044373" data-name="Grupo 1044373" transform="translate(0)">
            <g id="Grupo_1044372" data-name="Grupo 1044372">
              <path id="Trazado_774085" data-name="Trazado 774085" d="M141.4,153.275H9.085A7.058,7.058,0,0,0,2,160.434V176.49H148.548V160.434a7.154,7.154,0,0,0-7.148-7.16Z" transform="translate(-2 -153.275)" fill="#61ffb0"/>
            </g>
          </g>
          <g id="Grupo_1044375" data-name="Grupo 1044375" transform="translate(0)">
            <g id="Grupo_1044374" data-name="Grupo 1044374">
              <path id="Trazado_774086" data-name="Trazado 774086" d="M13.373,153.275H9.085A7.058,7.058,0,0,0,2,160.434V176.49H6.29V160.434A7.058,7.058,0,0,1,13.373,153.275Z" transform="translate(-2 -153.275)" fill="#30e693"/>
            </g>
          </g>
          <g id="Grupo_1044377" data-name="Grupo 1044377" transform="translate(6.882 5.951)">
            <g id="Grupo_1044376" data-name="Grupo 1044376">
              <path id="Trazado_774087" data-name="Trazado 774087" d="M21.264,175.231l9.163,5.3v-10.6Z" transform="translate(-21.264 -169.932)" fill="#f5f5f5"/>
            </g>
          </g>
          <g id="Grupo_1044380" data-name="Grupo 1044380" transform="translate(6.882 9.818)">
            <g id="Grupo_1044379" data-name="Grupo 1044379">
              <g id="Grupo_1044378" data-name="Grupo 1044378">
                <path id="Trazado_774088" data-name="Trazado 774088" d="M21.264,182.188l9.163,5.3v-2.864l-6.687-3.867Z" transform="translate(-21.264 -180.756)" fill="#e1e1e1"/>
              </g>
            </g>
          </g>
          <g id="Grupo_1044382" data-name="Grupo 1044382" transform="translate(6.174 5.237)">
            <g id="Grupo_1044381" data-name="Grupo 1044381">
              <path id="Trazado_774089" data-name="Trazado 774089" d="M29.153,179.961a.713.713,0,0,1-.357-.1l-9.163-5.3a.723.723,0,0,1,0-1.24l9.163-5.3a.721.721,0,0,1,1.072.62v10.6A.723.723,0,0,1,29.153,179.961Zm-7.734-6.015,7.019,4.06v-8.119Z" transform="translate(-19.282 -167.933)" fill="#371731"/>
            </g>
          </g>
          <g id="Grupo_1044386" data-name="Grupo 1044386" transform="translate(57.097 5.525)">
            <g id="Grupo_1044384" data-name="Grupo 1044384" transform="translate(0 0.008)">
              <g id="Grupo_1044383" data-name="Grupo 1044383">
                <path id="Trazado_774090" data-name="Trazado 774090" d="M171.352,180.784a.715.715,0,0,1-.715-.716v-8.7l-3.158,3.591a.737.737,0,0,1-1.072,0l-3.158-3.591v8.7a.715.715,0,1,1-1.429,0v-10.6a.72.72,0,0,1,1.251-.473l3.872,4.4,3.872-4.4a.721.721,0,0,1,1.251.473v10.6A.715.715,0,0,1,171.352,180.784Z" transform="translate(-161.82 -168.762)" fill="#371731"/>
              </g>
            </g>
            <g id="Grupo_1044385" data-name="Grupo 1044385" transform="translate(12.344)">
              <path id="Trazado_774091" data-name="Trazado 774091" d="M233.488,168.889a.713.713,0,0,0-1,.131l-3.842,5.009L224.8,169.02a.715.715,0,1,0-1.133.872l4.261,5.555v4.607a.715.715,0,1,0,1.429,0v-4.607l4.261-5.555A.717.717,0,0,0,233.488,168.889Z" transform="translate(-213.822 -168.741)" fill="#371731"/>
              <path id="Trazado_774092" data-name="Trazado 774092" d="M202.155,169.2a.72.72,0,0,0-1.319,0l-4.409,10.6a.715.715,0,1,0,1.319.551l1.6-3.855h4.291l1.6,3.855a.715.715,0,0,0,1.319-.551Zm-2.21,5.862,1.55-3.726,1.55,3.726Z" transform="translate(-196.373 -168.759)" fill="#371731"/>
            </g>
          </g>
        </g>
      </g>
      <g id="Grupo_1044415" data-name="Grupo 1044415" transform="translate(96.964 10.848)">
        <g id="Grupo_1044399" data-name="Grupo 1044399" transform="translate(17.109)">
          <g id="Grupo_1044390" data-name="Grupo 1044390" transform="translate(0 18.804)">
            <g id="Grupo_1044389" data-name="Grupo 1044389">
              <path id="Trazado_774093" data-name="Trazado 774093" d="M356.867,140.528a20.233,20.233,0,0,1-10.234-15.678c-1.19-11.281-12.453,5.824-12.453,5.824s-1.648,9.125-12.636,8.392c-1.875-.125-.67,3.748-1.336,4.2-3.237,2.187,3.259,6.166,3.259,6.166l13.827,3.577s11.446-2.66,11.263-2.935,8.311-9.543,8.311-9.543Z" transform="translate(-319.303 -121)" fill="#ffdcd2"/>
            </g>
          </g>
          <g id="Grupo_1044392" data-name="Grupo 1044392" transform="translate(0 18.807)">
            <g id="Grupo_1044391" data-name="Grupo 1044391">
              <path id="Trazado_774094" data-name="Trazado 774094" d="M324.138,145.058c.666-.45-.539-4.323,1.336-4.2,10.988.734,12.636-8.392,12.636-8.392s4.63-7.032,8.267-9.1c-2.042-8.108-12.2,7.315-12.2,7.315s-1.648,9.126-12.636,8.392c-1.875-.125-.67,3.748-1.336,4.2-3.237,2.187,3.259,6.166,3.259,6.166l2.249.582C324.049,148.666,322.03,146.482,324.138,145.058Z" transform="translate(-319.302 -121.008)" fill="#ffc8cc"/>
            </g>
          </g>
          <g id="Grupo_1044394" data-name="Grupo 1044394" transform="translate(29.848 47.479)">
            <g id="Grupo_1044393" data-name="Grupo 1044393">
              <path id="Trazado_774095" data-name="Trazado 774095" d="M402.853,201.271a.684.684,0,0,1,.068.133A.648.648,0,0,0,402.853,201.271Z" transform="translate(-402.852 -201.268)" fill="#371731"/>
              <path id="Trazado_774096" data-name="Trazado 774096" d="M402.851,201.268h0Z" transform="translate(-402.85 -201.267)" fill="#371731"/>
              <path id="Trazado_774097" data-name="Trazado 774097" d="M402.849,201.264h0Z" transform="translate(-402.849 -201.264)" fill="#371731"/>
            </g>
          </g>
          <g id="Grupo_1044396" data-name="Grupo 1044396" transform="translate(5.125 0)">
            <g id="Grupo_1044395" data-name="Grupo 1044395">
              <path id="Trazado_774098" data-name="Trazado 774098" d="M345.414,68.7c10.133.917,10.683,11.312,10.683,11.312s.916-5.32,3.026-5.019a3.349,3.349,0,0,1,2.712,2.235c2.216,6.583-3.876,7.921-3.876,7.921s-.763,15.153-14.818,13.424c-9.829-1.209-14.257-30.225-2.214-30.208Z" transform="translate(-333.647 -68.367)" fill="#ffdcd2"/>
            </g>
          </g>
          <g id="Grupo_1044398" data-name="Grupo 1044398" transform="translate(5.125)">
            <g id="Grupo_1044397" data-name="Grupo 1044397">
              <path id="Trazado_774099" data-name="Trazado 774099" d="M343.577,68.565l-2.649-.2c-12.043-.017-7.615,29,2.214,30.208a15.812,15.812,0,0,0,4.231-.01c-9.312-1.251-13.735-27.464-3.8-30Z" transform="translate(-333.648 -68.366)" fill="#ffc8cc"/>
            </g>
          </g>
        </g>
        <g id="Grupo_1044414" data-name="Grupo 1044414" transform="translate(0 35.286)">
          <g id="Grupo_1044400" data-name="Grupo 1044400" transform="translate(0 4.939)">
            <path id="Trazado_774100" data-name="Trazado 774100" d="M276.818,223.432c-13.466.825,1.888-31.714,6.6-41.132a2.426,2.426,0,0,1,3.579-.888l10.461,7.461" transform="translate(-271.411 -180.959)" fill="#ffdcd2"/>
          </g>
          <g id="Grupo_1044402" data-name="Grupo 1044402" transform="translate(4.542 2.128)">
            <g id="Grupo_1044401" data-name="Grupo 1044401">
              <path id="Trazado_774101" data-name="Trazado 774101" d="M305.05,173.091s-.447,5.986,3.742,8.591c7.939,4.937,18.2-1.3,25.464-7.673l5.485,20.879-3.047,4.662c-8.136,13.444-6.458,33.634-5.119,42.849.327,2.252,4.333,11.41,1.55,23.189H290.539c.877-5.562-.247-13.167-1.285-18.354a59.743,59.743,0,0,0-2.561-8.864c-4.611-12.559-4.029-25.961,10.259-37.3,0,0-7.437-11,0-19.941" transform="translate(-284.125 -173.091)" fill="#d483ff"/>
            </g>
          </g>
          <g id="Grupo_1044404" data-name="Grupo 1044404" transform="translate(4.542 2.128)">
            <g id="Grupo_1044403" data-name="Grupo 1044403">
              <path id="Trazado_774102" data-name="Trazado 774102" d="M293.543,247.233a59.751,59.751,0,0,0-2.56-8.864c-4.612-12.559-4.029-25.961,10.259-37.3,0,0-7.437-11,0-19.941l4.238-4.205a12.608,12.608,0,0,1-.429-3.829l-8.1,8.034c-7.437,8.939,0,19.941,0,19.941-14.288,11.343-14.87,24.745-10.259,37.3a59.751,59.751,0,0,1,2.56,8.864c1.037,5.187,2.161,12.792,1.285,18.354h4.289C295.7,260.026,294.58,252.42,293.543,247.233Z" transform="translate(-284.125 -173.091)" fill="#c35fff"/>
            </g>
          </g>
          <g id="Grupo_1044405" data-name="Grupo 1044405" transform="translate(0.141 23.183)">
            <path id="Trazado_774103" data-name="Trazado 774103" d="M276.207,232.027c-4.118,10.773-7.76,25.508.865,24.228,0,0,2.109-9.85,8.9-7.985l4.491,1.8c7.675,4.24,20.339.394,11.771-6.678,0,0,4.172-1.532-.518-4.023a13.728,13.728,0,0,0-10.535-.929,19.646,19.646,0,0,0-5.926,3.256" transform="translate(-271.806 -232.027)" fill="#ffdcd2"/>
          </g>
          <g id="Grupo_1044407" data-name="Grupo 1044407" transform="translate(18.103 18.076)">
            <g id="Grupo_1044406" data-name="Grupo 1044406">
              <path id="Trazado_774104" data-name="Trazado 774104" d="M337.25,259.415a25.22,25.22,0,0,0-5.575-.539,12.963,12.963,0,0,0-7.7,2.734c-4.154,3.257.207,4.037.207,4.037-7.212,8.455,5.926,10.039,12.75,4.529a13.1,13.1,0,0,1,4.4-2.3c5.753-1.766,19.017-6.555,29.069-15.646a10.069,10.069,0,0,0,3.239-6.534,129.374,129.374,0,0,0-.445-27.245l-13.42-.72-4.657,1.712a104.2,104.2,0,0,1,4.158,24.832s-11.387,11.209-22.023,15.14" transform="translate(-322.084 -217.73)" fill="#ffdcd2"/>
            </g>
          </g>
          <g id="Grupo_1044409" data-name="Grupo 1044409" transform="translate(18.224 18.6)">
            <g id="Grupo_1044408" data-name="Grupo 1044408">
              <path id="Trazado_774105" data-name="Trazado 774105" d="M373.409,219.393l-3.645-.2a133.081,133.081,0,0,1,.158,24.935,10.07,10.07,0,0,1-3.239,6.534c-10.052,9.091-23.316,13.88-29.069,15.646a13.094,13.094,0,0,0-4.4,2.3,15.188,15.188,0,0,1-10.8,3.125c1.1,3.651,9.657,3.476,14.729-.619a13.1,13.1,0,0,1,4.4-2.3c5.753-1.766,19.017-6.555,29.069-15.646a10.069,10.069,0,0,0,3.239-6.534A129.351,129.351,0,0,0,373.409,219.393Z" transform="translate(-322.421 -219.198)" fill="#ffc8cc"/>
            </g>
          </g>
          <g id="Grupo_1044411" data-name="Grupo 1044411" transform="translate(10.616)">
            <g id="Grupo_1044410" data-name="Grupo 1044410">
              <path id="Trazado_774106" data-name="Trazado 774106" d="M337.366,183.9c-1.838,7.967,2.363,9.843,2.363,9.843a4.026,4.026,0,0,0,5.4-.756,3.234,3.234,0,0,1,3.538-.889c5.509,2.095,7.116-3.9,7.116-3.9,4.741.9,5.658-1.773,5.678-3.913a3.343,3.343,0,0,0-1.836-3.024c-4.252-2.13-7.516-6.643-8.86-8.708a3.351,3.351,0,0,0-1.95-1.409l-3.628-.963s-12.57,12.006-22.334,9.06-6.141-11.645-6.141-11.645l-3.577-.436a3.359,3.359,0,0,0-2.165.473c-1.524.936-4.573,2.629-7.054,2.9a3.044,3.044,0,0,0-2.753,2.517,2.562,2.562,0,0,0,.716,2.279,2.8,2.8,0,0,1,.866,2.118c-.078,1.342.345,3.158,3.291,2.9,0,0,4.587-.128,5.621-3.524" transform="translate(-301.125 -167.134)" fill="#d483ff"/>
            </g>
          </g>
          <g id="Grupo_1044413" data-name="Grupo 1044413" transform="translate(53.003 3.046)">
            <g id="Grupo_1044412" data-name="Grupo 1044412">
              <path id="Trazado_774107" data-name="Trazado 774107" d="M437.716,189.764a3.343,3.343,0,0,0-1.836-3.024c-4.252-2.13-7.516-6.643-8.86-8.708a3.35,3.35,0,0,0-1.95-1.409l-3.628-.963s-.612.584-1.67,1.463l3.51.932a3.35,3.35,0,0,1,1.95,1.409c1.344,2.065,4.609,6.578,8.86,8.708a3.343,3.343,0,0,1,1.836,3.024,5.045,5.045,0,0,1-.565,2.433C437.249,193.014,437.7,191.258,437.716,189.764Z" transform="translate(-419.772 -175.66)" fill="#fff"/>
            </g>
          </g>
        </g>
      </g>
      <g id="Grupo_1044425" data-name="Grupo 1044425" transform="translate(28.267 13.343)">
        <g id="Grupo_1044420" data-name="Grupo 1044420" transform="translate(0 18.632)">
          <g id="Grupo_1044417" data-name="Grupo 1044417" transform="translate(0)">
            <g id="Grupo_1044416" data-name="Grupo 1044416">
              <path id="Trazado_774108" data-name="Trazado 774108" d="M89.741,142.95c.657-.761,8-11.288,2.112-14.743-4.158-2.44-6.061,2.23-6.061,2.23h0s-4.237-2.727-6.239,1.664c-2.835,6.217,9.214,10.6,10.188,10.849" transform="translate(-79.123 -127.501)" fill="#ff85ab"/>
            </g>
          </g>
          <g id="Grupo_1044419" data-name="Grupo 1044419" transform="translate(0 2.238)">
            <g id="Grupo_1044418" data-name="Grupo 1044418">
              <path id="Trazado_774109" data-name="Trazado 774109" d="M81.994,133.766a3.919,3.919,0,0,0-2.441,2.362c-2.835,6.216,9.211,10.6,10.188,10.849a22.986,22.986,0,0,0,1.787-2.743c-2.762-1.011-11.826-5.025-9.534-10.467Z" transform="translate(-79.122 -133.766)" fill="#f75aa1"/>
            </g>
          </g>
        </g>
        <g id="Grupo_1044422" data-name="Grupo 1044422" transform="translate(30.259)">
          <g id="Grupo_1044421" data-name="Grupo 1044421">
            <path id="Trazado_774110" data-name="Trazado 774110" d="M167.545,90.761c.988-.182,13.29-3.8,10.853-10.182-1.721-4.509-6.122-2.056-6.122-2.056h0s-1.6-4.782-5.908-2.609c-6.094,3.075.569,14.046,1.176,14.848" transform="translate(-163.82 -75.348)" fill="#ff85ab"/>
          </g>
        </g>
        <g id="Grupo_1044424" data-name="Grupo 1044424" transform="translate(30.259 0)">
          <g id="Grupo_1044423" data-name="Grupo 1044423">
            <path id="Trazado_774111" data-name="Trazado 774111" d="M169.943,76.63a5.925,5.925,0,0,1,.857-.353,3.642,3.642,0,0,0-4.431-.363c-6.093,3.075.567,14.044,1.176,14.847a21.076,21.076,0,0,0,2.636-.838C168.36,86.61,165.064,79.092,169.943,76.63Z" transform="translate(-163.819 -75.349)" fill="#f75aa1"/>
          </g>
        </g>
      </g>
      <path id="Trazado_774112" data-name="Trazado 774112" d="M168.626,101.291a4.082,4.082,0,0,0-2.231-3.671c-3.971-1.989-7.081-6.153-8.581-8.458a4.053,4.053,0,0,0-2.123-1.634A74.52,74.52,0,0,1,154.237,69.9c.207-13.282-2.279-22.017-7.387-25.963a9.771,9.771,0,0,0-7.648-2.01,16.1,16.1,0,0,0-10.662-3.922c-13.787.477-18.652,15.88-18.959,27.1a47.343,47.343,0,0,1-2.618,13.358h-63.6c.973-3.042.985-6.578-2.006-8.4-2.546-1.555-5.233-.584-6.727,1.879a4.976,4.976,0,0,0-6.657,6.525H7.8A7.845,7.845,0,0,0,0,86.343V178.76a.715.715,0,0,0,.715.716H150.507a.715.715,0,0,0,.7-.551,41.328,41.328,0,0,0-1.066-21.622,48.572,48.572,0,0,1-1.334-10.011,68.282,68.282,0,0,0,15.059-10.051,10.758,10.758,0,0,0,3.471-7,133.55,133.55,0,0,0-.174-25.184,4.87,4.87,0,0,0,1.468-3.767ZM150.4,87.3c-5.856,4.972-16.04,11.746-23.8,6.969a8.045,8.045,0,0,1-3.37-6.059,10.072,10.072,0,0,1,.512-3.106,11.529,11.529,0,0,0,5.09-5.318c4.855.543,9.558-1.032,12.4-5.183A20.863,20.863,0,0,0,150.4,87.3ZM119.959,58.775c.439-7.1,4.211-9.883,10.948-8.877,9.377.852,10.006,10.238,10.028,10.636a.717.717,0,0,0,1.418.084c.327-1.895,1.3-4.567,2.222-4.432,2.682.381,3.119,4.477,2.046,6.389a5.518,5.518,0,0,1-3.264,2.359.715.715,0,0,0-.561.663,18.792,18.792,0,0,1-1.876,6.712c-2.44,4.7-6.989,6.673-12.141,6.038-5.514-.678-9.334-11.261-8.821-19.571ZM108.277,93.458c.632,1.266-.047,2.621,1.109,3.744a3.221,3.221,0,0,0,1.921.837c-2.667,6.96.919,14.023,2.089,16.035-.223.181-2.365,1.734-3.236,2.313a.715.715,0,0,0,.791,1.192,22.446,22.446,0,0,1,5.744-3.17,13.076,13.076,0,0,1,9.987.878c1.343.714,2.761,1.914.607,2.719a.716.716,0,0,0-.209,1.224c1.347,1.112,3.431,3.238,2.246,4.986-1.647,2.429-8.484,3.127-13.217.513-2.744-1.523-6.689-3.012-9.592-1.245-2.961,1.8-4.3,5.867-4.707,7.355a3.573,3.573,0,0,1-3.2-1.532c-3.279-4.975,2.622-21.294,9.663-35.851ZM100.3,108.3a73.439,73.439,0,0,0-3.7,12.468H89.4V103.114H100.11a29.784,29.784,0,0,0,.186,5.19ZM96.38,122.2c-.666,5.178.141,9.782,5.082,10.049a29.487,29.487,0,0,0-.6,7.61H89.4V122.2H96.38Zm4.574,19.09c.553,6.173,3.23,11.693,4.631,17.659H89.4V141.295ZM29.348,74.873c1-2.187,3.217-2.618,5.2-1.359a.728.728,0,0,0,1.047-.33A3.574,3.574,0,0,1,42.482,74c.607,3.673-2.749,9.052-3.859,10.592C36.832,83.972,31,81.5,29.388,78.147a3.659,3.659,0,0,1-.04-3.274ZM3.236,81.808A6.345,6.345,0,0,1,7.8,79.9H28.785c2.71,3.722,8.98,5.909,9.832,6.189a.777.777,0,0,0,.868-.273A29.857,29.857,0,0,0,42.84,79.9h63.648c-2.462,7.245-5.592,14.285-6.28,21.783H1.43V86.331a6.263,6.263,0,0,1,1.806-4.523Zm26.087,96.236H1.43V160.385H29.323Zm0-19.09H1.43V141.295H29.323Zm0-19.09H1.43V122.2H29.323Zm0-19.09H1.43V103.114H29.323Zm29.322,57.27H30.752V160.385H58.646Zm0-19.09H30.752V141.295H58.646Zm0-19.09H30.752V122.2H58.646Zm0-19.09H30.752V103.114H58.646Zm29.322,57.27H60.075V160.385H87.968Zm0-19.09H60.075V141.295H87.968Zm0-19.09H60.075V122.2H87.968Zm0-19.09H60.075V103.114H87.968Zm19.327,57.27H89.4V160.385h16.5c.011.054.023.108.034.161C106.951,165.626,107.984,172.695,107.295,178.043Zm58.615-47.935a9.328,9.328,0,0,1-3.007,6.069c-10.047,9.087-23.488,13.862-28.8,15.493a13.748,13.748,0,0,0-4.635,2.429c-4.209,3.4-11.061,3.9-13.105,1.793-1.47-1.514.213-3.971,1.347-5.3a.723.723,0,0,0-.416-1.169c-2.245-.415-1.089-1.832.106-2.769,3.662-2.871,8.329-2.94,12.691-2.057a.707.707,0,0,0,.389-.03c10.657-3.939,21.808-14.838,22.277-15.3a.717.717,0,0,0,.214-.526,102.623,102.623,0,0,0-2.187-17.189,5.49,5.49,0,0,0,1.325-1.084,2.5,2.5,0,0,1,2.755-.7c3.483,1.324,6.554-.446,7.849-3.765a6.864,6.864,0,0,0,3.092-.181A132.626,132.626,0,0,1,165.91,130.108Zm-16.752.526A55.59,55.59,0,0,1,151,121.648c.281,2.344.475,4.663.533,6.81-.373.357-1.206,1.141-2.377,2.175Zm17.017-26.609c-.785.644-2.067.8-3.808.471a.715.715,0,0,0-.824.518c-.773,2.854-3.322,4.5-6.172,3.416a3.924,3.924,0,0,0-4.321,1.077c-1.258,1.39-2.737,1.59-4.524.609-.017-.009-.035-.018-.052-.026-.036-.016-3.628-1.714-1.968-8.982a.751.751,0,0,0-.405-.866.716.716,0,0,0-.977.5c-1.884,8.164,2.281,10.424,2.734,10.642a5.532,5.532,0,0,0,3.569.683c.412,1.994.8,4.147,1.133,6.337a54.731,54.731,0,0,0-3.05,13.656c-4.207,3.56-10.93,8.677-17.337,11.1-4.73-.925-9.724-.708-13.654,2.373-1.617,1.268-3.3,3.712-.556,4.963-2.558,3.453-1.526,5.474-.626,6.4,3.661,3.774,11.621,1.074,15.027-1.677a12.332,12.332,0,0,1,4.157-2.174,94.364,94.364,0,0,0,12.879-5.057,49,49,0,0,0,1.36,9.714,40.193,40.193,0,0,1,1.176,20.348h-41.2c.665-5.52-.379-12.652-1.4-17.779a60.209,60.209,0,0,0-2.59-8.97,37.181,37.181,0,0,1-2.524-14.009c.142-4.121,1.151-10.21,5.038-12.576,2.645-1.61,5.694.294,8.2,1.3,5.1,2.8,12.827,2.295,15.05-.984.726-1.07,1.392-3.24-1.726-6.195,2.435-1.676.409-3.826-1.431-4.8a14.511,14.511,0,0,0-11.083-.98c-.543.17-1.038.355-1.5.548-.858-1.409-4.9-8.657-1.908-15.561,1.178-.109,4.882-.708,5.91-3.949a.751.751,0,0,0-.356-.911.714.714,0,0,0-.993.437c-.869,2.856-4.918,3.016-4.957,3.017-1.536.037-2.658-.41-2.558-2.14a3.529,3.529,0,0,0-1.074-2.664c-1.334-1.34-.007-3.405,1.608-3.579,2.6-.281,5.723-2,7.351-3,1.221-.749,3.1-.2,4.415-.043a5.146,5.146,0,0,0-.521,2.429c.16,4.591,2.874,7.928,7.409,9.3,9.321,2.811,20.721-7.105,22.738-8.953l3.246.862a2.633,2.633,0,0,1,1.535,1.108c1.579,2.426,4.867,6.817,9.139,8.957,1.791.9,1.92,3.891.419,5.123Z" transform="translate(0 -38.001)" fill="#371731"/>
      <g id="Grupo_1044427" data-name="Grupo 1044427" transform="translate(57.81 12.63)">
        <g id="Grupo_1044426" data-name="Grupo 1044426">
          <path id="Trazado_774113" data-name="Trazado 774113" d="M166.258,90.2a.723.723,0,0,1-.624-.364c-.532-.817-4.738-7.534-3.637-12.3a5.448,5.448,0,0,1,4.476-4.118,4.71,4.71,0,0,1,4.881,2.886,4.786,4.786,0,0,1,5.235.813,5.459,5.459,0,0,1,.853,6.409c-2.391,4.265-10.01,6.394-10.959,6.641a.715.715,0,0,1-.225.036Zm.944-15.412a4,4,0,0,0-3.812,3.067c-.837,3.628,2.172,9.208,3.182,10.816,1.827-.507,7.8-2.6,9.624-5.848a3.982,3.982,0,0,0-1.045-5.069,3.811,3.811,0,0,0-3.817.119.728.728,0,0,1-1.023-.4A3.646,3.646,0,0,0,167.2,74.783Z" transform="translate(-161.814 -73.353)" fill="#371731"/>
        </g>
      </g>
      <path id="Trazado_774114" data-name="Trazado 774114" d="M409.6,80.073a77.481,77.481,0,0,0,1.282,16.913l1.122.3a78.228,78.228,0,0,1-1.332-17.222c.248-15.951-3.578-22.294-6.831-24.807a8.827,8.827,0,0,0-2.646-1.416C405.288,56.082,409.875,62.5,409.6,80.073Z" transform="translate(-257.865 -48.18)" fill="#ff5fe8" opacity="0.3"/>
    </g>
  </g>
</svg>
