<svg xmlns="http://www.w3.org/2000/svg" width="114" height="114" viewBox="0 0 114 114">
  <g id="Grupo_1044945" data-name="Grupo 1044945" transform="translate(-1294 -564)">
    <g id="Grupo_1044018" data-name="Grupo 1044018" transform="translate(1294 564)">
      <rect id="Rectángulo_34817" data-name="Rectángulo 34817" width="114" height="114" rx="13" fill="#4dcbbf"/>
    </g>
    <g id="Grupo_1064367" data-name="Grupo 1064367" transform="translate(78.462 223)">
      <g id="Grupo_1064351" data-name="Grupo 1064351" transform="translate(1235.729 379.65)">
        <g id="Grupo_1064350" data-name="Grupo 1064350" transform="translate(0 0)">
          <path id="Trazado_782147" data-name="Trazado 782147" d="M84.046,146.54c-7.524-8.953-19.432-11.328-26.6-5.305a14.891,14.891,0,0,0-5.1,10.145h0q-.025.253-.043.508c-1.149,11.825-12.991,17.151-17.887,23.786A12.894,12.894,0,0,0,37.133,193.7c13.536,9.991,37.983-9.943,47.56-20.05C91.131,166.859,91.569,155.492,84.046,146.54Z" transform="translate(-31.895 -137.906)" fill="#fce7ca"/>
        </g>
      </g>
      <path id="Trazado_782148" data-name="Trazado 782148" d="M44.622,183.332c4.9-6.635,16.738-11.962,17.887-23.786q.018-.255.043-.508h0a14.891,14.891,0,0,1,5.1-10.145c4.48-3.765,10.812-4.248,16.768-1.895q-.185-.23-.376-.458c-7.524-8.953-19.432-11.328-26.6-5.305a14.891,14.891,0,0,0-5.1,10.145h0q-.025.253-.043.508c-1.149,11.825-12.991,17.151-17.887,23.786A12.894,12.894,0,0,0,37.134,193.7a13.753,13.753,0,0,0,6.08,2.515A12.885,12.885,0,0,1,44.622,183.332Z" transform="translate(1203.834 241.744)" fill="#ffc7ab"/>
      <g id="Grupo_1064352" data-name="Grupo 1064352" transform="translate(1263.14 356)">
        <ellipse id="Elipse_5097" data-name="Elipse 5097" cx="7.997" cy="6.643" rx="7.997" ry="6.643" transform="translate(0 12.869) rotate(-53.572)" fill="#fce7ca"/>
      </g>
      <path id="Trazado_782149" data-name="Trazado 782149" d="M228.791,13.994a8.417,8.417,0,0,1,6.713-3.6,5.644,5.644,0,0,0-1.567-1.78c-2.952-2.179-7.471-1.064-10.094,2.49s-2.356,8.2.6,10.379a5.789,5.789,0,0,0,3.381,1.112A8.078,8.078,0,0,1,228.791,13.994Z" transform="translate(1044.047 351.332)" fill="#ffc7ab"/>
      <g id="Grupo_1064354" data-name="Grupo 1064354" transform="translate(1280.17 364.713)">
        <g id="Grupo_1064353" data-name="Grupo 1064353" transform="translate(0 0)">
          <ellipse id="Elipse_5098" data-name="Elipse 5098" cx="6.077" cy="5.048" rx="6.077" ry="5.048" transform="translate(0 9.78) rotate(-53.572)" fill="#fce7ca"/>
        </g>
      </g>
      <path id="Trazado_782150" data-name="Trazado 782150" d="M329.519,62.859a6.41,6.41,0,0,1,5.053-2.738,4.3,4.3,0,0,0-1.243-1.451c-2.243-1.656-5.678-.809-7.671,1.892s-1.79,6.232.453,7.888a4.408,4.408,0,0,0,2.617.846A6.169,6.169,0,0,1,329.519,62.859Z" transform="translate(958.122 309.041)" fill="#ffc7ab"/>
      <g id="Grupo_1064356" data-name="Grupo 1064356" transform="translate(1289.545 375.832)">
        <g id="Grupo_1064355" data-name="Grupo 1064355" transform="translate(0 0)">
          <ellipse id="Elipse_5099" data-name="Elipse 5099" cx="5.526" cy="4.59" rx="5.526" ry="4.59" transform="matrix(0.738, -0.675, 0.675, 0.738, 0, 7.455)" fill="#fce7ca"/>
        </g>
      </g>
      <path id="Trazado_782151" data-name="Trazado 782151" d="M386.294,132a5.6,5.6,0,0,1,5.774-1.315,4.021,4.021,0,0,0-1.022-2.38c-1.71-1.871-4.923-1.719-7.175.34s-2.692,5.245-.982,7.116a3.9,3.9,0,0,0,1.4.975A5.851,5.851,0,0,1,386.294,132Z" transform="translate(909.752 250.915)" fill="#ffc7ab"/>
      <g id="Grupo_1064358" data-name="Grupo 1064358" transform="translate(1296.389 388.329)">
        <g id="Grupo_1064357" data-name="Grupo 1064357" transform="translate(0 0)">
          <ellipse id="Elipse_5100" data-name="Elipse 5100" cx="4.866" cy="4.042" rx="4.866" ry="4.042" transform="translate(0 4.696) rotate(-28.854)" fill="#fce7ca"/>
        </g>
      </g>
      <path id="Trazado_782152" data-name="Trazado 782152" d="M425.67,206.824a4.994,4.994,0,0,1,5.031-.057,3.552,3.552,0,0,0-.373-2.313c-1.077-1.955-3.858-2.489-6.212-1.192s-3.388,3.933-2.311,5.888a3.461,3.461,0,0,0,1.181,1.249A5.17,5.17,0,0,1,425.67,206.824Z" transform="translate(876.53 187.417)" fill="#ffc7ab"/>
      <g id="Grupo_1064360" data-name="Grupo 1064360" transform="translate(1298.207 401.227)">
        <g id="Grupo_1064359" data-name="Grupo 1064359" transform="translate(0)">
          <ellipse id="Elipse_5101" data-name="Elipse 5101" cx="4.054" cy="3.367" rx="4.054" ry="3.367" transform="translate(0 3.913) rotate(-28.854)" fill="#fce7ca"/>
        </g>
      </g>
      <path id="Trazado_782153" data-name="Trazado 782153" d="M434.659,284.991a4.125,4.125,0,0,1,4.3.023,2.939,2.939,0,0,0-.33-1.8c-.9-1.629-3.215-2.074-5.176-.993s-2.823,3.277-1.926,4.906a2.869,2.869,0,0,0,.877.97A4.273,4.273,0,0,1,434.659,284.991Z" transform="translate(868.301 120.963)" fill="#ffc7ab"/>
      <g id="Grupo_1064361" data-name="Grupo 1064361" transform="translate(1234.538 378.448)">
        <path id="Trazado_782154" data-name="Trazado 782154" d="M39.644,191.322a15.56,15.56,0,0,1-9.493-2.981,14.107,14.107,0,0,1-2.97-19.705,43.433,43.433,0,0,1,6.381-6.37c4.94-4.325,10.54-9.227,11.278-16.821l.043-.51a15.969,15.969,0,0,1,5.522-10.945c3.75-3.152,8.782-4.3,14.17-3.221a25.148,25.148,0,0,1,14.116,8.672c7.572,9.01,7.824,21.084.6,28.709a104.942,104.942,0,0,1-20.059,16.313,1.2,1.2,0,1,1-1.247-2.044A103.265,103.265,0,0,0,77.552,166.5c6.373-6.726,6.081-17.459-.694-25.521a22.75,22.75,0,0,0-12.751-7.864,14.179,14.179,0,0,0-12.161,2.706,13.623,13.623,0,0,0-4.68,9.346l-.04.475c-.833,8.571-6.812,13.805-12.087,18.423a41.856,41.856,0,0,0-6.032,5.99,11.71,11.71,0,0,0,2.465,16.356c5.157,3.806,12.594,3.276,22.1-1.576a1.2,1.2,0,1,1,1.088,2.133C49.082,189.871,44.029,191.322,39.644,191.322Z" transform="translate(-24.433 -130.377)"/>
      </g>
      <g id="Grupo_1064362" data-name="Grupo 1064362" transform="translate(1264.896 357.641)">
        <path id="Trazado_782155" data-name="Trazado 782155" d="M221.666,17.522a7.011,7.011,0,0,1-4.2-1.341c-3.478-2.567-3.859-7.974-.848-12.053s8.29-5.309,11.768-2.742c2.631,1.941,3.577,5.637,2.355,9.2a1.2,1.2,0,1,1-2.265-.778c.881-2.565.273-5.174-1.512-6.492-2.416-1.783-6.193-.779-8.419,2.237s-2.072,6.922.343,8.7c1.937,1.429,4.866,1.083,7.123-.843a1.2,1.2,0,1,1,1.554,1.822A9.184,9.184,0,0,1,221.666,17.522Z" transform="translate(-214.587 -0.045)"/>
      </g>
      <g id="Grupo_1064363" data-name="Grupo 1064363" transform="translate(1278.496 363.039)">
        <path id="Elipse_5102" data-name="Elipse 5102" d="M7.275,0c4.011,0,7.275,2.8,7.275,6.246s-3.263,6.246-7.275,6.246S0,9.69,0,6.246,3.263,0,7.275,0Zm0,10.1c2.691,0,4.88-1.728,4.88-3.851S9.966,2.395,7.275,2.395s-4.88,1.728-4.88,3.851S4.584,10.1,7.275,10.1Z" transform="translate(0 11.707) rotate(-53.572)"/>
      </g>
      <g id="Grupo_1064364" data-name="Grupo 1064364" transform="translate(1287.854 374.14)">
        <path id="Elipse_5103" data-name="Elipse 5103" d="M6.723,0c3.707,0,6.723,2.6,6.723,5.787s-3.016,5.787-6.723,5.787S0,8.978,0,5.787,3.016,0,6.723,0Zm0,9.18c2.387,0,4.328-1.522,4.328-3.392S9.109,2.395,6.723,2.395,2.395,3.917,2.395,5.787,4.336,9.18,6.723,9.18Z" transform="matrix(0.738, -0.675, 0.675, 0.738, 0, 9.071)"/>
      </g>
      <g id="Grupo_1064365" data-name="Grupo 1064365" transform="translate(1294.762 386.702)">
        <path id="Elipse_5104" data-name="Elipse 5104" d="M6.063,0c3.343,0,6.063,2.35,6.063,5.239s-2.72,5.239-6.063,5.239S0,8.128,0,5.239,2.72,0,6.063,0Zm0,8.083c2.023,0,3.668-1.276,3.668-2.844S8.086,2.395,6.063,2.395,2.395,3.671,2.395,5.239,4.04,8.083,6.063,8.083Z" transform="translate(0 5.852) rotate(-28.854)"/>
      </g>
      <g id="Grupo_1064366" data-name="Grupo 1064366" transform="translate(1296.58 399.601)">
        <path id="Elipse_5105" data-name="Elipse 5105" d="M5.251,0C8.147,0,10.5,2.048,10.5,4.565S8.147,9.13,5.251,9.13,0,7.082,0,4.565,2.356,0,5.251,0Zm0,6.735c1.548,0,2.857-.994,2.857-2.17S6.8,2.395,5.251,2.395s-2.857.994-2.857,2.17S3.7,6.735,5.251,6.735Z" transform="translate(0 5.069) rotate(-28.854)"/>
      </g>
    </g>
  </g>
</svg>
