<svg xmlns="http://www.w3.org/2000/svg" width="85" height="85" viewBox="0 0 85 85">
  <g id="Grupo_1064566" data-name="Grupo 1064566" transform="translate(-200 -12184)">
    <g id="Grupo_1064044" data-name="Grupo 1064044" transform="translate(-1094 11620)">
      <g id="Grupo_1044018" data-name="Grupo 1044018" transform="translate(1294 564)">
        <rect id="Rectángulo_34817" data-name="Rectángulo 34817" width="85" height="85" rx="13" fill="#cb4dae"/>
      </g>
    </g>
    <g id="panal" transform="translate(212 12145.5)">
      <path id="Trazado_782520" data-name="Trazado 782520" d="M69.4,116.469v16.393a3.16,3.16,0,0,1-.2,1.112,3.117,3.117,0,0,1-1.6,1.724,23.571,23.571,0,0,0-13.068,15.943,4.458,4.458,0,0,1-2.587,3.075,4.328,4.328,0,0,1-.777.246c-.176.039-.354.076-.53.111a54.062,54.062,0,0,1-21.871,0c-.176-.035-.354-.072-.53-.111a4.318,4.318,0,0,1-.777-.246,4.458,4.458,0,0,1-2.587-3.075A23.571,23.571,0,0,0,11.8,135.7a3.117,3.117,0,0,1-1.6-1.724,3.16,3.16,0,0,1-.2-1.112V116.469H23.1l-1.192,2.413H57.486l-1.192-2.413Z" transform="translate(-8.793 -52.729)" fill="#fff"/>
      <path id="Trazado_782520_-_Contorno" data-name="Trazado 782520 - Contorno" d="M1.207,106.469h13.1a1.207,1.207,0,0,1,1.082,1.742l-.331.671h31.69l-.331-.671a1.207,1.207,0,0,1,1.082-1.742H60.6a1.207,1.207,0,0,1,1.207,1.207v16.393a4.352,4.352,0,0,1-.28,1.537A4.307,4.307,0,0,1,59.314,128a22.516,22.516,0,0,0-12.4,15.129,5.683,5.683,0,0,1-3.29,3.906,5.545,5.545,0,0,1-.994.315l-.55.115a55.269,55.269,0,0,1-22.349,0l-.543-.114a5.527,5.527,0,0,1-.991-.314,5.683,5.683,0,0,1-3.29-3.907A22.516,22.516,0,0,0,2.5,128a4.3,4.3,0,0,1-2.215-2.39A4.357,4.357,0,0,1,0,124.069V107.676A1.207,1.207,0,0,1,1.207,106.469Zm11.16,2.415H2.414v15.186a1.946,1.946,0,0,0,.126.687,1.9,1.9,0,0,0,.977,1.055A24.929,24.929,0,0,1,17.25,142.568a3.26,3.26,0,0,0,1.884,2.244,3.113,3.113,0,0,0,.561.178l.511.107a52.856,52.856,0,0,0,21.391,0l.516-.108a3.135,3.135,0,0,0,.565-.178,3.26,3.26,0,0,0,1.884-2.244,24.929,24.929,0,0,1,13.732-16.757,1.9,1.9,0,0,0,.979-1.058,1.942,1.942,0,0,0,.124-.684V108.883H49.444l.331.671a1.207,1.207,0,0,1-1.082,1.742H13.118a1.207,1.207,0,0,1-1.082-1.742Z" transform="translate(0 -43.936)"/>
      <path id="Trazado_782521" data-name="Trazado 782521" d="M23.1,131.145H10V116.472H23.1L21.9,118.918l1.207,2.446L21.9,123.809l1.207,2.446L21.9,128.7Z" transform="translate(-8.793 -52.732)" fill="#ffda8f"/>
      <path id="Trazado_782521_-_Contorno" data-name="Trazado 782521 - Contorno" d="M14.31,123.56H1.207A1.207,1.207,0,0,1,0,122.353V107.679a1.207,1.207,0,0,1,1.207-1.207h13.1a1.207,1.207,0,0,1,1.083,1.742l-.943,1.911.943,1.911a1.207,1.207,0,0,1,0,1.069l-.943,1.911.943,1.911a1.207,1.207,0,0,1,0,1.069l-.943,1.911.943,1.911a1.207,1.207,0,0,1-1.083,1.742Zm-11.9-2.414h9.953l-.347-.7a1.207,1.207,0,0,1,0-1.069l.943-1.911-.943-1.911a1.207,1.207,0,0,1,0-1.069l.943-1.911-.943-1.911a1.207,1.207,0,0,1,0-1.069l.347-.7H2.414Z" transform="translate(0 -43.939)"/>
      <path id="Trazado_782522" data-name="Trazado 782522" d="M393.468,131.145h13.1V116.472h-13.1l1.207,2.446-1.207,2.446,1.207,2.446-1.207,2.446,1.207,2.446Z" transform="translate(-345.967 -52.732)" fill="#ffda8f"/>
      <path id="Trazado_782522_-_Contorno" data-name="Trazado 782522 - Contorno" d="M397.778,123.56h-13.1a1.207,1.207,0,0,1-1.082-1.742l.943-1.911L383.593,118a1.207,1.207,0,0,1,0-1.069l.943-1.911-.943-1.911a1.207,1.207,0,0,1,0-1.069l.943-1.911-.943-1.911a1.207,1.207,0,0,1,1.082-1.742h13.1a1.207,1.207,0,0,1,1.207,1.207v14.673A1.207,1.207,0,0,1,397.778,123.56Zm-11.16-2.414h9.953V108.887h-9.953l.347.7a1.207,1.207,0,0,1,0,1.069l-.943,1.911.943,1.911a1.207,1.207,0,0,1,0,1.069l-.943,1.911.943,1.911a1.207,1.207,0,0,1,0,1.069Z" transform="translate(-337.174 -43.939)"/>
      <path id="Trazado_782523" data-name="Trazado 782523" d="M28.933,282.212c-12.855-4.3-16.446-16.916-17.253-20.742a3.117,3.117,0,0,0,1.6,1.724,23.571,23.571,0,0,1,13.068,15.943A4.458,4.458,0,0,0,28.933,282.212Z" transform="translate(-10.27 -180.225)" fill="#dfedff"/>
      <path id="Trazado_782523_-_Contorno" data-name="Trazado 782523 - Contorno" d="M20.139,274.625a1.205,1.205,0,0,1-.383-.063C6.289,270.057,2.534,256.861,1.7,252.925a1.207,1.207,0,0,1,2.31-.677,1.9,1.9,0,0,0,.978,1.058,24.929,24.929,0,0,1,13.733,16.757,3.26,3.26,0,0,0,1.884,2.244,1.207,1.207,0,0,1-.471,2.319ZM5.087,256.055c1.493,4.293,4.687,10.554,11.232,14.331A22.4,22.4,0,0,0,5.087,256.055Z" transform="translate(-1.476 -171.431)"/>
      <path id="Trazado_782524" data-name="Trazado 782524" d="M374.714,261.49c-.806,3.827-4.4,16.435-17.244,20.736a4.456,4.456,0,0,0,2.58-3.072,23.571,23.571,0,0,1,13.068-15.943A3.118,3.118,0,0,0,374.714,261.49Z" transform="translate(-314.314 -180.243)" fill="#dfedff"/>
      <path id="Trazado_782524_-_Contorno" data-name="Trazado 782524 - Contorno" d="M365.919,251.488a1.208,1.208,0,0,1,1.182,1.456c-.829,3.935-4.581,17.125-18.042,21.632a1.207,1.207,0,0,1-.856-2.256,3.258,3.258,0,0,0,1.878-2.24,24.929,24.929,0,0,1,13.732-16.757,1.9,1.9,0,0,0,.978-1.057A1.208,1.208,0,0,1,365.919,251.488ZM352.487,270.4c6.547-3.777,9.74-10.037,11.232-14.33A22.4,22.4,0,0,0,352.487,270.4Z" transform="translate(-305.52 -171.448)"/>
      <path id="Trazado_782525" data-name="Trazado 782525" d="M69.4,72.533h-13.1l1.192,2.413H21.911L23.1,72.533H10V69.516A3.018,3.018,0,0,1,13.018,66.5h53.36A3.018,3.018,0,0,1,69.4,69.516Z" transform="translate(-8.793 -8.793)" fill="#dfedff"/>
      <path id="Trazado_782526" data-name="Trazado 782526" d="M48.693,67.36H13.118a1.207,1.207,0,0,1-1.082-1.742l.331-.671H1.207A1.207,1.207,0,0,1,0,63.74V60.724A4.229,4.229,0,0,1,4.225,56.5H25.473a1.207,1.207,0,0,1,0,2.414H4.225a1.812,1.812,0,0,0-1.811,1.809v1.809h11.9a1.207,1.207,0,0,1,1.082,1.742l-.331.671h31.69l-.331-.671A1.207,1.207,0,0,1,47.5,62.533H59.4V60.724a1.812,1.812,0,0,0-1.811-1.809H36.338a1.207,1.207,0,1,1,0-2.414H57.586a4.229,4.229,0,0,1,4.225,4.224V63.74A1.207,1.207,0,0,1,60.6,64.947H49.444l.331.671a1.207,1.207,0,0,1-1.082,1.742Z" transform="translate(0 0)"/>
      <path id="Línea_238" data-name="Línea 238" transform="translate(30.906 57.707)"/>
    </g>
  </g>
</svg>
