<svg id="Grupo_1043377" data-name="Grupo 1043377" xmlns="http://www.w3.org/2000/svg" width="400" height="186" viewBox="0 0 400 186">
  <rect id="Rectángulo_355768" data-name="Rectángulo 355768" width="400" height="186" rx="12" fill="#e0e4f5"/>
  <g id="cuidado-de-la-salud" transform="translate(126.023 18.01)">
    <g id="Grupo_1043376" data-name="Grupo 1043376">
      <g id="Grupo_1043371" data-name="Grupo 1043371" transform="translate(0 86.494)">
        <g id="Grupo_1043370" data-name="Grupo 1043370">
          <g id="Grupo_1043365" data-name="Grupo 1043365" transform="translate(20.469 2.486)">
            <path id="Trazado_772519" data-name="Trazado 772519" d="M83.687,59.017l0,0" transform="translate(-83.687 -59.012)" fill="#fff"/>
          </g>
          <path id="Trazado_772520" data-name="Trazado 772520" d="M20.169,60.328a5.858,5.858,0,0,1,6.565-1.249,30.578,30.578,0,0,1,2.71,1.433A6.3,6.3,0,0,1,32.65,57.88c1.794-.62,3.846-.316,6.209.933a7.427,7.427,0,0,1,7.8.06c.673.451,1.924,1.186,3.678,2.167a14.452,14.452,0,0,1,8.477,1.146c3.257,1.526,13.04,6.1,15.364,7.04,1.9.088,3.833.241,5.752.4,6.808.554,13.236,1.076,17.942-1.46,1.954-1.051,3.715-2.223,5.419-3.356,4.844-3.223,9.42-6.269,15.978-4.391a54.951,54.951,0,0,1,7.782,3.078c5.226,2.381,10.63,4.844,19.367,4.844a1.006,1.006,0,0,1,1.006,1.006V102.37a1.006,1.006,0,0,1-1.006,1.006H134.619c-6.635,0-19.453,3.414-26.811,6.478-5.762,2.4-13.191,2.651-17.81,2.651-.685,0-2.98-.017-2.98-.017-3.748,0-18.243-5.015-39.111-20.516C26.162,75.817,20.742,71.128,18.925,66.886a5.848,5.848,0,0,1,1.244-6.558ZM58.493,78.085c.027-1.54,1.708-4.606,1.738-4.649L37.946,60.6c-1.8-.981-3.357-1.252-4.638-.811a4.32,4.32,0,0,0-2.127,1.743ZM45.538,60.549a5.038,5.038,0,0,0-4.475-.514L61.591,71.9c.076-.068,2.007-1.372,2.1-1.418ZM66.3,69.568c.219-.05,2.02-.313,2.494-.341l.086,0c-4-1.689-8.652-4.179-11.191-5.361A9.428,9.428,0,0,0,53.347,62.7ZM20.774,66.1c1.718,4,8.918,9.839,28.334,24.264,20.265,15.052,34.518,20.118,37.91,20.118l1.144.007c4.107.033,12.639.11,18.873-2.484,6.676-2.782,19.977-6.635,27.584-6.635h10.788V70.341c-8.6-.186-14.217-2.747-19.2-5.015a53.385,53.385,0,0,0-7.5-2.975c-5.665-1.613-9.478.92-14.31,4.132-1.743,1.157-3.543,2.356-5.579,3.452-5.228,2.817-12.26,2.246-19.061,1.694-1.954-.158-9.386-.482-10.848-.394-.89.052-7.8-.226-8.485,7.868,1.214,4.608,6.37,5.361,18.141,5.361a82.778,82.778,0,0,1,22.99,3.607,1.006,1.006,0,0,1-.313,1.962,1.023,1.023,0,0,1-.313-.05A82.172,82.172,0,0,0,78.57,86.477c-10.841,0-17.747-.431-19.817-6.014-3.008-1.408-32.222-19.282-32.81-19.535a3.925,3.925,0,0,0-5.168,5.17Z" transform="translate(-18.42 -57.483)"/>
          <g id="Grupo_1043366" data-name="Grupo 1043366" transform="translate(125.607 7.524)">
            <path id="Trazado_772521" data-name="Trazado 772521" d="M29.963,71.915l-.091,38.557a2.318,2.318,0,0,1-2.311,2.311H6.916A2.318,2.318,0,0,1,4.6,110.472V64.958a2.318,2.318,0,0,1,2.311-2.311H27.56a2.318,2.318,0,0,1,2.311,2.311" transform="translate(-3.599 -61.641)" fill="#fabf40"/>
            <path id="Trazado_772522" data-name="Trazado 772522" d="M7.319,114.191H27.961a3.321,3.321,0,0,0,3.317-3.317L31.37,72.32a1.009,1.009,0,0,0-1-1.009h0a1.007,1.007,0,0,0-1.006,1l-.091,38.557a1.307,1.307,0,0,1-1.305,1.307H7.319a1.306,1.306,0,0,1-1.305-1.305V65.359a1.306,1.306,0,0,1,1.305-1.305H27.961a1.306,1.306,0,0,1,1.305,1.305,1.006,1.006,0,1,0,2.012,0,3.321,3.321,0,0,0-3.317-3.317H7.319A3.323,3.323,0,0,0,4,65.359v45.514a3.321,3.321,0,0,0,3.319,3.317Z" transform="translate(-4 -62.042)"/>
          </g>
          <g id="Grupo_1043367" data-name="Grupo 1043367" transform="translate(134.172 41.981)">
            <path id="Trazado_772523" data-name="Trazado 772523" d="M13.879,91.507A4.069,4.069,0,1,0,9.81,87.438" transform="translate(-8.804 -82.363)" fill="#fff"/>
            <path id="Trazado_772524" data-name="Trazado 772524" d="M14.28,92.914A5.075,5.075,0,1,0,9.2,87.839a1.006,1.006,0,1,0,2.012,0A3.062,3.062,0,1,1,14.28,90.9a1.007,1.007,0,0,0,0,2.014Z" transform="translate(-9.205 -82.764)"/>
          </g>
          <g id="Grupo_1043368" data-name="Grupo 1043368" transform="translate(56.76 56.027)">
            <path id="Trazado_772525" data-name="Trazado 772525" d="M41.687,95.229a.976.976,0,0,0,.274-.038,38.819,38.819,0,0,0,5.6-2.059,1.006,1.006,0,0,0-.838-1.829,36.617,36.617,0,0,1-5.3,1.95,1.006,1.006,0,0,0,.269,1.975Z" transform="translate(-12.926 -91.211)"/>
            <path id="Trazado_772526" data-name="Trazado 772526" d="M65.779,96.681a42.053,42.053,0,0,0,4.539-.243,1.007,1.007,0,0,0-.216-2,42.922,42.922,0,0,1-20.91-3.128,1.006,1.006,0,0,0-.866,1.816A43.763,43.763,0,0,0,65.779,96.681Z" transform="translate(-47.753 -91.212)"/>
          </g>
          <g id="Grupo_1043369" data-name="Grupo 1043369" transform="translate(126.73)">
            <path id="Trazado_772527" data-name="Trazado 772527" d="M5.675,59.529H19.322a1.006,1.006,0,1,0,0-2.012H5.675a1.006,1.006,0,1,0,0,2.012Z" transform="translate(4.807 -57.517)"/>
            <path id="Trazado_772528" data-name="Trazado 772528" d="M17.28,59.529h3.826a1.006,1.006,0,1,0,0-2.012H17.28a1.006,1.006,0,0,0,0,2.012Z" transform="translate(-16.274 -57.517)"/>
          </g>
        </g>
        <path id="Trazado_772529" data-name="Trazado 772529" d="M7.963,63.678H5.969v45.77H7.963Z" transform="translate(141.74 -53.434)" fill="#fff"/>
      </g>
      <g id="Grupo_1043373" data-name="Grupo 1043373" transform="translate(19.196)">
        <g id="Grupo_1043372" data-name="Grupo 1043372">
          <path id="Trazado_772530" data-name="Trazado 772530" d="M97.3,6.105a26.561,26.561,0,0,1,19.127,8.131,28.394,28.394,0,0,1-.05,39.457S73.757,97.4,73.562,97.6L30.672,53.782A28.08,28.08,0,0,1,22.7,34.047a27.947,27.947,0,0,1,7.93-19.741A26.71,26.71,0,0,1,49.777,6.175c13.743-.07,23.108,11.831,23.731,11.831S84.2,6.105,97.3,6.105Z" transform="translate(-21.694 -5.099)" fill="#bae9d9"/>
          <path id="Trazado_772531" data-name="Trazado 772531" d="M73.965,99a1,1,0,0,0,.715-.3c.195-.2,41.081-42.124,42.822-43.908a29.4,29.4,0,0,0,.05-40.862A27.56,27.56,0,0,0,97.7,5.5c-11.154,0-19.957,8.109-23.271,11.162-.175.161-.353.326-.509.467l-.422-.411C70.647,13.957,61.981,5.572,50.3,5.572h-.125a27.74,27.74,0,0,0-19.86,8.434A28.957,28.957,0,0,0,22.1,34.453a29.08,29.08,0,0,0,8.257,20.436C32.1,56.671,73.063,98.52,73.248,98.707A1.015,1.015,0,0,0,73.965,99ZM97.7,7.512a25.566,25.566,0,0,1,18.407,7.827,27.392,27.392,0,0,1-.05,38.051c-.394.4-36.528,37.458-42.1,43.168-5.61-5.73-42.169-43.078-42.169-43.078a27.084,27.084,0,0,1-7.684-19.034,26.956,26.956,0,0,1,7.644-19.037,25.743,25.743,0,0,1,18.43-7.827H50.3c10.865,0,18.8,7.682,21.8,10.582,1.044,1.011,1.292,1.25,1.809,1.25s.742-.219,1.886-1.274C78.953,15.234,87.335,7.512,97.7,7.512Z" transform="translate(-22.097 -5.5)"/>
        </g>
      </g>
      <g id="Grupo_1043374" data-name="Grupo 1043374" transform="translate(72.365 5.078)">
        <path id="Trazado_772532" data-name="Trazado 772532" d="M58.762,50.309A24.914,24.914,0,0,0,58.8,15.689,23.357,23.357,0,0,0,44.372,8.672,19.456,19.456,0,0,1,46.5,8.554a23.3,23.3,0,0,1,16.781,7.133,24.914,24.914,0,0,1-.043,34.619s-37.4,38.349-37.568,38.522C25.644,88.806,58.762,50.309,58.762,50.309Z" transform="translate(-25.667 -8.554)" fill="#fff"/>
      </g>
      <g id="Grupo_1043375" data-name="Grupo 1043375" transform="translate(49.074 24.784)">
        <path id="Trazado_772533" data-name="Trazado 772533" d="M82.6,36.732H66.874V21.009H56.391V36.732H40.668V47.215H56.391V62.938H66.874V47.215H82.6Z" transform="translate(-39.665 -20.005)" fill="#fff"/>
        <path id="Trazado_772534" data-name="Trazado 772534" d="M56.791,64.344H67.273a1.006,1.006,0,0,0,1.006-1.006V48.621H82.995A1.006,1.006,0,0,0,84,47.615V37.133a1.006,1.006,0,0,0-1.006-1.006H68.279V21.411a1.006,1.006,0,0,0-1.006-1.006H56.791a1.006,1.006,0,0,0-1.006,1.006V36.127H41.069a1.006,1.006,0,0,0-1.006,1.006V47.615a1.006,1.006,0,0,0,1.006,1.006H55.785V63.338A1,1,0,0,0,56.791,64.344Zm9.475-2.014H57.8V47.613a1.006,1.006,0,0,0-1.006-1.006H42.075V38.139H56.791A1.006,1.006,0,0,0,57.8,37.133V22.417h8.469V37.133a1.006,1.006,0,0,0,1.006,1.006H81.987v8.469H67.271a1.006,1.006,0,0,0-1.006,1.006Z" transform="translate(-40.063 -20.405)"/>
      </g>
    </g>
    <path id="Trazado_772535" data-name="Trazado 772535" d="M82.706,47.916a1.008,1.008,0,0,0,.92-1.413A30.879,30.879,0,0,1,81,33.926,30.483,30.483,0,0,1,89.638,12.4a30.086,30.086,0,0,1,3.821-3.309A1.006,1.006,0,0,0,92.277,7.46,31.888,31.888,0,0,0,88.2,10.991,32.481,32.481,0,0,0,78.981,33.93a32.866,32.866,0,0,0,2.8,13.387,1,1,0,0,0,.921.6Z" transform="translate(-65.576 -4.329)"/>
    <path id="Trazado_772536" data-name="Trazado 772536" d="M86.537,40.21a1.006,1.006,0,0,0,.72-1.709,30.555,30.555,0,0,1-4.067-5.185A1.007,1.007,0,0,0,81.48,34.38a32.662,32.662,0,0,0,4.337,5.525,1,1,0,0,0,.72.3Z" transform="translate(-63.148 12.623)"/>
  </g>
</svg>
