<svg xmlns="http://www.w3.org/2000/svg" xmlns:xlink="http://www.w3.org/1999/xlink" width="81" height="81" viewBox="0 0 81 81">
  <defs>
    <clipPath id="clip-path">
      <path id="path4791" d="M0-682.665H66.665V-616H0Z" transform="translate(0 682.665)"/>
    </clipPath>
  </defs>
  <g id="Grupo_1062965" data-name="Grupo 1062965" transform="translate(-547 -6822)">
    <rect id="Rectángulo_35795" data-name="Rectángulo 35795" width="81" height="81" rx="8" transform="translate(547 6822)" fill="#3449bc"/>
    <g id="g4785" transform="translate(554 7511.665)">
      <g id="g4787" transform="translate(0 -682.665)">
        <g id="g4789" transform="translate(0 0)" clip-path="url(#clip-path)">
          <g id="g4795" transform="translate(27.706 3.613)">
            <path id="path4797" d="M-110.11-549.22a12.141,12.141,0,0,1-11.916-12.2v-28.005A19.147,19.147,0,0,1-103.1-608.658h.071a19.012,19.012,0,0,1,18.988,18.991A18.883,18.883,0,0,1-91.4-574.655c-4.3,3.34-6.77,7.449-6.6,13.047,0,.122.006.248.006.373a11.938,11.938,0,0,1-3.519,8.5,11.936,11.936,0,0,1-8.492,3.519Z" transform="translate(122.026 608.658)" fill="#ffece3"/>
          </g>
          <g id="g4799" transform="translate(35.434 3.613)">
            <path id="path4801" d="M-104.112,0h-.071a18.709,18.709,0,0,0-4.227.5A19.025,19.025,0,0,1-93.747,18.991,18.883,18.883,0,0,1-101.1,34c-4.3,3.34-6.77,7.449-6.6,13.047,0,.122.006.248.006.373a11.938,11.938,0,0,1-3.519,8.5,11.976,11.976,0,0,1-4.162,2.713,11.723,11.723,0,0,0,4.189.805h.1A11.936,11.936,0,0,0-102.6,55.92a11.938,11.938,0,0,0,3.519-8.5c0-.125,0-.251-.006-.373-.17-5.6,2.3-9.707,6.6-13.047a18.883,18.883,0,0,0,7.357-15.012A19.012,19.012,0,0,0-104.112,0" transform="translate(115.38)" fill="#ffddce"/>
          </g>
          <g id="g4803" transform="translate(35.01 10.898)">
            <path id="path4805" d="M0-110.206a11.831,11.831,0,0,1,11.642-11.927h.052a11.7,11.7,0,0,1,11.682,11.688,11.628,11.628,0,0,1-4.532,9.243c-6.5,5.044-9.677,11.466-9.445,19.086,0,.046,0,.1,0,.151A4.61,4.61,0,0,1,8.024-78.64a4.606,4.606,0,0,1-3.306,1.376H4.648A4.807,4.807,0,0,1,0-82.154Z" transform="translate(0 122.133)" fill="#ffcbbe"/>
          </g>
          <g id="g4807" transform="translate(35.432 10.898)">
            <path id="path4809" d="M-104.148,0h-.052a11.4,11.4,0,0,0-4.238.831,11.707,11.707,0,0,1,7.357,10.857,11.628,11.628,0,0,1-4.532,9.243c-6.5,5.044-9.676,11.466-9.445,19.086,0,.046,0,.1,0,.151A4.681,4.681,0,0,1-115.42,42a4.7,4.7,0,0,0,4.225,2.868h.069a4.607,4.607,0,0,0,3.307-1.376,4.61,4.61,0,0,0,1.377-3.324c0-.052,0-.105,0-.151C-106.676,32.4-103.5,25.975-97,20.931a11.628,11.628,0,0,0,4.532-9.243A11.7,11.7,0,0,0-104.148,0" transform="translate(115.42)" fill="#fdad9d"/>
          </g>
          <g id="g4811" transform="translate(10.846 19.098)">
            <path id="path4813" d="M-9.023-287.159a.973.973,0,0,1-.691-.286.977.977,0,0,1,0-1.381,20.406,20.406,0,0,0,0-28.825.977.977,0,0,1,0-1.381.977.977,0,0,1,1.381,0,22.361,22.361,0,0,1,0,31.587A.974.974,0,0,1-9.023-287.159Z" transform="translate(10 319.318)"/>
          </g>
          <g id="g4815" transform="translate(5.423 24.521)">
            <path id="path4817" d="M-9.023-186.942a.974.974,0,0,1-.691-.286.977.977,0,0,1,0-1.381A12.63,12.63,0,0,0-5.99-197.6a12.63,12.63,0,0,0-3.724-8.99.977.977,0,0,1,0-1.381.977.977,0,0,1,1.381,0,14.57,14.57,0,0,1,4.3,10.371,14.571,14.571,0,0,1-4.3,10.371A.973.973,0,0,1-9.023-186.942Z" transform="translate(10 208.255)"/>
          </g>
          <g id="g4819" transform="translate(0 29.943)">
            <path id="path4821" d="M-9.023-86.726a.973.973,0,0,1-.691-.286.977.977,0,0,1,0-1.381,5.05,5.05,0,0,0,0-7.134.977.977,0,0,1,0-1.381.977.977,0,0,1,1.381,0,7.005,7.005,0,0,1,0,9.9A.973.973,0,0,1-9.023-86.726Z" transform="translate(10 97.194)"/>
          </g>
          <g id="g4823" transform="translate(26.73 2.637)">
            <path id="path4825" d="M3-359.293H2.889A13.118,13.118,0,0,1-10-372.473v-2.506a.977.977,0,0,1,.977-.977.977.977,0,0,1,.977.977v2.506A11.16,11.16,0,0,0,2.9-361.246H3a10.963,10.963,0,0,0,7.8-3.233,10.968,10.968,0,0,0,3.233-7.806c0-.116,0-.232-.005-.345C13.857-378.171,16.14-382.7,21-386.476a17.913,17.913,0,0,0,6.979-14.24A18.033,18.033,0,0,0,9.971-418.731,18.182,18.182,0,0,0-8.047-400.478V-379.6a.977.977,0,0,1-.977.977A.977.977,0,0,1-10-379.6v-20.876A20.125,20.125,0,0,1,9.9-420.684a20,20,0,0,1,20.039,19.968A19.853,19.853,0,0,1,22.2-384.933c-4.4,3.412-6.373,7.3-6.223,12.246,0,.133.006.268.006.4a12.908,12.908,0,0,1-3.805,9.187A12.906,12.906,0,0,1,3-359.293Z" transform="translate(10 420.684)"/>
          </g>
          <g id="g4827" transform="translate(34.033 20.609)">
            <path id="path4829" d="M-243.24,26.134a5.8,5.8,0,0,1-5.7-5.865.977.977,0,0,1,.977-.977.977.977,0,0,1,.977.977,3.829,3.829,0,0,0,3.68,3.912,3.684,3.684,0,0,0,2.676-1.09,3.652,3.652,0,0,0,1.091-2.634l0-.126c-.241-7.945,3.063-14.636,9.823-19.882a10.658,10.658,0,0,0,4.154-8.471q0-.464-.039-.918A.977.977,0,0,1-224.71-10a.977.977,0,0,1,1.056.89q.046.536.046,1.084a12.6,12.6,0,0,1-4.91,10.014c-6.238,4.842-9.289,10.994-9.068,18.285l0,.181a5.567,5.567,0,0,1-1.663,4.015A5.565,5.565,0,0,1-243.24,26.134Z" transform="translate(248.937 10.001)"/>
          </g>
          <g id="g4831" transform="translate(34.033 9.922)">
            <path id="path4833" d="M-9.023-118.252a.977.977,0,0,1-.977-.977,12.81,12.81,0,0,1,12.615-12.9,12.667,12.667,0,0,1,11.256,6.768.977.977,0,0,1-.408,1.32.977.977,0,0,1-1.319-.408,10.7,10.7,0,0,0-9.474-5.727,10.863,10.863,0,0,0-10.717,10.95A.977.977,0,0,1-9.023-118.252Z" transform="translate(10 132.132)"/>
          </g>
          <g id="g4835" transform="translate(34.032 21.628)">
            <path id="path4837" d="M-6.975.424A3.335,3.335,0,0,1-10-2.87V-9.023A.977.977,0,0,1-9.023-10a.977.977,0,0,1,.977.977V-2.87a1.372,1.372,0,0,0,1.24,1.348l-.057.977Z" transform="translate(10 10)"/>
          </g>
          <g id="g4839" transform="translate(34.031 24.003)">
            <path id="path4841" d="M-5.574-4.606a.977.977,0,0,1-.977-.977.977.977,0,0,1,.977-.977A5.692,5.692,0,0,0,.111-12.244,5.692,5.692,0,0,0-5.574-17.93a5.664,5.664,0,0,0-2.944.823.977.977,0,0,1-1.342-.327.977.977,0,0,1,.327-1.342,7.617,7.617,0,0,1,3.958-1.107,7.647,7.647,0,0,1,7.638,7.638A7.647,7.647,0,0,1-5.574-4.606Z" transform="translate(10.001 19.883)"/>
          </g>
        </g>
      </g>
    </g>
  </g>
</svg>
