<svg xmlns="http://www.w3.org/2000/svg" width="68.375" height="68.375" viewBox="0 0 68.375 68.375">
  <g id="Grupo_1064516" data-name="Grupo 1064516" transform="translate(-600 -14030)">
    <g id="Grupo_1063935" data-name="Grupo 1063935" transform="translate(1.589 13150.673)">
      <circle id="Elipse_4807" data-name="Elipse 4807" cx="34.188" cy="34.188" r="34.188" transform="translate(598.411 879.327)" fill="#32cfc0"/>
    </g>
    <g id="Layer_73" transform="translate(592.518 14036.26)">
      <g id="Grupo_1064515" data-name="Grupo 1064515" transform="translate(17.819 0)">
        <g id="Grupo_1064421" data-name="Grupo 1064421" transform="translate(37.565 46.111)">
          <g id="Grupo_1064420" data-name="Grupo 1064420">
            <path id="Trazado_782219" data-name="Trazado 782219" d="M192.134,210.96a2.449,2.449,0,0,1-1.963-1.923.044.044,0,0,0-.087,0,2.449,2.449,0,0,1-1.963,1.923.043.043,0,0,0,0,.085,2.449,2.449,0,0,1,1.963,1.923.044.044,0,0,0,.087,0,2.449,2.449,0,0,1,1.963-1.923A.043.043,0,0,0,192.134,210.96Z" transform="translate(-188.084 -209)" fill="#f5c84c"/>
          </g>
        </g>
        <g id="Grupo_1064423" data-name="Grupo 1064423" transform="translate(39.479 3.312)">
          <g id="Grupo_1064422" data-name="Grupo 1064422">
            <path id="Trazado_782220" data-name="Trazado 782220" d="M199.652,16.414a1.75,1.75,0,0,1-1.4-1.375.032.032,0,0,0-.062,0,1.75,1.75,0,0,1-1.4,1.375.031.031,0,0,0,0,.061,1.75,1.75,0,0,1,1.4,1.375.032.032,0,0,0,.062,0,1.75,1.75,0,0,1,1.4-1.375A.031.031,0,0,0,199.652,16.414Z" transform="translate(-196.756 -15.014)" fill="#fc657e"/>
          </g>
        </g>
        <g id="Grupo_1064425" data-name="Grupo 1064425" transform="translate(5.782 24.449)">
          <g id="Grupo_1064424" data-name="Grupo 1064424">
            <path id="Trazado_782221" data-name="Trazado 782221" d="M47.142,112.026h-.514v-.514a.7.7,0,1,0-1.393,0v.514h-.514a.7.7,0,0,0,0,1.393h.514v.514a.7.7,0,1,0,1.393,0v-.514h.514a.7.7,0,0,0,0-1.393Z" transform="translate(-44.025 -110.815)" fill="#70d6f9"/>
          </g>
        </g>
        <g id="Grupo_1064427" data-name="Grupo 1064427" transform="translate(36.903 52.289)">
          <g id="Grupo_1064426" data-name="Grupo 1064426">
            <path id="Trazado_782222" data-name="Trazado 782222" d="M185.829,237a.745.745,0,1,0,.745.745A.745.745,0,0,0,185.829,237Z" transform="translate(-185.084 -237)" fill="#87d147"/>
          </g>
        </g>
        <g id="Grupo_1064429" data-name="Grupo 1064429" transform="translate(10.428 29.785)">
          <g id="Grupo_1064428" data-name="Grupo 1064428">
            <path id="Trazado_782223" data-name="Trazado 782223" d="M65.829,135a.745.745,0,1,0,.745.745A.745.745,0,0,0,65.829,135Z" transform="translate(-65.084 -135)" fill="#f5c84c"/>
          </g>
        </g>
        <g id="Grupo_1064431" data-name="Grupo 1064431" transform="translate(1.852 21.802)">
          <g id="Grupo_1064430" data-name="Grupo 1064430">
            <path id="Trazado_782224" data-name="Trazado 782224" d="M71.588,108.776l-6.154-9.768a.392.392,0,0,0-.537-.137l-5.354,3.182a.392.392,0,0,0-.137.537l5.344,8.444-8.091,1.888a3.8,3.8,0,0,1-2.547-.293l-2.031-1a3.011,3.011,0,0,1-1.679-2.7v-1.484A8.642,8.642,0,0,1,46.26,108.5c-.12,0-.239-.006-.358-.011l1.245,4.113a1.928,1.928,0,0,0,1.42,1.338,1.959,1.959,0,0,1,1.462,1.347L53.4,126.42a.974.974,0,0,1-.65,1.214l-5.037,1.525a.974.974,0,0,1-1.215-.65l-.291-.96,3.572-1.16a.864.864,0,0,0,.574-1.049.84.84,0,0,0-1.07-.557l1.038-.345a.884.884,0,0,0,.56-1.118l-.008-.025a.884.884,0,0,0-1.118-.56l1.079-.359a.884.884,0,0,0-.558-1.678l-1.079.359a.884.884,0,1,0-.558-1.678l-4.463,1.457-.049-.162-.564-1.863-.435-1.437a1.959,1.959,0,0,1,.469-1.932,1.928,1.928,0,0,0,.44-1.9l-1.664-5.5v.886a3.012,3.012,0,0,1-1.68,2.7l-2.393,1.18-6.77,1.7a4.51,4.51,0,0,0-3.478,3.145l-1.836,8.462a3.484,3.484,0,0,1,1.111-.61l9.377-2.791a.392.392,0,0,1,.5.248l1.964,5.91a.392.392,0,0,1-.248.5l-4.663,1.388v1.365a.819.819,0,0,0,.819.819h22.52a.819.819,0,0,0,.819-.819V121.753a1,1,0,0,1,.707-.958c7.751-2.4,8.028-2.413,9.358-2.96A6.379,6.379,0,0,0,71.588,108.776Z" transform="translate(-26.215 -98.816)" fill="#70d6f9"/>
          </g>
        </g>
        <g id="Grupo_1064433" data-name="Grupo 1064433" transform="translate(21.54 30.429)">
          <g id="Grupo_1064432" data-name="Grupo 1064432">
            <path id="Trazado_782225" data-name="Trazado 782225" d="M121.628,142.1a3.011,3.011,0,0,1-1.68-2.7v-1.484a8.642,8.642,0,0,1-4.143,1.054c-.12,0-.239-.006-.358-.011l1.245,4.113a1.928,1.928,0,0,0,1.42,1.338,1.955,1.955,0,0,1,1.138.725A6.9,6.9,0,0,0,122,142.289Z" transform="translate(-115.448 -137.919)" fill="#f9c1a8"/>
          </g>
        </g>
        <g id="Grupo_1064435" data-name="Grupo 1064435" transform="translate(15.953 31.026)">
          <g id="Grupo_1064434" data-name="Grupo 1064434">
            <path id="Trazado_782226" data-name="Trazado 782226" d="M93.845,146.127l-1.664-5.5v.886a3.012,3.012,0,0,1-1.68,2.7l-.376.185a6.894,6.894,0,0,0,3.568,3.237A1.959,1.959,0,0,0,93.845,146.127Z" transform="translate(-90.125 -140.627)" fill="#f9c1a8"/>
          </g>
        </g>
        <g id="Grupo_1064437" data-name="Grupo 1064437" transform="translate(0.553 45.682)">
          <g id="Grupo_1064436" data-name="Grupo 1064436">
            <path id="Trazado_782227" data-name="Trazado 782227" d="M34.573,213.234l-1.964-5.91a.392.392,0,0,0-.5-.248l-9.377,2.791a3.506,3.506,0,0,0,2.194,6.66l9.395-2.8A.392.392,0,0,0,34.573,213.234Z" transform="translate(-20.326 -207.056)" fill="#70d6f9"/>
          </g>
        </g>
        <g id="Grupo_1064439" data-name="Grupo 1064439" transform="translate(28.66 11.151)">
          <g id="Grupo_1064438" data-name="Grupo 1064438">
            <path id="Trazado_782228" data-name="Trazado 782228" d="M158.754,60.275a4.075,4.075,0,0,1-.572-2.145l.023-1.5a4.061,4.061,0,0,0-.276-1.538,23.161,23.161,0,0,1-.875-2.627.288.288,0,0,0-.3-.22,1.242,1.242,0,0,0-1.166,1.4,13.748,13.748,0,0,0,.425,1.924L153.3,51.049a.884.884,0,1,0-1.52.9l-.581-.978a.884.884,0,0,0-1.52.9l.581.978a.884.884,0,0,0-1.212-.308l-.022.013a.884.884,0,0,0-.308,1.212l.559.94a.84.84,0,0,0-1.174-.28.864.864,0,0,0-.253,1.168l2.11,3.5a7.209,7.209,0,0,0,1.739,1.982l.431.339a7.216,7.216,0,0,1,1.739,1.982l.551.927,4.986-2.964Z" transform="translate(-147.72 -50.542)" fill="#f9c1a8"/>
          </g>
        </g>
        <g id="Grupo_1064441" data-name="Grupo 1064441" transform="translate(12.907 41.797)">
          <g id="Grupo_1064440" data-name="Grupo 1064440">
            <path id="Trazado_782229" data-name="Trazado 782229" d="M90.442,191.89a.884.884,0,0,0-1.118-.56l-1.079.359a.884.884,0,1,0-.558-1.678l-5.022,1.64c.181-.118.351-.233.51-.345l-.564-1.863c-.39.224-.77.431-1.076.593a4.06,4.06,0,0,0-1.215.982l-.963,1.147a4.076,4.076,0,0,1-1.837,1.248l-1.2.4,1.83,5.5,1.023-.34a7.214,7.214,0,0,1,2.612-.36l.548.026a7.211,7.211,0,0,0,2.612-.36l3.883-1.262a.864.864,0,0,0,.574-1.049.84.84,0,0,0-1.07-.557l1.038-.345a.884.884,0,0,0,.56-1.118l-.008-.025a.884.884,0,0,0-1.118-.56l1.079-.359A.885.885,0,0,0,90.442,191.89Z" transform="translate(-76.32 -189.443)" fill="#f9c1a8"/>
          </g>
        </g>
        <g id="Grupo_1064443" data-name="Grupo 1064443" transform="translate(17.857 29.341)">
          <g id="Grupo_1064442" data-name="Grupo 1064442">
            <path id="Trazado_782230" data-name="Trazado 782230" d="M109.935,153.052l-3.369-11.134a1.959,1.959,0,0,0-1.462-1.347,1.927,1.927,0,0,1-1.42-1.338l-1.8-5.937a.433.433,0,0,0-.54-.289l-2.283.691a.433.433,0,0,0-.289.54l1.8,5.937a1.927,1.927,0,0,1-.44,1.9,1.958,1.958,0,0,0-.469,1.932l.435,1.437.564,1.863.049.162,4.463-1.457a.884.884,0,1,1,.558,1.678l1.079-.359a.884.884,0,0,1,.558,1.678l-1.079.359a.884.884,0,0,1,1.118.56l.008.025a.884.884,0,0,1-.56,1.118l-1.038.345a.84.84,0,0,1,1.07.557.864.864,0,0,1-.574,1.049l-3.572,1.16.291.96a.974.974,0,0,0,1.215.65l5.037-1.525a.973.973,0,0,0,.65-1.214Z" transform="translate(-98.757 -132.987)" fill="#87d147"/>
          </g>
        </g>
        <g id="Grupo_1064445" data-name="Grupo 1064445" transform="translate(19.162 39.586)">
          <g id="Grupo_1064444" data-name="Grupo 1064444">
            <path id="Trazado_782231" data-name="Trazado 782231" d="M114.093,187.758l-2.522-8.336-6.9,2.089.037.122.564,1.863.049.162,4.463-1.457a.884.884,0,1,1,.558,1.678l1.079-.359a.884.884,0,0,1,.558,1.678l-1.079.359a.884.884,0,0,1,1.118.56l.008.025a.884.884,0,0,1-.56,1.118l-1.038.345a.84.84,0,0,1,1.07.557.794.794,0,0,1,.016.378Z" transform="translate(-104.669 -179.422)" fill="#fc657e"/>
          </g>
        </g>
        <g id="Grupo_1064447" data-name="Grupo 1064447" transform="translate(36.515 7.79)">
          <g id="Grupo_1064446" data-name="Grupo 1064446">
            <path id="Trazado_782232" data-name="Trazado 782232" d="M186.924,36.873a.234.234,0,0,0-.13-.4l-.863-.125a.234.234,0,0,1-.176-.128l-.386-.782a.234.234,0,0,0-.419,0l-.386.782a.234.234,0,0,1-.176.128l-.863.125a.234.234,0,0,0-.13.4l.625.609a.234.234,0,0,1,.067.207l-.147.86a.234.234,0,0,0,.339.247l.772-.406a.233.233,0,0,1,.218,0l.772.406a.234.234,0,0,0,.339-.247l-.147-.86a.234.234,0,0,1,.067-.207Z" transform="translate(-183.323 -35.308)" fill="#fcdd86"/>
          </g>
        </g>
        <g id="Grupo_1064449" data-name="Grupo 1064449" transform="translate(32.838 0.552)">
          <g id="Grupo_1064448" data-name="Grupo 1064448">
            <path id="Trazado_782233" data-name="Trazado 782233" d="M171.434,4.492a.234.234,0,0,0-.13-.4l-1.27-.184a.234.234,0,0,1-.176-.128L169.29,2.63a.234.234,0,0,0-.419,0L168.3,3.781a.234.234,0,0,1-.176.128l-1.27.184a.234.234,0,0,0-.13.4l.919.9a.234.234,0,0,1,.067.207L167.5,6.86a.234.234,0,0,0,.339.247l1.136-.6a.235.235,0,0,1,.218,0l1.136.6a.234.234,0,0,0,.339-.247L170.447,5.6a.234.234,0,0,1,.067-.207Z" transform="translate(-166.656 -2.5)" fill="#fcdd86"/>
          </g>
        </g>
        <g id="Grupo_1064451" data-name="Grupo 1064451" transform="translate(13.18 12.011)">
          <g id="Grupo_1064450" data-name="Grupo 1064450">
            <path id="Trazado_782234" data-name="Trazado 782234" d="M93.163,58.639a.864.864,0,0,1,.253-1.168.84.84,0,0,1,1.174.28l-.559-.94v0a8.861,8.861,0,0,1-5.752-2.233.469.469,0,0,0-.7.044c-3.184,4-7.881,3.439-9.46,3.108a.465.465,0,0,0-.563.449v7.018a8.74,8.74,0,0,0,4.679,7.717.432.432,0,0,1,.306-.432l2.283-.691a.433.433,0,0,1,.54.289l.552,1.826c.119,0,.237.009.357.009a8.743,8.743,0,0,0,8.717-8.717V61.669Z" transform="translate(-77.558 -54.439)" fill="#f9c1a8"/>
          </g>
        </g>
        <g id="Grupo_1064453" data-name="Grupo 1064453" transform="translate(19.046 23.938)">
          <g id="Grupo_1064452" data-name="Grupo 1064452">
            <path id="Trazado_782235" data-name="Trazado 782235" d="M108.769,108.5h-3.514a1.114,1.114,0,0,0-1.111,1.111v.654a2.868,2.868,0,1,0,5.736,0v-.654A1.115,1.115,0,0,0,108.769,108.5Z" transform="translate(-104.144 -108.5)" fill="#fc657e"/>
          </g>
        </g>
        <g id="Grupo_1064455" data-name="Grupo 1064455" transform="translate(19.046 23.938)">
          <g id="Grupo_1064454" data-name="Grupo 1064454">
            <path id="Trazado_782236" data-name="Trazado 782236" d="M108.769,108.5h-3.514a1.114,1.114,0,0,0-1.111,1.111v.654h5.736v-.654A1.115,1.115,0,0,0,108.769,108.5Z" transform="translate(-104.144 -108.5)" fill="#edf4fc"/>
          </g>
        </g>
        <g id="Grupo_1064457" data-name="Grupo 1064457" transform="translate(10.35 3.89)">
          <g id="Grupo_1064456" data-name="Grupo 1064456">
            <path id="Trazado_782237" data-name="Trazado 782237" d="M83.1,19.359a4.929,4.929,0,0,0-2.544.71,4.985,4.985,0,0,0-4.27-2.437H73.728a9.025,9.025,0,0,0-9,9v4.032a3.615,3.615,0,0,1,2.83-.754v-.419a.465.465,0,0,1,.563-.449c1.579.331,6.276.9,9.46-3.108a.469.469,0,0,1,.7-.044,8.861,8.861,0,0,0,5.752,2.233.884.884,0,0,1,.31-1.209l.022-.013a.884.884,0,0,1,1.212.308l-.581-.978a.884.884,0,1,1,1.52-.9l.581.978A.884.884,0,0,1,88.079,25v-.657A4.994,4.994,0,0,0,83.1,19.359Z" transform="translate(-64.73 -17.632)" fill="#414344"/>
          </g>
        </g>
        <g id="Grupo_1064459" data-name="Grupo 1064459" transform="translate(30.593 19.241)">
          <g id="Grupo_1064458" data-name="Grupo 1064458" transform="translate(0)">
            <path id="Trazado_782238" data-name="Trazado 782238" d="M158.953,89.995l-.431-.339a7.213,7.213,0,0,1-1.739-1.982l-.281-.465v3.525c0,.2-.009.391-.022.585a3.659,3.659,0,0,0,.581.051,3.621,3.621,0,0,0,2.413-.92Q159.225,90.21,158.953,89.995Z" transform="translate(-156.481 -87.208)" fill="#f9c1a8"/>
          </g>
        </g>
        <g id="Grupo_1064461" data-name="Grupo 1064461" transform="translate(8.981 16.122)">
          <g id="Grupo_1064460" data-name="Grupo 1064460">
            <path id="Trazado_782239" data-name="Trazado 782239" d="M62.725,79.717v-6.6a3.641,3.641,0,1,0,.022,7.184h0C62.734,80.108,62.725,79.913,62.725,79.717Z" transform="translate(-58.526 -73.073)" fill="#f9c1a8"/>
          </g>
        </g>
        <g id="Grupo_1064463" data-name="Grupo 1064463" transform="translate(12.628 11.46)">
          <g id="Grupo_1064462" data-name="Grupo 1064462">
            <path id="Trazado_782240" data-name="Trazado 782240" d="M92,54.3a8.309,8.309,0,0,1-5.289-2.068,1.021,1.021,0,0,0-1.515.095,8.832,8.832,0,0,1-8.915,2.912,1.017,1.017,0,0,0-1.227,1v7.012a9.28,9.28,0,0,0,4.867,8.148.552.552,0,0,0,.527-.969,8.177,8.177,0,0,1-4.291-7.179V56.34c1.594.315,6.507.869,9.848-3.257A9.384,9.384,0,0,0,91.922,55.4.552.552,0,1,0,92,54.3Z" transform="translate(-75.057 -51.941)"/>
          </g>
        </g>
        <g id="Grupo_1064465" data-name="Grupo 1064465" transform="translate(21.128 18.788)">
          <g id="Grupo_1064464" data-name="Grupo 1064464">
            <path id="Trazado_782241" data-name="Trazado 782241" d="M123.07,85.156a.552.552,0,0,0-.552.552v3.426a8.175,8.175,0,0,1-8.166,8.166c-.067,0-.133,0-.2,0a.552.552,0,1,0-.036,1.1c.078,0,.157,0,.235,0a9.279,9.279,0,0,0,9.269-9.269V85.708A.551.551,0,0,0,123.07,85.156Z" transform="translate(-113.584 -85.156)"/>
          </g>
        </g>
        <g id="Grupo_1064467" data-name="Grupo 1064467" transform="translate(9.798 3.339)">
          <g id="Grupo_1064466" data-name="Grupo 1064466">
            <path id="Trazado_782242" data-name="Trazado 782242" d="M81.15,16.86a5.48,5.48,0,0,0-2.363.539,5.562,5.562,0,0,0-4.451-2.266H71.779a9.56,9.56,0,0,0-9.55,9.549v3.938a.552.552,0,1,0,1.1,0V24.682a8.456,8.456,0,0,1,8.447-8.446h2.557a4.458,4.458,0,0,1,3.8,2.169.552.552,0,0,0,.757.19,4.413,4.413,0,0,1,6.688,3.8v.48a.552.552,0,0,0,1.1,0v-.48A5.537,5.537,0,0,0,81.15,16.86Z" transform="translate(-62.229 -15.133)"/>
          </g>
        </g>
        <g id="Grupo_1064469" data-name="Grupo 1064469" transform="translate(30.223 22.051)">
          <g id="Grupo_1064468" data-name="Grupo 1064468" transform="translate(0)">
            <path id="Trazado_782243" data-name="Trazado 782243" d="M158.456,100.154a.551.551,0,0,0-.775-.086,3.048,3.048,0,0,1-1.924.677,2.732,2.732,0,0,1-.334-.021.552.552,0,1,0-.131,1.1,3.866,3.866,0,0,0,.465.029,4.14,4.14,0,0,0,2.614-.92A.551.551,0,0,0,158.456,100.154Z" transform="translate(-154.805 -99.947)"/>
          </g>
        </g>
        <g id="Grupo_1064471" data-name="Grupo 1064471" transform="translate(8.429 15.571)">
          <g id="Grupo_1064470" data-name="Grupo 1064470">
            <path id="Trazado_782244" data-name="Trazado 782244" d="M61.175,78.311a.551.551,0,0,0-.615-.481,2.824,2.824,0,0,1-.345.023,3.088,3.088,0,1,1,0-6.176,3.027,3.027,0,0,1,.346.021.552.552,0,0,0,.125-1.1,4.191,4.191,0,1,0-.471,8.355,3.913,3.913,0,0,0,.48-.031A.552.552,0,0,0,61.175,78.311Z" transform="translate(-56.024 -70.574)"/>
          </g>
        </g>
        <g id="Grupo_1064473" data-name="Grupo 1064473" transform="translate(24.911 34.359)">
          <g id="Grupo_1064472" data-name="Grupo 1064472">
            <path id="Trazado_782245" data-name="Trazado 782245" d="M134.116,155.8a.551.551,0,0,0-.747.224A6.341,6.341,0,0,1,131,158.476a.552.552,0,0,0,.559.951,7.445,7.445,0,0,0,2.78-2.882A.552.552,0,0,0,134.116,155.8Z" transform="translate(-130.728 -155.732)"/>
          </g>
        </g>
        <g id="Grupo_1064475" data-name="Grupo 1064475" transform="translate(15.473 34.384)">
          <g id="Grupo_1064474" data-name="Grupo 1064474">
            <path id="Trazado_782246" data-name="Trazado 782246" d="M92.084,158.937a6.352,6.352,0,0,1-3.1-2.8.552.552,0,1,0-.969.528,7.46,7.46,0,0,0,3.637,3.293.552.552,0,0,0,.429-1.017Z" transform="translate(-87.951 -155.845)"/>
          </g>
        </g>
        <g id="Grupo_1064478" data-name="Grupo 1064478" transform="translate(18.494 23.387)">
          <g id="Grupo_1064477" data-name="Grupo 1064477">
            <g id="Grupo_1064476" data-name="Grupo 1064476">
              <path id="Trazado_782247" data-name="Trazado 782247" d="M106.821,106h-3.514a1.665,1.665,0,0,0-1.663,1.663v.654a3.42,3.42,0,0,0,6.839,0v-.654A1.665,1.665,0,0,0,106.821,106Zm.56,2.317a2.317,2.317,0,1,1-4.633,0v-.654a.56.56,0,0,1,.56-.56h3.514a.56.56,0,0,1,.56.56Z" transform="translate(-101.644 -106)"/>
            </g>
          </g>
        </g>
        <g id="Grupo_1064480" data-name="Grupo 1064480" transform="translate(18.619 25.152)">
          <g id="Grupo_1064479" data-name="Grupo 1064479">
            <path id="Trazado_782248" data-name="Trazado 782248" d="M108.243,114H102.76a.552.552,0,1,0,0,1.1h5.484a.552.552,0,1,0,0-1.1Z" transform="translate(-102.208 -114)"/>
          </g>
        </g>
        <g id="Grupo_1064483" data-name="Grupo 1064483" transform="translate(35.963 7.238)">
          <g id="Grupo_1064482" data-name="Grupo 1064482">
            <g id="Grupo_1064481" data-name="Grupo 1064481">
              <path id="Trazado_782249" data-name="Trazado 782249" d="M185.559,34.514a.78.78,0,0,0-.634-.535l-.7-.1-.312-.632a.78.78,0,0,0-.7-.438h0a.781.781,0,0,0-.7.438l-.312.632-.7.1a.785.785,0,0,0-.435,1.34l.505.492-.119.7a.785.785,0,0,0,1.14.828l.624-.328.625.328a.786.786,0,0,0,1.139-.828l-.119-.7.505-.492A.78.78,0,0,0,185.559,34.514Zm-1.595.625a.787.787,0,0,0-.225.694l.039.225-.2-.106a.784.784,0,0,0-.731,0l-.2.106.038-.225a.786.786,0,0,0-.225-.7l-.164-.16.225-.033a.787.787,0,0,0,.592-.43l.1-.2.1.2a.784.784,0,0,0,.592.43l.226.033Z" transform="translate(-180.823 -32.808)"/>
            </g>
          </g>
        </g>
        <g id="Grupo_1064486" data-name="Grupo 1064486" transform="translate(32.286 0)">
          <g id="Grupo_1064485" data-name="Grupo 1064485">
            <g id="Grupo_1064484" data-name="Grupo 1064484">
              <path id="Trazado_782250" data-name="Trazado 782250" d="M170.068,2.134a.781.781,0,0,0-.634-.535l-1.1-.161-.494-1a.78.78,0,0,0-.7-.438h0a.781.781,0,0,0-.7.438l-.494,1-1.1.161a.786.786,0,0,0-.435,1.34l.8.779L165,4.819a.785.785,0,0,0,1.14.828l.988-.519.988.52a.786.786,0,0,0,1.139-.828h0l-.189-1.1.8-.779a.781.781,0,0,0,.2-.8Zm-1.888.911a.785.785,0,0,0-.225.695l.108.63-.566-.3a.785.785,0,0,0-.731,0l-.566.3.108-.631a.787.787,0,0,0-.226-.695l-.458-.446.634-.092a.787.787,0,0,0,.591-.43l.283-.574.283.574a.786.786,0,0,0,.591.43l.633.092Z" transform="translate(-164.155 0)"/>
            </g>
          </g>
        </g>
        <g id="Grupo_1064488" data-name="Grupo 1064488" transform="translate(24.282 18.683)">
          <g id="Grupo_1064487" data-name="Grupo 1064487">
            <path id="Trazado_782251" data-name="Trazado 782251" d="M130.948,86.968l-2.127-2.127a.552.552,0,0,0-.78.78l2.127,2.127a.552.552,0,0,0,.78-.78Z" transform="translate(-127.879 -84.679)"/>
          </g>
        </g>
        <g id="Grupo_1064490" data-name="Grupo 1064490" transform="translate(24.282 18.683)">
          <g id="Grupo_1064489" data-name="Grupo 1064489">
            <path id="Trazado_782252" data-name="Trazado 782252" d="M130.948,84.841a.551.551,0,0,0-.78,0l-2.127,2.127a.552.552,0,0,0,.78.78l2.127-2.127A.551.551,0,0,0,130.948,84.841Z" transform="translate(-127.879 -84.679)"/>
          </g>
        </g>
        <g id="Grupo_1064492" data-name="Grupo 1064492" transform="translate(16.183 18.683)">
          <g id="Grupo_1064491" data-name="Grupo 1064491">
            <path id="Trazado_782253" data-name="Trazado 782253" d="M94.238,86.968l-2.127-2.127a.552.552,0,0,0-.78.78l2.127,2.127a.552.552,0,0,0,.78-.78Z" transform="translate(-91.169 -84.679)"/>
          </g>
        </g>
        <g id="Grupo_1064494" data-name="Grupo 1064494" transform="translate(16.183 18.683)">
          <g id="Grupo_1064493" data-name="Grupo 1064493">
            <path id="Trazado_782254" data-name="Trazado 782254" d="M94.237,84.841a.551.551,0,0,0-.78,0L91.33,86.968a.552.552,0,0,0,.78.78l2.127-2.127A.552.552,0,0,0,94.237,84.841Z" transform="translate(-91.168 -84.679)"/>
          </g>
        </g>
        <g id="Grupo_1064497" data-name="Grupo 1064497" transform="translate(0 45.129)">
          <g id="Grupo_1064496" data-name="Grupo 1064496">
            <g id="Grupo_1064495" data-name="Grupo 1064495">
              <path id="Trazado_782255" data-name="Trazado 782255" d="M33.143,211.106l-1.964-5.91a.938.938,0,0,0-.473-.546.926.926,0,0,0-.7-.057l-9.393,2.8a4.057,4.057,0,0,0-2.575,5.15,4.075,4.075,0,0,0,3.851,2.763,3.99,3.99,0,0,0,1.249-.2l9.412-2.8A.944.944,0,0,0,33.143,211.106ZM22.8,214.049a2.955,2.955,0,0,1-3.567-4.127,2.926,2.926,0,0,1,1.7-1.48l9.241-2.751,1.864,5.607Z" transform="translate(-17.819 -204.548)"/>
            </g>
          </g>
        </g>
        <g id="Grupo_1064499" data-name="Grupo 1064499" transform="translate(28.11 10.599)">
          <g id="Grupo_1064498" data-name="Grupo 1064498">
            <path id="Trazado_782256" data-name="Trazado 782256" d="M157.832,58.962l-.545-.917a3.52,3.52,0,0,1-.494-1.855l.023-1.5a4.6,4.6,0,0,0-.314-1.746,23.026,23.026,0,0,1-.853-2.557.841.841,0,0,0-.861-.64,1.793,1.793,0,0,0-1.626,1.287l-1.334-2.218a1.436,1.436,0,0,0-1.968-.5,1.443,1.443,0,0,0-.283.219,1.436,1.436,0,0,0-2.43,1.444,1.44,1.44,0,0,0-.327.143l-.023.014a1.437,1.437,0,0,0-.615,1.729,1.406,1.406,0,0,0-.323.152,1.421,1.421,0,0,0-.429,1.919l2.108,3.492a7.741,7.741,0,0,0,1.872,2.134l.431.339a6.634,6.634,0,0,1,1.605,1.83l.459.772a.551.551,0,1,0,.948-.564l-.458-.772a7.74,7.74,0,0,0-1.871-2.133l-.431-.339a6.635,6.635,0,0,1-1.607-1.834l-2.108-3.492a.314.314,0,0,1,.075-.421.291.291,0,0,1,.223-.038.287.287,0,0,1,.181.133.552.552,0,0,0,.948-.564h0l-.558-.939a.332.332,0,0,1,.115-.455l.023-.014a.333.333,0,0,1,.455.115h0a.552.552,0,0,0,.948-.564v0l-.58-.976a.332.332,0,1,1,.572-.34l.581.978a.552.552,0,1,0,.948-.564h0a.333.333,0,1,1,.573-.337L153.6,53.91a.552.552,0,0,0,1-.436,13.34,13.34,0,0,1-.409-1.845.682.682,0,0,1,.152-.53.689.689,0,0,1,.289-.207,25.375,25.375,0,0,0,.835,2.453,3.492,3.492,0,0,1,.238,1.329l-.023,1.5a4.627,4.627,0,0,0,.649,2.436l.545.917a.552.552,0,0,0,.949-.563Z" transform="translate(-145.228 -48.041)"/>
          </g>
        </g>
        <g id="Grupo_1064502" data-name="Grupo 1064502" transform="translate(9.338 21.25)">
          <g id="Grupo_1064501" data-name="Grupo 1064501">
            <g id="Grupo_1064500" data-name="Grupo 1064500">
              <path id="Trazado_782257" data-name="Trazado 782257" d="M98.51,106.554l-.013-.021-6.146-9.756a.943.943,0,0,0-1.293-.329L85.7,99.63a.948.948,0,0,0-.321,1.306l4.929,7.788-7.335,1.712a3.255,3.255,0,0,1-2.177-.25l-2.031-1a2.445,2.445,0,0,1-1.372-2.206v-1.335a.552.552,0,1,0-1.1,0v1.335a3.541,3.541,0,0,0,1.987,3.2l2.031,1a4.354,4.354,0,0,0,2.916.335l8.091-1.888a.551.551,0,0,0,.341-.832l-5.25-8.3,5.079-3.019,6.069,9.635a5.828,5.828,0,0,1-2.849,8.263,36.112,36.112,0,0,1-3.618,1.194c-1.245.38-3.027.923-5.693,1.749a1.548,1.548,0,0,0-1.1,1.485v10.373a.268.268,0,0,1-.268.268H61.514a.268.268,0,0,1-.268-.268v-1.194a.552.552,0,1,0-1.1,0v1.194a1.373,1.373,0,0,0,1.371,1.371h22.52a1.373,1.373,0,0,0,1.371-1.371V119.8a.456.456,0,0,1,.319-.431c2.663-.825,4.444-1.369,5.687-1.748a36.624,36.624,0,0,0,3.717-1.229A6.932,6.932,0,0,0,98.51,106.554Z" transform="translate(-60.143 -96.316)"/>
            </g>
          </g>
        </g>
        <g id="Grupo_1064504" data-name="Grupo 1064504" transform="translate(1.316 30.562)">
          <g id="Grupo_1064503" data-name="Grupo 1064503">
            <path id="Trazado_782258" data-name="Trazado 782258" d="M40.475,138.521a.552.552,0,0,0-.552.552v.8a2.445,2.445,0,0,1-1.372,2.206l-2.34,1.154-6.713,1.69a5.005,5.005,0,0,0-3.871,3.521c0,.014-.008.027-.011.041l-1.82,8.391a.552.552,0,0,0,.422.656.566.566,0,0,0,.118.013.552.552,0,0,0,.539-.435l1.816-8.37a3.919,3.919,0,0,1,3.078-2.748l6.77-1.7a.551.551,0,0,0,.109-.04l2.393-1.18a3.54,3.54,0,0,0,1.987-3.2v-.8A.551.551,0,0,0,40.475,138.521Z" transform="translate(-23.783 -138.521)"/>
          </g>
        </g>
        <g id="Grupo_1064506" data-name="Grupo 1064506" transform="translate(39.895 33.536)">
          <g id="Grupo_1064505" data-name="Grupo 1064505">
            <path id="Trazado_782259" data-name="Trazado 782259" d="M200.978,154.231l-1.324-1.986a.552.552,0,0,0-.918.612l1.324,1.986A.552.552,0,0,0,200.978,154.231Z" transform="translate(-198.644 -152)"/>
          </g>
        </g>
        <g id="Grupo_1064508" data-name="Grupo 1064508" transform="translate(12.461 41.245)">
          <g id="Grupo_1064507" data-name="Grupo 1064507">
            <path id="Trazado_782260" data-name="Trazado 782260" d="M89.39,189.767a1.439,1.439,0,0,0-1.567-.968,1.436,1.436,0,0,0-1.882-1.261l-3.927,1.282-.449-1.485a.552.552,0,0,0-.8-.318c-.423.243-.809.451-1.059.583a4.6,4.6,0,0,0-1.38,1.115l-.963,1.147a3.523,3.523,0,0,1-1.588,1.079l-1.095.364a.551.551,0,1,0,.348,1.047l1.095-.364a4.627,4.627,0,0,0,2.085-1.416l.963-1.147a3.5,3.5,0,0,1,1.05-.849c.131-.069.3-.159.49-.263l.248.819-.166.11a.552.552,0,0,0,.472.986l5.025-1.641a.332.332,0,0,1,.21.631.552.552,0,1,0,.348,1.047h0l1.077-.358a.333.333,0,0,1,.421.211.333.333,0,0,1-.21.42l-1.077.358h0a.551.551,0,0,0,.348,1.047h0a.333.333,0,0,1,.42.21l.009.026a.333.333,0,0,1-.21.42l-1.036.344h0a.551.551,0,1,0,.348,1.047.289.289,0,0,1,.368.192.313.313,0,0,1-.216.366l-3.887,1.263a6.624,6.624,0,0,1-2.412.333l-.548-.026a7.709,7.709,0,0,0-2.811.388l-.939.312a.551.551,0,1,0,.348,1.047l.939-.312a6.618,6.618,0,0,1,2.412-.333l.548.026a7.741,7.741,0,0,0,2.808-.387l3.887-1.263a1.42,1.42,0,0,0,.928-1.731,1.4,1.4,0,0,0-.145-.326,1.438,1.438,0,0,0,.668-1.708l-.009-.026a1.436,1.436,0,0,0-.154-.322,1.436,1.436,0,0,0,.675-1.714Z" transform="translate(-74.299 -186.943)"/>
          </g>
        </g>
        <g id="Grupo_1064510" data-name="Grupo 1064510" transform="translate(17.306 28.789)">
          <g id="Grupo_1064509" data-name="Grupo 1064509">
            <path id="Trazado_782261" data-name="Trazado 782261" d="M108.514,150.942l-3.369-11.134a2.51,2.51,0,0,0-1.873-1.727,1.373,1.373,0,0,1-1.008-.959l-1.8-5.937a.985.985,0,0,0-1.227-.657l-2.283.691a.986.986,0,0,0-.657,1.228l1.8,5.937a1.372,1.372,0,0,1-.308,1.357,2.511,2.511,0,0,0-.6,2.475l1,3.3a.552.552,0,0,0,1.056-.32l-1-3.3a1.407,1.407,0,0,1,.337-1.388,2.476,2.476,0,0,0,.572-2.445l-1.762-5.823,2.056-.622,1.762,5.823a2.476,2.476,0,0,0,1.832,1.718,1.408,1.408,0,0,1,1.05.968l3.369,11.135a.423.423,0,0,1-.282.527l-5.038,1.524a.423.423,0,0,1-.527-.282l-.215-.712a.552.552,0,0,0-1.056.319l.216.712a1.525,1.525,0,0,0,1.9,1.018l5.038-1.524a1.526,1.526,0,0,0,1.018-1.9Z" transform="translate(-96.257 -130.485)"/>
          </g>
        </g>
        <g id="Grupo_1064512" data-name="Grupo 1064512" transform="translate(25.549 47.407)">
          <g id="Grupo_1064511" data-name="Grupo 1064511">
            <path id="Trazado_782262" data-name="Trazado 782262" d="M137.06,215.265a.551.551,0,0,0-.687-.368l-2.362.715a.552.552,0,1,0,.319,1.056l2.362-.715A.551.551,0,0,0,137.06,215.265Z" transform="translate(-133.618 -214.872)"/>
          </g>
        </g>
        <g id="Grupo_1064514" data-name="Grupo 1064514" transform="translate(18.807 39.088)">
          <g id="Grupo_1064513" data-name="Grupo 1064513">
            <path id="Trazado_782263" data-name="Trazado 782263" d="M110.665,177.56a.551.551,0,0,0-.687-.368l-6.526,1.975a.551.551,0,1,0,.319,1.056l6.525-1.975A.551.551,0,0,0,110.665,177.56Z" transform="translate(-103.06 -177.168)"/>
          </g>
        </g>
      </g>
    </g>
  </g>
</svg>
