<svg xmlns="http://www.w3.org/2000/svg" width="85" height="85" viewBox="0 0 85 85">
  <g id="Grupo_1064409" data-name="Grupo 1064409" transform="translate(-180 -13314)">
    <g id="Grupo_1064124" data-name="Grupo 1064124" transform="translate(-1114 12750)">
      <g id="Grupo_1044018" data-name="Grupo 1044018" transform="translate(1294 564)">
        <rect id="Rectángulo_34817" data-name="Rectángulo 34817" width="85" height="85" rx="13" fill="#4dcbbf"/>
      </g>
    </g>
    <g id="bebe" transform="translate(192 13307.669)">
      <g id="Grupo_1064407" data-name="Grupo 1064407" transform="translate(1.271 22.602)">
        <g id="Grupo_1064406" data-name="Grupo 1064406" transform="translate(0 5.857)">
          <path id="Trazado_782197" data-name="Trazado 782197" d="M101.086,99.452A24.178,24.178,0,0,0,83.565,81.163a5.962,5.962,0,0,0-3.23,10.973A8.662,8.662,0,0,1,69.071,81.895a24.138,24.138,0,1,0,32.015,17.557Z" transform="translate(-48.249 -81.163)" fill="#f9eacd"/>
          <path id="Trazado_782198" data-name="Trazado 782198" d="M15.75,239.751a24.114,24.114,0,0,1,.538-5.083H15.75a5.083,5.083,0,0,0,0,10.167h.538A24.125,24.125,0,0,1,15.75,239.751Z" transform="translate(-10.667 -216.379)" fill="#f9eacd"/>
          <path id="Trazado_782199" data-name="Trazado 782199" d="M454.155,234.664a24.342,24.342,0,0,1,0,10.167h.538a5.083,5.083,0,1,0,0-10.167Z" transform="translate(-401.316 -216.376)" fill="#f9eacd"/>
        </g>
        <path id="Trazado_782200" data-name="Trazado 782200" d="M192,49.313a8.657,8.657,0,1,1,8.33-11.02,5.963,5.963,0,0,0-5.473,10.536A8.638,8.638,0,0,1,192,49.313Z" transform="translate(-162.769 -31.999)" fill="#7ba9d6"/>
      </g>
      <g id="Grupo_1064408" data-name="Grupo 1064408" transform="translate(0 21.331)">
        <path id="Trazado_782201" data-name="Trazado 782201" d="M107.168,189.09a1.271,1.271,0,0,0-1.725.5l-.025.046a1.271,1.271,0,1,0,2.229,1.221l.025-.046A1.271,1.271,0,0,0,107.168,189.09Z" transform="translate(-92.72 -168.965)" fill="#000003"/>
        <path id="Trazado_782202" data-name="Trazado 782202" d="M61,51.831A6.361,6.361,0,0,0,55.118,45.5,25.422,25.422,0,0,0,39.956,28.23a9.928,9.928,0,0,0-18.91,0A25.465,25.465,0,0,0,5.877,45.5a6.352,6.352,0,0,0,.005,12.669,25.42,25.42,0,0,0,49.235,0A6.361,6.361,0,0,0,61,51.831ZM30.5,23.873a7.421,7.421,0,0,1,6.163,3.316h-.144A7.235,7.235,0,0,0,30.71,38.642l-.21,0a7.386,7.386,0,0,1,0-14.772ZM5.349,55.509a3.813,3.813,0,0,1,0-7.356q-.164,1.134-.226,2.29c0,.011,0,.021,0,.032q-.011.21-.019.421c0,.053,0,.107,0,.16,0,.1-.006.2-.008.3q0,.236,0,.473c0,.192,0,.385.008.577q0,.09,0,.18.006.21.016.42c0,.059.005.119.008.178q.014.262.033.524c.006.082.013.163.02.245q.013.155.028.31c.009.091.018.182.027.273.011.106.024.212.036.318q.025.208.053.416C5.328,55.352,5.338,55.431,5.349,55.509ZM30.5,74.706A22.914,22.914,0,0,1,8.1,56.489c-.02-.094-.038-.189-.056-.283s-.036-.181-.052-.271c-.023-.128-.045-.257-.066-.386-.01-.059-.02-.118-.029-.178-.025-.163-.048-.327-.07-.491,0-.028-.008-.055-.012-.083q-.038-.289-.068-.58v0a23.03,23.03,0,0,1-.124-2.383c0-.18,0-.359.007-.539q0-.088.005-.177.006-.181.014-.362c0-.07.006-.141.01-.211.006-.107.014-.214.021-.321q.02-.277.046-.553c0-.021,0-.042.006-.063A23.011,23.011,0,0,1,20.574,31.219c0,.013,0,.027,0,.04a9.9,9.9,0,0,0,.356,2.628,20.165,20.165,0,0,0-5.963,4.823,1.271,1.271,0,0,0,1.943,1.639,17.639,17.639,0,0,1,5.011-4.108,9.927,9.927,0,0,0,11.858,4.391,1.271,1.271,0,0,0,.27-2.267,4.69,4.69,0,0,1,2.384-8.631,22.865,22.865,0,0,1,16.459,17.4c.029.138.057.275.083.414.014.072.026.145.039.217.02.113.04.226.059.34.011.068.022.136.032.2q.029.191.056.383c.007.053.015.107.022.16q.073.557.118,1.118c0,.043.006.086.009.129q.016.216.029.432c0,.056.006.112.009.168.007.137.012.274.016.411,0,.053,0,.106.005.159,0,.186.007.373.007.559s0,.4-.008.6c0,.031,0,.062,0,.093-.005.17-.011.341-.02.511,0,.03,0,.061-.006.091-.01.17-.02.34-.034.51,0,.034-.006.068-.009.1q-.02.246-.046.492c0,.046-.011.091-.016.137-.017.15-.034.3-.054.45-.008.063-.018.125-.026.187-.018.13-.036.259-.057.388-.013.084-.028.167-.042.251-.018.1-.035.209-.054.313s-.04.211-.061.316c-.015.079-.031.158-.047.237A22.914,22.914,0,0,1,30.5,74.706Zm25.151-19.2c.014-.1.027-.193.039-.289s.027-.2.039-.306q.023-.192.044-.385.013-.126.025-.253.016-.166.03-.332c.006-.077.013-.153.019-.23q.02-.265.034-.53c0-.057.005-.114.008-.171q.01-.213.016-.426,0-.089.005-.178c0-.193.007-.385.007-.578q0-.251-.005-.5c0-.061,0-.122-.005-.183q0-.158-.01-.316c0-.075-.007-.15-.01-.224,0-.091-.009-.181-.014-.271s-.01-.162-.015-.243-.012-.167-.018-.25-.013-.169-.021-.253-.015-.163-.023-.244-.016-.168-.025-.251-.022-.189-.033-.283-.025-.21-.039-.314-.03-.228-.047-.342a3.813,3.813,0,0,1,0,7.356Z" transform="translate(0 -21.331)" fill="#000003"/>
        <path id="Trazado_782203" data-name="Trazado 782203" d="M145.127,261.823a5.083,5.083,0,0,0-9.82,0,1.271,1.271,0,1,0,2.455.658,2.541,2.541,0,0,1,4.91,0,1.271,1.271,0,0,0,2.455-.658Z" transform="translate(-119.147 -229.852)" fill="#000003"/>
        <path id="Trazado_782204" data-name="Trazado 782204" d="M298.535,258.055a5.091,5.091,0,0,0-4.91,3.768,1.271,1.271,0,0,0,2.455.658,2.541,2.541,0,0,1,4.91,0,1.271,1.271,0,1,0,2.455-.658A5.091,5.091,0,0,0,298.535,258.055Z" transform="translate(-258.604 -229.852)" fill="#000003"/>
        <path id="Trazado_782205" data-name="Trazado 782205" d="M223.389,364.2a1.271,1.271,0,0,0-1.557.9,2.541,2.541,0,0,1-4.91,0,1.271,1.271,0,1,0-2.455.658,5.083,5.083,0,0,0,9.82,0A1.271,1.271,0,0,0,223.389,364.2Z" transform="translate(-188.877 -323.311)" fill="#000003"/>
      </g>
    </g>
  </g>
</svg>
