<svg xmlns="http://www.w3.org/2000/svg" xmlns:xlink="http://www.w3.org/1999/xlink" width="68.375" height="68.375" viewBox="0 0 68.375 68.375">
  <defs>
    <clipPath id="clip-path">
      <path id="path8916" d="M0-682.665H41v41H0Z" transform="translate(0 682.665)"/>
    </clipPath>
  </defs>
  <g id="Grupo_1064418" data-name="Grupo 1064418" transform="translate(-600 -13814.3)">
    <g id="Grupo_1063934" data-name="Grupo 1063934" transform="translate(1.589 12934.973)">
      <circle id="Elipse_4807" data-name="Elipse 4807" cx="34.188" cy="34.188" r="34.188" transform="translate(598.411 879.327)" fill="#32cfc0"/>
    </g>
    <g id="g8910" transform="translate(613.688 14509.18)">
      <g id="g8912" transform="translate(0 -682.665)">
        <g id="g8914" clip-path="url(#clip-path)">
          <g id="g8920" transform="translate(15.353 2.275)">
            <path id="path8922" d="M-54.725-54.726a11.938,11.938,0,0,1,16.883,0,11.938,11.938,0,0,1,0,16.883,11.938,11.938,0,0,1-16.883,0,11.938,11.938,0,0,1,0-16.883" transform="translate(58.222 58.223)" fill="#ffe177"/>
          </g>
          <g id="g8924" transform="translate(15.353 2.275)">
            <path id="path8926" d="M-318.961-318.968a11.938,11.938,0,0,1-16.883,0,11.939,11.939,0,0,1,0-16.883,11.937,11.937,0,0,1,16.883,0,11.939,11.939,0,0,1,0,16.883" transform="translate(339.341 339.348)" fill="#ffe177"/>
          </g>
          <g id="g8928" transform="translate(26.385 2.275)">
            <path id="path8930" d="M-146.287-54.725a11.91,11.91,0,0,0-9.347-3.462,11.89,11.89,0,0,1,7.536,3.462,11.939,11.939,0,0,1,0,16.883,11.891,11.891,0,0,1-7.536,3.462,11.911,11.911,0,0,0,9.347-3.462,11.939,11.939,0,0,0,0-16.883" transform="translate(155.634 58.221)" fill="#f7c952"/>
          </g>
          <g id="g8932" transform="translate(18.849 5.772)">
            <path id="path8934" d="M-264.237-264.236a11.938,11.938,0,0,1-16.883,0l9.962-10.6,6.922-6.283a11.939,11.939,0,0,1,0,16.883" transform="translate(281.121 281.119)" fill="#e4f6f9"/>
          </g>
          <g id="g8936" transform="translate(26.385 5.772)">
            <path id="path8938" d="M-146.287,0l-.994.9a11.94,11.94,0,0,1-.816,15.981,11.891,11.891,0,0,1-7.536,3.462,11.911,11.911,0,0,0,9.347-3.462,11.939,11.939,0,0,0,0-16.883" transform="translate(155.634)" fill="#d4f3f6"/>
          </g>
          <g id="g8940" transform="translate(18.849 5.771)">
            <path id="path8942" d="M-264.236,0l-2.534,7.189a11.725,11.725,0,0,1-7.161,7.161l-7.189,2.534,2.677-7.339a11.508,11.508,0,0,1,6.868-6.868Z" transform="translate(281.119)" fill="#a2ade6"/>
          </g>
          <g id="g8944" transform="translate(34.385 5.771)">
            <path id="path8946" d="M-12.757-23.626l.532-1.51-1.347.491a11.985,11.985,0,0,1,.815,1.018" transform="translate(13.572 25.136)" fill="#8795de"/>
          </g>
          <g id="g8948" transform="translate(3.371 3.111)">
            <path id="path8950" d="M-117.1-58.551a3.741,3.741,0,0,1-3.741,3.741,3.741,3.741,0,0,1-3.741-3.741,3.741,3.741,0,0,1,3.741-3.741,3.741,3.741,0,0,1,3.741,3.741" transform="translate(124.582 62.292)" fill="#d88a55"/>
          </g>
          <g id="g8952" transform="translate(6.207 3.111)">
            <path id="path8954" d="M-14.168,0a3.748,3.748,0,0,0-.905.111,3.742,3.742,0,0,1,2.836,3.63,3.742,3.742,0,0,1-2.836,3.63,3.752,3.752,0,0,0,.905.111,3.741,3.741,0,0,0,3.741-3.741A3.741,3.741,0,0,0-14.168,0" transform="translate(15.073)" fill="#c57a44"/>
          </g>
          <g id="g8956" transform="translate(16.258 3.111)">
            <path id="path8958" d="M-117.1-58.551a3.741,3.741,0,0,1-3.741,3.741,3.741,3.741,0,0,1-3.741-3.741,3.741,3.741,0,0,1,3.741-3.741,3.741,3.741,0,0,1,3.741,3.741" transform="translate(124.584 62.292)" fill="#d88a55"/>
          </g>
          <g id="g8960" transform="translate(19.094 3.111)">
            <path id="path8962" d="M-14.168,0a3.748,3.748,0,0,0-.905.111,3.742,3.742,0,0,1,2.836,3.63,3.742,3.742,0,0,1-2.836,3.63,3.752,3.752,0,0,0,.905.111,3.741,3.741,0,0,0,3.741-3.741A3.741,3.741,0,0,0-14.168,0" transform="translate(15.073)" fill="#c57a44"/>
          </g>
          <g id="g8964" transform="translate(5.94 14.595)">
            <path id="path8966" d="M-93.681,0h3.26a4.983,4.983,0,0,1,4.828,3.75l1.157,4.531H-99.666l1.157-4.531A4.983,4.983,0,0,1-93.681,0" transform="translate(99.666)" fill="#d88a55"/>
          </g>
          <g id="g8968" transform="translate(13.375 14.595)">
            <path id="path8970" d="M-103.9-58.691a4.983,4.983,0,0,0-4.828-3.75h-1.811a4.983,4.983,0,0,1,4.828,3.75l1.157,4.531h1.811Z" transform="translate(110.542 62.441)" fill="#c57a44"/>
          </g>
          <g id="g8972" transform="translate(0.601 18.684)">
            <path id="path8974" d="M-600.517-313.658h-36.942a1.428,1.428,0,0,1-1.428-1.428V-333.7h39.8v18.613a1.428,1.428,0,0,1-1.428,1.428" transform="translate(638.886 333.699)" fill="#ffe5c2"/>
          </g>
          <g id="g8976" transform="translate(37.16 18.684)">
            <path id="path8978" d="M-22.349,0V18.613a1.428,1.428,0,0,1-1.428,1.428h1.81a1.428,1.428,0,0,0,1.428-1.428V0Z" transform="translate(23.777)" fill="#fed2a4"/>
          </g>
          <g id="g8980" transform="translate(0.601 12.778)">
            <path id="path8982" d="M-27.417,0h0a1.752,1.752,0,0,0-1.752,1.752V5.905h3.5V1.752A1.752,1.752,0,0,0-27.417,0" transform="translate(29.169)" fill="#ffe5c2"/>
          </g>
          <g id="g8984" transform="translate(1.447 12.778)">
            <path id="path8986" d="M-14.168,0h0a1.742,1.742,0,0,0-.905.252,1.751,1.751,0,0,1,.847,1.5V5.905h1.81V1.752A1.752,1.752,0,0,0-14.168,0" transform="translate(15.073)" fill="#fed2a4"/>
          </g>
          <g id="g8988" transform="translate(36.895 12.778)">
            <path id="path8990" d="M-27.417,0h0a1.752,1.752,0,0,0-1.752,1.752V5.905h3.5V1.752A1.752,1.752,0,0,0-27.417,0" transform="translate(29.169)" fill="#ffe5c2"/>
          </g>
          <g id="g8992" transform="translate(37.741 12.778)">
            <path id="path8994" d="M-14.168,0h0a1.742,1.742,0,0,0-.905.252,1.751,1.751,0,0,1,.847,1.5V5.905h1.811V1.752A1.752,1.752,0,0,0-14.168,0" transform="translate(15.073)" fill="#fed2a4"/>
          </g>
          <g id="g8996" transform="translate(3.877 26.024)">
            <path id="path8998" d="M-119.476-131.018h-6.956a.678.678,0,0,1-.678-.678v-7.016a.678.678,0,0,1,.678-.678h7.634v7.694a.678.678,0,0,1-.678.678" transform="translate(127.11 139.389)" fill="#fe72c5"/>
          </g>
          <g id="g9000" transform="translate(9.7 26.024)">
            <path id="path9002" d="M-10.6,0V7.694a.677.677,0,0,1-.678.678h1.811a.678.678,0,0,0,.678-.678V0Z" transform="translate(11.281)" fill="#fe4fb7"/>
          </g>
          <g id="g9004" transform="translate(12.188 22.872)">
            <path id="path9006" d="M-130.08-131.018h-8.311v-7.694a.678.678,0,0,1,.678-.678h6.956a.678.678,0,0,1,.678.678Z" transform="translate(138.392 139.389)" fill="#97da7b"/>
          </g>
          <g id="g9008" transform="translate(18.012 22.872)">
            <path id="path9010" d="M-28.335,0h-1.81a.677.677,0,0,1,.677.678V8.371h1.811V.678A.678.678,0,0,0-28.335,0" transform="translate(30.145)" fill="#79cf59"/>
          </g>
          <g id="g9012" transform="translate(20.499 26.024)">
            <path id="path9014" d="M-119.476-131.018h-6.956a.678.678,0,0,1-.678-.678v-7.694h8.311v7.694a.678.678,0,0,1-.678.678" transform="translate(127.11 139.389)" fill="#a6e7f0"/>
          </g>
          <g id="g9016" transform="translate(26.323 26.024)">
            <path id="path9018" d="M-10.6,0V7.694a.678.678,0,0,1-.678.678h1.811a.678.678,0,0,0,.678-.678V0Z" transform="translate(11.281)" fill="#6bd9e7"/>
          </g>
          <g id="g9020" transform="translate(28.811 22.872)">
            <path id="path9022" d="M-119.476-131.018h-7.634v-7.694a.678.678,0,0,1,.678-.678h6.956a.678.678,0,0,1,.678.678v7.016a.678.678,0,0,1-.678.678" transform="translate(127.11 139.389)" fill="#a2ade6"/>
          </g>
          <g id="g9024" transform="translate(34.634 22.872)">
            <path id="path9026" d="M-28.336,0h-1.811a.678.678,0,0,1,.678.678V7.694a.678.678,0,0,1-.678.678h1.811a.678.678,0,0,0,.678-.678V.678A.678.678,0,0,0-28.336,0" transform="translate(30.147)" fill="#8795de"/>
          </g>
          <g id="g9028" transform="translate(6.883 5.431)">
            <path id="path9030" d="M-147.571-143.422h-5.513A3.916,3.916,0,0,1-157-147.338v-1.333a3.915,3.915,0,0,1,3.915-3.916h5.513a3.916,3.916,0,0,1,3.916,3.916v1.333a3.916,3.916,0,0,1-3.916,3.916" transform="translate(157 152.586)" fill="#d88a55"/>
          </g>
          <g id="g9032" transform="translate(14.502 5.431)">
            <path id="path9034" d="M-28.336,0h-1.811a3.916,3.916,0,0,1,3.916,3.916V5.248a3.916,3.916,0,0,1-3.916,3.916h1.811a3.916,3.916,0,0,0,3.916-3.916V3.916A3.916,3.916,0,0,0-28.336,0" transform="translate(30.147)" fill="#c57a44"/>
          </g>
          <g id="g9036" transform="translate(6.283 4.83)">
            <path id="path9038" d="M-156.97-152.221h-5.513A4.521,4.521,0,0,1-167-156.737v-1.333a4.521,4.521,0,0,1,4.516-4.516h5.513a4.521,4.521,0,0,1,4.516,4.516v1.333A4.521,4.521,0,0,1-156.97-152.221Zm-5.513-9.164a3.319,3.319,0,0,0-3.315,3.315v1.333a3.319,3.319,0,0,0,3.315,3.315h5.513a3.319,3.319,0,0,0,3.315-3.315v-1.333a3.319,3.319,0,0,0-3.315-3.315Z" transform="translate(167 162.586)"/>
          </g>
          <g id="g9040" transform="translate(2.771 2.51)">
            <path id="path9042" d="M-64.367-125.79H-64.4a4.345,4.345,0,0,1-4.077-4.333,4.346,4.346,0,0,1,4.341-4.342,4.326,4.326,0,0,1,4.02,2.7.6.6,0,0,1-.329.783.6.6,0,0,1-.783-.329,3.129,3.129,0,0,0-2.908-1.953,3.144,3.144,0,0,0-3.14,3.141,3.142,3.142,0,0,0,2.948,3.134.6.6,0,0,1,.563.635A.6.6,0,0,1-64.367-125.79Z" transform="translate(68.48 134.466)"/>
          </g>
          <g id="g9044" transform="translate(15.934 2.51)">
            <path id="path9046" d="M-67.2-125.79a.6.6,0,0,1-.6-.565.6.6,0,0,1,.563-.635,3.142,3.142,0,0,0,2.947-3.134,3.144,3.144,0,0,0-3.141-3.141,3.129,3.129,0,0,0-2.908,1.953.6.6,0,0,1-.783.329.6.6,0,0,1-.329-.783,4.326,4.326,0,0,1,4.02-2.7,4.347,4.347,0,0,1,4.342,4.342,4.345,4.345,0,0,1-4.077,4.333Z" transform="translate(71.496 134.466)"/>
          </g>
          <g id="g9048" transform="translate(6.41 13.995)">
            <path id="path9050" d="M-227.347-72.79a.6.6,0,0,1-.149-.019.6.6,0,0,1-.433-.73l.086-.339a5.581,5.581,0,0,1,5.41-4.2h3.259a5.581,5.581,0,0,1,5.41,4.2l.086.339a.6.6,0,0,1-.433.73.6.6,0,0,1-.73-.433l-.086-.339a4.38,4.38,0,0,0-4.247-3.3h-3.259a4.38,4.38,0,0,0-4.247,3.3l-.086.339A.6.6,0,0,1-227.347-72.79Z" transform="translate(227.948 78.08)"/>
          </g>
          <g id="g9052" transform="translate(12.955 11.454)">
            <path id="path9054" d="M-9.4-6.258a.6.6,0,0,1-.6-.6V-9.4a.6.6,0,0,1,.6-.6.6.6,0,0,1,.6.6v2.541A.6.6,0,0,1-9.4-6.258Z" transform="translate(10 10)"/>
          </g>
          <g id="g9056" transform="translate(24.009 1.669)">
            <path id="path9058" d="M5.138-3.347a.6.6,0,0,1-.6-.533A11.213,11.213,0,0,0,1.3-10.6,11.284,11.284,0,0,0-9.267-13.636a.6.6,0,0,1-.72-.451.6.6,0,0,1,.451-.72A12.478,12.478,0,0,1,2.145-11.453a12.4,12.4,0,0,1,3.59,7.437.6.6,0,0,1-.529.665A.608.608,0,0,1,5.138-3.347Z" transform="translate(10.002 15.131)"/>
          </g>
          <g id="g9060" transform="translate(19.697 5.171)">
            <path id="path9062" d="M-151.667-210.886a.6.6,0,0,1-.206-.037.6.6,0,0,1-.358-.77l1.228-3.368a12.084,12.084,0,0,1,7.227-7.226l7.338-2.677a.6.6,0,0,1,.628.137.6.6,0,0,1,.144.627l-2.534,7.189a12.248,12.248,0,0,1-4.58,6.017.6.6,0,0,1-.836-.15.6.6,0,0,1,.15-.836,11.054,11.054,0,0,0,4.134-5.43l2.111-5.989-6.143,2.241a10.885,10.885,0,0,0-6.51,6.509l-1.228,3.368A.6.6,0,0,1-151.667-210.886Z" transform="translate(152.268 225)"/>
          </g>
          <g id="g9064" transform="translate(0 18.083)">
            <path id="path9066" d="M-534.416-322.457h-1.723a.6.6,0,0,1-.6-.6.6.6,0,0,1,.6-.6h1.723a.828.828,0,0,0,.828-.827V-342.5h-38.6v18.012a.828.828,0,0,0,.828.827h32.407a.6.6,0,0,1,.6.6.6.6,0,0,1-.6.6h-32.407a2.031,2.031,0,0,1-2.029-2.029V-343.1a.6.6,0,0,1,.6-.6h39.8a.6.6,0,0,1,.6.6v18.613A2.031,2.031,0,0,1-534.416-322.457Z" transform="translate(573.387 343.699)"/>
          </g>
          <g id="g9068" transform="translate(0 12.178)">
            <path id="path9070" d="M-36.817-10a2.355,2.355,0,0,1,2.352,2.352v4.153a.6.6,0,0,1-.6.6h-3.5a.6.6,0,0,1-.6-.6V-7.648A2.355,2.355,0,0,1-36.817-10Zm1.151,5.905V-7.648A1.153,1.153,0,0,0-36.817-8.8a1.153,1.153,0,0,0-1.151,1.151v3.553Z" transform="translate(39.169 10)"/>
          </g>
          <g id="g9072" transform="translate(36.294 12.178)">
            <path id="path9074" d="M-36.817-10a2.355,2.355,0,0,1,2.352,2.352v4.153a.6.6,0,0,1-.6.6h-3.5a.6.6,0,0,1-.6-.6V-7.648A2.355,2.355,0,0,1-36.817-10Zm1.151,5.905V-7.648A1.153,1.153,0,0,0-36.817-8.8a1.153,1.153,0,0,0-1.151,1.151v3.553Z" transform="translate(39.169 10)"/>
          </g>
          <g id="g9076" transform="translate(31.041 24.417)">
            <path id="path9078" d="M-49.857-11.7a2.514,2.514,0,0,1-1.867-.8.6.6,0,0,1,.042-.848.6.6,0,0,1,.848.042,1.33,1.33,0,0,0,.977.408.607.607,0,0,0,.624-.389c.043-.243-.354-.409-.477-.455-.636-.234-1.2-.486-1.224-.5a.6.6,0,0,1-.083-.045,1.387,1.387,0,0,1-.619-1.373,1.525,1.525,0,0,1,1.1-1.233,2.474,2.474,0,0,1,2.156.471.6.6,0,0,1,.073.846.6.6,0,0,1-.842.076,1.268,1.268,0,0,0-1.04-.243c-.212.064-.253.2-.261.253a.193.193,0,0,0,.059.175c.155.068.608.262,1.094.442a1.622,1.622,0,0,1,1.244,1.793A1.773,1.773,0,0,1-49.857-11.7Z" transform="translate(51.88 16.982)"/>
          </g>
          <g id="g9080" transform="translate(22.696 27.654)">
            <path id="path9082" d="M-8.1-6.8a.6.6,0,0,1-.5-.272l-1.3-2A.6.6,0,0,1-9.729-9.9a.6.6,0,0,1,.831.175L-8.1-8.5l.79-1.214a.6.6,0,0,1,.831-.176.6.6,0,0,1,.176.831L-7.594-7.076a.6.6,0,0,1-.5.273Z" transform="translate(10.001 10.001)"/>
          </g>
          <g id="g9084" transform="translate(23.994 29.65)">
            <path id="path9086" d="M-9.4-41.424h0a.6.6,0,0,1-.6-.6l.005-2.085a.6.6,0,0,1,.6-.6.6.6,0,0,1,.6.6L-8.8-42.023A.6.6,0,0,1-9.4-41.424Z" transform="translate(10 44.709)"/>
          </g>
          <g id="g9088" transform="translate(6.305 27.654)">
            <path id="path9090" d="M-7.146-8.8H-9.4a.6.6,0,0,1-.6-.6.6.6,0,0,1,.6-.6h2.254a.6.6,0,0,1,.6.6A.6.6,0,0,1-7.146-8.8Z" transform="translate(10 10)"/>
          </g>
          <g id="g9092" transform="translate(7.427 27.784)">
            <path id="path9094" d="M-9.4-4.848a.6.6,0,0,1-.6-.6V-9.4a.6.6,0,0,1,.6-.6.6.6,0,0,1,.6.6v3.951A.6.6,0,0,1-9.4-4.848Z" transform="translate(10 10)"/>
          </g>
          <g id="g9096" transform="translate(13.703 24.417)">
            <path id="path9098" d="M-75.308-43.973a2.644,2.644,0,0,1,2.641,2.641,2.644,2.644,0,0,1-2.641,2.641,2.644,2.644,0,0,1-2.641-2.641A2.644,2.644,0,0,1-75.308-43.973Zm0,4.081a1.441,1.441,0,0,0,1.44-1.44,1.441,1.441,0,0,0-1.44-1.44,1.441,1.441,0,0,0-1.44,1.44A1.442,1.442,0,0,0-75.308-39.892Z" transform="translate(77.949 43.973)"/>
          </g>
          <g id="g9100" transform="translate(3.276 25.423)">
            <path id="path9102" d="M-128.876-139.816h-6.956a1.28,1.28,0,0,1-1.278-1.278v-7.016a1.28,1.28,0,0,1,1.278-1.278h7.634a.6.6,0,0,1,.6.6v7.694A1.28,1.28,0,0,1-128.876-139.816Zm-6.956-8.371a.077.077,0,0,0-.077.077v7.016a.077.077,0,0,0,.077.077h6.956a.077.077,0,0,0,.077-.077v-7.093Z" transform="translate(137.11 149.389)"/>
          </g>
          <g id="g9104" transform="translate(11.587 22.271)">
            <path id="path9106" d="M-139.48-139.816h-8.311a.6.6,0,0,1-.6-.6v-7.694a1.28,1.28,0,0,1,1.278-1.278h6.956a1.28,1.28,0,0,1,1.278,1.278v7.694A.6.6,0,0,1-139.48-139.816Zm-7.711-1.2h7.11v-7.093a.077.077,0,0,0-.077-.077h-6.956a.077.077,0,0,0-.077.077Z" transform="translate(148.392 149.389)"/>
          </g>
          <g id="g9108" transform="translate(19.899 25.423)">
            <path id="path9110" d="M-48.529-.428h-6.956a1.28,1.28,0,0,1-1.278-1.278V-9.4a.6.6,0,0,1,.6-.6.6.6,0,0,1,.6.6v7.694a.077.077,0,0,0,.077.077h6.956a.077.077,0,0,0,.077-.077V-8.8h-4.9a.6.6,0,0,1-.6-.6.6.6,0,0,1,.6-.6h5.5a.6.6,0,0,1,.6.6v7.694A1.28,1.28,0,0,1-48.529-.428Z" transform="translate(56.764 10)"/>
          </g>
          <g id="g9112" transform="translate(28.21 22.271)">
            <path id="path9114" d="M-128.876-139.816h-7.634a.6.6,0,0,1-.6-.6v-7.694a1.28,1.28,0,0,1,1.278-1.278h6.956a1.28,1.28,0,0,1,1.278,1.278v7.016A1.28,1.28,0,0,1-128.876-139.816Zm-7.033-1.2h7.033a.077.077,0,0,0,.077-.077v-7.016a.077.077,0,0,0-.077-.077h-6.956a.077.077,0,0,0-.077.077Z" transform="translate(137.11 149.389)"/>
          </g>
          <g id="g9116" transform="translate(9.353 9.978)">
            <path id="path9118" d="M-19.235-9.617A.615.615,0,0,1-19.849-9a.615.615,0,0,1-.615-.615.615.615,0,0,1,.615-.615.615.615,0,0,1,.615.615" transform="translate(20.464 10.232)"/>
          </g>
          <g id="g9120" transform="translate(16.601 9.978)">
            <path id="path9122" d="M-19.234-9.617A.615.615,0,0,1-19.848-9a.615.615,0,0,1-.614-.615.615.615,0,0,1,.614-.615.615.615,0,0,1,.615.615" transform="translate(20.463 10.232)"/>
          </g>
          <g id="g9124" transform="translate(11.988 11.454)">
            <path id="path9126" d="M-7.458-8.8H-9.4a.6.6,0,0,1-.6-.6.6.6,0,0,1,.6-.6h1.942a.6.6,0,0,1,.6.6A.6.6,0,0,1-7.458-8.8Z" transform="translate(10 10)"/>
          </g>
        </g>
      </g>
    </g>
  </g>
</svg>
