<svg xmlns="http://www.w3.org/2000/svg" width="400" height="132.999" viewBox="0 0 400 132.999">
  <g id="Grupo_1064405" data-name="Grupo 1064405" transform="translate(-180 -12588.001)">
    <rect id="Rectángulo_373404" data-name="Rectángulo 373404" width="400" height="94" transform="translate(180 12610)" fill="#b8bfe8"/>
    <g id="_x32_0" transform="translate(278.047 12577.527)">
      <g id="Grupo_1064379" data-name="Grupo 1064379" transform="translate(134.995 65.971)">
        <g id="Grupo_1064378" data-name="Grupo 1064378">
          <path id="Trazado_782180" data-name="Trazado 782180" d="M40.12,44.979v.042q-.747,1.431-1.245,2.614c-.913-.5-1.826-.913-2.7-1.369h-.042a38.2,38.2,0,0,1-.5-20.83,2.073,2.073,0,1,1,4.025,1A33.656,33.656,0,0,0,40.12,44.979Z" transform="translate(-34.439 -23.848)" fill="#ee8778"/>
        </g>
      </g>
      <g id="Grupo_1064381" data-name="Grupo 1064381" transform="translate(119.573 68.901)">
        <g id="Grupo_1064380" data-name="Grupo 1064380" transform="translate(0)">
          <path id="Trazado_782181" data-name="Trazado 782181" d="M35.726,40.432a28.669,28.669,0,0,0-4.149-.29,35.176,35.176,0,0,0-.788-13.029,2.073,2.073,0,0,1,4.025-1A39.672,39.672,0,0,1,35.726,40.432Z" transform="translate(-30.722 -24.555)" fill="#ee8778"/>
        </g>
      </g>
      <g id="Grupo_1064382" data-name="Grupo 1064382" transform="translate(93.456 17.061)">
        <path id="Trazado_782182" data-name="Trazado 782182" d="M41.523,26.584v.042a17.509,17.509,0,1,1,0-.042Z" transform="translate(-24.428 -12.061)" fill="#ffaf93"/>
      </g>
      <g id="Grupo_1064384" data-name="Grupo 1064384" transform="translate(2.513 29.264)">
        <g id="Grupo_1064383" data-name="Grupo 1064383">
          <path id="Trazado_782183" data-name="Trazado 782183" d="M199.938,74.69c-10.749,28.928-29.96,36.6-52.5,26.536a6.494,6.494,0,0,0-8.358,3c-18.442,34.046-67.156,32.83-84.436-1.055a6.456,6.456,0,0,0-7.993-2.921C24.164,108.5-.133,90.3,2.744,65.56A32.9,32.9,0,0,1,32.728,36.671a10.039,10.039,0,0,0,7.06-3.692c14.282-17.772,37.248-9.373,46.458-4.95a8.064,8.064,0,0,0,8.2-.771c34.407-24.588,54.614-6.086,61.674,3a8.669,8.669,0,0,0,7.953,3.246C186,30.755,199.026,42.1,201.439,63A25.337,25.337,0,0,1,199.938,74.69Z" transform="translate(-2.511 -15.002)" fill="#deddff"/>
        </g>
      </g>
      <g id="Grupo_1064386" data-name="Grupo 1064386" transform="translate(2.51 52.04)">
        <g id="Grupo_1064385" data-name="Grupo 1064385">
          <path id="Trazado_782184" data-name="Trazado 782184" d="M125.821,102.357A47.738,47.738,0,0,1,54.659,85.885a6.479,6.479,0,0,0-8.008-2.9C24.212,91.227-.185,72.959,2.751,48.292a33.015,33.015,0,0,1,23.734-27.8C5.069,38.7,15.3,74.538,44.037,77.959a32.782,32.782,0,0,0,15.1-1.743,6.479,6.479,0,0,1,8.008,2.9A47.786,47.786,0,0,0,125.821,102.357Z" transform="translate(-2.51 -20.491)" fill="#c6c6f7"/>
        </g>
      </g>
      <g id="Grupo_1064388" data-name="Grupo 1064388" transform="translate(68.892 42.372)">
        <g id="Grupo_1064387" data-name="Grupo 1064387">
          <path id="Trazado_782185" data-name="Trazado 782185" d="M123.03,45.464a43.092,43.092,0,0,1-.747,6.182C107.957,49.206,98.147,57.459,93.694,70.9a3.072,3.072,0,0,1-4.606,1.867c-25.726-15.809-39.336,3.278-39.917,4.108a3.078,3.078,0,0,1-5.269-.249,57.663,57.663,0,0,0-8.714-12.282,35.846,35.846,0,0,0-16.68-10.456,72.36,72.36,0,0,0,9.128-3.112c11.452-4.689,26.8-14.149,30.332-31.742l.166-.871.581.705c8.682,8.682,19.293,9.878,29.834,5.477a32.331,32.331,0,0,1,16.473-2.573C117.2,23.266,123.959,31.071,123.03,45.464Z" transform="translate(-18.508 -18.161)" fill="#ffaf93"/>
        </g>
      </g>
      <g id="Grupo_1064389" data-name="Grupo 1064389" transform="translate(43.249 66.148)">
        <path id="Trazado_782186" data-name="Trazado 782186" d="M31,33.186a8.218,8.218,0,0,1-.124,1.452,42.181,42.181,0,0,0-11.95,1.079,48.177,48.177,0,0,0-5.6,1.618,8.755,8.755,0,0,1-1-4.149,7.524,7.524,0,0,1,.29-2.158,9.31,9.31,0,0,1,17.012-2.656A9.053,9.053,0,0,1,31,33.186Z" transform="translate(-12.328 -23.891)" fill="#ee8778"/>
      </g>
      <g id="Grupo_1064390" data-name="Grupo 1064390" transform="translate(68.892 42.372)">
        <path id="Trazado_782187" data-name="Trazado 782187" d="M68.051,25.173a21.409,21.409,0,0,1-2.531,7.1C60.5,41.314,51.952,53.721,40.043,61.563a46.094,46.094,0,0,1-4.855,2.78,35.846,35.846,0,0,0-16.68-10.456,72.36,72.36,0,0,0,9.128-3.112c11.452-4.689,26.8-14.149,30.332-31.742l.166-.871.581.705A23.976,23.976,0,0,0,68.051,25.173Z" transform="translate(-18.508 -18.161)" fill="#ee8778"/>
      </g>
      <g id="Grupo_1064391" data-name="Grupo 1064391" transform="translate(93.456 18.43)">
        <path id="Trazado_782188" data-name="Trazado 782188" d="M41.523,25.544v.042A9.35,9.35,0,1,1,28.868,12.391C30.636,13.907,33.127,16.705,41.523,25.544Z" transform="translate(-24.428 -12.391)" fill="#ee8778"/>
      </g>
      <g id="Grupo_1064392" data-name="Grupo 1064392" transform="translate(36.197 10.473)">
        <path id="Trazado_782189" data-name="Trazado 782189" d="M86.725,54.447C81.788,63.285,73.7,74.986,62.576,82.289a48.373,48.373,0,0,1-5.726,3.237C48.2,77.925,37.155,75,24.278,77.973a53.884,53.884,0,0,1-4.4-5.311c-6.722-9.046-16.431-27.759-1-45.933,0,0,.415-.581,1.245-1.535a55.616,55.616,0,0,1,5.809-5.643c8.879-7.386,25.228-15.809,43.9-.539,2.306,1.829,3.815,3.69,14.274,14.647A17.626,17.626,0,0,1,86.725,54.447Z" transform="translate(-10.629 -10.473)" fill="#ffaf93"/>
      </g>
      <g id="Grupo_1064393" data-name="Grupo 1064393" transform="translate(45.697 20.048)">
        <path id="Trazado_782190" data-name="Trazado 782190" d="M33.748,26.64c-7.128,7.128-18.931,2.046-20.83-8.714a44.272,44.272,0,0,1,5.27-5.145A10.487,10.487,0,0,0,36.86,14.648,11.66,11.66,0,0,1,33.748,26.64Z" transform="translate(-12.918 -12.781)" fill="#5b5e8b"/>
      </g>
      <g id="Grupo_1064394" data-name="Grupo 1064394" transform="translate(36.209 28.804)">
        <path id="Trazado_782191" data-name="Trazado 782191" d="M85.886,41.945c-4.979,8.631-12.78,19.5-23.319,26.431a48.37,48.37,0,0,1-5.726,3.237c-8.648-7.6-19.695-10.523-32.572-7.552a53.883,53.883,0,0,1-4.4-5.311C13.4,50.036,4.185,32.4,17.256,14.891c-7.635,15.56.332,30.456,6.1,38.215a53.905,53.905,0,0,0,4.4,5.311c12.03-2.777,23.3-.6,32.572,7.552a48.428,48.428,0,0,0,5.726-3.237C74.392,57.256,81.031,49.289,85.886,41.945Z" transform="translate(-10.632 -14.891)" fill="#ee8778"/>
      </g>
      <g id="Grupo_1064396" data-name="Grupo 1064396" transform="translate(56.145 51.425)">
        <g id="Grupo_1064395" data-name="Grupo 1064395">
          <path id="Trazado_782192" data-name="Trazado 782192" d="M17.1,32.575a1.66,1.66,0,0,1-.045-3.319c.235-.008,5.422-.3,7.579-7.713a1.661,1.661,0,0,1,3.189.928c-2.871,9.859-10.377,10.1-10.7,10.1Z" transform="translate(-15.436 -20.343)" fill="#ee8778"/>
        </g>
      </g>
      <g id="Grupo_1064398" data-name="Grupo 1064398" transform="translate(81.712 54.352)">
        <g id="Grupo_1064397" data-name="Grupo 1064397">
          <path id="Trazado_782193" data-name="Trazado 782193" d="M23.257,34.745a1.66,1.66,0,0,1-.043-3.319c.265-.008,6.5-.324,9.081-9.178a1.646,1.646,0,0,1,2.058-1.131,1.663,1.663,0,0,1,1.131,2.058C32.2,34.466,23.648,34.739,23.286,34.745Z" transform="translate(-21.598 -21.048)" fill="#ee8778"/>
        </g>
      </g>
      <g id="Grupo_1064400" data-name="Grupo 1064400" transform="translate(76.286 49.89)">
        <g id="Grupo_1064399" data-name="Grupo 1064399">
          <path id="Trazado_782194" data-name="Trazado 782194" d="M21.99,28.677a1.66,1.66,0,0,1-1.639-1.41,6.978,6.978,0,0,1,1.319-5.128,6.264,6.264,0,0,1,4.779-2.16,1.636,1.636,0,0,1,1.738,1.576,1.659,1.659,0,0,1-1.576,1.738,3.124,3.124,0,0,0-2.372.948,3.764,3.764,0,0,0-.606,2.526A1.66,1.66,0,0,1,21.99,28.677Z" transform="translate(-20.29 -19.973)" fill="#ee8778"/>
        </g>
      </g>
      <g id="Grupo_1064402" data-name="Grupo 1064402" transform="translate(78.138 30.331)">
        <g id="Grupo_1064401" data-name="Grupo 1064401">
          <path id="Trazado_782195" data-name="Trazado 782195" d="M22.4,27.492a1.66,1.66,0,0,1-.045-3.319c.235-.008,5.424-.3,7.581-7.713a1.661,1.661,0,1,1,3.189.928c-2.871,9.859-10.379,10.1-10.7,10.1Z" transform="translate(-20.736 -15.259)" fill="#ee8778"/>
        </g>
      </g>
      <g id="Grupo_1064404" data-name="Grupo 1064404" transform="translate(31.823 69.205)">
        <g id="Grupo_1064403" data-name="Grupo 1064403">
          <path id="Trazado_782196" data-name="Trazado 782196" d="M163.239,32.069a3.171,3.171,0,0,1-4.066,1.743,40.973,40.973,0,0,0-8.755-2.531c-14.326-2.441-24.136,5.813-28.589,19.253a3.072,3.072,0,0,1-4.606,1.867C91.5,36.591,77.887,55.678,77.307,56.508a3.078,3.078,0,0,1-5.269-.249A54.541,54.541,0,0,0,60.17,40.948a33.987,33.987,0,0,0-20.622-8.631A42.181,42.181,0,0,0,27.6,33.4,48.177,48.177,0,0,0,22,35.015a44.687,44.687,0,0,0-7.676,3.527,3.1,3.1,0,0,1-3.278-5.27A49.34,49.34,0,0,1,21.29,28.708c.623-.207,1.245-.415,1.909-.623a49.476,49.476,0,0,1,15.1-2.033,38.535,38.535,0,0,1,9.5,1.328,38.461,38.461,0,0,1,7.967,3.029,42.334,42.334,0,0,1,10.124,7.3,58.874,58.874,0,0,1,9.378,11.743c5.975-5.809,20.373-15.726,41.908-4.274,5.966-14.417,18.207-22.664,33.983-20.083A48.729,48.729,0,0,1,161.5,28,3.155,3.155,0,0,1,163.239,32.069Z" transform="translate(-9.574 -24.628)" fill="#c6c6f7"/>
        </g>
      </g>
    </g>
  </g>
</svg>
