<svg xmlns="http://www.w3.org/2000/svg" width="85" height="11.086" viewBox="0 0 85 11.086">
  <path id="Trazado_113510" data-name="Trazado 113510" d="M116.17,82.142c3.343,0,4.994-2.669,6.319-4.814,1.343-2.171,2.253-3.5,3.964-3.5s2.62,1.33,3.96,3.5c1.326,2.145,2.976,4.814,6.318,4.814s4.994-2.669,6.319-4.814c1.341-2.171,2.251-3.5,3.961-3.5s2.618,1.33,3.96,3.5c1.326,2.145,2.976,4.814,6.318,4.814s4.992-2.67,6.316-4.816c1.341-2.169,2.249-3.5,3.958-3.5s2.617,1.33,3.958,3.5c1.326,2.147,2.974,4.816,6.316,4.816s4.991-2.669,6.316-4.816c1.341-2.169,2.249-3.5,3.958-3.5a1.386,1.386,0,1,0,0-2.771c-3.34,0-4.991,2.669-6.316,4.814-1.34,2.171-2.249,3.5-3.958,3.5s-2.617-1.33-3.958-3.5c-1.326-2.145-2.976-4.814-6.316-4.814s-4.991,2.669-6.315,4.814c-1.341,2.171-2.249,3.5-3.96,3.5s-2.618-1.33-3.96-3.5c-1.326-2.145-2.976-4.814-6.318-4.814s-4.992,2.669-6.319,4.814c-1.34,2.171-2.249,3.5-3.961,3.5s-2.618-1.33-3.96-3.5c-1.324-2.145-2.976-4.814-6.318-4.814s-5,2.669-6.321,4.814c-1.343,2.171-2.252,3.5-3.963,3.5s-2.621-1.33-3.964-3.5c-1.326-2.145-2.978-4.814-6.321-4.814a1.386,1.386,0,0,0,0,2.771c1.712,0,2.621,1.33,3.964,3.5C111.175,79.473,112.825,82.142,116.17,82.142Z" transform="translate(-104.499 -71.056)" fill="#3449bc"/>
</svg>
