<svg xmlns="http://www.w3.org/2000/svg" width="81" height="81" viewBox="0 0 81 81">
  <g id="Grupo_1064130" data-name="Grupo 1064130" transform="translate(-287 -5612)">
    <g id="Grupo_988068" data-name="Grupo 988068" transform="translate(83 3035)">
      <rect id="Rectángulo_35795" data-name="Rectángulo 35795" width="81" height="81" rx="8" transform="translate(204 2577)" fill="#3449bc"/>
    </g>
    <g id="diarrea" transform="translate(268.73 5617.475)">
      <g id="Grupo_1064518" data-name="Grupo 1064518" transform="translate(28.534 1.026)">
        <path id="Trazado_782273" data-name="Trazado 782273" d="M82.763,39.188,82.154,57.88l.909,16.9a.684.684,0,0,1-.683.721H48.109a.684.684,0,0,1-.683-.721l.909-16.9-.609-18.692-2.743,9.767-9.974-3L40.791,22.3a4.1,4.1,0,0,1,2.788-2.95l13.608-4.158a1.369,1.369,0,0,0,.969-1.309V7.5H72.333v6.385a1.369,1.369,0,0,0,.969,1.309L86.91,19.353A4.1,4.1,0,0,1,89.7,22.3L95.48,45.96l-9.974,3Z" transform="translate(-35.009 -7.5)" fill="#ffa78f"/>
        <path id="Trazado_782274" data-name="Trazado 782274" d="M288.042,7.5l.209,9a1.369,1.369,0,0,0,.969,1.309l13.608,4.158a4.1,4.1,0,0,1,2.788,2.95l5.691,21.819,2.586-.777L308.112,22.3a4.1,4.1,0,0,0-2.788-2.95l-13.608-4.158a1.369,1.369,0,0,1-.969-1.309V7.5Z" transform="translate(-253.423 -7.5)" fill="#f89580"/>
        <path id="Trazado_782275" data-name="Trazado 782275" d="M362.326,236.948l.6-18.527-.774-2.755a.979.979,0,0,0-1.922.235l-.644,21.048.909,16.9a.684.684,0,0,1-.683.721h2.736a.684.684,0,0,0,.683-.721Z" transform="translate(-315.181 -186.568)" fill="#f89580"/>
        <path id="Trazado_782276" data-name="Trazado 782276" d="M195.747,198.391h.085a4.1,4.1,0,1,0,0-8.209h-5.87a2.661,2.661,0,0,0,2.661-2.662v-12.9A1.024,1.024,0,0,0,191.6,173.6h-2.056a1.024,1.024,0,0,0-1.024,1.024v10.09a1.368,1.368,0,0,1-1.368,1.368h-4.143a4.16,4.16,0,0,0-4.188,3.989,4.1,4.1,0,0,0,4.1,4.22,4.1,4.1,0,0,0,0,8.209h7.1a2.7,2.7,0,0,0-2.7,2.7v6.825a1.663,1.663,0,0,0,1.663,1.663h.778a1.663,1.663,0,0,0,1.663-1.663v-4.05A1.368,1.368,0,0,1,192.8,206.6h3.035a4.1,4.1,0,0,0,4.1-4.22,4.16,4.16,0,0,0-4.188-3.989Z" transform="translate(-159.141 -150.87)" fill="#ee6161"/>
        <g id="Grupo_1064517" data-name="Grupo 1064517" transform="translate(28.084 22.725)">
          <path id="Trazado_782277" data-name="Trazado 782277" d="M285.294,303.038h.085a4.1,4.1,0,1,0,0-8.209h-2.736a4.1,4.1,0,1,1,0,8.209h-.085a4.16,4.16,0,0,1,4.188,3.989,4.1,4.1,0,0,1-4.1,4.22h2.736a4.1,4.1,0,0,0,4.1-4.22A4.16,4.16,0,0,0,285.294,303.038Z" transform="translate(-276.773 -278.242)" fill="#e53950"/>
          <path id="Trazado_782278" data-name="Trazado 782278" d="M242.937,174.62v12.9a2.661,2.661,0,0,1-2.661,2.662h2.736a2.661,2.661,0,0,0,2.661-2.662v-12.9a1.024,1.024,0,0,0-1.024-1.024h-2.056a1.019,1.019,0,0,0-.34.059A1.024,1.024,0,0,1,242.937,174.62Z" transform="translate(-240.276 -173.596)" fill="#e53950"/>
          <path id="Trazado_782279" data-name="Trazado 782279" d="M246.684,416.2v4.05a1.659,1.659,0,0,1-.684,1.342,1.653,1.653,0,0,0,.979.321h.779a1.663,1.663,0,0,0,1.663-1.663V416.2a1.368,1.368,0,0,1,1.368-1.368h-2.736A1.368,1.368,0,0,0,246.684,416.2Z" transform="translate(-245.217 -381.824)" fill="#e53950"/>
        </g>
      </g>
      <g id="Grupo_1064519" data-name="Grupo 1064519" transform="translate(27.508 0)">
        <path id="Trazado_782280" data-name="Trazado 782280" d="M221.364,200.848a1.026,1.026,0,0,0,.71-1.265l-2.7-9.612.232-6.585a1.026,1.026,0,1,0-2.051-.072l-.237,6.733s0,.008,0,.013c-.519,16.34-.609,18.765-.608,18.781l.89,16.537H193.106a1.026,1.026,0,1,0,0,2.052h24.855a1.71,1.71,0,0,0,1.708-1.8l-.907-16.853.391-12,.946,3.369a1.026,1.026,0,0,0,1.266.71Z" transform="translate(-169.564 -157.378)"/>
        <path id="Trazado_782281" data-name="Trazado 782281" d="M109.188,225.379h-4.267s.892-16.6.891-16.625c-.113-3.516-.571-17.5-.609-18.692,0,0,0-.008,0-.013l-.237-6.733a1.026,1.026,0,1,0-2.051.072l.232,6.585-2.7,9.612a1.026,1.026,0,1,0,1.976.555l.946-3.369.391,12-.907,16.853a1.71,1.71,0,0,0,1.708,1.8h4.628a1.026,1.026,0,1,0,0-2.052Z" transform="translate(-90.435 -157.381)"/>
        <path id="Trazado_782282" data-name="Trazado 782282" d="M302,9.7l13.608,4.158a3.091,3.091,0,0,1,2.091,2.212l5.782,23.657a1.026,1.026,0,1,0,1.993-.487L319.7,15.585a5.153,5.153,0,0,0-3.486-3.688L302.6,7.74a.342.342,0,0,1-.243-.328V1.026a1.026,1.026,0,0,0-2.052,0V7.411A2.384,2.384,0,0,0,302,9.7Z" transform="translate(-262.985 0)"/>
        <path id="Trazado_782283" data-name="Trazado 782283" d="M28.291,40.483a1.025,1.025,0,0,0,1.24-.753l5.782-23.657A3.091,3.091,0,0,1,37.4,13.86L51.013,9.7a2.384,2.384,0,0,0,1.694-2.29V1.026a1.026,1.026,0,0,0-2.052,0V7.411a.341.341,0,0,1-.242.328L36.805,11.9a5.152,5.152,0,0,0-3.486,3.688L27.538,39.242a1.026,1.026,0,0,0,.753,1.241Z" transform="translate(-27.508 0)"/>
        <path id="Trazado_782284" data-name="Trazado 782284" d="M265.431,108.7a1.026,1.026,0,0,0,1.433-.226l.85-1.169a1.158,1.158,0,0,1,.934-.475h6.824a1.026,1.026,0,0,0,0-2.052h-6.824a3.216,3.216,0,0,0-2.593,1.32l-.85,1.169A1.026,1.026,0,0,0,265.431,108.7Z" transform="translate(-232.514 -90.444)"/>
        <path id="Trazado_782285" data-name="Trazado 782285" d="M163.009,105.807a1.026,1.026,0,0,0,1.026,1.026h6.824a1.158,1.158,0,0,1,.934.475l.85,1.169a1.026,1.026,0,0,0,1.66-1.207l-.85-1.169a3.216,3.216,0,0,0-2.593-1.32h-6.824A1.026,1.026,0,0,0,163.009,105.807Z" transform="translate(-144.47 -90.445)"/>
        <path id="Trazado_782286" data-name="Trazado 782286" d="M180.223,197.05a3.7,3.7,0,0,0-.4,1.671v6.826a2.692,2.692,0,0,0,2.689,2.689h.779a2.692,2.692,0,0,0,2.689-2.689V201.5a.342.342,0,0,1,.342-.342h3.035a5.1,5.1,0,0,0,3.05-9.216,5.129,5.129,0,0,0-3.05-9.254h-2.565a3.665,3.665,0,0,0,.383-1.635v-12.9a2.053,2.053,0,0,0-2.05-2.05h-2.056a2.053,2.053,0,0,0-2.05,2.05v2.123a1.026,1.026,0,1,0,2.051,0v-2.121h2.053v12.9a1.637,1.637,0,0,1-1.635,1.635h-5.84a1.026,1.026,0,1,0,0,2.052h11.71a3.078,3.078,0,0,1,0,6.157H177.65a1.026,1.026,0,1,0,0,2.052h11.625a3.143,3.143,0,0,1,3.163,2.991,3.079,3.079,0,0,1-3.077,3.166h-3.035a2.4,2.4,0,0,0-2.394,2.394v4.05a.638.638,0,0,1-.637.637h-.779a.638.638,0,0,1-.637-.637v-6.826a1.673,1.673,0,0,1,1.671-1.671h4.691a1.026,1.026,0,0,0,0-2.052H176.45a3.078,3.078,0,0,1,0-6.157h11.792a1.026,1.026,0,0,0,0-2.052H176.45a3.079,3.079,0,0,1-3.077-3.166,3.143,3.143,0,0,1,3.163-2.991h4.143a2.4,2.4,0,0,0,2.394-2.394v-3.179a1.026,1.026,0,0,0-2.052,0v3.179a.342.342,0,0,1-.342.342h-4.143a5.209,5.209,0,0,0-5.214,4.987,5.093,5.093,0,0,0,1.451,3.721,5.227,5.227,0,0,0,.6.529,5.129,5.129,0,0,0,3.078,9.233h3.773Z" transform="translate(-151.643 -143.372)"/>
        <path id="Trazado_782287" data-name="Trazado 782287" d="M417.393,341.645l-2.956,1.574-.093-.2a1.518,1.518,0,0,0-2.137-.67l-3.063,1.778a1.026,1.026,0,0,0,.516,1.914c.48,0,.533-.2,3.073-1.623l.084.179a1.518,1.518,0,0,0,2.088.7l3.453-1.838a1.026,1.026,0,1,0-.964-1.812Z" transform="translate(-356.488 -294.798)"/>
        <path id="Trazado_782288" data-name="Trazado 782288" d="M412.1,401.418l-3.173-1.073.081-.2a1.518,1.518,0,0,0-.978-2.015l-3.395-1.011a1.026,1.026,0,0,0-.585,1.967l2.835.844-.073.184a1.518,1.518,0,0,0,.925,2c3.891,1.306,3.735,1.307,4.034,1.307a1.026,1.026,0,0,0,.328-2Z" transform="translate(-351.896 -342.748)"/>
        <path id="Trazado_782289" data-name="Trazado 782289" d="M33.5,345.395a1.525,1.525,0,0,0,.894-.8l.084-.179c2.559,1.434,2.594,1.623,3.073,1.623a1.026,1.026,0,0,0,.516-1.914l-3.063-1.778a1.518,1.518,0,0,0-2.137.669l-.093.2-2.956-1.574a1.026,1.026,0,0,0-.964,1.812l3.453,1.838A1.526,1.526,0,0,0,33.5,345.395Z" transform="translate(-28.201 -294.798)"/>
        <path id="Trazado_782290" data-name="Trazado 782290" d="M47.552,397.119l-3.395,1.011a1.518,1.518,0,0,0-.978,2.014l.081.2-3.173,1.073a1.026,1.026,0,0,0,.328,2c.3,0,.13,0,4.035-1.307a1.518,1.518,0,0,0,.925-2l-.073-.184,2.835-.844a1.026,1.026,0,1,0-.586-1.967Z" transform="translate(-37.764 -342.749)"/>
      </g>
    </g>
  </g>
</svg>
