<svg xmlns="http://www.w3.org/2000/svg" width="190" height="173" viewBox="0 0 190 173">
  <g id="Grupo_1043089" data-name="Grupo 1043089" transform="translate(-285 -12914)">
    <g id="Grupo_1064133" data-name="Grupo 1064133">
      <rect id="Rectángulo_355757" data-name="Rectángulo 355757" width="190" height="173" transform="translate(285 12914)" fill="#e3dff1"/>
      <g id="bebe_1_" data-name="bebe (1)" transform="translate(253.098 12929.067)">
        <path id="Trazado_781748" data-name="Trazado 781748" d="M175.229,206.333c-1.633.421-1.878,1.378-2.149,1.012a2.3,2.3,0,0,0-2.228-.754c-.836.307-1.378.847-.955,2.692a1.154,1.154,0,0,1-.548,1.267,40.935,40.935,0,0,0-7.511,1.368,3.6,3.6,0,0,1-2.738-.317,55.368,55.368,0,0,0-12.278-4.814,37.409,37.409,0,0,0-5.069-.99,19.882,19.882,0,0,0-11.491-3.511,17.567,17.567,0,0,0-10.219,2.673,56.032,56.032,0,0,0-8.222-.9c-3.066-.171-6.2-.236-8.322-.212a3.679,3.679,0,0,1-2.138-.643,54.735,54.735,0,0,0-8.528-4.8,1.167,1.167,0,0,1-.681-1.213c.239-1.875-.353-2.361-1.216-2.583a2.309,2.309,0,0,0-2.141.971c-.233.391-.573-.537-2.239-.8-2.795-.429-6,5.134-1.123,7.421,1.373,3.093,9.263,10.7,13.317,13.393a41.623,41.623,0,0,0,9.833,4.382c1.037.328,2.089.63,3.137.893-1.566,4.282-3.823,11.008-4.322,15.8a20.732,20.732,0,0,0,5.188,16.1c6.092,8.4,18.041,8.04,18.041,8.04s11.955.358,18.047-8.04c0,0,2.442-3.462,3.172-4.909s1.688-9.942,1.688-9.942a86.756,86.756,0,0,0-4.278-14.481,17.632,17.632,0,0,0,3.646.863,28.1,28.1,0,0,0,9.033-.011c3.658-.469,9.293-5,13.336-8.818C182.658,212.116,177.969,205.631,175.229,206.333Z" transform="translate(-4.377 -139.64)" fill="#f88"/>
        <path id="Trazado_781749" data-name="Trazado 781749" d="M217.3,322.357c-5.009-1.266-10.509-2.421-21.215-2.421s-16.945,1.155-21.953,2.421l-.2.04a40.316,40.316,0,0,0-1.083,5.625,20.731,20.731,0,0,0,5.188,16.1c6.093,8.4,18.042,8.039,18.042,8.039s11.954.359,18.047-8.039c0,0,2.442-3.462,3.17-4.909s1.688-9.942,1.688-9.942a57.41,57.41,0,0,0-1.688-6.919Z" transform="translate(-69.832 -230.988)" fill="#ffd2d2"/>
        <path id="Trazado_781750" data-name="Trazado 781750" d="M146.357,362.433a29.87,29.87,0,0,0,5.164-1.117,4.173,4.173,0,0,0,2.657-3.287c1.308-8.7-6.22-19.88-14.142-14.589-6.353,4.243-12.387,9.678-11.763,17.072.709,8.407,10.113,18.131,13.16,20.917a3.069,3.069,0,0,1,1.04,2.083c.109,2.2,1.413,3.081,2.832,2.624,2.195-.705,3.938-2.035,4.483-3.2.742-1.582.518-3.45-.91-5.715-2.109-3.344.253-8.245-3.065-13.553a.812.812,0,0,1,.545-1.235Z" transform="translate(-37.399 -247.119)" fill="#f88"/>
        <path id="Trazado_781751" data-name="Trazado 781751" d="M306.977,364.437a3.058,3.058,0,0,0-1.023,2.089c-.092,2.2-1.389,3.093-2.814,2.646-2.2-.689-3.953-2.005-4.507-3.164-.754-1.576-.545-3.446.866-5.723,1.05-1.693,1.18-3.918,1.492-6.444a13.424,13.424,0,0,1-3.1.488,6.425,6.425,0,0,1-4.051-.988c-6.045-4.545-4.7-14.256-.727-17.48,3.058-2.483,12.558-3.934,19.517-2.472a8.87,8.87,0,0,1,7.451,7.834c1.178,7.087-10.08,20.4-13.1,23.213Z" transform="translate(-155.069 -240.366)" fill="#f88"/>
        <path id="Trazado_781752" data-name="Trazado 781752" d="M224.47,227.478a25.556,25.556,0,0,1-16.193,5.945c-5.427,0-13.6-2.16-18.806-8.669a56.036,56.036,0,0,1,8.222.9,17.567,17.567,0,0,1,10.219-2.673c5.1.144,8.767,1.511,11.442,3.475A38.439,38.439,0,0,1,224.47,227.478Z" transform="translate(-82.024 -160.331)" fill="#ff576b"/>
        <path id="Trazado_781753" data-name="Trazado 781753" d="M348.362,51.747a3.792,3.792,0,1,1,5.362,5.362c-1.481,1.481-5.831,3.431-7.312,1.95S346.882,53.227,348.362,51.747Z" transform="translate(-195.997 -34.76)" fill="#6ed6ff"/>
        <path id="Trazado_781754" data-name="Trazado 781754" d="M364.935,96.446a2.461,2.461,0,1,1,0,4.921c-1.359,0-4.25-1.1-4.25-2.461S363.576,96.446,364.935,96.446Z" transform="translate(-206.782 -68.14)" fill="#4ac3ff"/>
        <path id="Trazado_781755" data-name="Trazado 781755" d="M148.322,136.5a7.8,7.8,0,0,0,8.051,6.4V128.848C150.259,127.594,147.41,132.238,148.322,136.5Z" transform="translate(-51.919 -91.598)" fill="#f88"/>
        <path id="Trazado_781756" data-name="Trazado 781756" d="M339.125,128.848V142.9a7.8,7.8,0,0,0,8.05-6.4C348.087,132.238,345.238,127.594,339.125,128.848Z" transform="translate(-191.072 -91.598)" fill="#f88"/>
        <path id="Trazado_781757" data-name="Trazado 781757" d="M198.389,101.94c5.783,0,14.683-2.451,19.787-10,4.61-6.82,1.9-18.081,2.014-22.554.231-9.072-6.314-20.854-21.8-20.854s-22.031,11.782-21.8,20.854c.114,4.473-2.6,15.734,2.014,22.554C183.707,99.489,192.606,101.94,198.389,101.94Z" transform="translate(-72.136 -33.225)" fill="#ff9f9f"/>
        <path id="Trazado_781758" data-name="Trazado 781758" d="M278.676,111.61a1.617,1.617,0,0,1-.816-.22,1.333,1.333,0,0,0-.465-.037,1.628,1.628,0,1,1-.477-3.221,4.244,4.244,0,0,1,2.583.446,1.628,1.628,0,0,1-.826,3.032Z" transform="translate(-144.732 -76.623)" fill="#462e4c"/>
        <path id="Trazado_781759" data-name="Trazado 781759" d="M226.04,111.615a1.629,1.629,0,0,1-.82-3.037,4.247,4.247,0,0,1,2.584-.446,1.628,1.628,0,1,1-.477,3.221,1.24,1.24,0,0,0-.468.038A1.615,1.615,0,0,1,226.04,111.615Z" transform="translate(-107.485 -76.624)" fill="#462e4c"/>
        <path id="Trazado_781760" data-name="Trazado 781760" d="M244,180.578a18.2,18.2,0,0,0-7.428,0c-5.089,1-3.639,7.448,1.343,6.069a6.4,6.4,0,0,1,4.742,0C247.641,188.026,249.091,181.582,244,180.578Z" transform="translate(-114.032 -129.164)" fill="#fff"/>
        <g id="Grupo_1064132" data-name="Grupo 1064132" transform="translate(76.902 2.933)">
          <path id="Trazado_781761" data-name="Trazado 781761" d="M283.146,139.1a1.628,1.628,0,0,1-1.44-2.386,5.142,5.142,0,0,1,6.448-1.928,1.628,1.628,0,1,1-1.473,2.9,2.067,2.067,0,0,0-2.093.539A1.628,1.628,0,0,1,283.146,139.1Z" transform="translate(-225.998 -98.675)" fill="#462e4c"/>
          <path id="Trazado_781762" data-name="Trazado 781762" d="M214.205,139.1a1.628,1.628,0,0,1-1.442-.87,2.072,2.072,0,0,0-2.093-.54,1.628,1.628,0,1,1-1.473-2.9,5.142,5.142,0,0,1,6.447,1.929,1.628,1.628,0,0,1-1.439,2.386Z" transform="translate(-172.651 -98.678)" fill="#462e4c"/>
          <path id="Trazado_781763" data-name="Trazado 781763" d="M251.284,153.518a2.6,2.6,0,0,0-2.792,2.511,2.9,2.9,0,0,0,5.584,0A2.6,2.6,0,0,0,251.284,153.518Z" transform="translate(-201.933 -112.658)" fill="#462e4c"/>
          <path id="Trazado_781764" data-name="Trazado 781764" d="M241.2,20.527a1.628,1.628,0,0,1-.849-3.019c.076-.047,4.262-2.686,4.408-6.927.1-2.825-1.4-4.092-2.837-4.336a2.906,2.906,0,0,0-3.344,1.989,1.034,1.034,0,0,0,.528,1.326c.062.032.61.3.875-.056a1.628,1.628,0,1,1,2.6,1.954,3.876,3.876,0,0,1-4.963,1,4.3,4.3,0,0,1-2.153-5.2,6.159,6.159,0,0,1,7-4.23c2.874.488,5.7,3.046,5.545,7.658-.208,6.04-5.737,9.456-5.972,9.6a1.62,1.62,0,0,1-.841.236Z" transform="translate(-192.285 -2.933)" fill="#462e4c"/>
          <path id="Trazado_781765" data-name="Trazado 781765" d="M239.62,184.1a6.659,6.659,0,0,1-1.772-.251,4.933,4.933,0,0,0-3.874,0,5.206,5.206,0,0,1-5.3-1.179,4.581,4.581,0,0,1-1.069-4.558,5.3,5.3,0,0,1,4.278-3.5,19.837,19.837,0,0,1,8.059,0,5.3,5.3,0,0,1,4.279,3.5,4.581,4.581,0,0,1-1.069,4.558,4.8,4.8,0,0,1-3.53,1.43Zm-3.709-3.9h.02a11.421,11.421,0,0,1,2.786.514,2.063,2.063,0,0,0,2.092-.3,1.345,1.345,0,0,0,.3-1.322,2.145,2.145,0,0,0-1.8-1.275,16.586,16.586,0,0,0-6.8,0,2.147,2.147,0,0,0-1.8,1.275,1.345,1.345,0,0,0,.3,1.323,2.063,2.063,0,0,0,2.092.3,11.419,11.419,0,0,1,2.786-.514Z" transform="translate(-186.557 -127.728)" fill="#462e4c"/>
          <path id="Trazado_781766" data-name="Trazado 781766" d="M109.736,201.377l-.007.011Z" transform="translate(-100.822 -147.531)" fill="#462e4c"/>
          <path id="Trazado_781767" data-name="Trazado 781767" d="M410.414,245.229l.009.012Z" transform="translate(-319.919 -179.485)" fill="#462e4c"/>
          <path id="Trazado_781768" data-name="Trazado 781768" d="M350.494,46.231a5.427,5.427,0,0,0-7.665,0,11.816,11.816,0,0,0-2.478,4.291c-.993,2.97-.261,4.534.528,5.323a3.684,3.684,0,0,0,2.723,1.009,8.263,8.263,0,0,0,2.6-.48,11.837,11.837,0,0,0,4.291-2.478A5.419,5.419,0,0,0,350.494,46.231Zm-2.3,5.362c-1.241,1.241-4.447,2.507-5.007,1.947s.705-3.766,1.947-5.007a2.164,2.164,0,0,1,3.06,3.06Z" transform="translate(-268.517 -33.328)" fill="#462e4c"/>
          <path id="Trazado_781769" data-name="Trazado 781769" d="M360.563,98.623c-1.619,0-5.878-1.257-5.878-4.089s4.26-4.089,5.878-4.089a4.089,4.089,0,1,1,0,8.177Zm-2.024-4.314a.254.254,0,0,0,0,.449,5.189,5.189,0,0,0,2.024.608.833.833,0,1,0,0-1.665,5.189,5.189,0,0,0-2.024.609Z" transform="translate(-279.312 -66.7)" fill="#462e4c"/>
          <path id="Trazado_781770" data-name="Trazado 781770" d="M176.14,97.851c-.938-2.656-3.546-4.433-5.693-3.882a5.677,5.677,0,0,0-1.571.657,3.658,3.658,0,0,0-2.96-.353c-1.693.621-2.4,1.958-2.1,3.979a40.64,40.64,0,0,0-6.8,1.31,1.972,1.972,0,0,1-1.505-.172,44.419,44.419,0,0,0-14.77-4.483,22.849,22.849,0,0,0,6.643-6.431,17.24,17.24,0,0,0,2.56-6.807A9.478,9.478,0,0,0,157.7,74.1a8.38,8.38,0,0,0-2.044-7.614,7.836,7.836,0,0,0-5.972-2.207,22.36,22.36,0,0,0-6.229-15.059c-4.265-4.376-10.212-6.688-17.2-6.688s-12.932,2.313-17.2,6.688a22.362,22.362,0,0,0-6.229,15.059,7.833,7.833,0,0,0-5.972,2.207A8.38,8.38,0,0,0,94.81,74.1a9.477,9.477,0,0,0,7.747,7.573,17.214,17.214,0,0,0,2.561,6.807,22.159,22.159,0,0,0,2.775,3.343c-3.1-.285-6.433-.412-8.787-.386a2.041,2.041,0,0,1-1.194-.354,56.609,56.609,0,0,0-8.485-4.81c.19-2.2-.638-3.555-2.46-4.025a3.655,3.655,0,0,0-2.911.643,5.667,5.667,0,0,0-1.628-.5c-2.187-.337-4.507,1.392-5.28,3.936a5.274,5.274,0,0,0,2.7,6.3c2.086,3.746,9.742,10.962,13.629,13.546a45.213,45.213,0,0,0,11.863,5.063c-.787,2.367-3.345,11.48-3.574,12.568l-.031.02c-5.708,3.813-13.214,9.886-12.482,18.562.841,9.969,12.37,20.781,13.682,21.982a1.46,1.46,0,0,1,.513.962,4.576,4.576,0,0,0,1.77,3.679,3.428,3.428,0,0,0,1.97.612,3.968,3.968,0,0,0,1.218-.2c2.545-.819,4.687-2.412,5.458-4.057,1.013-2.161.674-4.608-1.007-7.275-.7-1.109-.747-2.659-.8-4.452a19.893,19.893,0,0,0-1.019-6.571c5.975,4.341,13.339,4.6,14.961,4.6.118,0,.205,0,.26,0,.916.021,11.1.078,17.706-6.74a8.018,8.018,0,0,1-.913,3c-1.66,2.679-1.981,5.128-.95,7.282.784,1.64,2.939,3.216,5.489,4.016a3.984,3.984,0,0,0,1.191.188,3.429,3.429,0,0,0,1.993-.628,4.573,4.573,0,0,0,1.741-3.692,1.462,1.462,0,0,1,.505-.966c2.01-1.867,15.01-16.188,13.6-24.67a10.49,10.49,0,0,0-8.722-9.161,34.311,34.311,0,0,0-8.868-.539c-.5-1.669-1.044-3.288-1.561-4.751a32.447,32.447,0,0,0,5.467.439,38.225,38.225,0,0,0,4.833-.306c4.4-.565,10.617-5.842,14.055-9.07,4.544-2.182,5.221-5.653,4.319-8.206Zm-22.8-29.076a5.1,5.1,0,0,1,1.172,4.64,6.342,6.342,0,0,1-4.2,4.83c.068-1.349.059-2.689.007-3.98a1.117,1.117,0,0,1,1.082-.713,1.628,1.628,0,1,0,.452-3.225,4.074,4.074,0,0,0-1.791.168c-.041-.473-.226-2.468-.268-2.969a4.6,4.6,0,0,1,3.542,1.249Zm-50.9,1.718a4.072,4.072,0,0,0-1.791-.166,1.628,1.628,0,0,0,.452,3.225,1.117,1.117,0,0,1,1.082.713c-.053,1.294-.062,2.637.007,3.989a6.335,6.335,0,0,1-4.2-4.838,5.1,5.1,0,0,1,1.172-4.64,4.6,4.6,0,0,1,3.541-1.248C102.665,68.026,102.481,70.02,102.439,70.492Zm5.376,16.161c-3.172-4.694-2.5-11.939-2.009-17.23a41.915,41.915,0,0,0,.274-4.454,19.005,19.005,0,0,1,5.307-13.479c3.638-3.733,8.779-5.706,14.866-5.706s11.227,1.973,14.866,5.705a19,19,0,0,1,5.306,13.479,41.978,41.978,0,0,0,.274,4.453c.491,5.291,1.163,12.538-2.008,17.23-4.633,6.853-12.828,9.285-18.438,9.285s-13.807-2.431-18.439-9.284Zm1.823,55.747c-.319.052-.639.105-.958.16a2.44,2.44,0,0,0-1.649,3.7c1.613,2.581,1.69,5.067,1.764,7.471.068,2.174.131,4.229,1.3,6.087,1.584,2.512,1,3.749.814,4.156a6.353,6.353,0,0,1-3.508,2.34.442.442,0,0,1-.337.007c-.12-.083-.334-.421-.37-1.161a4.664,4.664,0,0,0-1.567-3.2c-4.108-3.758-12.036-12.744-12.635-19.853-.453-5.371,2.953-10.175,11.043-15.581a5.859,5.859,0,0,1,3.268-1.093,5.548,5.548,0,0,1,3,.942c3.632,2.306,6.087,8.325,5.362,13.144a2.544,2.544,0,0,1-1.618,2.005,21.482,21.482,0,0,1-3.909.876Zm16.663,6q-.049,0-.1,0a24.672,24.672,0,0,1-12.549-3.493c.354-.1.7-.21,1.038-.336a5.8,5.8,0,0,0,3.7-4.569c.927-6.162-2.076-13.356-6.838-16.378a8.536,8.536,0,0,0-6.1-1.336c.059-.24.118-.479.18-.721a83.645,83.645,0,0,1,20.625-2.144,82.348,82.348,0,0,1,16.141,1.31,14.528,14.528,0,0,0-5.383,2.348c-2.5,2.033-4.07,6-3.994,10.109a12.357,12.357,0,0,0,4.771,9.934,6.223,6.223,0,0,0,2.141,1.013c-5.757,4.409-13.539,4.266-13.631,4.263Zm30.924-24.933a7.28,7.28,0,0,1,6.18,6.508c.993,5.987-9.334,18.712-12.606,21.752a4.662,4.662,0,0,0-1.542,3.216c-.031.74-.242,1.079-.361,1.163a.442.442,0,0,1-.337,0,6.363,6.363,0,0,1-3.527-2.313c-.194-.405-.783-1.638.781-4.162a14.221,14.221,0,0,0,1.616-6.2c.234-2.329,1.213-6.766,2.949-9.086a3.3,3.3,0,0,0,.543-2.859,3.345,3.345,0,0,0-1.936-2.221,1.628,1.628,0,0,0-1.269,3,.1.1,0,0,1,.062.072.057.057,0,0,1-.008.059,18.111,18.111,0,0,0-3.316,8.6c-1.429.26-3.557.389-4.707-.475a9.322,9.322,0,0,1-3.473-7.392c-.057-3.047,1.09-6.139,2.791-7.52,2.574-2.085,11.638-3.513,18.162-2.141ZM170.238,103.2a1.71,1.71,0,0,0-.464.309c-5.208,4.92-9.851,8.055-12.422,8.384a29.873,29.873,0,0,1-11.225-.54c-.246-.645-.859-2.215-.923-2.386a3.005,3.005,0,0,1-.2-1.21l.107-2.227a1.628,1.628,0,1,0-3.252-.156l-.107,2.227a6.243,6.243,0,0,0,.4,2.515c.067.178,1.85,4.751,2.883,7.845a82.179,82.179,0,0,0-18.784-1.794A89.761,89.761,0,0,0,106.618,118c1.692-5.759,3.706-11.184,3.736-11.264a6.237,6.237,0,0,0,.4-2.515L110.649,102a1.628,1.628,0,1,0-3.252.156l.107,2.228a22.505,22.505,0,0,1-1.112,3.766,42.745,42.745,0,0,1-11.113-4.69c-3.886-2.584-11.528-9.978-12.731-12.7a1.649,1.649,0,0,0-.809-.818c-1.326-.624-1.822-1.521-1.474-2.666.324-1.065.98-1.63,1.67-1.665a1.543,1.543,0,0,1,1.091.447,2.019,2.019,0,0,0,1.636.421c.333-.073.8-.6,1.1-.911a.31.31,0,0,1,.53.13,1.214,1.214,0,0,1-.007.5,2.7,2.7,0,0,0,1.59,2.94,53.2,53.2,0,0,1,8.189,4.618,5.283,5.283,0,0,0,3.085.933,74.4,74.4,0,0,1,13.63,1.1,6.87,6.87,0,0,1,1.537.554,27.83,27.83,0,0,0,11.943,2.852,27.067,27.067,0,0,0,7.567-1.146,6.448,6.448,0,0,1,1.806-.26c5.14-.023,13.117,1.56,18.306,4.448a5.21,5.21,0,0,0,3.972.461,39.13,39.13,0,0,1,7.234-1.316,1.61,1.61,0,0,0,.609-.187,2.622,2.622,0,0,0,1.318-2.973,4.611,4.611,0,0,1-.112-.717.334.334,0,0,1,.5-.274c.281.123.445.407.814.708a1.217,1.217,0,0,0,1.2.213,2.616,2.616,0,0,0,.747-.476,1.468,1.468,0,0,1,1.041-.552c.5-.007,1.392.57,1.826,1.848.555,1.637-.455,3.139-2.844,4.233Z" transform="translate(-76.902 -31.784)" fill="#462e4c"/>
        </g>
      </g>
    </g>
  </g>
</svg>
