<svg id="Grupo_1062944" data-name="Grupo 1062944" xmlns="http://www.w3.org/2000/svg" width="295" height="138.84" viewBox="0 0 295 138.84">
  <g id="Grupo_1062922" data-name="Grupo 1062922">
    <rect id="Rectángulo_355765" data-name="Rectángulo 355765" width="295" height="138.84" rx="12" fill="#fde9bc"/>
  </g>
  <circle id="Elipse_5050" data-name="Elipse 5050" cx="54.5" cy="54.5" r="54.5" transform="translate(148 15)" fill="#fffae3"/>
  <circle id="Elipse_5051" data-name="Elipse 5051" cx="36" cy="36" r="36" transform="translate(56 15)" fill="#fffae3"/>
  <g id="medico" transform="translate(99.262 6.252)">
    <path id="Trazado_781300" data-name="Trazado 781300" d="M91.554,56.816c3.785-27.883,12.749-46.779,32.261-46.779s28.475,18.9,32.26,46.78c3.316,24.431,26.464,46.385,5.1,68.929H86.451c-21.362-22.544,1.786-44.5,5.1-68.93Z" transform="translate(-75.945 -8.48)" fill="#9e3b4c"/>
    <path id="Trazado_781301" data-name="Trazado 781301" d="M104.631,303.789c1.031-11.709,3.361-41.3,9.8-49.955,2.9-3.892,10.182-7.039,16.829-8.3,4.954-.941,7.2-3.99,7.068-9.274h11.149c-.137,5.283,2.115,8.332,7.068,9.274,6.646,1.263,13.933,4.411,16.829,8.3,6.437,8.652,8.768,38.247,9.8,49.955a1.3,1.3,0,0,1-1.292,1.409H105.923a1.3,1.3,0,0,1-1.292-1.409Z" transform="translate(-96.031 -176.006)" fill="#f88"/>
    <path id="Trazado_781302" data-name="Trazado 781302" d="M232.76,240.17c1.686.669,3.261,1.121,4.439,1.513a5.052,5.052,0,0,0,3.181,0c1.178-.392,2.753-.843,4.439-1.513a12.283,12.283,0,0,1-.454-3.91H233.214A12.283,12.283,0,0,1,232.76,240.17Z" transform="translate(-190.92 -176.008)" fill="#ed4559"/>
    <path id="Trazado_781303" data-name="Trazado 781303" d="M319.854,150.054a4.7,4.7,0,0,1,6.913-2.724l1.912,11.925C320.158,160.655,319.157,152.308,319.854,150.054Z" transform="translate(-297.33 -109.669)" fill="#f88"/>
    <path id="Trazado_781304" data-name="Trazado 781304" d="M159.5,147.381a4.717,4.717,0,0,1,6.941,2.708c.7,2.254-.3,10.6-8.825,9.2Z" transform="translate(-93.226 -109.704)" fill="#f88"/>
    <path id="Trazado_781305" data-name="Trazado 781305" d="M221.576,83.678a5.935,5.935,0,0,1,.2,1.445c.084,5.557-1.369,11.875-4.573,16.182-3.445,4.631-9.208,6.059-12.286,7.081a5.047,5.047,0,0,1-3.182,0c-3.078-1.022-8.841-2.45-12.286-7.081-3.332-4.479-4.771-11.134-4.556-16.845.252-6.709,7.054-10.213,11.2-21.689a1.492,1.492,0,0,1,2.595-.4C207.551,74.183,218.9,73.68,221.576,83.678Z" transform="translate(-155.459 -46.799)" fill="#ffa6a2"/>
    <path id="Trazado_781306" data-name="Trazado 781306" d="M244.323,192.1a4.008,4.008,0,0,1-4.074-3.656,1.258,1.258,0,0,1,1.325-1.385h5.5a1.258,1.258,0,0,1,1.325,1.385A4.012,4.012,0,0,1,244.323,192.1Z" transform="translate(-196.453 -139.572)" fill="#fff"/>
    <path id="Trazado_781307" data-name="Trazado 781307" d="M106.628,331.668h74.823a1.813,1.813,0,0,0,1.808-1.972c-1.053-12.067-3.412-40.878-9.748-49.393-2.9-3.892-10.184-7.039-16.829-8.3l2.146,14.53H129.38L131.4,272c-6.645,1.264-13.933,4.411-16.829,8.3-6.336,8.515-8.694,37.326-9.748,49.393a1.813,1.813,0,0,0,1.808,1.972Z" transform="translate(-96.17 -202.475)" fill="#ffdedc"/>
    <path id="Trazado_781308" data-name="Trazado 781308" d="M211.371,343.922c.446,2.953.864,5.848,1.225,8.666h14.141c.361-2.818.778-5.713,1.225-8.666,2.083-13.845,4.717-28.982,4.411-43.672-3.194,2.187-8.492,3.311-12.706,3.311s-9.512-1.123-12.706-3.311C206.654,314.941,209.288,330.077,211.371,343.922Z" transform="translate(-171.796 -223.395)" fill="#0e699b"/>
    <path id="Trazado_781309" data-name="Trazado 781309" d="M291.175,283a.519.519,0,0,0-.085-.947c-1.1-.366-2.555-.941-2.558-1.431-.007-1.044.945-8.031,3.656-11.762a3.367,3.367,0,0,1,1.958-1.3l3.1-.726a1.295,1.295,0,0,1,1.585,1.383c-1.6,16.9,1.574,34.793,4,50.93-5.938-9.461-13.371-23.373-14.856-33.058C287.848,285.231,288.992,284.212,291.175,283Z" transform="translate(-263.261 -198.625)" fill="#fff"/>
    <path id="Trazado_781310" data-name="Trazado 781310" d="M170.732,268.22a1.295,1.295,0,0,1,1.585-1.383l3.1.727a3.367,3.367,0,0,1,1.958,1.3c2.71,3.73,3.663,10.718,3.656,11.762,0,.49-1.457,1.065-2.559,1.431a.519.519,0,0,0-.085.947c2.183,1.214,3.326,2.231,3.194,3.093-1.485,9.685-8.918,23.6-14.856,33.058,2.427-16.137,5.6-34.035,4-50.931Z" transform="translate(-110.563 -198.626)" fill="#fff"/>
    <g id="Grupo_1062943" data-name="Grupo 1062943" transform="translate(0)">
      <path id="Trazado_781311" data-name="Trazado 781311" d="M246.131,161.151a1.553,1.553,0,0,1,1.222.593.435.435,0,0,0,.371,0,1.557,1.557,0,0,1,2.779.964c0,1.641-2.036,2.193-2.965,2.193s-2.965-.552-2.965-2.193A1.557,1.557,0,0,1,246.131,161.151Z" transform="translate(-199.668 -120.386)" fill="#462e4c"/>
      <path id="Trazado_781312" data-name="Trazado 781312" d="M282.3,110.691c-.772-.064-1.631-.172-2.529-.263a22.761,22.761,0,0,0-2.838-.144,9.434,9.434,0,0,0-3.1.537,5.972,5.972,0,0,0-1.5.818,4.951,4.951,0,0,0-1.171,1.255,1.116,1.116,0,0,0,1.619,1.486l.066-.052a4.2,4.2,0,0,1,1.818-.8,9.732,9.732,0,0,1,2.249-.116c.81.033,1.663.13,2.557.205a17.517,17.517,0,0,0,2.866.078,1.5,1.5,0,0,0,.012-3Z" transform="translate(-239.746 -82.716)" fill="#462e4c"/>
      <path id="Trazado_781313" data-name="Trazado 781313" d="M278.352,136.192a8.624,8.624,0,0,0,2.191-.239,5.052,5.052,0,0,1,1.553-.124,3.736,3.736,0,0,1,1.32.427,8.162,8.162,0,0,1,1.314.887l.052.04a1.562,1.562,0,0,0,1.9-2.475,1.706,1.706,0,0,0-.165-.111,10.958,10.958,0,0,0-2-.984,6.431,6.431,0,0,0-2.377-.4,7.593,7.593,0,0,0-2.2.45,7,7,0,0,1-1.557.41l-.058,0a1.06,1.06,0,0,0,.028,2.115Z" transform="translate(-244.965 -99.696)" fill="#462e4c"/>
      <path id="Trazado_781314" data-name="Trazado 781314" d="M239.888,189.212a5.533,5.533,0,0,0,5.611-4.958,2.677,2.677,0,0,0-.609-2.17,2.941,2.941,0,0,0-2.252-1.026h-5.5a2.941,2.941,0,0,0-2.252,1.026,2.676,2.676,0,0,0-.609,2.169A5.534,5.534,0,0,0,239.888,189.212Zm2.449-5.04a2.519,2.519,0,0,1-4.9,0Z" transform="translate(-192.018 -135.128)" fill="#462e4c"/>
      <path id="Trazado_781315" data-name="Trazado 781315" d="M79.542,120.891c-5.919-6.84-8.525-14.278-7.958-22.68.535-7.925,3.669-15.63,6.987-23.788,2.938-7.223,5.976-14.691,7-22.259C87.649,36.877,91.07,25.6,96.03,17.7c5.691-9.066,13.546-13.663,23.348-13.663s17.654,4.6,23.345,13.664c4.961,7.9,8.381,19.177,10.456,34.464,1.027,7.568,4.065,15.036,7,22.259,3.319,8.156,6.453,15.862,6.988,23.787.567,8.4-2.039,15.838-7.957,22.677.346,3.466.986,10.8.986,10.8a2.854,2.854,0,0,1-2.843,3.1H81.4a2.854,2.854,0,0,1-2.843-3.1S79.2,124.356,79.542,120.891Zm64.45,10.782,2.288-36.843a1.557,1.557,0,0,1,3.108.193l-2.276,36.651h9.963S153.506,90.731,147.6,82.8a16.317,16.317,0,0,0-5.545-4.213,31.825,31.825,0,0,1,1.479,7.462,2.225,2.225,0,0,1-1.293,1.91.272.272,0,0,0-.029.448c1.209.93,2.057,2.022,1.855,3.338-1.738,11.334-10.856,26.9-14.9,33.375-.335,2.231-.649,4.411-.938,6.559Zm-6.368-44.4a2.131,2.131,0,0,1,1.357-1.3c.317-.106.581-.2.8-.289a.825.825,0,0,0,.516-.886c-.329-2.286-1.32-6.978-3.232-9.609a1.811,1.811,0,0,0-1.053-.7l-2.171-.508a.43.43,0,0,0-.527.456c1.184,14.07-.847,28.978-2.9,42.473,3.964-7.01,9.092-17.185,10.475-25.036a.816.816,0,0,0-.267-.757,12.125,12.125,0,0,0-2.046-1.348,2.081,2.081,0,0,1-.955-2.5ZM123.483,66.451c-.361.118-1.717.548-2.024.649a6.648,6.648,0,0,1-4.163,0c-.307-.1-1.663-.532-2.024-.65-.461,4.275-2.709,7.05-6.717,8.268-.111,1.588-.15,3.415-.13,5.423a25.2,25.2,0,0,0,21.907,0c.02-2.008-.019-3.836-.13-5.423-4.011-1.218-6.259-3.991-6.721-8.267Zm8.523-8.838c2.718-3.653,4.352-9.489,4.266-15.23a4.37,4.37,0,0,0-.151-1.064c-1.264-4.718-4.8-6.852-9.27-9.554-4.14-2.5-8.822-5.329-13.069-10.842a.191.191,0,0,0-.331.05,50.157,50.157,0,0,1-6.908,12.3c-2.283,3.191-3.931,5.5-4.043,8.478-.223,5.957,1.4,12.033,4.25,15.858,2.8,3.757,7.427,5.227,10.492,6.2.371.118.718.228,1.038.334a3.481,3.481,0,0,0,2.2,0c.32-.106.667-.217,1.038-.334,3.065-.972,7.7-2.442,10.492-6.2Zm-6.912,74.059c.908-6.353,4.532-31.4,5.153-48.044a28.836,28.836,0,0,1-21.738.006c.623,16.761,4.293,42.011,5.154,48.037Zm-33.448,0L89.37,95.021a1.557,1.557,0,1,1,3.108-.193l2.288,36.844H110.53c-.289-2.148-.6-4.326-.938-6.559-4.048-6.477-13.166-22.041-14.9-33.375-.2-1.316.646-2.408,1.855-3.338a.272.272,0,0,0-.029-.448,2.225,2.225,0,0,1-1.293-1.91A31.839,31.839,0,0,1,96.7,78.576a16.333,16.333,0,0,0-5.547,4.219c-5.9,7.936-9.473,48.878-9.473,48.878Zm13.8-57.235a.43.43,0,0,0-.527-.456l-2.171.508a1.812,1.812,0,0,0-1.054.7c-1.911,2.631-2.9,7.323-3.232,9.609a.825.825,0,0,0,.516.886c.217.086.481.182.8.289a2.131,2.131,0,0,1,1.357,1.3,2.081,2.081,0,0,1-.955,2.5,12.124,12.124,0,0,0-2.045,1.348.817.817,0,0,0-.267.757c1.383,7.85,6.511,18.026,10.475,25.036C106.293,103.417,104.262,88.507,105.445,74.438Zm-16.787,6.5c2.014-2.708,5.778-4.961,9.874-6.59.2-.346.417-.678.644-.99a4.925,4.925,0,0,1,2.863-1.9l3.1-.726a2.856,2.856,0,0,1,2.527.628,2.776,2.776,0,0,1,.276.28c2.794-.96,4.151-2.967,4.293-6.3a18.711,18.711,0,0,1-7.984-5.864,21.3,21.3,0,0,1-2.371-4.168q-.44.033-.852.033a8.1,8.1,0,0,1-6.378-2.724,10.192,10.192,0,0,1-2.106-8.649,6.136,6.136,0,0,1,3.788-4.085,6.594,6.594,0,0,1,3.319-.285c.651-2.94,2.394-5.38,4.357-8.125a46.386,46.386,0,0,0,6.672-11.987,3.048,3.048,0,0,1,5.3-.8c3.96,5.279,8.484,8.012,12.475,10.422,4.433,2.678,8.631,5.217,10.4,10.542a6.644,6.644,0,0,1,3.564.25,6.119,6.119,0,0,1,3.782,4.07,10.192,10.192,0,0,1-2.106,8.649,8.1,8.1,0,0,1-6.378,2.724c-.271,0-.553-.012-.841-.033a21.448,21.448,0,0,1-2.381,4.168,18.7,18.7,0,0,1-7.984,5.864c.142,3.337,1.5,5.345,4.293,6.3a2.779,2.779,0,0,1,.276-.28,2.857,2.857,0,0,1,2.527-.628l3.1.726a4.925,4.925,0,0,1,2.862,1.9c.225.311.438.642.642.986,4.1,1.628,7.862,3.884,9.876,6.593,4.633,6.227,7.167,22.179,8.65,35.534,9.725-13.391,4.285-26.775-1.45-40.874-3.01-7.4-6.123-15.055-7.2-23.014-2.014-14.838-5.288-25.707-10.009-33.228-5.155-8.21-11.929-12.2-20.708-12.2s-15.554,3.992-20.709,12.2c-4.721,7.52-7.994,18.389-10.009,33.228-1.08,7.958-4.193,15.611-7.2,23.014-5.734,14.1-11.175,27.484-1.448,40.876,1.483-13.356,4.016-29.309,8.65-35.537Zm8.272-34.62A1.558,1.558,0,0,1,98.6,44.878a7.723,7.723,0,0,1,.847.118c-.051-.761-.078-1.524-.074-2.287A3.381,3.381,0,0,0,97.4,42.8a3.015,3.015,0,0,0-1.88,2.079A7.358,7.358,0,0,0,97,50.564a4.985,4.985,0,0,0,3.748,1.648,31.769,31.769,0,0,1-.9-3.846,4.614,4.614,0,0,0-1.477-.383,1.557,1.557,0,0,1-1.438-1.667Zm43.459,1.668a4.662,4.662,0,0,0-1.462.375,31.262,31.262,0,0,1-.905,3.855,4.982,4.982,0,0,0,3.736-1.649,7.362,7.362,0,0,0,1.479-5.682,3,3,0,0,0-1.872-2.065,3.448,3.448,0,0,0-1.98-.1q0,1.145-.069,2.281a7.542,7.542,0,0,1,.843-.117,1.557,1.557,0,0,1,.23,3.105Z" transform="translate(-71.508 -4.037)" fill="#462e4c"/>
      <circle id="Elipse_5048" data-name="Elipse 5048" cx="2.378" cy="2.378" r="2.378" transform="translate(35.438 35.32)" fill="#462e4c"/>
      <path id="Trazado_781316" data-name="Trazado 781316" d="M193.289,113.7a17.518,17.518,0,0,0,2.866-.078c.895-.076,1.747-.173,2.557-.205a9.732,9.732,0,0,1,2.249.116,4.2,4.2,0,0,1,1.818.8l.065.05a1.116,1.116,0,0,0,1.62-1.484,4.95,4.95,0,0,0-1.171-1.255,5.972,5.972,0,0,0-1.5-.818,9.433,9.433,0,0,0-3.1-.537,22.764,22.764,0,0,0-2.838.144c-.9.091-1.757.2-2.529.263l-.047,0a1.5,1.5,0,0,0,.012,3Z" transform="translate(-140.134 -82.717)" fill="#462e4c"/>
      <path id="Trazado_781317" data-name="Trazado 781317" d="M205.242,134.076a7,7,0,0,1-1.557-.41,7.593,7.593,0,0,0-2.2-.45,6.431,6.431,0,0,0-2.377.4,10.959,10.959,0,0,0-2,.984,1.562,1.562,0,0,0,1.574,2.7,1.6,1.6,0,0,0,.158-.106l.059-.046a8.158,8.158,0,0,1,1.314-.887,3.736,3.736,0,0,1,1.32-.427,5.053,5.053,0,0,1,1.553.124,8.623,8.623,0,0,0,2.191.239,1.06,1.06,0,0,0,.028-2.115Z" transform="translate(-142.918 -99.699)" fill="#462e4c"/>
      <circle id="Elipse_5049" data-name="Elipse 5049" cx="2.378" cy="2.378" r="2.378" transform="translate(55.546 35.32)" fill="#462e4c"/>
    </g>
  </g>
</svg>
