<svg xmlns="http://www.w3.org/2000/svg" width="200.281" height="103" viewBox="0 0 200.281 103">
  <g id="Grupo_1062938" data-name="Grupo 1062938" transform="translate(-332 -3852)">
    <g id="Grupo_1062926" data-name="Grupo 1062926" transform="translate(8)">
      <rect id="Rectángulo_356679" data-name="Rectángulo 356679" width="179" height="103" rx="7" transform="translate(324 3852)" fill="#e0e4f5"/>
      <g id="Grupo_1062925" data-name="Grupo 1062925" transform="translate(-334 -117.715)">
        <g id="Grupo_1062924" data-name="Grupo 1062924" transform="translate(797.968 3979.582)">
          <g id="Grupo_985886" data-name="Grupo 985886" transform="translate(33.306 33.306)">
            <path id="Trazado_113856" data-name="Trazado 113856" d="M2.134-2a1.062,1.062,0,0,1,.8.295,1.023,1.023,0,0,1,.283.739.988.988,0,0,1-.283.723,1.078,1.078,0,0,1-.8.287A1.082,1.082,0,0,1,1.345-.24a.97.97,0,0,1-.291-.727,1.023,1.023,0,0,1,.283-.739A1.052,1.052,0,0,1,2.134-2Zm8.281,0a1.062,1.062,0,0,1,.8.295,1.023,1.023,0,0,1,.283.739.988.988,0,0,1-.283.723,1.078,1.078,0,0,1-.8.287A1.082,1.082,0,0,1,9.626-.24a.97.97,0,0,1-.291-.727,1.023,1.023,0,0,1,.283-.739A1.052,1.052,0,0,1,10.414-2Zm8.281,0a1.062,1.062,0,0,1,.8.295,1.023,1.023,0,0,1,.283.739.987.987,0,0,1-.283.723,1.078,1.078,0,0,1-.8.287,1.082,1.082,0,0,1-.788-.283.97.97,0,0,1-.291-.727,1.023,1.023,0,0,1,.283-.739A1.052,1.052,0,0,1,18.695-2Zm8.281,0a1.062,1.062,0,0,1,.8.295,1.023,1.023,0,0,1,.283.739.987.987,0,0,1-.283.723,1.078,1.078,0,0,1-.8.287,1.082,1.082,0,0,1-.788-.283A.97.97,0,0,1,25.9-.967a1.023,1.023,0,0,1,.283-.739A1.052,1.052,0,0,1,26.975-2Z" transform="translate(-1.055 2)" fill="#452d9e"/>
            <path id="Trazado_113857" data-name="Trazado 113857" d="M2.134-2a1.062,1.062,0,0,1,.8.295,1.023,1.023,0,0,1,.283.739.988.988,0,0,1-.283.723,1.078,1.078,0,0,1-.8.287A1.082,1.082,0,0,1,1.345-.24a.97.97,0,0,1-.291-.727,1.023,1.023,0,0,1,.283-.739A1.052,1.052,0,0,1,2.134-2Zm8.281,0a1.062,1.062,0,0,1,.8.295,1.023,1.023,0,0,1,.283.739.988.988,0,0,1-.283.723,1.078,1.078,0,0,1-.8.287A1.082,1.082,0,0,1,9.626-.24a.97.97,0,0,1-.291-.727,1.023,1.023,0,0,1,.283-.739A1.052,1.052,0,0,1,10.414-2Zm8.281,0a1.062,1.062,0,0,1,.8.295,1.023,1.023,0,0,1,.283.739.987.987,0,0,1-.283.723,1.078,1.078,0,0,1-.8.287,1.082,1.082,0,0,1-.788-.283.97.97,0,0,1-.291-.727,1.023,1.023,0,0,1,.283-.739A1.052,1.052,0,0,1,18.695-2Zm8.281,0a1.062,1.062,0,0,1,.8.295,1.023,1.023,0,0,1,.283.739.987.987,0,0,1-.283.723,1.078,1.078,0,0,1-.8.287,1.082,1.082,0,0,1-.788-.283A.97.97,0,0,1,25.9-.967a1.023,1.023,0,0,1,.283-.739A1.052,1.052,0,0,1,26.975-2Z" transform="translate(-1.055 9.837)" fill="#452d9e"/>
            <path id="Trazado_113858" data-name="Trazado 113858" d="M2.134-2a1.062,1.062,0,0,1,.8.295,1.023,1.023,0,0,1,.283.739.988.988,0,0,1-.283.723,1.078,1.078,0,0,1-.8.287A1.082,1.082,0,0,1,1.345-.24a.97.97,0,0,1-.291-.727,1.023,1.023,0,0,1,.283-.739A1.052,1.052,0,0,1,2.134-2Zm8.281,0a1.062,1.062,0,0,1,.8.295,1.023,1.023,0,0,1,.283.739.988.988,0,0,1-.283.723,1.078,1.078,0,0,1-.8.287A1.082,1.082,0,0,1,9.626-.24a.97.97,0,0,1-.291-.727,1.023,1.023,0,0,1,.283-.739A1.052,1.052,0,0,1,10.414-2Zm8.281,0a1.062,1.062,0,0,1,.8.295,1.023,1.023,0,0,1,.283.739.987.987,0,0,1-.283.723,1.078,1.078,0,0,1-.8.287,1.082,1.082,0,0,1-.788-.283.97.97,0,0,1-.291-.727,1.023,1.023,0,0,1,.283-.739A1.052,1.052,0,0,1,18.695-2Zm8.281,0a1.062,1.062,0,0,1,.8.295,1.023,1.023,0,0,1,.283.739.987.987,0,0,1-.283.723,1.078,1.078,0,0,1-.8.287,1.082,1.082,0,0,1-.788-.283A.97.97,0,0,1,25.9-.967a1.023,1.023,0,0,1,.283-.739A1.052,1.052,0,0,1,26.975-2Z" transform="translate(-1.055 18.653)" fill="#452d9e"/>
            <path id="Trazado_113855" data-name="Trazado 113855" d="M2.134-2a1.062,1.062,0,0,1,.8.295,1.023,1.023,0,0,1,.283.739.988.988,0,0,1-.283.723,1.078,1.078,0,0,1-.8.287A1.082,1.082,0,0,1,1.345-.24a.97.97,0,0,1-.291-.727,1.023,1.023,0,0,1,.283-.739A1.052,1.052,0,0,1,2.134-2Zm8.281,0a1.062,1.062,0,0,1,.8.295,1.023,1.023,0,0,1,.283.739.988.988,0,0,1-.283.723,1.078,1.078,0,0,1-.8.287A1.082,1.082,0,0,1,9.626-.24a.97.97,0,0,1-.291-.727,1.023,1.023,0,0,1,.283-.739A1.052,1.052,0,0,1,10.414-2Zm8.281,0a1.062,1.062,0,0,1,.8.295,1.023,1.023,0,0,1,.283.739.987.987,0,0,1-.283.723,1.078,1.078,0,0,1-.8.287,1.082,1.082,0,0,1-.788-.283.97.97,0,0,1-.291-.727,1.023,1.023,0,0,1,.283-.739A1.052,1.052,0,0,1,18.695-2Zm8.281,0a1.062,1.062,0,0,1,.8.295,1.023,1.023,0,0,1,.283.739.987.987,0,0,1-.283.723,1.078,1.078,0,0,1-.8.287,1.082,1.082,0,0,1-.788-.283A.97.97,0,0,1,25.9-.967a1.023,1.023,0,0,1,.283-.739A1.052,1.052,0,0,1,26.975-2Z" transform="translate(-1.055 26.489)" fill="#452d9e"/>
          </g>
          <g id="Grupo_985887" data-name="Grupo 985887" transform="translate(0 33.306)">
            <path id="Trazado_113856-2" data-name="Trazado 113856" d="M2.134-2a1.062,1.062,0,0,1,.8.295,1.023,1.023,0,0,1,.283.739.988.988,0,0,1-.283.723,1.078,1.078,0,0,1-.8.287A1.082,1.082,0,0,1,1.345-.24a.97.97,0,0,1-.291-.727,1.023,1.023,0,0,1,.283-.739A1.052,1.052,0,0,1,2.134-2Zm8.281,0a1.062,1.062,0,0,1,.8.295,1.023,1.023,0,0,1,.283.739.988.988,0,0,1-.283.723,1.078,1.078,0,0,1-.8.287A1.082,1.082,0,0,1,9.626-.24a.97.97,0,0,1-.291-.727,1.023,1.023,0,0,1,.283-.739A1.052,1.052,0,0,1,10.414-2Zm8.281,0a1.062,1.062,0,0,1,.8.295,1.023,1.023,0,0,1,.283.739.987.987,0,0,1-.283.723,1.078,1.078,0,0,1-.8.287,1.082,1.082,0,0,1-.788-.283.97.97,0,0,1-.291-.727,1.023,1.023,0,0,1,.283-.739A1.052,1.052,0,0,1,18.695-2Zm8.281,0a1.062,1.062,0,0,1,.8.295,1.023,1.023,0,0,1,.283.739.987.987,0,0,1-.283.723,1.078,1.078,0,0,1-.8.287,1.082,1.082,0,0,1-.788-.283A.97.97,0,0,1,25.9-.967a1.023,1.023,0,0,1,.283-.739A1.052,1.052,0,0,1,26.975-2Z" transform="translate(-1.055 2)" fill="#452d9e"/>
            <path id="Trazado_113857-2" data-name="Trazado 113857" d="M2.134-2a1.062,1.062,0,0,1,.8.295,1.023,1.023,0,0,1,.283.739.988.988,0,0,1-.283.723,1.078,1.078,0,0,1-.8.287A1.082,1.082,0,0,1,1.345-.24a.97.97,0,0,1-.291-.727,1.023,1.023,0,0,1,.283-.739A1.052,1.052,0,0,1,2.134-2Zm8.281,0a1.062,1.062,0,0,1,.8.295,1.023,1.023,0,0,1,.283.739.988.988,0,0,1-.283.723,1.078,1.078,0,0,1-.8.287A1.082,1.082,0,0,1,9.626-.24a.97.97,0,0,1-.291-.727,1.023,1.023,0,0,1,.283-.739A1.052,1.052,0,0,1,10.414-2Zm8.281,0a1.062,1.062,0,0,1,.8.295,1.023,1.023,0,0,1,.283.739.987.987,0,0,1-.283.723,1.078,1.078,0,0,1-.8.287,1.082,1.082,0,0,1-.788-.283.97.97,0,0,1-.291-.727,1.023,1.023,0,0,1,.283-.739A1.052,1.052,0,0,1,18.695-2Zm8.281,0a1.062,1.062,0,0,1,.8.295,1.023,1.023,0,0,1,.283.739.987.987,0,0,1-.283.723,1.078,1.078,0,0,1-.8.287,1.082,1.082,0,0,1-.788-.283A.97.97,0,0,1,25.9-.967a1.023,1.023,0,0,1,.283-.739A1.052,1.052,0,0,1,26.975-2Z" transform="translate(-1.055 9.837)" fill="#452d9e"/>
            <path id="Trazado_113858-2" data-name="Trazado 113858" d="M2.134-2a1.062,1.062,0,0,1,.8.295,1.023,1.023,0,0,1,.283.739.988.988,0,0,1-.283.723,1.078,1.078,0,0,1-.8.287A1.082,1.082,0,0,1,1.345-.24a.97.97,0,0,1-.291-.727,1.023,1.023,0,0,1,.283-.739A1.052,1.052,0,0,1,2.134-2Zm8.281,0a1.062,1.062,0,0,1,.8.295,1.023,1.023,0,0,1,.283.739.988.988,0,0,1-.283.723,1.078,1.078,0,0,1-.8.287A1.082,1.082,0,0,1,9.626-.24a.97.97,0,0,1-.291-.727,1.023,1.023,0,0,1,.283-.739A1.052,1.052,0,0,1,10.414-2Zm8.281,0a1.062,1.062,0,0,1,.8.295,1.023,1.023,0,0,1,.283.739.987.987,0,0,1-.283.723,1.078,1.078,0,0,1-.8.287,1.082,1.082,0,0,1-.788-.283.97.97,0,0,1-.291-.727,1.023,1.023,0,0,1,.283-.739A1.052,1.052,0,0,1,18.695-2Zm8.281,0a1.062,1.062,0,0,1,.8.295,1.023,1.023,0,0,1,.283.739.987.987,0,0,1-.283.723,1.078,1.078,0,0,1-.8.287,1.082,1.082,0,0,1-.788-.283A.97.97,0,0,1,25.9-.967a1.023,1.023,0,0,1,.283-.739A1.052,1.052,0,0,1,26.975-2Z" transform="translate(-1.055 18.653)" fill="#452d9e"/>
            <path id="Trazado_113855-2" data-name="Trazado 113855" d="M2.134-2a1.062,1.062,0,0,1,.8.295,1.023,1.023,0,0,1,.283.739.988.988,0,0,1-.283.723,1.078,1.078,0,0,1-.8.287A1.082,1.082,0,0,1,1.345-.24a.97.97,0,0,1-.291-.727,1.023,1.023,0,0,1,.283-.739A1.052,1.052,0,0,1,2.134-2Zm8.281,0a1.062,1.062,0,0,1,.8.295,1.023,1.023,0,0,1,.283.739.988.988,0,0,1-.283.723,1.078,1.078,0,0,1-.8.287A1.082,1.082,0,0,1,9.626-.24a.97.97,0,0,1-.291-.727,1.023,1.023,0,0,1,.283-.739A1.052,1.052,0,0,1,10.414-2Zm8.281,0a1.062,1.062,0,0,1,.8.295,1.023,1.023,0,0,1,.283.739.987.987,0,0,1-.283.723,1.078,1.078,0,0,1-.8.287,1.082,1.082,0,0,1-.788-.283.97.97,0,0,1-.291-.727,1.023,1.023,0,0,1,.283-.739A1.052,1.052,0,0,1,18.695-2Zm8.281,0a1.062,1.062,0,0,1,.8.295,1.023,1.023,0,0,1,.283.739.987.987,0,0,1-.283.723,1.078,1.078,0,0,1-.8.287,1.082,1.082,0,0,1-.788-.283A.97.97,0,0,1,25.9-.967a1.023,1.023,0,0,1,.283-.739A1.052,1.052,0,0,1,26.975-2Z" transform="translate(-1.055 26.489)" fill="#452d9e"/>
          </g>
          <g id="Grupo_985888" data-name="Grupo 985888" transform="translate(0)">
            <path id="Trazado_113856-3" data-name="Trazado 113856" d="M2.134-2a1.062,1.062,0,0,1,.8.295,1.023,1.023,0,0,1,.283.739.988.988,0,0,1-.283.723,1.078,1.078,0,0,1-.8.287A1.082,1.082,0,0,1,1.345-.24a.97.97,0,0,1-.291-.727,1.023,1.023,0,0,1,.283-.739A1.052,1.052,0,0,1,2.134-2Zm8.281,0a1.062,1.062,0,0,1,.8.295,1.023,1.023,0,0,1,.283.739.988.988,0,0,1-.283.723,1.078,1.078,0,0,1-.8.287A1.082,1.082,0,0,1,9.626-.24a.97.97,0,0,1-.291-.727,1.023,1.023,0,0,1,.283-.739A1.052,1.052,0,0,1,10.414-2Zm8.281,0a1.062,1.062,0,0,1,.8.295,1.023,1.023,0,0,1,.283.739.987.987,0,0,1-.283.723,1.078,1.078,0,0,1-.8.287,1.082,1.082,0,0,1-.788-.283.97.97,0,0,1-.291-.727,1.023,1.023,0,0,1,.283-.739A1.052,1.052,0,0,1,18.695-2Zm8.281,0a1.062,1.062,0,0,1,.8.295,1.023,1.023,0,0,1,.283.739.987.987,0,0,1-.283.723,1.078,1.078,0,0,1-.8.287,1.082,1.082,0,0,1-.788-.283A.97.97,0,0,1,25.9-.967a1.023,1.023,0,0,1,.283-.739A1.052,1.052,0,0,1,26.975-2Z" transform="translate(-1.055 2)" fill="#452d9e"/>
            <path id="Trazado_113857-3" data-name="Trazado 113857" d="M2.134-2a1.062,1.062,0,0,1,.8.295,1.023,1.023,0,0,1,.283.739.988.988,0,0,1-.283.723,1.078,1.078,0,0,1-.8.287A1.082,1.082,0,0,1,1.345-.24a.97.97,0,0,1-.291-.727,1.023,1.023,0,0,1,.283-.739A1.052,1.052,0,0,1,2.134-2Zm8.281,0a1.062,1.062,0,0,1,.8.295,1.023,1.023,0,0,1,.283.739.988.988,0,0,1-.283.723,1.078,1.078,0,0,1-.8.287A1.082,1.082,0,0,1,9.626-.24a.97.97,0,0,1-.291-.727,1.023,1.023,0,0,1,.283-.739A1.052,1.052,0,0,1,10.414-2Zm8.281,0a1.062,1.062,0,0,1,.8.295,1.023,1.023,0,0,1,.283.739.987.987,0,0,1-.283.723,1.078,1.078,0,0,1-.8.287,1.082,1.082,0,0,1-.788-.283.97.97,0,0,1-.291-.727,1.023,1.023,0,0,1,.283-.739A1.052,1.052,0,0,1,18.695-2Zm8.281,0a1.062,1.062,0,0,1,.8.295,1.023,1.023,0,0,1,.283.739.987.987,0,0,1-.283.723,1.078,1.078,0,0,1-.8.287,1.082,1.082,0,0,1-.788-.283A.97.97,0,0,1,25.9-.967a1.023,1.023,0,0,1,.283-.739A1.052,1.052,0,0,1,26.975-2Z" transform="translate(-1.055 9.837)" fill="#452d9e"/>
            <path id="Trazado_113858-3" data-name="Trazado 113858" d="M2.134-2a1.062,1.062,0,0,1,.8.295,1.023,1.023,0,0,1,.283.739.988.988,0,0,1-.283.723,1.078,1.078,0,0,1-.8.287A1.082,1.082,0,0,1,1.345-.24a.97.97,0,0,1-.291-.727,1.023,1.023,0,0,1,.283-.739A1.052,1.052,0,0,1,2.134-2Zm8.281,0a1.062,1.062,0,0,1,.8.295,1.023,1.023,0,0,1,.283.739.988.988,0,0,1-.283.723,1.078,1.078,0,0,1-.8.287A1.082,1.082,0,0,1,9.626-.24a.97.97,0,0,1-.291-.727,1.023,1.023,0,0,1,.283-.739A1.052,1.052,0,0,1,10.414-2Zm8.281,0a1.062,1.062,0,0,1,.8.295,1.023,1.023,0,0,1,.283.739.987.987,0,0,1-.283.723,1.078,1.078,0,0,1-.8.287,1.082,1.082,0,0,1-.788-.283.97.97,0,0,1-.291-.727,1.023,1.023,0,0,1,.283-.739A1.052,1.052,0,0,1,18.695-2Zm8.281,0a1.062,1.062,0,0,1,.8.295,1.023,1.023,0,0,1,.283.739.987.987,0,0,1-.283.723,1.078,1.078,0,0,1-.8.287,1.082,1.082,0,0,1-.788-.283A.97.97,0,0,1,25.9-.967a1.023,1.023,0,0,1,.283-.739A1.052,1.052,0,0,1,26.975-2Z" transform="translate(-1.055 18.653)" fill="#452d9e"/>
            <path id="Trazado_113855-3" data-name="Trazado 113855" d="M2.134-2a1.062,1.062,0,0,1,.8.295,1.023,1.023,0,0,1,.283.739.988.988,0,0,1-.283.723,1.078,1.078,0,0,1-.8.287A1.082,1.082,0,0,1,1.345-.24a.97.97,0,0,1-.291-.727,1.023,1.023,0,0,1,.283-.739A1.052,1.052,0,0,1,2.134-2Zm8.281,0a1.062,1.062,0,0,1,.8.295,1.023,1.023,0,0,1,.283.739.988.988,0,0,1-.283.723,1.078,1.078,0,0,1-.8.287A1.082,1.082,0,0,1,9.626-.24a.97.97,0,0,1-.291-.727,1.023,1.023,0,0,1,.283-.739A1.052,1.052,0,0,1,10.414-2Zm8.281,0a1.062,1.062,0,0,1,.8.295,1.023,1.023,0,0,1,.283.739.987.987,0,0,1-.283.723,1.078,1.078,0,0,1-.8.287,1.082,1.082,0,0,1-.788-.283.97.97,0,0,1-.291-.727,1.023,1.023,0,0,1,.283-.739A1.052,1.052,0,0,1,18.695-2Zm8.281,0a1.062,1.062,0,0,1,.8.295,1.023,1.023,0,0,1,.283.739.987.987,0,0,1-.283.723,1.078,1.078,0,0,1-.8.287,1.082,1.082,0,0,1-.788-.283A.97.97,0,0,1,25.9-.967a1.023,1.023,0,0,1,.283-.739A1.052,1.052,0,0,1,26.975-2Z" transform="translate(-1.055 26.489)" fill="#452d9e"/>
          </g>
          <g id="Grupo_985889" data-name="Grupo 985889" transform="translate(33.306)">
            <path id="Trazado_113856-4" data-name="Trazado 113856" d="M2.134-2a1.062,1.062,0,0,1,.8.295,1.023,1.023,0,0,1,.283.739.988.988,0,0,1-.283.723,1.078,1.078,0,0,1-.8.287A1.082,1.082,0,0,1,1.345-.24a.97.97,0,0,1-.291-.727,1.023,1.023,0,0,1,.283-.739A1.052,1.052,0,0,1,2.134-2Zm8.281,0a1.062,1.062,0,0,1,.8.295,1.023,1.023,0,0,1,.283.739.988.988,0,0,1-.283.723,1.078,1.078,0,0,1-.8.287A1.082,1.082,0,0,1,9.626-.24a.97.97,0,0,1-.291-.727,1.023,1.023,0,0,1,.283-.739A1.052,1.052,0,0,1,10.414-2Zm8.281,0a1.062,1.062,0,0,1,.8.295,1.023,1.023,0,0,1,.283.739.987.987,0,0,1-.283.723,1.078,1.078,0,0,1-.8.287,1.082,1.082,0,0,1-.788-.283.97.97,0,0,1-.291-.727,1.023,1.023,0,0,1,.283-.739A1.052,1.052,0,0,1,18.695-2Zm8.281,0a1.062,1.062,0,0,1,.8.295,1.023,1.023,0,0,1,.283.739.987.987,0,0,1-.283.723,1.078,1.078,0,0,1-.8.287,1.082,1.082,0,0,1-.788-.283A.97.97,0,0,1,25.9-.967a1.023,1.023,0,0,1,.283-.739A1.052,1.052,0,0,1,26.975-2Z" transform="translate(-1.055 2)" fill="#452d9e"/>
            <path id="Trazado_113857-4" data-name="Trazado 113857" d="M2.134-2a1.062,1.062,0,0,1,.8.295,1.023,1.023,0,0,1,.283.739.988.988,0,0,1-.283.723,1.078,1.078,0,0,1-.8.287A1.082,1.082,0,0,1,1.345-.24a.97.97,0,0,1-.291-.727,1.023,1.023,0,0,1,.283-.739A1.052,1.052,0,0,1,2.134-2Zm8.281,0a1.062,1.062,0,0,1,.8.295,1.023,1.023,0,0,1,.283.739.988.988,0,0,1-.283.723,1.078,1.078,0,0,1-.8.287A1.082,1.082,0,0,1,9.626-.24a.97.97,0,0,1-.291-.727,1.023,1.023,0,0,1,.283-.739A1.052,1.052,0,0,1,10.414-2Zm8.281,0a1.062,1.062,0,0,1,.8.295,1.023,1.023,0,0,1,.283.739.987.987,0,0,1-.283.723,1.078,1.078,0,0,1-.8.287,1.082,1.082,0,0,1-.788-.283.97.97,0,0,1-.291-.727,1.023,1.023,0,0,1,.283-.739A1.052,1.052,0,0,1,18.695-2Zm8.281,0a1.062,1.062,0,0,1,.8.295,1.023,1.023,0,0,1,.283.739.987.987,0,0,1-.283.723,1.078,1.078,0,0,1-.8.287,1.082,1.082,0,0,1-.788-.283A.97.97,0,0,1,25.9-.967a1.023,1.023,0,0,1,.283-.739A1.052,1.052,0,0,1,26.975-2Z" transform="translate(-1.055 9.837)" fill="#452d9e"/>
            <path id="Trazado_113858-4" data-name="Trazado 113858" d="M2.134-2a1.062,1.062,0,0,1,.8.295,1.023,1.023,0,0,1,.283.739.988.988,0,0,1-.283.723,1.078,1.078,0,0,1-.8.287A1.082,1.082,0,0,1,1.345-.24a.97.97,0,0,1-.291-.727,1.023,1.023,0,0,1,.283-.739A1.052,1.052,0,0,1,2.134-2Zm8.281,0a1.062,1.062,0,0,1,.8.295,1.023,1.023,0,0,1,.283.739.988.988,0,0,1-.283.723,1.078,1.078,0,0,1-.8.287A1.082,1.082,0,0,1,9.626-.24a.97.97,0,0,1-.291-.727,1.023,1.023,0,0,1,.283-.739A1.052,1.052,0,0,1,10.414-2Zm8.281,0a1.062,1.062,0,0,1,.8.295,1.023,1.023,0,0,1,.283.739.987.987,0,0,1-.283.723,1.078,1.078,0,0,1-.8.287,1.082,1.082,0,0,1-.788-.283.97.97,0,0,1-.291-.727,1.023,1.023,0,0,1,.283-.739A1.052,1.052,0,0,1,18.695-2Zm8.281,0a1.062,1.062,0,0,1,.8.295,1.023,1.023,0,0,1,.283.739.987.987,0,0,1-.283.723,1.078,1.078,0,0,1-.8.287,1.082,1.082,0,0,1-.788-.283A.97.97,0,0,1,25.9-.967a1.023,1.023,0,0,1,.283-.739A1.052,1.052,0,0,1,26.975-2Z" transform="translate(-1.055 18.653)" fill="#452d9e"/>
            <path id="Trazado_113855-4" data-name="Trazado 113855" d="M2.134-2a1.062,1.062,0,0,1,.8.295,1.023,1.023,0,0,1,.283.739.988.988,0,0,1-.283.723,1.078,1.078,0,0,1-.8.287A1.082,1.082,0,0,1,1.345-.24a.97.97,0,0,1-.291-.727,1.023,1.023,0,0,1,.283-.739A1.052,1.052,0,0,1,2.134-2Zm8.281,0a1.062,1.062,0,0,1,.8.295,1.023,1.023,0,0,1,.283.739.988.988,0,0,1-.283.723,1.078,1.078,0,0,1-.8.287A1.082,1.082,0,0,1,9.626-.24a.97.97,0,0,1-.291-.727,1.023,1.023,0,0,1,.283-.739A1.052,1.052,0,0,1,10.414-2Zm8.281,0a1.062,1.062,0,0,1,.8.295,1.023,1.023,0,0,1,.283.739.987.987,0,0,1-.283.723,1.078,1.078,0,0,1-.8.287,1.082,1.082,0,0,1-.788-.283.97.97,0,0,1-.291-.727,1.023,1.023,0,0,1,.283-.739A1.052,1.052,0,0,1,18.695-2Zm8.281,0a1.062,1.062,0,0,1,.8.295,1.023,1.023,0,0,1,.283.739.987.987,0,0,1-.283.723,1.078,1.078,0,0,1-.8.287,1.082,1.082,0,0,1-.788-.283A.97.97,0,0,1,25.9-.967a1.023,1.023,0,0,1,.283-.739A1.052,1.052,0,0,1,26.975-2Z" transform="translate(-1.055 26.489)" fill="#452d9e"/>
          </g>
        </g>
      </g>
    </g>
    <g id="bebe" transform="translate(370 3842.851)">
      <g id="Grupo_1062936" data-name="Grupo 1062936" transform="translate(1.787 23.118)">
        <g id="Grupo_1062935" data-name="Grupo 1062935" transform="translate(0 8.237)">
          <path id="Trazado_781268" data-name="Trazado 781268" d="M120.489,106.883a34,34,0,0,0-24.64-25.72,8.385,8.385,0,0,0-4.542,15.432,12.181,12.181,0,0,1-15.841-14.4,33.946,33.946,0,1,0,45.024,24.691Z" transform="translate(-46.183 -81.163)" fill="#f9eacd"/>
          <path id="Trazado_781269" data-name="Trazado 781269" d="M17.816,241.817a33.911,33.911,0,0,1,.757-7.149h-.757a7.149,7.149,0,0,0,0,14.3h.757A33.928,33.928,0,0,1,17.816,241.817Z" transform="translate(-10.667 -208.948)" fill="#f9eacd"/>
          <path id="Trazado_781270" data-name="Trazado 781270" d="M454.155,234.664a34.234,34.234,0,0,1,0,14.3h.756a7.149,7.149,0,1,0,0-14.3Z" transform="translate(-379.847 -208.945)" fill="#f9eacd"/>
        </g>
        <path id="Trazado_781271" data-name="Trazado 781271" d="M195.515,56.348a12.174,12.174,0,1,1,11.715-15.5,8.385,8.385,0,0,0-7.7,14.818A12.148,12.148,0,0,1,195.515,56.348Z" transform="translate(-154.409 -31.999)" fill="#7ba9d6"/>
      </g>
      <g id="Grupo_1062937" data-name="Grupo 1062937" transform="translate(0 21.331)">
        <path id="Trazado_781272" data-name="Trazado 781272" d="M107.943,189.154a1.787,1.787,0,0,0-2.426.709l-.036.065a1.787,1.787,0,1,0,3.135,1.718l.036-.065A1.787,1.787,0,0,0,107.943,189.154Z" transform="translate(-87.624 -160.852)" fill="#3449bc"/>
        <path id="Trazado_781273" data-name="Trazado 781273" d="M85.786,64.224a8.946,8.946,0,0,0-8.272-8.908A35.752,35.752,0,0,0,56.191,31.034a13.962,13.962,0,0,0-26.594.005A35.812,35.812,0,0,0,8.265,55.316a8.933,8.933,0,0,0,.007,17.817,35.749,35.749,0,0,0,69.24,0A8.946,8.946,0,0,0,85.786,64.224ZM42.893,24.906a10.437,10.437,0,0,1,8.667,4.663h-.107l-.069,0h-.027a10.175,10.175,0,0,0-8.169,16.1c-.1,0-.2,0-.3,0a10.387,10.387,0,0,1,0-20.775ZM7.523,69.4a5.362,5.362,0,0,1,0-10.344q-.23,1.6-.318,3.22c0,.015,0,.03,0,.045q-.016.3-.027.592c0,.075,0,.15-.006.225,0,.142-.009.283-.012.425q-.006.333-.006.665c0,.271,0,.541.011.812q0,.127.007.254.009.3.022.59c0,.083.007.167.011.251q.02.368.047.736c.009.115.019.23.028.345q.018.218.039.436c.012.128.025.256.038.384.016.149.034.3.051.448q.035.293.075.584C7.493,69.175,7.507,69.286,7.523,69.4Zm35.37,27a32.224,32.224,0,0,1-31.5-25.619c-.027-.132-.053-.266-.078-.4s-.05-.254-.073-.382c-.033-.181-.063-.362-.093-.543-.014-.083-.028-.166-.041-.25-.036-.23-.068-.459-.1-.69-.005-.039-.012-.078-.016-.117q-.053-.407-.1-.815s0,0,0,0a32.388,32.388,0,0,1-.174-3.351c0-.253,0-.505.01-.758q0-.124.007-.248.008-.255.02-.51c0-.1.009-.2.014-.3.009-.15.019-.3.03-.451q.028-.39.064-.777c0-.03.005-.059.008-.089A32.361,32.361,0,0,1,28.933,35.237c0,.019,0,.038,0,.056a13.916,13.916,0,0,0,.5,3.7,28.358,28.358,0,0,0-8.386,6.782,1.787,1.787,0,0,0,2.732,2.3A24.806,24.806,0,0,1,30.825,42.3,13.961,13.961,0,0,0,47.5,48.475a1.787,1.787,0,0,0,.38-3.188,6.6,6.6,0,0,1,3.353-12.138A32.155,32.155,0,0,1,74.38,57.624c.04.194.08.387.116.582.019.1.037.2.055.306.028.159.056.318.083.478.016.1.031.191.046.287q.041.269.079.539c.01.075.021.15.031.225q.1.784.166,1.572c0,.06.009.121.013.181q.023.3.04.607c0,.079.009.157.012.236.01.193.017.386.023.578,0,.075.005.149.007.224.006.262.01.524.01.786q0,.423-.011.846c0,.044,0,.087,0,.13-.007.239-.016.479-.029.718,0,.043-.006.085-.008.128-.014.239-.029.478-.047.717,0,.048-.009.1-.013.144q-.029.346-.064.692c-.007.064-.015.128-.022.192-.023.211-.048.422-.075.632-.012.088-.025.176-.037.264-.025.182-.051.364-.08.546-.019.118-.039.235-.059.353-.025.147-.049.294-.076.44s-.056.3-.085.445c-.022.111-.044.222-.067.333A32.225,32.225,0,0,1,42.893,96.394Zm35.37-27c.02-.135.037-.271.055-.406s.038-.287.055-.43q.033-.27.062-.542.019-.177.035-.356.023-.233.042-.467c.009-.108.018-.215.026-.324q.028-.372.047-.745c0-.08.007-.16.011-.241q.014-.3.023-.6,0-.125.007-.25c.006-.271.01-.542.01-.813q0-.354-.007-.707c0-.086,0-.171-.007-.257q-.006-.222-.014-.444c0-.105-.01-.21-.014-.315-.006-.127-.013-.254-.02-.381s-.014-.228-.022-.342-.017-.234-.026-.351-.018-.238-.029-.356-.021-.229-.033-.343-.022-.236-.035-.354c-.014-.133-.03-.265-.046-.4s-.036-.295-.055-.442-.042-.321-.066-.481a5.363,5.363,0,0,1,0,10.345Z" transform="translate(0 -21.331)" fill="#3449bc"/>
        <path id="Trazado_781274" data-name="Trazado 781274" d="M149.135,263.354a7.149,7.149,0,0,0-13.811,0,1.787,1.787,0,0,0,3.453.925,3.574,3.574,0,0,1,6.9,0,1.787,1.787,0,0,0,3.453-.925Z" transform="translate(-112.599 -218.392)" fill="#3449bc"/>
        <path id="Trazado_781275" data-name="Trazado 781275" d="M300.548,258.055a7.159,7.159,0,0,0-6.905,5.3,1.787,1.787,0,0,0,3.453.925,3.574,3.574,0,0,1,6.9,0,1.787,1.787,0,0,0,3.453-.925A7.159,7.159,0,0,0,300.548,258.055Z" transform="translate(-244.392 -218.392)" fill="#3449bc"/>
        <path id="Trazado_781276" data-name="Trazado 781276" d="M227.032,364.216a1.787,1.787,0,0,0-2.189,1.264,3.574,3.574,0,0,1-6.9,0,1.787,1.787,0,1,0-3.453.925,7.149,7.149,0,0,0,13.811,0A1.788,1.788,0,0,0,227.032,364.216Z" transform="translate(-178.497 -306.715)" fill="#3449bc"/>
      </g>
    </g>
  </g>
</svg>
